<?xml version="1.0" encoding="UTF-8" standalone="no"?>
<!-- Created with Inkscape (http://www.inkscape.org/) -->

<svg
   xmlns:dc="http://purl.org/dc/elements/1.1/"
   xmlns:cc="http://creativecommons.org/ns#"
   xmlns:rdf="http://www.w3.org/1999/02/22-rdf-syntax-ns#"
   xmlns:svg="http://www.w3.org/2000/svg"
   xmlns="http://www.w3.org/2000/svg"
   version="1.1"
   width="32"
   height="32"
   id="svg3240">
  <defs
     id="defs3242" />
  <metadata
     id="metadata3245">
    <rdf:RDF>
      <cc:Work
         rdf:about="">
        <dc:format>image/svg+xml</dc:format>
        <dc:type
           rdf:resource="http://purl.org/dc/dcmitype/StillImage" />
        <dc:title></dc:title>
      </cc:Work>
    </rdf:RDF>
  </metadata>
  <g
     id="layer1">
    <path
       d="M 16,-1.5e-7 C 7.163018,-1.5e-7 0,7.1631101 0,16 0,24.8369 7.163113,32 16,32 24.836887,32 32,24.8369 32,16 32,7.1631101 24.836887,-1.5e-7 16,-1.5e-7 z M 16,28.3077 C 9.203654,28.3077 3.692283,22.7963 3.692283,16 3.692283,9.2024501 9.203654,3.6922801 16,3.6922801 c 6.797554,0 12.307717,5.5101 12.307717,12.3077199 0,6.7963 -5.5101,12.3077 -12.307717,12.3077 z m 4.600635,-13.53847 h -9.846142 c -0.680604,0 -1.230771,0.55137 -1.230771,1.23077 0,0.6806 0.550167,1.2308 1.230771,1.2308 h 9.846142 c 0.680604,0 1.230772,-0.5502 1.230772,-1.2308 0,-0.6794 -0.550168,-1.23077 -1.230772,-1.23077 z"
       id="path257" />
  </g>
</svg>
