<?xml version="1.0" encoding="UTF-8" standalone="no"?>
<!-- Created with Inkscape (http://www.inkscape.org/) -->

<svg
   xmlns:dc="http://purl.org/dc/elements/1.1/"
   xmlns:cc="http://creativecommons.org/ns#"
   xmlns:rdf="http://www.w3.org/1999/02/22-rdf-syntax-ns#"
   xmlns:svg="http://www.w3.org/2000/svg"
   xmlns="http://www.w3.org/2000/svg"
   version="1.1"
   width="32"
   height="32"
   id="svg3251">
  <defs
     id="defs3253" />
  <metadata
     id="metadata3256">
    <rdf:RDF>
      <cc:Work
         rdf:about="">
        <dc:format>image/svg+xml</dc:format>
        <dc:type
           rdf:resource="http://purl.org/dc/dcmitype/StillImage" />
        <dc:title></dc:title>
      </cc:Work>
    </rdf:RDF>
  </metadata>
  <g
     id="layer1">
    <path
       d="m 7.333358,8.6667 v 4.6667 L 5.333362,13.3333 C 3.860053,13.3333 2.66668,14.5267 2.66668,16 V 29.3333 C 2.66668,30.8066 3.85999,32 5.333362,32 H 26.66663 c 1.47331,0 2.66669,-1.1933 2.66669,-2.6667 V 16 c 0,-1.4733 -1.19331,-2.6667 -2.66669,-2.6667 H 24.66664 V 8.6667 C 24.66664,3.8799901 20.78664,-5.0000001e-8 15.999966,-5.0000001e-8 11.213351,5.995e-5 7.333358,3.88005 7.333358,8.6667 z m 3.333369,4.6666 V 8.6667 c 0,-2.94671 2.386683,-5.33333 5.333302,-5.33333 2.946621,0 5.333301,2.38668 5.333301,5.33333 v 4.6666 H 10.666727 z m 2.66662,7.3334 c 0,-1.4733 1.19331,-2.6667 2.666682,-2.6667 1.473371,0 2.666681,1.1933 2.666681,2.6667 0,0.94 -0.48669,1.7667 -1.22,2.24 0,0 0.26069,1.5733 0.55332,3.4267 0,0.5533 -0.44669,1 -1.000003,1 h -1.999996 c -0.553312,0 -0.999998,-0.4467 -0.999998,-1 l 0.553311,-3.4267 c -0.733311,-0.4734 -1.219997,-1.3 -1.219997,-2.24 z"
       id="path257" />
  </g>
</svg>
