<?xml version="1.0" encoding="UTF-8" standalone="no"?>
<!-- Created with Inkscape (http://www.inkscape.org/) -->

<svg
   xmlns:dc="http://purl.org/dc/elements/1.1/"
   xmlns:cc="http://creativecommons.org/ns#"
   xmlns:rdf="http://www.w3.org/1999/02/22-rdf-syntax-ns#"
   xmlns:svg="http://www.w3.org/2000/svg"
   xmlns="http://www.w3.org/2000/svg"
   version="1.1"
   width="32"
   height="32"
   id="svg3251">
  <defs
     id="defs3253" />
  <metadata
     id="metadata3256">
    <rdf:RDF>
      <cc:Work
         rdf:about="">
        <dc:format>image/svg+xml</dc:format>
        <dc:type
           rdf:resource="http://purl.org/dc/dcmitype/StillImage" />
        <dc:title></dc:title>
      </cc:Work>
    </rdf:RDF>
  </metadata>
  <g
     id="layer1">
    <path
       d="m 1.774389,25.480212 c -1.033976,1.0326 -1.033976,2.7126 0,3.7459 1.033289,1.034 2.71325,1.034 3.739227,0 l 0.74667,-0.7393 3.113929,3.1132 c 0.532675,0.5333 1.385968,0.5333 1.919268,0 l 4.640581,-4.6406 c 0.533301,-0.5326 0.533301,-1.3859 0,-1.9192 l -3.113241,-3.1133 5.545873,-5.5532 c 1.187973,0.6127 2.540567,0.9593 3.967909,0.9593 4.786578,0 8.666488,-3.8792 8.666488,-8.6664995 0,-4.78659 -3.87991,-8.6665 -8.666488,-8.6665 -4.78789,0 -8.667114,3.87991 -8.667114,8.6665 0,1.4273005 0.34668,2.7798995 0.959291,3.9665995 L 1.774389,25.480212 z M 19.001306,8.6666125 c 0,-1.84001 1.493279,-3.33328 3.333236,-3.33328 1.839958,0 3.333236,1.49327 3.333236,3.33328 0,1.8398995 -1.493278,3.3331995 -3.333236,3.3331995 -1.839957,0 -3.333236,-1.4933 -3.333236,-3.3331995 z"
       id="path257" />
  </g>
</svg>
