<?xml version="1.0" encoding="UTF-8" standalone="no"?>
<!-- Created with Inkscape (http://www.inkscape.org/) -->

<svg
   xmlns:dc="http://purl.org/dc/elements/1.1/"
   xmlns:cc="http://creativecommons.org/ns#"
   xmlns:rdf="http://www.w3.org/1999/02/22-rdf-syntax-ns#"
   xmlns:svg="http://www.w3.org/2000/svg"
   xmlns="http://www.w3.org/2000/svg"
   version="1.1"
   width="32"
   height="32"
   id="svg3251">
  <defs
     id="defs3253" />
  <metadata
     id="metadata3256">
    <rdf:RDF>
      <cc:Work
         rdf:about="">
        <dc:format>image/svg+xml</dc:format>
        <dc:type
           rdf:resource="http://purl.org/dc/dcmitype/StillImage" />
        <dc:title></dc:title>
      </cc:Work>
    </rdf:RDF>
  </metadata>
  <g
     id="layer1">
    <path
       d="M 29.714204,32 H 2.2857015 C 1.0240145,32 -3.15e-5,30.976 -3.15e-5,29.7143 V 5.7142798 c 0,-1.26168 1.024014,-2.28573 2.285733,-2.28573 h 2.285732 v 1.14285 c 0,1.89371 1.534841,3.42858 3.428582,3.42858 1.893742,0 3.4285835,-1.53484 3.4285835,-3.42858 v -1.14285 h 9.142802 v 1.14285 c 0,1.89371 1.535975,3.42858 3.428584,3.42858 1.892609,0 3.428582,-1.53484 3.428582,-3.42858 v -1.14285 H 29.7143 c 1.261687,0 2.285732,1.02402 2.285732,2.28573 V 29.7143 C 32.000032,30.976 30.976018,32 29.7143,32 z m 0,-20.5714 H 2.2857015 V 29.7143 H 29.714204 V 11.4286 z M 12.650211,20.376 c 0.225154,-0.3588 0.338298,-0.7382 0.338298,-1.1348 0,-0.8834 -0.47541,-1.3257 -1.426291,-1.3257 -0.826257,0 -1.6159945,0.328 -2.3702825,0.984 v -1.8617 c 0.8343095,-0.5406 1.7771375,-0.8103 2.8262845,-0.8103 0.981707,0 1.748545,0.2468 2.300579,0.7394 0.552033,0.4926 0.827389,1.16 0.827389,1.9989 0,1.12 -0.672034,2.2788 -2.016007,3.4754 l -1.975996,1.7543 v 0.04 h 3.897167 v 1.7543 H 8.7302095 V 24.343 l 2.7520185,-2.632 c 0.553166,-0.5303 0.942861,-0.9749 1.167983,-1.3349 z m 7.734883,3.8137 c 0.301715,-0.232 0.452604,-0.5555 0.452604,-0.9714 0,-0.4286 -0.186276,-0.7589 -0.558859,-0.9909 -0.372583,-0.232 -0.884574,-0.3485 -1.537106,-0.3485 H 17.87773 v -1.6206 h 0.796565 c 1.250269,0 1.875435,-0.4149 1.875435,-1.2457 0,-0.7818 -0.480033,-1.1715 -1.440037,-1.1715 -0.642277,0 -1.267443,0.2081 -1.875434,0.6229 v -1.728 c 0.674298,-0.3394 1.459444,-0.5085 2.356568,-0.5085 0.981707,0 1.746281,0.2205 2.293754,0.6629 0.547472,0.4423 0.820563,1.016 0.820563,1.7211 0,1.2549 -0.636584,2.04 -1.908556,2.3566 v 0.033 c 0.678828,0.085 1.213718,0.3314 1.60681,0.7394 0.393091,0.408 0.589747,0.9097 0.589747,1.5028 0,0.8971 -0.328011,1.6068 -0.984003,2.1291 -0.655992,0.5224 -1.562301,0.7841 -2.718866,0.7841 -0.99086,0 -1.796577,-0.1612 -2.417119,-0.4823 V 23.833 c 0.642277,0.4686 1.393137,0.7028 2.250314,0.7028 0.53942,0 0.960003,-0.1143 1.261687,-0.3462 z M 23.964503,6.8571998 c -1.243412,0 -2.250314,-1.00684 -2.250314,-2.25032 V 2.2503102 c 0,-1.24341 1.006839,-2.25031 2.250314,-2.25031 1.243474,0 2.250314,1.00684 2.250314,2.25031 v 2.3565696 c 0,1.24341 -1.00684,2.25032 -2.250314,2.25032 z m -15.9999995,0 c -1.243412,0 -2.250314,-1.00684 -2.250314,-2.25032 V 2.2503102 c 0,-1.24341 1.006839,-2.25031 2.250314,-2.25031 1.243474,0 2.2503135,1.00684 2.2503135,2.25031 v 2.3565696 c 0,1.24341 -1.0079715,2.25032 -2.2503135,2.25032 z"
       id="path257" />
  </g>
</svg>
