<?xml version="1.0" encoding="UTF-8" standalone="no"?>
<!-- Created with Inkscape (http://www.inkscape.org/) -->

<svg
   xmlns:dc="http://purl.org/dc/elements/1.1/"
   xmlns:cc="http://creativecommons.org/ns#"
   xmlns:rdf="http://www.w3.org/1999/02/22-rdf-syntax-ns#"
   xmlns:svg="http://www.w3.org/2000/svg"
   xmlns="http://www.w3.org/2000/svg"
   version="1.1"
   width="32"
   height="32"
   id="svg3261">
  <defs
     id="defs3263" />
  <metadata
     id="metadata3266">
    <rdf:RDF>
      <cc:Work
         rdf:about="">
        <dc:format>image/svg+xml</dc:format>
        <dc:type
           rdf:resource="http://purl.org/dc/dcmitype/StillImage" />
        <dc:title></dc:title>
      </cc:Work>
    </rdf:RDF>
  </metadata>
  <g
     id="layer1">
    <path
       d="m 10.666637,10.66668 q 0,1.33333 -0.9333338,2.26666 -0.933334,0.93333 -2.2666601,0.93333 -1.333326,0 -2.2666601,-0.93333 -0.933334,-0.93333 -0.933334,-2.26666 0,-1.33333 0.933334,-2.26666 0.9333341,-0.93333 2.2666601,-0.93333 1.3333261,0 2.2666601,0.93333 0.9333338,0.93333 0.9333338,2.26666 z m 17.066685,6.39999 v 7.46667 H 4.266649 v -3.19999 l 5.3333333,-5.33334 2.6666817,2.66668 8.533327,-8.53332 z M 29.333319,5.33335 H 2.6666227 q -0.2166793,0 -0.3749961,0.15834 -0.1583168,0.1583499 -0.158346,0.375 v 20.26668 q 0,0.21668 0.158346,0.37499 0.1583459,0.15832 0.3749961,0.15835 H 29.333319 q 0.216679,0 0.374996,-0.15835 0.158317,-0.15834 0.158346,-0.37499 V 5.86669 q 0,-0.21668 -0.158346,-0.375 Q 29.549969,5.33338 29.333319,5.33335 z M 32,5.86666 v 20.26668 q 0,1.09999 -0.78333,1.88332 -0.78333,0.78333 -1.883322,0.78333 H 2.6666519 q -1.0999925,0 -1.8833224,-0.78333 Q -2e-7,27.23333 -2e-7,26.13334 V 5.86666 Q -2e-7,4.76667 0.7833295,3.98334 1.5666594,3.20001 2.6666519,3.20001 H 29.333348 q 1.099992,0 1.883322,0.78333 Q 32,4.76667 32,5.86666 z"
       id="path267" />
  </g>
</svg>
