<?xml version="1.0" encoding="UTF-8" standalone="no"?>
<!-- Created with Inkscape (http://www.inkscape.org/) -->

<svg
   xmlns:dc="http://purl.org/dc/elements/1.1/"
   xmlns:cc="http://creativecommons.org/ns#"
   xmlns:rdf="http://www.w3.org/1999/02/22-rdf-syntax-ns#"
   xmlns:svg="http://www.w3.org/2000/svg"
   xmlns="http://www.w3.org/2000/svg"
   version="1.1"
   width="32"
   height="32"
   id="svg3251">
  <defs
     id="defs3253" />
  <metadata
     id="metadata3256">
    <rdf:RDF>
      <cc:Work
         rdf:about="">
        <dc:format>image/svg+xml</dc:format>
        <dc:type
           rdf:resource="http://purl.org/dc/dcmitype/StillImage" />
        <dc:title></dc:title>
      </cc:Work>
    </rdf:RDF>
  </metadata>
  <g
     id="layer1">
    <path
       d="m 31.008246,27.231207 -7.579767,-6.4467 c -0.783565,-0.7052 -1.621567,-1.029 -2.298506,-0.9977 1.789254,-2.0959 2.870069,-4.815 2.870069,-7.7868 C 24.000042,5.3725769 18.627467,7.347903e-6 12.000014,7.347903e-6 5.3726241,7.347903e-6 -1.3868891e-5,5.3725769 -1.3868891e-5,12.000007 c 0,6.6275 5.372575968891,12.0001 12.000027868891,12.0001 2.97182,0 5.690889,-1.0809 7.786768,-2.8702 -0.03125,0.677 0.292501,1.515 0.99769,2.2985 l 6.446703,7.5798 c 1.103815,1.2264 2.906944,1.3298 4.006884,0.2299 1.09994,-1.1 0.996628,-2.9031 -0.229813,-4.0069 z m -19.008232,-7.2312 c -4.4182599,0 -8.0000179,-3.5817 -8.0000179,-8 0,-4.4182401 3.581758,-8.0000001 8.0000179,-8.0000001 4.418261,0 8.000019,3.58176 8.000019,8.0000001 0,4.4183 -3.581696,8 -8.000019,8 z M 14.000019,6.0000169 h -4.00001 V 10.000007 H 6.0000011 v 4 h 4.0000079 v 4 h 4.00001 v -4 h 4.000009 v -4 h -4.000009 z"
       id="path257" />
  </g>
</svg>
