<?xml version="1.0" encoding="UTF-8" standalone="no"?>
<!-- Created with Inkscape (http://www.inkscape.org/) -->

<svg
   xmlns:dc="http://purl.org/dc/elements/1.1/"
   xmlns:cc="http://creativecommons.org/ns#"
   xmlns:rdf="http://www.w3.org/1999/02/22-rdf-syntax-ns#"
   xmlns:svg="http://www.w3.org/2000/svg"
   xmlns="http://www.w3.org/2000/svg"
   version="1.1"
   width="32"
   height="32"
   id="svg3251">
  <defs
     id="defs3253" />
  <metadata
     id="metadata3256">
    <rdf:RDF>
      <cc:Work
         rdf:about="">
        <dc:format>image/svg+xml</dc:format>
        <dc:type
           rdf:resource="http://purl.org/dc/dcmitype/StillImage" />
        <dc:title></dc:title>
      </cc:Work>
    </rdf:RDF>
  </metadata>
  <g
     id="layer1">
    <path
       d="m 28.994131,-1.25e-5 h -9.017567 c -1.653313,0 -3.962377,0.95644 -5.131377,2.12544 L 0.876742,16.093887 c -1.169,1.169001 -1.169,3.082001 0,4.251 l 10.778443,10.7783 c 1.169001,1.1691 3.081939,1.1691 4.25094,0 l 13.968444,-13.9684 c 1.169001,-1.169 2.125439,-3.4782 2.125439,-5.1314 V 3.0058675 c 0,-1.65325 -1.352689,-3.00588 -3.005877,-3.00588 z m -3.994127,10 c -1.656876,0 -3.000001,-1.3431 -3.000001,-3 0,-1.65687 1.343125,-3 3.000001,-3 1.656876,0 3.000002,1.34313 3.000002,3 0,1.6569 -1.343126,3 -3.000002,3 z"
       id="path257" />
  </g>
</svg>
