<?xml version="1.0" encoding="UTF-8" standalone="no"?>
<!-- Created with Inkscape (http://www.inkscape.org/) -->

<svg
   xmlns:dc="http://purl.org/dc/elements/1.1/"
   xmlns:cc="http://creativecommons.org/ns#"
   xmlns:rdf="http://www.w3.org/1999/02/22-rdf-syntax-ns#"
   xmlns:svg="http://www.w3.org/2000/svg"
   xmlns="http://www.w3.org/2000/svg"
   version="1.1"
   width="32"
   height="32"
   id="svg3251">
  <defs
     id="defs3253" />
  <metadata
     id="metadata3256">
    <rdf:RDF>
      <cc:Work
         rdf:about="">
        <dc:format>image/svg+xml</dc:format>
        <dc:type
           rdf:resource="http://purl.org/dc/dcmitype/StillImage" />
        <dc:title></dc:title>
      </cc:Work>
    </rdf:RDF>
  </metadata>
  <g
     id="layer1">
    <path
       d="M 22.781,16 C 27.085813,13.2708 30,8.0248 30,2 30,1.32263 29.96275,0.65519 29.891313,0 H 2.10875 C 2.03719,0.65525 2,1.32269 2,2 2,8.0248 4.914188,13.2708 9.218938,16 4.914188,18.7292 2,23.9752 2,30 c 0,0.6774 0.03719,1.3448 0.108688,2 H 29.89125 c 0.0715,-0.6552 0.108688,-1.3226 0.108688,-2 C 30,23.9752 27.085813,18.7292 22.781,16 z M 5,30 C 5,24.159 7.505063,19.2058 12,17.5716 V 14.4283 C 7.505063,12.7943 5,7.84106 5,2 v 0 h 22 c 0,5.84106 -2.505062,10.7943 -7,12.4283 v 3.1433 C 24.494938,19.2058 27,24.159 27,30 H 5 z M 19.363313,20.9248 C 17.124125,19.6547 17.000563,18.0071 17,17.0071 V 15 c 0,-0.9998 0.118875,-2.6536 2.367,-3.927 C 20.57025,10.3741 21.611,9.3121 22.39975,8 H 9.600313 c 0.789562,1.3135 1.831625,2.3763 3.036437,3.0752 2.239188,1.2701 2.362688,2.9177 2.363313,3.9177 V 17 c 0,0.9997 -0.118875,2.6536 -2.367,3.927 C 10.363625,22.2451 8.6725,24.8546 8.1615,28 h 15.677188 c -0.511375,-3.1471 -2.204063,-5.7577 -4.475375,-7.0752 z"
       id="path257" />
  </g>
</svg>
