<?xml version="1.0" encoding="UTF-8" standalone="no"?>
<!-- Created with Inkscape (http://www.inkscape.org/) -->

<svg
   xmlns:dc="http://purl.org/dc/elements/1.1/"
   xmlns:cc="http://creativecommons.org/ns#"
   xmlns:rdf="http://www.w3.org/1999/02/22-rdf-syntax-ns#"
   xmlns:svg="http://www.w3.org/2000/svg"
   xmlns="http://www.w3.org/2000/svg"
   version="1.1"
   width="32"
   height="32"
   id="svg3143">
  <defs
     id="defs3145" />
  <metadata
     id="metadata3148">
    <rdf:RDF>
      <cc:Work
         rdf:about="">
        <dc:format>image/svg+xml</dc:format>
        <dc:type
           rdf:resource="http://purl.org/dc/dcmitype/StillImage" />
        <dc:title></dc:title>
      </cc:Work>
    </rdf:RDF>
  </metadata>
  <path
     d="m 31.414125,0.58637525 c -0.781,-0.781 -2.047,-0.781 -2.828,0 l -7.5,7.49999955 -2.086,-2.086 -4,3.476 -14.203,4.3220002 c -0.474,0.144 -0.797,0.581 -0.797,1.076 v 1 c 0,4.307 1.677,8.357 4.723,11.402 3.046,3.045 7.095,4.723 11.402,4.723 h 1 c 0.495,0 0.932,-0.324 1.076,-0.797 l 4.323,-14.203 3.476,-4 -2.086,-2.086 7.5,-7.4999997 c 0.781,-0.781 0.781,-2.047 0,-2.82800005 z m -15.123,29.16399975 h -0.166 c -1.663,0 -3.281,-0.291 -4.797,-0.849 l 4.672,-10.901 -7.751,9.301 c -0.685,-0.474 -1.333,-1.013 -1.935,-1.615 -0.602,-0.602 -1.141,-1.25 -1.615,-1.935 l 9.301,-7.751 -10.901,4.672 c -0.557,-1.516 -0.849,-3.134 -0.849,-4.797 v -0.166 l 14.553,-4.429 3.918,3.918 -4.429,14.553 z"
     id="path4"
     style="fill:#000000" />
</svg>
