<?xml version="1.0" encoding="UTF-8" standalone="no"?>
<!-- Created with Inkscape (http://www.inkscape.org/) -->

<svg
   xmlns:dc="http://purl.org/dc/elements/1.1/"
   xmlns:cc="http://creativecommons.org/ns#"
   xmlns:rdf="http://www.w3.org/1999/02/22-rdf-syntax-ns#"
   xmlns:svg="http://www.w3.org/2000/svg"
   xmlns="http://www.w3.org/2000/svg"
   xmlns:sodipodi="http://sodipodi.sourceforge.net/DTD/sodipodi-0.dtd"
   xmlns:inkscape="http://www.inkscape.org/namespaces/inkscape"
   version="1.1"
   width="32"
   height="32"
   id="svg3251"
   inkscape:version="0.91 r13725"
   sodipodi:docname="2019.svg">
  <sodipodi:namedview
     pagecolor="#ffffff"
     bordercolor="#666666"
     borderopacity="1"
     objecttolerance="10"
     gridtolerance="10"
     guidetolerance="10"
     inkscape:pageopacity="0"
     inkscape:pageshadow="2"
     inkscape:window-width="1920"
     inkscape:window-height="1027"
     id="namedview7"
     showgrid="false"
     units="px"
     width="32in"
     inkscape:zoom="4"
     inkscape:cx="20"
     inkscape:cy="16"
     inkscape:window-x="0"
     inkscape:window-y="0"
     inkscape:window-maximized="1"
     inkscape:current-layer="svg3251" />
  <defs
     id="defs3253" />
  <metadata
     id="metadata3256">
    <rdf:RDF>
      <cc:Work
         rdf:about="">
        <dc:format>image/svg+xml</dc:format>
        <dc:type
           rdf:resource="http://purl.org/dc/dcmitype/StillImage" />
        <dc:title></dc:title>
      </cc:Work>
    </rdf:RDF>
  </metadata>
  <g
     id="g6"
     transform="matrix(0.34873614,0,0,0.34873614,-1.4437957,-1.4171271)">
    <g
       id="g8">
      <path
         class="st0"
         d="m 74.4,28.7 c 0.7,0 1.4,-0.3 2,-0.9 L 86.6,17.6 c 1.2,-1.2 1.2,-2.9 0,-4 -1.2,-1.1 -2.9,-1.2 -4,0 L 72.4,23.8 c -1.2,1.2 -1.2,2.9 0,4 0.6,0.7 1.3,0.9 2,0.9 z"
         id="path10"
         inkscape:connector-curvature="0"
         style="fill:#050505" />
      <rect
         x="-3.5"
         y="65.300003"
         transform="matrix(-0.7071,0.7071,-0.7071,-0.7071,101.8613,95.5043)"
         class="st0"
         width="69.199997"
         height="7.1999998"
         id="rect12"
         style="fill:#050505" />
      <path
         class="st0"
         d="m 47.9,13.6 c -1.2,-1.2 -2.9,-1.2 -4,0 -1.2,1.2 -1.2,2.9 0,4 l 10.2,10.2 c 0.6,0.6 1.3,0.9 2,0.9 0.7,0 1.4,-0.3 2,-0.9 1.2,-1.2 1.2,-2.9 0,-4 L 47.9,13.6 Z"
         id="path14"
         inkscape:connector-curvature="0"
         style="fill:#050505" />
      <path
         class="st0"
         d="m 76.4,42.1 c -1.2,-1.2 -2.9,-1.2 -4,0 -1.2,1.2 -1.2,2.9 0,4 l 10.2,10.2 c 0.6,0.6 1.3,0.9 2,0.9 0.7,0 1.4,-0.3 2,-0.9 1.2,-1.2 1.2,-2.9 0,-4 L 76.4,42.1 Z"
         id="path16"
         inkscape:connector-curvature="0"
         style="fill:#050505" />
      <path
         class="st0"
         d="M 65.6,4.1 C 64,4.1 62.7,5.4 62.7,7 l 0,14.4 c 0,1.6 1.3,2.9 2.9,2.9 1.6,0 2.9,-1.3 2.9,-2.9 L 68.5,7 c 0,-1.6 -1.3,-2.9 -2.9,-2.9 z"
         id="path18"
         inkscape:connector-curvature="0"
         style="fill:#050505" />
      <path
         class="st0"
         d="m 65.6,44.4 c -1.6,0 -2.9,1.3 -2.9,2.9 l 0,14.4 c 0,1.6 1.3,2.9 2.9,2.9 1.6,0 2.9,-1.3 2.9,-2.9 l 0,-14.4 c 0,-1.6 -1.3,-2.9 -2.9,-2.9 z"
         id="path20"
         inkscape:connector-curvature="0"
         style="fill:#050505" />
      <path
         class="st0"
         d="m 93,31.5 -14.4,0 c -1.6,0 -2.9,1.3 -2.9,2.9 0,1.6 1.3,2.9 2.9,2.9 l 14.4,0 c 1.6,0 2.9,-1.3 2.9,-2.9 0,-1.6 -1.3,-2.9 -2.9,-2.9 z"
         id="path22"
         inkscape:connector-curvature="0"
         style="fill:#050505" />
      <path
         class="st0"
         d="m 38.3,37.2 14.4,0 c 1.6,0 2.9,-1.3 2.9,-2.9 0,-1.6 -1.3,-2.9 -2.9,-2.9 l -14.4,0 c -1.6,0 -2.9,1.3 -2.9,2.9 0,1.6 1.3,2.9 2.9,2.9 z"
         id="path24"
         inkscape:connector-curvature="0"
         style="fill:#050505" />
    </g>
  </g>
</svg>
