<?xml version="1.0" encoding="UTF-8" standalone="no"?>
<!-- Created with Inkscape (http://www.inkscape.org/) -->

<svg
   xmlns:dc="http://purl.org/dc/elements/1.1/"
   xmlns:cc="http://creativecommons.org/ns#"
   xmlns:rdf="http://www.w3.org/1999/02/22-rdf-syntax-ns#"
   xmlns:svg="http://www.w3.org/2000/svg"
   xmlns="http://www.w3.org/2000/svg"
   version="1.1"
   width="32"
   height="32"
   id="svg3251">
  <defs
     id="defs3253" />
  <metadata
     id="metadata3256">
    <rdf:RDF>
      <cc:Work
         rdf:about="">
        <dc:format>image/svg+xml</dc:format>
        <dc:type
           rdf:resource="http://purl.org/dc/dcmitype/StillImage" />
        <dc:title></dc:title>
      </cc:Work>
    </rdf:RDF>
  </metadata>
  <g
     id="layer1">
    <path
       d="M 8,2 H 24 V 6 H 8 z M 30,8 H 2 C 0.9,8 0,8.9 0,10 v 10 c 0,1.1 0.899875,2 2,2 h 6 v 8 h 16 v -8 h 6 c 1.1,0 2,-0.9 2,-2 V 10 C 32,8.9 31.1,8 30,8 z M 22,28 H 10 V 18 h 12 v 10 z m 8.45,-17 c 0,0.80081 -0.649188,1.45 -1.449938,1.45 C 28.19925,12.45 27.55,11.80081 27.55,11 27.55,10.19919 28.19925,9.55 29.000062,9.55 29.800875,9.55 30.45,10.19919 30.45,11 z"
       id="path257" />
  </g>
</svg>
