<?xml version="1.0" encoding="UTF-8" standalone="no"?>
<!-- Created with Inkscape (http://www.inkscape.org/) -->

<svg
   xmlns:dc="http://purl.org/dc/elements/1.1/"
   xmlns:cc="http://creativecommons.org/ns#"
   xmlns:rdf="http://www.w3.org/1999/02/22-rdf-syntax-ns#"
   xmlns:svg="http://www.w3.org/2000/svg"
   xmlns="http://www.w3.org/2000/svg"
   version="1.1"
   width="32"
   height="32"
   id="svg3251">
  <defs
     id="defs3253" />
  <metadata
     id="metadata3256">
    <rdf:RDF>
      <cc:Work
         rdf:about="">
        <dc:format>image/svg+xml</dc:format>
        <dc:type
           rdf:resource="http://purl.org/dc/dcmitype/StillImage" />
        <dc:title></dc:title>
      </cc:Work>
    </rdf:RDF>
  </metadata>
  <g
     id="layer1">
    <path
       d="m 27.366001,16.86768 -4.632933,-4.63294 h 2.714031 c -0.02491,-0.068 -0.05094,-0.13481 -0.07701,-0.20165 -1.609631,-4.08014 -5.587815,-6.96638 -10.240026,-6.96638 -6.0771795,0 -11.0046135,4.92744 -11.0046135,11.00462 0,6.0783 4.927434,11.00574 11.0046135,11.00574 4.470928,0 8.31887,-2.66647 10.040656,-6.49404 0.01696,-0.0351 0.02719,-0.0748 0.04303,-0.11212 l 2.950796,2.93271 c -0.01928,0.034 -0.03286,0.0725 -0.05326,0.10874 -0.0045,0.008 -0.0091,0.0158 -0.01358,0.0227 -2.604192,4.49924 -7.469321,7.5248 -13.04127,7.5248 C 6.7421015,31.05786 3.5e-6,24.31551 3.5e-6,15.99886 3.5e-6,7.68221 6.7421015,0.94014 15.05872,0.94014 c 6.952763,0 12.803442,4.70998 14.536492,11.11452 0.01696,0.0589 0.02153,0.1212 0.03624,0.18009 h 2.368544 l -4.63406,4.63294 z"
       id="path257" />
  </g>
</svg>
