<?xml version="1.0" encoding="UTF-8" standalone="no"?>
<!-- Created with Inkscape (http://www.inkscape.org/) -->

<svg
   xmlns:dc="http://purl.org/dc/elements/1.1/"
   xmlns:cc="http://creativecommons.org/ns#"
   xmlns:rdf="http://www.w3.org/1999/02/22-rdf-syntax-ns#"
   xmlns:svg="http://www.w3.org/2000/svg"
   xmlns="http://www.w3.org/2000/svg"
   version="1.1"
   width="32"
   height="32"
   id="svg3251">
  <defs
     id="defs3253" />
  <metadata
     id="metadata3256">
    <rdf:RDF>
      <cc:Work
         rdf:about="">
        <dc:format>image/svg+xml</dc:format>
        <dc:type
           rdf:resource="http://purl.org/dc/dcmitype/StillImage" />
        <dc:title></dc:title>
      </cc:Work>
    </rdf:RDF>
  </metadata>
  <g
     id="layer1">
    <path
       d="m 31.479142,19.33334 q 0,0.10415 -0.02082,0.14581 -1.333336,5.58333 -5.583332,9.05211 Q 21.624993,32.00003 15.916633,32 12.874946,32 10.031207,30.85414 7.187468,29.70828 4.958292,27.58331 l -2.687521,2.68752 q -0.395831,0.39583 -0.937472,0.39583 -0.541641,0 -0.937472,-0.39583 Q 0,29.875 0,29.33336 v -9.33332 q 0,-0.54167 0.395831,-0.93747 0.395831,-0.3958 0.937472,-0.39583 h 9.333319 q 0.541674,0 0.937472,0.39583 0.395798,0.39583 0.395831,0.93747 3.4e-5,0.54164 -0.395831,0.93747 l -2.854179,2.85418 q 1.479179,1.375 3.354156,2.125 1.874977,0.75 3.89583,0.75 2.791666,0 5.208317,-1.35419 2.416651,-1.35418 3.875014,-3.7292 0.229172,-0.35413 1.104164,-2.4375 0.166625,-0.47919 0.625003,-0.47919 h 3.999975 q 0.270837,0 0.468753,0.19794 0.197915,0.19795 0.197948,0.46876 z m 0.520825,-16.6667 v 9.33332 q 0,0.54167 -0.395831,0.93747 -0.395831,0.3958 -0.937472,0.39583 h -9.33332 q -0.541674,0 -0.937472,-0.39583 -0.395797,-0.39583 -0.395831,-0.93747 -3.3e-5,-0.54164 0.395831,-0.93747 l 2.875029,-2.87503 q -3.083319,-2.85418 -7.270868,-2.85418 -2.791666,0 -5.208317,1.35418 -2.416651,1.35419 -3.875014,3.72921 -0.229173,0.35413 -1.104164,2.4375 -0.166626,0.47919 -0.625003,0.47919 H 1.041683 q -0.270837,0 -0.468752,-0.19795 Q 0.375015,12.93746 0.374982,12.66666 V 12.52085 Q 1.729167,6.93752 6.000012,3.46874 10.270858,-3e-5 16.000033,0 q 3.041688,0 5.916683,1.15624 2.874996,1.15623 5.104172,3.26045 l 2.708337,-2.68752 q 0.395831,-0.39583 0.937472,-0.39583 0.541641,0 0.937472,0.39583 Q 32,2.125 32,2.66664 z"
       id="path257" />
  </g>
</svg>
