<?xml version="1.0" encoding="UTF-8" standalone="no"?>
<!-- Created with Inkscape (http://www.inkscape.org/) -->

<svg
   xmlns:dc="http://purl.org/dc/elements/1.1/"
   xmlns:cc="http://creativecommons.org/ns#"
   xmlns:rdf="http://www.w3.org/1999/02/22-rdf-syntax-ns#"
   xmlns:svg="http://www.w3.org/2000/svg"
   xmlns="http://www.w3.org/2000/svg"
   version="1.1"
   width="32"
   height="32"
   id="svg3251">
  <defs
     id="defs3253" />
  <metadata
     id="metadata3256">
    <rdf:RDF>
      <cc:Work
         rdf:about="">
        <dc:format>image/svg+xml</dc:format>
        <dc:type
           rdf:resource="http://purl.org/dc/dcmitype/StillImage" />
        <dc:title></dc:title>
      </cc:Work>
    </rdf:RDF>
  </metadata>
  <g
     id="layer1">
    <path
       d="m 27.760718,31.99985 c 2.299313,-3.72 3.572625,-8.0407 3.572625,-12.3067 0,-1.88 -0.193312,-3.72 -0.666687,-5.5 -0.346625,-1.2266 -1.352625,-2.1933 -2.666625,-2.1933 -0.792688,0 -1.513313,0.3467 -2,0.9007 v -0.234 c 0,-1.4733 -1.193313,-2.6667 -2.666688,-2.6667 -1.473375,0 -2.666687,1.1933 -2.666687,2.6667 v -1.3333 c 0,-1.4733 -1.193312,-2.6667 -2.666687,-2.6667 -1.473375,0 -2.666687,1.1933 -2.666687,2.6667 l 6.2e-5,-8.66671 c 0,-1.47332 -1.193312,-2.66669 -2.666687,-2.66669 -1.473375,0 -2.6666884,1.19331 -2.6666884,2.66669 v 15.20731 c 0,0.7393 -0.6,1.3333 -1.3333119,1.3333 -0.126688,0 -0.246688,-0.02 -0.366688,-0.053 l -3.7666871,-1.5333 c -0.359938,-0.1807 -0.766563,-0.2874 -1.199938,-0.2874 -1.473312,0 -2.66668695,1.1933 -2.66668695,2.6667 0,1.1067 0.67999995,2.06 1.64000005,2.4667 4.326687,2.2333 7.7933123,4.9733 10.2200003,9.5333 h 15.234061 z"
       id="path257" />
  </g>
</svg>
