<?xml version="1.0" encoding="UTF-8" standalone="no"?>
<!-- Created with Inkscape (http://www.inkscape.org/) -->

<svg
   xmlns:dc="http://purl.org/dc/elements/1.1/"
   xmlns:cc="http://creativecommons.org/ns#"
   xmlns:rdf="http://www.w3.org/1999/02/22-rdf-syntax-ns#"
   xmlns:svg="http://www.w3.org/2000/svg"
   xmlns="http://www.w3.org/2000/svg"
   version="1.1"
   width="32"
   height="32"
   id="svg3251">
  <defs
     id="defs3253" />
  <metadata
     id="metadata3256">
    <rdf:RDF>
      <cc:Work
         rdf:about="">
        <dc:format>image/svg+xml</dc:format>
        <dc:type
           rdf:resource="http://purl.org/dc/dcmitype/StillImage" />
        <dc:title></dc:title>
      </cc:Work>
    </rdf:RDF>
  </metadata>
  <g
     id="layer1">
    <path
       d="m 27.760719,0 c 2.299313,3.72 3.572625,8.0407 3.572625,12.3067 0,1.88 -0.193312,3.72 -0.666687,5.5 C 30.320032,19.0333 29.314032,20 28.000032,20 c -0.792688,0 -1.513313,-0.3467 -2,-0.9 v 0.2333 c 0,1.4733 -1.193313,2.6667 -2.666688,2.6667 -1.473375,0 -2.666687,-1.1933 -2.666687,-2.6667 v 1.3333 c 0,1.4733 -1.193314,2.6667 -2.666688,2.6667 -1.473375,0 -2.666688,-1.1933 -2.666688,-2.6667 v 8.6667 C 15.333281,30.8066 14.139968,32 12.666593,32 11.193219,32 9.9999065,30.8067 9.9999065,29.3333 L 10.000031,14.126 c 0,-0.7393 -0.5999995,-1.3333 -1.3333125,-1.3333 -0.126687,0 -0.246687,0.02 -0.366687,0.053 l -3.766688,1.5333 c -0.36,0.1807 -0.766625,0.2874 -1.2,0.2874 -1.473312,0 -2.666687,-1.1933 -2.666687,-2.6667 0,-1.1067 0.68,-2.06 1.64,-2.4667 C 6.6333435,7.3 10.100032,4.56 12.526719,0 h 15.234 z"
       id="path257" />
  </g>
</svg>
