<?xml version="1.0" encoding="UTF-8" standalone="no"?>
<!-- Created with Inkscape (http://www.inkscape.org/) -->

<svg
   xmlns:dc="http://purl.org/dc/elements/1.1/"
   xmlns:cc="http://creativecommons.org/ns#"
   xmlns:rdf="http://www.w3.org/1999/02/22-rdf-syntax-ns#"
   xmlns:svg="http://www.w3.org/2000/svg"
   xmlns="http://www.w3.org/2000/svg"
   version="1.1"
   width="32"
   height="32"
   id="svg3251">
  <defs
     id="defs3253" />
  <metadata
     id="metadata3256">
    <rdf:RDF>
      <cc:Work
         rdf:about="">
        <dc:format>image/svg+xml</dc:format>
        <dc:type
           rdf:resource="http://purl.org/dc/dcmitype/StillImage" />
        <dc:title></dc:title>
      </cc:Work>
    </rdf:RDF>
  </metadata>
  <g
     id="layer1">
    <path
       d="m 6.857154,22.285695 v 1.14284 q 0,0.23215 -0.169649,0.40178 -0.16965,0.16962 -0.401774,0.16965 H 5.142886 q -0.232151,0 -0.401774,-0.16965 -0.169623,-0.16965 -0.169649,-0.40178 v -1.14284 q 0,-0.23215 0.169649,-0.40177 0.16965,-0.16963 0.401774,-0.16965 h 1.142845 q 0.232151,0 0.401774,0.16965 0.169623,0.16964 0.169649,0.40177 z m 0,-4.57141 v 1.14284 q 0,0.23216 -0.169649,0.40178 -0.16965,0.16962 -0.401774,0.16965 H 5.142886 q -0.232151,0 -0.401774,-0.16965 -0.169623,-0.16965 -0.169649,-0.40178 v -1.14284 q 0,-0.23215 0.169649,-0.40177 0.16965,-0.16963 0.401774,-0.16965 h 1.142845 q 0.232151,0 0.401774,0.16965 0.169623,0.16965 0.169649,0.40177 z m 0,-4.57141 v 1.14285 q 0,0.23215 -0.169649,0.40177 -0.16965,0.16962 -0.401774,0.16965 H 5.142886 q -0.232151,0 -0.401774,-0.16965 -0.169623,-0.16965 -0.169649,-0.40177 v -1.14285 q 0,-0.23215 0.169649,-0.40177 0.16965,-0.16963 0.401774,-0.16965 h 1.142845 q 0.232151,0 0.401774,0.16965 0.169623,0.16965 0.169649,0.40177 z m 20.57141,9.14282 v 1.14284 q 0,0.23215 -0.16965,0.40178 -0.169649,0.16962 -0.401773,0.16965 H 9.714322 q -0.232151,0 -0.401774,-0.16965 -0.169622,-0.16965 -0.169649,-0.40178 v -1.14284 q 0,-0.23215 0.169649,-0.40177 0.16965,-0.16963 0.401774,-0.16965 h 17.142819 q 0.23215,0 0.401773,0.16965 0.169623,0.16964 0.16965,0.40177 z m 0,-4.57141 v 1.14284 q 0,0.23216 -0.16965,0.40178 -0.169649,0.16962 -0.401773,0.16965 H 9.714322 q -0.232151,0 -0.401774,-0.16965 -0.169622,-0.16965 -0.169649,-0.40178 v -1.14284 q 0,-0.23215 0.169649,-0.40177 0.16965,-0.16963 0.401774,-0.16965 h 17.142819 q 0.23215,0 0.401773,0.16965 0.169623,0.16965 0.16965,0.40177 z m 0,-4.57141 v 1.14285 q 0,0.23215 -0.16965,0.40177 -0.169649,0.16962 -0.401773,0.16965 H 9.714322 q -0.232151,0 -0.401774,-0.16965 -0.169622,-0.16965 -0.169649,-0.40177 v -1.14285 q 0,-0.23215 0.169649,-0.40177 0.16965,-0.16963 0.401774,-0.16965 h 17.142819 q 0.23215,0 0.401773,0.16965 0.169623,0.16965 0.16965,0.40177 z m 2.285718,12.57144 v -14.85713 q 0,-0.23215 -0.16965,-0.40178 -0.169649,-0.16962 -0.401773,-0.16964 H 2.857141 q -0.232151,0 -0.401774,0.16964 -0.169622,0.16965 -0.169649,0.40178 v 14.85713 q 0,0.23215 0.169649,0.40177 0.16965,0.16962 0.401774,0.16965 h 26.285718 q 0.232151,0 0.401773,-0.16965 0.169623,-0.16965 0.16965,-0.40177 z M 32,6.285725 v 19.42856 q 0,1.17855 -0.839281,2.01786 -0.83928,0.83931 -2.01786,0.83928 H 2.857141 q -1.178553,0 -2.01785995,-0.83928 Q -2.6650013e-5,26.892865 -5.0012769e-8,25.714285 V 6.285725 q 0,-1.17856 0.839281100012769,-2.01787 Q 1.678561,3.428555 2.857141,3.428575 h 26.285718 q 1.178553,0 2.01786,0.83928 Q 32.000027,5.107145 32,6.285725 z"
       id="path283" />
  </g>
</svg>
