<?xml version="1.0" encoding="UTF-8" standalone="no"?>
<!-- Created with Inkscape (http://www.inkscape.org/) -->

<svg
   xmlns:dc="http://purl.org/dc/elements/1.1/"
   xmlns:cc="http://creativecommons.org/ns#"
   xmlns:rdf="http://www.w3.org/1999/02/22-rdf-syntax-ns#"
   xmlns:svg="http://www.w3.org/2000/svg"
   xmlns="http://www.w3.org/2000/svg"
   version="1.1"
   width="32"
   height="32"
   id="svg3251">
  <defs
     id="defs3253" />
  <metadata
     id="metadata3256">
    <rdf:RDF>
      <cc:Work
         rdf:about="">
        <dc:format>image/svg+xml</dc:format>
        <dc:type
           rdf:resource="http://purl.org/dc/dcmitype/StillImage" />
        <dc:title></dc:title>
      </cc:Work>
    </rdf:RDF>
  </metadata>
  <g
     id="layer1">
    <path
       d="m 31.567908,28.617615 -17.144777,-15.6081 0.797936,-0.7999 c 0.652936,-0.6548 1.005872,-1.5009 1.059935,-2.3627998 0.03131,-0.014 0.06256,-0.029 0.09244,-0.045 l 3.218431,-2.01253 c 0.435437,-0.51224 0.403624,-1.32087 -0.07137,-1.79693 L 13.923015,0.37961523 c -0.474687,-0.4760601 -1.281185,-0.5081801 -1.791997,-0.0714 L 10.123647,3.5353352 c -0.01644,0.0302 -0.03094,0.0614 -0.045,0.0929 -0.8594353,0.0542 -1.7031213,0.408 -2.3561823,1.06269 l -3.044619,3.05318 c -0.653061,0.65481 -1.005748,1.50081 -1.059935,2.3626098 -0.03138,0.014 -0.06263,0.029 -0.09263,0.045 l -3.21830601,2.0126 c -0.435687,0.5122 -0.403624,1.3208 0.07113,1.7968 l 5.59748801,5.6126 c 0.474812,0.4762 1.281123,0.5082 1.792184,0.071 l 2.007121,-3.2271 c 0.0165,-0.03 0.03088,-0.061 0.04506,-0.093 0.8594353,-0.054 1.7032463,-0.4078 2.3561823,-1.0627 l 0.884123,-0.8866 15.566281,17.1911 c 0.451124,0.4982 1.146873,0.5786 1.54606,0.1785 l 1.573622,-1.5778 c 0.398874,-0.4002 0.318624,-1.0979 -0.178313,-1.5504 z"
       id="path257" />
  </g>
</svg>
