<?xml version="1.0" encoding="UTF-8" standalone="no"?>
<!-- Created with Inkscape (http://www.inkscape.org/) -->

<svg
   xmlns:dc="http://purl.org/dc/elements/1.1/"
   xmlns:cc="http://creativecommons.org/ns#"
   xmlns:rdf="http://www.w3.org/1999/02/22-rdf-syntax-ns#"
   xmlns:svg="http://www.w3.org/2000/svg"
   xmlns="http://www.w3.org/2000/svg"
   version="1.1"
   width="32"
   height="32"
   id="svg3251">
  <defs
     id="defs3253" />
  <metadata
     id="metadata3256">
    <rdf:RDF>
      <cc:Work
         rdf:about="">
        <dc:format>image/svg+xml</dc:format>
        <dc:type
           rdf:resource="http://purl.org/dc/dcmitype/StillImage" />
        <dc:title></dc:title>
      </cc:Work>
    </rdf:RDF>
  </metadata>
  <g
     id="layer1">
    <path
       d="m 31.999938,11.98667 c 0,-0.7267 -0.599999,-1.32 -1.33331,-1.32 -0.366687,0 -0.699999,0.1473 -0.939999,0.3867 l -5.726676,4.9273 v -3.9933 c 0,-0.7274 -0.599999,-1.3207 -1.33331,-1.3207 -0.366687,0 -0.699998,0.1473 -0.939998,0.3867 l -5.726676,4.9273 v -3.9933 c 0,-0.7274 -0.599999,-1.3207 -1.33331,-1.3207 -0.366687,0 -0.699999,0.1473 -0.939998,0.3867 L 7.939984,16.02667 6.666674,1.46672 C 6.666674,0.65334 6.0133,3e-5 5.199989,3e-5 H 2.799994 C 1.986683,3e-5 1.33331,0.65334 1.33331,1.46672 L 0,29.33327 c 0,1.4733 1.19331,2.6667 2.666682,2.6667 H 29.333318 C 30.806627,31.99997 32,30.80667 32,29.33327 l 0,-17.3466 z m -19.333275,8.5933 v 1.5067 c 0,0.6867 -0.559999,1.2467 -1.246685,1.2467 H 9.913293 C 9.226669,23.33327 8.66667,22.77327 8.66667,22.08667 v -1.5067 c 0,-0.6867 0.559999,-1.2467 1.246685,-1.2467 h 1.506685 c 0.686624,0 1.246623,0.56 1.246623,1.2467 z m 7.999984,0 v 1.5067 c 0,0.6867 -0.559999,1.2467 -1.246685,1.2467 h -1.506684 c -0.686624,-10e-5 -1.246623,-0.5601 -1.246623,-1.2467 v -1.5067 c 0,-0.6867 0.559999,-1.2467 1.246685,-1.2467 h 1.506685 c 0.686623,0 1.246622,0.56 1.246622,1.2467 z m 7.999985,0 v 1.5067 c 0,0.6867 -0.559999,1.2467 -1.246686,1.2467 h -1.506684 c -0.686624,-10e-5 -1.246623,-0.5601 -1.246623,-1.2467 v -1.5067 c 0,-0.6867 0.559999,-1.2467 1.246685,-1.2467 h 1.506685 c 0.686624,0 1.246623,0.56 1.246623,1.2467 z"
       id="path257" />
  </g>
</svg>
