<?xml version="1.0" encoding="UTF-8" standalone="no"?>
<!-- Created with Inkscape (http://www.inkscape.org/) -->

<svg
   xmlns:dc="http://purl.org/dc/elements/1.1/"
   xmlns:cc="http://creativecommons.org/ns#"
   xmlns:rdf="http://www.w3.org/1999/02/22-rdf-syntax-ns#"
   xmlns:svg="http://www.w3.org/2000/svg"
   xmlns="http://www.w3.org/2000/svg"
   version="1.1"
   width="32"
   height="32"
   id="svg3251">
  <defs
     id="defs3253" />
  <metadata
     id="metadata3256">
    <rdf:RDF>
      <cc:Work
         rdf:about="">
        <dc:format>image/svg+xml</dc:format>
        <dc:type
           rdf:resource="http://purl.org/dc/dcmitype/StillImage" />
        <dc:title></dc:title>
      </cc:Work>
    </rdf:RDF>
  </metadata>
  <g
     id="layer1">
    <path
       d="M 21.125,0 C 20.450831,0 19.766594,0.264655 19.25,0.78125 L 11.34375,8.6875 9.65625,7 3.625,13.03125 c -0.653296,0.6533 -0.96875,1.5011 -0.96875,2.375 l 0,7.9375 -1.875,1.90625 c -1.033188,1.0326 -1.033188,2.7227 0,3.75 L 3,31.21875 c 1.027189,1.033899 2.717437,1.033899 3.75,0 l 1.90625,-1.875 7.9375,0 c 0.852584,0.013 1.721766,-0.31555 2.375,-0.96875 L 25,22.34375 23.3125,20.65625 31.21875,12.75 c 1.033187,-1.0332 1.033187,-2.723399 0,-3.75 L 23,0.78125 C 22.486406,0.264655 21.799169,0 21.125,0 z M 19.75,5.34375 c 0.427007,-0.083427 0.885899,0.072544 1.21875,0.40625 l 0.625,0.625 c 0.533248,0.53324 0.533248,1.37299 0,1.90625 l -0.625,0.65625 c -0.533249,0.5333 -1.40494,0.5333 -1.9375,0 l -0.625,-0.65625 c -0.533248,-0.53326 -0.533248,-1.37301 0,-1.90625 l 0.625,-0.625 C 19.230984,5.5497762 19.493796,5.3938059 19.75,5.34375 z M 24.65625,10 c 0.346622,0 0.702438,0.1393 0.96875,0.40625 l 0.625,0.625 c 0.533248,0.5333 0.533248,1.4043 0,1.9375 l -0.625,0.625 c -0.533248,0.533301 -1.373689,0.533301 -1.90625,0 l -0.65625,-0.625 c -0.533248,-0.5332 -0.533248,-1.4042 0,-1.9375 l 0.65625,-0.625 C 23.985031,10.1393 24.309628,10 24.65625,10 z"
       id="path257" />
  </g>
</svg>
