<?xml version="1.0" encoding="UTF-8" standalone="no"?>
<!-- Created with Inkscape (http://www.inkscape.org/) -->

<svg
   xmlns:dc="http://purl.org/dc/elements/1.1/"
   xmlns:cc="http://creativecommons.org/ns#"
   xmlns:rdf="http://www.w3.org/1999/02/22-rdf-syntax-ns#"
   xmlns:svg="http://www.w3.org/2000/svg"
   xmlns="http://www.w3.org/2000/svg"
   version="1.1"
   width="32"
   height="32"
   id="svg3143">
  <defs
     id="defs3145" />
  <metadata
     id="metadata3148">
    <rdf:RDF>
      <cc:Work
         rdf:about="">
        <dc:format>image/svg+xml</dc:format>
        <dc:type
           rdf:resource="http://purl.org/dc/dcmitype/StillImage" />
        <dc:title></dc:title>
      </cc:Work>
    </rdf:RDF>
  </metadata>
  <path
     d="m 4,0 0,32 10,0 0,-2 -8,0 0,-4 4,0 0,-2 -4,0 0,-4 4,0 0,-2 -4,0 0,-4 4,0 0,-2 L 6,12 6,8 10,8 10,6 6,6 6,2 14,2 14,0 4,0 z m 19,0 c -1.657,0 -3,1.343 -3,3 0,1.657 1.343,3 3,3 1.657,0 3,-1.343 3,-3 0,-1.657 -1.343,-3 -3,-3 z m -3,8 c -1.105,0 -2,0.895 -2,2 l 0,10 2,0 0,12 2.5,0 0,-12 1,0 0,12 2.5,0 0,-12 2,0 0,-10 C 28,8.895 27.105,8 26,8 l -6,0 z"
     id="path4" />
</svg>
