<?xml version="1.0" encoding="UTF-8" standalone="no"?>
<!-- Created with Inkscape (http://www.inkscape.org/) -->

<svg
   xmlns:dc="http://purl.org/dc/elements/1.1/"
   xmlns:cc="http://creativecommons.org/ns#"
   xmlns:rdf="http://www.w3.org/1999/02/22-rdf-syntax-ns#"
   xmlns:svg="http://www.w3.org/2000/svg"
   xmlns="http://www.w3.org/2000/svg"
   version="1.1"
   width="32"
   height="32"
   id="svg3251">
  <defs
     id="defs3253" />
  <metadata
     id="metadata3256">
    <rdf:RDF>
      <cc:Work
         rdf:about="">
        <dc:format>image/svg+xml</dc:format>
        <dc:type
           rdf:resource="http://purl.org/dc/dcmitype/StillImage" />
        <dc:title></dc:title>
      </cc:Work>
    </rdf:RDF>
  </metadata>
  <g
     id="layer1">
    <path
       d="M 25.218926,4.7511152 20.828528,14.496564 H 19.550849 L 24.233333,4.1215692 H 17.00369 V 28.291494 c 1.489441,0.05484 9.091491,2.521625 9.091491,2.521625 V 32 H 5.6617366 v -1.267147 c 0,0 7.7707374,-2.442493 8.9414144,-2.442493 V 4.1215692 H 7.6039079 L 12.287546,14.496564 H 11.009867 L 6.6194673,4.7511152 2.2290678,14.496564 H 0.95138902 L 5.6618009,4.063407 V 2.8602178 H 13.521027 C 13.521027,1.2858094 14.57644,0 15.807552,0 c 1.302115,0 2.286523,1.3591551 2.286523,2.8602178 h 8.003476 V 3.8923804 L 30.887069,14.496593 H 29.60939 L 25.218991,4.751153 z M 12.367709,15.684627 c 0,3.133699 -2.173662,6.146309 -5.7472169,6.146309 -3.4932637,0 -5.74721654,-3.012704 -5.74721654,-6.146309 -0.001135,0.0047 11.49443344,0.0047 11.49443344,0 z m 7.263431,0 c 0,0.0057 11.495585,0.0057 11.495585,0 0,3.133699 -2.173661,6.146309 -5.747215,6.146309 -3.494417,0 -5.74837,-3.012704 -5.74837,-6.146309 z"
       id="path257" />
  </g>
</svg>
