<?xml version="1.0" encoding="UTF-8" standalone="no"?>
<!-- Created with Inkscape (http://www.inkscape.org/) -->

<svg
   xmlns:dc="http://purl.org/dc/elements/1.1/"
   xmlns:cc="http://creativecommons.org/ns#"
   xmlns:rdf="http://www.w3.org/1999/02/22-rdf-syntax-ns#"
   xmlns:svg="http://www.w3.org/2000/svg"
   xmlns="http://www.w3.org/2000/svg"
   version="1.1"
   width="32"
   height="32"
   id="svg3143">
  <defs
     id="defs3145" />
  <metadata
     id="metadata3148">
    <rdf:RDF>
      <cc:Work
         rdf:about="">
        <dc:format>image/svg+xml</dc:format>
        <dc:type
           rdf:resource="http://purl.org/dc/dcmitype/StillImage" />
        <dc:title></dc:title>
      </cc:Work>
    </rdf:RDF>
  </metadata>
  <g
     id="layer1">
    <path
       d="m 9.5,18 c 0,3.58987 2.910125,6.5 6.5,6.5 3.589875,0 6.5,-2.91013 6.5,-6.5 0,-3.58988 -2.910125,-6.5 -6.5,-6.5 -3.589875,0 -6.5,2.91012 -6.5,6.5 z M 30,7 H 23 C 22.5,5 22,3.0000001 20,3.0000001 H 12 C 10,3.0000001 9.5,5 9,7 H 2 C 0.9,7 0,7.9 0,9 v 18 c 0,1.1 0.9,2 2,2 h 28 c 1.1,0 2,-0.9 2,-2 V 9 C 32,7.9 31.1,7 30,7 z M 16,26.875 c -4.901563,0 -8.875,-3.97337 -8.875,-8.875 0,-4.90163 3.973437,-8.875 8.875,-8.875 4.901625,0 8.875,3.97344 8.875,8.875 0,4.90156 -3.973312,8.875 -8.875,8.875 z M 30,13 h -4 v -2 h 4 v 2 z"
       id="path129" />
  </g>
</svg>
