<?xml version="1.0" encoding="UTF-8" standalone="no"?>
<!-- Created with Inkscape (http://www.inkscape.org/) -->

<svg
   xmlns:dc="http://purl.org/dc/elements/1.1/"
   xmlns:cc="http://creativecommons.org/ns#"
   xmlns:rdf="http://www.w3.org/1999/02/22-rdf-syntax-ns#"
   xmlns:svg="http://www.w3.org/2000/svg"
   xmlns="http://www.w3.org/2000/svg"
   version="1.1"
   width="32"
   height="32"
   id="svg3261">
  <defs
     id="defs3263" />
  <metadata
     id="metadata3266">
    <rdf:RDF>
      <cc:Work
         rdf:about="">
        <dc:format>image/svg+xml</dc:format>
        <dc:type
           rdf:resource="http://purl.org/dc/dcmitype/StillImage" />
        <dc:title></dc:title>
      </cc:Work>
    </rdf:RDF>
  </metadata>
  <g
     id="layer1">
    <path
       d="m 9.3333695,25.33335 q 0,0.54164 -0.395816,0.93749 -0.395815,0.39585 -0.937487,0.39582 -0.541672,-4e-5 -0.937488,-0.39582 -0.395815,-0.39578 -0.395815,-0.93749 0,-0.5417 0.395815,-0.93748 0.395816,-0.39579 0.937488,-0.39582 0.541672,-3e-5 0.937487,0.39582 0.395816,0.39584 0.395816,0.93748 z m 21.3333115,1.27082 q 0,2.52082 -1.520848,3.95832 Q 27.624986,32 25.10417,32 H 6.8958285 q -2.520815,0 -4.041662,-1.43751 -1.520847,-1.4375 -1.520847,-3.95832 0,-1.41664 0.114566,-2.72915 0.114566,-1.31251 0.499984,-2.87501 0.385419,-1.5625 0.989606,-2.76038 0.604186,-1.19787 1.687497,-2.14582 1.083311,-0.94796 2.499988,-1.2604 -0.45833,1.08335 -0.45833,2.49999 v 4.22918 q -1.20834,0.4167 -1.937489,1.45833 -0.72915,1.04162 -0.72915,2.31251 0,1.66667 1.166653,2.83332 1.166652,1.16665 2.833322,1.16665 1.66667,0 2.8333225,-1.16665 1.166653,-1.16665 1.166653,-2.83332 0,-1.27082 -0.73958,-2.31251 -0.73958,-1.04169 -1.9270595,-1.45833 V 17.3334 q 0,-1.29168 0.520845,-1.93749 2.7500135,2.16669 6.1458355,2.16669 3.395822,0 6.145836,-2.16669 0.520844,0.64581 0.520844,1.93749 v 1.33334 q -2.208309,0 -3.770843,1.56247 -1.562534,1.56246 -1.562468,3.77084 v 1.85418 q -0.666668,0.60415 -0.666668,1.47916 0,0.83332 0.583326,1.41664 0.583327,0.58333 1.416645,0.58333 0.833319,0 1.416645,-0.58333 0.583326,-0.58332 0.583326,-1.41664 0,-0.87501 -0.666668,-1.47916 v -1.85418 q 0,-1.08334 0.791631,-1.87501 0.791631,-0.79166 1.875008,-0.79163 1.083377,3e-5 1.875008,0.79163 0.791631,0.7916 0.791631,1.87501 v 1.85418 q -0.666668,0.60415 -0.666668,1.47916 0,0.83332 0.583326,1.41664 0.583327,0.58333 1.416645,0.58333 0.833319,0 1.416645,-0.58333 0.583326,-0.58332 0.583326,-1.41664 0,-0.87501 -0.666668,-1.47916 v -1.85418 q 0,-1.41665 -0.718752,-2.65624 -0.718753,-1.2396 -1.947953,-1.94796 0,-0.2083 0.01043,-0.8854 0.01043,-0.6771 0,-1.00003 -0.01043,-0.32294 -0.05208,-0.86458 -0.04166,-0.54164 -0.145823,-0.97914 -0.104169,-0.4375 -0.270852,-0.83332 1.416645,0.31247 2.499988,1.26039 1.083344,0.94792 1.687498,2.14583 0.604152,1.19791 0.989604,2.76038 0.385452,1.56247 0.499984,2.87501 0.114533,1.31254 0.114567,2.72915 z M 23.999999,8.00005 q 0,3.31251 -2.343768,5.65628 -2.343768,2.34377 -5.656281,2.34377 -3.312513,0 -5.656282,-2.34377 -2.3437675,-2.34377 -2.3437675,-5.65628 0,-3.31251 2.3437675,-5.65628 Q 12.687437,0 15.99995,0 q 3.312513,0 5.656281,2.34377 2.343768,2.34377 2.343768,5.65628 z"
       id="path255" />
  </g>
</svg>
