<?xml version="1.0" encoding="UTF-8" standalone="no"?>
<!-- Created with Inkscape (http://www.inkscape.org/) -->

<svg
   xmlns:dc="http://purl.org/dc/elements/1.1/"
   xmlns:cc="http://creativecommons.org/ns#"
   xmlns:rdf="http://www.w3.org/1999/02/22-rdf-syntax-ns#"
   xmlns:svg="http://www.w3.org/2000/svg"
   xmlns="http://www.w3.org/2000/svg"
   version="1.1"
   width="32"
   height="32"
   id="svg3251">
  <defs
     id="defs3253" />
  <metadata
     id="metadata3256">
    <rdf:RDF>
      <cc:Work
         rdf:about="">
        <dc:format>image/svg+xml</dc:format>
        <dc:type
           rdf:resource="http://purl.org/dc/dcmitype/StillImage" />
        <dc:title></dc:title>
      </cc:Work>
    </rdf:RDF>
  </metadata>
  <g
     id="layer1">
    <path
       d="m 23.796954,13.174442 c 0,0 1.294156,-0.98385 0.310269,-1.96771 -0.986083,-0.98385 -1.94343,0.28599 -1.94343,0.28599 l -7.695321,7.69645 c 0,0 -2.322184,2.99354 -4.081178,1.18153 -1.7589942,-1.81201 1.18153,-4.08118 1.18153,-4.08118 L 22.344935,5.5123118 c 0,0 3.029997,-3.33807 5.876689,-0.49134 2.846691,2.84778 -0.500226,5.8844002 -0.500226,5.8844002 l -14.590062,14.59116 c 0,0 -4.6686182,5.39303 -8.9917048,1.07001 -4.32308692,-4.32303 1.1219239,-8.93869 1.1219239,-8.93869 L 16.341346,6.5480618 c 0,0 1.242236,-1.03575 0.310269,-1.96771 -0.931967,-0.93197 -1.966614,0.31027 -1.966614,0.31027 L 1.9754054,17.601312 c 0,0 -4.7978391,5.26384 0.5609306,10.62041 5.3588008,5.3588 10.621509,0.56203 10.621509,0.56203 l 17.47098,-17.47208 c 0,0 3.493738,-3.8570602 -0.672489,-8.0254502 -4.166227,-4.16839003 -8.025448,-0.67249 -8.025448,-0.67249 L 9.1108628,15.434862 c 0,0 -3.8537625,3.12935 -0.358832,6.62309 3.4948362,3.49483 6.5712322,-0.41076 6.5712322,-0.41076 l 8.473817,-8.47272 z"
       id="path257" />
  </g>
</svg>
