<?xml version="1.0" encoding="UTF-8" standalone="no"?>
<!-- Created with Inkscape (http://www.inkscape.org/) -->

<svg
   xmlns:dc="http://purl.org/dc/elements/1.1/"
   xmlns:cc="http://creativecommons.org/ns#"
   xmlns:rdf="http://www.w3.org/1999/02/22-rdf-syntax-ns#"
   xmlns:svg="http://www.w3.org/2000/svg"
   xmlns="http://www.w3.org/2000/svg"
   version="1.1"
   width="32"
   height="32"
   id="svg3251">
  <defs
     id="defs3253" />
  <metadata
     id="metadata3256">
    <rdf:RDF>
      <cc:Work
         rdf:about="">
        <dc:format>image/svg+xml</dc:format>
        <dc:type
           rdf:resource="http://purl.org/dc/dcmitype/StillImage" />
        <dc:title></dc:title>
      </cc:Work>
    </rdf:RDF>
  </metadata>
  <g
     id="layer1">
    <path
       d="m 9.9296214,32 c -2.132687,-4.4378 -0.996937,-6.9806 0.6421876,-9.3764 1.794999,-2.6236 2.257625,-5.2208 2.257625,-5.2208 0,0 1.411062,1.8344 0.846625,4.7034 2.492875,-2.775 2.96325,-7.1963 2.586937,-8.8895 5.634812,3.9379 8.043,12.4642 4.797563,18.7833 17.26162,-9.7666 4.293687,-24.38038 2.036062,-26.02656 0.752563,1.64612 0.89525,4.43276 -0.625,5.78516 C 19.898121,2 13.534996,0 13.534996,0 c 0.752563,5.03263 -2.728,10.5358 -6.0842496,14.6478 -0.117938,-2.0067 -0.243187,-3.3915 -1.298437,-5.3119 -0.236875,3.6455 -3.022875,6.6172 -3.777313,10.2697 -1.021937,4.9464 0.7655,8.5681 7.554625,12.3944 z"
       id="path257" />
  </g>
</svg>
