<?xml version="1.0" encoding="UTF-8" standalone="no"?>
<!-- Created with Inkscape (http://www.inkscape.org/) -->

<svg
   xmlns:dc="http://purl.org/dc/elements/1.1/"
   xmlns:cc="http://creativecommons.org/ns#"
   xmlns:rdf="http://www.w3.org/1999/02/22-rdf-syntax-ns#"
   xmlns:svg="http://www.w3.org/2000/svg"
   xmlns="http://www.w3.org/2000/svg"
   version="1.1"
   width="32"
   height="32"
   id="svg3251">
  <defs
     id="defs3253" />
  <metadata
     id="metadata3256">
    <rdf:RDF>
      <cc:Work
         rdf:about="">
        <dc:format>image/svg+xml</dc:format>
        <dc:type
           rdf:resource="http://purl.org/dc/dcmitype/StillImage" />
        <dc:title></dc:title>
      </cc:Work>
    </rdf:RDF>
  </metadata>
  <g
     id="layer1">
    <path
       d="m 25.981373,27.409702 c -0.438704,0 -0.877267,-0.167327 -1.21199,-0.501979 -0.669305,-0.669306 -0.669305,-1.75453 0,-2.423904 4.677923,-4.677929 4.677923,-12.289528 0,-16.9674474 -0.669305,-0.669374 -0.669305,-1.7546087 0,-2.4239139 0.669306,-0.6692266 1.754606,-0.6693052 2.42391,0 2.913535,2.9134709 4.518096,6.7871833 4.518096,10.9075643 0,4.120312 -1.604561,7.994102 -4.518096,10.907632 -0.334653,0.334721 -0.773286,0.502048 -1.21192,0.502048 z M 19.892855,24.1778 c -0.438706,0 -0.877267,-0.167326 -1.211992,-0.501979 -0.669377,-0.669374 -0.669377,-1.75453 0,-2.423914 2.895895,-2.895894 2.895895,-7.607808 0,-10.503633 -0.669377,-0.669374 -0.669377,-1.7545998 0,-2.423905 0.669377,-0.6693051 1.754534,-0.6693051 2.42391,0 4.232434,4.232433 4.232434,11.119089 0,15.351521 -0.334652,0.334584 -0.773285,0.50191 -1.211918,0.50191 z m -5.2736,-23.65107213 c 0.916546,-0.91654354 1.666407,-0.60588027 1.666407,0.69030943 V 30.783015 c 0,1.29619 -0.749861,1.606775 -1.666407,0.690231 L 6.0018432,22.855903 H 0.2886105 V 9.1441402 H 6.0018432 L 14.619255,0.52672787 z"
       id="path257" />
  </g>
</svg>
