<?xml version="1.0" encoding="UTF-8" standalone="no"?>
<!-- Created with Inkscape (http://www.inkscape.org/) -->

<svg
   xmlns:dc="http://purl.org/dc/elements/1.1/"
   xmlns:cc="http://creativecommons.org/ns#"
   xmlns:rdf="http://www.w3.org/1999/02/22-rdf-syntax-ns#"
   xmlns:svg="http://www.w3.org/2000/svg"
   xmlns="http://www.w3.org/2000/svg"
   version="1.1"
   width="32"
   height="32"
   id="svg3251">
  <defs
     id="defs3253" />
  <metadata
     id="metadata3256">
    <rdf:RDF>
      <cc:Work
         rdf:about="">
        <dc:format>image/svg+xml</dc:format>
        <dc:type
           rdf:resource="http://purl.org/dc/dcmitype/StillImage" />
        <dc:title></dc:title>
      </cc:Work>
    </rdf:RDF>
  </metadata>
  <g
     id="layer1">
    <path
       d="M 8.8076779,15.74995 Q 7.3845912,12.63458 7.3845912,8.61533 H 2.4615094 v 1.84615 q 0,1.49997 1.8173106,3.11536 1.8173106,1.61539 4.5288263,2.17307 z M 29.538459,10.46151 V 8.61536 h -4.923082 q 0,4.01925 -1.423087,7.13462 2.711516,-0.55769 4.528827,-2.17308 1.81731,-1.61538 1.81731,-3.11536 z M 32,7.99994 v 2.46154 q 0,1.36538 -0.798071,2.75 -0.798071,1.38463 -2.15386,2.50001 -1.355789,1.11537 -3.326909,1.87498 -1.971119,0.75961 -4.144257,0.85578 -0.807693,1.03845 -1.826933,1.82693 -0.730774,0.65385 -1.009617,1.39425 -0.278844,0.7404 -0.278844,1.72118 0,1.03845 0.586556,1.75001 0.586556,0.71156 1.874985,0.71156 1.442301,0 2.56733,0.87499 1.125029,0.87499 1.125029,2.20194 v 1.23076 q 0,0.26922 -0.173086,0.4423 -0.173087,0.17309 -0.442307,0.17309 H 7.9999843 q -0.2692207,0 -0.4423069,-0.17309 -0.1730862,-0.17308 -0.1730862,-0.4423 v -1.23076 q 0,-1.32695 1.1250288,-2.20194 1.1250288,-0.87499 2.56733,-0.87499 1.28846,0 1.874985,-0.71156 0.586524,-0.71156 0.586556,-1.75001 0,-0.98078 -0.278844,-1.72118 Q 12.980803,20.92303 12.25003,20.26918 11.23079,19.4807 10.423096,18.44225 8.2500222,18.34615 6.2788397,17.58647 4.3076572,16.82683 2.9519308,15.71149 1.5962045,14.59614 0.79807065,13.21148 -6.3092518e-5,11.82683 0,10.46148 V 7.99994 Q 0,7.2307 0.53847291,6.69226 1.0769459,6.15382 1.8461478,6.15379 H 7.3845912 V 4.30764 q 0,-1.26921 0.903828,-2.17307 0.9038281,-0.90386 2.1730738,-0.90383 h 11.07695 q 1.269215,0 2.173075,0.90383 0.903859,0.90382 0.903828,2.17307 v 1.84615 h 5.538443 q 0.769233,0 1.307675,0.53847 0.538441,0.53847 0.538473,1.30768 z"
       id="path257" />
  </g>
</svg>
