<?xml version="1.0" encoding="UTF-8" standalone="no"?>
<!-- Created with Inkscape (http://www.inkscape.org/) -->

<svg
   xmlns:dc="http://purl.org/dc/elements/1.1/"
   xmlns:cc="http://creativecommons.org/ns#"
   xmlns:rdf="http://www.w3.org/1999/02/22-rdf-syntax-ns#"
   xmlns:svg="http://www.w3.org/2000/svg"
   xmlns="http://www.w3.org/2000/svg"
   version="1.1"
   width="32"
   height="32"
   id="svg3240">
  <defs
     id="defs3242" />
  <metadata
     id="metadata3245">
    <rdf:RDF>
      <cc:Work
         rdf:about="">
        <dc:format>image/svg+xml</dc:format>
        <dc:type
           rdf:resource="http://purl.org/dc/dcmitype/StillImage" />
        <dc:title></dc:title>
      </cc:Work>
    </rdf:RDF>
  </metadata>
  <g
     id="layer1">
    <path
       d="M 16,32 C 24.836562,32 32,24.8366 32,16 32,7.16344 24.836562,0 16,0 7.163438,0 0,7.16344 0,16 0,24.8366 7.163438,32 16,32 z M 16,3 C 23.179687,3 29,8.8203 29,16 29,23.1797 23.179687,29 16,29 8.820313,29 3,23.1797 3,16 3,8.8203 8.820313,3 16,3 z m 0.960625,19.2196 c 4.38275,-0.8658 7.784687,-2.8607 9.014187,-5.5185 C 25.298125,21.9497 20.927375,26 15.63575,26 11.909437,26 8.640188,23.9912 6.795375,20.9704 c 2.200313,1.7205 6.079187,2.0565 10.16525,1.2492 z M 20,11 c 0,-1.6568 0.895437,-3 2,-3 1.104562,0 2,1.3432 2,3 0,1.6568 -0.895438,3 -2,3 -1.104563,0 -2,-1.3432 -2,-3 z m -9,0.6094 c -1.306125,0 -2.416687,0.4892 -2.828625,1.1718 C 8.06075,12.5979 8,11.7758 8,11.5703 8,10.5995 9.343125,9.8125 11,9.8125 c 1.656875,0 3,0.787 3,1.7578 0,0.2055 -0.06075,1.0276 -0.171375,1.2109 C 13.416688,12.0986 12.306125,11.6094 11,11.6094 z"
       id="path257" />
  </g>
</svg>
