<?xml version="1.0" encoding="UTF-8" standalone="no"?>
<!-- Created with Inkscape (http://www.inkscape.org/) -->

<svg
   xmlns:dc="http://purl.org/dc/elements/1.1/"
   xmlns:cc="http://creativecommons.org/ns#"
   xmlns:rdf="http://www.w3.org/1999/02/22-rdf-syntax-ns#"
   xmlns:svg="http://www.w3.org/2000/svg"
   xmlns="http://www.w3.org/2000/svg"
   version="1.1"
   width="32"
   height="32"
   id="svg3240">
  <defs
     id="defs3242" />
  <metadata
     id="metadata3245">
    <rdf:RDF>
      <cc:Work
         rdf:about="">
        <dc:format>image/svg+xml</dc:format>
        <dc:type
           rdf:resource="http://purl.org/dc/dcmitype/StillImage" />
        <dc:title></dc:title>
      </cc:Work>
    </rdf:RDF>
  </metadata>
  <g
     id="layer1">
    <path
       d="M 16,32 C 24.836562,32 32,24.8366 32,16 32,7.16344 24.836562,0 16,0 7.1634371,0 -9.9999998e-8,7.16344 -9.9999998e-8,16 -9.9999998e-8,24.8366 7.1634371,32 16,32 z M 16,3 C 23.179687,3 29,8.8203 29,16 29,23.1797 23.179687,29 16,29 8.8203121,29 3.0000001,23.1797 3.0000001,16 3.0000001,8.8203 8.8203121,3 16,3 z M 6.0000001,16 v 2 c 0,4.4 3.6,8 7.9999999,8 h 4 c 4.4,0 8,-3.6 8,-8 V 16 H 6.0000001 z M 12,23.6559 C 11.170688,23.3603 10.408625,22.8802 9.7642501,22.2357 8.6265621,21.0981 8.0000001,19.5938 8.0000001,18 H 12 v 5.6559 z M 18,24 h -4 v -6 h 4 v 6 z m 4.23575,-1.7643 C 21.59125,22.8802 20.829187,23.3603 20,23.6559 V 18 h 4 c 0,1.5938 -0.6265,3.0981 -1.76425,4.2357 z M 7.0422501,12 c 6.2e-5,0 0,0 0,0 0.30525,0 0.565875,-0.2205 0.616375,-0.5216 C 7.8510621,10.3321 8.8357501,9.5 10,9.5 c 1.16425,0 2.148938,0.8321 2.341375,1.9784 0.0505,0.301 0.311125,0.5216 0.616312,0.5216 0.305251,0 0.565875,-0.2205 0.616375,-0.5215 0.03381,-0.2011 0.05087,-0.4042 0.05087,-0.6035 0,-1.9988 -1.626187,-3.625 -3.6249999,-3.625 -1.998812,0 -3.625,1.6262 -3.625,3.625 0,0.1993 0.01713,0.4024 0.05087,0.6035 0.05063,0.301 0.31125,0.5215 0.616438,0.5215 z M 19.04225,12 c 6.2e-5,0 0,0 0,0 0.305312,0 0.566,-0.2205 0.616375,-0.5216 C 19.851062,10.3321 20.83575,9.5 22,9.5 c 1.16425,0 2.148937,0.8321 2.341375,1.9784 0.0505,0.301 0.311187,0.5216 0.616312,0.5216 0.305125,0 0.565875,-0.2205 0.616313,-0.5215 0.03381,-0.2011 0.05087,-0.4042 0.05087,-0.6035 0,-1.9988 -1.626188,-3.625 -3.625,-3.625 -1.998813,0 -3.625,1.6262 -3.625,3.625 0,0.1993 0.017,0.4024 0.05081,0.6035 C 18.47643,11.7795 18.737055,12 19.042243,12 z"
       id="path257" />
  </g>
</svg>
