<?xml version="1.0" encoding="UTF-8" standalone="no"?>
<!-- Created with Inkscape (http://www.inkscape.org/) -->

<svg
   xmlns:dc="http://purl.org/dc/elements/1.1/"
   xmlns:cc="http://creativecommons.org/ns#"
   xmlns:rdf="http://www.w3.org/1999/02/22-rdf-syntax-ns#"
   xmlns:svg="http://www.w3.org/2000/svg"
   xmlns="http://www.w3.org/2000/svg"
   version="1.1"
   width="32"
   height="32"
   id="svg3240">
  <defs
     id="defs3242" />
  <metadata
     id="metadata3245">
    <rdf:RDF>
      <cc:Work
         rdf:about="">
        <dc:format>image/svg+xml</dc:format>
        <dc:type
           rdf:resource="http://purl.org/dc/dcmitype/StillImage" />
        <dc:title></dc:title>
      </cc:Work>
    </rdf:RDF>
  </metadata>
  <g
     id="layer1">
    <path
       d="M 16,32 C 24.836562,32 32,24.8366 32,16 32,7.16344 24.836562,0 16,0 7.163438,0 0,7.16344 0,16 0,24.8366 7.163438,32 16,32 z M 16,3 C 23.179687,3 29,8.8203 29,16 29,23.1797 23.179687,29 16,29 8.820313,29 3,23.1797 3,16 3,8.8203 8.820313,3 16,3 z m -4,19 c 0,-2.2091 1.790875,-4 4,-4 2.209125,0 4,1.7909 4,4 0,2.2091 -1.790875,4 -4,4 -2.209125,0 -4,-1.7909 -4,-4 z m 8,-11 c 0,-1.6568 0.895437,-3 2,-3 1.104562,0 2,1.3432 2,3 0,1.6568 -0.895438,3 -2,3 -1.104563,0 -2,-1.3432 -2,-3 z M 8,11 c 0,-1.6568 0.895438,-3 2,-3 1.104563,0 2,1.3432 2,3 0,1.6568 -0.895437,3 -2,3 -1.104562,0 -2,-1.3432 -2,-3 z"
       id="path257" />
  </g>
</svg>
