<?xml version="1.0" encoding="UTF-8" standalone="no"?>
<!-- Created with Inkscape (http://www.inkscape.org/) -->

<svg
   xmlns:dc="http://purl.org/dc/elements/1.1/"
   xmlns:cc="http://creativecommons.org/ns#"
   xmlns:rdf="http://www.w3.org/1999/02/22-rdf-syntax-ns#"
   xmlns:svg="http://www.w3.org/2000/svg"
   xmlns="http://www.w3.org/2000/svg"
   version="1.1"
   width="32"
   height="32"
   id="svg3105">
  <defs
     id="defs3107" />
  <metadata
     id="metadata3110">
    <rdf:RDF>
      <cc:Work
         rdf:about="">
        <dc:format>image/svg+xml</dc:format>
        <dc:type
           rdf:resource="http://purl.org/dc/dcmitype/StillImage" />
        <dc:title></dc:title>
      </cc:Work>
    </rdf:RDF>
  </metadata>
  <g
     id="layer1">
    <path
       d="m 8.442304,24.44232 -4.92309,4.92309 q -0.192295,0.17308 -0.44231,0.17308 -0.230764,0 -0.442312,-0.17308 -0.173082,-0.1923 -0.173082,-0.44231 0,-0.25002 0.173082,-0.44231 L 7.557677,23.5577 q 0.1923,-0.17309 0.442314,-0.17309 0.250015,0 0.442313,0.17309 0.173081,0.19229 0.173081,0.44231 0,0.25001 -0.173081,0.44231 z m 3.250019,0.78844 v 6.15385 q 0,0.26923 -0.173081,0.44231 Q 11.346163,32 11.076928,32 10.8077,32 10.634618,31.82692 10.461537,31.65384 10.461537,31.38461 v -6.15385 q 0,-0.26922 0.173081,-0.44231 0.173082,-0.17308 0.44231,-0.17308 0.269235,0 0.442314,0.17308 0.173081,0.17309 0.173081,0.44231 z M 7.384632,20.92307 q 0,0.26923 -0.173083,0.44231 -0.173084,0.17308 -0.442311,0.17308 H 0.615394 q -0.26923,0 -0.442312,-0.17308 Q 0,21.1923 0,20.92307 0,20.65384 0.173082,20.48076 0.346164,20.30768 0.615394,20.30768 h 6.153844 q 0.269227,0 0.442311,0.17308 0.173083,0.17308 0.173083,0.44231 z m 24.307669,2.46154 q 0,2.30768 -1.634597,3.90385 l -2.826927,2.80771 q -1.596168,1.59617 -3.903847,1.59617 -2.32693,0 -3.923063,-1.6346 L 12.9808,23.61541 q -0.40385,-0.40384 -0.807697,-1.07692 l 4.596142,-0.34617 5.250004,5.26922 q 0.51924,0.51925 1.307681,0.52884 0.788443,0.01 1.307689,-0.50962 l 2.826924,-2.80771 q 0.538462,-0.53846 0.538462,-1.28847 0,-0.76922 -0.538462,-1.30768 l -5.269219,-5.28847 0.346165,-4.59614 q 0.673076,0.40384 1.076921,0.8077 l 6.461542,6.46153 q 1.615383,1.65385 1.615383,3.92306 z M 19.826931,9.46155 15.230791,9.80771 9.980789,4.53849 Q 9.442329,4.00003 8.673104,4.00003 q -0.750014,0 -1.307689,0.51924 L 4.538491,7.32698 q -0.538458,0.53847 -0.538458,1.28847 0,0.76923 0.538458,1.30768 l 5.269216,5.26923 -0.346162,4.61539 Q 8.788467,19.4039 8.384622,19.00005 L 1.923082,12.53852 Q 0.307697,10.88467 0.307697,8.61545 q 0,-2.30767 1.634601,-3.90384 L 4.769223,1.9039 Q 6.365391,0.30773 8.67307,0.30773 11,0.30773 12.596133,1.94232 L 19.0192,8.38466 q 0.40385,0.40384 0.807697,1.07692 z M 32,11.07693 q 0,0.26923 -0.173081,0.44231 -0.173083,0.17308 -0.442314,0.17308 h -6.153843 q -0.269227,0 -0.442311,-0.17308 -0.173083,-0.17308 -0.173083,-0.44231 0,-0.26923 0.173083,-0.44231 0.173084,-0.17308 0.442311,-0.17308 h 6.153843 q 0.269231,0 0.442314,0.17308 Q 32,10.8077 32,11.07693 z M 21.538463,0.61539 v 6.15385 q 0,0.26922 -0.173081,0.44231 -0.173082,0.17308 -0.44231,0.17308 -0.269235,0 -0.442314,-0.17308 Q 20.307677,7.03846 20.307677,6.76924 V 0.61539 q 0,-0.26923 0.173081,-0.44231 Q 20.653837,0 20.923072,0 q 0.269228,0 0.44231,0.17308 0.173081,0.17308 0.173081,0.44231 z m 7.826912,2.90382 -4.923088,4.92309 q -0.211547,0.17309 -0.442316,0.17309 -0.230763,0 -0.442311,-0.17309 -0.173079,-0.19229 -0.173079,-0.44231 0,-0.25001 0.173079,-0.44231 l 4.92309,-4.92309 q 0.192296,-0.17308 0.442314,-0.17308 0.250011,0 0.442311,0.17308 0.173079,0.1923 0.173079,0.44231 0,0.25002 -0.173079,0.44231 z"
       id="path249" />
  </g>
</svg>
