<?xml version="1.0" encoding="UTF-8" standalone="no"?>
<!-- Created with Inkscape (http://www.inkscape.org/) -->

<svg
   xmlns:dc="http://purl.org/dc/elements/1.1/"
   xmlns:cc="http://creativecommons.org/ns#"
   xmlns:rdf="http://www.w3.org/1999/02/22-rdf-syntax-ns#"
   xmlns:svg="http://www.w3.org/2000/svg"
   xmlns="http://www.w3.org/2000/svg"
   version="1.1"
   width="32"
   height="32"
   id="svg3143">
  <defs
     id="defs3145" />
  <metadata
     id="metadata3148">
    <rdf:RDF>
      <cc:Work
         rdf:about="">
        <dc:format>image/svg+xml</dc:format>
        <dc:type
           rdf:resource="http://purl.org/dc/dcmitype/StillImage" />
        <dc:title></dc:title>
      </cc:Work>
    </rdf:RDF>
  </metadata>
  <path
     d="m 16,0.0062755 c -2.759918,0 -4.99804,2.238122 -4.99804,4.998039 0,2.759917 2.238122,4.9980405 4.99804,4.9980405 2.759918,0 4.998039,-2.2381235 4.998039,-4.9980405 0,-2.759917 -2.238121,-4.998039 -4.998039,-4.998039 z M 10.002353,12.001569 c -0.58577,0 -1.167042,0.256901 -1.561887,0.749707 l -7.996863,9.996078 c -0.524794,0.655743 -0.593017,1.562638 -0.156189,2.280355 0.367856,0.603763 1.030346,0.96837 1.718077,0.96837 0.129949,0 0.275142,-0.0052 0.40609,-0.03124 l 5.591557,-1.124561 0,7.153445 15.993724,0 0,-7.153445 5.591557,1.124561 c 0.130948,0.02599 0.275142,0.03124 0.406091,0.03124 0.687729,0 1.35122,-0.364607 1.718076,-0.96837 0.436828,-0.717717 0.368605,-1.624612 -0.156189,-2.280355 l -7.996861,-9.996078 c -0.394847,-0.492806 -0.97612,-0.749707 -1.561889,-0.749707 l -11.995294,0 z m 0,3.998432 L 16,17.999217 l 5.997647,-1.999216 0,4.373285 -1.593125,-0.343616 c -1.082576,-0.216914 -2.158154,0.479313 -2.374069,1.561888 -0.215914,1.082575 0.479312,2.158153 1.561888,2.374068 l 2.405306,0.468566 0,1.561888 L 16,27.995295 10.002353,25.99608 l 0,-1.561888 2.405306,-0.468566 c 1.082576,-0.216914 1.778803,-1.291493 1.561888,-2.374068 -0.216915,-1.082575 -1.291493,-1.777803 -2.374069,-1.561888 l -1.593125,0.343616 0,-4.373285 z"
     id="path4" />
</svg>
