<?xml version="1.0" encoding="UTF-8" standalone="no"?>
<!-- Created with Inkscape (http://www.inkscape.org/) -->

<svg
   xmlns:dc="http://purl.org/dc/elements/1.1/"
   xmlns:cc="http://creativecommons.org/ns#"
   xmlns:rdf="http://www.w3.org/1999/02/22-rdf-syntax-ns#"
   xmlns:svg="http://www.w3.org/2000/svg"
   xmlns="http://www.w3.org/2000/svg"
   xmlns:sodipodi="http://sodipodi.sourceforge.net/DTD/sodipodi-0.dtd"
   xmlns:inkscape="http://www.inkscape.org/namespaces/inkscape"
   width="32px"
   height="32px"
   id="svg2985"
   version="1.1"
   inkscape:version="0.48.4 r9939"
   sodipodi:docname="2126.svg">
  <defs
     id="defs2987" />
  <sodipodi:namedview
     id="base"
     pagecolor="#ffffff"
     bordercolor="#666666"
     borderopacity="1.0"
     inkscape:pageopacity="0.0"
     inkscape:pageshadow="2"
     inkscape:zoom="11.197802"
     inkscape:cx="5.6854758"
     inkscape:cy="16"
     inkscape:current-layer="layer1"
     showgrid="true"
     inkscape:grid-bbox="true"
     inkscape:document-units="px"
     inkscape:window-width="1600"
     inkscape:window-height="848"
     inkscape:window-x="0"
     inkscape:window-y="0"
     inkscape:window-maximized="1" />
  <metadata
     id="metadata2990">
    <rdf:RDF>
      <cc:Work
         rdf:about="">
        <dc:format>image/svg+xml</dc:format>
        <dc:type
           rdf:resource="http://purl.org/dc/dcmitype/StillImage" />
        <dc:title></dc:title>
      </cc:Work>
    </rdf:RDF>
  </metadata>
  <g
     id="layer1"
     inkscape:label="Layer 1"
     inkscape:groupmode="layer">
    <path
       d="m 25.775528,13.696375 c -0.237428,-0.5696 -0.640623,-0.99774 -1.211188,-1.2595 0.285106,0.5939 0.379532,0.9744 0.379532,1.63936 0,0 0,0.0231 -0.07073,0.71296 l -0.07137,0.49887 -0.07137,0.6419 -0.04736,0.42818 0.142393,1.16383 0.0237,0.64062 0.04736,0.26144 0.213124,0.30945 0.357441,0.1664 0.521925,0.26017 0.143034,0.42785 -0.09568,0.40512 v 0.54623 l -0.04736,0.30815 -0.02305,0.30945 -0.048,0.26144 -0.04736,0.23711 -0.07073,0.78369 -0.07201,0.49855 v 0.33246 l -0.02369,0.0954 -0.02305,0.0711 -0.04736,0.0954 -0.190712,0.0953 -0.30816,0.0944 h -0.309442 l -0.617602,-0.0234 h -0.214407 l -0.688622,-0.0473 h -0.09439 l -0.07201,-0.0477 -0.09439,-0.14175 -0.02495,-0.14272 -0.02305,-0.2851 0.048,-0.19072 0.07073,-0.11873 0.166408,-0.0941 0.190071,-0.0474 0.261123,-0.0477 h 0.143034 l 0.09439,-0.0243 0.048,-0.0467 0.07137,-0.11969 0.07073,-0.40351 0.11873,-0.59423 0.07201,-0.33246 0.0237,-0.40352 v -0.04738 l -0.0237,-0.14303 -0.04736,-0.0467 -0.09504,-0.049 -0.404478,-0.21248 -1.116794,-0.76032 -0.854389,-0.87904 -0.143034,-0.23839 -0.04736,-0.11873 -0.07137,-0.16641 -0.142393,-0.23711 -0.11873,-0.16641 -0.07137,-0.0711 -0.07137,-0.0243 -0.166408,0.14303 -0.142393,0.28479 -0.142393,0.66496 0.04672,0.49919 0.07201,0.11841 0.166408,0.16737 0.356158,0.35584 0.0237,0.21376 -0.04672,0.0941 -0.09568,0.19103 -0.356158,0.61728 -0.237429,0.5696 -0.214406,0.50016 -0.118089,0.49887 -0.09568,0.21408 -0.07073,0.40352 v 0.28479 l -0.142393,0.26144 -0.190071,0.0954 -0.285106,0.0944 h -0.332464 l -0.618243,-0.0234 h -0.190071 l -0.713278,-0.0474 h -0.09439 l -0.07201,-0.0477 -0.07073,-0.14303 -0.0243,-0.14143 -0.02305,-0.28511 0.02305,-0.19071 0.09503,-0.11873 0.143034,-0.0941 0.07137,-0.0243 0.142393,-0.0231 0.141752,-0.0246 h 0.166408 l 0.191353,-0.0231 h 0.04672 l 0.119372,-0.12001 0.189429,-0.28479 0.309442,-0.68833 0.285107,-0.76032 0.04736,-0.23711 0.04736,-0.26144 v -0.0954 l -0.0243,-0.11873 -0.09503,-0.14303 -0.142393,-0.26016 -0.142393,-0.4048 -0.04736,-0.16641 -0.332464,-1.30686 -0.119371,-0.71168 -0.09439,-1.11743 -0.427531,0.38017 -0.403837,0.38017 -0.474888,0.33247 -0.737583,0.47553 -0.901746,0.47424 -0.760636,0.23839 -0.736332,0.11841 -0.736973,0.14176 -0.166408,0.0243 -0.11873,0.0954 -0.166409,0.11873 -0.355517,0.52192 0.09375,0.95135 0.07266,0.75903 0.07073,0.73726 0.09568,0.76064 v 0.38017 l -0.0243,0.30784 -0.142072,0.3805 -0.143035,0.14207 -0.09568,0.0711 -0.260482,0.0711 h -0.926403 l -0.950707,-0.0467 -0.119371,-0.0243 -0.07073,-0.0477 -0.07073,-0.1184 -0.02494,-0.14176 -0.02305,-0.21536 0.048,-0.28479 0.09439,-0.14175 0.142393,-0.0954 0.213766,-0.0477 0.166408,-0.0231 0.214407,-0.0243 0.284465,-0.0467 0.048,-0.049 v -0.47425 l -0.048,-0.30944 -0.141752,-0.5696 -0.0243,-0.38018 -0.141751,-0.45119 -0.190713,-0.4048 -0.118088,-0.42657 -0.143034,-0.23839 -0.09504,-0.30816 -0.213765,-0.30944 -0.118731,-0.28479 -0.09439,-0.21408 -0.119371,-0.11841 -0.142393,-0.21409 -0.309442,-0.0954 -0.18943,0.3568 -0.213765,0.5696 -0.237428,0.45119 -0.261765,0.73727 -0.19007,0.80799 -0.166409,0.33121 -0.19007,0.30944 -0.190071,0.4512 -0.285748,0.9744 -0.141751,0.38017 -0.166408,0.33247 -0.143035,0.26144 -0.118088,0.0711 -0.237429,0.0711 H 5.9623 l -0.142393,-0.0234 H 5.629836 l -0.879366,-0.0231 -0.09439,-0.0243 -0.07201,-0.0477 -0.09504,-0.1184 -0.02305,-0.14176 -0.0243,-0.1664 0.04736,-0.19072 0.04736,-0.14303 0.09568,-0.14175 0.142393,-0.0954 0.403837,-0.0477 0.213765,-0.0474 0.141752,-0.0467 0.09568,-0.14303 0.07137,-0.38018 0.07201,-0.26176 0.141752,-0.64191 0.11873,-0.71296 0.142393,-0.87872 0.048,-0.80671 v -0.47553 l -0.07201,-0.59295 -0.427531,-0.0723 -0.284465,-0.11873 H 5.059262 l -0.3568,-0.16641 -0.166408,-0.4048 -0.521925,-0.11712 -0.213766,-0.21537 -0.6656,-0.26016 -0.570565,0.0941 -0.260482,0.0717 -0.213124,0.071 -0.190392,0.0954 -0.07137,-0.0231 -0.166408,-0.19104 -0.403836,-0.23839 -0.190071,-0.28478 -0.048,-0.40352 -0.166408,-0.11873 -0.403195,-0.23839 -0.190071,-0.2835 -0.09439,-0.14303 L 0.04708,14.479545 4e-5,14.313135 v -0.38049 l 0.04672,-0.18943 0.09504,-0.14303 1.259507,-1.28257 0.143034,-0.26144 0.07073,-0.28478 0.04736,-0.38018 0.048,-0.14303 -0.048,-0.16641 0.048,-0.0954 0.02305,-0.14175 0.07137,-0.14303 0.119371,-0.0707 0.04672,-0.14304 0.02369,-0.11873 0.07137,-0.11841 0.0243,-0.14175 0.04672,-0.11969 0.119372,-0.0477 0.07073,-0.0941 0.048,-0.11873 0.09503,-0.0474 0.09439,-0.0723 0.07201,-0.0698 0.04736,-0.16641 0.07137,-0.0966 0.142393,-0.0711 0.07137,-0.0711 0.09503,-0.1184 0.166408,-0.0477 0.166409,-0.0723 0.142392,-0.0941 0.143034,-0.0954 0.166409,-0.0467 0.260481,-0.0243 0.190712,-0.0723 0.118089,-0.11873 0.166408,-0.0474 h 0.190713 l 0.237428,-0.0698 0.236787,0.0231 0.309442,-0.0723 h 0.356158 l 0.285106,0.0246 h 0.21371 l 0.238069,0.0474 0.285107,0.0234 0.213765,-0.0467 0.18943,0.0467 0.143034,0.0954 0.261123,0.0711 0.308801,0.0231 0.237428,0.0966 0.142393,0.0941 0.11873,0.0957 0.143034,0.0231 0.09439,0.0711 0.190712,0.0243 0.166408,0.023 0.166409,0.0477 0.166408,0.14303 0.19007,0.11841 0.190071,0.0477 0.213766,0.0243 0.189429,0.11713 0.119372,0.14303 0.166408,0.0477 0.119371,0.0711 0.141752,0.0474 h 0.119371 l 0.07137,0.0477 0.04672,0.0711 0.07201,0.0243 0.142393,0.0231 0.09439,-0.0231 h 0.09568 l 0.09504,0.0231 0.07137,0.0711 0.190071,0.0723 h 0.11873 l 0.119371,0.0231 0.236787,0.0477 0.403837,0.0231 0.380173,0.0477 0.213766,0.0243 0.356799,0.0467 0.451194,0.0243 0.617602,0.0477 0.855672,0.0474 0.736332,0.0234 h 0.783689 l 1.021759,-0.0234 1.068796,-0.0723 1.021759,-0.0941 0.760635,-0.0954 0.735691,-0.11841 0.332464,-0.0477 0.214407,-0.0243 0.09504,-0.0234 h 0.166408 c 1.544326,0 2.945585,0.92672 3.563187,2.32894 1.045742,2.47102 1.283202,3.61023 1.354222,6.29501 0,0.73726 0.617602,1.35454 1.377597,1.35454 0.332464,0 0.618243,-0.0954 0.879366,-0.30944 0.166408,-0.11841 0.261123,-0.33246 0.261123,-0.54655 0,-0.11841 0,-0.16641 -0.04736,-0.26144 -0.09504,-0.21281 -0.11873,-0.30816 -0.11873,-0.54527 0,-0.23839 0.07137,-0.47553 0.19007,-0.68926 l 0.807352,-1.35455 -0.09439,0.61889 0.522567,-0.95135 -0.09568,0.73726 0.570565,-0.87904 -0.166408,0.80671 0.403836,-0.42657 -0.19007,0.75903 0.284144,-0.35359 -0.166408,0.5939 c -0.11873,0.40352 -0.11873,0.4512 -0.11873,0.49888 -0.0237,0.0477 -0.0237,0.0711 -0.04736,0.49919 -0.02369,0.42785 -0.261123,0.80799 -0.618243,1.06847 l -0.997423,0.76032 c -0.380173,0.2851 -0.783689,0.42785 -1.234883,0.42785 -0.878725,0 -1.639361,-0.57089 -1.900484,-1.37792 -0.07137,-0.23678 -0.048,-0.14271 -0.07137,-0.38017 -0.09504,-1.68704 -0.475851,-3.37312 -1.069437,-4.94143 z"
       id="path257"
       inkscape:connector-curvature="0" />
  </g>
</svg>
