<?xml version="1.0" encoding="UTF-8" standalone="no"?>
<!-- Created with Inkscape (http://www.inkscape.org/) -->

<svg
   xmlns:dc="http://purl.org/dc/elements/1.1/"
   xmlns:cc="http://creativecommons.org/ns#"
   xmlns:rdf="http://www.w3.org/1999/02/22-rdf-syntax-ns#"
   xmlns:svg="http://www.w3.org/2000/svg"
   xmlns="http://www.w3.org/2000/svg"
   version="1.1"
   width="32"
   height="32"
   id="svg3105">
  <defs
     id="defs3107" />
  <metadata
     id="metadata3110">
    <rdf:RDF>
      <cc:Work
         rdf:about="">
        <dc:format>image/svg+xml</dc:format>
        <dc:type
           rdf:resource="http://purl.org/dc/dcmitype/StillImage" />
        <dc:title></dc:title>
      </cc:Work>
    </rdf:RDF>
  </metadata>
  <g
     id="layer1">
    <path
       d="m 4.4999348,25.1781 -4.01991405,4.028 c -0.639986,0.6393 -0.639986,1.6726 0,2.3139 0.63929905,0.64 1.67327705,0.64 2.31326305,0 l 4.019913,-4.0212 c 5.7465642,4.5879 14.1730082,4.1879 19.5262682,-1.1667 0.640674,-0.64 1.119976,-1.3133 1.633278,-2.0272 l 0.299993,-0.4533 c 0.245995,-0.3667 0.393304,-0.8133 0.393304,-1.2933 0,-0.7533 -0.359992,-1.4267 -0.91998,-1.8533 l -0.326681,-0.24 c -0.712672,-0.5073 -1.35997,-0.9467 -2.139954,-1.3067 1.853273,-0.4866 3.427239,-1.4739 4.899895,-2.9479 0.493302,-0.4927 0.93998,-1.006 1.333284,-1.5467 l 0.200683,-0.2999 c 0.179996,-0.266 0.286682,-0.5933 0.286682,-0.9407 0,-0.5527 -0.266682,-1.04 -0.679986,-1.3467 L 30.89268,11.7831 c -1.066665,-0.7007 -2.053269,-1.174 -3.27993,-1.4206 0.319993,-0.2533 0.625987,-0.5273 0.91998,-0.8207 1.886647,-1.88665 2.866626,-4.33391 2.939937,-6.78786 0,-0.08 -0.02669,-0.4533 -0.02669,-0.55267 0,-0.91999 -0.746671,-1.66666 -1.666651,-1.66666 l -0.506677,-0.014 C 26.806015,0.58731 24.345442,1.56728 22.452796,3.46124 22.160114,3.75392 21.88612,4.06054 21.633501,4.38122 21.380194,3.12793 20.893517,2.13395 20.166845,1.03998 l -0.233933,-0.326 C 19.632919,0.28068 19.125617,0 18.559629,0 c -0.32668,0 -0.632674,0.094 -0.893293,0.26068 -0.1,0.06 -0.373992,0.266 -0.413304,0.29268 -0.513989,0.37999 -0.999978,0.80667 -1.466656,1.27398 -1.473281,1.47328 -2.459947,3.03324 -2.946624,4.8872 C 12.473073,5.92787 12.033082,5.28726 11.519781,4.5679 L 11.293098,4.25391 C 10.86642,3.69392 10.186434,3.32724 9.4264508,3.32724 c -0.47999,0 -0.932668,0.14731 -1.30666,0.39999 -0.09331,0.0673 -0.359992,0.26068 -0.3933041,0.28731 -0.7199839,0.51999 -1.406657,0.98598 -2.059955,1.63996 -5.35319795,5.354 -5.75318895,13.7824 -1.1666,19.5236 z"
       id="path257" />
  </g>
</svg>
