<?xml version="1.0" encoding="UTF-8" standalone="no"?>
<!-- Created with Inkscape (http://www.inkscape.org/) -->

<svg
   xmlns:dc="http://purl.org/dc/elements/1.1/"
   xmlns:cc="http://creativecommons.org/ns#"
   xmlns:rdf="http://www.w3.org/1999/02/22-rdf-syntax-ns#"
   xmlns:svg="http://www.w3.org/2000/svg"
   xmlns="http://www.w3.org/2000/svg"
   version="1.1"
   width="32"
   height="32"
   id="svg3143">
  <defs
     id="defs3145" />
  <metadata
     id="metadata3148">
    <rdf:RDF>
      <cc:Work
         rdf:about="">
        <dc:format>image/svg+xml</dc:format>
        <dc:type
           rdf:resource="http://purl.org/dc/dcmitype/StillImage" />
        <dc:title></dc:title>
      </cc:Work>
    </rdf:RDF>
  </metadata>
  <path
     d="M 32,16 C 32,7.163 24.837,0 16,0 7.163,0 0,7.163 0,16 0,17.919 0.338,19.759 0.958,21.464 0.349,22.502 0,23.71 0,25 c 0,3.526 2.608,6.443 6,6.929 V 18.072 C 5.003,18.215 4.073,18.567 3.258,19.084 3.09,18.249 3,17.385 3,16.5 3,9.32 8.82,3.5 16,3.5 c 7.18,0 13,5.82 13,13 0,0.885 -0.088,1.749 -0.257,2.584 C 27.927,18.567 26.998,18.214 26,18.071 V 31.929 C 29.392,31.444 32,28.527 32,25 32,23.71 31.651,22.502 31.042,21.464 31.662,19.759 32,17.919 32,15.999 z m -9,2 c -0.55,0 -1,0.45 -1,1 v 12 c 0,0.55 0.45,1 1,1 h 2 V 18 H 23 z M 9,18 H 7 v 14 h 2 c 0.55,0 1,-0.45 1,-1 V 19 C 10,18.45 9.55,18 9,18 z"
     id="path8" />
</svg>
