<?xml version="1.0" encoding="UTF-8" standalone="no"?>
<!-- Created with Inkscape (http://www.inkscape.org/) -->

<svg
   xmlns:dc="http://purl.org/dc/elements/1.1/"
   xmlns:cc="http://creativecommons.org/ns#"
   xmlns:rdf="http://www.w3.org/1999/02/22-rdf-syntax-ns#"
   xmlns:svg="http://www.w3.org/2000/svg"
   xmlns="http://www.w3.org/2000/svg"
   xmlns:sodipodi="http://sodipodi.sourceforge.net/DTD/sodipodi-0.dtd"
   xmlns:inkscape="http://www.inkscape.org/namespaces/inkscape"
   width="32px"
   height="32px"
   id="svg3441"
   version="1.1"
   inkscape:version="0.48.4 r9939"
   sodipodi:docname="2156.svg">
  <defs
     id="defs3443" />
  <sodipodi:namedview
     id="base"
     pagecolor="#ffffff"
     bordercolor="#666666"
     borderopacity="1.0"
     inkscape:pageopacity="0.0"
     inkscape:pageshadow="2"
     inkscape:zoom="11.197802"
     inkscape:cx="15.329734"
     inkscape:cy="16.100586"
     inkscape:current-layer="layer1"
     showgrid="true"
     inkscape:grid-bbox="true"
     inkscape:document-units="px"
     inkscape:window-width="1600"
     inkscape:window-height="848"
     inkscape:window-x="0"
     inkscape:window-y="0"
     inkscape:window-maximized="1" />
  <metadata
     id="metadata3446">
    <rdf:RDF>
      <cc:Work
         rdf:about="">
        <dc:format>image/svg+xml</dc:format>
        <dc:type
           rdf:resource="http://purl.org/dc/dcmitype/StillImage" />
        <dc:title></dc:title>
      </cc:Work>
    </rdf:RDF>
  </metadata>
  <g
     id="layer1"
     inkscape:label="Layer 1"
     inkscape:groupmode="layer">
    <path
       d="m 28.860482,0.09582058 c -0.128299,0.058769 -0.465121,0.3581839 -0.839352,0.7431084 C 27.310108,1.5766948 26.967936,1.8279717 26.508195,1.9455732 25.770431,2.1326744 25.160966,1.9989992 23.840478,1.3414642 23.075972,0.96188228 22.883524,0.88168818 22.664334,0.88168818 c -0.240583,-0.00553 -0.277991,0.010685 -0.384927,0.17108262 -0.15504,0.2245363 -0.208493,0.6415255 -0.160388,1.2616899 0.04276,0.6789605 0.181782,1.2456436 0.620161,2.5768237 0.427684,1.3044398 0.539968,1.7642158 0.550633,2.2667418 0.01067,0.5025353 -0.101588,0.8340062 -0.358184,1.0959498 -0.294036,0.2886934 -0.550634,0.3688875 -1.87647,0.588072 -2.042205,0.342138 -3.362693,0.732414 -4.619031,1.357893 -2.491283,1.245644 -4.367752,3.464284 -5.538546,6.554338 -0.299384,0.791256 -0.518576,1.523651 -0.9943627,3.330645 -0.620162,2.357649 -0.673614,2.475186 -1.6252197,3.469645 -1.2349447,1.293736 -2.1705043,1.897817 -4.3356927,2.796017 -1.1119941,0.459739 -1.5931294,0.727053 -1.9459661,1.069163 -0.4758186,0.459832 -0.6575699,0.903543 -0.7270678,1.737448 -0.080194,1.010487 0.4864844,1.833798 1.6893698,2.453907 0.2512805,0.128315 0.6094653,0.277999 0.8019129,0.326175 0.4971806,0.128222 0.9088503,0.05343 0.9088503,-0.165805 0,-0.04237 -0.2512805,-0.34211 -0.5559814,-0.668192 -0.7751713,-0.817969 -0.962302,-1.250996 -0.7591583,-1.785623 0.1657383,-0.422341 0.8981532,-0.99971 1.769564,-1.389995 0.4169865,-0.187083 2.8708618,-1.165514 3.4214951,-1.368625 1.3846369,-0.507822 1.9887546,-0.486452 2.6997766,0.112287 l 0.256596,0.213796 10.462312,-0.02671 -0.01605,-0.400971 c -0.0481,-1.042542 -0.320779,-1.250995 -1.737474,-1.331226 -0.400972,-0.02119 -0.748461,-0.05343 -0.759158,-0.06909 -0.0481,-0.04237 0.160389,-0.534627 0.507878,-1.21894 0.620162,-1.213505 1.470179,-2.368333 1.956663,-2.651675 0.21919,-0.128222 0.277991,-0.139 0.678963,-0.117537 0.502529,0.02671 0.785868,0.144342 1.042496,0.438369 0.213842,0.245943 0.272643,0.449054 0.358186,1.267023 0.05345,0.497137 0.112253,0.780479 0.235234,1.090626 0.609466,1.577077 2.427134,3.319867 3.442889,3.293155 0.347489,-0.0092 0.502529,-0.112287 0.695008,-0.486453 0.171086,-0.336767 0.192448,-0.716367 0.05881,-0.978339 -0.0481,-0.09626 -0.326127,-0.416998 -0.609466,-0.716368 -1.267035,-1.315198 -1.657279,-2.357648 -1.657279,-4.431956 0,-2.106362 0.411638,-3.651384 1.315139,-4.923769 0.128299,-0.181786 0.56133,-0.684312 0.962302,-1.122699 1.277732,-1.395329 1.528981,-1.935299 1.528981,-3.277146 -0.0053,-0.775173 -0.0588,-1.186838 -0.283339,-2.020817 C 29.304214,7.7625128 29.432512,7.0675062 30.234426,6.1693521 30.779742,5.5545395 30.827846,5.3406977 30.635399,4.3195903 30.421557,3.202252 30.341363,2.7104204 30.229109,1.7320721 30.084765,0.50247468 29.977829,0.22983678 29.598282,0.06944848 c -0.235235,-0.1015922 -0.481135,-0.0909162 -0.737764,0.0267129 z"
       id="path257"
       inkscape:connector-curvature="0" />
  </g>
</svg>
