<?xml version="1.0" encoding="UTF-8" standalone="no"?>
<!-- Created with Inkscape (http://www.inkscape.org/) -->

<svg
   xmlns:dc="http://purl.org/dc/elements/1.1/"
   xmlns:cc="http://creativecommons.org/ns#"
   xmlns:rdf="http://www.w3.org/1999/02/22-rdf-syntax-ns#"
   xmlns:svg="http://www.w3.org/2000/svg"
   xmlns="http://www.w3.org/2000/svg"
   xmlns:sodipodi="http://sodipodi.sourceforge.net/DTD/sodipodi-0.dtd"
   xmlns:inkscape="http://www.inkscape.org/namespaces/inkscape"
   width="32px"
   height="32px"
   id="svg3441"
   version="1.1"
   inkscape:version="0.48.4 r9939"
   sodipodi:docname="2164.svg">
  <defs
     id="defs3443" />
  <sodipodi:namedview
     id="base"
     pagecolor="#ffffff"
     bordercolor="#666666"
     borderopacity="1.0"
     inkscape:pageopacity="0.0"
     inkscape:pageshadow="2"
     inkscape:zoom="11.197802"
     inkscape:cx="15.329734"
     inkscape:cy="16.100586"
     inkscape:current-layer="layer1"
     showgrid="true"
     inkscape:grid-bbox="true"
     inkscape:document-units="px"
     inkscape:window-width="1600"
     inkscape:window-height="848"
     inkscape:window-x="0"
     inkscape:window-y="0"
     inkscape:window-maximized="1" />
  <metadata
     id="metadata3446">
    <rdf:RDF>
      <cc:Work
         rdf:about="">
        <dc:format>image/svg+xml</dc:format>
        <dc:type
           rdf:resource="http://purl.org/dc/dcmitype/StillImage" />
        <dc:title></dc:title>
      </cc:Work>
    </rdf:RDF>
  </metadata>
  <g
     id="layer1"
     inkscape:label="Layer 1"
     inkscape:groupmode="layer">
    <path
       d="m 20.26386,25.29003 c 0,0.47667 -0.38647,0.86307 -0.86307,0.86307 h -6.80164 c -0.47673,0 -0.86323,-0.38647 -0.86323,-0.86307 0,-0.47673 0.3865,-0.86313 0.86323,-0.86313 h 6.80157 c 0.47673,0 0.86314,0.38647 0.86314,0.86313 z m -1.01847,2.01072 h -6.49088 c -0.47673,0 -0.86323,0.38646 -0.86323,0.86313 0,0.47666 0.3865,0.86307 0.86323,0.86307 h 6.49095 c 0.47666,0 0.86307,-0.3865 0.86307,-0.86307 0,-0.47667 -0.38641,-0.86313 -0.86314,-0.86313 z M 15.32327,32 h 1.29213 c 0.65568,0 0.81723,-0.2892 2.58563,-1.86554 H 12.79887 C 14.4794,31.688 14.65245,32 15.3233,32 z M 25.82598,9.45312 c 0,5.84422 -5.18136,9.11931 -5.18136,13.73112 h -9.28931 c 0,-4.61181 -5.18129,-7.8869 -5.18129,-13.73112 C 6.17395,3.35589 11.08332,0 15.99445,0 c 4.91486,0 9.83153,3.36047 9.83153,9.45312 z"
       id="path257"
       inkscape:connector-curvature="0" />
  </g>
</svg>
