<?xml version="1.0" encoding="UTF-8" standalone="no"?>
<!-- Created with Inkscape (http://www.inkscape.org/) -->

<svg
   xmlns:dc="http://purl.org/dc/elements/1.1/"
   xmlns:cc="http://creativecommons.org/ns#"
   xmlns:rdf="http://www.w3.org/1999/02/22-rdf-syntax-ns#"
   xmlns:svg="http://www.w3.org/2000/svg"
   xmlns="http://www.w3.org/2000/svg"
   version="1.1"
   width="32"
   height="32"
   id="svg3015">
  <defs
     id="defs3017" />
  <metadata
     id="metadata3020">
    <rdf:RDF>
      <cc:Work
         rdf:about="">
        <dc:format>image/svg+xml</dc:format>
        <dc:type
           rdf:resource="http://purl.org/dc/dcmitype/StillImage" />
        <dc:title></dc:title>
      </cc:Work>
    </rdf:RDF>
  </metadata>
  <g
     id="layer1">
    <g
       transform="translate(-7.08136,-68)"
       id="Captions" />
    <g
       transform="matrix(0.32,0,0,0.32,1.6e-4,0)"
       id="Your_Icon">
      <path
         d="M 66.665,0 H 65.066 60.142 58.335 21.909 C 15.574,0 10.414,5.155 10.414,11.491 v 77.018 c 0,6.335 5.159,11.491 11.495,11.491 H 78.09 c 6.344,0 11.495,-5.155 11.495,-11.491 V 29.167 26.461 22.319 20.834 L 66.665,0 z m 0,8.333 14.585,12.5 H 69.824 c -1.744,0 -3.16,-1.416 -3.16,-3.158 V 8.333 z M 81.25,88.509 c 0,1.741 -1.416,3.158 -3.16,3.158 H 21.909 c -1.744,0 -3.16,-1.416 -3.16,-3.158 V 11.491 c 0,-1.741 1.416,-3.158 3.16,-3.158 h 36.426 v 1.278 8.065 c 0,6.335 5.154,11.491 11.489,11.491 H 81.25 v 59.342 z"
         id="path6"
         style="fill:#000000" />
      <path
         d="M 34.375,71.875 H 23.96 V 61.458 H 34.375 V 71.875 z M 26.04,69.792 h 6.25 v -6.25 h -6.25 v 6.25 z"
         id="path8"
         style="fill:#000000" />
      <path
         d="M 34.375,88.542 H 23.96 V 78.125 H 34.375 V 88.542 z M 26.04,86.458 h 6.25 v -6.25 h -6.25 v 6.25 z"
         id="path10"
         style="fill:#000000" />
      <rect
         width="27.084999"
         height="4.1669998"
         x="37.5"
         y="16.667"
         id="rect12"
         style="fill:#000000" />
      <rect
         width="37.5"
         height="4.1669998"
         x="37.5"
         y="33.333"
         id="rect14"
         style="fill:#000000" />
      <rect
         width="37.5"
         height="4.1669998"
         x="37.5"
         y="50"
         id="rect16"
         style="fill:#000000" />
      <rect
         width="37.5"
         height="4.1669998"
         x="37.5"
         y="66.667"
         id="rect18"
         style="fill:#000000" />
      <rect
         width="37.5"
         height="4.1669998"
         x="37.5"
         y="83.333"
         id="rect20"
         style="fill:#000000" />
      <polygon
         points="26.04,13.542 26.04,19.792 32.29,19.792 32.29,18.404 34.375,18.404 34.375,21.875 23.96,21.875 23.96,11.458 34.375,11.458 34.375,14.73 32.29,14.73 32.29,13.542 "
         id="polygon22"
         style="fill:#000000" />
      <path
         d="m 38.224,11.723 c -0.265,-0.269 -0.775,-0.262 -1.031,-0.002 l -5.735,5.67 -2.954,-2.944 c -0.271,-0.267 -0.781,-0.271 -1.042,-0.004 -0.283,0.285 -0.289,0.749 -0.008,1.036 0,0 3.335,3.357 3.402,3.426 0.134,0.14 0.344,0.22 0.58,0.22 0.228,0 0.435,-0.075 0.572,-0.21 l 6.215,-6.152 c 0.282,-0.285 0.284,-0.751 10e-4,-1.04 z"
         id="path24"
         style="fill:#000000" />
      <polygon
         points="26.04,30.208 26.04,36.458 32.29,36.458 32.29,34.953 34.375,34.953 34.375,38.542 23.96,38.542 23.96,28.125 34.375,28.125 34.375,31.282 32.29,31.282 32.29,30.208 "
         id="polygon26"
         style="fill:#000000" />
      <path
         d="M 38.224,28.276 C 37.959,28.007 37.449,28.013 37.193,28.274 L 31.458,33.944 28.503,31 c -0.273,-0.269 -0.773,-0.273 -1.042,-0.008 -0.285,0.287 -0.289,0.753 -0.008,1.04 0.344,0.346 3.359,3.381 3.402,3.422 0.136,0.142 0.348,0.224 0.58,0.224 0.224,0 0.431,-0.077 0.572,-0.214 l 6.215,-6.153 c 0.283,-0.285 0.283,-0.747 0.002,-1.035 z"
         id="path28"
         style="fill:#000000" />
      <polygon
         points="26.04,46.875 26.04,53.125 32.29,53.125 32.29,51.916 34.375,51.916 34.375,55.208 23.96,55.208 23.96,44.792 34.375,44.792 34.375,48.246 32.29,48.246 32.29,46.875 "
         id="polygon30"
         style="fill:#000000" />
      <path
         d="M 38.226,45.241 C 37.959,44.97 37.455,44.972 37.192,45.233 l -5.735,5.674 -2.954,-2.944 C 28.23,47.694 27.73,47.69 27.461,47.955 c -0.285,0.287 -0.289,0.753 -0.008,1.04 0.344,0.346 3.359,3.381 3.402,3.422 0.136,0.142 0.348,0.224 0.58,0.224 0.224,0 0.431,-0.077 0.572,-0.214 l 6.215,-6.152 c 0.283,-0.285 0.283,-0.747 0.004,-1.034 z"
         id="path32"
         style="fill:#000000" />
    </g>
  </g>
</svg>
