<?xml version="1.0" encoding="UTF-8" standalone="no"?>
<!-- Created with Inkscape (http://www.inkscape.org/) -->

<svg
   xmlns:dc="http://purl.org/dc/elements/1.1/"
   xmlns:cc="http://creativecommons.org/ns#"
   xmlns:rdf="http://www.w3.org/1999/02/22-rdf-syntax-ns#"
   xmlns:svg="http://www.w3.org/2000/svg"
   xmlns="http://www.w3.org/2000/svg"
   version="1.1"
   width="32"
   height="32"
   id="svg3015">
  <defs
     id="defs3017" />
  <metadata
     id="metadata3020">
    <rdf:RDF>
      <cc:Work
         rdf:about="">
        <dc:format>image/svg+xml</dc:format>
        <dc:type
           rdf:resource="http://purl.org/dc/dcmitype/StillImage" />
        <dc:title></dc:title>
      </cc:Work>
    </rdf:RDF>
  </metadata>
  <g
     id="layer1">
    <g
       transform="translate(12.767626,-50.303238)"
       id="Captions" />
    <g
       transform="matrix(0.32,0,0,0.32,-1.1868116e-4,0)"
       id="Your_Icon">
      <path
         d="M 65.061,51.199 V 86.07 c 0,2.372 -1.519,4.304 -3.384,4.304 H 38.323 c -1.866,0 -3.383,-1.932 -3.383,-4.304 V 51.199 c 0,-2.373 1.517,-4.304 3.383,-4.304 h 23.354 c 1.865,10e-4 3.384,1.931 3.384,4.304 z m 9.318,41.841 c 0.002,0.158 -0.024,4.272 -5.573,6.829 L 68.522,100 H 31.478 l -0.283,-0.131 c -5.55,-2.557 -5.574,-6.671 -5.572,-6.847 -0.001,-0.319 -0.071,-39.831 0,-46.726 0.066,-6.548 7.057,-7.728 9.523,-9.025 V 25.288 h 5.53 v -2.204 h 2.016 C 43.112,5.455 45.418,4.069 48.002,2.366 V 1.024 h 1.157 V 0 h 1.685 v 1.024 h 1.138 v 1.329 c 2.582,1.689 4.909,3.059 5.33,20.731 h 2.015 v 2.204 h 5.529 l -10e-4,11.983 c 2.469,1.297 9.457,2.477 9.525,9.025 0.067,6.897 -10e-4,46.407 -10e-4,46.744 z M 61.729,37.271 h 0.943 V 27 h -0.943 v 10.271 z m -2.365,0 h 0.943 V 27 h -0.943 v 10.271 z m -3.223,0 h 0.942 V 27 h -0.942 v 10.271 z m -3.144,0 h 0.944 V 27 H 52.997 V 37.271 z M 49.77,27 v 10.271 h 0.946 V 27 H 49.77 z m -3.228,10.271 h 0.944 V 27 h -0.944 v 10.271 z m -3.225,0 h 0.942 V 27 h -0.942 v 10.271 z m -3.224,0 h 0.942 V 27 h -0.942 v 10.271 z m -2.765,10e-4 h 0.943 V 27 h -0.943 v 10.272 z m 29.153,13.927 c 0,-3.158 -2.155,-5.725 -4.805,-5.725 H 38.323 c -2.649,0 -4.805,2.567 -4.805,5.725 V 86.07 c 0,3.157 2.155,5.725 4.805,5.725 h 23.354 c 2.649,0 4.805,-2.567 4.805,-5.725 V 51.199 z"
         id="path6" />
    </g>
  </g>
</svg>
