<?xml version="1.0" encoding="UTF-8" standalone="no"?>
<!-- Created with Inkscape (http://www.inkscape.org/) -->

<svg
   xmlns:dc="http://purl.org/dc/elements/1.1/"
   xmlns:cc="http://creativecommons.org/ns#"
   xmlns:rdf="http://www.w3.org/1999/02/22-rdf-syntax-ns#"
   xmlns:svg="http://www.w3.org/2000/svg"
   xmlns="http://www.w3.org/2000/svg"
   version="1.1"
   width="32"
   height="32"
   id="svg3015">
  <defs
     id="defs3017" />
  <metadata
     id="metadata3020">
    <rdf:RDF>
      <cc:Work
         rdf:about="">
        <dc:format>image/svg+xml</dc:format>
        <dc:type
           rdf:resource="http://purl.org/dc/dcmitype/StillImage" />
        <dc:title></dc:title>
      </cc:Work>
    </rdf:RDF>
  </metadata>
  <g
     id="layer1">
    <g
       transform="translate(24.482728,-62.447479)"
       id="g3" />
    <g
       transform="translate(24.482728,-62.447479)"
       id="g7" />
    <g
       transform="translate(24.482728,-62.447479)"
       id="g11" />
    <g
       transform="translate(24.482728,-62.447479)"
       id="g15" />
    <g
       transform="translate(24.482728,-62.447479)"
       id="g19" />
    <g
       transform="translate(24.482728,-62.447479)"
       id="g23" />
    <g
       transform="translate(24.482728,-62.447479)"
       id="g27" />
    <g
       transform="translate(24.482728,-62.447479)"
       id="g31" />
    <g
       transform="translate(24.482728,-62.447479)"
       id="g35" />
    <g
       transform="translate(24.482728,-62.447479)"
       id="g39" />
    <g
       transform="matrix(0.3200032,0,0,0.3200032,3.0646706,0)"
       id="g43">
      <path
         d="M 61.318,0 H 19.526 C 17.329,0 15.547,1.782 15.547,3.979 V 96.02 c 0,2.197 1.782,3.979 3.979,3.979 h 41.792 c 2.197,0 3.979,-1.782 3.979,-3.979 V 3.979 C 65.298,1.782 63.516,0 61.318,0 z M 40.425,13.408 c -5.21,0 -9.429,-4.219 -9.429,-9.429 h 18.857 c 10e-4,5.21 -4.223,9.429 -9.428,9.429 z M 5.347,7.959 h 6.221 V 18.906 H 5.347 C 2.393,18.906 0,16.514 0,13.555 V 13.311 C 0,10.356 2.393,7.959 5.347,7.959 z m 0,18.379 h 6.221 V 37.28 H 5.347 C 2.393,37.28 0,34.888 0,31.934 V 31.685 C 0,28.73 2.393,26.338 5.347,26.338 z m 0,18.374 h 6.221 V 55.659 H 5.347 C 2.393,55.659 0,53.267 0,50.313 v -0.249 c 0,-2.955 2.393,-5.352 5.347,-5.352 z m 0,18.379 h 6.221 V 74.038 H 5.347 C 2.393,74.038 0,71.641 0,68.687 v -0.249 c 0,-2.955 2.393,-5.347 5.347,-5.347 z m 0,18.379 h 6.221 V 92.412 H 5.347 C 2.393,92.412 0,90.02 0,87.065 V 86.816 C 0,83.862 2.393,81.47 5.347,81.47 z M 75.498,7.959 h -6.221 v 10.947 h 6.221 c 2.954,0 5.347,-2.393 5.347,-5.352 V 13.31 c 0,-2.954 -2.393,-5.351 -5.347,-5.351 z m 0,18.379 H 69.277 V 37.28 h 6.221 c 2.954,0 5.347,-2.393 5.347,-5.347 v -0.249 c 0,-2.954 -2.393,-5.346 -5.347,-5.346 z m 0,18.374 h -6.221 v 10.947 h 6.221 c 2.954,0 5.347,-2.393 5.347,-5.347 v -0.249 c 0,-2.954 -2.393,-5.351 -5.347,-5.351 z m 0,18.379 h -6.221 v 10.947 h 6.221 c 2.954,0 5.347,-2.397 5.347,-5.352 v -0.249 c 0,-2.954 -2.393,-5.346 -5.347,-5.346 z m 0,18.379 h -6.221 v 10.942 h 6.221 c 2.954,0 5.347,-2.393 5.347,-5.347 v -0.249 c 0,-2.954 -2.393,-5.346 -5.347,-5.346 z"
         id="path45" />
    </g>
  </g>
</svg>
