<?xml version="1.0" encoding="UTF-8" standalone="no"?>
<!-- Created with Inkscape (http://www.inkscape.org/) -->

<svg
   xmlns:dc="http://purl.org/dc/elements/1.1/"
   xmlns:cc="http://creativecommons.org/ns#"
   xmlns:rdf="http://www.w3.org/1999/02/22-rdf-syntax-ns#"
   xmlns:svg="http://www.w3.org/2000/svg"
   xmlns="http://www.w3.org/2000/svg"
   version="1.1"
   width="32"
   height="32"
   id="svg3015">
  <defs
     id="defs3017" />
  <metadata
     id="metadata3020">
    <rdf:RDF>
      <cc:Work
         rdf:about="">
        <dc:format>image/svg+xml</dc:format>
        <dc:type
           rdf:resource="http://purl.org/dc/dcmitype/StillImage" />
        <dc:title></dc:title>
      </cc:Work>
    </rdf:RDF>
  </metadata>
  <g
     id="layer1">
    <g
       transform="matrix(0.32,0,0,0.32,9.0752626,0)"
       id="Your_Icon">
      <path
         d="m 26.413,12.438 c 0.229,-0.197 0.47,-0.382 0.72,-0.551 3.417,-2.301 8.444,-1.729 14.939,1.703 1.106,0.584 1.53,1.954 0.945,3.06 -0.585,1.106 -1.955,1.529 -3.061,0.945 -4.76,-2.515 -8.414,-3.209 -10.286,-1.957 -1.365,0.914 -1.846,2.996 -1.995,4.488 l -1.264,-0.584 0.002,-7.104 0,0 z"
         id="path4"
         style="fill:#010101" />
      <path
         d="M 32.915,52.248 C 31.364,49.455 29.869,46.754 28.593,44.155 L 22.37,41.277 c 1.633,4.232 4.038,8.577 6.583,13.167 5.955,10.743 12.11,21.851 8.554,32.117 -1.167,3.366 -3.464,5.95 -6.64,7.472 -3.668,1.759 -8.155,1.914 -12.307,0.428 C 14.343,92.952 10.771,90.015 8.229,85.959 5.799,82.085 4.487,77.404 4.531,72.778 4.61,64.785 8.877,58.389 13.041,53.187 c 0.586,-0.73 1.408,-1.614 2.275,-2.547 2.578,-2.771 5.609,-6.027 6.693,-9.528 l -4.184,-1.936 c -0.471,2.625 -3.51,5.892 -5.825,8.378 -0.928,0.997 -1.805,1.94 -2.496,2.803 -2.998,3.743 -5.097,6.987 -6.61,10.203 -1.905,4.057 -2.852,8.038 -2.893,12.171 -0.054,5.484 1.505,11.035 4.388,15.633 3.088,4.924 7.459,8.507 12.643,10.362 2.379,0.851 4.854,1.274 7.29,1.274 2.974,0 5.889,-0.631 8.502,-1.884 4.291,-2.056 7.39,-5.538 8.96,-10.072 4.22,-12.175 -2.735,-24.724 -8.869,-35.796 z"
         id="path6"
         style="fill:#010101" />
      <path
         d="M 32.365,40.2 17.344,33.256 c -1.135,-0.525 -2.481,-0.031 -3.005,1.105 -0.526,1.135 -0.03,2.481 1.104,3.005 l 3.59,1.66 4.186,1.936 0.355,0.164 6.225,2.878 0.666,0.307 c 0.308,0.143 0.63,0.21 0.948,0.21 0.854,0 1.675,-0.487 2.058,-1.315 0.527,-1.135 0.031,-2.481 -1.106,-3.006 z"
         id="path8"
         style="fill:#010101" />
      <g
         id="g10">
        <path
           d="m 31.415,38.803 c -0.318,0 -0.642,-0.066 -0.95,-0.21 L 15.444,31.649 c -1.135,-0.525 -1.63,-1.872 -1.104,-3.007 0.524,-1.136 1.87,-1.629 3.005,-1.104 l 15.021,6.944 c 1.137,0.525 1.631,1.872 1.104,3.006 -0.381,0.828 -1.201,1.315 -2.055,1.315 z"
           id="path12"
           style="fill:#010101" />
      </g>
      <g
         id="g14">
        <path
           d="m 31.415,33.085 c -0.318,0 -0.642,-0.066 -0.95,-0.21 L 15.444,25.931 c -1.135,-0.525 -1.63,-1.871 -1.104,-3.006 0.524,-1.135 1.87,-1.63 3.005,-1.105 l 15.021,6.943 c 1.137,0.525 1.631,1.872 1.104,3.007 -0.381,0.829 -1.201,1.315 -2.055,1.315 z"
           id="path16"
           style="fill:#010101" />
      </g>
      <polygon
         points="21.163,17.068 25.692,19.163 25.692,0 21.163,0 "
         id="polygon18"
         style="fill:#010101" />
      <path
         d="M 32.365,23.048 26.9,20.521 22.371,18.427 17.344,16.103 c -1.135,-0.525 -2.481,-0.031 -3.005,1.104 -0.526,1.135 -0.03,2.481 1.104,3.006 l 15.021,6.944 c 0.308,0.143 0.63,0.21 0.948,0.21 0.854,0 1.675,-0.487 2.058,-1.315 0.528,-1.134 0.032,-2.478 -1.105,-3.004 z"
         id="path20"
         style="fill:#010101" />
    </g>
  </g>
</svg>
