<?xml version="1.0" encoding="UTF-8" standalone="no"?>
<!-- Created with Inkscape (http://www.inkscape.org/) -->

<svg
   xmlns:dc="http://purl.org/dc/elements/1.1/"
   xmlns:cc="http://creativecommons.org/ns#"
   xmlns:rdf="http://www.w3.org/1999/02/22-rdf-syntax-ns#"
   xmlns:svg="http://www.w3.org/2000/svg"
   xmlns="http://www.w3.org/2000/svg"
   version="1.1"
   width="32"
   height="32"
   id="svg2996">
  <defs
     id="defs2998" />
  <metadata
     id="metadata3001">
    <rdf:RDF>
      <cc:Work
         rdf:about="">
        <dc:format>image/svg+xml</dc:format>
        <dc:type
           rdf:resource="http://purl.org/dc/dcmitype/StillImage" />
        <dc:title></dc:title>
      </cc:Work>
    </rdf:RDF>
  </metadata>
  <g
     id="layer1">
    <g
       transform="matrix(0.32328962,0,0,0.32328962,-0.16487757,-0.250961)"
       id="g3">
      <path
         d="M 98.544,18.096 C 97.758,17.143 96.587,16.591 95.35,16.591 H 24.671 L 21.269,5.163 C 20.746,3.406 19.132,2.202 17.299,2.202 H 4.653 c -2.288,0 -4.143,1.855 -4.143,4.143 0,2.288 1.855,4.142 4.143,4.142 h 9.556 L 29.691,62.49 c -1.678,3.077 -3.27,7.482 -1.465,11.172 1.598,3.267 5.209,4.924 10.731,4.924 0.1,0 0.2,-0.004 0.3,-0.014 0.359,-0.033 36.047,-3.305 48.352,-2.608 1.794,0.096 3.348,-1.277 3.45,-3.081 0.102,-1.803 -1.278,-3.348 -3.082,-3.448 -12.493,-0.705 -46.229,2.341 -49.165,2.61 -3.028,-0.02 -4.43,-0.686 -4.71,-1.256 -0.312,-0.635 -0.09,-1.835 0.435,-3.193 0.088,-0.005 0.175,-0.006 0.265,-0.017 l 54.068,-6.54 c 1.787,-0.217 3.23,-1.563 3.57,-3.329 l 6.978,-36.191 c 0.233,-1.215 -0.087,-2.47 -0.874,-3.423 z M 68.533,38.191 H 51.528 V 24.876 h 17.005 v 13.315 z m -36.262,3.924 h 15.333 v 15.57 l -10.327,1.25 -5.006,-16.82 z m 19.257,0 H 68.533 V 55.153 L 51.528,57.21 V 42.115 z M 87.767,38.191 H 72.458 V 24.876 H 90.334 L 87.767,38.191 z M 47.604,24.876 V 38.191 H 31.102 L 27.138,24.876 H 47.604 z M 72.458,54.678 V 42.115 H 87.01 l -2.133,11.06 -12.419,1.503 z"
         id="path5" />
      <circle
         cx="33.875999"
         cy="90.056"
         r="8.2770004"
         id="circle7" />
      <circle
         cx="80.968002"
         cy="90.056"
         r="8.2770004"
         id="circle9" />
    </g>
  </g>
</svg>
