<?xml version="1.0" encoding="UTF-8" standalone="no"?>
<!-- Created with Inkscape (http://www.inkscape.org/) -->

<svg
   xmlns:dc="http://purl.org/dc/elements/1.1/"
   xmlns:cc="http://creativecommons.org/ns#"
   xmlns:rdf="http://www.w3.org/1999/02/22-rdf-syntax-ns#"
   xmlns:svg="http://www.w3.org/2000/svg"
   xmlns="http://www.w3.org/2000/svg"
   version="1.1"
   width="32"
   height="32"
   id="svg2996">
  <defs
     id="defs2998" />
  <metadata
     id="metadata3001">
    <rdf:RDF>
      <cc:Work
         rdf:about="">
        <dc:format>image/svg+xml</dc:format>
        <dc:type
           rdf:resource="http://purl.org/dc/dcmitype/StillImage" />
        <dc:title></dc:title>
      </cc:Work>
    </rdf:RDF>
  </metadata>
  <g
     id="layer1">
    <g
       transform="translate(-8,-39.216216)"
       id="g57">
      <path
         d="m 36.972973,55.648649 3.027027,0 0,3.459459 -3.027027,0 z m -4.324324,0 3.459459,0 0,3.459459 -3.459459,0 z m -3.891892,0 3.027027,0 0,3.459459 -3.027027,0 z m -4.324325,0 3.45946,0 0,3.459459 -3.45946,0 z m -4.324324,0 3.45946,0 0,3.459459 -3.45946,0 z m -3.891892,0 3.027027,0 0,3.459459 -3.027027,0 z m -4.324324,0 3.459459,0 0,3.459459 -3.459459,0 z m -3.891892,0 3.027027,0 0,3.459459 -3.027027,0 z m 28.972973,-8.216217 3.027027,0 0,3.45946 -3.027027,0 z m -4.324324,0 3.459459,0 0,3.45946 -3.459459,0 z m -3.891892,0 3.027027,0 0,3.45946 -3.027027,0 z m -4.324325,0 3.45946,0 0,3.45946 -3.45946,0 z m -4.324324,0 3.45946,0 0,3.45946 -3.45946,0 z m -3.891892,0 3.027027,0 0,3.45946 -3.027027,0 z m -4.324324,0 3.459459,0 0,3.45946 -3.459459,0 z m -3.891892,0 3.027027,0 0,3.45946 -3.027027,0 z m 22.486486,4.324325 3.027028,0 0,3.027027 -3.027028,0 z m -4.324324,0 3.45946,0 0,3.027027 -3.45946,0 z m -3.891892,0 3.027027,0 0,3.027027 -3.027027,0 z m -3.891892,0 3.027027,0 0,3.027027 -3.027027,0 z m 16,0 5.621622,0 0,3.027027 -5.621622,0 z m -26.378378,0 5.621622,0 0,3.027027 -5.621622,0 z m 6.486486,0 3.027028,0 0,3.027027 -3.027028,0 z m 19.891892,8.216216 5.621622,0 L 40,63 34.378378,63 z m -19.891892,0 19.027028,0 0,3.027027 -19.027028,0 z m -6.486486,0 5.621622,0 0,3.027027 L 8,63 z"
         id="rect73" />
    </g>
  </g>
</svg>
