<?xml version="1.0" encoding="UTF-8" standalone="no"?>
<!-- Created with Inkscape (http://www.inkscape.org/) -->

<svg
   xmlns:dc="http://purl.org/dc/elements/1.1/"
   xmlns:cc="http://creativecommons.org/ns#"
   xmlns:rdf="http://www.w3.org/1999/02/22-rdf-syntax-ns#"
   xmlns:svg="http://www.w3.org/2000/svg"
   xmlns="http://www.w3.org/2000/svg"
   version="1.1"
   width="32"
   height="32"
   id="svg2996">
  <defs
     id="defs2998" />
  <metadata
     id="metadata3001">
    <rdf:RDF>
      <cc:Work
         rdf:about="">
        <dc:format>image/svg+xml</dc:format>
        <dc:type
           rdf:resource="http://purl.org/dc/dcmitype/StillImage" />
        <dc:title></dc:title>
      </cc:Work>
    </rdf:RDF>
  </metadata>
  <g
     id="layer1">
    <g
       transform="matrix(0.31906514,0,0,0.31906514,0.13336919,-4.3010004e-8)"
       id="g3">
      <path
         d="m 29.38,93.845 c 0,-3.559 2.883,-6.441 6.439,-6.441 3.564,0 6.447,2.883 6.447,6.441 0,3.565 -2.883,6.448 -6.447,6.448 -3.555,0 -6.439,-2.882 -6.439,-6.448 z"
         id="path5" />
      <path
         d="m 46.137,93.845 c 0,-3.559 2.888,-6.441 6.447,-6.441 3.561,0 6.443,2.883 6.443,6.441 0,3.565 -2.883,6.448 -6.443,6.448 -3.559,0 -6.447,-2.882 -6.447,-6.448 z"
         id="path7" />
      <path
         d="m 62.894,93.845 c 0,-3.559 2.882,-6.441 6.448,-6.441 3.559,0 6.445,2.883 6.445,6.441 0,3.565 -2.887,6.448 -6.445,6.448 -3.566,0 -6.448,-2.882 -6.448,-6.448 z"
         id="path9" />
      <path
         d="M 91.582,41.635 H 61.121 V 59.523 H 31.789 v -5.379 l 5.164,-12.83 H 16.97 l 5.155,12.849 v 5.359 h -6.283 c 0,0 -8.272,15.092 0,23.365 l 1.665,3.415 -9.632,11.396 H 25.836 V 86.274 h 53.016 v 11.424 h 12.73 V 86.274 59.544 41.635 z m -4.346,15.472 c 0,5.963 -0.965,10.798 -6.923,10.798 h -7.741 c -5.959,0 -6.927,-4.835 -6.927,-10.798 v -1.773 c 0,-5.962 0.968,-10.797 6.927,-10.797 h 7.741 c 5.958,0 6.923,4.834 6.923,10.797 v 1.773 z"
         id="path11" />
      <path
         d="m 66.641,4.51 c -1.749,0 -3.386,0.499 -4.777,1.35 0,-0.089 0.01,-0.174 0.01,-0.263 C 61.874,2.507 59.367,0 56.281,0 53.753,0 51.621,1.669 50.925,3.974 49.318,3.329 47.558,2.967 45.724,2.967 c -6.156,0 -11.371,3.97 -13.262,9.481 -2.601,0.499 -4.571,2.784 -4.571,5.53 0,1.994 1.039,3.749 2.61,4.75 -1.938,0.987 -3.259,2.991 -3.259,5.309 0,0.446 0.047,0.875 0.141,1.293 -0.047,-0.004 -0.094,-0.019 -0.141,-0.019 -1.933,0 -3.503,1.571 -3.503,3.504 0,1.933 1.57,3.5 3.503,3.5 1.717,0 3.146,-1.247 3.438,-2.883 0.767,0.367 1.623,0.573 2.521,0.573 1.811,0 3.424,-0.809 4.524,-2.083 0.861,1.289 2.323,2.14 3.993,2.14 2.037,0 3.767,-1.27 4.473,-3.057 5.112,-0.17 9.533,-3.058 11.84,-7.28 0.862,0.724 1.957,1.175 3.166,1.175 1.679,0 3.146,-0.837 4.035,-2.116 0.461,0.075 0.931,0.122 1.41,0.122 5.079,0 9.205,-4.12 9.205,-9.199 C 75.846,8.63 71.72,4.51 66.641,4.51 z"
         id="path13" />
    </g>
  </g>
</svg>
