<?xml version="1.0" encoding="UTF-8" standalone="no"?>
<!-- Created with Inkscape (http://www.inkscape.org/) -->

<svg
   xmlns:dc="http://purl.org/dc/elements/1.1/"
   xmlns:cc="http://creativecommons.org/ns#"
   xmlns:rdf="http://www.w3.org/1999/02/22-rdf-syntax-ns#"
   xmlns:svg="http://www.w3.org/2000/svg"
   xmlns="http://www.w3.org/2000/svg"
   xmlns:sodipodi="http://sodipodi.sourceforge.net/DTD/sodipodi-0.dtd"
   xmlns:inkscape="http://www.inkscape.org/namespaces/inkscape"
   version="1.1"
   width="32"
   height="32"
   id="svg3251"
   inkscape:version="0.91 r13725"
   sodipodi:docname="2197.svg">
  <sodipodi:namedview
     pagecolor="#ffffff"
     bordercolor="#666666"
     borderopacity="1"
     objecttolerance="10"
     gridtolerance="10"
     guidetolerance="10"
     inkscape:pageopacity="0"
     inkscape:pageshadow="2"
     inkscape:window-width="1920"
     inkscape:window-height="1027"
     id="namedview7"
     showgrid="false"
     units="px"
     width="32in"
     inkscape:zoom="4"
     inkscape:cx="-101.25"
     inkscape:cy="-4.25"
     inkscape:window-x="0"
     inkscape:window-y="0"
     inkscape:window-maximized="1"
     inkscape:current-layer="svg3251" />
  <defs
     id="defs3253" />
  <metadata
     id="metadata3256">
    <rdf:RDF>
      <cc:Work
         rdf:about="">
        <dc:format>image/svg+xml</dc:format>
        <dc:type
           rdf:resource="http://purl.org/dc/dcmitype/StillImage" />
        <dc:title></dc:title>
      </cc:Work>
    </rdf:RDF>
  </metadata>
  <path
     style="fill:none"
     inkscape:connector-curvature="0"
     id="path8"
     d="m 26.75188,1.2801639 -21.5037602,0 c -0.2115532,0 -0.3839958,0.172087 -0.3839958,0.3839957 l 0,28.6720364 c 0,0.211553 0.172087,0.38364 0.3839958,0.38364 l 21.5037602,0 c 0.211909,0 0.383996,-0.172087 0.383996,-0.38364 l 0,-28.6720364 c 0,-0.2119087 -0.172442,-0.3839957 -0.383996,-0.3839957 z M 13.623138,6.6283711 C 13.792736,5.4557619 14.754503,4.557283 15.91609,4.557283 c 1.160876,0 2.122998,0.8977678 2.292241,2.0700214 0.01778,0.1212431 0.02667,0.2453306 0.02667,0.3711959 0,0.1262208 -0.0089,0.2503083 -0.02667,0.3711959 -0.125865,1.6860257 -1.104343,2.9983658 -2.292241,2.9983658 -1.172965,0 -2.141132,-1.2785627 -2.287619,-2.9332999 -0.0021,-0.022044 -0.0039,-0.043733 -0.0057,-0.065422 -0.01067,-0.071821 -0.01742,-0.1447095 -0.02169,-0.2183087 -0.0028,-0.050488 -0.005,-0.1009766 -0.005,-0.152176 3.55e-4,-0.1258653 0.0092,-0.2495973 0.02702,-0.3704848 z m 0.536883,3.4808499 c 0.01244,0.552527 0.830924,0.998744 1.839979,0.998744 1.008344,0 1.827535,-0.445861 1.83998,-0.998744 1.543094,0.140798 2.751969,1.438206 2.751258,3.018277 0,1.673937 -1.356785,1.670026 -3.030722,1.670026 l -3.121387,0 c -1.673937,0 -3.030722,0.0043 -3.030722,-1.670026 -3.56e-4,-1.580071 1.20852,-2.877123 2.751614,-3.018277 z m 9.531982,17.332785 -15.3843617,0 c -0.4241732,0 -0.7679916,-0.344174 -0.7679916,-0.767992 0,-0.423817 0.3438184,-0.767991 0.7679916,-0.767991 l 15.3843617,0 c 0.424173,0 0.767992,0.344174 0.767992,0.767991 0,0.423818 -0.343819,0.767992 -0.767992,0.767992 z m 0,-4.09631 -15.3843617,0 c -0.4241732,0 -0.7679916,-0.343819 -0.7679916,-0.767992 0,-0.423817 0.3438184,-0.767636 0.7679916,-0.767636 l 15.3843617,0 c 0.424173,0 0.767992,0.343819 0.767992,0.767636 0,0.424173 -0.343819,0.767992 -0.767992,0.767992 z m 0,-4.095599 -15.3843617,0 c -0.4241732,0 -0.7679916,-0.344174 -0.7679916,-0.767992 0,-0.423817 0.3438184,-0.767991 0.7679916,-0.767991 l 15.3843617,0 c 0.424173,0 0.767992,0.344174 0.767992,0.767991 0,0.423818 -0.343819,0.767992 -0.767992,0.767992 z" />
  <path
     inkscape:connector-curvature="0"
     id="path10"
     d="m 26.75188,5.1199996e-8 -21.5037605,0 C 4.3307963,5.1199996e-8 3.584138,0.74665841 3.584138,1.6639815 l 0,28.6720365 C 3.584138,31.253341 4.3307963,32 5.2481195,32 L 26.75188,32 c 0.917324,0 1.663982,-0.746659 1.663982,-1.663982 l 0,-28.671681 C 28.415506,0.74665841 27.669204,5.1199996e-8 26.75188,5.1199996e-8 Z M 27.135876,30.336018 c 0,0.211553 -0.172087,0.38364 -0.383996,0.38364 l -21.5037605,0 c -0.2115532,0 -0.3839958,-0.172087 -0.3839958,-0.38364 l 0,-28.671681 c 0,-0.2119087 0.172087,-0.3839957 0.3839958,-0.3839957 l 21.5037605,0 c 0.211909,0 0.383996,0.172087 0.383996,0.3839957 l 0,28.671681 z" />
  <g
     id="g4214"
     transform="translate(-1e-7,0.0500004)">
    <path
       d="m 23.692181,22.414017 -15.3843623,0 c -0.4241731,0 -0.7679915,0.344174 -0.7679915,0.767992 0,0.423817 0.3438184,0.767991 0.7679915,0.767991 l 15.3843623,0 c 0.424173,0 0.767992,-0.344174 0.767992,-0.767991 0,-0.423818 -0.343819,-0.767992 -0.767992,-0.767992 z"
       id="path12"
       inkscape:connector-curvature="0" />
    <path
       d="m 23.692181,26.811017 -15.3843623,0 c -0.4241731,0 -0.7679915,0.344174 -0.7679915,0.767992 0,0.423817 0.3438184,0.767991 0.7679915,0.767991 l 15.3843623,0 c 0.424173,0 0.767992,-0.344174 0.767992,-0.767991 0,-0.423818 -0.343819,-0.767992 -0.767992,-0.767992 z"
       id="path16"
       inkscape:connector-curvature="0" />
    <g
       transform="translate(-0.08224604,1.1049998)"
       id="g4149">
      <path
         style="fill:none"
         inkscape:connector-curvature="0"
         id="path6"
         d="m 15.951694,10.973816 c 1.629943,0 2.972119,-1.7999371 3.14489,-4.1126357 0.02222,-0.1494339 0.03333,-0.3022111 0.035,-0.4572046 L 18.62327,6.9878431 c 0.280545,-0.6216442 -0.718864,-2.2027009 -0.718864,-2.2027009 -1.684387,1.2177356 -4.188189,0 -4.188189,0 -0.756083,0.2977684 -0.398318,2.4232487 -0.398318,2.4232487 -0.188327,-0.1311062 -0.360543,-0.1999916 -0.502205,-0.2349912 0.20777,2.2588107 1.532168,4.0004163 3.136001,4.0004163 z" />
      <path
         inkscape:connector-curvature="0"
         id="path18"
         d="m 13.643998,18.448 4.877051,0 c 2.615464,0 4.735391,0.0067 4.735391,-2.609354 0.0011,-2.468802 -1.887712,-4.495398 -4.298739,-4.715946 -0.01944,0.863303 -1.2994,1.560501 -2.8749,1.560501 -1.576611,0 -2.856012,-0.696642 -2.874899,-1.560501 -2.411027,0.219992 -4.299851,2.247144 -4.299851,4.715946 0,2.615465 2.120482,2.609354 4.735947,2.609354 z" />
      <path
         inkscape:connector-curvature="0"
         id="path20"
         d="m 12.369042,6.8417372 c 0.0022,0.034438 0.0056,0.068328 0.0089,0.1022164 0.228326,2.5854651 1.741051,4.5831734 3.57432,4.5831734 1.856046,0 3.384882,-2.0499292 3.581543,-4.6848366 0.02778,-0.1888816 0.04167,-0.3827642 0.04167,-0.5799802 0,-0.1966591 -0.0139,-0.3910964 -0.04167,-0.5799794 -0.264992,-1.8310476 -1.768272,-3.2343314 -3.581543,-3.2343314 -1.814937,0 -3.318216,1.4038399 -3.582652,3.2359984 -0.02722,0.1888831 -0.04167,0.3822095 -0.04167,0.5788686 0,0.079998 0.0033,0.1594384 0.0078,0.2377699 0.0056,0.1155596 0.01667,0.2294362 0.03333,0.3410994 z m 1.347174,-2.056595 c 0,0 2.503802,1.2177356 4.188188,0 0,0 0.99941,1.5816129 0.718864,2.2027009 l 0.508315,-0.5838674 c -0.0022,0.1549966 -0.01282,0.3077661 -0.035,0.4572046 -0.173327,2.3126986 -1.515501,4.1126367 -3.14489,4.1126367 -1.603833,0 -2.928231,-1.7416066 -3.136001,-4.0004173 0.141668,0.035002 0.313878,0.103888 0.502205,0.2349912 0,5.562e-4 -0.357765,-2.1254803 0.398318,-2.4232487 z" />
    </g>
  </g>
</svg>
