<?xml version="1.0" encoding="UTF-8" standalone="no"?>
<!-- Created with Inkscape (http://www.inkscape.org/) -->

<svg
   xmlns:dc="http://purl.org/dc/elements/1.1/"
   xmlns:cc="http://creativecommons.org/ns#"
   xmlns:rdf="http://www.w3.org/1999/02/22-rdf-syntax-ns#"
   xmlns:svg="http://www.w3.org/2000/svg"
   xmlns="http://www.w3.org/2000/svg"
   version="1.1"
   width="32"
   height="32"
   id="svg3143">
  <defs
     id="defs3145" />
  <metadata
     id="metadata3148">
    <rdf:RDF>
      <cc:Work
         rdf:about="">
        <dc:format>image/svg+xml</dc:format>
        <dc:type
           rdf:resource="http://purl.org/dc/dcmitype/StillImage" />
        <dc:title></dc:title>
      </cc:Work>
    </rdf:RDF>
  </metadata>
  <g
     id="layer1">
    <path
       d="M 14,24.828475 7.585813,17.414285 9.414188,15.585845 14,19.171595 l 8.58575,-7.58575 1.8285,1.82838 z M 25.992875,4.0000352 c 0.0024,0.002 0.0051,0.005 0.0071,0.007 V 27.992725 c -0.0021,0.002 -0.0047,0.005 -0.0071,0.007 H 6.007125 c -0.0025,-0.002 -0.0051,-0.005 -0.0071,-0.007 V 4.0069652 c 0.0021,-0.002 0.0047,-0.005 0.0072,-0.007 H 2 V 27.999965 c 0,2.2 1.8,4 4,4 h 20 c 2.2,0 4,-1.8 4,-4 V 4.0000352 h -4.007125 z m -5.992875,0 v -2 C 20,0.8954748 19.104563,3.48e-5 18,3.48e-5 h -4 c -1.104562,0 -2,0.89544 -2,2.0000004 v 2 H 8 v 4 h 16 v -4 h -4 z m -2,0 h -4 v -2 h 4 v 2 z"
       id="path129" />
  </g>
</svg>
