<?xml version="1.0" encoding="UTF-8" standalone="no"?>
<svg
   xmlns:dc="http://purl.org/dc/elements/1.1/"
   xmlns:cc="http://creativecommons.org/ns#"
   xmlns:rdf="http://www.w3.org/1999/02/22-rdf-syntax-ns#"
   xmlns:svg="http://www.w3.org/2000/svg"
   xmlns="http://www.w3.org/2000/svg"
   id="svg3143"
   height="32"
   width="32"
   version="1.1">
  <defs
     id="defs3145" />
  <metadata
     id="metadata3148">
    <rdf:RDF>
      <cc:Work
         rdf:about="">
        <dc:format>image/svg+xml</dc:format>
        <dc:type
           rdf:resource="http://purl.org/dc/dcmitype/StillImage" />
        <dc:title></dc:title>
      </cc:Work>
    </rdf:RDF>
  </metadata>
  <path
     style="fill:#000000"
     id="path4"
     d="m 23,19 c 2,-2 8,4 8,6 0,2 -6,6 -6,6 C 21,31 12.891,26.891 8.9999997,23 5.1089997,19.109 1,11 1,7 1,7 4.9999994,1 7,1 8.9999997,1 15,7 13,8.9999997 11,11 8.9999997,11 8.9999997,13 8.9999997,15 11,17 13,19 c 2,2 4,4 6,4 2,0 2,-2 4,-4 z m 8,-10.0000003 -4,0 L 27,13 l -4,0 0,-4.0000003 -4,0 L 19,5 l 4,0 0,-4 4,0 0,4 4,0 z" />
</svg>
