<?xml version="1.0" encoding="UTF-8" standalone="no"?>
<!-- Created with Inkscape (http://www.inkscape.org/) -->

<svg
   xmlns:dc="http://purl.org/dc/elements/1.1/"
   xmlns:cc="http://creativecommons.org/ns#"
   xmlns:rdf="http://www.w3.org/1999/02/22-rdf-syntax-ns#"
   xmlns:svg="http://www.w3.org/2000/svg"
   xmlns="http://www.w3.org/2000/svg"
   version="1.1"
   width="32"
   height="32"
   id="svg3143">
  <defs
     id="defs3145" />
  <metadata
     id="metadata3148">
    <rdf:RDF>
      <cc:Work
         rdf:about="">
        <dc:format>image/svg+xml</dc:format>
        <dc:type
           rdf:resource="http://purl.org/dc/dcmitype/StillImage" />
        <dc:title></dc:title>
      </cc:Work>
    </rdf:RDF>
  </metadata>
  <path
     d="m 11,0 c -0.552,0 -1,0.448 -1,1 l 0,4 c 0,0.552 0.448,1 1,1 0.552,0 1,-0.448 1,-1 L 12,1 C 12,0.448 11.552,0 11,0 z m 12,0 c -4.963,0 -9,4.037 -9,9 0,1.105 0.895,2 2,2 1.105,0 2,-0.895 2,-2 0,-2.757 2.243,-5 5,-5 2.757,0 5,2.243 5,5 0,2.757 -2.243,5 -5,5 -1.105,0 -2,0.895 -2,2 0,1.105 0.895,2 2,2 4.963,0 9,-4.037 9,-9 C 32,4.037 27.963,0 23,0 z M 3,2 c -0.255875,1.25e-4 -0.52325,0.08625 -0.71875,0.28125 -0.391,0.39 -0.391,1.0475 0,1.4375 l 4,4 C 6.47625,7.91375 6.744,8 7,8 7.256,8 7.52375,7.91375 7.71875,7.71875 c 0.391,-0.39 0.391,-1.0465 0,-1.4375 l -4,-4 C 3.52375,2.08575 3.255875,1.999875 3,2 z m -2,8 c -0.552,0 -1,0.448 -1,1 0,0.552 0.448,1 1,1 l 4,0 C 5.552,12 6,11.552 6,11 6,10.448 5.552,10 5,10 l -4,0 z m 8,4 c -4.963,0 -9,4.037 -9,9 0,4.963 4.037,9 9,9 4.963,0 9,-4.037 9,-9 0,-1.105 -0.895,-2 -2,-2 -1.105,0 -2,0.895 -2,2 0,2.757 -2.243,5 -5,5 -2.757,0 -5,-2.243 -5,-5 0,-2.757 2.243,-5 5,-5 1.105,0 2,-0.895 2,-2 0,-1.105 -0.895,-2 -2,-2 z m 18,6 c -0.552,0 -1,0.448 -1,1 0,0.552 0.448,1 1,1 l 4,0 c 0.552,0 1,-0.448 1,-1 0,-0.552 -0.448,-1 -1,-1 l -4,0 z m -2,4 c -0.255875,0 -0.52325,0.08625 -0.71875,0.28125 -0.391,0.39 -0.391,1.0475 0,1.4375 l 4,4 C 28.47625,29.91375 28.744,30 29,30 c 0.256,0 0.52375,-0.08625 0.71875,-0.28125 0.391,-0.39 0.391,-1.0475 0,-1.4375 l -4,-4 C 25.52375,24.08625 25.255875,24 25,24 z m -4,2 c -0.552,0 -1,0.448 -1,1 l 0,4 c 0,0.552 0.448,1 1,1 0.552,0 1,-0.448 1,-1 l 0,-4 c 0,-0.552 -0.448,-1 -1,-1 z"
     id="path4" />
</svg>
