<?xml version="1.0" encoding="UTF-8" standalone="no"?>
<!-- Created with Inkscape (http://www.inkscape.org/) -->

<svg
   xmlns:dc="http://purl.org/dc/elements/1.1/"
   xmlns:cc="http://creativecommons.org/ns#"
   xmlns:rdf="http://www.w3.org/1999/02/22-rdf-syntax-ns#"
   xmlns:svg="http://www.w3.org/2000/svg"
   xmlns="http://www.w3.org/2000/svg"
   version="1.1"
   width="32"
   height="32"
   id="svg3143">
  <defs
     id="defs3145" />
  <metadata
     id="metadata3148">
    <rdf:RDF>
      <cc:Work
         rdf:about="">
        <dc:format>image/svg+xml</dc:format>
        <dc:type
           rdf:resource="http://purl.org/dc/dcmitype/StillImage" />
        <dc:title></dc:title>
      </cc:Work>
    </rdf:RDF>
  </metadata>
  <path
     d="m 8.71875,0.00152363 c -0.757752,-0.01838 -1.517938,0.06794 -2.28125,0.25 -0.461,0.11 -0.8995,0.2635 -1.3125,0.4375 0.052,0.39199997 0.14125,0.76324997 0.28125,1.15624997 1.234,3.471 5.52275,5.50325 9.59375,4.53125 0.426,-0.102 0.83375,-0.219 1.21875,-0.375 -0.14,0.646 -0.21875,1.312 -0.21875,2 l 0.65625,0 c 0.58,-2.711 2.7795,-5.875 5.6875,-5.875 0,-1.48999997 -1.01925,-2.12499997 -2.15625,-2.12499997 -1.082,0.536 -2.01825,1.48474997 -2.78125,2.84374997 -0.412,0.734 -0.851,1.749 -1.125,2.875 -0.055,-0.318 -0.137,-0.6195 -0.25,-0.9375 -1.002625,-2.820187 -4.028911,-4.70161797 -7.3125,-4.78124997 z m 1.6875,7.99999997 C 6.433691,7.9601136 2,10.298399 2,18.314024 c 0,7.924 10.034,16.6845 14,12.6875 3.965,3.997 14,-4.7635 14,-12.6875 C 30,5.4890236 18.642,7.2067736 16,9.9077736 15.00925,8.8948986 12.789785,8.0263676 10.40625,8.0015236 z M 21.125,10.595274 c 3.595,1.205 6.56825,4.31575 4.90625,10.71875 -0.753,2.9 -3.22825,5.62625 -6.15625,7.53125 3.06,-3.643 4.948,-9.81175 3.125,-14.59375 -0.543,-1.424 -1.195,-2.64125 -1.875,-3.65625 z"
     id="path4" />
</svg>
