<?xml version="1.0" encoding="UTF-8" standalone="no"?>
<!-- Created with Inkscape (http://www.inkscape.org/) -->

<svg
   xmlns:dc="http://purl.org/dc/elements/1.1/"
   xmlns:cc="http://creativecommons.org/ns#"
   xmlns:rdf="http://www.w3.org/1999/02/22-rdf-syntax-ns#"
   xmlns:svg="http://www.w3.org/2000/svg"
   xmlns="http://www.w3.org/2000/svg"
   version="1.1"
   width="32"
   height="32"
   id="svg3143">
  <defs
     id="defs3145" />
  <metadata
     id="metadata3148">
    <rdf:RDF>
      <cc:Work
         rdf:about="">
        <dc:format>image/svg+xml</dc:format>
        <dc:type
           rdf:resource="http://purl.org/dc/dcmitype/StillImage" />
        <dc:title></dc:title>
      </cc:Work>
    </rdf:RDF>
  </metadata>
  <path
     d="M 1,1 C 0.448,1 0,1.448 0,2 l 0,9 c 0,1.477 0.806,2.77575 2,3.46875 L 2,29 1,29 c -0.552,0 -1,0.448 -1,1 0,0.552 0.448,1 1,1 l 30,0 c 0.552,0 1,-0.448 1,-1 0,-0.552 -0.448,-1 -1,-1 l -1,0 0,-14.53125 C 31.194,13.77575 32,12.477 32,11 L 32,2 C 32,1.448 31.552,1 31,1 L 1,1 z m 7,2 4,0 0,8 c 0,1.103 -0.897,2 -2,2 C 8.897,13 8,12.103 8,11 L 8,3 z m 12,0 4,0 0,8 c 0,1.103 -0.897,2 -2,2 -1.103,0 -2,-0.897 -2,-2 L 20,3 z M 7,13.65625 C 7.734,14.48825 8.806,15 10,15 11.194,15 12.266,14.48825 13,13.65625 13.734,14.48825 14.806,15 16,15 17.194,15 18.267,14.48825 19,13.65625 19.733,14.48825 20.806,15 22,15 23.194,15 24.267,14.48825 25,13.65625 25.733,14.48825 26.806,15 28,15 l 0,14 -2,0 0,-9 c 0,-0.552 -0.448,-1 -1,-1 l -6,0 c -0.552,0 -1,0.448 -1,1 l 0,9 -14,0 0,-14 c 1.194,0 2.266,-0.51175 3,-1.34375 z M 7,17 c -0.552,0 -1,0.448 -1,1 l 0,6 c 0,0.552 0.448,1 1,1 l 6,0 c 0.552,0 1,-0.448 1,-1 l 0,-6 c 0,-0.552 -0.448,-1 -1,-1 l -6,0 z m 1,2 4,0 0,4 -4,0 0,-4 z m 12,2 4,0 0,8 -4,0 0,-8 z"
     id="path4" />
</svg>
