<?xml version="1.0" encoding="UTF-8" standalone="no"?>
<svg
   xmlns:dc="http://purl.org/dc/elements/1.1/"
   xmlns:cc="http://creativecommons.org/ns#"
   xmlns:rdf="http://www.w3.org/1999/02/22-rdf-syntax-ns#"
   xmlns:svg="http://www.w3.org/2000/svg"
   xmlns="http://www.w3.org/2000/svg"
   xmlns:sodipodi="http://sodipodi.sourceforge.net/DTD/sodipodi-0.dtd"
   xmlns:inkscape="http://www.inkscape.org/namespaces/inkscape"
   xml:space="preserve"
   version="1.1"
   style="clip-rule:evenodd;fill-rule:evenodd;image-rendering:optimizeQuality;shape-rendering:geometricPrecision;text-rendering:geometricPrecision"
   viewBox="0 0 32 32"
   x="0px"
   y="0px"
   id="svg2"
   inkscape:version="0.91 r13725"
   sodipodi:docname="2256.svg"
   width="32"
   height="32"><metadata
     id="metadata22"><rdf:RDF><cc:Work
         rdf:about=""><dc:format>image/svg+xml</dc:format><dc:type
           rdf:resource="http://purl.org/dc/dcmitype/StillImage" /><dc:title></dc:title></cc:Work></rdf:RDF></metadata><sodipodi:namedview
     pagecolor="#ffffff"
     bordercolor="#666666"
     borderopacity="1"
     objecttolerance="10"
     gridtolerance="10"
     guidetolerance="10"
     inkscape:pageopacity="0"
     inkscape:pageshadow="2"
     inkscape:window-width="1920"
     inkscape:window-height="1027"
     id="namedview20"
     showgrid="false"
     inkscape:zoom="0.98848168"
     inkscape:cx="-357.17478"
     inkscape:cy="117.35169"
     inkscape:window-x="0"
     inkscape:window-y="0"
     inkscape:window-maximized="1"
     inkscape:current-layer="svg2" /><defs
     id="defs4"><style
       type="text/css"
       id="style6">
   
    .fil0 {fill:black}
    .fil1 {fill:black}
   
  </style></defs><path
     style="fill:#000000"
     inkscape:connector-curvature="0"
     id="path10"
     d="m 2.479705,0 27.04059,0 C 30.93727,0 32,1.675395 32,3.685865 l 0,24.79581 C 32,30.492145 30.93727,32 29.520295,32 L 2.479705,32 C 1.06273,32 0,30.492145 0,28.481675 L 0,3.685865 C 0,1.675395 1.06273,0 2.479705,0 Z m 25.97786,2.17801 c 0.590405,0 0.94465,0.50262 0.94465,1.340315 0,0.837695 -0.354245,1.340315 -0.94465,1.340315 -0.472325,0 -0.94465,-0.50262 -0.94465,-1.340315 0,-0.837695 0.472325,-1.340315 0.94465,-1.340315 z m -4.487085,0 c 0.472325,0 0.94465,0.50262 0.94465,1.340315 0,0.837695 -0.472325,1.340315 -0.94465,1.340315 -0.590405,0 -1.06273,-0.50262 -1.06273,-1.340315 0,-0.837695 0.472325,-1.340315 1.06273,-1.340315 z m -4.605165,0 c 0.47232,0 0.944645,0.50262 0.944645,1.340315 0,0.837695 -0.472325,1.340315 -0.944645,1.340315 -0.59041,0 -0.94465,-0.50262 -0.94465,-1.340315 0,-0.837695 0.35424,-1.340315 0.94465,-1.340315 z m 11.690035,4.52356 -30.11070003,0 0,21.780105 c 0,1.172775 0.70848503,2.17801 1.53505503,2.17801 l 27.04059,0 c 0.82657,0 1.535055,-1.005235 1.535055,-2.17801 l 0,-21.780105 z"
     class="fil0" /></svg>