<?xml version="1.0" encoding="UTF-8" standalone="no"?>
<svg
   xmlns:dc="http://purl.org/dc/elements/1.1/"
   xmlns:cc="http://creativecommons.org/ns#"
   xmlns:rdf="http://www.w3.org/1999/02/22-rdf-syntax-ns#"
   xmlns:svg="http://www.w3.org/2000/svg"
   xmlns="http://www.w3.org/2000/svg"
   xmlns:sodipodi="http://sodipodi.sourceforge.net/DTD/sodipodi-0.dtd"
   xmlns:inkscape="http://www.inkscape.org/namespaces/inkscape"
   xml:space="preserve"
   version="1.1"
   style="clip-rule:evenodd;fill-rule:evenodd;image-rendering:optimizeQuality;shape-rendering:geometricPrecision;text-rendering:geometricPrecision"
   viewBox="0 0 32 32"
   x="0px"
   y="0px"
   id="svg2"
   inkscape:version="0.91 r13725"
   sodipodi:docname="2261.svg"
   width="32"
   height="32"><metadata
     id="metadata22"><rdf:RDF><cc:Work
         rdf:about=""><dc:format>image/svg+xml</dc:format><dc:type
           rdf:resource="http://purl.org/dc/dcmitype/StillImage" /><dc:title></dc:title></cc:Work></rdf:RDF></metadata><sodipodi:namedview
     pagecolor="#ffffff"
     bordercolor="#666666"
     borderopacity="1"
     objecttolerance="10"
     gridtolerance="10"
     guidetolerance="10"
     inkscape:pageopacity="0"
     inkscape:pageshadow="2"
     inkscape:window-width="1920"
     inkscape:window-height="1027"
     id="namedview20"
     showgrid="false"
     inkscape:zoom="0.98848168"
     inkscape:cx="-603.51217"
     inkscape:cy="115.32838"
     inkscape:window-x="0"
     inkscape:window-y="0"
     inkscape:window-maximized="1"
     inkscape:current-layer="svg2" /><defs
     id="defs4"><style
       type="text/css"
       id="style6">
   
    .fil0 {fill:black}
    .fil1 {fill:black}
   
  </style></defs><g
     transform="matrix(0.49961078,0,0,0.49961078,-0.47450354,-0.49961104)"
     id="g4"><path
       inkscape:connector-curvature="0"
       d="m 2.8,26.9 c 0,-0.1 0.1,-0.2 0.2,-0.3 3.3,-4.9 7.7,-5.9 10.8,-5.9 1.5,0 3,0.2 4.6,0.6 -3.2,6.9 -3.5,19.1 -3.2,31.7 3.1,-0.9 6.6,-1.6 10.3,-2 -1.9,-7.2 -2.2,-15.9 -0.9,-27.2 3.9,2.2 8.7,6.2 8.3,12.4 -0.1,0.9 1.1,1.4 1.8,0.7 4,-4.6 5.5,-8.7 4.4,-12.3 -1,-3.2 -3.9,-5.3 -6.4,-6.5 4.6,-0.2 9.8,1.4 11.3,5.7 0.4,1.1 2,0.8 2,-0.3 0,-0.1 0,-0.3 -0.1,-0.4 C 43.9,11.5 36.6,8.5 27.8,12.3 29.5,8.1 36.2,7.4 40.3,7.4 42.9,7.4 43.7,7.8 44.1,6.9 44.3,6.5 44.1,6 43.7,5.7 34,-1.3 26.8,0.9 23,7 19.5,3 15.9,1 12.4,1 6.5,1 3.1,6.5 2.9,6.8 2.5,7.5 3.2,8.5 4,8.2 10,6.7 14.4,7.6 17.3,11.2 7.3,8.4 1.9,15.5 1,26 l 0,0.2 c -0.1,0.9 1.2,1.5 1.8,0.7 z"
       id="path6" /><path
       inkscape:connector-curvature="0"
       d="M 64,65 C 3.5,64.8 0.7,65.8 2.2,63.5 10.8,49 56.3,49 64.9,63.5 65.2,64.1 64.8,65 64,65 Z"
       id="path8" /></g></svg>