<?xml version="1.0" encoding="UTF-8" standalone="no"?>
<svg
   xmlns:dc="http://purl.org/dc/elements/1.1/"
   xmlns:cc="http://creativecommons.org/ns#"
   xmlns:rdf="http://www.w3.org/1999/02/22-rdf-syntax-ns#"
   xmlns:svg="http://www.w3.org/2000/svg"
   xmlns="http://www.w3.org/2000/svg"
   xmlns:sodipodi="http://sodipodi.sourceforge.net/DTD/sodipodi-0.dtd"
   xmlns:inkscape="http://www.inkscape.org/namespaces/inkscape"
   xml:space="preserve"
   version="1.1"
   style="clip-rule:evenodd;fill-rule:evenodd;image-rendering:optimizeQuality;shape-rendering:geometricPrecision;text-rendering:geometricPrecision"
   viewBox="0 0 32 32"
   x="0px"
   y="0px"
   id="svg2"
   inkscape:version="0.91 r13725"
   sodipodi:docname="2262.svg"
   width="32"
   height="32"><metadata
     id="metadata22"><rdf:RDF><cc:Work
         rdf:about=""><dc:format>image/svg+xml</dc:format><dc:type
           rdf:resource="http://purl.org/dc/dcmitype/StillImage" /><dc:title></dc:title></cc:Work></rdf:RDF></metadata><sodipodi:namedview
     pagecolor="#ffffff"
     bordercolor="#666666"
     borderopacity="1"
     objecttolerance="10"
     gridtolerance="10"
     guidetolerance="10"
     inkscape:pageopacity="0"
     inkscape:pageshadow="2"
     inkscape:window-width="1920"
     inkscape:window-height="1027"
     id="namedview20"
     showgrid="false"
     inkscape:zoom="0.98848168"
     inkscape:cx="-603.51217"
     inkscape:cy="115.32838"
     inkscape:window-x="0"
     inkscape:window-y="0"
     inkscape:window-maximized="1"
     inkscape:current-layer="svg2" /><defs
     id="defs4"><style
       type="text/css"
       id="style6">
   
    .fil0 {fill:black}
    .fil1 {fill:black}
   
  </style></defs><g
     transform="matrix(0.49230769,0,0,0.49230769,-0.2461537,-0.24615446)"
     id="g4"><g
       id="g6"><g
         id="g8"><path
           inkscape:connector-curvature="0"
           d="m 15.4,35.7 c -8.2,0 -14.9,6.7 -14.9,14.9 0,8.2 6.7,14.9 14.9,14.9 8.2,0 14.9,-6.7 14.9,-14.9 0,-8.2 -6.7,-14.9 -14.9,-14.9 z m 0,23.9 c -4.9,0 -8.9,-4 -8.9,-9 0,-4.9 4,-8.9 8.9,-8.9 4.9,0 8.9,4 8.9,8.9 0,4.9 -4,9 -8.9,9 z"
           id="path10" /></g></g><g
       id="g12"><path
         inkscape:connector-curvature="0"
         d="m 34.8,9 -1.6,0 c -1,0 -1.9,0.8 -1.9,1.9 l 0,3.6 -0.9,0 C 30,13 28.6,11.9 27,11.9 l -4.3,0 c -1.6,0 -3,1.1 -3.4,2.6 l -2,0 c -1.6,0 -3,1.3 -3,3 l 0,1.9 c -1.5,0.4 -2.6,1.8 -2.6,3.4 l 0,4.2 c 0,1.6 1.1,3 2.6,3.4 l 0,1.2 -3.6,0 c -1,0 -1.8,0.8 -1.8,1.9 l 0,1.5 c 4,-1.6 8.6,-1.7 12.8,0 l 0,-1.6 c 0,-1 -0.8,-1.9 -1.9,-1.9 l -3.6,0 0,-1.2 c 1.5,-0.4 2.6,-1.8 2.6,-3.4 l 0,-4.2 c 0,-1.6 -1.1,-3 -2.6,-3.4 l 0,-1.9 c 0,-0.5 0.4,-1 1,-1 l 2,0 c 0.4,1.5 1.8,2.6 3.4,2.6 l 4.4,0 c 1.6,0 3,-1.1 3.4,-2.6 l 0.9,0 0,3.6 c 0,1 0.8,1.9 1.9,1.9 l 1.6,0 c -1.7,-4.2 -1.6,-9 0,-12.9 z m -17.9,13.8 0,4.2 c 0,0.5 -0.2,0.9 -0.6,1.2 l 0,-0.5 c 0,-0.5 -0.4,-1 -1,-1 -0.6,0 -1,0.5 -1,1 l 0,0.5 C 14,27.9 13.7,27.5 13.7,27 l 0,-4.2 c 0,-0.5 0.2,-0.9 0.6,-1.2 l 0,0.6 c 0,0.5 0.4,1 1,1 0.6,0 1,-0.5 1,-1 l 0,-0.6 c 0.4,0.3 0.6,0.7 0.6,1.2 z m 11,-6.4 0.3,0 C 27.9,16.8 27.5,17 27,17 l -4.3,0 c -0.5,0 -0.9,-0.2 -1.2,-0.6 l 0.6,0 c 0.5,0 1,-0.4 1,-1 0,-0.6 -0.5,-1 -1,-1 l -0.6,0 c 0.3,-0.4 0.7,-0.6 1.2,-0.6 l 4.3,0 c 0.5,0 0.9,0.2 1.2,0.6 l -0.3,0 c -0.6,0 -1,0.4 -1,1 0,0.6 0.4,1 1,1 z"
         id="path14" /></g><g
       id="g16"><g
         id="g18"><path
           inkscape:connector-curvature="0"
           d="m 50.5,0.5 c -8.3,0 -15,6.7 -15,14.9 0,8.3 6.7,15 15,15 8.3,0 15,-6.7 15,-15 0,-8.2 -6.7,-14.9 -15,-14.9 z m 0,24 c -5,0 -9,-4 -9,-9 0,-5 4,-9 9,-9 5,0 9,4 9,9 0.1,4.9 -4,9 -9,9 z"
           id="path20" /></g></g></g></svg>