<?xml version="1.0" encoding="UTF-8" standalone="no"?>
<svg
   xmlns:dc="http://purl.org/dc/elements/1.1/"
   xmlns:cc="http://creativecommons.org/ns#"
   xmlns:rdf="http://www.w3.org/1999/02/22-rdf-syntax-ns#"
   xmlns:svg="http://www.w3.org/2000/svg"
   xmlns="http://www.w3.org/2000/svg"
   xmlns:sodipodi="http://sodipodi.sourceforge.net/DTD/sodipodi-0.dtd"
   xmlns:inkscape="http://www.inkscape.org/namespaces/inkscape"
   viewBox="0 0 32 32"
   x="0px"
   y="0px"
   version="1.1"
   id="svg14"
   width="32"
   height="32"
   inkscape:version="0.91 r13725"
   sodipodi:docname="2270.svg">
  <sodipodi:namedview
     pagecolor="#ffffff"
     bordercolor="#666666"
     borderopacity="1"
     objecttolerance="10"
     gridtolerance="10"
     guidetolerance="10"
     inkscape:pageopacity="0"
     inkscape:pageshadow="2"
     inkscape:window-width="1920"
     inkscape:window-height="1027"
     id="namedview7"
     showgrid="false"
     inkscape:zoom="4.9166667"
     inkscape:cx="24.40678"
     inkscape:cy="24"
     inkscape:window-x="0"
     inkscape:window-y="0"
     inkscape:window-maximized="1"
     inkscape:current-layer="svg14" />
  <metadata
     id="metadata20">
    <rdf:RDF>
      <cc:Work
         rdf:about="">
        <dc:format>image/svg+xml</dc:format>
        <dc:type
           rdf:resource="http://purl.org/dc/dcmitype/StillImage" />
        <dc:title>Artboard 43</dc:title>
      </cc:Work>
    </rdf:RDF>
  </metadata>
  <defs
     id="defs18" />
  <title
     id="title2">Artboard 43</title>
  <path
     id="path2"
     d="M 11.918367,0 3.265306,0 C 1.469388,0 0,1.469388 0,3.265306 l 0,8.653061 c 0,1.795918 1.469388,3.265306 3.265306,3.265306 l 8.653061,0 c 1.795919,0 3.265306,-1.469388 3.265306,-3.265306 l 0,-8.653061 C 15.183673,1.469388 13.714286,0 11.918367,0 Z m 1.632654,11.918367 c 0,0.89796 -0.734694,1.632653 -1.632654,1.632653 l -8.653061,0 c -0.8979593,0 -1.6326527,-0.734693 -1.6326527,-1.632653 l 0,-8.653061 c 0,-0.8979593 0.7346934,-1.6326527 1.6326527,-1.6326527 l 8.653061,0 c 0.89796,0 1.632654,0.7346934 1.632654,1.6326527 z M 28.734694,0 20.081633,0 c -1.795919,0 -3.265306,1.469388 -3.265306,3.265306 l 0,8.653061 c 0,1.795918 1.469387,3.265306 3.265306,3.265306 l 8.653061,0 C 30.530612,15.183673 32,13.714285 32,11.918367 L 32,3.265306 C 32,1.469388 30.530612,0 28.734694,0 Z m 1.632653,11.918367 c 0,0.89796 -0.734694,1.632653 -1.632653,1.632653 l -8.653061,0 c -0.89796,0 -1.632654,-0.734693 -1.632654,-1.632653 l 0,-8.653061 c 0,-0.8979593 0.734694,-1.6326527 1.632654,-1.6326527 l 8.653061,0 c 0.897959,0 1.632653,0.7346934 1.632653,1.6326527 z m -18.44898,4.89796 -8.653061,0 C 1.469388,16.816327 0,18.285714 0,20.081633 l 0,8.653061 C 0,30.530612 1.469388,32 3.265306,32 l 8.653061,0 c 1.795919,0 3.265306,-1.469388 3.265306,-3.265306 l 0,-8.653061 c 0,-1.795919 -1.469387,-3.265306 -3.265306,-3.265306 z m 1.632654,11.918367 c 0,0.897959 -0.734694,1.632653 -1.632654,1.632653 l -8.653061,0 c -0.8979593,0 -1.6326527,-0.734694 -1.6326527,-1.632653 l 0,-8.653061 c 0,-0.89796 0.7346934,-1.632654 1.6326527,-1.632654 l 8.653061,0 c 0.89796,0 1.632654,0.734694 1.632654,1.632654 z m 15.183673,-11.918367 -8.653061,0 c -1.795919,0 -3.265306,1.469387 -3.265306,3.265306 l 0,8.653061 C 16.816327,30.530612 18.285714,32 20.081633,32 l 8.653061,0 C 30.530612,32 32,30.530612 32,28.734694 l 0,-8.653061 c 0,-1.795919 -1.469388,-3.265306 -3.265306,-3.265306 z m 1.632653,11.918367 c 0,0.897959 -0.734694,1.632653 -1.632653,1.632653 l -8.653061,0 c -0.89796,0 -1.632654,-0.734694 -1.632654,-1.632653 l 0,-8.653061 c 0,-0.89796 0.734694,-1.632654 1.632654,-1.632654 l 8.653061,0 c 0.897959,0 1.632653,0.734694 1.632653,1.632654 z"
     style="fill:#000000;stroke-width:0.6122449"
     inkscape:connector-curvature="0" />
</svg>
