<?xml version="1.0" encoding="UTF-8" standalone="no"?>
<svg
   xmlns:dc="http://purl.org/dc/elements/1.1/"
   xmlns:cc="http://creativecommons.org/ns#"
   xmlns:rdf="http://www.w3.org/1999/02/22-rdf-syntax-ns#"
   xmlns:svg="http://www.w3.org/2000/svg"
   xmlns="http://www.w3.org/2000/svg"
   xmlns:sodipodi="http://sodipodi.sourceforge.net/DTD/sodipodi-0.dtd"
   xmlns:inkscape="http://www.inkscape.org/namespaces/inkscape"
   height="32"
   width="32"
   id="svg14"
   version="1.1"
   y="0px"
   x="0px"
   viewBox="0 0 32 32"
   inkscape:version="0.91 r13725"
   sodipodi:docname="2271.svg">
  <sodipodi:namedview
     pagecolor="#ffffff"
     bordercolor="#666666"
     borderopacity="1"
     objecttolerance="10"
     gridtolerance="10"
     guidetolerance="10"
     inkscape:pageopacity="0"
     inkscape:pageshadow="2"
     inkscape:window-width="1920"
     inkscape:window-height="1027"
     id="namedview7"
     showgrid="false"
     inkscape:zoom="4.9166667"
     inkscape:cx="24.40678"
     inkscape:cy="24"
     inkscape:window-x="0"
     inkscape:window-y="0"
     inkscape:window-maximized="1"
     inkscape:current-layer="svg14" />
  <metadata
     id="metadata20">
    <rdf:RDF>
      <cc:Work
         rdf:about="">
        <dc:format>image/svg+xml</dc:format>
        <dc:type
           rdf:resource="http://purl.org/dc/dcmitype/StillImage" />
        <dc:title>Artboard 43</dc:title>
      </cc:Work>
    </rdf:RDF>
  </metadata>
  <defs
     id="defs18" />
  <title
     id="title2">Artboard 43</title>
  <path
     style="stroke-width:0.75009376"
     id="path2"
     d="M 29.608701,0 2.3922991,0 C 1.0731341,0 0,1.073134 0,2.3922993 L 0,29.608701 C 0,30.927366 1.0731341,32 2.3922991,32 L 29.608701,32 C 30.927366,32 32,30.926866 32,29.608701 L 32,2.3922993 C 32,1.073134 30.927366,0 29.608701,0 Z m -27.2164019,2.00025 27.2164019,0 c 0.216027,0 0.391049,0.176022 0.391049,0.3920493 l 0,6.8568567 -27.9995,0 0,-6.8568567 C 2.00025,2.175772 2.175772,2.00025 2.3922991,2.00025 Z M 2.00025,29.608701 l 0,-18.359295 9.165646,0 0,18.750344 -8.7735969,0 C 2.175772,29.99975 2.00025,29.824728 2.00025,29.608701 Z m 27.608451,0.391049 -16.442555,0 0,-18.750344 16.833604,0 0,18.359295 c 0,0.216027 -0.175022,0.391049 -0.391049,0.391049 z"
     inkscape:connector-curvature="0" />
</svg>
