<?xml version="1.0" encoding="UTF-8" standalone="no"?>
<svg
   xmlns:dc="http://purl.org/dc/elements/1.1/"
   xmlns:cc="http://creativecommons.org/ns#"
   xmlns:rdf="http://www.w3.org/1999/02/22-rdf-syntax-ns#"
   xmlns:svg="http://www.w3.org/2000/svg"
   xmlns="http://www.w3.org/2000/svg"
   xmlns:sodipodi="http://sodipodi.sourceforge.net/DTD/sodipodi-0.dtd"
   xmlns:inkscape="http://www.inkscape.org/namespaces/inkscape"
   height="32"
   width="32"
   id="svg8"
   xml:space="preserve"
   viewBox="0 0 32 32"
   y="0px"
   x="0px"
   version="1.1"
   inkscape:version="0.91 r13725"
   sodipodi:docname="2280.svg"><sodipodi:namedview
     pagecolor="#ffffff"
     bordercolor="#666666"
     borderopacity="1"
     objecttolerance="10"
     gridtolerance="10"
     guidetolerance="10"
     inkscape:pageopacity="0"
     inkscape:pageshadow="2"
     inkscape:window-width="1920"
     inkscape:window-height="1027"
     id="namedview6"
     showgrid="false"
     inkscape:zoom="7.375"
     inkscape:cx="16.271186"
     inkscape:cy="16"
     inkscape:window-x="0"
     inkscape:window-y="0"
     inkscape:window-maximized="1"
     inkscape:current-layer="svg8" /><metadata
     id="metadata14"><rdf:RDF><cc:Work
         rdf:about=""><dc:format>image/svg+xml</dc:format><dc:type
           rdf:resource="http://purl.org/dc/dcmitype/StillImage" /><dc:title></dc:title></cc:Work></rdf:RDF></metadata><defs
     id="defs12" /><path
     d="M 20.502801,13.797875 28.555748,5.7449295 28.7461,12.601261 c 0.0122,0.432766 0.191979,0.821605 0.475474,1.105099 0.305051,0.305051 0.730496,0.489302 1.1958,0.476287 0.898071,-0.02522 1.60579,-0.77361 1.580979,-1.671681 L 31.703471,1.8776935 c -8.14e-4,-0.03905 -0.01098,-0.07525 -0.01464,-0.113073 0,-0.002 -4.07e-4,-0.0045 -4.07e-4,-0.0069 -0.0045,-0.04433 -0.0049,-0.08989 -0.01261,-0.133002 -0.0028,-0.01464 -0.0073,-0.02888 -0.01017,-0.04311 -0.01017,-0.04759 -0.02644,-0.09233 -0.04067,-0.13829 -0.01261,-0.04067 -0.02074,-0.08297 -0.03661,-0.122427 -0.0057,-0.01424 -0.01342,-0.02725 -0.01912,-0.04108 -0.01912,-0.04515 -0.04393,-0.08623 -0.06711,-0.129341 -0.01993,-0.03661 -0.0362,-0.07565 -0.05898,-0.110632 -0.0081,-0.01261 -0.0179,-0.0244 -0.02644,-0.03701 -0.02684,-0.03945 -0.05857,-0.07443 -0.08826,-0.11063203 -0.02888,-0.03457 -0.05491,-0.07118 -0.08623,-0.103311 -0.0053,-0.0053 -0.0085,-0.01139 -0.01383,-0.01708 -0.0053,-0.0053 -0.01179,-0.0085 -0.01708,-0.01383 -0.03173,-0.03091 -0.06711,-0.05654 -0.101277,-0.0846 -0.03701,-0.03091 -0.07281,-0.06304 -0.112665,-0.0907 -0.01261,-0.0085 -0.02441,-0.0179 -0.03701,-0.02644 -0.03417,-0.02196 -0.0724,-0.03823 -0.108192,-0.05776 -0.04352,-0.02359 -0.08582,-0.04881 -0.131782,-0.06833 -0.01383,-0.0061 -0.02684,-0.01342 -0.04067,-0.01871 -0.03864,-0.01546 -0.08053,-0.02359 -0.120801,-0.0362 -0.04637,-0.01464 -0.09152,-0.03091 -0.139917,-0.04108 -0.01423,-0.0028 -0.02847,-0.0077 -0.04271,-0.01017 -0.0423,-0.0077 -0.08623,-0.0081 -0.129341,-0.01261 -0.0033,-4.06e-4 -0.0069,-4.06e-4 -0.01017,-8.13e-4 -0.03823,-0.0037 -0.07443,-0.01383 -0.113072,-0.01464 L 19.490026,6.3347155e-4 C 18.591955,-0.02417653 17.843563,0.68354147 17.818752,1.5820185 c -0.01301,0.465305 0.170829,0.890343 0.47588,1.195395 0.283901,0.283901 0.672333,0.463678 1.105099,0.47588 l 6.856333,0.190352 -8.052947,8.0529455 C 13.745708,8.1593305 7.3811191,8.5140035 3.3312581,12.563863 c -4.440325,4.440326 -4.440325,11.66516 0,16.105892 4.440733,4.440326 11.6655669,4.440326 16.1058929,0 4.048239,-4.049882 4.402505,-10.414471 1.06565,-14.87188 z M 5.6309431,26.368834 c -3.171719,-3.17172 -3.171719,-8.332373 0,-11.504093 3.17172,-3.171719 8.3323729,-3.171719 11.5040929,0 3.171719,3.171313 3.171719,8.332373 0,11.504093 -3.17172,3.171719 -8.3323729,3.171719 -11.5040929,0 z"
     id="path4"
     inkscape:connector-curvature="0" /></svg>