<?xml version="1.0" encoding="UTF-8" standalone="no"?>
<svg
   xmlns:dc="http://purl.org/dc/elements/1.1/"
   xmlns:cc="http://creativecommons.org/ns#"
   xmlns:rdf="http://www.w3.org/1999/02/22-rdf-syntax-ns#"
   xmlns:svg="http://www.w3.org/2000/svg"
   xmlns="http://www.w3.org/2000/svg"
   xmlns:sodipodi="http://sodipodi.sourceforge.net/DTD/sodipodi-0.dtd"
   xmlns:inkscape="http://www.inkscape.org/namespaces/inkscape"
   height="32"
   width="32"
   id="svg8"
   xml:space="preserve"
   viewBox="0 0 32 32"
   y="0px"
   x="0px"
   version="1.1"
   inkscape:version="0.91 r13725"
   sodipodi:docname="2283.svg"><sodipodi:namedview
     pagecolor="#ffffff"
     bordercolor="#666666"
     borderopacity="1"
     objecttolerance="10"
     gridtolerance="10"
     guidetolerance="10"
     inkscape:pageopacity="0"
     inkscape:pageshadow="2"
     inkscape:window-width="1920"
     inkscape:window-height="1027"
     id="namedview6"
     showgrid="false"
     inkscape:zoom="7.375"
     inkscape:cx="16.271186"
     inkscape:cy="16"
     inkscape:window-x="0"
     inkscape:window-y="0"
     inkscape:window-maximized="1"
     inkscape:current-layer="svg8" /><metadata
     id="metadata14"><rdf:RDF><cc:Work
         rdf:about=""><dc:format>image/svg+xml</dc:format><dc:type
           rdf:resource="http://purl.org/dc/dcmitype/StillImage" /><dc:title></dc:title></cc:Work></rdf:RDF></metadata><defs
     id="defs12" /><path
     d="M 16.077771,9.2231127e-4 A 2.8935453,2.8935453 0 0 0 13.11119,2.9008393 a 2.8935453,2.8935453 0 1 0 5.777611,0 2.8935453,2.8935453 0 0 0 -2.81103,-2.89991698873 z M 16.000001,6.1340793 c -1.661761,0 -3.764443,0.464163 -4.477649,2.288823 L 8.4779947,16.189345 c -0.208043,0.592505 0.09636,1.236357 0.688869,1.444402 0.592506,0.208041 1.2363603,-0.09636 1.4444033,-0.688869 l 2.455485,-6.333151 -2.744366,10.855243 2.422153,0 0,9.155292 c 0,0.760403 0.617335,1.377738 1.377738,1.377738 0.760403,0 1.366627,-0.617335 1.366627,-1.377738 l 0,-9.155292 1.022193,0 0,9.155292 c 0,0.760403 0.606224,1.377738 1.366627,1.377738 0.760404,0 1.377738,-0.617335 1.377738,-1.377738 l 0,-9.155292 2.422153,0 -2.744366,-10.855243 2.455485,6.333151 c 0.208043,0.592511 0.851897,0.89691 1.444403,0.688869 0.592506,-0.208045 0.896912,-0.851897 0.688869,-1.444402 L 20.477649,8.4229023 c -0.713206,-1.82466 -2.815888,-2.288823 -4.477648,-2.288823 z"
     style="fill:#000000;fill-opacity:1;fill-rule:evenodd;stroke:none"
     id="path4"
     inkscape:connector-curvature="0" /></svg>