<svg xmlns="http://www.w3.org/2000/svg" width="32" height="32"><path d="M32 25.75q0 1.078-.754 1.833l-3.664 3.663q-.754.754-1.831.754-1.078 0-1.832-.754L16 23.326l-7.92 7.92Q7.328 32 6.25 32q-1.078 0-1.832-.754L.754 27.583Q0 26.828 0 25.75q0-1.078.754-1.832L8.674 16 .753 8.08Q0 7.328 0 6.25q0-1.078.754-1.832L4.418.754Q5.172 0 6.249 0q1.078 0 1.832.754L16 8.674l7.92-7.92Q24.672 0 25.75 0q1.078 0 1.832.754l3.664 3.664Q32 5.172 32 6.249q0 1.078-.754 1.832L23.326 16l7.92 7.92q.754.753.754 1.83z"/></svg>