<svg xmlns="http://www.w3.org/2000/svg" width="32" height="32"><path d="M19.651 25v6q0 .4-.3.7-.3.3-.7.3h-6q-.4 0-.7-.3-.3-.3-.3-.7v-6q0-.4.3-.7.3-.3.7-.3h6q.4 0 .7.3.3.3.3.7zm7.9-15q0 1.35-.387 2.525-.388 1.175-.875 1.913-.488.737-1.375 1.487-.888.75-1.438 1.088-.55.337-1.525.887-1.025.575-1.712 1.625-.688 1.05-.688 1.675 0 .425-.3.812-.3.388-.7.388h-6q-.375 0-.637-.463-.263-.462-.263-.937v-1.125q0-2.075 1.625-3.912 1.625-1.838 3.575-2.713 1.475-.675 2.1-1.4.625-.725.625-1.9 0-1.05-1.162-1.85-1.163-.8-2.688-.8-1.625 0-2.7.725-.875.625-2.675 2.875-.325.4-.775.4-.3 0-.625-.2l-4.1-3.125q-.325-.25-.387-.625-.063-.375.137-.7 4-6.65 11.6-6.65 2 0 4.025.775 2.025.775 3.65 2.075 1.625 1.3 2.65 3.187Q27.551 7.925 27.551 10z"/></svg>