<svg xmlns="http://www.w3.org/2000/svg" width="32" height="32"><path d="M16 32C7.163 32 0 24.837 0 16S7.163 0 16 0s16 7.163 16 16-7.163 16-16 16zm0-28.308C9.204 3.692 3.692 9.204 3.692 16S9.204 28.308 16 28.308c6.798 0 12.308-5.512 12.308-12.308S22.798 3.692 16 3.692zm5.584 16.659-1.248 1.248a.588.588 0 0 1-.83 0l-3.533-3.533L12.44 21.6a.588.588 0 0 1-.831 0l-1.248-1.248a.588.588 0 0 1 0-.831l3.533-3.531-3.533-3.532a.59.59 0 0 1 0-.832l1.248-1.247c.23-.23.6-.23.83 0l3.533 3.532 3.532-3.532c.23-.23.602-.23.831 0l1.248 1.247a.59.59 0 0 1 0 .832l-3.534 3.532 3.534 3.531a.588.588 0 0 1 0 .83z"/></svg>