<svg xmlns="http://www.w3.org/2000/svg" width="32" height="32"><path d="M16 4.667q-3.083 0-5.688 1.52-2.604 1.521-4.125 4.126-1.52 2.604-1.52 5.687t1.52 5.688q1.521 2.604 4.125 4.125 2.605 1.52 5.688 1.52 3.083 0 5.687-1.52 2.605-1.521 4.126-4.125 1.52-2.605 1.52-5.688 0-3.083-1.52-5.687-1.521-2.605-4.126-4.125Q19.083 4.667 16 4.667zM32 16q0 4.354-2.146 8.031-2.146 3.677-5.823 5.823Q20.354 32 16 32q-4.354 0-8.031-2.146-3.677-2.146-5.823-5.823Q0 20.354 0 16q0-4.354 2.146-8.031 2.146-3.677 5.823-5.823Q11.646 0 16 0q4.354 0 8.031 2.146 3.677 2.146 5.823 5.823Q32 11.646 32 16z"/></svg>