<svg xmlns="http://www.w3.org/2000/svg" width="32" height="32"><path d="M7.333 8.667v4.666h-2A2.666 2.666 0 0 0 2.667 16v13.333A2.666 2.666 0 0 0 5.333 32h21.334a2.666 2.666 0 0 0 2.666-2.667V16a2.666 2.666 0 0 0-2.666-2.667h-2V8.667A8.666 8.666 0 0 0 16 0a8.666 8.666 0 0 0-8.667 8.667zm3.334 4.666V8.667A5.332 5.332 0 0 1 16 3.333a5.332 5.332 0 0 1 5.333 5.334v4.666H10.667zm2.666 7.334a2.666 2.666 0 1 1 4.114 2.24s.26 1.573.553 3.426c0 .554-.447 1-1 1h-2c-.553 0-1-.446-1-1l.553-3.426a2.663 2.663 0 0 1-1.22-2.24z"/></svg>