<svg xmlns="http://www.w3.org/2000/svg" width="32" height="32"><path d="M16 0a8.667 8.667 0 0 0-8.667 8.667v4.666h-2A2.666 2.666 0 0 0 2.667 16v13.333A2.666 2.666 0 0 0 5.333 32h21.334a2.666 2.666 0 0 0 2.666-2.667V16a2.666 2.666 0 0 0-2.666-2.667h-16V8.667A5.332 5.332 0 0 1 16 3.333a5.332 5.332 0 0 1 5.333 5.334V9a1.668 1.668 0 0 0 3.334 0v-.333A8.667 8.667 0 0 0 16 0zm0 18a2.666 2.666 0 0 1 1.446 4.906s.261 1.574.554 3.427c0 .553-.447 1-1 1h-2c-.553 0-1-.447-1-1l.554-3.427A2.666 2.666 0 0 1 16 18z"/></svg>