<svg xmlns="http://www.w3.org/2000/svg" width="32" height="32"><path d="M29.714 32H2.286A2.287 2.287 0 0 1 0 29.714v-24A2.287 2.287 0 0 1 2.286 3.43H4.57V4.57a3.428 3.428 0 1 0 6.858 0V3.43h9.142V4.57a3.43 3.43 0 0 0 6.858 0V3.43h2.285A2.287 2.287 0 0 1 32 5.714v24A2.287 2.287 0 0 1 29.714 32zm0-20.571H2.286v18.285h27.428V11.43zM12.65 20.376c.225-.359.339-.738.339-1.135 0-.883-.476-1.325-1.427-1.325-.826 0-1.616.328-2.37.984v-1.862c.834-.54 1.777-.81 2.826-.81.982 0 1.749.246 2.3.739.553.493.828 1.16.828 1.999 0 1.12-.672 2.279-2.016 3.475l-1.976 1.755v.04h3.897v1.754h-6.32v-1.647l2.751-2.632c.553-.53.943-.975 1.168-1.335zm7.735 3.814c.302-.232.453-.556.453-.972 0-.428-.187-.759-.56-.99-.372-.233-.884-.35-1.536-.35h-.864v-1.62h.796c1.25 0 1.876-.415 1.876-1.245 0-.782-.48-1.172-1.44-1.172-.643 0-1.268.208-1.876.623v-1.728c.675-.34 1.46-.508 2.357-.508.982 0 1.746.22 2.294.662a2.11 2.11 0 0 1 .82 1.722c0 1.254-.636 2.04-1.908 2.356v.033c.678.085 1.213.332 1.606.74s.59.91.59 1.502c0 .897-.328 1.607-.984 2.13-.656.522-1.562.784-2.719.784-.99 0-1.796-.162-2.417-.483v-1.841c.642.469 1.393.703 2.25.703.54 0 .96-.115 1.262-.346zm3.58-17.333a2.25 2.25 0 0 1-2.25-2.25V2.25a2.25 2.25 0 1 1 4.5 0v2.357a2.25 2.25 0 0 1-2.25 2.25zm-16 0a2.25 2.25 0 0 1-2.25-2.25V2.25a2.25 2.25 0 1 1 4.5 0v2.357a2.25 2.25 0 0 1-2.25 2.25z"/></svg>