<svg xmlns="http://www.w3.org/2000/svg" width="32" height="32"><path d="M9.883 16q-2.7.083-4.416 2.133H3.233q-1.366 0-2.3-.675Q0 16.783 0 15.483 0 9.6 2.067 9.6q.1 0 .725.35t1.625.708q1 .359 1.983.359 1.117 0 2.217-.384-.084.617-.084 1.1 0 2.317 1.35 4.267zm17.85 10.617q0 2-1.216 3.158-1.217 1.158-3.234 1.158H8.717q-2.017 0-3.234-1.158-1.216-1.158-1.216-3.158 0-.884.058-1.725.058-.842.233-1.817.175-.975.442-1.808.267-.834.717-1.625.45-.792 1.033-1.35.583-.559 1.425-.892.842-.333 1.858-.333.167 0 .717.358.55.358 1.217.8.666.442 1.783.8 1.117.358 2.25.358t2.25-.358q1.117-.358 1.783-.8.667-.441 1.217-.8.55-.359.717-.358 1.016 0 1.858.333.842.333 1.425.892.583.558 1.033 1.35.45.791.717 1.625.266.833.442 1.808.175.975.233 1.817.058.841.058 1.725zM10.667 5.333q0 1.767-1.25 3.017T6.4 9.6q-1.767 0-3.017-1.25t-1.25-3.017q0-1.766 1.25-3.016T6.4 1.067q1.767 0 3.017 1.25t1.25 3.016zm11.733 6.4q0 2.65-1.875 4.525Q18.65 18.133 16 18.133q-2.65 0-4.525-1.875Q9.6 14.383 9.6 11.733q0-2.65 1.875-4.525Q13.35 5.333 16 5.333q2.65 0 4.525 1.875Q22.4 9.083 22.4 11.733zm9.6 3.75q0 1.3-.933 1.975-.934.675-2.3.675h-2.234q-1.716-2.05-4.416-2.133 1.35-1.95 1.35-4.267 0-.483-.084-1.1 1.1.384 2.217.384.983 0 1.983-.359 1-.358 1.625-.708t.725-.35Q32 9.6 32 15.483zm-2.133-10.15q0 1.767-1.25 3.017T25.6 9.6q-1.767 0-3.017-1.25t-1.25-3.017q0-1.766 1.25-3.016t3.017-1.25q1.767 0 3.017 1.25t1.25 3.016z"/></svg>