<svg xmlns="http://www.w3.org/2000/svg" width="32" height="32"><path d="M32 22.286V28q0 .714-.5 1.214t-1.214.5H24.57q-.714 0-1.214-.5t-.5-1.214v-5.714q0-.715.5-1.215.5-.5 1.214-.5h1.715v-3.428h-9.143v3.428h1.714q.714 0 1.214.5t.5 1.215V28q0 .714-.5 1.214t-1.214.5h-5.714q-.714 0-1.214-.5t-.5-1.214v-5.714q0-.715.5-1.215.5-.5 1.214-.5h1.714v-3.428H5.714v3.428H7.43q.714 0 1.214.5t.5 1.215V28q0 .714-.5 1.214t-1.214.5H1.714q-.714 0-1.214-.5T0 28v-5.714q0-.715.5-1.215.5-.5 1.214-.5H3.43v-3.428q0-.929.678-1.607.679-.679 1.607-.679h9.143V11.43h-1.714q-.714 0-1.214-.5t-.5-1.215V4q0-.714.5-1.214t1.214-.5h5.714q.714 0 1.214.5t.5 1.214v5.714q0 .715-.5 1.215-.5.5-1.214.5h-1.714v3.428h9.143q.928 0 1.607.679.678.678.678 1.607v3.428h1.715q.714 0 1.214.5t.5 1.215z"/></svg>