<svg xmlns="http://www.w3.org/2000/svg" width="32" height="32"><path d="M30.77 17.23q0 3-1.174 5.732-1.173 2.73-3.154 4.711-1.98 1.98-4.711 3.154Q19 32 16 32t-5.73-1.173q-2.732-1.173-4.712-3.154-1.981-1.98-3.154-4.711Q1.23 20.23 1.23 17.23q0-3.5 1.548-6.596 1.548-3.097 4.356-5.193.826-.615 1.836-.48 1.01.134 1.606.961.615.808.471 1.817-.144 1.01-.952 1.625-1.885 1.423-2.913 3.481-1.03 2.058-1.03 4.385 0 2 .78 3.817.779 1.817 2.105 3.144 1.327 1.327 3.145 2.106 1.817.779 3.817.779t3.817-.779q1.818-.779 3.145-2.106 1.326-1.327 2.105-3.144.78-1.817.78-3.817 0-2.327-1.03-4.385-1.028-2.058-2.913-3.48-.808-.616-.952-1.626-.144-1.01.471-1.817.596-.827 1.615-.962 1.02-.134 1.827.481 2.808 2.096 4.356 5.193 1.548 3.096 1.548 6.596zM18.46 2.463v12.307q0 1-.73 1.731-.731.73-1.731.73t-1.73-.73q-.732-.73-.732-1.73V2.461q0-1 .731-1.731Q15 0 16 0 17 0 17.732.73q.73.731.73 1.732z"/></svg>