<svg xmlns="http://www.w3.org/2000/svg" width="32" height="32"><path d="M10.667 10.667q0 1.333-.934 2.266-.933.934-2.266.934-1.334 0-2.267-.934-.933-.933-.933-2.266 0-1.334.933-2.267.933-.933 2.267-.933 1.333 0 2.266.933.934.933.934 2.267zm17.066 6.4v7.466H4.267v-3.2L9.6 16l2.667 2.667 8.533-8.534zm1.6-11.734H2.667q-.217 0-.375.159-.159.158-.159.375v20.266q0 .217.159.375.158.159.375.159h26.666q.217 0 .375-.159.159-.158.159-.375V5.867q0-.217-.159-.375-.158-.159-.375-.159zM32 5.867v20.266q0 1.1-.783 1.884-.784.783-1.884.783H2.667q-1.1 0-1.884-.783Q0 27.233 0 26.133V5.867q0-1.1.783-1.884.784-.783 1.884-.783h26.666q1.1 0 1.884.783.783.784.783 1.884z"/></svg>