<svg xmlns="http://www.w3.org/2000/svg" width="32" height="32"><path d="M27.314 4.686A15.896 15.896 0 0 1 32 16c0 4.274-1.664 8.292-4.686 11.314A15.896 15.896 0 0 1 16 32a15.896 15.896 0 0 1-11.314-4.686A15.896 15.896 0 0 1 0 16c0-4.274 1.664-8.292 4.686-11.314A15.895 15.895 0 0 1 16 0c4.274 0 8.292 1.664 11.314 4.686zM25.899 25.9a13.904 13.904 0 0 0 3.821-7.096c-.42.62-.823.85-1.073-.538-.257-2.262-2.334-.817-3.64-1.62-1.376.926-4.467-1.802-3.941 1.275.81 1.388 4.375-1.858 2.598 1.08-1.134 2.05-4.145 6.591-3.753 8.945.05 3.43-3.505.715-4.729-.422-.824-2.279-.28-6.262-2.434-7.378-2.338-.101-4.344-.314-5.25-2.927-.545-1.87.58-4.653 2.584-5.083 2.932-1.842 3.98 2.158 6.73 2.233.855-.894 3.182-1.178 3.375-2.18-1.804-.318 2.29-1.517-.172-2.2-1.359.16-2.234 1.41-1.512 2.468-2.632.614-2.717-3.81-5.247-2.414-.064 2.206-4.132.715-1.408.268.937-.41-1.526-1.595-.196-1.38.654-.034 2.854-.806 2.259-1.324 1.225-.761 2.255 1.821 3.454-.06.866-1.445-.363-1.712-1.448-.98-.612-.684 1.08-2.164 2.573-2.803.497-.214.972-.33 1.335-.297.752.869 2.143 1.02 2.215-.104A13.948 13.948 0 0 0 16 2c-3.05 0-5.952.97-8.353 2.762.645.296 1.011.664.39 1.134-.483 1.44-2.443 3.372-4.164 3.098a13.847 13.847 0 0 0-1.733 5.017c1.441.476 1.773 1.42 1.464 1.736-.734.64-1.186 1.547-1.418 2.54A13.897 13.897 0 0 0 6.1 25.9 13.908 13.908 0 0 0 16 30c3.74 0 7.255-1.456 9.9-4.1z"/></svg>