<svg xmlns="http://www.w3.org/2000/svg" width="32" height="32"><path d="M29.156 2.844H22.52c-1.565 0-3.75.905-4.856 2.011L6.518 16.002a2.853 2.853 0 0 0 0 4.022l8.302 8.302a2.852 2.852 0 0 0 4.022 0L29.99 17.18C31.095 16.074 32 13.889 32 12.325V5.688a2.852 2.852 0 0 0-2.844-2.844zm-3.792 9.48a2.844 2.844 0 1 1 0-5.688 2.844 2.844 0 0 1 0 5.689zm-23.031 6.36 10.143 10.143a2.855 2.855 0 0 1-3.344-.5L.83 20.023a2.853 2.853 0 0 1 0-4.022L11.976 4.855c1.106-1.106 3.291-2.01 4.855-2.01L2.333 17.341a.95.95 0 0 0 0 1.341z"/></svg>