<svg xmlns="http://www.w3.org/2000/svg" width="32" height="32"><path d="M16 4.571q-3.643 0-6.812 1.241-3.17 1.241-5.036 3.349-1.866 2.107-1.866 4.553 0 2 1.277 3.813 1.276 1.812 3.598 3.134l1.553.892-.482 1.715q-.428 1.625-1.25 3.071 2.714-1.125 4.91-3.053l.769-.679 1.018.107q1.232.143 2.321.143 3.643 0 6.812-1.241 3.17-1.241 5.036-3.348 1.866-2.107 1.866-4.554 0-2.446-1.866-4.553-1.866-2.107-5.036-3.349-3.17-1.24-6.812-1.24zm16 9.143q0 3.107-2.143 5.741-2.143 2.634-5.821 4.16-3.679 1.528-8.036 1.528-1.25 0-2.59-.143-3.535 3.125-8.214 4.321-.875.25-2.035.393h-.09q-.267 0-.482-.187-.214-.188-.285-.491v-.018q-.054-.072-.01-.214.045-.143.036-.179-.008-.036.08-.17l.108-.16.125-.152q.125-.152.143-.16.125-.144.553-.617l.616-.678q.188-.206.554-.706.366-.5.58-.91.215-.411.482-1.054.268-.643.465-1.357-2.804-1.59-4.42-3.929Q0 16.392 0 13.714q0-3.107 2.143-5.74 2.143-2.635 5.821-4.161Q11.643 2.286 16 2.286q4.357 0 8.036 1.527 3.678 1.526 5.821 4.16Q32 10.607 32 13.714z"/></svg>