<svg xmlns="http://www.w3.org/2000/svg" width="32" height="32"><path d="M32 13.711q0 3.108-2.143 5.741-2.143 2.634-5.821 4.161Q20.357 25.14 16 25.14q-1.25 0-2.59-.143-3.535 3.125-8.214 4.322-.875.25-2.035.392-.304.036-.545-.16-.241-.197-.312-.518v-.018q-.054-.071-.01-.214.045-.143.036-.179-.008-.035.08-.17l.108-.16.125-.152q.125-.152.143-.16.125-.143.553-.617l.616-.678q.188-.206.554-.706.366-.5.58-.91.215-.41.482-1.054.268-.643.465-1.357-2.804-1.59-4.42-3.929Q0 16.39 0 13.712q0-2.322 1.268-4.438 1.268-2.116 3.41-3.652 2.143-1.535 5.108-2.437Q12.75 2.283 16 2.283q4.357 0 8.036 1.527 3.678 1.527 5.821 4.16Q32 10.605 32 13.713z"/></svg>