<svg xmlns="http://www.w3.org/2000/svg" width="32" height="32"><path d="M22.781 16C27.086 13.27 30 8.025 30 2c0-.677-.037-1.345-.109-2H2.11A18.42 18.42 0 0 0 2 2c0 6.025 2.914 11.27 7.219 14C4.914 18.73 2 23.975 2 30c0 .677.037 1.345.109 2H29.89c.072-.655.109-1.323.109-2 0-6.025-2.914-11.27-7.219-14zM5 30c0-5.841 2.505-10.794 7-12.428v-3.144C7.505 12.794 5 7.841 5 2h22c0 5.841-2.505 10.794-7 12.428v3.144c4.495 1.634 7 6.587 7 12.428H5zm14.363-9.075c-2.239-1.27-2.362-2.918-2.363-3.918V15c0-1 .119-2.654 2.367-3.927C20.57 10.374 21.611 9.313 22.4 8H9.6c.79 1.313 1.832 2.376 3.037 3.075 2.239 1.27 2.362 2.918 2.363 3.918V17c0 1-.119 2.654-2.367 3.927-2.27 1.318-3.96 3.928-4.471 7.073h15.677c-.512-3.147-2.204-5.758-4.476-7.075z"/></svg>