<svg xmlns="http://www.w3.org/2000/svg" width="32" height="32"><path d="M31.414.586a2 2 0 0 0-2.828 0l-7.5 7.5L19 6l-4 3.476L.797 13.798A1.124 1.124 0 0 0 0 14.874v1c0 4.307 1.677 8.357 4.723 11.402A16.023 16.023 0 0 0 16.125 32h1c.495 0 .932-.324 1.076-.797L22.524 17 26 13l-2.086-2.086 7.5-7.5a2 2 0 0 0 0-2.828zM16.291 29.75h-.166c-1.663 0-3.28-.29-4.797-.849L16 18.001l-7.75 9.3a14.009 14.009 0 0 1-3.55-3.55l9.3-7.75-10.9 4.671a13.886 13.886 0 0 1-.85-4.797v-.166l14.553-4.429 3.918 3.918-4.429 14.553z" style="fill:#000"/></svg>