<svg xmlns="http://www.w3.org/2000/svg" width="32" height="32"><path d="M74.4 28.7c.7 0 1.4-.3 2-.9l10.2-10.2c1.2-1.2 1.2-2.9 0-4s-2.9-1.2-4 0L72.4 23.8c-1.2 1.2-1.2 2.9 0 4 .6.7 1.3.9 2 .9z" class="st0" style="fill:#050505" transform="matrix(.34874 0 0 .34874 -1.444 -1.417)"/><path d="M-3.5 65.3h69.2v7.2H-3.5z" class="st0" style="fill:#050505" transform="scale(-.34873) rotate(-45 -159.24 72.24)"/><path d="M47.9 13.6c-1.2-1.2-2.9-1.2-4 0-1.2 1.2-1.2 2.9 0 4l10.2 10.2c.6.6 1.3.9 2 .9s1.4-.3 2-.9c1.2-1.2 1.2-2.9 0-4L47.9 13.6ZM76.4 42.1c-1.2-1.2-2.9-1.2-4 0-1.2 1.2-1.2 2.9 0 4l10.2 10.2c.6.6 1.3.9 2 .9s1.4-.3 2-.9c1.2-1.2 1.2-2.9 0-4L76.4 42.1ZM65.6 4.1c-1.6 0-2.9 1.3-2.9 2.9v14.4c0 1.6 1.3 2.9 2.9 2.9 1.6 0 2.9-1.3 2.9-2.9V7c0-1.6-1.3-2.9-2.9-2.9zM65.6 44.4c-1.6 0-2.9 1.3-2.9 2.9v14.4c0 1.6 1.3 2.9 2.9 2.9 1.6 0 2.9-1.3 2.9-2.9V47.3c0-1.6-1.3-2.9-2.9-2.9zM93 31.5H78.6c-1.6 0-2.9 1.3-2.9 2.9 0 1.6 1.3 2.9 2.9 2.9H93c1.6 0 2.9-1.3 2.9-2.9 0-1.6-1.3-2.9-2.9-2.9zM38.3 37.2h14.4c1.6 0 2.9-1.3 2.9-2.9 0-1.6-1.3-2.9-2.9-2.9H38.3c-1.6 0-2.9 1.3-2.9 2.9 0 1.6 1.3 2.9 2.9 2.9z" class="st0" style="fill:#050505" transform="matrix(.34874 0 0 .34874 -1.444 -1.417)"/></svg>