<svg xmlns="http://www.w3.org/2000/svg" width="32" height="32"><path d="M21.333 16q0-2.208-1.562-3.77-1.563-1.563-3.77-1.563-2.21 0-3.772 1.562-1.562 1.563-1.562 3.771t1.562 3.77q1.563 1.563 3.771 1.563t3.77-1.562q1.563-1.563 1.563-3.771zM32 13.73v4.624q0 .25-.167.48-.166.229-.416.27l-3.854.584q-.396 1.125-.813 1.895.73 1.042 2.23 2.875.207.25.207.521t-.187.48q-.563.77-2.063 2.25-1.5 1.479-1.958 1.479-.25 0-.542-.188l-2.875-2.25q-.916.48-1.895.792-.334 2.833-.605 3.875-.145.583-.75.583h-4.625q-.291 0-.51-.177-.219-.177-.24-.448l-.583-3.833q-1.02-.334-1.875-.771L7.542 29q-.209.188-.521.188-.292 0-.521-.23-2.625-2.375-3.438-3.5-.145-.208-.145-.479 0-.25.166-.48.313-.437 1.063-1.384.75-.948 1.125-1.47-.563-1.04-.854-2.062l-3.813-.562q-.27-.042-.437-.26Q0 18.54 0 18.27v-4.625q0-.25.167-.48.166-.229.395-.27l3.875-.584q.292-.958.813-1.916-.833-1.188-2.23-2.875-.208-.25-.208-.5 0-.208.188-.48.542-.75 2.052-2.239 1.51-1.49 1.969-1.49.27 0 .541.209l2.875 2.229q.917-.48 1.896-.792.334-2.833.604-3.875.146-.583.75-.583h4.625q.292 0 .51.177.22.177.24.448l.584 3.833q1.02.334 1.875.771L24.479 3q.188-.188.5-.188.271 0 .521.209 2.688 2.479 3.437 3.541.146.167.146.459 0 .25-.166.479-.313.438-1.063 1.385-.75.948-1.125 1.47.542 1.04.854 2.04l3.813.584q.27.042.437.26.167.22.167.49z"/></svg>