<svg xmlns="http://www.w3.org/2000/svg" width="32" height="32"><path d="M16 0C7.163 0 0 2.239 0 5v3l12 12v10c0 1.105 1.79 2 4 2s4-.895 4-2V20L32 8V5c0-2.761-7.163-5-16-5zM2.95 4.338c.748-.427 1.799-.832 3.04-1.171C8.737 2.414 12.292 2 16 2s7.262.414 10.01 1.167c1.241.34 2.292.744 3.04 1.171.494.282.76.52.885.662-.124.142-.391.38-.884.662-.749.427-1.8.832-3.04 1.171C23.262 7.586 19.707 8 16 8c-3.707 0-7.262-.414-10.01-1.167-1.241-.34-2.292-.744-3.04-1.171-.494-.282-.76-.52-.885-.662.124-.142.391-.38.885-.662z"/></svg>