<svg xmlns="http://www.w3.org/2000/svg" width="32" height="32"><path d="m4.634 16.868 4.633-4.633H6.552c.024-.068.05-.135.075-.202 1.611-4.08 5.59-6.966 10.24-6.966 6.078 0 11.005 4.927 11.005 11.004 0 6.078-4.927 11.006-11.005 11.006-4.47 0-8.317-2.667-10.04-6.494-.016-.035-.026-.075-.043-.112l-2.95 2.932c.02.034.033.073.053.11l.014.022c2.604 4.499 7.47 7.524 13.04 7.524C25.259 31.06 32 24.317 32 16.001 32 7.685 25.257.941 16.94.941 9.989.94 4.139 5.65 2.406 12.055c-.017.059-.023.121-.037.18H0l4.634 4.633z"/></svg>