<svg xmlns="http://www.w3.org/2000/svg" width="32" height="32"><path d="M31.48 19.333q0 .104-.022.146-1.333 5.583-5.583 9.052Q21.625 32 15.917 32q-3.042 0-5.886-1.146-2.844-1.146-5.073-3.27L2.271 30.27q-.396.396-.938.396-.541 0-.937-.396T0 29.333V20q0-.542.396-.937.396-.396.937-.396h9.334q.541 0 .937.396.396.395.396.937t-.396.938L8.75 23.792q1.48 1.375 3.354 2.125 1.875.75 3.896.75 2.792 0 5.208-1.355 2.417-1.354 3.875-3.729.23-.354 1.104-2.437.167-.48.625-.48h4q.271 0 .47.199.197.198.197.468zM32 2.667V12q0 .542-.396.937-.396.396-.937.396h-9.334q-.541 0-.937-.396Q20 12.542 20 12t.396-.938l2.875-2.875Q20.188 5.333 16 5.333q-2.792 0-5.208 1.354-2.417 1.355-3.875 3.73-.23.354-1.104 2.437-.167.48-.625.48H1.042q-.271 0-.47-.199-.197-.198-.197-.468v-.146Q1.729 6.938 6 3.469 10.27 0 16 0q3.042 0 5.917 1.156t5.104 3.26l2.708-2.687q.396-.396.938-.396.541 0 .937.396t.396.938z"/></svg>