<svg xmlns="http://www.w3.org/2000/svg" width="32" height="32"><path d="m22.826 25.747 3.71-4.996 4.359-4.164s-1.452-1.732-3.248-1.732c-.807 0-1.545.23-2.22.692-.671.46-1.283 1.152-1.835 2.076-.771.27-1.372.527-1.803.771-.096-.96-.211-1.672-.345-2.132l2.503-9.717c.593-2.342.735-3.526-.676-4.153-1.41-.627-2.853 1.102-3.595 3.307l-2.374 7.503.071-9.65c0-2.368-.747-3.552-2.242-3.552-1.51 0-2.264 1.05-2.264 3.148v9.646l-2.428-8.45C9.837 2.85 8.777 1.377 7.366 1.847c-1.41.47-1.344 2.792-.953 4.278l2.164 8.238-3.49-5.762C4.02 6.75 2.18 6.394 1.764 6.825 1.1 7.513.656 8.978 1.86 11.08l3.848 6.701 3.437 11.904V32h10.033v-2.983c1.165-.8 2.172-1.89 3.648-3.27z"/></svg>