<svg xmlns="http://www.w3.org/2000/svg" width="32" height="32"><path d="M29.714 25.714V12q-.571.643-1.232 1.179-4.786 3.678-7.607 6.035-.91.768-1.482 1.197-.572.428-1.545.866-.973.437-1.83.437h-.036q-.857 0-1.83-.437-.973-.438-1.545-.866-.571-.429-1.482-1.197-2.822-2.357-7.607-6.035-.661-.536-1.232-1.179v13.714q0 .232.17.402.169.17.401.17h26.286q.232 0 .402-.17t.17-.402zm0-18.768V6.51l-.009-.232q-.009-.232-.053-.223-.045.009-.098-.161-.054-.17-.161-.134-.107.036-.25-.045H2.857q-.232 0-.402.17t-.17.402q0 3 2.626 5.071 3.446 2.714 7.16 5.66l.625.528q.518.437.822.67.303.231.794.562.492.33.902.49.411.162.768.162h.036q.357 0 .768-.161.41-.16.901-.491.492-.33.795-.563.304-.232.822-.67.517-.437.625-.526 3.714-2.947 7.16-5.66.965-.769 1.795-2.063.83-1.295.83-2.349zM32 6.286v19.428q0 1.179-.84 2.018-.839.84-2.017.84H2.857q-1.178 0-2.018-.84Q0 26.892 0 25.714V6.286q0-1.179.84-2.018.839-.84 2.017-.84h26.286q1.178 0 2.018.84.839.84.839 2.018z"/></svg>