<svg xmlns="http://www.w3.org/2000/svg" width="32" height="32"><path d="M6.857 22.286v1.143q0 .232-.17.401-.17.17-.401.17H5.143q-.232 0-.402-.17t-.17-.401v-1.143q0-.232.17-.402t.402-.17h1.143q.232 0 .402.17t.17.402zm0-4.572v1.143q0 .232-.17.402t-.401.17H5.143q-.232 0-.402-.17t-.17-.402v-1.143q0-.232.17-.401.17-.17.402-.17h1.143q.232 0 .402.17t.17.401zm0-4.571v1.143q0 .232-.17.401-.17.17-.401.17H5.143q-.232 0-.402-.17t-.17-.401v-1.143q0-.232.17-.402t.402-.17h1.143q.232 0 .402.17t.17.402zm20.572 9.143v1.143q0 .232-.17.401-.17.17-.402.17H9.714q-.232 0-.401-.17-.17-.17-.17-.401v-1.143q0-.232.17-.402t.401-.17h17.143q.232 0 .402.17t.17.402zm0-4.572v1.143q0 .232-.17.402t-.402.17H9.714q-.232 0-.401-.17-.17-.17-.17-.402v-1.143q0-.232.17-.401.17-.17.401-.17h17.143q.232 0 .402.17t.17.401zm0-4.571v1.143q0 .232-.17.401-.17.17-.402.17H9.714q-.232 0-.401-.17-.17-.17-.17-.401v-1.143q0-.232.17-.402t.401-.17h17.143q.232 0 .402.17t.17.402zm2.285 12.571V10.857q0-.232-.17-.402-.169-.17-.401-.17H2.857q-.232 0-.402.17t-.17.402v14.857q0 .232.17.402t.402.17h26.286q.232 0 .402-.17t.17-.402zM32 6.286v19.428q0 1.179-.84 2.018-.839.84-2.017.84H2.857q-1.178 0-2.018-.84Q0 26.892 0 25.714V6.286q0-1.179.84-2.018.839-.84 2.017-.84h26.286q1.178 0 2.018.84.839.84.839 2.018z"/></svg>