<svg xmlns="http://www.w3.org/2000/svg" width="32" height="32"><path d="M31.568 28.618 14.423 13.01l.798-.8a3.66 3.66 0 0 0 1.06-2.363c.031-.014.063-.03.092-.045l3.219-2.013a1.354 1.354 0 0 0-.071-1.797L13.923.38a1.345 1.345 0 0 0-1.792-.072l-2.007 3.227c-.017.03-.031.062-.045.093a3.64 3.64 0 0 0-2.357 1.063L4.678 7.744a3.659 3.659 0 0 0-1.06 2.363 1.472 1.472 0 0 0-.093.045L.307 12.164a1.354 1.354 0 0 0 .071 1.797l5.598 5.613a1.344 1.344 0 0 0 1.792.07l2.007-3.226c.016-.03.03-.061.045-.093a3.638 3.638 0 0 0 2.356-1.063l.884-.887 15.567 17.191c.45.499 1.146.579 1.546.179l1.573-1.578c.4-.4.319-1.098-.178-1.55z"/></svg>