<svg xmlns="http://www.w3.org/2000/svg" width="32" height="32"><path d="M23.112 32h-5.348a6.417 6.417 0 0 1-6.417-6.417v-9.627h6.485v2.14c0 1.18.89 2.138 2.072 2.138h1.07c1.182 0 2.139-.958 2.139-2.138v-2.14h6.484v9.627c0 3.544-2.941 6.417-6.485 6.417zm0-18.183a2.14 2.14 0 0 0-2.14-2.14v-6.35s-1.403-.067 2.073-.067 6.552 2.272 6.552 6.417v3.142h-6.485v-1.002zM19.98 4.535c0-2.067-.973-3.218-2.922-3.218-2.061 0-3.638 1.485-4.73 4.453l-.225.609c-1.278 3.47-3.151 5.207-5.617 5.207-.996 0-1.925-.38-2.788-1.137-.864-.76-1.296-1.573-1.296-2.446 0-.431.202-.648.608-.648.273 0 .556.345.846 1.032.528 1.27 1.41 1.906 2.644 1.906.935 0 1.699-.302 2.294-.907.596-.604 1.273-1.766 2.03-3.486l.49-1.085C12.75 1.605 14.686 0 17.117 0c2.786 0 4.18 1.59 4.18 4.535H19.98zm2.06 9.816v3.208a1.604 1.604 0 1 1-3.207 0v-3.208a1.605 1.605 0 1 1 3.208 0zm-4.21-9.091c3.475 0 2.138.066 2.138.066v6.351a2.139 2.139 0 0 0-2.139 2.14v1.003h-6.485v-3.142c0-4.146 3.01-6.418 6.485-6.418z"/></svg>