<svg xmlns="http://www.w3.org/2000/svg" width="32" height="32"><path d="M32 11.987c0-.727-.6-1.32-1.333-1.32-.367 0-.7.147-.94.386L24 15.981v-3.994c0-.727-.6-1.32-1.333-1.32-.367 0-.7.147-.94.386L16 15.981v-3.994c0-.727-.6-1.32-1.333-1.32-.367 0-.7.147-.94.386L7.94 16.027 6.667 1.467C6.667.653 6.013 0 5.2 0H2.8c-.813 0-1.467.653-1.467 1.467L0 29.333A2.666 2.666 0 0 0 2.667 32h26.666A2.666 2.666 0 0 0 32 29.333V11.987zM12.667 20.58v1.507a1.25 1.25 0 0 1-1.247 1.246H9.913a1.25 1.25 0 0 1-1.246-1.246V20.58c0-.687.56-1.247 1.246-1.247h1.507c.687 0 1.247.56 1.247 1.247zm8 0v1.507a1.25 1.25 0 0 1-1.247 1.246h-1.507a1.25 1.25 0 0 1-1.246-1.246V20.58c0-.687.56-1.247 1.246-1.247h1.507c.687 0 1.247.56 1.247 1.247zm8 0v1.507a1.25 1.25 0 0 1-1.247 1.246h-1.507a1.25 1.25 0 0 1-1.246-1.246V20.58c0-.687.56-1.247 1.246-1.247h1.507c.687 0 1.247.56 1.247 1.247z"/></svg>