<svg xmlns="http://www.w3.org/2000/svg" width="32" height="32"><path d="m20.542.48-5.874 5.866-2.54-2.533a1.633 1.633 0 0 0-2.313 0c-.64.64-.64 1.673 0 2.313l.36.36-2.84 2.847c-3.666 3.666-4.42 9.073-1.773 13.36L.775 27.478a2.65 2.65 0 0 0 0 3.745 2.641 2.641 0 0 0 3.74 0L9.3 26.432c4.3 2.666 9.694 1.906 13.366-1.767l2.84-2.846.367.367c.64.64 1.672.64 2.312 0 .641-.64.641-1.674 0-2.313l-2.873-2.874 6.207-6.206c.64-.64.64-1.674 0-2.314a1.633 1.633 0 0 0-2.313 0L23 14.68l-6.02-6.013 5.874-5.873c.64-.64.64-1.673 0-2.313a1.632 1.632 0 0 0-2.312 0z"/></svg>