<svg xmlns="http://www.w3.org/2000/svg" width="32" height="32"><path d="M21.125 0c-.674 0-1.358.265-1.875.781l-7.906 7.907L9.656 7l-6.031 6.031a3.315 3.315 0 0 0-.969 2.375v7.938L.781 25.25a2.656 2.656 0 0 0 0 3.75L3 31.219a2.655 2.655 0 0 0 3.75 0l1.906-1.875h7.938a3.297 3.297 0 0 0 2.375-.969L25 22.344l-1.688-1.688 7.907-7.906a2.656 2.656 0 0 0 0-3.75L23 .781A2.654 2.654 0 0 0 21.125 0zM19.75 5.344c.427-.084.886.072 1.219.406l.625.625a1.336 1.336 0 0 1 0 1.906l-.625.656a1.373 1.373 0 0 1-1.938 0l-.625-.656a1.336 1.336 0 0 1 0-1.906l.625-.625c.2-.2.463-.356.719-.406zM24.656 10c.347 0 .703.14.969.406l.625.625a1.373 1.373 0 0 1 0 1.938l-.625.625a1.336 1.336 0 0 1-1.906 0l-.657-.625a1.373 1.373 0 0 1 0-1.938l.657-.625c.266-.267.59-.406.937-.406z"/></svg>