<svg xmlns="http://www.w3.org/2000/svg" width="32" height="32"><path d="M9.549 10.191c1.22 0 1.524.61 2.336.508.813-.102.102-1.524-.609-2.54-.711-1.015-2.336-.507-3.556.204-1.218.711-7.694 4.648-7.694 4.648h5.663s2.64-2.82 3.86-2.82zM0 13.746v9.245c0 .785.636 1.422 1.422 1.422H12.86c1.068 0 2.044-3.319 3.141-3.319.952 0 1.668 3.319 2.607 3.319h11.97c.786 0 1.423-.637 1.423-1.422v-9.245H0zm12.8 6.4a2.134 2.134 0 0 1-2.133 2.134h-6.4a2.134 2.134 0 0 1-2.134-2.133v-2.133c0-1.179.955-2.134 2.134-2.134h6.4c1.177 0 2.133.955 2.133 2.134v2.133zm17.067 0a2.134 2.134 0 0 1-2.134 2.134h-6.4a2.134 2.134 0 0 1-2.133-2.133v-2.133c0-1.179.955-2.134 2.133-2.134h6.4c1.178 0 2.134.955 2.134 2.134v2.133zM20.114 10.7c.813.102 1.117-.508 2.336-.508 1.22 0 3.861 2.82 3.861 2.82h5.663s-6.476-3.937-7.695-4.649c-1.22-.71-2.844-1.218-3.555-.203-.711 1.016-1.422 2.438-.61 2.54z"/></svg>