<svg xmlns="http://www.w3.org/2000/svg" width="32" height="32"><path d="M4.696 4.69A15.941 15.941 0 0 0 0 16c0 4.418 1.799 8.413 4.696 11.31l1.52-1.508C3.677 23.305 2.089 19.833 2.089 16c0-3.837 1.583-7.308 4.129-9.802L4.696 4.69zm22.633 0-1.715 1.702c2.435 2.478 3.948 5.87 3.948 9.608a13.69 13.69 0 0 1-3.935 9.608l1.702 1.702A15.94 15.94 0 0 0 32 16c0-4.418-1.778-8.417-4.671-11.31zM7.509 7.502A11.843 11.843 0 0 0 3.934 16c0 3.328 1.365 6.337 3.573 8.498l1.678-1.666A9.526 9.526 0 0 1 6.289 16c0-2.679 1.113-5.1 2.897-6.832L7.508 7.502zm16.802.193-1.666 1.666a9.487 9.487 0 0 1 .012 13.278l1.654 1.654a11.85 11.85 0 0 0 0-16.598zM10.357 10.34A7.854 7.854 0 0 0 7.955 16c0 2.218.92 4.215 2.402 5.65l1.666-1.667A5.508 5.508 0 0 1 10.309 16c0-1.57.66-2.994 1.714-3.995l-1.666-1.666zm11.117.205-1.678 1.666A5.462 5.462 0 0 1 21.33 16a5.5 5.5 0 0 1-1.509 3.802l1.654 1.654A7.816 7.816 0 0 0 23.695 16c0-2.122-.847-4.04-2.22-5.456zm-5.468 2.837A2.623 2.623 0 0 0 13.386 16a2.613 2.613 0 0 0 2.62 2.607A2.602 2.602 0 0 0 18.613 16a2.613 2.613 0 0 0-2.607-2.62z" style="fill:#000"/></svg>