<svg xmlns="http://www.w3.org/2000/svg" width="32" height="32"><path d="m28.658 15.998 2.874 2.81q.624.584.416 1.458-.25.854-1.083 1.062l-3.914 1 1.104 3.872q.25.853-.396 1.457-.604.645-1.457.396l-3.873-1.104-1 3.914q-.207.833-1.061 1.083-.25.042-.396.042-.645 0-1.061-.458L16 28.657l-2.81 2.873q-.584.625-1.458.416-.854-.229-1.062-1.082l-1-3.914-3.872 1.103q-.853.25-1.457-.395-.646-.604-.396-1.458l1.104-3.872-3.914-1Q.302 21.12.052 20.267q-.208-.875.416-1.458L3.342 16 .468 13.187q-.624-.583-.416-1.458.25-.853 1.083-1.061l3.914-1-1.104-3.872q-.25-.854.396-1.458.604-.645 1.457-.395l3.873 1.103 1-3.914Q10.877.28 11.73.071q.855-.25 1.458.396L16 3.36 18.81.467q.604-.625 1.458-.396.854.209 1.062 1.062l1 3.914 3.872-1.103q.853-.25 1.457.395.646.604.396 1.458L26.95 9.669l3.914 1q.833.208 1.083 1.061.208.875-.416 1.458z"/></svg>