<svg xmlns="http://www.w3.org/2000/svg" width="32" height="32"><path d="M9.333 25.333q0 .542-.395.938-.396.396-.938.396-.542 0-.937-.396-.396-.396-.396-.938 0-.541.396-.937Q7.458 24 8 24t.938.396q.395.396.395.937zm21.334 1.271q0 2.521-1.521 3.958Q27.625 32 25.104 32H6.896q-2.521 0-4.042-1.438-1.52-1.437-1.52-3.958 0-1.416.114-2.729.114-1.312.5-2.875.385-1.562.99-2.76.604-1.198 1.687-2.146 1.083-.948 2.5-1.26-.458 1.083-.458 2.5v4.229q-1.209.416-1.938 1.458Q4 24.063 4 25.333 4 27 5.167 28.167 6.333 29.333 8 29.333q1.667 0 2.833-1.166Q12 27 12 25.333q0-1.27-.74-2.312-.74-1.042-1.927-1.458v-4.23q0-1.291.521-1.937 2.75 2.167 6.146 2.167t6.146-2.167q.52.646.52 1.937v1.334q-2.208 0-3.77 1.562-1.563 1.563-1.563 3.771v1.854q-.666.604-.666 1.48 0 .833.583 1.416t1.417.583q.833 0 1.416-.583.584-.583.584-1.417 0-.875-.667-1.479V24q0-1.083.792-1.875.791-.792 1.875-.792 1.083 0 1.875.792.791.792.791 1.875v1.854q-.666.604-.666 1.48 0 .833.583 1.416t1.417.583q.833 0 1.416-.583.584-.583.584-1.417 0-.875-.667-1.479V24q0-1.417-.719-2.656-.719-1.24-1.948-1.948 0-.208.01-.886.011-.677 0-1-.01-.323-.052-.864-.041-.542-.145-.98-.105-.437-.271-.833 1.416.313 2.5 1.26 1.083.949 1.687 2.147.604 1.198.99 2.76.385 1.562.5 2.875.114 1.313.114 2.73zM24 8q0 3.313-2.344 5.656Q19.312 16 16 16q-3.313 0-5.656-2.344Q8 11.313 8 8q0-3.312 2.344-5.656Q12.687 0 16 0q3.312 0 5.656 2.344T24 8z"/></svg>