<svg xmlns="http://www.w3.org/2000/svg" width="32" height="32"><path d="m29.794 2.333-.126-.127c-2.942-2.941-7.756-2.941-10.698 0l-6.816 6.817c-2.941 2.942-2.941 7.755 0 10.697l.126.126c.245.245.505.466.773.67l2.495-2.495a4.085 4.085 0 0 1-.816-.627l-.126-.126a4.101 4.101 0 0 1 0-5.793l6.816-6.816a4.1 4.1 0 0 1 5.794 0l.126.125a4.102 4.102 0 0 1 0 5.794l-3.084 3.084c.535 1.322.789 2.731.767 4.137l4.769-4.769c2.941-2.942 2.941-7.756 0-10.697zM19.72 12.154a7.51 7.51 0 0 0-.773-.67l-2.495 2.495c.29.172.566.377.816.627l.126.126a4.1 4.1 0 0 1 0 5.793l-6.816 6.817a4.102 4.102 0 0 1-5.794 0l-.126-.126a4.102 4.102 0 0 1 0-5.794l3.084-3.083a10.578 10.578 0 0 1-.767-4.138l-4.769 4.77c-2.941 2.94-2.941 7.755 0 10.697l.126.126c2.942 2.941 7.756 2.941 10.698 0l6.816-6.816c2.942-2.942 2.942-7.756 0-10.698l-.126-.126z"/></svg>