<svg xmlns="http://www.w3.org/2000/svg" width="32" height="32"><path d="M24 9.75c0-.633-.512-1.144-1.143-1.144H19.43s.037-1.376.037-3.376c0-1.857-1.538-3.552-3.466-3.552-1.928 0-3.415 1.613-3.415 3.542 0 1.857-.014 3.387-.014 3.387H9.143C8.51 8.607 8 9.118 8 9.75v2.215h16V9.75zm-8-2.357a1.143 1.143 0 1 1 0-2.286 1.143 1.143 0 0 1 0 2.285zm13.714 2.356-4.571-.07.024 3.547H6.857V9.82l-4.571-.07A2.287 2.287 0 0 0 0 12.035v16a2.287 2.287 0 0 0 2.286 2.286h27.428A2.287 2.287 0 0 0 32 28.036v-16a2.287 2.287 0 0 0-2.286-2.287zM9.143 16.392c1.38 0 2.5 1.471 2.5 3.286s-1.12 3.286-2.5 3.286-2.5-1.471-2.5-3.286 1.12-3.286 2.5-3.286zM4.19 26.832s.27-2.173.887-2.584c.615-.41 2.388-.683 2.388-.683s1.15 1.229 1.64 1.229c.487 0 1.637-1.229 1.637-1.229s1.774.272 2.39.683c.723.483.904 2.584.904 2.584H4.19zm23.238-1.083H17.143v-1.143h10.286v1.143zm0-2.286H17.143v-1.142h10.286v1.142zm0-2.285H17.143v-1.143h10.286v1.143zm0-2.286H17.143v-1.143h10.286v1.143z"/></svg>