<svg xmlns="http://www.w3.org/2000/svg" width="32" height="32"><path d="M16 4.694c-3.052 0-6.019.587-8.808 1.767A22.57 22.57 0 0 0 0 11.306l2.297 2.297A19.252 19.252 0 0 1 16 7.924a19.252 19.252 0 0 1 13.703 5.679L32 11.306a22.497 22.497 0 0 0-16-6.612zm0 6.46c-4.314 0-8.382 1.67-11.432 4.72l2.296 2.296A12.835 12.835 0 0 1 16 14.385c3.452 0 6.695 1.345 9.136 3.785l2.296-2.296c-3.05-3.051-7.118-4.72-11.432-4.72zm0 6.461c-2.671 0-5.084 1.097-6.84 2.852l2.272 2.271A6.442 6.442 0 0 1 16 20.845c1.78 0 3.398.723 4.568 1.893l2.271-2.271c-1.755-1.755-4.168-2.852-6.839-2.852zm0 6.46a1.615 1.615 0 1 0 0 3.23 1.615 1.615 0 0 0 0-3.23z"/></svg>