<svg xmlns="http://www.w3.org/2000/svg" width="32" height="32"><path d="M25.981 27.41a1.714 1.714 0 0 1-1.212-2.926c4.678-4.678 4.678-12.29 0-16.968a1.714 1.714 0 0 1 2.424-2.424A15.324 15.324 0 0 1 31.711 16c0 4.12-1.604 7.994-4.518 10.908a1.708 1.708 0 0 1-1.212.502zm-6.088-3.232a1.714 1.714 0 0 1-1.212-2.926c2.896-2.896 2.896-7.608 0-10.504a1.714 1.714 0 1 1 2.424-2.424c4.232 4.233 4.232 11.12 0 15.352a1.709 1.709 0 0 1-1.212.502zM14.619.527c.917-.917 1.667-.606 1.667.69v29.566c0 1.296-.75 1.607-1.667.69l-8.617-8.617H.289V9.144h5.713L14.619.527z"/></svg>