<svg xmlns="http://www.w3.org/2000/svg" width="32" height="32"><path d="m31.888 26.471-3.062-6.04c-.17-.505-.519-.948-.957-1.269.395-.342.65-.84.65-1.402V3.617a1.866 1.866 0 0 0-1.864-1.864H5.345A1.866 1.866 0 0 0 3.48 3.617V17.76c0 .562.255 1.06.65 1.402a2.656 2.656 0 0 0-.957 1.268L.112 26.47c-.206.614-.126 2.532.222 3.015.348.484.918.762 1.564.762h28.204c.646 0 1.217-.278 1.564-.762.348-.483.428-2.401.222-3.014zm-1.786 1.419H1.898c-.625 0-.973-.485-.773-1.077l3.06-6.04c.201-.592.875-1.077 1.5-1.077h20.63c.624 0 1.298.485 1.498 1.077l3.061 6.04c.2.592-.147 1.077-.772 1.077zM4.55 3.617c0-.439.357-.795.795-.795h21.311c.438 0 .795.356.795.795V17.76a.796.796 0 0 1-.795.795H5.345a.796.796 0 0 1-.796-.795V3.617z"/><path d="M19.907 23.929c-.04-.27-.306-.483-.606-.483h-6.602c-.3 0-.567.212-.606.483l-.54 2.267a.45.45 0 0 0 .123.38.555.555 0 0 0 .4.162h7.847c.156 0 .302-.06.4-.161a.45.45 0 0 0 .124-.38l-.54-2.268zM6.293 17.771h19.413a1.09 1.09 0 0 0 1.087-1.088V4.693a1.09 1.09 0 0 0-1.087-1.087H6.293a1.09 1.09 0 0 0-1.087 1.088v11.99c0 .598.49 1.087 1.087 1.087z"/></svg>