<svg xmlns="http://www.w3.org/2000/svg" width="32" height="32"><path d="M83.51 51.599h-7.533l6.708-33.534a3.692 3.692 0 1 1 7.243 1.449L83.51 51.599zM16.551 51.599l-6.28-31.918c-.395-2.011.888-3.968 2.866-4.37 1.977-.401 3.902.903 4.298 2.915L24 51.599h-7.449zM88.312 54H0v26h9.712l3.333 6h14.262l3.332-6H72.78l3.333 6h14.262l3.333-6H100V54H88.312zM73.864 73.188a3.407 3.407 0 1 1 0-6.816 3.408 3.408 0 1 1 0 6.816zm13.068 0a3.406 3.406 0 0 1-3.408-3.408 3.408 3.408 0 1 1 3.408 3.408z" style="fill-rule:evenodd" transform="matrix(.32 0 0 .32 0 -.175)"/></svg>