<svg xmlns="http://www.w3.org/2000/svg" width="32" height="32"><path d="M24.206 9.74c.573-.407 1.122-.86 1.626-1.364 1.056-1.056 1.763-2.356 1.99-3.659.248-1.429-.117-2.755-1-3.64C26.115.374 25.16 0 24.058 0c-1.57 0-3.223.753-4.536 2.067-2.102 2.102-3.327 5.003-3.986 7.073-.489-2.08-1.461-4.89-3.353-6.78C11.17 1.345 9.873.824 8.648.824c-1 0-1.953.348-2.664 1.059-1.58 1.58-1.367 4.356.477 6.2.657.658 1.426 1.204 2.236 1.657H1.835v8.095h2.023V32h24.284V17.835h2.023V9.74h-5.96zm-3.073-6.064c.876-.876 1.97-1.4 2.926-1.4.338 0 .813.072 1.152.412.823.822.361 2.728-.989 4.078-1.39 1.39-3.258 2.345-4.883 2.974h-1.602c.587-1.82 1.646-4.314 3.396-6.064zM7.208 4.71c-.022-.288-.002-.83.386-1.217.323-.324.752-.392 1.054-.392.672 0 1.374.317 1.927.87 1.07 1.07 1.953 2.775 2.55 4.928l.047.173c-.057-.015-.115-.03-.173-.047-2.153-.597-3.858-1.48-4.929-2.55-.5-.5-.814-1.144-.862-1.764zm6.768 25.267H5.882V16.823h8.094v13.153zm0-14.165H3.858v-4.047h10.118v4.047zm12.142 14.165h-8.094V16.823h8.094v13.153zm2.024-14.165H18.024v-4.047h10.118v4.047z"/></svg>