<svg xmlns="http://www.w3.org/2000/svg" width="32" height="32"><path d="M7.11 0a5.339 5.339 0 0 0-5.332 5.333v21.333A5.34 5.34 0 0 0 7.11 32h17.778a5.34 5.34 0 0 0 5.333-5.334V5.333A5.339 5.339 0 0 0 24.89 0H7.111zm0 3.556h17.78c.979 0 1.776.798 1.776 1.778v21.333a1.78 1.78 0 0 1-1.777 1.777H7.111a1.78 1.78 0 0 1-1.778-1.777V5.334c0-.98.798-1.778 1.778-1.778zM8.889 7.11a.89.89 0 0 0 0 1.777h14.224a.888.888 0 1 0 0-1.777H8.888zm0 5.333a.89.89 0 0 0 0 1.778h14.224a.888.888 0 1 0 0-1.778H8.888zm0 5.334a.888.888 0 1 0 0 1.778h14.224a.89.89 0 0 0 0-1.778H8.888zm0 5.334a.888.888 0 0 0 0 1.777h14.224a.89.89 0 0 0 0-1.777H8.888z"/></svg>