<svg xmlns="http://www.w3.org/2000/svg" width="32" height="32"><path d="M1.125 28.571H0V3.43h1.125V28.57zm1.125-.017h-.571V3.429h.571v25.125zm1.679 0h-.554V3.429h.554v25.125zm2.803 0H6.18V3.429h.553v25.125zm2.804 0H8.429V3.429h1.107v25.125zm2.25 0h-.554V3.429h.554v25.125zm1.125 0h-.554V3.429h.554v25.125zm1.125 0h-.554V3.429h.554v25.125zm2.803 0h-1.125V3.429h1.125v25.125zm2.804 0h-1.125V3.429h1.125v25.125zm2.25 0h-1.125V3.429h1.125v25.125zm2.25 0h-1.125V3.429h1.125v25.125zm1.678 0h-1.125V3.429h1.125v25.125zm3.375 0h-1.678V3.429h1.678v25.125zm1.125 0h-.571V3.429h.571v25.125zM32 28.57h-1.125V3.43H32V28.57z"/></svg>