<svg xmlns="http://www.w3.org/2000/svg" width="32" height="32"><path d="M5 29.333A2.666 2.666 0 0 0 7.667 32h16.666A2.666 2.666 0 0 0 27 29.333V2.667A2.666 2.666 0 0 0 24.333 0H7.667A2.666 2.666 0 0 0 5 2.667v26.666zm4.8-26h12.4c.813 0 1.467.654 1.467 1.467v4.4c0 .813-.654 1.467-1.467 1.467H9.8A1.462 1.462 0 0 1 8.333 9.2V4.8c0-.813.654-1.467 1.467-1.467zM8.333 15a1.667 1.667 0 1 1 3.335.001A1.667 1.667 0 0 1 8.333 15zm6 0a1.667 1.667 0 1 1 3.335.001A1.667 1.667 0 0 1 14.333 15zm6 0a1.667 1.667 0 1 1 3.335.001A1.667 1.667 0 0 1 20.333 15zm-12 6a1.667 1.667 0 1 1 3.335.001A1.667 1.667 0 0 1 8.333 21zm6 0a1.667 1.667 0 1 1 3.335.001A1.667 1.667 0 0 1 14.333 21zm6 0a1.667 1.667 0 1 1 3.335.001A1.667 1.667 0 0 1 20.333 21zm-12 6a1.667 1.667 0 1 1 3.335.001A1.667 1.667 0 0 1 8.333 27zm6 0a1.667 1.667 0 1 1 3.335.001A1.667 1.667 0 0 1 14.333 27zm6 0a1.667 1.667 0 1 1 3.335.001A1.667 1.667 0 0 1 20.333 27z"/></svg>