<svg xmlns="http://www.w3.org/2000/svg" width="32" height="32"><path d="M14.93 0c-1.964-.002-2.693 2.645-2.693 2.645-1.184 1.608-3.13.93-3.13.93-3.215-.93-2.199 2.2-2.199 2.2l4.398 3.554H21.63c5.5-3.977 3.723-6.26 3.723-6.26-2.708-1.946-4.653 1.595-4.653 1.595-1.862.751-3.131-3.373-3.131-3.373C16.51.347 15.639.001 14.929 0zM9.965 10.27v1.97h12.727v-1.97H9.966zm1.047 2.951s-6.346 5.922-7.36 9.137c0 0-1.185 7.192 7.868 9.223 0 0 6.092 1.438 11.676-1.016 0 0 7.362-1.693 4.568-9.306 0 0-.51-3.007-6.683-8.038H11.013zm4.723 1.742h1.004v1.546c.94.032 1.591.286 2.07.557l-.399 1.051a3.818 3.818 0 0 0-2.007-.557c-1.225 0-1.687.733-1.687 1.386 0 .812.588 1.225 1.974 1.815 1.64.67 2.47 1.481 2.47 2.898 0 1.275-.877 2.452-2.517 2.709v1.654h-1.003v-1.591c-.924-.016-1.864-.304-2.421-.702l.383-1.066a4.277 4.277 0 0 0 2.275.685c1.132 0 1.897-.655 1.897-1.562 0-.875-.621-1.418-1.8-1.894-1.625-.637-2.629-1.386-2.629-2.772 0-1.322.94-2.325 2.39-2.564v-1.593z"/></svg>