<svg xmlns="http://www.w3.org/2000/svg" width="32" height="32"><path d="M8.808 15.75q-1.423-3.115-1.423-7.135H2.462v1.846q0 1.5 1.817 3.116 1.817 1.615 4.529 2.173zm20.73-5.288V8.615h-4.923q0 4.02-1.423 7.135 2.712-.558 4.53-2.173 1.816-1.615 1.816-3.115zM32 8v2.461q0 1.366-.798 2.75-.798 1.385-2.154 2.5-1.356 1.116-3.327 1.875-1.971.76-4.144.856-.808 1.039-1.827 1.827-.73.654-1.01 1.394-.278.74-.278 1.722 0 1.038.586 1.75.587.711 1.875.711 1.442 0 2.567.875 1.125.875 1.125 2.202v1.23q0 .27-.173.443T24 30.77H8q-.27 0-.442-.173-.173-.173-.173-.442v-1.23q0-1.328 1.125-2.203 1.125-.875 2.567-.875 1.288 0 1.875-.711.586-.712.586-1.75 0-.981-.278-1.722-.28-.74-1.01-1.394-1.02-.788-1.827-1.827-2.173-.096-4.144-.856t-3.327-1.875q-1.356-1.115-2.154-2.5Q0 11.827 0 10.461V8q0-.77.538-1.308.539-.538 1.308-.538h5.539V4.308q0-1.27.903-2.173.904-.904 2.173-.904h11.077q1.27 0 2.174.904.903.903.903 2.173v1.846h5.539q.769 0 1.307.538Q32 7.231 32 8z"/></svg>