<svg xmlns="http://www.w3.org/2000/svg" width="32" height="32"><path d="M15.999 13.175c-5.198 0-9.413 4.215-9.413 9.413a9.413 9.413 0 1 0 9.412-9.412zm0 17.45A7.965 7.965 0 1 1 16 14.695 7.965 7.965 0 0 1 16 30.625zm4.733-24.979L23.962 0H8.036l3.28 5.646h9.417zm1.69 9.611 5.768-9.493-3.868-5.6-7.265 12.774c3.188.267 5.365 2.32 5.365 2.32zm-7.505-2.39L7.677.165 3.81 5.764l5.599 9.66c-.001 0 2.032-2.095 5.508-2.556zm-.212 7.622c-.438.342-.842.572-1.215.695v1.294a4.893 4.893 0 0 0 1.845-1.081v5.39h1.43v-7.493h-1.16c-.162.453-.462.853-.9 1.195z"/></svg>