<svg xmlns="http://www.w3.org/2000/svg" width="32" height="32"><path d="M16 32c8.837 0 16-7.163 16-16S24.837 0 16 0 0 7.163 0 16s7.163 16 16 16zm0-29c7.18 0 13 5.82 13 13s-5.82 13-13 13S3 23.18 3 16 8.82 3 16 3zm.96 19.22c4.383-.866 7.785-2.861 9.015-5.519C25.298 21.95 20.927 26 15.635 26c-3.726 0-6.995-2.009-8.84-5.03 2.2 1.72 6.08 2.057 10.166 1.25zM20 11c0-1.657.895-3 2-3s2 1.343 2 3-.895 3-2 3-2-1.343-2-3zm-9 .61c-1.306 0-2.417.489-2.829 1.171-.11-.183-.171-1.005-.171-1.21 0-.971 1.343-1.758 3-1.758s3 .786 3 1.757c0 .206-.06 1.028-.171 1.211-.412-.682-1.523-1.172-2.829-1.172z"/></svg>