<svg xmlns="http://www.w3.org/2000/svg" width="32" height="32"><path d="M16 32c8.837 0 16-7.163 16-16S24.837 0 16 0 0 7.163 0 16s7.163 16 16 16zm0-29c7.18 0 13 5.82 13 13s-5.82 13-13 13S3 23.18 3 16 8.82 3 16 3zM6 16v2c0 4.4 3.6 8 8 8h4c4.4 0 8-3.6 8-8v-2H6zm6 7.656a6.014 6.014 0 0 1-2.236-1.42A5.956 5.956 0 0 1 8 18h4v5.656zM18 24h-4v-6h4v6zm4.236-1.764A6.016 6.016 0 0 1 20 23.656V18h4a5.955 5.955 0 0 1-1.764 4.236zM7.042 12c.306 0 .566-.22.617-.522A2.366 2.366 0 0 1 10 9.5c1.164 0 2.149.832 2.341 1.978a.625.625 0 0 0 1.233 0A3.63 3.63 0 0 0 10 7.25a3.63 3.63 0 0 0-3.574 4.23c.05.3.311.521.616.521zm12 0c.306 0 .566-.22.617-.522A2.366 2.366 0 0 1 22 9.5c1.164 0 2.149.832 2.341 1.978a.625.625 0 0 0 1.233 0A3.63 3.63 0 0 0 22 7.25a3.63 3.63 0 0 0-3.574 4.23c.05.3.311.521.616.521z"/></svg>