<svg xmlns="http://www.w3.org/2000/svg" width="32" height="32"><path d="M16 32c8.837 0 16-7.163 16-16S24.837 0 16 0 0 7.163 0 16s7.163 16 16 16zm0-29c7.18 0 13 5.82 13 13s-5.82 13-13 13S3 23.18 3 16 8.82 3 16 3zm6.003 21.398A6.996 6.996 0 0 0 16 21a6.996 6.996 0 0 0-6.003 3.398l-2.573-1.543A9.994 9.994 0 0 1 16 18a9.994 9.994 0 0 1 8.576 4.854l-2.573 1.544zm1.967-15.64a1 1 0 0 1-.728 1.212c-.55.14-1.203.379-1.779.667a2 2 0 1 1-3.46 1.254c.064-1.483 1.413-2.467 2.55-3.035a12.042 12.042 0 0 1 2.204-.826 1 1 0 0 1 1.213.728zm-15.94 0a1 1 0 0 1 1.213-.728c.045.01 1.119.283 2.204.826 1.137.568 2.486 1.552 2.55 3.035a2 2 0 1 1-3.46-1.254 9.194 9.194 0 0 0-1.78-.667 1 1 0 0 1-.727-1.213z"/></svg>