<svg xmlns="http://www.w3.org/2000/svg" width="32" height="32"><path d="M19.765 15.059a1.882 1.882 0 0 1-1.88-1.985c.06-1.396 1.33-2.322 2.4-2.857a11.328 11.328 0 0 1 2.075-.777.941.941 0 1 1 .456 1.826 8.648 8.648 0 0 0-1.674.628 1.882 1.882 0 0 1-1.377 3.165zM9.184 11.266A.941.941 0 1 1 9.64 9.44c.043.01 1.053.266 2.075.777 1.07.535 2.34 1.461 2.4 2.857l.003.102a1.882 1.882 0 1 1-3.26-1.282 8.652 8.652 0 0 0-1.675-.628zM16 23.529a6.585 6.585 0 0 0 5.65-3.198l2.421 1.453A9.406 9.406 0 0 1 16 26.353a9.406 9.406 0 0 1-8.071-4.569l2.421-1.453A6.585 6.585 0 0 0 16 23.53zM31.059 3.765A9.38 9.38 0 0 0 30.275 0a9.444 9.444 0 0 1-5.132 4.976A14.992 14.992 0 0 0 16 1.882a14.992 14.992 0 0 0-9.143 3.094A9.444 9.444 0 0 1 1.725 0a9.38 9.38 0 0 0-.784 3.765c0 2.164.731 4.156 1.959 5.746a14.99 14.99 0 0 0-1.959 7.43C.941 25.258 7.683 32 16 32s15.059-6.742 15.059-15.059c0-2.702-.712-5.237-1.959-7.43a9.37 9.37 0 0 0 1.959-5.746zm-15.06 25.411c-6.756 0-12.234-5.477-12.234-12.235C3.765 10.184 9.243 4.706 16 4.706s12.235 5.478 12.235 12.235c0 6.758-5.478 12.235-12.235 12.235z"/></svg>