<svg xmlns="http://www.w3.org/2000/svg" width="32" height="32"><path d="M16 32c8.837 0 16-7.163 16-16S24.837 0 16 0 0 7.163 0 16s7.163 16 16 16zm0-29c7.18 0 13 5.82 13 13s-5.82 13-13 13S3 23.18 3 16 8.82 3 16 3zm-8 7a2 2 0 1 1 4 0 2 2 0 0 1-4 0zm12 0a2 2 0 1 1 4 0 2 2 0 0 1-4 0zm2.69 10h2.028a5.008 5.008 0 0 1-3.249 5.33 5.006 5.006 0 0 1-6.409-2.988 3.003 3.003 0 0 0-3.845-1.793A3.004 3.004 0 0 0 9.31 24H7.282a5.008 5.008 0 0 1 3.249-5.33 5.006 5.006 0 0 1 6.409 2.989 3.003 3.003 0 0 0 3.845 1.793A3.004 3.004 0 0 0 22.69 20z"/></svg>