<svg xmlns="http://www.w3.org/2000/svg" width="32" height="32"><path d="M8.442 24.442 3.52 29.365q-.192.173-.442.173-.23 0-.442-.173-.173-.192-.173-.442t.173-.442l4.923-4.923q.192-.173.442-.173t.442.173q.173.192.173.442t-.173.442zm3.25.789v6.154q0 .269-.173.442t-.442.173q-.27 0-.442-.173-.173-.173-.173-.442V25.23q0-.27.173-.443t.442-.173q.27 0 .442.173.173.174.173.443zm-4.307-4.308q0 .27-.173.442-.174.173-.443.173H.615q-.269 0-.442-.173T0 20.923q0-.27.173-.442.173-.173.442-.173H6.77q.27 0 .443.173t.173.442zm24.307 2.462q0 2.307-1.634 3.903l-2.827 2.808q-1.596 1.596-3.904 1.596-2.327 0-3.923-1.634l-6.423-6.443q-.404-.403-.808-1.077l4.596-.346 5.25 5.27q.52.519 1.308.528.788.01 1.308-.51l2.827-2.807q.538-.538.538-1.288 0-.77-.538-1.308l-5.27-5.289.346-4.596q.674.404 1.077.808l6.462 6.462q1.615 1.653 1.615 3.923zM19.827 9.462l-4.596.346-5.25-5.27Q9.442 4 8.673 4q-.75 0-1.308.52L4.538 7.326Q4 7.865 4 8.615q0 .77.538 1.308l5.27 5.27-.346 4.615q-.674-.404-1.077-.808L1.923 12.54Q.308 10.885.308 8.615q0-2.307 1.634-3.903L4.77 1.904Q6.365.308 8.673.308q2.327 0 3.923 1.634l6.423 6.443q.404.404.808 1.077zM32 11.077q0 .27-.173.442-.173.173-.442.173H25.23q-.27 0-.443-.173t-.173-.442q0-.27.173-.442.174-.173.443-.173h6.154q.269 0 .442.173t.173.442zM21.538.615V6.77q0 .27-.173.443t-.442.173q-.27 0-.442-.173-.173-.174-.173-.443V.615q0-.269.173-.442T20.923 0q.27 0 .442.173.173.173.173.442zm7.827 2.904-4.923 4.923q-.211.173-.442.173-.23 0-.442-.173-.173-.192-.173-.442t.173-.442l4.923-4.923q.192-.173.442-.173t.442.173q.173.192.173.442t-.173.442z"/></svg>