<svg xmlns="http://www.w3.org/2000/svg" width="32" height="32"><path d="M19.355 14.474c-.691-.975-.935-1.219-1.91-1.87-.082-.08-.205-.04-.205.081 0 .327.041.651.041.977 0 .975-.081 1.423-.447 2.317l-.975 1.668c-.042.081.081.245.202.163l2.684-1.708.61-1.342c.041-.123.041-.204 0-.286zm4.553-6.342c.123 0 .205.041.205.164l1.097 3.78-.406.245-2.521-3.986c-.082-.081-.041-.284.12-.284l1.505.081zm-1.22 8.945s1.587 4.148 1.587 4.189a.663.663 0 0 0 .284.366l4.432 3.578a.972.972 0 0 1 .245.447v.284c0 .651-.245 1.26-.732 1.708-.04 0-.082.081-.082.163s.082.203.204.203h.61c.488 0 .975-.285 1.22-.73l1.505-2.563c.039-.04.039-.082.039-.163 0-.122-.08-.244-.203-.325l-.894-.406-3.09-3.578a.652.652 0 0 0-.448-.205.583.583 0 0 0-.284.082c-.204-.244-.326-.447-.367-.731l-1.504-6.181.448-.285h.04c.162.122.366.203.61.203.121 0 .244 0 .325-.082.284-.162.406-.285.61-.569.04-.04.04-.162.04-.244v-.04c0-.244-.162-.488-.406-.609-.245-.164-.407-.407-.407-.732a10.145 10.145 0 0 0-.691-3.294 2.066 2.066 0 0 0-.935-1.017 9.067 9.067 0 0 0-3.863-.854h-.57c-.405 0-.69.121-1.015.326l-1.504 1.016c-.041.042-.082.042-.163.042a.278.278 0 0 1-.284-.285v-.204c0-.977-.53-1.87-1.384-2.318-.325-.202-.569-.284-.935-.284-.325 0-.488.04-.772.203-.448.163-.773.487-1.058.854-.203.284-.285.61-.285.976 0 .935.774 1.83 1.667 2.155l.977.162c.203 0 .324.122.324.325 0 .082-.04.162-.12.244L14.84 9.921c-.081.122-.121.163-.121.326v.284c0 1.139.162 2.359.487 3.456 0 .163.04.285.04.407 0 .204-.04.366-.121.57l-1.384 3.415a.79.79 0 0 0-.12.406c0 .163.04.327.12.448l-1.707 1.097a.976.976 0 0 0-.447-.61l-.243-.121-1.058-.326a1.044 1.044 0 0 1-.57-.447l-.773-1.3c-.04 0-.04-.042-.08-.082l-.61-.203-1.22-.163h-.081c-.406 0-.773.203-.975.57L0 28.014h13.825c.122 0 .245-.121.245-.242 0 0 0-.043-1.79-6.425l1.911-1.22c.123.08.203.08.326.08.122 0 .204 0 .284-.04l.855-.406c.203-.123.324-.285.324-.528 0-.082 0-.122-.04-.204l2.277-1.383-.326.814a7.352 7.352 0 0 0-.488 2.277l-.285 5.449-.04.528c-.042.04-.042.08-.082.08l-1.749.489a.39.39 0 0 0-.284.365c0 .204.204.366.366.366h4.026c.244 0 .406-.203.448-.406.242-1.952.487-3.903.772-5.896 0-.04 0-.081-.04-.122l-.083-.041c-.08 0-.162-.08-.162-.203v-.528a.57.57 0 0 1 .082-.285c1.3-1.504 1.341-1.627 2.113-3.416 0-.04.042-.081.082-.081.082 0 .121.04.121.04z"/></svg>