<svg xmlns="http://www.w3.org/2000/svg" width="32" height="32"><path d="M16 .006a4.999 4.999 0 1 0 .001 9.997A4.999 4.999 0 0 0 16 .006zm-5.998 11.996c-.585 0-1.167.256-1.562.75L.444 22.746a1.988 1.988 0 0 0-.157 2.28c.368.604 1.03.97 1.718.97.13 0 .276-.006.407-.032l5.591-1.125v7.154h15.994V24.84l5.591 1.125c.131.026.276.031.407.031.687 0 1.35-.365 1.718-.968a1.988 1.988 0 0 0-.157-2.28L23.56 12.75a1.997 1.997 0 0 0-1.562-.75H10.002zm0 3.998L16 18l5.998-2v4.373l-1.593-.343c-1.083-.217-2.159.479-2.375 1.562-.215 1.082.48 2.158 1.562 2.374l2.406.468v1.562l-5.998 2-5.998-2v-1.562l2.406-.468c1.082-.217 1.778-1.292 1.562-2.374-.217-1.083-1.292-1.778-2.375-1.562l-1.593.343V16z"/></svg>