<svg xmlns="http://www.w3.org/2000/svg" width="32" height="32"><path d="M16.014 22.081h-.111c-8.782 0-15.885-2.133-15.887-3.77L0 11.877v-.027c1.446.686 3.145 1.002 4.16 1.19 3.158.588 7.328.912 11.739.912h.11c4.44 0 8.633-.337 11.813-.934 1.017-.191 2.71-.51 4.157-1.191v.01l.017 6.432c0 1.645-7.153 3.8-15.986 3.812zm0-10.065h-.111C7.12 12.016.018 10.07.015 8.432L0 2.998C0 1.354 7.156.01 15.99 0h.114c8.78 0 15.877 1.32 15.879 2.958L32 8.392c0 1.644-7.153 3.612-15.986 3.624zm-.112 12.003h.11a66.472 66.472 0 0 0 11.813-1.12c1.017-.192 2.71-.51 4.158-1.193l.016 7.296c0 1.645-7.153 2.987-15.987 2.998H15.9C7.12 32 .017 30.68.015 29.043L0 21.728c1.446.687 3.146 1.003 4.164 1.192 3.157.588 7.326 1.1 11.738 1.1z"/></svg>