<svg xmlns="http://www.w3.org/2000/svg" width="32" height="32"><path d="M8.333 29.333A2.666 2.666 0 0 0 11 32h10a2.666 2.666 0 0 0 2.667-2.667v-.78a1.33 1.33 0 0 1 1.019-1.292A6.675 6.675 0 0 0 29 16.667v-4.56C29 5.42 23.18 0 16 0S3 5.42 3 12.107v4.56A6.675 6.675 0 0 0 7.313 27.26c.587.139 1.02.666 1.02 1.292v.78zM7 16a3.335 3.335 0 0 1 6.667 0A3.335 3.335 0 0 1 7 16zm11.333 0A3.335 3.335 0 0 1 25 16a3.335 3.335 0 0 1-6.667 0zm-5.62 7.12 2.347-2.347c.52-.52 1.36-.52 1.88 0l2.347 2.347a1.296 1.296 0 1 1-1.834 1.833L16 23.5l-1.454 1.453a1.296 1.296 0 1 1-1.833-1.833z"/></svg>