<svg xmlns="http://www.w3.org/2000/svg" width="32" height="32"><path d="M25.776 13.696a2.33 2.33 0 0 0-1.212-1.26c.285.595.38.975.38 1.64 0 0 0 .023-.07.713l-.072.5-.072.641-.047.428.142 1.164.024.64.047.262.214.31.357.166.522.26.143.428-.096.405v.546l-.047.308-.023.31-.048.261-.047.237-.071.784-.072.499v.332l-.024.096-.023.07-.047.096-.191.095-.308.095h-.31l-.617-.024h-.215l-.688-.047h-.095l-.072-.048-.094-.141-.025-.143-.023-.285.048-.191.07-.119.167-.094.19-.047.261-.048h.143l.095-.024.048-.047.071-.12.07-.403.12-.594.072-.333.023-.403v-.048l-.023-.143-.048-.046-.095-.05-.404-.212-1.117-.76-.854-.88-.144-.238-.047-.118-.071-.167-.143-.237-.118-.166-.072-.071-.071-.025-.167.143-.142.285-.142.665.046.5.072.118.167.167.356.356.024.214-.047.094-.096.19-.356.618-.237.57-.215.5-.118.499-.095.214-.071.403v.285l-.143.261-.19.096-.285.094h-.332l-.618-.023h-.19l-.714-.048h-.094l-.072-.047-.07-.143-.025-.142-.023-.285.023-.19.095-.12.143-.093.071-.025.143-.023.141-.024h.167l.191-.023h.047l.12-.12.189-.285.31-.689.284-.76.048-.237.047-.261v-.096l-.024-.119-.095-.143-.143-.26-.142-.405-.048-.166-.332-1.307-.12-.711-.094-1.118-.427.38-.404.38-.475.333-.738.475-.901.475-.761.238-.736.118-.737.142-.167.025-.118.095-.167.119-.355.522.093.95.073.76.07.737.096.76v.381l-.024.308-.142.38-.143.142-.096.072-.26.07h-.927l-.95-.046-.12-.024-.07-.048-.071-.118-.025-.142-.023-.216.048-.284.094-.142.143-.096.213-.047.167-.023.214-.025.285-.046.048-.05v-.474l-.048-.309-.142-.57-.024-.38-.142-.451-.19-.405-.119-.426-.143-.239-.095-.308-.214-.31-.118-.284-.095-.214-.12-.119-.142-.214-.309-.095-.19.357-.213.57-.238.45-.261.738-.19.808-.167.33-.19.31-.19.452-.286.974-.142.38-.166.333-.143.261-.118.071-.237.071h-.524l-.142-.023h-.19l-.88-.023-.094-.025-.072-.047-.095-.119-.023-.141-.024-.167.047-.19.047-.144.096-.141.142-.096.404-.047.214-.048.142-.046.096-.144.07-.38.073-.261.142-.642.118-.713.143-.88.048-.806v-.475l-.072-.593-.428-.073-.284-.118h-.38l-.358-.167-.166-.404-.522-.118-.214-.215-.665-.26-.57.094-.261.072-.213.07-.19.096-.072-.023-.167-.191-.403-.238-.19-.285-.048-.404-.167-.118-.403-.239-.19-.283-.095-.143-.119-.143L0 14.313v-.38l.047-.19.095-.143 1.26-1.282.142-.262.071-.285.047-.38.048-.143-.048-.166.048-.096.023-.141.072-.143.12-.071.046-.143.024-.119.071-.118.024-.142.047-.12.12-.047.07-.095.048-.118.095-.048.095-.072.072-.07.047-.166.071-.097.143-.07.071-.072.095-.118.166-.048.167-.072.142-.094.143-.096.167-.047.26-.024.19-.072.119-.119.166-.047h.191l.238-.07.236.023.31-.072h.356l.285.024h.214l.238.048.285.023.214-.047.19.047.142.096.261.07.31.024.237.096.142.094.119.096.143.023.094.071.19.025.167.023.167.047.166.143.19.119.19.047.214.025.19.117.119.143.166.048.12.07.141.048h.12l.071.048.047.07.072.025.142.023.094-.023h.096l.095.023.072.071.19.073h.118l.12.023.237.048.403.023.38.047.214.025.357.046.451.025.618.047.856.048.736.023h.784l1.021-.023 1.07-.073 1.02-.094.762-.095.735-.119.333-.047.214-.025.095-.023h.167c1.544 0 2.945.927 3.563 2.329 1.045 2.471 1.283 3.61 1.354 6.295 0 .737.618 1.355 1.378 1.355.332 0 .618-.096.879-.31a.675.675 0 0 0 .261-.546c0-.119 0-.167-.047-.262a1.077 1.077 0 0 1-.119-.545c0-.239.071-.476.19-.69l.807-1.354-.094.619.523-.951-.096.737.57-.88-.166.808.404-.427-.19.759.284-.354-.166.594c-.12.404-.12.452-.12.5-.023.047-.023.07-.047.498-.023.428-.26.808-.618 1.069l-.997.76a2 2 0 0 1-3.136-.95c-.07-.237-.048-.143-.07-.38a16.725 16.725 0 0 0-1.07-4.941z"/></svg>