<svg xmlns="http://www.w3.org/2000/svg" width="32" height="32"><path d="M22.87 2.883a2.888 2.888 0 0 1-5.775 0A2.885 2.885 0 0 1 19.987 0a2.882 2.882 0 0 1 2.883 2.883zm-1.367 16.221v12.33c0 .31-.254.566-.566.566a.569.569 0 0 1-.567-.567V19.104c0-.49-.398-.89-.892-.89-.487 0-.887.4-.887.89a.567.567 0 0 1-1.133 0c0-.831.501-1.535 1.214-1.848-1.436-2.133-2.234-4.485-2.663-6.448l-2.587 7.33c-.002 0-.01.01-.012.01.094.314 1.687 5.941-.204 12.317a1.468 1.468 0 0 1-1.83.991 1.471 1.471 0 0 1-.993-1.829c1.504-5.073.44-9.73.231-10.537-1.598-3.115-1.908-5.99-.919-8.55 1.58-4.088 5.915-5.704 6.098-5.773.76-.28 1.613.116 1.888.879.097.269.066.902.066.958 0 .052.055 5.635 3.027 9.742.278.385.275.881.038 1.264.416.37.691.894.691 1.494z"/></svg>