<svg xmlns="http://www.w3.org/2000/svg" width="32" height="32"><path d="M4.5 25.178.48 29.206c-.64.64-.64 1.673 0 2.314.64.64 1.673.64 2.313 0l4.02-4.021c5.747 4.588 14.173 4.188 19.526-1.167.641-.64 1.12-1.313 1.634-2.027l.3-.453a2.327 2.327 0 0 0-.527-3.147l-.327-.24c-.712-.507-1.36-.947-2.14-1.307 1.854-.486 3.428-1.474 4.9-2.948a13 13 0 0 0 1.334-1.546l.2-.3a1.682 1.682 0 0 0-.393-2.288l-.427-.293c-1.067-.7-2.054-1.174-3.28-1.42.32-.254.626-.528.92-.821a10.004 10.004 0 0 0 2.94-6.788c0-.08-.027-.453-.027-.553 0-.92-.747-1.666-1.667-1.666L29.273.52a10.004 10.004 0 0 0-6.82 2.94c-.293.293-.567.6-.82.92-.253-1.253-.74-2.247-1.466-3.341l-.234-.326a1.67 1.67 0 0 0-2.267-.453c-.1.06-.374.266-.413.292-.514.38-1 .807-1.467 1.274-1.473 1.474-2.46 3.034-2.946 4.888-.367-.787-.807-1.428-1.32-2.147l-.227-.314a2.35 2.35 0 0 0-1.867-.927c-.48 0-.932.148-1.306.4-.094.068-.36.26-.394.288-.72.52-1.406.986-2.06 1.64C.314 11.009-.086 19.437 4.5 25.178z"/></svg>