<svg xmlns="http://www.w3.org/2000/svg" width="32" height="32"><path d="M4.333 20.667C4.333 26.927 9.407 32 15.667 32h.666c6.261 0 11.334-5.073 11.334-11.333 0-1.407-.2-2.754-.667-4-3.874 0-7.287 1.94-9.333 4.9V16.5a8.333 8.333 0 0 0 6.666-8.167V1.32C24.333.593 23.733 0 23 0c-.374 0-.713.153-.953.4l-2.534 2.507L17 .4a1.352 1.352 0 0 0-1.92 0l-2.553 2.547L9.953.4C9.713.153 9.373 0 9 0a1.33 1.33 0 0 0-1.333 1.32v7.013a8.333 8.333 0 0 0 6.666 8.167v5.067A11.323 11.323 0 0 0 5 16.667c-.467 1.246-.667 2.593-.667 4z"/></svg>