<svg xmlns="http://www.w3.org/2000/svg" width="32" height="32"><path d="M12 0c-.886 0-1.6.714-1.6 1.6H7.2c-.886 0-1.6.714-1.6 1.6v9.7l-3.2 1.5 3.2 6.4V24l5.1 1.5c.175.058.332.1.5.1.168 0 .353-.055.5-.1L16 24l4.3 1.5c.165.054.331.1.5.1.169 0 .343-.052.5-.1l5.1-1.5v-3.2l3.2-6.4-3.2-1.5V3.2c0-.886-.713-1.6-1.6-1.6h-3.2C21.6.713 20.887 0 20 0h-8zM8.8 4.8h14.4v6.6l-5.6-2.6L16 8l-1.6.8-5.6 2.6V4.8zM5.6 27.2c-.17 0-.388.055-.5.1l-2.7.9v3.25l3.2-1.05 5.1 1.5c.175.058.332.1.5.1.168 0 .353-.053.5-.1l4.3-1.5 4.3 1.5c.165.054.331.1.5.1.169 0 .343-.05.5-.1l5.1-1.5 3.2 1.05V28.2l-2.7-.9a1.618 1.618 0 0 0-.5-.1c-.169 0-.337.047-.5.1l-5.1 1.5-4.3-1.5a1.588 1.588 0 0 0-.5-.1c-.169 0-.347.052-.5.1l-4.3 1.5-5.1-1.5c-.206-.078-.33-.1-.5-.1z"/></svg>