<svg xmlns="http://www.w3.org/2000/svg" width="32" height="32"><path d="m35.106 966.869 1.041 1.777c5.283-2.733 13.156-5.692 22.2-6.207 10.108-.576 21.666 1.984 32.001 11.334.627.562.832 1.534.482 2.295-.35.76-1.226 1.25-2.068 1.157-4.967-.589-7.932-.764-10.9.925-2.967 1.689-4.297 4.307-6.263 8.841-.342.774-1.226 1.276-2.077 1.182-4.967-.589-7.932-.763-10.9.926-2.745 1.562-4.11 3.991-5.852 7.925l17.002 29.025a3.068 3.068 0 0 1 2.041 1.495l6.057 10.338c.819 1.355.298 3.326-1.088 4.115-1.387.789-3.38.248-4.16-1.128l-6.056-10.34a2.987 2.987 0 0 1-.277-2.463l-17.017-29.051c-4.327-.48-7.144-.53-9.89 1.032-2.967 1.69-4.296 4.307-6.263 8.842-.342.773-1.226 1.276-2.077 1.182-4.967-.589-7.932-.764-10.9.925-2.967 1.689-4.296 4.307-6.263 8.841-.338.766-1.207 1.269-2.05 1.187-.843-.082-1.595-.742-1.775-1.559-2.93-13.302.613-24.437 6.136-32.821 4.942-7.501 11.414-12.837 16.46-16.008l-1.042-1.777z" overflow="visible" style="color:#000;text-indent:0;text-transform:none;direction:ltr;block-progression:tb;baseline-shift:baseline;display:inline;overflow:visible;visibility:visible;fill:#000;fill-opacity:1;stroke:none;marker:none;enable-background:accumulate" transform="matrix(.39024 0 0 .39024 -3.512 -375.166)"/></svg>