<svg xmlns="http://www.w3.org/2000/svg" width="32" height="32"><path d="M16 0a4.51 4.51 0 0 0-4.519 4.519A4.52 4.52 0 1 0 16.001 0zm-2.74 9.726c-.858.01-1.395.317-1.888.8l-6.043 6.06c-1.658 1.66.58 3.777 2.232 2.124l3.648-3.684v3.467h9.528v-3.485l3.757 3.757c1.507 1.598 3.805-.54 2.232-2.106l-6.116-6.134c-.502-.492-1.077-.792-1.924-.799h-5.427zm-2.051 10.545s-3.05 3.06-3.05 3.068c-.986.979-.732 2.707.182 3.647l4.284 4.446c1.64 1.641 3.84-.64 2.25-2.232l-2.704-2.705 2.631-2.63-3.593-3.594zm9.51 0-3.594 3.593 2.65 2.631-2.703 2.705c-1.6 1.593.599 3.873 2.249 2.232l4.264-4.446c.924-.94 1.177-2.668.2-3.647l-3.067-3.068z"/></svg>