<svg xmlns="http://www.w3.org/2000/svg" width="32" height="32"><path d="M13.544 3.604a2.126 2.126 0 0 0 0 4.25 2.117 2.117 0 0 0 2.118-2.118 2.123 2.123 0 0 0-2.118-2.132zm9.776 2.312c-1.019-.01-2.33.41-3.109 1.187l-4.564 4.565v-1.337c-.002-2.848-4.2-2.817-4.205 0v5.451h.015l-3.964 3.964c-.378.375-.423.39-1.156.39-.003.002-2.432 0-2.432 0C1.47 20.137.006 22.33 0 24.192c.006 1.857 1.47 4.206 4.13 4.205h4.31c1.026 0 2.26-.388 3.287-1.352l12.644-12.598c.266-.247.416-.32.886-.316 0 0 1.738-.01 3.123 0 1.499-.01 3.626-1.71 3.62-4.159.006-2.436-2.137-4.056-3.754-4.055H23.32zm.3 2.088h4.43c1.086 0 1.813 1.211 1.818 1.937-.005.713-.52 2.056-1.833 2.057h-2.672c-1.131-.001-1.633.158-2.283.811L10.33 25.543c-.509.523-1.163.727-1.997.72H4.13c-1.084.01-2.034-.906-2.027-2.102-.007-1.203.9-1.874 1.831-1.877h2.884c.846 0 1.398-.237 1.876-.72l12.96-12.96c.534-.529 1.06-.596 1.967-.6z"/></svg>