<svg xmlns="http://www.w3.org/2000/svg" width="32" height="32"><path d="M16.59 24.154C7.43 24.154 0 31.58 0 40.744V391.564c0 9.164 7.43 16.59 16.59 16.59h201.973v34.121h-77.246l-14.864 31.977-6.324 13.434h.078l-.078.16h271.742l-21.188-45.57h-77.242v-34.121H495.41c5.726 0 10.777-2.902 13.758-7.313a16.51 16.51 0 0 0 2.832-9.277V40.744c0-9.164-7.426-16.59-16.59-16.59H40Zm23.414 40h129.617l18.829.023-13.844 92.672-2.653 17.762-.734 4.645.043-.004-.023.164 20.602-2.578 48.934-6.121 29.863-3.641-49.894 83.161-5.02 8.367 7.637 4.847 72.504 46.039 6.293-8.89-59.996-47.23 63.442-95.406 8.527-12.825 5.313-7.82-.122.008.114-.168-25.668 1.446-58.531 3.304-21.805 1.168 26.848-78.922h231.726v304h-432V64.154Z" class="st0" style="opacity:1" transform="scale(.0625)"/></svg>