<svg xmlns="http://www.w3.org/2000/svg" width="32" height="32"><g style="opacity:1"><path d="M472 22.654H40c-22.09 0-40 17.91-40 40v304c0 22.094 17.91 40 40 40h178.582v31.102c0 13.875-10.657 25.426-24.485 26.543l-74.766 6.038a4 4 0 0 0-3.676 3.985v11.027a3.997 3.997 0 0 0 3.996 3.996h272.696c2.21 0 4-1.789 4-3.996v-11.027a4 4 0 0 0-3.676-3.985l-74.766-6.038c-13.828-1.118-24.485-12.668-24.485-26.543v-31.102H472c22.094 0 40-17.906 40-40v-304c0-22.089-17.906-40-40-40zm-432 344v-304h432v304H41.16Z" class="st0" style="fill:#374149" transform="scale(.0625)"/></g></svg>