<svg xmlns="http://www.w3.org/2000/svg" width="32" height="32"><path d="M1.066 0C.477 0 0 .477 0 1.066v29.868a1.066 1.066 0 1 0 2.133 0v-.357h27.734v.357a1.067 1.067 0 0 0 2.133 0V1.066a1.066 1.066 0 1 0-2.133 0v6.898H2.133V1.066C2.133.477 1.656 0 1.066 0zM4.15.711v6.4h6.4V.71h-6.4zm8.65 0v6.4H19.2V.71h-6.4zM2.134 10.098h27.734v8.107H2.133v-8.107zm19.317.853v6.4h6.4v-6.4h-6.4zm-17.3.071v6.4h6.399v-6.4h-6.4zm8.65 0v6.4h6.4v-6.4h-6.4zM2.133 20.338h27.734v8.107H2.133v-8.107zm2.016.853v6.4h6.4v-6.4h-6.4zm8.65 0v6.4H19.2v-6.4h-6.4z"/></svg>