<svg xmlns="http://www.w3.org/2000/svg" width="32" height="32"><path d="m25.595 28.11-5.578-16.886V4.762c0-.556-.474-1.237-1.03-1.237h-.984V1.237C18.003.68 17.529 0 16.973 0h-2.015c-.556 0-.984.68-.984 1.237v2.288h-1.03c-.557 0-.984.68-.984 1.237v6.604L6.405 28.11a.903.903 0 0 0 .6 1.129l.537.161-.519 1.725a.51.51 0 0 0 .34.633l.731.22a.51.51 0 0 0 .634-.34l.518-1.725.788.237a.906.906 0 0 0 1.128-.607l4.826-14.576 4.826 14.576c.144.48.65.751 1.128.607l.789-.237.517 1.724a.51.51 0 0 0 .635.341l.73-.22a.51.51 0 0 0 .342-.633l-.517-1.725.546-.161a.91.91 0 0 0 .611-1.129zm-9.63-22.34a2.014 2.014 0 1 1 0 4.028 2.014 2.014 0 0 1 0-4.029z"/></svg>