<svg xmlns="http://www.w3.org/2000/svg" width="32" height="32"><path d="m6.199 10.766 1.603-1.602L6.199 7.56l1.19-1.192 1.604 1.603 1.603-1.603 1.191 1.192-1.603 1.603 1.603 1.602-1.191 1.192-1.603-1.603-1.603 1.603-1.191-1.192zm3.669 9.29H8.103v2.085H6.018v1.765h2.085v2.085h1.765v-2.085h2.085v-1.765H9.868v-2.084zM22.935 7.504a1.026 1.026 0 0 0 0-2.05 1.026 1.026 0 0 0 0 2.05zm1.025 4.192a1.026 1.026 0 0 0-2.05 0 1.026 1.026 0 0 0 2.05 0zm-3.905-3.452v1.652h5.934V8.243h-5.934zm0 14.09h5.934V20.68h-5.934v1.652zm0 3.034h5.934v-1.652h-5.934v1.652zM32 5.825A5.825 5.825 0 0 0 26.175 0H5.825A5.825 5.825 0 0 0 0 5.825v20.35A5.825 5.825 0 0 0 5.825 32h20.35A5.825 5.825 0 0 0 32 26.175V5.825zm-3.107.389v8.621H17.165V3.107h8.621a3.107 3.107 0 0 1 3.107 3.107zM6.213 3.107h8.622v11.728H3.107V6.214a3.107 3.107 0 0 1 3.107-3.107zm-3.106 22.68v-8.622h11.728v11.728H6.214a3.107 3.107 0 0 1-3.107-3.107zm22.68 3.106h-8.622V17.165h11.728v8.621a3.107 3.107 0 0 1-3.107 3.107z"/></svg>