<svg xmlns="http://www.w3.org/2000/svg" width="32" height="32"><path d="M26.082 0H5.918a.904.904 0 0 0-.91.898v29.64c0 .496.408.9.91.9 0 0 5.155.562 10.682.562s9.482-.563 9.482-.563c.502 0 .91-.403.91-.899V.898a.904.904 0 0 0-.91-.898zm-14.49 29.786a.619.619 0 1 1 0-1.238.619.619 0 0 1 0 1.238zm1.726 0a.619.619 0 1 1 0-1.238.619.619 0 0 1 0 1.238zm4.083.144a.6.6 0 0 1-.6.6h-1.558a.6.6 0 0 1-.6-.6v-1.557a.6.6 0 0 1 .6-.6H16.8a.6.6 0 0 1 .6.6v1.557zm1.319-.144a.619.619 0 1 1 0-1.238.619.619 0 0 1 0 1.238zm1.725 0a.62.62 0 1 1 0-1.238.62.62 0 0 1 0 1.238zm4.158-3.126H7.147V3.051h17.456v23.61z"/></svg>