<svg xmlns="http://www.w3.org/2000/svg" width="32" height="32"><path d="M18.644 12.366a9.413 9.413 0 0 0-.919-7.43c.03.041-12.776 12.95-12.868 12.87 2.226 1.313 4.928 1.683 7.36 1.004-.017-.062 6.375-6.453 6.427-6.444zm-2.285-9.489C14.634 1.177 12.166.023 9.555.023 4.278.023 0 4.313 0 9.602c0 2.581 1.174 5.08 2.83 6.803.004 0 13.448-13.417 13.53-13.528zm13.513 25.414s.312-2.699-.466-3.477c-.052-.052-8.98-10.951-8.98-10.951l-6.643 6.643 10.9 9.03c.726.83 3.528.416 3.528.416l2.232 2.025L32 30.419l-2.128-2.128z"/></svg>