<svg xmlns="http://www.w3.org/2000/svg" width="32" height="32"><path d="M26.16 13.4 18.6 5.839a1.189 1.189 0 0 1 1.68-1.68l.84.84 3.782-3.78a4.157 4.157 0 0 1 5.88 0 4.157 4.157 0 0 1 0 5.879l-3.78 3.782.84.84a1.188 1.188 0 1 1-1.681 1.68zM8.398 29.482c-.735.735-2.572-.787-3.36 0l-1.996 1.996a1.781 1.781 0 1 1-2.52-2.52l1.996-1.996c.788-.787-.735-2.625 0-3.36.734-.737 16.067-16.068 16.067-16.068l5.88 5.881L8.398 29.482zm14.387-16.067-4.2-4.201S4.932 22.866 4.198 23.602c-.735.735.736 2.624 0 3.36l-2.836 2.835a.594.594 0 0 0 .84.84L5.038 27.8c.736-.736 2.625.735 3.36 0l14.387-14.386z"/></svg>