<svg xmlns="http://www.w3.org/2000/svg" width="32" height="32"><path d="M25.777 10.667V5.333H24l-1.778-1.777V1.778C22.222.793 21.43 0 20.444 0h-16C3.46 0 2.667.793 2.667 1.778v28.444c0 .889.889 1.778 1.777 1.778h16c.89 0 1.779-.889 1.779-1.778v-8.889h.888c.889 0 .889.89.889.89v3.554c0 1.779.889 2.667 2.666 2.667 1.778 0 2.667-.888 2.667-2.667V16c0-1.778-3.556-3.555-3.556-5.333zm-7.11 0H6.222V3.556h12.445v7.11zm8.889 15.11c0 .89-.89.89-.89.89s-.888 0-.888-.89v-4.444c0-.889-.889-1.777-1.778-1.777h-1.777V8.889H24v2.667c0 1.777 3.556 3.555 3.556 5.333v8.889z"/></svg>