<svg xmlns="http://www.w3.org/2000/svg" width="32" height="32"><path d="M1.332 0a1.28 1.28 0 0 0-.937.395A1.282 1.282 0 0 0 0 1.333v8c0 .362.132.674.395.938.264.263.576.396.937.396h8.002c.36 0 .673-.133.937-.397a1.28 1.28 0 0 0 .395-.936v-8c0-.362-.132-.675-.395-.939A1.28 1.28 0 0 0 9.334 0H1.332zm21.334 0c-.36 0-.674.132-.938.395a1.282 1.282 0 0 0-.395.939v8c0 .36.132.673.395.937.264.263.577.396.938.396h8c.362 0 .674-.133.937-.397A1.28 1.28 0 0 0 32 9.335v-8c0-.362-.133-.675-.397-.939A1.28 1.28 0 0 0 30.666 0h-8zM1.332 13.333c-.36 0-.673.133-.937.397a1.28 1.28 0 0 0-.395.936v2.667c0 2.792.683 5.306 2.051 7.542 1.369 2.236 3.271 3.983 5.709 5.24C10.197 31.372 12.944 32 16 32s5.802-.628 8.24-1.885c2.437-1.257 4.34-3.004 5.708-5.24C31.316 22.64 32 20.125 32 17.334v-2.667c0-.362-.133-.674-.397-.937a1.28 1.28 0 0 0-.937-.397h-8c-.36 0-.674.133-.938.397a1.28 1.28 0 0 0-.395.937v2.667c0 .722-.163 1.347-.49 1.875-.326.527-.698.923-1.114 1.187-.417.264-.91.472-1.479.625-.57.152-1.014.243-1.333.27-.32.028-.625.042-.917.042-.292 0-.597-.014-.917-.042-.32-.027-.764-.118-1.333-.27a5.334 5.334 0 0 1-1.48-.625c-.416-.264-.788-.66-1.114-1.187-.327-.528-.49-1.153-.49-1.875v-2.667a1.28 1.28 0 0 0-.395-.937 1.28 1.28 0 0 0-.937-.397H1.332z"/></svg>