<svg xmlns="http://www.w3.org/2000/svg" width="32" height="32"><path d="M25.823.775c-.479.003-1.013.466-1.16.94l-.219.504-.195.457-.957 1.393-2.855 3.573c1.243 1.329 2.79 2.329 4.684 3.158l.936-.74.456-.306h.219l.651.347c1.46.787 3.529.656 4.227-1.023l.153-.369c.242-.589.477-1.374-.262-1.764l-.238-.043c-.677-.131-1.438-.068-1.938-.588l-.763-.829c-.61-.652-1.373-1.39-1.982-1.806l.065-.61.13-.566c.132-.504-.195-1.46-.694-1.68a.664.664 0 0 0-.258-.048zM.873 6.026l-.498.025c-.764 0-.22 3.221.39 5.184.283.87.741 1.24.787 1.413l-.11.151C-.15 15.021.308 17.264.875 19.573c.173.72.913 1.743.304 3.16l-.304.715c-.676 1.155-.85 3.14-.52 4.446l.216.847c.283 1.133.871 2.484 2.2 2.484.567 0 1.37-.242 1.155-.936l-.699-2.135c-.283-.847 0-4.964.7-4.748l-.023 2.288c.28 1.634.935 3.876 1.74 4.203l1.132.476c1.523.656 1.372-1.39.806-2.22l-.717-1.46c-.35-.498-.372-1.456-.283-1.697l.106-.304 1.353-3.507.239-1.545c.087-.566-.11-1.438.629-1.547l1.637-.217c2.285 1.219 4.311 1.786 7.252 2.547l.368.957c-.065 1.764-.304 2.55-.414 3.812l-.153 1.852c-.236 1.283-.63 3.092 2.095 3.003.893.132 1.827-.892.998-1.61-1.176-.61-.957-1.371-.782-2.201l.956-4.375.22 4.528c.042 2.31-.567 4.335 3.156 3.748.892-.436.567-1.35.11-1.591-.72-.218-1.24-.283-1.219-1.197l-.044-.893a22.512 22.512 0 0 1 .433-5.664l.22-1.046c.545-2.588 1.176-3.549.608-7.88-2.09-.762-3.354-1.655-4.814-3.115l-1.26.783c-.631.393-1.24.85-1.96 1.044l-1.938.525-11.063-.11C1.787 11.342 2.16 6.027.874 6.027z"/></svg>