<svg xmlns="http://www.w3.org/2000/svg" width="32" height="32"><path d="M10.526 14.774a7.814 7.814 0 0 0 2.234 4.604 7.824 7.824 0 0 0 4.598 2.25l-.13 4.387-4.384.112a7.813 7.813 0 0 0-2.235-4.603 7.824 7.824 0 0 0-4.597-2.25l.126-4.385 4.388-.115zM32 .044 26.42 2 11.944 16.433c.374.8.893 1.55 1.552 2.212a7.745 7.745 0 0 0 2.005 1.46L30.03 5.618 32 .045zM3.328 28.63a1.949 1.949 0 1 1-2.761 2.751 1.949 1.949 0 0 1 2.76-2.75zm1.413.322 6.377-5.074a7.902 7.902 0 0 0-3.061-2.981l-5.049 6.318c.385.145.744.373 1.055.684.309.308.534.67.678 1.053z"/></svg>