<svg xmlns="http://www.w3.org/2000/svg" width="32" height="32"><path d="M25.412 0a6.588 6.588 0 0 0-6.588 6.588c0 .826.193 1.626.47 2.353l-15.53 15.53v-7.53c0-2.823 1.883-3.764 1.883-3.764l1.882 1.882V7.53c0-1.882-.94-.94-1.882 0C0 13.178 0 13.126 0 16.942v13.177C0 31.058.94 32 1.882 32H15.06c3.817 0 6.902-3.137 9.412-5.647.941-.94 1.882-1.858 0-1.882h-7.53l1.883 1.882s-.942 1.883-3.765 1.883h-7.53l15.53-15.53c.728.277 1.528.471 2.353.471a6.588 6.588 0 0 0 0-13.177zm0 3.765a2.824 2.824 0 1 1 0 5.647 2.824 2.824 0 0 1 0-5.647z"/></svg>