<svg xmlns="http://www.w3.org/2000/svg" width="32" height="32"><path d="M32 12.586c0-1.067-.844-1.93-1.9-1.974l.004-.012h-9.157l-3.07-9.211h-.005a1.976 1.976 0 0 0-1.883-1.39 1.98 1.98 0 0 0-1.927 1.533h-.007L11.031 10.6H2.027c-.015 0-.029-.005-.044-.005A1.982 1.982 0 0 0 0 12.578c0 .603.274 1.136.7 1.5l-.007.01 7.704 5.922-2.868 9.179c-.116.252-.186.53-.186.828 0 1.095.888 1.982 1.983 1.982.45 0 .86-.155 1.193-.407.004 0 .008.01.012.01l7.478-5.733 7.211 5.542a1.983 1.983 0 0 0 3.394-1.393c0-.24-.05-.466-.127-.678h.014l-2.905-9.286 7.59-5.866-.002-.002c.492-.36.816-.938.816-1.596z"/></svg>