<svg xmlns="http://www.w3.org/2000/svg" width="32" height="32"><path d="M28.86.096c-.128.059-.465.358-.839.743-.71.738-1.053.989-1.513 1.107-.738.187-1.347.053-2.668-.605-.764-.38-.956-.46-1.176-.46-.24-.005-.278.011-.385.172-.155.224-.208.641-.16 1.261.043.68.182 1.246.62 2.577.428 1.305.54 1.765.55 2.267.011.503-.1.834-.357 1.096-.294.289-.551.369-1.877.588-2.042.342-3.363.732-4.619 1.358-2.491 1.246-4.368 3.464-5.538 6.554-.3.792-.519 1.524-.995 3.33-.62 2.359-.673 2.476-1.625 3.47-1.235 1.294-2.17 1.898-4.336 2.797-1.112.46-1.593.727-1.946 1.069-.475.46-.657.903-.727 1.737-.08 1.01.487 1.834 1.69 2.454.25.128.61.278.802.326.497.129.908.054.908-.166 0-.042-.25-.342-.556-.668-.775-.818-.962-1.25-.759-1.785.166-.423.898-1 1.77-1.39a130.16 130.16 0 0 1 3.421-1.369c1.385-.508 1.99-.486 2.7.112l.257.214 10.462-.027-.016-.4c-.048-1.043-.32-1.252-1.738-1.332-.4-.021-.748-.053-.759-.069-.048-.042.16-.535.508-1.219.62-1.213 1.47-2.368 1.957-2.651.22-.129.278-.14.679-.118.502.027.786.144 1.042.438.214.246.273.45.359 1.267.053.498.112.78.235 1.091.61 1.577 2.427 3.32 3.443 3.293.347-.01.502-.112.695-.486.17-.337.192-.717.058-.979-.048-.096-.326-.417-.609-.716-1.267-1.315-1.657-2.358-1.657-4.432 0-2.106.411-3.651 1.315-4.924.128-.182.561-.684.962-1.122 1.278-1.396 1.53-1.936 1.53-3.278-.006-.775-.06-1.186-.284-2.02-.38-1.438-.251-2.133.55-3.032.546-.614.594-.828.401-1.85a28.98 28.98 0 0 1-.406-2.587C30.085.502 29.978.23 29.6.07c-.236-.101-.482-.09-.738.027z"/></svg>