<svg xmlns="http://www.w3.org/2000/svg" width="32" height="32"><path d="M24.467 8.467c-3.557 0-6.82 3.34-8.467 5.36-1.648-2.02-4.91-5.36-8.467-5.36C3.38 8.467 0 11.847 0 16c0 4.154 3.38 7.533 7.533 7.533 3.557 0 6.819-3.34 8.467-5.36 1.647 2.02 4.91 5.36 8.467 5.36C28.62 23.533 32 20.153 32 16c0-4.154-3.38-7.533-7.533-7.533zM7.533 20.917A4.923 4.923 0 0 1 2.616 16a4.923 4.923 0 0 1 4.917-4.918c2.527 0 5.43 3.08 6.85 4.918-1.42 1.839-4.324 4.917-6.85 4.917zm16.934 0c-2.527 0-5.432-3.08-6.85-4.919 1.415-1.838 4.314-4.916 6.85-4.916a4.923 4.923 0 0 1 4.917 4.917 4.923 4.923 0 0 1-4.917 4.918z"/></svg>