<svg xmlns="http://www.w3.org/2000/svg" width="32" height="32"><path d="M25 21.5c.7 0 1.2-.6 1.2-1.2V18c0-.7-.6-1.2-1.2-1.2s-1.2.6-1.2 1.2v2.3c0 .6.5 1.2 1.2 1.2zM18 22.5c.2.4.7.6 1.1.6.2 0 .4-.1.6-.2.6-.3.8-1.1.5-1.7l-1.2-2c-.3-.6-1.1-.8-1.7-.5-.6.3-.8 1.1-.5 1.7l1.2 2.1zM12.1 26.1l2 1.2c.2.1.4.2.6.2.4 0 .9-.2 1.1-.6.3-.6.1-1.4-.5-1.7l-2-1.2c-.6-.3-1.4-.1-1.7.5-.3.5-.1 1.2.5 1.6z" style="fill:#000" transform="translate(-9.974 -9.974) scale(1.03896)"/><path d="M39.2 30.8h-4.8c-.6-4.6-4.6-8.2-9.4-8.2-4.8 0-8.8 3.6-9.4 8.2h-4.8c-.7 0-1.2.6-1.2 1.2s.6 1.2 1.2 1.2h28.4c.7 0 1.2-.6 1.2-1.2s-.5-1.2-1.2-1.2zM25 25.1c3.4 0 6.3 2.5 6.8 5.7H18.2c.5-3.2 3.4-5.7 6.8-5.7z" style="fill:#000" transform="translate(-9.974 -9.974) scale(1.03896)"/><path d="M35.3 27.4c.2 0 .4-.1.6-.2l2-1.2c.6-.3.8-1.1.5-1.7-.3-.6-1.1-.8-1.7-.5l-2 1.2c-.6.3-.8 1.1-.5 1.7.2.5.6.7 1.1.7zM30.3 22.9c.2.1.4.2.6.2.4 0 .9-.2 1.1-.6l1.2-2c.3-.6.1-1.4-.5-1.7-.6-.3-1.4-.1-1.7.5l-1.2 2c-.3.5-.1 1.3.5 1.6z" style="fill:#000" transform="translate(-9.974 -9.974) scale(1.03896)"/></svg>