<svg xmlns="http://www.w3.org/2000/svg" width="32" height="32"><path d="m27.146.389-.43 2.576c.344.01.673.075.979.19l.434-2.602-.983-.164zm3.596.261L28.36 3.507c.274.194.514.433.709.706l2.437-2.925-.764-.638zm-6.147.595-.89.445.995 1.991c.254-.217.542-.391.857-.514l-.962-1.922zm-.066 2.877c-.116 0-.232.007-.348.019-1.627.16-2.6 1.4-2.815 1.703l-2.07 2.484-.968-.712-1.352 1.837c-5.011-2.534-11.263-1.157-14.7 3.517-3.83 5.209-2.713 12.535 2.495 16.365 5.209 3.83 12.536 2.712 16.366-2.496 3.256-4.428 2.935-10.386-.436-14.426l1.457-1.98-1.255-.924 2.02-2.424.06-.078c.006-.008.57-.81 1.407-.885.615-.057 1.306.29 2.045 1.03l1.408-1.409c-1.076-1.075-2.19-1.621-3.314-1.62zm4.927.92c.11 0 .174.497.174.995H32v-.995h-2.544zM29.4 7.097c-.13.31-.313.594-.534.842l2.508 1.432.493-.864-2.467-1.41zm-5.388.278-1.71 1.71.705.704 1.627-1.628a2.988 2.988 0 0 1-.622-.786zm1.013 1.16v2.982h.997V8.894c0-.06-.499-.183-.997-.359zm3.108.001a2.98 2.98 0 0 1-.963.353l1.546 2.318.83-.552-1.413-2.119z"/></svg>