<svg xmlns="http://www.w3.org/2000/svg" width="32" height="32"><path d="M15.995 0C7.173 0 0 7.173 0 15.995 0 24.816 7.173 32 15.995 32S32 24.816 32 15.995C32 7.173 24.817 0 15.995 0zm0 2.482c7.451 0 13.513 6.061 13.513 13.513 0 7.451-6.062 13.513-13.513 13.513S2.482 23.446 2.482 15.995c0-7.452 6.062-13.513 13.513-13.513zm-8.091 6.13.75 1.325 5.6 5.86c-.008.065-.021.13-.021.198 0 .97.79 1.762 1.762 1.762.971 0 1.762-.791 1.762-1.762 0-.972-.79-1.762-1.762-1.762-.153 0-.297.026-.438.062l-6.11-5.109-1.543-.573z"/></svg>