<svg xmlns="http://www.w3.org/2000/svg" width="32" height="32"><path d="M23.492 20.269a5.83 5.83 0 0 0-3.113.9L17.5 19.787h1.798L24.98 7.1l.095-7.1-8.426 14.485h-.568L7.276 0l-.284.757v6.249l5.586 12.023 1.515.664-2.177 1.42-.164.13.012.013a5.866 5.866 0 1 0 2.61 4.879c-.001-.973-.242-1.888-.66-2.696l2.13-2.09 2.534 1.918A5.865 5.865 0 0 0 23.492 32a5.865 5.865 0 1 0 0-11.732zM8.507 28.97a2.838 2.838 0 0 1-2.835-2.836A2.838 2.838 0 0 1 8.507 23.3a2.838 2.838 0 0 1 2.836 2.835 2.84 2.84 0 0 1-2.836 2.836zm7.669-9.373a1.705 1.705 0 1 1 .002-3.41 1.705 1.705 0 0 1-.002 3.41zm7.316 9.373a2.839 2.839 0 0 1-2.835-2.836 2.838 2.838 0 0 1 2.835-2.835 2.839 2.839 0 0 1 2.836 2.835 2.84 2.84 0 0 1-2.836 2.836z"/></svg>