<svg xmlns="http://www.w3.org/2000/svg" width="32" height="32"><path d="M66.665 0H21.909c-6.335 0-11.495 5.155-11.495 11.491v77.018c0 6.335 5.159 11.491 11.495 11.491H78.09c6.344 0 11.495-5.155 11.495-11.491V20.834L66.665 0zm0 8.333 14.585 12.5H69.824a3.161 3.161 0 0 1-3.16-3.158V8.333zM81.25 88.509a3.162 3.162 0 0 1-3.16 3.158H21.909a3.161 3.161 0 0 1-3.16-3.158V11.491a3.162 3.162 0 0 1 3.16-3.158h36.426v9.343c0 6.335 5.154 11.491 11.489 11.491H81.25v59.342z" style="fill:#000" transform="scale(.32)"/><path d="M34.375 71.875H23.96V61.458h10.415v10.417zm-8.335-2.083h6.25v-6.25h-6.25v6.25zM34.375 88.542H23.96V78.125h10.415v10.417zm-8.335-2.084h6.25v-6.25h-6.25v6.25zM37.5 16.667h27.085v4.167H37.5zM37.5 33.333H75V37.5H37.5zM37.5 50H75v4.167H37.5zM37.5 66.667H75v4.167H37.5zM37.5 83.333H75V87.5H37.5zM26.04 13.542v6.25h6.25v-1.388h2.085v3.471H23.96V11.458h10.415v3.272H32.29v-1.188z" style="fill:#000" transform="scale(.32)"/><path d="M38.224 11.723c-.265-.269-.775-.262-1.031-.002l-5.735 5.67-2.954-2.944c-.271-.267-.781-.271-1.042-.004a.74.74 0 0 0-.008 1.036s3.335 3.357 3.402 3.426c.134.14.344.22.58.22a.81.81 0 0 0 .572-.21l6.215-6.152a.744.744 0 0 0 .001-1.04zM26.04 30.208v6.25h6.25v-1.505h2.085v3.589H23.96V28.125h10.415v3.157H32.29v-1.074z" style="fill:#000" transform="scale(.32)"/><path d="M38.224 28.276c-.265-.269-.775-.263-1.031-.002l-5.735 5.67L28.503 31c-.273-.269-.773-.273-1.042-.008a.743.743 0 0 0-.008 1.04c.344.346 3.359 3.381 3.402 3.422a.801.801 0 0 0 .58.224.818.818 0 0 0 .572-.214l6.215-6.153a.739.739 0 0 0 .002-1.035zM26.04 46.875v6.25h6.25v-1.209h2.085v3.292H23.96V44.792h10.415v3.454H32.29v-1.371z" style="fill:#000" transform="scale(.32)"/><path d="M38.226 45.241c-.267-.271-.771-.269-1.034-.008l-5.735 5.674-2.954-2.944c-.273-.269-.773-.273-1.042-.008a.743.743 0 0 0-.008 1.04c.344.346 3.359 3.381 3.402 3.422a.801.801 0 0 0 .58.224.818.818 0 0 0 .572-.214l6.215-6.152a.74.74 0 0 0 .004-1.034z" style="fill:#000" transform="scale(.32)"/></svg>