<svg xmlns="http://www.w3.org/2000/svg" width="32" height="32"><path d="M20.82 16.384v11.158c0 .76-.487 1.378-1.083 1.378h-7.474c-.597 0-1.082-.619-1.082-1.378V16.384c0-.76.485-1.378 1.082-1.378h7.474c.596 0 1.082.618 1.082 1.378zM23.8 29.773c0 .05-.008 1.367-1.783 2.185l-.091.042H10.073l-.09-.042c-1.777-.818-1.784-2.135-1.784-2.191 0-.102-.022-12.746 0-14.952.021-2.096 2.258-2.473 3.048-2.888V8.092h1.77v-.705h.644c.135-5.641.873-6.085 1.7-6.63v-.43h.37V0h.539v.328h.364v.425c.826.54 1.571.979 1.706 6.634h.645v.705h1.769v3.835c.79.415 3.026.792 3.047 2.888.022 2.207 0 14.85 0 14.958zm-4.048-17.846h.302V8.64h-.302v3.287zm-.757 0h.302V8.64h-.302v3.287zm-1.031 0h.301V8.64h-.301v3.287zm-1.006 0h.302V8.64h-.302v3.287zM15.926 8.64v3.287h.303V8.64h-.303zm-1.033 3.287h.302V8.64h-.302v3.287zm-1.032 0h.302V8.64h-.302v3.287zm-1.031 0h.301V8.64h-.301v3.287zm-.885 0h.302V8.64h-.302v3.287zm9.329 4.457c0-1.01-.69-1.832-1.538-1.832h-7.473c-.847 0-1.537.821-1.537 1.832v11.158c0 1.01.69 1.832 1.537 1.832h7.474c.847 0 1.537-.821 1.537-1.832V16.384z"/></svg>