<svg xmlns="http://www.w3.org/2000/svg" width="32" height="32"><g transform="matrix(.3709 0 0 .3709 -2.58 -2.875)"><path d="M57.566 60.932a14.745 14.745 0 0 1-7.458 2.017c-2.698 0-5.227-.727-7.405-1.986L28.58 85.422a42.943 42.943 0 0 0 21.517 5.742 42.947 42.947 0 0 0 21.586-5.783L57.566 60.932zM42.756 35.21 28.538 10.618c-12.9 7.458-21.58 21.35-21.58 37.322l.001.06h28.337c0-6 3.004-10.235 7.46-12.79zM71.726 10.692 57.514 35.241C61.94 37.803 64.921 42 64.921 48h28.313s.002-.007.002-.044c0-15.941-8.649-29.796-21.51-37.264z"/><circle cx="50.108" cy="48.135" r="7.454"/></g></svg>