<svg xmlns="http://www.w3.org/2000/svg" width="32" height="32"><path d="M67.217 22.427a33.292 33.292 0 0 0-16.859-4.575c-11.685.001-23.107 6.099-29.483 17.01-9.496 16.243-4.163 37.046 11.938 46.452a33.277 33.277 0 0 0 16.85 4.571 34.141 34.141 0 0 0 29.466-16.988c9.51-16.277 4.177-37.068-11.912-46.47zm-1.753 2.996L54.646 43.934c-2.805-1.64-6.28-1.639-9.118-.003L35.08 25.405c9.453-5.449 21.035-5.445 30.384.018zM34.557 78.312c-9.349-5.463-15.039-15.547-14.93-26.463l21.267.012a9.082 9.082 0 0 0 4.479 7.941l-10.816 18.51zM46.92 57.156c-2.892-1.689-3.85-5.426-2.145-8.344 1.709-2.923 5.434-3.923 8.324-2.233 2.89 1.689 3.848 5.424 2.14 8.348-1.705 2.918-5.43 3.919-8.319 2.229zm18.018 21.172L54.489 59.807a9.282 9.282 0 0 0 4.635-7.932l21.267.009a30.91 30.91 0 0 1-15.453 26.444z" style="fill:none" transform="matrix(.42355 0 0 .42355 -5.15 -5.971)"/><path d="M17.34 13.757c-1.224-.715-2.802-.292-3.525.946-.723 1.236-.317 2.818.908 3.534 1.224.716 2.801.292 3.524-.944.723-1.238.317-2.82-.907-3.536z"/><path d="M24.098 2.065c-2.427-1.42-5.106-2.17-8.07-2.17V-.1c-5.65.054-10.926 3.155-13.8 8.072C.056 11.687-.554 16.004.512 20.155a15.793 15.793 0 0 0 7.38 9.786 15.845 15.845 0 0 0 7.992 2.163c5.706 0 11.01-3.08 13.905-8.037 4.49-7.685 1.916-17.556-5.691-22.002zm4.266 21.145a14.46 14.46 0 0 1-12.48 7.195 14.1 14.1 0 0 1-7.137-1.936C1.927 24.485-.332 15.674 3.69 8.794A14.473 14.473 0 0 1 16.178 1.59c2.434 0 4.894.624 7.14 1.938 6.816 3.982 9.075 12.788 5.046 19.682z"/><path d="m17.995 12.637 4.582-7.84c-3.96-2.314-8.866-2.316-12.87-.008l4.426 7.846a3.845 3.845 0 0 1 3.862.002zM19.892 16a3.932 3.932 0 0 1-1.963 3.36l4.425 7.845a13.09 13.09 0 0 0 6.545-11.2L19.892 16zM12.17 15.994l-9.007-.004c-.047 4.623 2.363 8.894 6.323 11.208l4.581-7.84a3.846 3.846 0 0 1-1.897-3.364z"/></svg>