<svg xmlns="http://www.w3.org/2000/svg" width="32" height="32"><path d="M22.687 0H9.313C8.61 0 8.04.57 8.04 1.273v29.454c0 .703.57 1.273 1.273 1.273h13.374c.703 0 1.273-.57 1.273-1.273V1.273C23.96.57 23.39 0 22.687 0zM16 4.29a3.016 3.016 0 0 1-3.018-3.017h6.035A3.017 3.017 0 0 1 16 4.291zM4.776 2.548h1.99V6.05h-1.99a1.71 1.71 0 0 1-1.711-1.712V4.26c0-.946.765-1.713 1.71-1.713zm0 5.881h1.99v3.502h-1.99a1.71 1.71 0 0 1-1.711-1.711v-.08a1.71 1.71 0 0 1 1.71-1.71zm0 5.88h1.99v3.503h-1.99a1.71 1.71 0 0 1-1.711-1.71v-.08c0-.946.765-1.713 1.71-1.713zm0 5.881h1.99v3.503h-1.99a1.712 1.712 0 0 1-1.711-1.712v-.08a1.71 1.71 0 0 1 1.71-1.71zm0 5.882h1.99v3.501h-1.99a1.71 1.71 0 0 1-1.711-1.71v-.08c0-.946.765-1.711 1.71-1.711zM27.224 2.547h-1.99V6.05h1.99c.946 0 1.711-.766 1.711-1.713V4.26c0-.945-.765-1.712-1.71-1.712zm0 5.881h-1.99v3.502h1.99a1.71 1.71 0 0 0 1.711-1.711v-.08a1.71 1.71 0 0 0-1.71-1.71zm0 5.88h-1.99v3.503h1.99a1.71 1.71 0 0 0 1.711-1.711v-.08c0-.945-.765-1.712-1.71-1.712zm0 5.881h-1.99v3.503h1.99c.946 0 1.711-.767 1.711-1.712v-.08a1.71 1.71 0 0 0-1.71-1.71zm0 5.882h-1.99v3.501h1.99a1.71 1.71 0 0 0 1.711-1.71v-.08a1.71 1.71 0 0 0-1.71-1.711z"/></svg>