<svg xmlns="http://www.w3.org/2000/svg" width="32" height="32"><path d="M26.413 12.438c.229-.197.47-.382.72-.551 3.417-2.301 8.444-1.729 14.939 1.703a2.264 2.264 0 1 1-2.116 4.005c-4.76-2.515-8.414-3.209-10.286-1.957-1.365.914-1.846 2.996-1.995 4.488l-1.264-.584.002-7.104zM32.915 52.248c-1.551-2.793-3.046-5.494-4.322-8.093l-6.223-2.878c1.633 4.232 4.038 8.577 6.583 13.167 5.955 10.743 12.11 21.851 8.554 32.117-1.167 3.366-3.464 5.95-6.64 7.472-3.668 1.759-8.155 1.914-12.307.428-4.217-1.509-7.789-4.446-10.331-8.502-2.43-3.874-3.742-8.555-3.698-13.181.079-7.993 4.346-14.389 8.51-19.591.586-.73 1.408-1.614 2.275-2.547 2.578-2.771 5.609-6.027 6.693-9.528l-4.184-1.936c-.471 2.625-3.51 5.892-5.825 8.378-.928.997-1.805 1.94-2.496 2.803-2.998 3.743-5.097 6.987-6.61 10.203C.989 64.617.042 68.598.001 72.731c-.054 5.484 1.505 11.035 4.388 15.633 3.088 4.924 7.459 8.507 12.643 10.362a21.682 21.682 0 0 0 7.29 1.274c2.974 0 5.889-.631 8.502-1.884 4.291-2.056 7.39-5.538 8.96-10.072 4.22-12.175-2.735-24.724-8.869-35.796zM32.365 40.2l-15.021-6.944a2.263 2.263 0 0 0-3.005 1.105 2.263 2.263 0 0 0 1.104 3.005l3.59 1.66 4.186 1.936.355.164 6.225 2.878.666.307a2.268 2.268 0 0 0 3.006-1.105 2.262 2.262 0 0 0-1.106-3.006zM31.415 38.803c-.318 0-.642-.066-.95-.21l-15.021-6.944a2.265 2.265 0 0 1 1.901-4.111l15.021 6.944a2.261 2.261 0 0 1 1.104 3.006 2.261 2.261 0 0 1-2.055 1.315zM31.415 33.085c-.318 0-.642-.066-.95-.21l-15.021-6.944a2.264 2.264 0 0 1-1.104-3.006 2.263 2.263 0 0 1 3.005-1.105l15.021 6.943a2.262 2.262 0 0 1 1.104 3.007 2.26 2.26 0 0 1-2.055 1.315zM21.163 17.068l4.529 2.095V0h-4.529zM32.365 23.048 26.9 20.521l-4.529-2.094-5.027-2.324a2.263 2.263 0 1 0-1.901 4.11l15.021 6.944a2.268 2.268 0 0 0 3.006-1.105 2.259 2.259 0 0 0-1.105-3.004z" style="fill:#010101" transform="translate(9.075) scale(.32)"/></svg>