<svg xmlns="http://www.w3.org/2000/svg" width="32" height="32"><path d="m29.096 11.799-2.623-6.773c-.49-1.297-1.563-2.4-3.591-2.41H9.097c-2.02.01-3.092 1.113-3.591 2.41l-2.624 6.773C1.84 11.933-.003 13.157 0 15.476V24.1h2.56v2.753c-.007 3.394 4.796 3.354 4.795 0V24.1h17.268v2.753c.01 3.354 4.814 3.394 4.817 0V24.1H32v-8.624c-.008-2.319-1.853-3.543-2.904-3.677zM5.033 18.896c-1.227.003-2.22-1.02-2.215-2.278-.006-1.268.988-2.292 2.215-2.281 1.223-.011 2.216 1.013 2.214 2.28.002 1.26-.992 2.282-2.214 2.279zM16 11.736H5.613l1.978-5.334c.24-.758.61-1.3 1.485-1.312h13.849c.862.013 1.233.554 1.483 1.312l1.979 5.333H16zm10.968 7.16c-1.236.003-2.23-1.02-2.236-2.278.006-1.268 1-2.292 2.236-2.281 1.214-.011 2.207 1.013 2.215 2.28-.008 1.26-1 2.282-2.215 2.279zM5.033 16.617"/></svg>