<svg xmlns="http://www.w3.org/2000/svg" width="32" height="32"><path d="M21.208.242V.165A.165.165 0 0 0 21.044 0h-2.306a.165.165 0 0 0-.166.165v.063h-7.468A2.494 2.494 0 0 0 8.613 2.72v1.852h-.106a.165.165 0 0 0-.164.165V5.78c0 .09.073.164.164.164h.106v1.748h-.106a.165.165 0 0 0-.164.165v.623c0 .09.073.165.164.165h.106v1.572h-.106a.165.165 0 0 0-.164.165v.623c0 .09.073.164.164.164h.106v18.34A2.495 2.495 0 0 0 11.104 32h9.84c1.374 0 2.713-1.118 2.713-2.491V2.719c0-1.285-1.173-2.346-2.449-2.477zm-5.073 1.251a.263.263 0 1 1 0 .526.263.263 0 0 1 0-.526zM14.99 2.685h2.287c.172 0 .313.122.313.272 0 .15-.141.272-.313.272h-2.287c-.172 0-.312-.122-.312-.272 0-.15.14-.272.312-.272zm1.155 28.373a1.347 1.347 0 1 1 0-2.693 1.347 1.347 0 0 1 0 2.693zm6.407-3.579H9.717V4.77h12.836v22.71z"/></svg>