<svg xmlns="http://www.w3.org/2000/svg" width="32" height="32"><path d="M24.277 17.446c-1.237-1.42-2.698-1.123-4.383-2.688-.836-.777-.757-5.61-.757-5.61s-.062-4.192.796-5.051c.594-.592 1.636-.745 2.243-1.341a1.478 1.478 0 0 0 .33-.483c.01-.02.02-.034.027-.053.053-.14.082-.304.097-.48.005-.046.026-.084.026-.129 0-.008-.004-.015-.005-.023.001-.013.005-.022.005-.034 0-.03-.023-.045-.026-.073C22.56.655 21.89 0 21.045 0h-10.09C10.11 0 9.439.655 9.37 1.481c-.003.027-.026.042-.026.073 0 .012.004.021.005.034-.001.008-.005.015-.005.023 0 .045.022.083.026.129.015.176.043.34.097.48.006.019.017.034.027.053a1.467 1.467 0 0 0 .33.483c.607.596 1.649.749 2.242 1.341.859.859.796 5.05.796 5.05s.08 4.834-.756 5.61c-1.685 1.566-3.146 1.268-4.382 2.69-.876 1.006-.715 2.8-.715 2.8h8.297v7.311l.62 4.442h.149l.62-4.442v-7.311h8.297s.16-1.794-.715-2.8z"/></svg>