<svg xmlns="http://www.w3.org/2000/svg" width="32" height="32"><path d="M29.474 0H2.526C1.317 0 .336.98.336 2.19v27.62c0 1.21.981 2.19 2.19 2.19h26.948c1.209 0 2.19-.98 2.19-2.19V2.19c0-1.21-.981-2.19-2.19-2.19zm1.852 29.81c0 1.024-.83 1.853-1.852 1.853H2.526a1.853 1.853 0 0 1-1.852-1.852V2.189c0-1.023.829-1.852 1.852-1.852h26.948c1.023 0 1.852.83 1.852 1.852v27.622z"/><path d="M27.98 1.684h-9.285v2.583c2.02.993 3.152 2.946 3.152 5.188 0 3.245-2.6 5.885-5.845 5.885-3.244 0-5.86-2.64-5.86-5.885 0-2.243 1.142-4.195 3.163-5.188V1.684H3.977c-1.112 0-2.124.994-2.124 2.105v24.788c0 1.112 1.012 2.076 2.124 2.076h24.002c1.112 0 2.168-.964 2.168-2.076V3.789c0-1.111-1.056-2.105-2.168-2.105z"/><path d="M15.673 10.344v4.14h.673v-4.14a.974.974 0 0 0 .605-.889.957.957 0 0 0-.958-.952.945.945 0 0 0-.945.952c0 .408.288.753.625.89zM19.577 9.6c0 .093.076.168.168.168h1.343a.169.169 0 0 0 0-.336h-1.343a.168.168 0 0 0-.168.168zM12.423 9.6a.168.168 0 0 0-.169-.168h-1.342a.168.168 0 0 0 0 .336h1.342a.168.168 0 0 0 .169-.168zM16 5.879a.168.168 0 0 0 .168-.169V4.368a.168.168 0 0 0-.336 0V5.71c0 .093.075.169.168.169zM18.648 6.976a.17.17 0 0 0 .12-.05l.95-.948a.169.169 0 0 0-.24-.239l-.949.95a.169.169 0 0 0 .119.287zM12.402 13.221a.17.17 0 0 0 .12-.049l.949-.949a.169.169 0 0 0-.238-.238l-.95.95a.169.169 0 0 0 .119.286zM19.478 13.173a.168.168 0 0 0 .239 0 .169.169 0 0 0 0-.238l-.95-.95a.169.169 0 0 0-.238.238l.95.95zM12.283 5.738a.169.169 0 0 0 0 .239l.95.95a.168.168 0 0 0 .238 0 .169.169 0 0 0 0-.239l-.95-.95a.169.169 0 0 0-.238 0z"/></svg>