<svg xmlns="http://www.w3.org/2000/svg" width="32" height="32"><path d="M14.009 59.877c-.586 0-1.053.477-1.053 1.063 0 .085.002.162.02.24l-8.311 9.566H.434c-.232 0-.48.196-.421.42l.28 1.103c.059.225.19.422.422.422l30.629-.05c.23 0 .363-.198.42-.422l.272-1.052c.058-.224-.19-.421-.421-.421h-4.141l-8.322-9.565c.019-.079.03-.156.03-.24a1.064 1.064 0 0 0-2.125 0c0 .585.477 1.062 1.063 1.062.106 0 .213-.02.31-.05l7.64 8.793H6.058l7.65-8.793c.097.029.194.05.301.05a1.064 1.064 0 0 0 0-2.126zM1.045 73.362c-.231 0-.477.197-.42.421L4.132 87.69c.057.225.191.422.421.422h22.94c.23 0 .365-.198.421-.422l3.52-13.906c.056-.223-.19-.42-.422-.42H1.045z" style="fill-rule:evenodd" transform="matrix(.99875 0 0 .99875 -.004 -57.901)"/></svg>