<svg xmlns="http://www.w3.org/2000/svg" width="32" height="32"><g transform="matrix(.32329 0 0 .32329 -.165 -.251)"><path d="M98.544 18.096a4.14 4.14 0 0 0-3.194-1.505H24.671L21.269 5.163a4.142 4.142 0 0 0-3.97-2.961H4.653a4.143 4.143 0 0 0 0 8.285h9.556L29.691 62.49c-1.678 3.077-3.27 7.482-1.465 11.172 1.598 3.267 5.209 4.924 10.731 4.924.1 0 .2-.004.3-.014.359-.033 36.047-3.305 48.352-2.608a3.28 3.28 0 0 0 3.45-3.081 3.268 3.268 0 0 0-3.082-3.448c-12.493-.705-46.229 2.341-49.165 2.61-3.028-.02-4.43-.686-4.71-1.256-.312-.635-.09-1.835.435-3.193.088-.005.175-.006.265-.017l54.068-6.54a4.144 4.144 0 0 0 3.57-3.329l6.978-36.191a4.148 4.148 0 0 0-.874-3.423zM68.533 38.191H51.528V24.876h17.005v13.315zm-36.262 3.924h15.333v15.57l-10.327 1.25-5.006-16.82zm19.257 0h17.005v13.038L51.528 57.21V42.115zm36.239-3.924H72.458V24.876h17.876l-2.567 13.315zM47.604 24.876v13.315H31.102l-3.964-13.315h20.466zm24.854 29.802V42.115H87.01l-2.133 11.06-12.419 1.503z"/><circle cx="33.876" cy="90.056" r="8.277"/><circle cx="80.968" cy="90.056" r="8.277"/></g></svg>