<svg xmlns="http://www.w3.org/2000/svg" width="32" height="32"><path d="M28.973 16.432H32v3.46h-3.027zm-4.324 0h3.46v3.46h-3.46zm-3.892 0h3.027v3.46h-3.027zm-4.325 0h3.46v3.46h-3.46zm-4.324 0h3.46v3.46h-3.46zm-3.892 0h3.027v3.46H8.216zm-4.324 0h3.46v3.46h-3.46zm-3.892 0h3.027v3.46H0zm28.973-8.216H32v3.46h-3.027zm-4.324 0h3.46v3.46h-3.46zm-3.892 0h3.027v3.46h-3.027zm-4.325 0h3.46v3.46h-3.46zm-4.324 0h3.46v3.46h-3.46zm-3.892 0h3.027v3.46H8.216zm-4.324 0h3.46v3.46h-3.46zM0 8.216h3.027v3.46H0zm22.486 4.325h3.028v3.027h-3.028zm-4.324 0h3.46v3.027h-3.46zm-3.892 0h3.027v3.027H14.27zm-3.892 0h3.027v3.027h-3.027zm16 0H32v3.027h-5.622zM0 12.54h5.622v3.027H0zm6.486 0h3.028v3.027H6.486zm19.892 8.216H32v3.027h-5.622zm-19.892 0h19.028v3.027H6.486zm-6.486 0h5.622v3.027H0z"/></svg>