<svg xmlns="http://www.w3.org/2000/svg" width="32" height="32"><path d="M9.508 29.943A2.055 2.055 0 1 1 11.562 32a2.055 2.055 0 0 1-2.054-2.057zM14.854 29.943a2.056 2.056 0 1 1 4.112.002 2.056 2.056 0 0 1-4.112-.002zM20.2 29.943c0-1.136.92-2.055 2.058-2.055a2.056 2.056 0 1 1 0 4.112 2.055 2.055 0 0 1-2.057-2.057z"/><path d="M29.354 13.284h-9.72v5.708h-9.358v-1.717l1.648-4.093H5.548l1.645 4.1v1.71H5.188s-2.64 4.815 0 7.454l.531 1.09-3.073 3.636h5.73v-3.645h16.916v3.645h4.062V13.284zm-1.387 4.937c0 1.902-.308 3.445-2.209 3.445h-2.47c-1.9 0-2.21-1.543-2.21-3.445v-.566c0-1.902.31-3.445 2.21-3.445h2.47c1.901 0 2.21 1.543 2.21 3.445v.566zM21.396 1.439c-.558 0-1.08.16-1.524.43 0-.028.003-.055.003-.083a1.786 1.786 0 0 0-3.493-.518 4.452 4.452 0 0 0-1.66-.321 4.475 4.475 0 0 0-4.231 3.025 1.795 1.795 0 0 0-.626 3.28 1.898 1.898 0 0 0-.995 2.106c-.015-.001-.03-.006-.045-.006a1.118 1.118 0 0 0 0 2.235c.548 0 1.004-.398 1.097-.92.245.117.518.183.805.183a1.9 1.9 0 0 0 1.443-.665c.275.411.741.683 1.274.683.65 0 1.202-.405 1.427-.975A4.469 4.469 0 0 0 18.65 7.57c.275.23.624.375 1.01.375.536 0 1.004-.267 1.288-.675.147.024.297.039.45.039a2.937 2.937 0 0 0 2.937-2.936 2.938 2.938 0 0 0-2.938-2.934z"/></svg>