<svg xmlns="http://www.w3.org/2000/svg" width="32" height="32"><path d="M26.752 1.28H5.248a.384.384 0 0 0-.384.384v28.672c0 .212.172.384.384.384h21.504a.384.384 0 0 0 .384-.384V1.664a.384.384 0 0 0-.384-.384zM13.623 6.628c.17-1.172 1.132-2.07 2.293-2.07 1.161 0 2.123.897 2.292 2.07a2.559 2.559 0 0 1 0 .742c-.126 1.686-1.104 2.998-2.292 2.998-1.173 0-2.141-1.279-2.288-2.933l-.005-.066a2.453 2.453 0 0 1-.027-.37c0-.126.01-.25.027-.37zm.537 3.481c.012.553.83.999 1.84.999 1.008 0 1.828-.446 1.84-.999a3.03 3.03 0 0 1 2.751 3.018c0 1.674-1.357 1.67-3.03 1.67h-3.122c-1.674 0-3.03.005-3.03-1.67a3.03 3.03 0 0 1 2.751-3.018zm9.532 17.333H8.308a.768.768 0 0 1 0-1.536h15.384a.768.768 0 0 1 0 1.536zm0-4.096H8.308a.768.768 0 1 1 0-1.536h15.384a.768.768 0 1 1 0 1.536zm0-4.096H8.308a.768.768 0 0 1 0-1.536h15.384a.768.768 0 0 1 0 1.536z" style="fill:none"/><path d="M26.752 0H5.248c-.917 0-1.664.747-1.664 1.664v28.672c0 .917.747 1.664 1.664 1.664h21.504c.917 0 1.664-.747 1.664-1.664V1.664C28.416.747 27.669 0 26.752 0Zm.384 30.336a.384.384 0 0 1-.384.384H5.248a.384.384 0 0 1-.384-.384V1.664c0-.212.172-.384.384-.384h21.504c.212 0 .384.172.384.384v28.672z"/><path d="M23.692 22.464H8.308a.768.768 0 0 0 0 1.536h15.384a.768.768 0 0 0 0-1.536zM23.692 26.861H8.308a.768.768 0 0 0 0 1.536h15.384a.768.768 0 0 0 0-1.536z"/><path d="M15.952 10.974c1.63 0 2.972-1.8 3.145-4.113.022-.15.033-.302.035-.457l-.509.584c.28-.622-.719-2.203-.719-2.203-1.684 1.218-4.188 0-4.188 0-.756.298-.398 2.423-.398 2.423-.188-.13-.36-.2-.502-.235.207 2.26 1.532 4 3.136 4z" style="fill:none" transform="translate(-.082 1.155)"/><path d="M13.562 19.603h4.877c2.615 0 4.735.007 4.735-2.61a4.735 4.735 0 0 0-4.299-4.715c-.019.863-1.299 1.56-2.874 1.56-1.577 0-2.856-.696-2.875-1.56a4.736 4.736 0 0 0-4.3 4.716c0 2.615 2.12 2.609 4.736 2.609z"/><path d="m12.287 7.997.009.102c.228 2.585 1.74 4.583 3.574 4.583 1.856 0 3.385-2.05 3.582-4.685a3.987 3.987 0 0 0 0-1.16c-.265-1.83-1.769-3.234-3.582-3.234-1.815 0-3.318 1.404-3.583 3.236a4.057 4.057 0 0 0 0 1.158zm1.347-2.057s2.504 1.218 4.188 0c0 0 1 1.582.719 2.203l.508-.584a3.448 3.448 0 0 1-.035.457c-.173 2.313-1.515 4.113-3.145 4.113-1.603 0-2.928-1.742-3.136-4 .142.034.314.103.503.234 0 0-.358-2.125.398-2.423z"/></svg>