<svg xmlns="http://www.w3.org/2000/svg" width="32" height="32"><path d="M16 10.5c-6.543 0-12.351 3.142-16 8 3.649 4.858 9.457 8 16 8 6.543 0 12.351-3.142 16-8-3.649-4.858-9.457-8-16-8zm-2 4a2 2 0 1 1 0 4 2 2 0 0 1 0-4zm10.175 8.04A17.88 17.88 0 0 1 16 24.5a17.892 17.892 0 0 1-8.175-1.96 18.172 18.172 0 0 1-5.24-4.04 18.17 18.17 0 0 1 5.24-4.04 17.89 17.89 0 0 1 3.158-1.252 6 6 0 1 0 10.033 0c1.09.316 2.149.735 3.16 1.251a18.169 18.169 0 0 1 5.238 4.041 18.17 18.17 0 0 1-5.239 4.04zm2.729-14.424A23.74 23.74 0 0 0 16 5.5c-3.838 0-7.506.88-10.904 2.616A24.107 24.107 0 0 0 0 11.62v3.412a22.182 22.182 0 0 1 6.006-4.509A21.758 21.758 0 0 1 16 8.125c3.518 0 6.88.807 9.994 2.397A22.18 22.18 0 0 1 32 15.032v-3.413a24.104 24.104 0 0 0-5.096-3.503z"/></svg>