<svg xmlns="http://www.w3.org/2000/svg" width="32" height="32"><path d="M32 18.383v-2h-6.04c-.184-2.272-.994-4.345-2.24-6.008h5.06l2.19-8.758-1.94-.485-1.81 7.243h-5.46c-.027-.022-.056-.043-.084-.064.21-.61.324-1.264.324-1.944 0-3.305-2.686-5.984-6-5.984s-6 2.679-6 5.984c0 .68.114 1.334.324 1.944-.028.02-.057.042-.084.064H4.78L2.97 1.132l-1.94.485 2.19 8.758h5.06c-1.246 1.663-2.056 3.736-2.24 6.008H0v2h6.043a11.765 11.765 0 0 0 1.051 3.992H3.219l-2.19 8.757 1.941.485 1.81-7.242h3.512c1.834 2.438 4.606 3.992 7.708 3.992 3.102 0 5.874-1.554 7.708-3.992h3.511l1.81 7.242 1.941-.485-2.19-8.757h-3.874a11.763 11.763 0 0 0 1.051-3.992H32z"/></svg>