<svg xmlns="http://www.w3.org/2000/svg" width="32" height="32"><path d="M30.662 9.003a98.659 98.659 0 0 0-8.815-.85L27 3l-2-2-7.017 7.017A113.09 113.09 0 0 0 16 8L8 0 6 2l6.069 6.069c-3.78.132-7.386.454-10.731.934C.478 12.37 0 16.09 0 20c0 3.91.477 7.63 1.338 10.997C5.826 31.642 10.786 32 16 32s10.173-.358 14.662-1.003C31.522 27.63 32 23.91 32 20c0-3.91-.477-7.63-1.338-10.997zm-3.665 18.328C23.63 27.761 19.91 28 16 28c-3.91 0-7.63-.239-10.997-.669C4.358 25.087 4 22.607 4 20s.358-5.087 1.003-7.331C8.37 12.239 12.09 12 16 12c3.91 0 7.63.239 10.996.669C27.642 14.913 28 17.393 28 20s-.358 5.087-1.003 7.331z"/></svg>