<svg xmlns="http://www.w3.org/2000/svg" width="32" height="32"><path d="M16 12.786A3.218 3.218 0 0 0 12.786 16 3.218 3.218 0 0 0 16 19.214 3.218 3.218 0 0 0 19.214 16 3.218 3.218 0 0 0 16 12.786zm0-3.643a6.857 6.857 0 1 1 0 13.714 6.857 6.857 0 0 1 0-13.714zm13.045 16.67a2.286 2.286 0 1 1-3.233 3.232l-2.285-2.286a2.285 2.285 0 1 1 3.232-3.232l2.286 2.285zM8.473 5.24a2.286 2.286 0 1 1-3.232 3.232L2.955 6.188a2.285 2.285 0 1 1 3.233-3.233l2.285 2.286zm17.34-2.286a2.286 2.286 0 1 1 3.232 3.233l-2.286 2.285a2.285 2.285 0 1 1-3.232-3.232l2.285-2.286zM5.24 23.527a2.286 2.286 0 1 1 3.232 3.232l-2.285 2.286a2.285 2.285 0 1 1-3.233-3.233l2.286-2.285zM16 0a2.286 2.286 0 0 1 2.286 2.286V4.57a2.286 2.286 0 0 1-4.572 0V2.286A2.286 2.286 0 0 1 16 0zm0 25.143a2.286 2.286 0 0 1 2.286 2.286v2.285a2.286 2.286 0 1 1-4.572 0V27.43A2.286 2.286 0 0 1 16 25.143zM0 16a2.286 2.286 0 0 1 2.286-2.286H4.57a2.286 2.286 0 0 1 0 4.572H2.286A2.286 2.286 0 0 1 0 16zm25.143 0a2.286 2.286 0 0 1 2.286-2.286h2.285a2.286 2.286 0 1 1 0 4.572H27.43A2.286 2.286 0 0 1 25.143 16z"/></svg>