<svg xmlns="http://www.w3.org/2000/svg" width="32" height="32"><path d="M32 16.516a16.346 16.346 0 0 0-5.02-11.495 16.221 16.221 0 0 0-5.32-3.408A16.034 16.034 0 0 0 15.485.518a15.832 15.832 0 0 0-11.13 4.868A15.706 15.706 0 0 0 1.06 10.54a15.518 15.518 0 0 0-1.056 5.976 15.392 15.392 0 0 0 1.294 5.877 15.315 15.315 0 0 0 3.423 4.888 15.186 15.186 0 0 0 4.987 3.184c1.842.72 3.82 1.061 5.778 1.017a14.874 14.874 0 0 0 5.679-1.255 14.8 14.8 0 0 0 4.72-3.31 14.67 14.67 0 0 0 3.073-4.82c.42-1.08.706-2.207.856-3.349a2.064 2.064 0 0 0 2.178-2.232H32zm-3.28 5.482a14.282 14.282 0 0 1-3.199 4.553 14.155 14.155 0 0 1-4.652 2.96 13.97 13.97 0 0 1-5.383.939 13.84 13.84 0 0 1-5.284-1.177 13.768 13.768 0 0 1-4.386-3.087 13.637 13.637 0 0 1-2.85-4.485 13.454 13.454 0 0 1-.898-5.185c.042-1.76.43-3.497 1.137-5.086A13.254 13.254 0 0 1 6.18 7.21a13.12 13.12 0 0 1 4.318-2.736 12.936 12.936 0 0 1 4.988-.86 12.735 12.735 0 0 1 8.94 3.961 12.604 12.604 0 0 1 2.625 4.151 12.42 12.42 0 0 1 .82 4.79h.008a2.064 2.064 0 0 0 1.834 2.224c-.201 1.123-.533 2.22-.993 3.258z"/></svg>