<svg xmlns="http://www.w3.org/2000/svg" width="32" height="32"><path d="M11.867 4.267a4.267 4.267 0 1 1 8.533 0 4.267 4.267 0 0 1-8.533 0zm9.05 3.749a4.267 4.267 0 1 1 8.534 0 4.267 4.267 0 0 1-8.533 0zm5.883 9.05a2.133 2.133 0 1 1 4.267 0 2.133 2.133 0 0 1-4.267 0zm-3.749 9.052a2.133 2.133 0 1 1 4.267 0 2.133 2.133 0 0 1-4.267 0zm-9.05 3.749a2.133 2.133 0 0 1 4.266 0 2.133 2.133 0 0 1-4.267 0zm-9.052-3.75a2.133 2.133 0 0 1 4.267 0 2.133 2.133 0 0 1-4.267 0zM3.882 8.017a3.2 3.2 0 1 1 6.4 0 3.2 3.2 0 0 1-6.4 0zm-2.949 9.05a2.4 2.4 0 1 1 4.8 0 2.4 2.4 0 0 1-4.8 0z"/></svg>