<svg xmlns="http://www.w3.org/2000/svg" width="32" height="32"><path d="M26.313 18.421c-.427-.42-1.372-.642-2.812-.661-.974-.011-2.147.075-3.38.247-.552-.318-1.122-.665-1.568-1.083-1.202-1.122-2.206-2.68-2.83-4.393.04-.16.075-.3.107-.444 0 0 .677-3.846.498-5.146a1.503 1.503 0 0 0-.088-.369l-.059-.15c-.184-.426-.545-.876-1.111-.851l-.341-.01c-.632 0-1.146.322-1.281.805-.41 1.513.013 3.777.78 6.71l-.196.478c-.55 1.34-1.239 2.69-1.846 3.88l-.08.155a65.189 65.189 0 0 1-1.745 3.213l-.543.287c-.04.02-.97.513-1.188.645-1.852 1.106-3.079 2.36-3.282 3.357-.065.317-.017.724.312.913l.526.264c.227.114.468.172.714.172 1.319 0 2.85-1.643 4.96-5.324a49.43 49.43 0 0 1 7.637-1.815c1.852 1.042 4.13 1.767 5.567 1.767.255 0 .475-.024.654-.072.276-.073.508-.23.65-.444.279-.42.335-.998.26-1.59-.023-.175-.163-.393-.315-.541zm-19.7 7.018c.241-.658 1.193-1.958 2.601-3.111.089-.072.307-.276.506-.466-1.472 2.348-2.458 3.284-3.106 3.577zM14.952 6.24c.424 0 .665 1.069.685 2.07.02 1.002-.214 1.706-.505 2.226-.24-.77-.357-1.985-.357-2.778 0 0-.018-1.518.177-1.518zm-2.487 13.682c.295-.529.603-1.086.917-1.678a31.927 31.927 0 0 0 1.608-3.51c.716 1.302 1.608 2.41 2.656 3.297.13.11.27.222.415.333-2.132.421-3.974.934-5.596 1.558zm13.44-.12c-.13.08-.502.128-.742.128-.772 0-1.727-.353-3.066-.927a19.35 19.35 0 0 1 1.41-.058c.774 0 1.003 0 1.76.19.757.193.767.585.637.666zm2.328-13.57-4.464-4.464C22.795.795 20.875 0 19.5 0h-15A2.507 2.507 0 0 0 2 2.5v27C2 30.875 3.125 32 4.5 32h23c1.375 0 2.5-1.125 2.5-2.5v-19c0-1.375-.796-3.296-1.768-4.268zm-1.414 1.414c.098.098.195.218.29.354H22V2.892c.136.095.256.192.354.29l4.464 4.464zM28 29.5c0 .271-.229.5-.5.5h-23a.507.507 0 0 1-.5-.5v-27c0-.271.229-.5.5-.5h15c.151 0 .32.02.5.053V10h7.947c.034.18.053.349.053.5v19z"/></svg>