<svg xmlns="http://www.w3.org/2000/svg" width="32" height="32"><path d="M21.57 14.74c-1.896-.895-4.312-1.076-6.09.19 2.161-.207 4.53.15 6.098 1.784 1.5-1.721 3.878-2.044 6.03-1.866-1.797-1.192-4.163-1.032-6.039-.108zm-.768 4.19c-2.137-.05-4.202.724-5.972 1.878-3.35-1.425-7.586-1.16-10.438 1.218.823-.029 1.625-.233 2.44-.337 2.974-.297 6.143.442 8.39 2.494a9.058 9.058 0 0 1 3.74-3.122c1.97-.954 4.192-1.053 6.338-1.079-1.303-.895-2.957-1.061-4.499-1.052zm7.43-12.698-4.464-4.464C22.795.795 20.875 0 19.5 0h-15A2.507 2.507 0 0 0 2 2.5v27C2 30.875 3.125 32 4.5 32h23c1.375 0 2.5-1.125 2.5-2.5v-19c0-1.375-.796-3.296-1.768-4.268zm-1.414 1.414c.098.098.195.218.29.354H22V2.892c.136.095.256.192.354.29l4.464 4.464zM28 29.5c0 .271-.229.5-.5.5h-23a.507.507 0 0 1-.5-.5v-27c0-.271.229-.5.5-.5h15c.151 0 .32.02.5.053V10h7.947c.034.18.053.349.053.5v19z"/></svg>