<svg xmlns="http://www.w3.org/2000/svg" width="32" height="32"><path d="M13.18 27.18c4.44-2.68 6.76-5.96 6.76-9.52 0-2.88-1.64-4.84-4.04-4.84-2.16 0-3.84 1.72-3.84 3.92 0 1.96 1.44 3.44 3.36 3.44.16 0 .24 0 .32-.04h.16c.12 0 .16.08.16.24 0 1.52-1.48 3.44-3.96 5.16l1.08 1.64M28.232 6.232l-4.464-4.464C22.795.795 20.875 0 19.5 0h-15A2.507 2.507 0 0 0 2 2.5v27C2 30.875 3.125 32 4.5 32h23c1.375 0 2.5-1.125 2.5-2.5v-19c0-1.375-.796-3.296-1.768-4.268zm-1.414 1.414c.098.098.195.218.29.354H22V2.892c.136.095.256.192.354.29l4.464 4.464zM28 29.5c0 .271-.229.5-.5.5h-23a.507.507 0 0 1-.5-.5v-27c0-.271.229-.5.5-.5h15c.151 0 .32.02.5.053V10h7.947c.034.18.053.349.053.5v19z" style="font-size:40px;font-style:normal;font-variant:normal;font-weight:700;font-stretch:normal;text-align:start;line-height:125%;letter-spacing:0;word-spacing:0;writing-mode:lr-tb;text-anchor:start;fill:#000;fill-opacity:1;stroke:none;font-family:Century Schoolbook L;-inkscape-font-specification:Century Schoolbook L Bold"/></svg>