<svg xmlns="http://www.w3.org/2000/svg" width="32" height="32"><path d="M29.863 24.879c-.031-.107-.763-2.651-2.012-5.237C26.044 15.898 23 14 19 14h-6c-4 0-7.044 1.898-8.851 5.642a36.582 36.582 0 0 0-2.011 5.237c-.375 1.313-.17 2.622.562 3.593C3.432 29.443 4.635 30 6 30h20c1.365 0 2.568-.557 3.301-1.528.733-.971.937-2.28.562-3.593zM16 26a4 4 0 1 1 0-8 4 4 0 0 1 0 8zM30.19 5.526c-.889-.75-2.106-1.405-3.618-1.945C23.717 2.562 19.963 2 16 2c-3.963 0-7.718.561-10.572 1.581-1.512.54-2.729 1.194-3.618 1.945C.314 6.789 0 8.113 0 9v2a2 2 0 0 0 .586 1.414l1 1a2.001 2.001 0 0 0 2.157.443l5-2A2 2 0 0 0 10 10V6.511C11.83 6.177 13.882 6 16 6s4.17.177 6 .511V10a2 2 0 0 0 1.257 1.857l5 2a2.005 2.005 0 0 0 2.157-.443l1-1A2 2 0 0 0 32 11V9c0-.888-.314-2.211-1.81-3.474z" style="fill:#000"/></svg>