<svg xmlns="http://www.w3.org/2000/svg" width="32" height="32"><path d="M23 19c2-2 8 4 8 6s-6 6-6 6c-4 0-12.109-4.109-16-8S1 11 1 7c0 0 4-6 6-6s8 6 6 8-4 2-4 4 2 4 4 6 4 4 6 4 2-2 4-4z" style="fill:#000"/><path d="M23 16a1 1 0 0 1-1-1c0-2.757-2.243-5-5-5a1 1 0 0 1 0-2c3.86 0 7 3.14 7 7a1 1 0 0 1-1 1z" style="fill:#000"/><path d="M27 16a1 1 0 0 1-1-1c0-4.963-4.037-9-9-9a1 1 0 0 1 0-2c6.065 0 11 4.935 11 11a1 1 0 0 1-1 1z" style="fill:#000"/><path d="M31 16a1 1 0 0 1-1-1c0-7.168-5.832-13-13-13a1 1 0 0 1 0-2c4.007 0 7.773 1.56 10.607 4.393A14.898 14.898 0 0 1 32 15a1 1 0 0 1-1 1z" style="fill:#000"/></svg>