<svg xmlns="http://www.w3.org/2000/svg" width="32" height="32"><path d="M.18.216V8.36l2.667 2.703V4.901l6.09 6.09 1.982-1.982-6.09-6.09h6.198L8.324.216H.18zm22.379 0-6.811 6.595 1.009 1.009 6.81-6.559L22.56.216zm2.306 2.27L17.91 9.19c.22.328.438.67.757.973.622.68 1.48 1.123 2.306 1.37-1.221 1.661-2.732 3.359-4.469 5.045a47.403 47.403 0 0 1-5.08 4.216c-.213-.852-.643-1.707-1.298-2.379-.254-.32-.637-.563-.973-.792l-6.955 6.702c.172.41.47.734.757 1.045.745.754 1.532 1.309 2.522 1.514 3.308.706 8.416-1.933 13.946-7.243.025-.041.109-.108.109-.108 5.563-5.32 8.36-10.366 7.747-13.658-.18-1-.733-1.877-1.477-2.63v-.037c-.287-.311-.61-.524-.937-.72zM6.81 15.46 0 22.018l1.009 1.081 6.81-6.594-1.008-1.046zm14.342 5.478v8.144l2.703 2.703v-6.162l6.09 6.09 1.946-1.982-6.09-6.09H32l-2.667-2.703h-8.18z"/></svg>