<svg xmlns="http://www.w3.org/2000/svg" width="32" height="32"><path d="M11 0a1 1 0 0 0-1 1v4a1 1 0 0 0 2 0V1a1 1 0 0 0-1-1zm12 0c-4.963 0-9 4.037-9 9a2 2 0 1 0 4 0c0-2.757 2.243-5 5-5s5 2.243 5 5-2.243 5-5 5a2 2 0 1 0 0 4c4.963 0 9-4.037 9-9s-4.037-9-9-9zM3 2c-.256 0-.523.086-.719.281a1.027 1.027 0 0 0 0 1.438l4 4C6.476 7.914 6.744 8 7 8c.256 0 .524-.086.719-.281a1.027 1.027 0 0 0 0-1.438l-4-4A1.01 1.01 0 0 0 3 2zm-2 8a1 1 0 0 0 0 2h4a1 1 0 0 0 0-2H1zm8 4c-4.963 0-9 4.037-9 9s4.037 9 9 9 9-4.037 9-9a2 2 0 1 0-4 0c0 2.757-2.243 5-5 5s-5-2.243-5-5 2.243-5 5-5a2 2 0 1 0 0-4zm18 6a1 1 0 0 0 0 2h4a1 1 0 0 0 0-2h-4zm-2 4c-.256 0-.523.086-.719.281a1.027 1.027 0 0 0 0 1.438l4 4c.195.195.463.281.719.281.256 0 .524-.086.719-.281a1.027 1.027 0 0 0 0-1.438l-4-4A1.012 1.012 0 0 0 25 24zm-4 2a1 1 0 0 0-1 1v4a1 1 0 0 0 2 0v-4a1 1 0 0 0-1-1z"/></svg>