<svg xmlns="http://www.w3.org/2000/svg" width="32" height="32"><path d="M16 1a5.972 5.972 0 0 0-4.938 2.594A8.04 8.04 0 0 0 8 3c-4.411 0-8 3.589-8 8 0 3.914 1.737 5.676 3.281 7.219C4.734 19.672 6 20.914 6 24v6a1 1 0 0 0 1 1h18a1 1 0 0 0 1-1v-6c0-3.086 1.267-4.328 2.719-5.781C30.263 16.676 32 14.914 32 11c0-4.411-3.589-8-8-8a8.04 8.04 0 0 0-3.063.594A5.972 5.972 0 0 0 16 1zm0 2c2.206 0 4 1.794 4 4v1a1 1 0 0 0 2 0V7c0-.936.014-1.885 1.656-2H24c3.308 0 6 2.692 6 6 0 3.086-1.267 4.328-2.719 5.781-1.405 1.405-2.98 2.994-3.25 6.219H7.97c-.271-3.226-1.845-4.814-3.25-6.219C3.267 15.328 2 14.086 2 11c0-3.308 2.692-6 6-6h.344C9.986 5.115 10 6.064 10 7v1a1 1 0 0 0 2 0V7c0-2.206 1.794-4 4-4zM8 25h16v4H8v-4z"/></svg>