<svg xmlns="http://www.w3.org/2000/svg" width="32" height="32"><path d="M8.719.002a8.874 8.874 0 0 0-2.281.25c-.461.11-.9.263-1.313.437.052.392.141.763.281 1.156C6.64 5.316 10.93 7.35 15 6.377a8.523 8.523 0 0 0 1.219-.375 9.413 9.413 0 0 0-.219 2h.656c.58-2.711 2.78-5.875 5.688-5.875 0-1.49-1.02-2.125-2.157-2.125-1.082.536-2.018 1.484-2.78 2.843A11.691 11.691 0 0 0 16.28 5.72a5.61 5.61 0 0 0-.25-.937C15.03 1.963 12.002.08 8.72.002zm1.687 8C6.434 7.96 2 10.298 2 18.314c0 7.924 10.034 16.685 14 12.688 3.965 3.997 14-4.764 14-12.688C30 5.489 18.642 7.207 16 9.908c-.99-1.013-3.21-1.882-5.594-1.906zm10.719 2.593c3.595 1.205 6.568 4.316 4.906 10.719-.753 2.9-3.228 5.626-6.156 7.531 3.06-3.643 4.948-9.811 3.125-14.593a18.244 18.244 0 0 0-1.875-3.657z"/></svg>