<svg xmlns="http://www.w3.org/2000/svg" width="32" height="32"><path d="M30.508 0c-4.136 0-8.07.767-11.687 2.281A27.604 27.604 0 0 0 9.446 8.72c-2.68 2.809-4.749 6.17-6.188 9.969-1.488 3.928-2.25 8.73-2.25 13.312h2s.119-2.424.719-4.344C4.484 25.236 5.593 24 7.008 24c6.213 0 9.316-1.616 13.875-7.188a.47.47 0 0 0 .094-.468.533.533 0 0 0-.375-.344c-.06-.012-1.487-.281-3.813-.281-.29 0-.583.022-.875.031.397-.144.808-.309 1.22-.469 4.994-1.947 8.27-4.127 9.78-6.5a.548.548 0 0 0 .032-.5A.478.478 0 0 0 26.57 8c-.07-.011-1.742-.25-4.094-.25-.403 0-.798.017-1.188.031.571-.227 1.186-.48 1.782-.75 4.2-1.9 6.83-4.016 7.875-6.312a.545.545 0 0 0-.032-.5.466.466 0 0 0-.406-.219z" style="fill:#000"/></svg>