<svg xmlns="http://www.w3.org/2000/svg" width="32" height="32"><path d="M3 1C1.346 1 0 2.346 0 4v3c0 1.92.854 5.377 2.5 8.25 1.494 2.607 3.367 4.353 5.5 5.188V22a1 1 0 0 0 1 1h1v3c0 2.757 2.243 5 5 5h8c2.757 0 5-2.243 5-5v-7a4 4 0 1 0-4-4c0 1.48.805 2.777 2 3.469V26c0 1.654-1.346 3-3 3h-8c-1.654 0-3-1.346-3-3v-3h1a1 1 0 0 0 1-1v-1.563c2.133-.835 4.006-2.58 5.5-5.187C21.146 12.377 22 8.92 22 7V4c0-1.654-1.346-3-3-3h-3a2 2 0 1 0 2 2h1c.551 0 1 .449 1 1v3c0 2.164-1.162 5.353-2.25 7.25C15.498 18.18 12.839 19 11 19c-1.839 0-4.498-.82-6.75-4.75C2.793 11.708 2 8.615 2 7V4c0-.551.449-1 1-1h1a2 2 0 1 0 2-2H3zm25 12c1.103 0 2 .897 2 2s-.897 2-2 2-2-.897-2-2 .897-2 2-2z"/></svg>