<svg xmlns="http://www.w3.org/2000/svg" width="32" height="32"><path d="M1 1a1 1 0 0 0-1 1v9c0 1.477.806 2.776 2 3.469V29H1a1 1 0 0 0 0 2h30a1 1 0 0 0 0-2h-1V14.469A4.014 4.014 0 0 0 32 11V2a1 1 0 0 0-1-1H1zm7 2h4v8c0 1.103-.897 2-2 2s-2-.897-2-2V3zm12 0h4v8c0 1.103-.897 2-2 2s-2-.897-2-2V3zM7 13.656A3.979 3.979 0 0 0 10 15a3.979 3.979 0 0 0 3-1.344A3.979 3.979 0 0 0 16 15a3.977 3.977 0 0 0 3-1.344A3.977 3.977 0 0 0 22 15a3.977 3.977 0 0 0 3-1.344A3.977 3.977 0 0 0 28 15v14h-2v-9a1 1 0 0 0-1-1h-6a1 1 0 0 0-1 1v9H4V15a3.979 3.979 0 0 0 3-1.344zM7 17a1 1 0 0 0-1 1v6a1 1 0 0 0 1 1h6a1 1 0 0 0 1-1v-6a1 1 0 0 0-1-1H7zm1 2h4v4H8v-4zm12 2h4v8h-4v-8z"/></svg>