<svg xmlns="http://www.w3.org/2000/svg" width="32" height="32"><path d="M23 19c-2 2-2 4-4 4s-4-2-6-4-4-4-4-6 2-2 4-4-4-8-6-8-6 6-6 6c0 4 4.109 12.109 8 16s12 8 16 8c0 0 6-4 6-6s-6-8-8-6z" style="fill:#000"/><path d="M28 10.438q0 .269-.189.458l-.916.915q-.188.189-.457.189-.27 0-.458-.189L24 9.832l-1.98 1.98q-.188.189-.457.189-.27 0-.458-.188l-.916-.916Q20 10.707 20 10.437q0-.269.189-.457L22.169 8l-1.98-1.98Q20 5.832 20 5.563q0-.27.189-.458l.916-.917Q21.293 4 21.562 4q.27 0 .458.189L24 6.168l1.98-1.98Q26.168 4 26.437 4q.27 0 .458.189l.916.916q.189.188.189.457 0 .27-.189.458L25.831 8l1.98 1.98q.189.188.189.457Z" style="stroke-width:.25"/></svg>