<svg xmlns="http://www.w3.org/2000/svg" xml:space="preserve" width="32" height="32"><g transform="matrix(.4507 0 0 .4507 -6.535 -6.535)"><circle cx="34" cy="24" r="9"/><circle cx="47" cy="50" r="9"/><circle cx="67" cy="76" r="9"/><path d="M19.5 19c-2.8 0-5 2.2-5 5s2.2 5 5 5h3.6c-.7-1.5-1.1-3.2-1.1-5 0-1.8.4-3.5 1.1-5h-3.6zM80.5 19H44.9c.7 1.5 1.1 3.2 1.1 5 0 1.8-.4 3.5-1.1 5h35.6c2.8 0 5-2.2 5-5s-2.3-5-5-5zM19.5 55h16.6c-.7-1.5-1.1-3.2-1.1-5 0-1.8.4-3.5 1.1-5H19.5c-2.8 0-5 2.2-5 5s2.3 5 5 5zM80.5 45H57.9c.7 1.5 1.1 3.2 1.1 5 0 1.8-.4 3.5-1.1 5h22.6c2.8 0 5-2.2 5-5s-2.3-5-5-5zM19.5 81h36.6c-.7-1.5-1.1-3.2-1.1-5 0-1.8.4-3.5 1.1-5H19.5c-2.8 0-5 2.2-5 5s2.3 5 5 5zM85.5 76c0-2.8-2.2-5-5-5h-2.6c.7 1.5 1.1 3.2 1.1 5 0 1.8-.4 3.5-1.1 5h2.6c2.7 0 5-2.2 5-5z"/></g></svg>