<svg xmlns="http://www.w3.org/2000/svg" xml:space="preserve" id="svg2" width="32" height="32" x="0" y="0" style="clip-rule:evenodd;fill-rule:evenodd;image-rendering:optimizeQuality;shape-rendering:geometricPrecision;text-rendering:geometricPrecision" version="1.1"><defs id="defs4"><style id="style6" type="text/css">.fil1{fill:#000}</style></defs><path id="path10" d="M2.48 0h27.04C30.937 0 32 1.675 32 3.686v24.796C32 30.492 30.937 32 29.52 32H2.48C1.063 32 0 30.492 0 28.482V3.686C0 1.676 1.063 0 2.48 0Zm25.978 2.178c.59 0 .944.503.944 1.34 0 .838-.354 1.34-.944 1.34-.473 0-.945-.502-.945-1.34 0-.837.472-1.34.945-1.34zm-4.488 0c.473 0 .945.503.945 1.34 0 .838-.472 1.34-.945 1.34-.59 0-1.062-.502-1.062-1.34 0-.837.472-1.34 1.062-1.34zm-4.605 0c.473 0 .945.503.945 1.34 0 .838-.472 1.34-.945 1.34-.59 0-.944-.502-.944-1.34 0-.837.354-1.34.944-1.34zm11.69 4.524H.945v21.78c0 1.172.708 2.178 1.535 2.178h27.04c.827 0 1.535-1.006 1.535-2.178V6.702z" style="fill:#000"/></svg>