<svg xmlns="http://www.w3.org/2000/svg" xml:space="preserve" id="svg2" width="32" height="32" x="0" y="0" style="clip-rule:evenodd;fill-rule:evenodd;image-rendering:optimizeQuality;shape-rendering:geometricPrecision;text-rendering:geometricPrecision" version="1.1"><defs id="defs4"><style id="style6" type="text/css">.fil0,.fil1{fill:#000}</style></defs><g id="g8" style="fill:none;fill-rule:evenodd;stroke:none;stroke-width:1" transform="matrix(.35556 0 0 .35556 -1.778 -1.674)"><path id="path10" d="M61.833 46.789 35.987 65.824a16 16 0 0 0-2.392 2.454c-7.428 9.466 6.14 21.713 14.799 13.358a15.994 15.994 0 0 0 2.197-2.63l16.298-27.654c2.2-3.297-2-7.089-5.056-4.563M95 60c0 .761-.02 1.52-.057 2.271h-15.54v-4.56h10.949c-.529-9.424-4.301-17.992-10.215-24.61l-7.904 7.904-3.238-3.239 7.904-7.903c-6.618-5.914-15.186-9.686-24.61-10.215v10.603h-4.58V19.648c-9.422.529-17.99 4.301-24.608 10.215l7.362 7.363-3.237 3.237-7.364-7.362c-5.913 6.618-9.685 15.186-10.214 24.61h10.948v4.56H5.057A45.292 45.292 0 0 1 5 60c0-24.813 20.187-45 44.999-45C74.812 15 95 35.187 95 60" style="fill:#000"/></g></svg>