<svg xmlns="http://www.w3.org/2000/svg" xml:space="preserve" width="32" height="32"><path d="M31.248 969.374c-4.925 0-9.832 1.89-13.593 5.719-7.522 7.659-7.514 20.022 0 27.687l31.625 32.282a1 1 0 0 0 1.406 0c10.553-10.746 21.103-21.505 31.656-32.25 7.522-7.66 7.522-19.998 0-27.657a18.994 18.994 0 0 0-27.219 0l-5.093 5.188-5.157-5.25a19.018 19.018 0 0 0-13.625-5.719zm0 1.969c4.4 0 8.803 1.71 12.188 5.156l5.875 5.969a1 1 0 0 0 1.406 0l5.844-5.938c6.77-6.893 17.605-6.893 24.375 0 6.77 6.894 6.77 17.982 0 24.875-10.316 10.505-20.621 21.027-30.938 31.532l-30.937-31.563c-6.764-6.9-6.77-17.982 0-24.875 3.385-3.447 7.787-5.156 12.187-5.156z" overflow="visible" style="color:#000;text-indent:0;text-transform:none;direction:ltr;block-progression:tb;baseline-shift:baseline;display:inline;overflow:visible;visibility:visible;fill:#000;fill-opacity:1;stroke:none;marker:none;enable-background:accumulate" transform="matrix(.42124 0 0 .42124 -5.062 -406.23)"/></svg>