<svg xmlns="http://www.w3.org/2000/svg" xml:space="preserve" id="svg2" width="32" height="32" x="0" y="0" style="clip-rule:evenodd;fill-rule:evenodd;image-rendering:optimizeQuality;shape-rendering:geometricPrecision;text-rendering:geometricPrecision" version="1.1"><defs id="defs4"><style id="style6" type="text/css">.fil0,.fil1{fill:#000}</style></defs><g id="g4" transform="matrix(.4 0 0 .4 -3.2 -3.2)"><path id="polygon6" d="m61.201 66.897 2.405 2.405 2.318-2.318L88 88 66.984 65.924l2.319-2.318-2.406-2.405z"/><path id="path8" d="m64.648 50.19-4.381 4.381-.804-.803 4.392-4.392-4.111-4.111-4.391 4.392-.804-.803 4.392-4.392-4.111-4.111-4.392 4.391-.804-.803 4.393-4.391-4.111-4.111-4.392 4.391-.803-.803 4.392-4.391-4.112-4.111-4.391 4.391-.803-.803 4.391-4.391-4.111-4.111L35.696 30l-.804-.805 4.392-4.389-4.06-4.061-14.477 14.48 29.28 29.28c2.766 2.766 6.723 3.587 10.227 2.521l6.773-6.772c1.045-3.439.262-7.307-2.379-10.064z"/><path id="polygon10" d="M28.188 24.074 18.176 14.063l-4.112 4.111 10.012 10.012-6.815 6.816 1.43 1.432 17.744-17.743-1.432-1.431z"/><path id="rect12" d="M7.158 12.679h14.785v3.743H7.158z" transform="rotate(-45.001 14.552 14.551)"/></g></svg>