<svg xmlns="http://www.w3.org/2000/svg" xml:space="preserve" id="svg2" width="32" height="32" x="0" y="0" style="clip-rule:evenodd;fill-rule:evenodd;image-rendering:optimizeQuality;shape-rendering:geometricPrecision;text-rendering:geometricPrecision" version="1.1"><defs id="defs4"><style id="style6" type="text/css">.fil0,.fil1{fill:#000}</style></defs><g id="g4" transform="translate(-.475 -.5) scale(.49961)"><path id="path6" d="M2.8 26.9c0-.1.1-.2.2-.3 3.3-4.9 7.7-5.9 10.8-5.9 1.5 0 3 .2 4.6.6-3.2 6.9-3.5 19.1-3.2 31.7 3.1-.9 6.6-1.6 10.3-2-1.9-7.2-2.2-15.9-.9-27.2 3.9 2.2 8.7 6.2 8.3 12.4-.1.9 1.1 1.4 1.8.7 4-4.6 5.5-8.7 4.4-12.3-1-3.2-3.9-5.3-6.4-6.5 4.6-.2 9.8 1.4 11.3 5.7.4 1.1 2 .8 2-.3 0-.1 0-.3-.1-.4-2-11.6-9.3-14.6-18.1-10.8 1.7-4.2 8.4-4.9 12.5-4.9 2.6 0 3.4.4 3.8-.5.2-.4 0-.9-.4-1.2C34-1.3 26.8.9 23 7c-3.5-4-7.1-6-10.6-6-5.9 0-9.3 5.5-9.5 5.8-.4.7.3 1.7 1.1 1.4 6-1.5 10.4-.6 13.3 3C7.3 8.4 1.9 15.5 1 26v.2c-.1.9 1.2 1.5 1.8.7z"/><path id="path8" d="M64 65c-60.5-.2-63.3.8-61.8-1.5 8.6-14.5 54.1-14.5 62.7 0 .3.6-.1 1.5-.9 1.5Z"/></g></svg>