<svg xmlns="http://www.w3.org/2000/svg" xml:space="preserve" id="svg2" width="32" height="32" x="0" y="0" style="clip-rule:evenodd;fill-rule:evenodd;image-rendering:optimizeQuality;shape-rendering:geometricPrecision;text-rendering:geometricPrecision" version="1.1"><defs id="defs4"><style id="style6" type="text/css">.fil0,.fil1{fill:#000}</style></defs><g id="g4" transform="matrix(.4923 0 0 .4923 -.246 -.246)"><g id="g6"><g id="g8"><path id="path10" d="M15.4 35.7C7.2 35.7.5 42.4.5 50.6s6.7 14.9 14.9 14.9 14.9-6.7 14.9-14.9-6.7-14.9-14.9-14.9zm0 23.9c-4.9 0-8.9-4-8.9-9 0-4.9 4-8.9 8.9-8.9s8.9 4 8.9 8.9-4 9-8.9 9z"/></g></g><g id="g12"><path id="path14" d="M34.8 9h-1.6c-1 0-1.9.8-1.9 1.9v3.6h-.9c-.4-1.5-1.8-2.6-3.4-2.6h-4.3c-1.6 0-3 1.1-3.4 2.6h-2c-1.6 0-3 1.3-3 3v1.9c-1.5.4-2.6 1.8-2.6 3.4V27c0 1.6 1.1 3 2.6 3.4v1.2h-3.6c-1 0-1.8.8-1.8 1.9V35c4-1.6 8.6-1.7 12.8 0v-1.6c0-1-.8-1.9-1.9-1.9h-3.6v-1.2c1.5-.4 2.6-1.8 2.6-3.4v-4.2c0-1.6-1.1-3-2.6-3.4v-1.9c0-.5.4-1 1-1h2c.4 1.5 1.8 2.6 3.4 2.6H27c1.6 0 3-1.1 3.4-2.6h.9V20c0 1 .8 1.9 1.9 1.9h1.6c-1.7-4.2-1.6-9 0-12.9zM16.9 22.8V27c0 .5-.2.9-.6 1.2v-.5c0-.5-.4-1-1-1s-1 .5-1 1v.5c-.3-.3-.6-.7-.6-1.2v-4.2c0-.5.2-.9.6-1.2v.6c0 .5.4 1 1 1s1-.5 1-1v-.6c.4.3.6.7.6 1.2zm11-6.4h.3c-.3.4-.7.6-1.2.6h-4.3c-.5 0-.9-.2-1.2-.6h.6c.5 0 1-.4 1-1s-.5-1-1-1h-.6c.3-.4.7-.6 1.2-.6H27c.5 0 .9.2 1.2.6h-.3c-.6 0-1 .4-1 1s.4 1 1 1z"/></g><g id="g16"><g id="g18"><path id="path20" d="M50.5.5c-8.3 0-15 6.7-15 14.9 0 8.3 6.7 15 15 15s15-6.7 15-15c0-8.2-6.7-14.9-15-14.9zm0 24c-5 0-9-4-9-9s4-9 9-9 9 4 9 9c.1 4.9-4 9-9 9z"/></g></g></g></svg>