<svg xmlns="http://www.w3.org/2000/svg" xml:space="preserve" id="svg2" width="32" height="32" x="0" y="0" style="clip-rule:evenodd;fill-rule:evenodd;image-rendering:optimizeQuality;shape-rendering:geometricPrecision;text-rendering:geometricPrecision" version="1.1"><defs id="defs4"><style id="style6" type="text/css">.fil0,.fil1{fill:#000}</style></defs><path id="path8" d="M22.077.162a.738.738 0 0 0-.556.284L18.76 3.991a.753.753 0 0 0 .057.966l.181.181-7.135 3.068c-1.2.497-2.597 1.566-3.75 2.772-.577.605-1.089 1.243-1.453 1.886-.365.643-.614 1.297-.512 2 .004.023.007.046.012.068l.534 2.216H2.785a.756.756 0 0 0-.727.727v12.509H.728a.756.756 0 0 0-.728.727c0 .381.347.728.729.727h22.803a.756.756 0 0 0 .728-.727.756.756 0 0 0-.728-.727h-1.318v-7.85c.919-.622 1.721-1.271 2.431-2.012 1.805-1.884 2.887-4.325 3.545-7.987l1.943.784c.393.162.9-.107.988-.523l.864-4.329a.743.743 0 0 0-.25-.715l-9.18-7.43a.734.734 0 0 0-.478-.16zm.137 1.761 8.26 6.692-.603 3.034-2.033-.83-7.067-5.965c-.156-.158-.31-.318-.466-.477zM20.146 6.23c2.222 1.892 4.46 3.767 6.692 5.647-.62 3.745-1.593 5.917-3.238 7.635-1.703 1.778-4.227 3.113-7.93 4.965a.684.684 0 0 0-.035.011c-1.167.673-2.036.274-2.408-.307a1.129 1.129 0 0 1-.137-.988c.116-.37.43-.808 1.136-1.216l.012-.011c2.116-1.272 2.996-1.5 4.203-2.454.845-.664 1.325-1.384 2.125-2.875.192-.37-.015-.887-.409-1.022-1.471-.515-2.305-1.258-2.852-1.863-.273-.303-.457-.57-.647-.796-.095-.112-.182-.218-.375-.34a.862.862 0 0 0-.432-.148.916.916 0 0 0-.557.181c-1.4 1.1-2.06 1.5-3.783 2.046-.38.116-.607.583-.466.954l.58 1.5H8.193l-.613-2.511c-.016-.186.083-.583.352-1.057.28-.493.721-1.06 1.238-1.602 1.034-1.082 2.403-2.079 3.261-2.431h.011zm-4.408 7.908c.126.16.287.357.488.58a8.037 8.037 0 0 0 2.659 1.942c-.106.189-.193.341-.284.489h-5.42l-.5-1.318c1.21-.443 2.035-.925 3.057-1.693zM3.512 18.602h13.725c-.891.628-1.77.932-3.738 2.113-.004.004-.007-.003-.01 0-.94.545-1.542 1.26-1.785 2.034A2.65 2.65 0 0 0 12 24.965c.798 1.244 2.63 1.766 4.34.795 1.681-.84 3.137-1.582 4.42-2.33v6.954H3.513z" display="inline" overflow="visible" style="color:#000;text-indent:0;text-transform:none;direction:ltr;block-progression:tb;baseline-shift:baseline;display:inline;overflow:visible;visibility:visible;fill:#000;fill-opacity:1;fill-rule:evenodd;stroke:none;marker:none;enable-background:accumulate" visibility="visible"/></svg>