<svg xmlns="http://www.w3.org/2000/svg" xml:space="preserve" id="svg2" width="32" height="32" x="0" y="0" style="clip-rule:evenodd;fill-rule:evenodd;image-rendering:optimizeQuality;shape-rendering:geometricPrecision;text-rendering:geometricPrecision" version="1.1"><defs id="defs4"><style id="style6" type="text/css">.fil0,.fil1{fill:#000}</style></defs><g id="g4146" transform="translate(-9.497 -9.497) scale(.78452)"><path id="path4" d="M52.744 12.254a.5.5 0 0 0-.707 0L12.252 52.039a.5.5 0 0 0 .708.707l39.785-39.785a.501.501 0 0 0-.001-.707z"/><path id="path6" d="M21.075 30.044a8.908 8.908 0 0 0 6.344-2.631 8.899 8.899 0 0 0 2.622-6.34c0-4.941-4.019-8.962-8.974-8.962-4.939 0-8.958 4.022-8.958 8.966.001 4.944 4.023 8.967 8.966 8.967z"/><path id="path8" d="M43.924 34.957c-4.94 0-8.965 4.021-8.971 8.965 0 4.946 4.024 8.971 8.971 8.971s8.971-4.021 8.971-8.965c0-4.947-4.025-8.971-8.971-8.971z"/></g></svg>