<svg xmlns="http://www.w3.org/2000/svg" width="32" height="32"><path d="M24.095 23.095a46.876 46.876 0 0 1-2.081 6.673c-.274.22-.537.43-.837.617a45.315 45.315 0 0 0 2.392-7.414A7.779 7.779 0 0 0 8.425 19.41a27.67 27.67 0 0 1-2.012 5.901q-.155-.295-.305-.6a28.196 28.196 0 0 0 1.791-5.424 8.316 8.316 0 0 1 16.19 3.809zm-7.296-5.3a3.487 3.487 0 0 0-4.195 2.596 28.143 28.143 0 0 1-3.39 8.696l.375.343a28.175 28.175 0 0 0 3.536-8.916 2.951 2.951 0 0 1 5.745 1.352 35.696 35.696 0 0 1-3.905 10.086q.3.037.611.048a35.98 35.98 0 0 0 3.814-10.01 3.487 3.487 0 0 0-2.59-4.195zm.735-3.133a6.706 6.706 0 0 0-8.047 4.989 27.102 27.102 0 0 1-2.435 6.754q.16.257.332.504a27.075 27.075 0 0 0 2.613-7.156 6.17 6.17 0 1 1 12.011 2.827 41.538 41.538 0 0 1-3.111 8.921 9.49 9.49 0 0 0 .735-.29 42.863 42.863 0 0 0 2.897-8.508 6.706 6.706 0 0 0-4.995-8.041ZM16.43 19.36a1.878 1.878 0 0 0-2.258 1.4 29.167 29.167 0 0 1-3.756 9.356c.145.107.296.21.446.311a29.73 29.73 0 0 0 3.835-9.549 1.342 1.342 0 1 1 2.613.612 33.26 33.26 0 0 1-3.991 10.107l.493.14a34.028 34.028 0 0 0 3.997-10.118 1.878 1.878 0 0 0-1.379-2.259Zm-.37 1.566a.268.268 0 0 0-.322.199 31.018 31.018 0 0 1-3.927 9.839c.161.085.327.16.494.236a31.742 31.742 0 0 0 3.954-9.957.268.268 0 0 0-.199-.317ZM20.485 1.03a9.528 9.528 0 0 0-2.232-.912 21.067 21.067 0 0 0-4.458 0 9.506 9.506 0 0 0-2.264.912 20.552 20.552 0 0 1 8.954 0zm-3.316 15.198a5.096 5.096 0 0 0-6.131 3.793c-.376 1.61-1.17 4.957-2.945 7.848q.177.22.364.435c1.883-2.999 2.71-6.491 3.101-8.154a4.56 4.56 0 1 1 8.879 2.086 38.008 38.008 0 0 1-3.6 9.737q.332-.032.66-.091a39.097 39.097 0 0 0 3.465-9.522 5.096 5.096 0 0 0-3.793-6.132Zm2.822-12.033a17.392 17.392 0 0 1 5.665 2.473c-.171-.332-.348-.66-.536-.97a17.982 17.982 0 0 0-18.24 0 18.59 18.59 0 0 0-.536.965A17.376 17.376 0 0 1 19.99 4.195Zm.37-1.566a19.13 19.13 0 0 1 3.396 1.148q-.413-.488-.858-.928a19.736 19.736 0 0 0-2.42-.74 19.484 19.484 0 0 0-11.372.75q-.451.44-.864.94A18.948 18.948 0 0 1 20.36 2.65Zm-.735 3.176a15.745 15.745 0 0 1 7.264 3.9 15.649 15.649 0 0 0-.354-1.036 16.357 16.357 0 0 0-21.072 0c-.123.338-.247.687-.354 1.036a15.804 15.804 0 0 1 14.516-3.9Zm-1.351 5.724a9.92 9.92 0 0 0-11.931 7.387 31.238 31.238 0 0 1-1.073 3.67q.129.385.273.766a29.607 29.607 0 0 0 1.33-4.291 9.388 9.388 0 1 1 18.278 4.291A48.19 48.19 0 0 1 23.8 28.02a14.812 14.812 0 0 0 1.009-1.362c.343-1.121.627-2.194.863-3.181a9.924 9.924 0 0 0-7.397-11.947Zm.37-1.567a11.54 11.54 0 0 0-13.868 8.584c-.07.3-.16.654-.263 1.04.065.392.14.773.226 1.154.225-.74.413-1.449.536-2.071a10.992 10.992 0 0 1 21.673 3.219 20.353 20.353 0 0 0 .488-2.066 11.54 11.54 0 0 0-8.798-9.86zm9.157 5.424a13.143 13.143 0 0 0-23.604 0V16.727a12.607 12.607 0 0 1 23.572 0v-.794c.032-.193.032-.37.032-.547Zm-8.535-8.047a14.157 14.157 0 0 1 8.337 5.638c-.054-.38-.108-.756-.183-1.121a14.753 14.753 0 0 0-22.842 0c-.07.37-.129.746-.183 1.127a14.222 14.222 0 0 1 14.86-5.633z"/></svg>