<svg xmlns="http://www.w3.org/2000/svg" xml:space="preserve" width="32" height="32" viewBox="0 4.867 32 32"><path d="M10.855 35.067H7.523c-2.254 0-4.095-1.344-4.095-4.67v-5.5C3.428 22.91.79 22.689 0 22.689v-3.647c.79 0 3.428-.222 3.428-2.206v-5.532c0-3.325 1.748-4.637 4.095-4.637h3.332v3.645H9.301c-1.936 0-2.067 1.183-2.067 2.046v5.15c-.027 2.976-1.837 3.198-3.172 3.328v.06c1.334.1 3.145.323 3.172 3.299v5.18c0 .863.131 2.045 2.067 2.045h1.554zM21.14 6.667h3.428c2.158 0 4 1.346 4 4.669v5.5c0 1.983 2.541 2.206 3.432 2.206v3.648c-.89 0-3.432.221-3.432 2.207v5.532c0 3.326-1.746 4.638-4.093 4.638H21.14v-3.646h1.556c1.938 0 2.064-1.182 2.064-2.046v-5.151c.031-2.974 1.84-3.197 3.175-3.327v-.06c-1.336-.1-3.144-.323-3.175-3.298v-5.18c0-.864-.127-2.046-2.064-2.046H21.14z"/></svg>