<svg xmlns="http://www.w3.org/2000/svg" width="32" height="32"><path d="M11.918 0H3.265A3.275 3.275 0 0 0 0 3.265v8.653a3.275 3.275 0 0 0 3.265 3.266h8.653a3.275 3.275 0 0 0 3.266-3.266V3.265A3.275 3.275 0 0 0 11.918 0Zm1.633 11.918c0 .898-.735 1.633-1.633 1.633H3.265a1.637 1.637 0 0 1-1.632-1.633V3.265c0-.898.734-1.632 1.632-1.632h8.653c.898 0 1.633.734 1.633 1.632zM28.735 0h-8.653a3.275 3.275 0 0 0-3.266 3.265v8.653a3.275 3.275 0 0 0 3.266 3.266h8.653A3.275 3.275 0 0 0 32 11.918V3.265A3.275 3.275 0 0 0 28.735 0Zm1.632 11.918c0 .898-.734 1.633-1.632 1.633h-8.653a1.637 1.637 0 0 1-1.633-1.633V3.265c0-.898.735-1.632 1.633-1.632h8.653c.898 0 1.632.734 1.632 1.632zm-18.449 4.898H3.265A3.275 3.275 0 0 0 0 20.082v8.653A3.275 3.275 0 0 0 3.265 32h8.653a3.275 3.275 0 0 0 3.266-3.265v-8.653a3.275 3.275 0 0 0-3.266-3.266zm1.633 11.919c0 .898-.735 1.632-1.633 1.632H3.265a1.637 1.637 0 0 1-1.632-1.632v-8.653c0-.898.734-1.633 1.632-1.633h8.653c.898 0 1.633.735 1.633 1.633zm15.184-11.919h-8.653a3.275 3.275 0 0 0-3.266 3.266v8.653A3.275 3.275 0 0 0 20.082 32h8.653A3.275 3.275 0 0 0 32 28.735v-8.653a3.275 3.275 0 0 0-3.265-3.266zm1.632 11.919c0 .898-.734 1.632-1.632 1.632h-8.653a1.637 1.637 0 0 1-1.633-1.632v-8.653c0-.898.735-1.633 1.633-1.633h8.653c.898 0 1.632.735 1.632 1.633z" style="fill:#000;stroke-width:.6122449"/></svg>