<svg xmlns="http://www.w3.org/2000/svg" xml:space="preserve" width="32" height="32"><path d="m11.497 18.202-8.053 8.053-.19-6.856a1.623 1.623 0 0 0-1.671-1.581 1.627 1.627 0 0 0-1.581 1.671l.295 10.633c0 .04.01.076.014.113v.007c.005.045.005.09.013.133l.01.043c.01.048.027.093.041.139.013.04.02.083.037.122.005.014.013.027.019.041.019.045.044.086.067.13.02.036.036.075.059.11l.026.037c.027.04.059.075.089.11.028.035.054.072.086.104.005.005.008.012.014.017l.017.014c.031.03.067.057.101.085.037.03.073.063.113.09l.037.027c.034.022.072.038.108.058.043.023.086.048.132.068l.04.019c.039.015.08.023.121.036.046.014.092.03.14.04.014.004.028.009.043.011.042.008.086.008.13.013h.01c.037.004.074.014.112.015L12.51 32a1.627 1.627 0 0 0 .09-3.252l-6.856-.19 8.053-8.054c4.457 3.338 10.822 2.983 14.872-1.067 4.44-4.44 4.44-11.665 0-16.106-4.441-4.44-11.666-4.44-16.106 0-4.048 4.05-4.403 10.415-1.066 14.872ZM26.37 5.632c3.172 3.17 3.172 8.332 0 11.503-3.172 3.172-8.332 3.172-11.504 0-3.172-3.171-3.172-8.332 0-11.504 3.172-3.172 8.332-3.172 11.504 0z"/></svg>