<svg xmlns="http://www.w3.org/2000/svg" xml:space="preserve" width="32" height="32"><path d="M16.015 5.421a2.7 2.7 0 0 0 2.711-2.71A2.7 2.7 0 0 0 16.016 0a2.7 2.7 0 0 0-2.711 2.71 2.7 2.7 0 0 0 2.71 2.711zM21.55 17.468s-.716-8.546-1.055-9.223c-.677-1.356-1.694-2.184-4.254-2.184h-.489c-2.522 0-3.577.828-4.254 2.184-.339.677-1.054 9.223-1.054 9.223a.95.95 0 0 0 .828 1.017h.113a.902.902 0 0 0 .903-.829l.716-7.416.188 5.76-.527 14.87a1.057 1.057 0 0 0 .979 1.13h.075c.565 0 1.016-.414 1.054-.979l1.242-12.235L17.22 31.02c.038.565.527.979 1.054.979h.076a1.054 1.054 0 0 0 .978-1.13L18.84 16l.188-5.76.715 7.416a.932.932 0 0 0 .904.829h.113c.49-.076.866-.527.79-1.017z"/></svg>