<svg xmlns="http://www.w3.org/2000/svg" xml:space="preserve" width="32" height="32"><path d="M16.078 0a2.894 2.894 0 0 0-2.967 2.9 2.894 2.894 0 1 0 5.778 0A2.894 2.894 0 0 0 16.078 0zM16 6.135c-1.662 0-3.764.464-4.478 2.289l-3.044 7.766a1.128 1.128 0 0 0 .689 1.445 1.128 1.128 0 0 0 1.444-.69l2.456-6.332-2.745 10.855h2.423v9.155c0 .76.617 1.378 1.377 1.378s1.367-.617 1.367-1.378v-9.155h1.022v9.155c0 .76.606 1.378 1.367 1.378.76 0 1.377-.617 1.377-1.378v-9.155h2.423l-2.745-10.855 2.456 6.333c.208.592.852.897 1.444.689.593-.208.897-.852.689-1.445l-3.044-7.766C19.764 6.598 17.662 6.134 16 6.134z" style="fill:#000;fill-opacity:1;fill-rule:evenodd;stroke:none"/></svg>