<svg xmlns="http://www.w3.org/2000/svg" width="32" height="32"><path d="M26 20a5.967 5.967 0 0 0-3.473 1.112l-5.113-5.113 5.112-5.112A5.969 5.969 0 0 0 26 12c3.312 0 6-2.687 6-6s-2.688-6-6-6c-3.316 0-6 2.687-6 6 0 1.295.414 2.491 1.111 3.472l-5.112 5.113-5.112-5.112A5.97 5.97 0 0 0 12 6a6 6 0 1 0-6 6 5.968 5.968 0 0 0 3.473-1.113l5.112 5.112-5.113 5.113A5.966 5.966 0 0 0 6 20a6 6 0 0 0 0 12 6 6 0 0 0 6-6 5.968 5.968 0 0 0-1.113-3.473l5.112-5.113 5.113 5.113A5.972 5.972 0 0 0 20 26a6 6 0 1 0 6-6z"/></svg>