<svg xmlns="http://www.w3.org/2000/svg" width="32" height="32"><path d="m28.232 6.232-4.464-4.464C22.795.795 20.875 0 19.5 0h-15A2.507 2.507 0 0 0 2 2.5v27C2 30.875 3.125 32 4.5 32h23c1.375 0 2.5-1.125 2.5-2.5v-19c0-1.375-.796-3.296-1.768-4.268zm-1.414 1.414c.098.098.195.218.29.354H22V2.892c.136.095.256.192.354.29l4.464 4.464zM28 29.5c0 .271-.229.5-.5.5h-23a.507.507 0 0 1-.5-.5v-27c0-.271.229-.5.5-.5h15c.151 0 .32.02.5.053V10h7.947c.034.18.053.349.053.5v19z"/><path d="M16 6c-1.25 0-1.875.688-1.875 1.375 0 .688-.625.688-.625 3.438 0 2.062 1.25 6.875 1.25 7.562v1.375h2.5v-1.375c0-.688 1.25-5.5 1.25-7.562 0-2.063-.625-2.75-.625-3.438C17.875 6.688 17.25 6 16 6Zm-1.875 14.375V21H8.5v3.757h15V21h-5.625v-.625zm-5 5V26h13.75v-.625z" style="stroke-width:.625"/></svg>