<svg xmlns="http://www.w3.org/2000/svg" width="32" height="32" viewBox="0 0 8.467 8.467"><path d="M4.953 2.914c-.036 0-.071 0-.098.009-.018.035-.027.062-.045.089-.07.125-.205.356-.365.65.16-.044.339-.062.517-.062 1.159 0 2.103.945 2.103 2.095a2.1 2.1 0 0 1-4.189.222.918.918 0 0 1-.312.054A.989.989 0 0 1 2.2 5.9 2.775 2.775 0 0 0 4.97 8.467a2.785 2.785 0 0 0 2.78-2.781 2.81 2.81 0 0 0-2.798-2.772Z"/><path d="M4.953 4.215a.339.339 0 0 0-.339.339v1.132c0 .187.152.338.339.338h.918a.339.339 0 1 0 0-.677h-.58v-.793a.339.339 0 0 0-.338-.339zM2.814 5.142c.41-.713 1.185-2.077 1.4-2.46.284-.517.267-1.123 0-1.658A1.858 1.858 0 0 0 1.725.195C.817.66.461 1.8.906 2.682c.196.392.98 1.747 1.39 2.46a.3.3 0 0 0 .518 0zM1.762 1.853c0-.446.357-.802.802-.802.446 0 .802.356.802.802a.799.799 0 0 1-.802.802.81.81 0 0 1-.802-.802z"/></svg>