<svg xmlns="http://www.w3.org/2000/svg" xml:space="preserve" width="32" height="32"><g transform="matrix(.35537 0 0 .52805 -42.727 -2.296)"><circle cx="191.456" cy="11.048" r="6.7"/><path d="m210.156 41.148-6.5-17.9c-.4-1.3-1.8-2.2-3.1-2.2h-18c-1.3 0-2.7.8-3.1 2.2l-6.5 17.9c-.1.3-.1.7-.1 1l-3.6 3.4h-8l-3.5-3.5c0-.3 0-.7-.1-1l-6.5-17.9c-.4-1.3-1.8-2.2-3.1-2.2h-18c-1.3 0-2.7.8-3.1 2.2l-6.6 18c-.4 1.1.2 2.5 1.3 2.9.2.1.6.1.8.1.9 0 1.8-.6 2.1-1.5l4.9-13.6c.2-.6.9-.9 1.5-.7.6.2.9.9.7 1.5l-6.9 19.1h7.6v13c0 1.6 1.2 2.8 2.8 2.8 1.6 0 2.8-1.2 2.8-2.8v-13h2.2V61.848c0 1.6 1.2 2.8 2.8 2.8 1.6 0 2.8-1.2 2.8-2.8v-13h7.6l-6.9-19.1c-.2-.6.1-1.2.7-1.5.6-.3 1.2.1 1.5.7l4.9 13.6c.2.7.8 1.1 1.3 1.3l5.9 5.9v13.5c0 .9.8 1.7 1.7 1.7.9 0 1.7-.8 1.7-1.7v-5c0-.7.4-1.1 1.1-1.1.7 0 1.1.4 1.1 1.1v5c0 .9.8 1.7 1.7 1.7.9 0 1.7-.8 1.7-1.7v-13.6l5.9-5.9c.7-.2 1.1-.7 1.3-1.3l5.1-13.6c.2-.4.7-.8 1.2-.8.8 0 1.5.7 1.5 1.5v32.2c0 1.6 1.2 2.8 2.8 2.8 1.6 0 2.7-1.2 2.7-2.8v-10.1c0-.7.4-1.1 1.1-1.1.7 0 1.1.4 1.1 1.1v10.1c0 1.6 1.2 2.8 2.8 2.8 1.6 0 2.8-1.2 2.8-2.8v-32c0-.8.7-1.5 1.5-1.5.6 0 1 .3 1.2.8l4.9 13.6c.3.9 1.2 1.5 2.1 1.5.2 0 .6 0 .8-.1 1.4-.5 2-1.8 1.6-2.9z"/><circle cx="139.056" cy="11.048" r="6.7"/><circle cx="165.256" cy="38.548" r="4.9"/></g></svg>