<svg xmlns="http://www.w3.org/2000/svg" xml:space="preserve" width="32" height="32"><path d="M17.104 3.228c6.384 0 11.633 5.178 11.633 11.633 0 3.689-1.702 6.952-4.398 9.08a4.66 4.66 0 0 1 1.206 2.057c.071.354.142.638.142.993C29.517 24.366 32 19.898 32 14.86 32 6.704 25.332.036 17.175.036 12.21.036 7.74 2.52 5.116 6.35c1.135.071 2.2.497 3.05 1.348 1.986-2.766 5.25-4.469 8.938-4.469z"/><path d="M24.055 14.79c0-.922-.709-1.631-1.631-1.631h-3.689V8.264c0-.922-.709-1.631-1.631-1.631s-1.632.71-1.632 1.631v6.526c0 .922.71 1.632 1.632 1.632h5.32c.851 0 1.631-.71 1.631-1.632zM6.11 25.856c2.837 2.837 6.241 4.894 9.504 5.746.71.212 1.774.283 2.625.354a2.179 2.179 0 0 0 2.057-1.064l1.915-2.979a1.546 1.546 0 0 0-.567-2.199l-4.611-2.34c-.638-.355-1.419-.143-1.915.425l-1.703 2.128c-1.631-.851-2.908-1.703-4.327-3.192-1.56-1.56-2.34-2.837-3.192-4.398l2.128-1.632c.568-.425.78-1.276.426-1.915l-2.34-4.54a1.546 1.546 0 0 0-2.2-.567L1.002 11.67c-.71.426-1.064 1.206-.993 2.057.07.851.142 1.845.355 2.625.85 3.263 2.837 6.668 5.745 9.505z"/></svg>