<svg xmlns="http://www.w3.org/2000/svg" xml:space="preserve" width="32" height="32"><path d="M2.128 8.445v.001a.029.029 0 0 0 .006.006l-.006-.007zm21.07 23.276.098-.007c.105-.01.245-.05.386-.122a.802.802 0 0 0 .334-.248c.025-.028.121-.057.146-.088.01-.013.098-.026.098-.039v-.001c0-.07.006-.115.023-.147.007-.014.146-.465.142-.596-.007-.366-.205-.697-.47-.92l-.077-.059c-.176-.169-.601-.571-1.47-1.414-.067-.047-.221-.319-.23-.971-.037-1.04.324-2.63.657-4.447 1.453-.316 2.755-.645 3.751-.76.243-.028.469-.044.673-.043.652-.014.92.13.966.193.665.641 1.065 1.027 1.298 1.254.021.024.046.047.068.07.003 0 .227.213.227.215.494.47 1.271.452 1.742-.039.136-.143.365-.311.42-.492.002-.007.356-.575-2.035-2.769-.37-.34-.773-.57-1.199-.703-.501-.157-1.025-.202-1.528-.195-.776.024-1.62.152-2.499.327-.486.096-.98.204-1.483.316.084-.761.137-1.536.128-2.304-.025-2.137-.585-4.395-2.361-6.108a7.233 7.233 0 0 0-.323-.297c-1.64-1.417-3.654-1.835-5.55-1.794-.562.013-1.123.059-1.68.125-.274.034-.546.071-.818.114.202-1.189.365-2.371.358-3.49a8.2 8.2 0 0 0-.017-.437c-.043-.669-.176-1.344-.448-1.969a4.272 4.272 0 0 0-.953-1.385c-.755-.735-1.24-1.202-1.532-1.488A30.949 30.949 0 0 1 9.73.704L9.675.65 9.643.618a1.237 1.237 0 0 0-.879-.345.752.752 0 0 0-.224.02l-.016.003a.484.484 0 0 0-.036.01c-.003 0-.004 0-.005.002-.094.023-.224.06-.418.194-.218.124-.524.557-.517.984a1.212 1.212 0 0 0 .118.537c.034.088.06.124.08.147.052.079.111.152.178.219a138.637 138.637 0 0 0 .665.644c.292.282.73.674 1.288 1.214.006.006.051.012.051.018v-.002c0 .19.312.42.421.712.13.35.182.785.194 1.345.032 1.081-.23 2.446-.498 3.948-1.493.315-2.855.614-3.936.618-1.031.01-1.656-.186-2.082-.6L2.495 8.801c-.149-.143-.247-.238-.308-.299-.022-.021-.041-.036-.053-.05l.02.023-.027-.028-.004-.003s.002 0 0 0l-.002-.003c0-.002-.003-.002-.003-.002l-.01-.013-.002.002a1.13 1.13 0 0 0-.24-.187 1.209 1.209 0 0 0-.662-.175.814.814 0 0 0-.293.032c-.083.021-.166.084-.244.084H.665l.003.014a1.192 1.192 0 0 0-.505.488c-.128.33-.165.558-.163.716a.617.617 0 0 0 .065.287l.003.006c.03.115.062.25.088.283.017.028.031.16.042.16H.2c.003 0 .004-.078.007-.074.059.095.074.063.084.07.006.008.01-.01.014-.005 0 .002.003-.004.006-.002.076.084.043.04.059.058.058.057.63.611.634.617l.057.05c.284.273.676.652 1.22 1.181.01.01.018.02.03.03.537.52 1.158.849 1.813 1.044l.007.001.032.01c.647.189 1.324.248 1.983.235 1.121-.03 2.298-.231 3.48-.47a24.791 24.791 0 0 0-.15 1.872c-.082 1.773.62 3.984.651 4.06.03.072.061.145.095.216.021.048.039.095.062.142.048.101.1.202.154.303l.025.05a7.02 7.02 0 0 0 1.616 1.977c1.264 1.081 2.748 1.597 4.242 1.778.537.063 1.074.086 1.601.076.77-.016 1.544-.095 2.303-.204-.27 1.423-.518 2.793-.515 4 .018.933.2 1.928.968 2.698l1.279 1.237a2.133 2.133 0 0 0 .096.094c.002 0 .052.046.105.098.018.017.035.032.046.045.026.023.04.04.053.052l.019.015.014.013c.005.004.009.01.022.02.01.008.017.016.045.036a.442.442 0 0 0 .075.06c.025.015.054.036.122.071.01.002.018.006.027.01.004 0 .006.003.01.004.051.026.111.068.28.098.04.008.087.015.144.02l.129.007.056-.008zm-6.55-10.892a6.022 6.022 0 0 1-1.785-.461 4.751 4.751 0 0 1-2.199-1.957c-.507-.874-.705-1.88-.731-3.064-.01-.39.005-.792.035-1.2a22.8 22.8 0 0 1 .222-1.796c1.03-.197 2.036-.346 2.98-.353 1.67-.017 2.999.318 4.116 1.396a4.806 4.806 0 0 1 1.135 1.691c.31.769.448 1.636.476 2.597a12.996 12.996 0 0 1-.038 1.377c-.039.501-.1 1.01-.177 1.52-.95.175-1.896.3-2.802.309-.428.004-.84-.014-1.233-.059z" style="fill:#000;stroke-width:.65144473"/></svg>