<svg xmlns="http://www.w3.org/2000/svg" width="32" height="32"><path d="M28.728 3.32c-4.374-4.39-11.484-4.404-15.877-.032a11.16 11.16 0 0 0-3.178 6.36 11.173 11.173 0 0 0-6.367 3.15c-4.398 4.38-4.407 11.487-.032 15.88 4.374 4.391 11.48 4.409 15.88.03a11.165 11.165 0 0 0 3.173-6.357 11.185 11.185 0 0 0 6.372-3.15c4.39-4.378 4.404-11.486.029-15.88zM17.569 27.116a8.992 8.992 0 0 1-12.704-.024 8.992 8.992 0 0 1 .025-12.703 8.953 8.953 0 0 1 4.688-2.457 11.175 11.175 0 0 0 3.24 7.235 11.17 11.17 0 0 0 7.225 3.27 8.955 8.955 0 0 1-2.474 4.68zm9.567-22.21a8.998 8.998 0 0 1-.022 12.703 8.977 8.977 0 0 1-4.692 2.46A11.172 11.172 0 0 0 11.957 9.564a8.954 8.954 0 0 1 2.479-4.682 8.999 8.999 0 0 1 12.7.024z" style="fill:#010002;stroke-width:1.12280917"/></svg>