<svg xmlns="http://www.w3.org/2000/svg" width="32" height="32" viewBox="0 0 8.467 8.467"><g style="fill:none;fill-rule:evenodd;stroke:none;stroke-width:1"><path d="M5 4a1 1 0 0 0-1 1v14a1 1 0 0 0 1 1h14a1 1 0 0 0 1-1V5a1 1 0 0 0-1-1Zm0-2h14a3 3 0 0 1 3 3v14a3 3 0 0 1-3 3H5a3 3 0 0 1-3-3V5a3 3 0 0 1 3-3Z" style="fill:#000;fill-rule:nonzero" transform="matrix(.42333 0 0 .42333 -.847 -.847)"/></g><path d="M6.35 5.523q0 .143-.1.243l-.484.484q-.1.1-.243.1-.142 0-.242-.1L4.233 5.203 3.186 6.25q-.1.1-.243.1-.142 0-.242-.1l-.485-.484q-.1-.1-.1-.243 0-.142.1-.242l1.048-1.048-1.048-1.047q-.1-.1-.1-.243 0-.142.1-.242l.485-.485q.1-.1.242-.1.143 0 .243.1l1.047 1.048 1.048-1.048q.1-.1.242-.1.143 0 .243.1l.484.485q.1.1.1.242 0 .143-.1.243L5.203 4.233 6.25 5.281q.1.1.1.242Z"/></svg>