<svg xmlns="http://www.w3.org/2000/svg" width="32" height="32" viewBox="0 0 8.467 8.467"><path d="M2.419.443a1.313 1.313 0 0 0-1-.443C1.03 0 .693.146.417.443A1.554 1.554 0 0 0 0 1.527c0 .42.14.778.416 1.075.276.302.614.453 1.004.453s.723-.151.999-.453c.28-.297.42-.655.42-1.075 0-.42-.14-.782-.42-1.084zM.521 3.738c-.258.278-.39.608-.39 1L.128 8.467h2.63l.004-2.358 1.508 1.56 1.48-1.536v2.333h2.63v-3.7a1.41 1.41 0 0 0-.385-1 1.22 1.22 0 0 0-.93-.414c-.189 0-.364.037-.521.113a.642.642 0 0 0-.215.113 4.661 4.661 0 0 0-.193.189c-.022.023-.048.051-.07.08L4.27 5.784 2.454 3.833c-.026-.033-.052-.062-.079-.09-.258-.278-.565-.42-.925-.42-.363 0-.67.137-.929.415zM8.046.443a1.312 1.312 0 0 0-1-.443c-.39 0-.727.146-1.003.443a1.554 1.554 0 0 0-.416 1.084c0 .42.14.778.416 1.075.276.302.614.453 1.004.453s.723-.151.999-.453c.28-.297.42-.655.42-1.075 0-.42-.14-.782-.42-1.084z"/></svg>