<svg xmlns="http://www.w3.org/2000/svg" width="32" height="32" viewBox="0 0 8.467 8.467"><path d="M60 30.639h-2.117a.53.53 0 0 1 0-1.059h1.587v-1.587a.53.53 0 0 1 1.058 0v2.117a.53.53 0 0 1-.529.529zM53.65 26.405a.53.53 0 0 1-.53-.529V23.76a.53.53 0 0 1 .53-.53h2.116a.53.53 0 0 1 0 1.059h-1.588v1.587a.53.53 0 0 1-.529.53zM60 26.442a.53.53 0 0 1-.53-.529v-1.587h-1.587a.53.53 0 0 1 0-1.059h2.116a.53.53 0 0 1 .53.53v2.116a.53.53 0 0 1-.53.53zM55.766 30.639h-2.117a.53.53 0 0 1-.529-.53v-2.116a.53.53 0 0 1 1.058 0v1.587h1.588a.53.53 0 0 1 0 1.059z" style="stroke-width:.26458332" transform="matrix(1.14286 0 0 1.14286 -60.709 -26.549)"/></svg>