<svg xmlns="http://www.w3.org/2000/svg" width="32" height="32" viewBox="0 0 8.467 8.467"><path d="M3.023 3.628H.604a.605.605 0 0 1 0-1.21h1.814V.606a.605.605 0 0 1 1.21 0v2.419a.605.605 0 0 1-.605.604zM5.443 8.467a.605.605 0 0 1-.605-.605v-2.42a.605.605 0 0 1 .605-.604h2.42a.605.605 0 0 1 0 1.21H6.047v1.814a.605.605 0 0 1-.605.605ZM3.023 8.467a.605.605 0 0 1-.604-.605V6.048H.604a.605.605 0 0 1 0-1.21h2.42a.605.605 0 0 1 .604.605v2.419a.605.605 0 0 1-.605.605ZM7.862 3.628H5.443a.605.605 0 0 1-.604-.605V.604a.605.605 0 0 1 1.21 0V2.42h1.813a.605.605 0 0 1 0 1.21z" style="stroke-width:.30238092"/></svg>