<svg xmlns="http://www.w3.org/2000/svg" width="32" height="32" viewBox="0 0 8.467 8.467"><g style="fill:none;fill-rule:evenodd;stroke:none;stroke-width:1"><g style="fill:#000"><path d="M1.129 3.104A1.13 1.13 0 0 0 0 4.234a1.13 1.13 0 0 0 1.129 1.128 1.13 1.13 0 0 0 1.129-1.129 1.13 1.13 0 0 0-1.13-1.129M7.338 3.104a1.13 1.13 0 0 0-1.13 1.13 1.13 1.13 0 0 0 1.13 1.128 1.13 1.13 0 0 0 1.129-1.129 1.13 1.13 0 0 0-1.13-1.129M4.233 3.104a1.13 1.13 0 0 0-1.129 1.13 1.13 1.13 0 0 0 1.13 1.128 1.13 1.13 0 0 0 1.128-1.129 1.13 1.13 0 0 0-1.129-1.129"/></g></g></svg>