<svg xmlns="http://www.w3.org/2000/svg" width="32" height="32" viewBox="0 0 8.467 8.467"><g style="fill:none;fill-rule:evenodd;stroke:none;stroke-width:1"><g style="fill:#000"><path d="M5.362 1.129A1.13 1.13 0 0 0 4.233 0a1.13 1.13 0 0 0-1.129 1.129 1.13 1.13 0 0 0 1.13 1.129 1.13 1.13 0 0 0 1.128-1.13M5.362 7.338a1.13 1.13 0 0 0-1.129-1.13 1.13 1.13 0 0 0-1.129 1.13 1.13 1.13 0 0 0 1.13 1.129 1.13 1.13 0 0 0 1.128-1.13M5.362 4.233a1.13 1.13 0 0 0-1.129-1.129 1.13 1.13 0 0 0-1.129 1.13 1.13 1.13 0 0 0 1.13 1.128 1.13 1.13 0 0 0 1.128-1.129"/></g></g></svg>