<svg xmlns="http://www.w3.org/2000/svg" width="32" height="32"><path d="m35.763 37.954 30.977-.021c2.118-.001 4.296-2.033 4.296-4.15l-.017-24.37-39.377.029.016 24.368c0 2.118 1.987 4.145 4.105 4.144zm20.358-24.795 8.078-.004a2.408 2.408 0 0 1 2.413 2.407l.011 16.227a2.412 2.412 0 0 1-2.409 2.412l-8.082.005a2.409 2.409 0 0 1-2.41-2.408l-.01-16.23a2.408 2.408 0 0 1 2.409-2.409zM76.351 49.009H23.647c-2.457 0-4.449 2.079-4.449 4.644v34.044h61.605V53.652c-.001-2.564-1.993-4.643-4.452-4.643Z" style="fill:none" transform="translate(-1.778 -1.777) scale(.35555)"/><path d="m18.18 10.385 2.874-.002a.857.857 0 0 0 .856-.858l-.004-5.77a.856.856 0 0 0-.858-.855l-2.872.001a.857.857 0 0 0-.857.857l.004 5.77a.857.857 0 0 0 .857.857z"/><path d="M31.202 6.14c0-.553-.134-1.007-.49-1.362L26.685.754C26.23.302 25.376 0 24.74 0L3.316.014A2.536 2.536 0 0 0 .782 2.55L.8 29.467A2.535 2.535 0 0 0 3.337 32l25.347-.017c1.4 0 2.534-1.137 2.534-2.536L31.202 6.14Zm-7.729-4.57.006 8.665c0 .752-.774 1.474-1.527 1.475l-11.014.008c-.753 0-1.46-.72-1.46-1.474L9.474 1.58Zm3.479 27.833H5.048V17.3c0-.912.708-1.652 1.582-1.652h18.739c.874 0 1.583.74 1.583 1.652z"/></svg>