<svg xmlns="http://www.w3.org/2000/svg" width="32" height="32"><path d="M31.68 6.33a.247.247 0 0 0-.177-.088L15.378.757a.402.402 0 0 0-.32 0L.392 8.055c-.036.044-.107.044-.142.089A.82.82 0 0 0 0 8.719v16.453c0 .266.142.531.355.62l16.195 5.484h.249c.071 0 .107 0 .178-.044L31.68 23.89c.178-.089.32-.31.32-.575V6.905c-.036-.265-.142-.486-.32-.575ZM15.272 1.907l14.775 4.998-3.978 1.99-14.775-4.998Zm.994 28.087L.923 24.774V9.426l15.343 5.22Zm.427-16.41L1.918 8.542l3.978-1.99 14.029 4.776.745.266Zm14.348 9.421-13.851 6.9V14.557l4.226-2.079v7.298c0 .177.142.266.249.221l4.901-2.432c.142-.045.213-.221.213-.398V9.78l4.227-2.123v15.348z"/></svg>