<svg xmlns="http://www.w3.org/2000/svg" width="32" height="32"><path d="M16 4.667q-3.083 0-5.688 1.52-2.604 1.521-4.125 4.126-1.52 2.604-1.52 5.687t1.52 5.688q1.521 2.604 4.125 4.125 2.605 1.52 5.688 1.52 3.083 0 5.687-1.52 2.605-1.521 4.126-4.125 1.52-2.605 1.52-5.688 0-3.083-1.52-5.687-1.521-2.605-4.126-4.125Q19.083 4.667 16 4.667zM32 16q0 4.354-2.146 8.031-2.146 3.677-5.823 5.823Q20.354 32 16 32q-4.354 0-8.031-2.146-3.677-2.146-5.823-5.823Q0 20.354 0 16q0-4.354 2.146-8.031 2.146-3.677 5.823-5.823Q11.646 0 16 0q4.354 0 8.031 2.146 3.677 2.146 5.823 5.823Q32 11.646 32 16z"/><path d="M22 16q0 1.633-.805 3.012-.804 1.379-2.183 2.183Q17.632 22 16 22q-1.633 0-3.012-.805-1.379-.804-2.183-2.183Q10 17.632 10 16q0-1.633.805-3.012.804-1.379 2.183-2.183Q14.368 10 16 10q1.633 0 3.012.805 1.379.804 2.183 2.183Q22 14.368 22 16Z"/></svg>