<svg xmlns="http://www.w3.org/2000/svg" width="32" height="32"><path d="M4.157 0h9.953q6.8 0 9.872 1.935 3.073 1.934 3.073 6.158a7.757 7.757 0 0 1-1.343 4.703 5.375 5.375 0 0 1-3.577 2.209v.217q3.042.678 4.354 2.538a8.255 8.255 0 0 1 1.344 4.946 8.143 8.143 0 0 1-3.16 6.843Q21.513 32 16.088 32H4.157Zm6.78 12.666h3.938q2.756 0 3.994-.853a3.185 3.185 0 0 0 1.244-2.824 2.824 2.824 0 0 0-1.344-2.638q-1.362-.796-4.267-.796h-3.565zm0 5.38v8.33h4.417q2.8 0 4.13-1.07a3.956 3.956 0 0 0 1.332-3.278q0-3.981-5.686-3.981z" style="stroke-width:.62208402"/></svg>