<svg xmlns="http://www.w3.org/2000/svg" width="32" height="32"><path d="M32 16v2.275h-7.314c.849 1.38 1.338 2.946 1.338 4.587 0 2.537-1.142 4.96-3.134 6.676C21.029 31.142 18.612 32 16.033 32c-2.58 0-4.996-.858-6.857-2.462-1.992-1.715-3.135-4.14-3.135-6.676h4.016c-.065 2.462 2.678 4.55 5.943 4.55 3.265 0 6.008-2.088 6.008-4.55 0-2.461-2.743-4.587-6.008-4.587H0V16h9.371c-.065-.075-.13-.112-.228-.186-1.992-1.716-3.135-4.14-3.135-6.676 0-2.537 1.143-4.96 3.135-6.676C11.004.858 13.42 0 16 0s4.996.858 6.857 2.462c1.992 1.715 3.135 4.14 3.135 6.676h-3.984c0-2.462-2.743-4.55-6.008-4.55s-6.008 2.088-6.008 4.55c0 2.461 2.743 4.587 6.008 4.587 2.482 0 4.8.82 6.629 2.275z" style="stroke-width:.34897417"/></svg>