<svg xmlns="http://www.w3.org/2000/svg" width="32" height="32"><path d="M30.75 4.923H8.25a1.25 1.923 0 0 1 0-3.846h22.5a1.25 1.923 0 0 1 0 3.846z" style="stroke-width:1.55047643"/><path d="M30.75 17.923H8.25a1.25 1.923 0 0 1 0-3.846h22.5a1.25 1.923 0 0 1 0 3.846zM30.75 30.923H8.25a1.25 1.923 0 0 1 0-3.846h22.5a1.25 1.923 0 0 1 0 3.846z" style="stroke-width:1.55047655"/><circle cx="3" cy="3" r="3" style="stroke-width:1.65225101"/><circle cx="3" cy="16" r="3" style="stroke-width:1.65225101"/><circle cx="3" cy="29" r="3" style="stroke-width:1.65225101"/></svg>