<svg xmlns="http://www.w3.org/2000/svg" width="32" height="32"><path d="M30.75 4.923H8.25a1.25 1.923 0 0 1 0-3.846h22.5a1.25 1.923 0 0 1 0 3.846z" style="stroke-width:1.55047643"/><path d="M30.75 17.923H8.25a1.25 1.923 0 0 1 0-3.846h22.5a1.25 1.923 0 0 1 0 3.846zM30.75 30.923H8.25a1.25 1.923 0 0 1 0-3.846h22.5a1.25 1.923 0 0 1 0 3.846z" style="stroke-width:1.55047655"/><circle cx="3" cy="3" r="3" style="stroke-width:1.65225101"/><circle cx="3" cy="16" r="3" style="stroke-width:1.65225101"/><path d="M6.203 30.828q0 .202-.142.344l-.687.687Q5.233 32 5.031 32q-.202 0-.343-.141l-1.485-1.485-1.485 1.485Q1.576 32 1.374 32q-.202 0-.343-.141l-.687-.687q-.141-.142-.141-.344 0-.202.141-.343L1.83 29 .344 27.515q-.141-.141-.141-.343 0-.202.141-.344l.687-.687Q1.172 26 1.374 26q.202 0 .344.141l1.485 1.485 1.485-1.485Q4.828 26 5.03 26q.202 0 .343.141l.687.687q.142.142.142.344 0 .202-.142.343L4.576 29l1.485 1.485q.142.141.142.343Z"/></svg>