<svg xmlns="http://www.w3.org/2000/svg" width="32" height="32"><path d="M30.75 4.923H8.25a1.25 1.923 0 0 1 0-3.846h22.5a1.25 1.923 0 0 1 0 3.846z" style="stroke-width:1.55047643"/><path d="M30.75 17.923H8.25a1.25 1.923 0 0 1 0-3.846h22.5a1.25 1.923 0 0 1 0 3.846zM30.75 30.923H8.25a1.25 1.923 0 0 1 0-3.846h22.5a1.25 1.923 0 0 1 0 3.846z" style="stroke-width:1.55047655"/><circle cx="3" cy="3" r="3" style="stroke-width:1.65225101"/><circle cx="3" cy="16" r="3" style="stroke-width:1.65225101"/><path d="M6 27.172q0 .202-.108.343l-3.33 4.344Q2.455 32 2.3 32q-.154 0-.263-.141L.108 29.343Q0 29.202 0 29q0-.202.108-.343l.527-.687q.108-.142.263-.142.155 0 .263.142L2.3 29.46l2.54-3.319Q4.947 26 5.102 26q.155 0 .263.141l.527.687q.108.142.108.344z"/></svg>