<svg xmlns="http://www.w3.org/2000/svg" width="32" height="32"><path d="M0 0h2.005v5H.942V.986H0Z" style="fill:#000;stroke-width:1.66775656"/><path d="M2.165 15.518a.893.882 0 0 0 .187-.506.566.559 0 0 0-.163-.41.558.55 0 0 0-.418-.164 1.138 1.123 0 0 0-.886.657L0 14.578a2.731 2.696 0 0 1 .762-.804 1.868 1.844 0 0 1 1.054-.273 1.698 1.676 0 0 1 1.127.402 1.372 1.354 0 0 1 .486 1.094 1.484 1.465 0 0 1-.195.724 4.799 4.736 0 0 1-.72.884l-.891.916h1.954v.979H.085v-.811l1.453-1.469a6.505 6.42 0 0 0 .627-.702Z" style="fill:#000;stroke-width:1.65580487"/><path d="M.275 27.94V27h3.032v.764l-1.012 1.153a1.411 1.409 0 0 1 1.247 1.42 1.504 1.501 0 0 1-.53 1.22 2.029 2.025 0 0 1-1.349.441A2.925 2.92 0 0 1 0 31.418l.452-.877a2.246 2.242 0 0 0 1.255.496.885.883 0 0 0 .549-.163.556.555 0 0 0 .216-.47.573.572 0 0 0-.249-.488 1.144 1.142 0 0 0-.687-.18 2.377 2.373 0 0 0-.659.134v-.813l.95-1.116Z" style="fill:#000;stroke-width:1.66503501"/><path d="M30.7 4.5H7.3a1.3 2 0 0 1 0-4h23.4a1.3 2 0 0 1 0 4zM30.7 18H7.3a1.3 2 0 0 1 0-4h23.4a1.3 2 0 0 1 0 4zM30.7 31.5H7.3a1.3 2 0 0 1 0-4h23.4a1.3 2 0 0 1 0 4z" style="stroke-width:1.61249554"/></svg>