<svg xmlns="http://www.w3.org/2000/svg" width="32" height="32"><path d="M31.2 4.923H16.8a.8 1.923 0 0 1 0-3.846h14.4a.8 1.923 0 0 1 0 3.846z" style="stroke-width:1.24038184"/><path d="M30.4 17.923H1.6a1.6 1.923 0 0 1 0-3.846h28.8a1.6 1.923 0 0 1 0 3.846z" style="stroke-width:1.75416493"/><path d="M30.4 30.923H1.6a1.6 1.923 0 0 1 0-3.846h28.8a1.6 1.923 0 0 1 0 3.846z" style="stroke-width:1.75415599"/><path d="m13.746 2.796-5.48-1.673c-.443-.133-1.062.025-.958.249l.427.873H.5c-.28 0-.501.09-.501.206v1.09c0 .116.221.207.5.207h7.235l-.427.872c-.104.225.515.388.957.249l5.48-1.673c.34-.097.34-.303 0-.4z"/></svg>