<svg xmlns="http://www.w3.org/2000/svg" width="32" height="32"><path d="M31.2 4.923H16.8a.8 1.923 0 0 1 0-3.846h14.4a.8 1.923 0 0 1 0 3.846z" style="stroke-width:1.24038184"/><path d="M30.4 17.923H1.6a1.6 1.923 0 0 1 0-3.846h28.8a1.6 1.923 0 0 1 0 3.846z" style="stroke-width:1.75416493"/><path d="M30.4 30.923H1.6a1.6 1.923 0 0 1 0-3.846h28.8a1.6 1.923 0 0 1 0 3.846z" style="stroke-width:1.75415599"/><path d="m.254 3.199 5.48 1.672c.443.134 1.062-.024.958-.248l-.427-.873H13.5c.28 0 .501-.09.501-.206v-1.09c0-.116-.221-.207-.5-.207H6.264l.427-.873c.104-.224-.515-.387-.957-.248L.255 2.799c-.34.097-.34.303 0 .4z"/></svg>