<svg xmlns="http://www.w3.org/2000/svg" width="32" height="32"><path d="M26.077 17.267a3.033 3.033 0 0 0-2.185 1.083l-1.357 1.639V5.11a2.212 2.212 0 1 0-4.411 0v9.236a.34.34 0 0 1-.356.34.34.34 0 0 1-.34-.34V2.386a2.212 2.212 0 1 0-4.41 0v11.96a.34.34 0 0 1-.357.34.34.34 0 0 1-.34-.34V4.428a2.212 2.212 0 0 0-4.41 0v9.911a.34.34 0 0 1-.095.23.34.34 0 0 1-.228.096h-.06a.34.34 0 0 1-.34-.34V7.832a2.212 2.212 0 1 0-4.41 0v16.026A8.143 8.143 0 0 0 10.92 32h5.602a8.143 8.143 0 0 0 6.23-2.901l5.768-6.86a3.027 3.027 0 0 0-2.45-4.972z" style="stroke-width:.33930546"/></svg>