<svg xmlns="http://www.w3.org/2000/svg" width="32" height="32"><path d="M9.147 3.79h1.12c0 .13-.043.302-.043.43 0 1.723 1.378 3.102 3.1 3.102 1.724 0 3.102-1.379 3.102-3.101 0-.13-.043-.302-.043-.431h1.12a.57.57 0 0 0 .56-.56.57.57 0 0 0-.56-.56h-1.12C16.167 1.163 14.875 0 13.325 0c-1.55 0-2.843 1.163-3.058 2.67h-1.12a.57.57 0 0 0-.56.56c.043.302.259.56.56.56z"/><path d="M25.642 4.35a.57.57 0 0 0-.56-.56.57.57 0 0 0-.56.56v3.402c0 .517-.43.948-.947.948h-.732V4.35a.57.57 0 0 0-.56-.56.57.57 0 0 0-.56.56v4.393h-.732a.956.956 0 0 1-.948-.948V4.393a.57.57 0 0 0-.56-.56c-.3 0-.473.215-.473.517v3.402c0 1.12.904 2.068 2.067 2.068h.732v3.359c-.732-.043-1.98-.301-2.498-.861-.086-.13-.301-.603-.473-.905-.646-1.335-1.637-3.402-3.661-3.402h-3.532c-2.412 0-3.36 2.54-3.876 3.919-.086.172-.13.345-.172.474-.517 1.206-1.12 4.393-1.206 4.737-.173.776.344 1.55 1.163 1.723.086 0 .172.043.301.043.69 0 1.292-.474 1.421-1.163.259-1.249.732-3.488 1.034-4.177.043-.043.043-.13.086-.216l.086 4.738-1.464 12.188A1.58 1.58 0 0 0 10.353 32h.172c.776 0 1.422-.56 1.508-1.378l1.292-11.069 1.292 11.069a1.495 1.495 0 0 0 1.723 1.335 1.495 1.495 0 0 0 1.335-1.723l-1.422-12.188.087-4.91c.215.43.43.818.732 1.163 1.378 1.507 3.79 1.723 4.651 1.766v15.117c0 .301.259.56.56.56a.57.57 0 0 0 .56-.56V15.849c.388-.258.646-.689.646-1.206 0-.516-.258-.947-.646-1.206v-3.66h.732c1.12 0 2.067-.905 2.067-2.068z"/></svg>