<svg xmlns="http://www.w3.org/2000/svg" width="32" height="32"><path d="M25.143 6.857c-2.03 0-3.855 1.03-5.11 2.667h-8.065c-1.256-1.637-3.08-2.667-5.11-2.667-3.788 0-6.858 3.582-6.858 8s3.07 8 6.857 8c2.03 0 3.855-1.03 5.11-2.667h8.065c1.256 1.637 3.08 2.667 5.11 2.667 3.788 0 6.858-3.582 6.858-8s-3.07-8-6.857-8ZM10.286 16.19H8v2.667H5.714V16.19H3.43v-2.666h2.285v-2.667H8v2.667h2.286zm14.857-5.333c.63 0 1.143.597 1.143 1.333 0 .737-.512 1.334-1.143 1.334-.63 0-1.143-.597-1.143-1.334 0-.736.512-1.333 1.143-1.333zm-2.286 5.333c-.63 0-1.143-.596-1.143-1.333s.512-1.333 1.143-1.333S24 14.121 24 14.857c0 .737-.512 1.333-1.143 1.333zm2.286 2.667c-.63 0-1.143-.597-1.143-1.333s.512-1.334 1.143-1.334c.63 0 1.143.597 1.143 1.334 0 .736-.512 1.333-1.143 1.333zm2.286-2.667c-.631 0-1.143-.596-1.143-1.333s.512-1.333 1.143-1.333c.63 0 1.143.597 1.143 1.333 0 .737-.512 1.333-1.143 1.333z" style="stroke-width:.38404387"/></svg>