<svg xmlns="http://www.w3.org/2000/svg" width="32" height="32"><switch transform="translate(-.8 -.832) scale(.33605)"><g><path d="M86.5 93.3 84 83.8c-1.7-6.5-7.1-11.3-13.7-12.2l-5.9-.8-1.8-5.1c1.3-.9 2.5-2 3.6-3.1.5.7 1.1 1.3 1.8 1.9 2.2 1.8 4.9 2.3 6.6 2.5.8.1 1.3-.6 1.1-1.3-.4-1.3-1.4-3.3-3-5 2.5 0 4.7-.9 6-1.6.7-.4.8-1.2.1-1.7-1.3-1-3.7-2.5-6.5-2.7h-1.1c.5-1.2.9-2.4 1.2-3.6 1.7-.9 4.4-3.1 4.4-8.8 0-4.1-.7-6.6-2.1-7.9-.3-.3-.7-.5-1-.7-.1-1.3-.4-2.5-.7-3.7 6.4-1.3 10.4-3.1 10.4-5.2 0-2.4-5.4-4.5-13.7-5.8l-1.2-8.6c-.8-5.6-6.5-9.2-11.9-7.5l-3.8 1.2c-1.8.6-3.7.6-5.5 0l-3.9-1.2C38 1.2 32.3 4.8 31.5 10.4L30.3 19c-8.3 1.3-13.7 3.4-13.7 5.8 0 2 4 3.9 10.4 5.2-.3 1.2-.6 2.4-.7 3.7-.3.2-.7.3-.9.6-1.5 1.4-2.2 3.9-2.2 8 0 5.6 2.7 7.9 4.4 8.8 1.4 6.2 5 11.3 9.8 14.7l-1.8 5.1-5.9.8c-6.7.9-12.1 5.7-13.7 12.2l-2.5 9.5c-.3 1.1-.1 2.1.6 3 .6.8 1.6 1.3 2.7 1.3h66.4c1.1 0 2.1-.4 2.7-1.3.6-1 .9-2.1.6-3.1zM50 31.9c5.8 0 11.3-.3 16.1-.9.1 1 .2 2.1.3 3.1l-12.1 1c-1.4.1-2.9.2-4.3.2s-2.9-.1-4.3-.2l-12.1-1c.1-1 .2-2.1.3-3.1 4.8.6 10.3.9 16.1.9zM27.1 42.3c0-2.4.3-3.7.6-4.4h.6c0 .7.5 3.2 1 3.2H32c.6 0 1-.5 1-1.1 0 0 .1-1 .2-2.4l1.9.7c0 2.4.2 4.1.6 5 1.1 2.3 2.9 3.5 5.4 3.5 3.2 0 5.3-1 6.4-3 .6-1.1 1-2.6 1.1-4.9 0-.3.3-.6.6-.6h1.2c.3 0 .6.2.6.6.1 2.4.5 3.8 1.1 4.9 1.1 2 3.2 3 6.4 3 2.5 0 4.3-1.2 5.4-3.5.4-.9.7-2.6.6-5l1.9-.7c.1 1.5.2 2.4.2 2.4 0 .6.5 1.1 1 1.1h2.7c.6 0 1-2.5 1-3.2h.6c.3.7.5 1.9.5 4.4 0 2.8-.9 4.2-1.6 4.8-2.6.6-12.1 2.4-21.3 2.4-9.1 0-18.6-1.9-21.3-2.4-.2-.6-1.1-2-1.1-4.8zm12 30.5 1.7-5.1c2.8 1.3 5.9 2.1 9.2 2.1 3.2 0 6.3-.8 9.1-2.1l1.7 5.1c-6.4 4.7-15.2 4.7-21.7 0z"/></g></switch></svg>