<svg xmlns="http://www.w3.org/2000/svg" width="32" height="32"><path d="M31.158.842H.842A.842.842 0 0 0 0 1.684v28.632a.842.842 0 0 0 .842.842h30.316a.842.842 0 0 0 .842-.842V1.684a.842.842 0 0 0-.842-.842ZM26.105 16h1.684a.842.842 0 0 1 0 1.684h-1.684a.842.842 0 0 1 0-1.684zm-4.21 6.737h3.368v6.737h-3.368zm0-20.21h3.368v10.105h-3.368zm-20.21 0h3.368v26.947H1.684zm8.42 26.947H6.737V2.526h3.368zm5.053 0h-3.369V2.526h3.369zm1.684-26.948h3.369v26.948h-3.369zm13.474 26.948h-3.369v-6.737h3.369zm0-16.842h-3.369V2.526h3.369z" style="stroke-width:.42105266"/></svg>