<svg xmlns="http://www.w3.org/2000/svg" width="32" height="32"><switch transform="translate(-.85 -.841) scale(.33647)"><g><path d="M86.2 62.9c-.9-1.9-9.1-20.4-11-24.4-1.9-3.9-6.3-6.2-10.5-4.9-2.2.7-4.1 2.6-5 4.2-.8 1.6-5.6 11.5-5.6 11.5l-5 2.9c2.1 1.8 3 4.6 2.4 7.3l7.3-4.2c.6-.4 1.2-.9 1.5-1.6l2.7-5.5c.3 3.5.1 9.9-3.4 17.3-1.2 2.6 2.2 3.8 6.9 4.1L68 93.8c.1 2 1.7 3.6 3.8 3.8 2.2.1 4.1-1.5 4.2-3.8l2.4-25.2c5.2-1.2 9-3.2 7.8-5.7z"/><circle cx="58.7" cy="24.4" r="8.6"/><path d="M49.2 4.6c0-1.2-1-2.1-2.1-2.1S45 3.5 45 4.6v4.1c0 1.2 1 2.1 2.1 2.1s2.1-1 2.1-2.1zM53.8 12.5c.3.2.6.2 1 .2.8 0 1.5-.4 1.9-1.2l1.8-3.6c.5-1.1.1-2.3-.9-2.9-1.1-.5-2.3-.1-2.9.9l-1.8 3.6c-.5 1.1-.1 2.4.9 3zM37.5 11.5c.4.7 1.1 1.2 1.9 1.2.3 0 .7-.1 1-.2 1.1-.5 1.5-1.8.9-2.9L39.5 6c-.5-1.1-1.8-1.5-2.9-.9-1.1.5-1.5 1.8-.9 2.9ZM46.7 54.5l-6.3-4.9s-4.4-9.2-5.5-11.4c-1.1-2.2-2.8-3.9-5.3-4.6-4.2-1.3-8.6 1.1-10.3 5.1l-4.6 11.1c-.8 2-1.3 6.2-.7 8.3.6 2.1 1.2 4.3 1.4 6.5l2.8 29.2c.1 2.2 2 3.9 4.2 3.7 2-.1 3.6-1.8 3.7-3.7l2-32c0-.7.2-1.4.5-2.1l3.2-7.7 1.2 2.5c.3.6.7 1.1 1.2 1.5l7.1 5.5c.8.6 1.7.9 2.6.9 1.3 0 2.6-.6 3.4-1.7 1.6-2 1.2-4.7-.6-6.2z"/><circle cx="35.5" cy="24.4" r="8.6"/></g></switch></svg>