<svg xmlns="http://www.w3.org/2000/svg" width="32" height="32"><path d="M23.63 20.64a7.371 7.371 0 0 1-1.92 5.12 6.217 6.217 0 0 1-3.59 1.863v1.851A2.526 2.526 0 0 1 15.64 32a2.526 2.526 0 0 1-2.525-2.526V27.43A6.949 6.949 0 0 1 8.429 22a1.966 1.966 0 0 1 1.669-2.434 1.909 1.909 0 0 1 2.068 1.291 4.869 4.869 0 0 0 .949 1.76 3.611 3.611 0 0 0 2.88 1.223 4.309 4.309 0 0 0 2.16-.491 3.109 3.109 0 0 0 .594-.423 2.846 2.846 0 0 0 .995-1.886 2.686 2.686 0 0 0-.32-1.737 2.571 2.571 0 0 0-1.063-.914l-.195-.103c-.56-.24-1.657-.606-3.291-1.143a23.52 23.52 0 0 1-1.76-.617 8 8 0 0 1-1.851-1.006 6.206 6.206 0 0 1-1.829-2.286 7.189 7.189 0 0 1-.674-3.074 6.766 6.766 0 0 1 .868-3.429 5.509 5.509 0 0 1 2.4-2.285 6.149 6.149 0 0 1 1.086-.435V2.526A2.526 2.526 0 0 1 15.641 0a2.526 2.526 0 0 1 2.525 2.526v1.417a6.331 6.331 0 0 1 2.915 1.566 6.263 6.263 0 0 1 1.657 2.902 1.977 1.977 0 0 1-1.783 2.446h-.137a1.886 1.886 0 0 1-1.932-1.268 2.994 2.994 0 0 0-.731-1.223h-.057a3.531 3.531 0 0 0-2.4-.743 3.886 3.886 0 0 0-2.412.651 1.223 1.223 0 0 0-.182.16 1.897 1.897 0 0 0-.663 1.463 2.046 2.046 0 0 0 .663 1.509l.102.091a10.823 10.823 0 0 0 3.532 1.429c.514.148.983.297 1.417.457a10.789 10.789 0 0 1 2.789 1.326 5.989 5.989 0 0 1 1.988 2.4 8.469 8.469 0 0 1 .697 3.531z" data-name="Layer 2"/></svg>