<svg xmlns="http://www.w3.org/2000/svg" width="32" height="32"><path d="M7.669 10.224a28.954 28.954 0 0 1 3.465-9.003c.326.73.678 1.436 1.055 2.12a.488.488 0 0 1 0 .454 26.765 26.765 0 0 0-2.027 5.277.472.472 0 0 1-.302.329c-.733.243-1.464.517-2.191.823zM7.669 21.776a28.953 28.953 0 0 0 3.465 9.003 28.56 28.56 0 0 1 1.055-2.12.488.488 0 0 0 0-.454 26.769 26.769 0 0 1-2.027-5.277.472.472 0 0 0-.302-.329 30.1 30.1 0 0 1-2.191-.823zM24.331 10.224a28.953 28.953 0 0 0-3.465-9.003 28.56 28.56 0 0 1-1.055 2.12.488.488 0 0 0 0 .454 26.769 26.769 0 0 1 2.027 5.277c.041.156.155.28.302.329a30.1 30.1 0 0 1 2.191.823z"/><path d="M6.627 21.793c-.384.337-.763.685-1.135 1.044-.475.468-1.253.13-1.411-.66a31.69 31.69 0 0 1 0-12.354c.158-.79.936-1.128 1.41-.66.373.36.752.707 1.136 1.044l.038-.187a29.913 29.913 0 0 1 3.298-8.807 37.765 37.765 0 0 0-4.054-.06c-1.63.043-3.345 1.465-4.043 3.54a35.176 35.176 0 0 0 0 22.613c.699 2.076 2.413 3.498 4.043 3.541 1.368.053 2.72.032 4.054-.06a29.915 29.915 0 0 1-3.298-8.807zM30.133 4.694c-.698-2.076-2.412-3.498-4.042-3.541a37.751 37.751 0 0 0-4.054.06 29.9 29.9 0 0 1 3.298 8.807l.038.187a33.08 33.08 0 0 0 1.135-1.044c.475-.468 1.253-.13 1.411.66a31.69 31.69 0 0 1 0 12.354c-.158.79-.936 1.128-1.41.66-.373-.36-.752-.707-1.136-1.044l-.038.187a29.901 29.901 0 0 1-3.298 8.807c1.333.092 2.686.113 4.054.06 1.63-.043 3.344-1.465 4.042-3.54a35.176 35.176 0 0 0 0-22.613z"/><path d="M24.331 21.776a28.953 28.953 0 0 1-3.465 9.003 28.56 28.56 0 0 0-1.055-2.12.488.488 0 0 1 0-.454 26.769 26.769 0 0 0 2.027-5.277.472.472 0 0 1 .302-.329 30.165 30.165 0 0 0 2.191-.823zM18.848 9.542l3.81 2.794a.21.21 0 0 1 0 .338l-3.81 2.794a.21.21 0 0 1-.334-.17v-.97a.21.21 0 0 0-.21-.21H9.465a.21.21 0 0 1-.21-.21v-2.807a.21.21 0 0 1 .21-.21h8.84a.21.21 0 0 0 .21-.21v-.97a.21.21 0 0 1 .333-.17zM13.152 16.532l-3.81 2.794a.21.21 0 0 0 0 .338l3.81 2.794a.21.21 0 0 0 .334-.169v-.97a.21.21 0 0 1 .21-.21h8.839a.21.21 0 0 0 .21-.21V18.09a.21.21 0 0 0-.21-.21h-8.84a.21.21 0 0 1-.21-.21v-.97a.21.21 0 0 0-.333-.169z"/></svg>