<svg xmlns="http://www.w3.org/2000/svg" width="32" height="32"><path d="m25.984.209-14.38 14.379c-.074.085-1.864 2.065-2.416 4.462-.932.682-4.331 3.349-6.01 6.803a.709.709 0 0 0 .144.828l5.5 5.129a.705.705 0 0 0 1.159-.316l1.955-6.438 1.499.236a.706.706 0 0 0 .777-.466l.877-2.542 1.5.155c.21.02.426-.055.576-.205l2.492-2.492a1.897 1.897 0 0 0 0-2.677l-1.173-1.174 5.465-5.465a.711.711 0 0 0 0-1.002 1.251 1.251 0 0 1-.005-1.77l4.742-4.743a.702.702 0 0 0 0-1.003l-1.7-1.7a.707.707 0 0 0-1.002 0zm-7.33 17.858a.475.475 0 0 1 0 .672l-2.256 2.256-1.439-.145a1.241 1.241 0 0 1 .145-1.58l.366-.365.407.406a.711.711 0 0 0 1.002 0 .711.711 0 0 0 0-1.003l-.406-.406 1.008-1.008z" style="stroke-width:.70903474"/></svg>