<svg xmlns="http://www.w3.org/2000/svg" width="32" height="32"><path d="M24.767 2.334h-5.699c-.575 0-1.116.27-1.46.73a1.826 1.826 0 0 0-1.462-.73h-5.699c-.574 0-1.116.27-1.46.73a1.826 1.826 0 0 0-1.462-.73H1.826A1.826 1.826 0 0 0 0 4.161V29.3a.365.365 0 0 0 .365.365h31.27A.366.366 0 0 0 32 29.3V9.275a1.826 1.826 0 0 0-1.826-1.827h-3.58V4.161a1.827 1.827 0 0 0-1.827-1.827Zm-5.699.73h5.699a1.096 1.096 0 0 1 1.096 1.097v3.287h-7.89V4.161a1.096 1.096 0 0 1 1.095-1.096zm-8.62 0h5.698a1.096 1.096 0 0 1 1.096 1.097v3.287h-7.89V4.161a1.096 1.096 0 0 1 1.095-1.096Zm20.821 6.21v19.66H.73V4.162a1.096 1.096 0 0 1 1.096-1.096h5.699A1.096 1.096 0 0 1 8.62 4.16v3.653a.366.366 0 0 0 .365.365h21.187a1.097 1.097 0 0 1 1.096 1.096z" style="stroke-width:.06523117"/></svg>