<svg xmlns="http://www.w3.org/2000/svg" width="32" height="32"><path d="M16 11.707A4.295 4.295 0 0 1 20.293 16 4.295 4.295 0 0 1 16 20.293 4.295 4.295 0 0 1 11.707 16 4.295 4.295 0 0 1 16 11.707zm0 1.699A2.596 2.596 0 0 1 18.594 16 2.596 2.596 0 0 1 16 18.594 2.596 2.596 0 0 1 13.406 16 2.596 2.596 0 0 1 16 13.406z"/><path d="M15.152 18.966h1.697v5.81h-1.697zM6.053 17.56a4.295 4.295 0 0 1 4.293 4.294 4.295 4.295 0 0 1-4.293 4.292 4.295 4.295 0 0 1-4.293-4.292 4.295 4.295 0 0 1 4.293-4.293zm0 1.699a2.596 2.596 0 0 1 2.595 2.595 2.596 2.596 0 0 1-2.595 2.594 2.596 2.596 0 0 1-2.594-2.594 2.596 2.596 0 0 1 2.594-2.595zM25.947 17.56a4.295 4.295 0 0 1 4.293 4.294 4.295 4.295 0 0 1-4.293 4.292 4.295 4.295 0 0 1-4.293-4.292 4.295 4.295 0 0 1 4.293-4.293zm0 1.699a2.596 2.596 0 0 1 2.594 2.595 2.596 2.596 0 0 1-2.594 2.594 2.596 2.596 0 0 1-2.595-2.594 2.596 2.596 0 0 1 2.595-2.595zM6.124 5.854a4.295 4.295 0 0 1 4.293 4.292 4.295 4.295 0 0 1-4.293 4.293 4.295 4.295 0 0 1-4.293-4.293 4.295 4.295 0 0 1 4.293-4.292zm0 1.698a2.596 2.596 0 0 1 2.595 2.594 2.596 2.596 0 0 1-2.595 2.595 2.596 2.596 0 0 1-2.594-2.595 2.596 2.596 0 0 1 2.594-2.594z"/><path d="M16 23.414a4.295 4.295 0 0 1 4.293 4.293A4.295 4.295 0 0 1 16 32a4.295 4.295 0 0 1-4.293-4.293A4.295 4.295 0 0 1 16 23.414Zm0 1.699a2.596 2.596 0 0 1 0 5.189 2.596 2.596 0 0 1 0-5.189z"/><path d="m9.099 22.8 4.699 2.676c-.404.4-.7.906-.841 1.474l-4.7-2.676c.404-.398.7-.905.842-1.473zM25.17 13.113h1.696v5.81H25.17z"/><path d="M25.947 5.854a4.295 4.295 0 0 1 4.293 4.292 4.295 4.295 0 0 1-4.293 4.293 4.295 4.295 0 0 1-4.293-4.293 4.295 4.295 0 0 1 4.293-4.292zm0 1.698a2.596 2.596 0 0 1 2.594 2.594 2.596 2.596 0 0 1-2.594 2.595 2.596 2.596 0 0 1-2.595-2.595 2.596 2.596 0 0 1 2.595-2.594zM16 0a4.295 4.295 0 0 1 4.293 4.293A4.295 4.295 0 0 1 16 8.586a4.295 4.295 0 0 1-4.293-4.293A4.295 4.295 0 0 1 16 0Zm0 1.698a2.596 2.596 0 1 1-2.594 2.594A2.596 2.596 0 0 1 16 1.699z"/><path d="M23.808 8.044a3.138 3.138 0 0 0-.882 1.45l-4.863-2.955a3.14 3.14 0 0 0 .929-1.421zM8.193 8.043l4.787-2.908c.156.563.466 1.062.882 1.45L9.076 9.493a3.136 3.136 0 0 0-.883-1.45z"/></svg>