<svg xmlns="http://www.w3.org/2000/svg" width="32" height="32"><path d="M9.138 19.122a4.596 4.596 0 0 1-4.544 5.274A4.596 4.596 0 0 1 0 19.802a4.596 4.596 0 0 1 4.594-4.594c1.746 0 3.266.976 4.043 2.412l4.4-1.467-1.944-1.946a.793.793 0 0 1 1.12-1.12l2.845 2.845a.57.57 0 0 1 .014.015l2.844 2.843a.793.793 0 0 1-1.12 1.12l-2.506-2.505zM7.45 18.85a3.011 3.011 0 0 0-5.866.952 3.011 3.011 0 1 0 5.866-.952zm9.478-2.797-2.844-2.843a.793.793 0 0 1 1.12-1.12l2.506 2.505 5.152-1.717a4.596 4.596 0 0 1 4.544-5.274A4.596 4.596 0 0 1 32 12.198a4.596 4.596 0 0 1-8.637 2.182l-4.4 1.467 1.944 1.946a.792.792 0 0 1-1.12 1.12l-2.844-2.845-.015-.015Zm7.622-2.903a3.011 3.011 0 0 0 5.866-.952 3.011 3.011 0 1 0-5.866.952z"/></svg>