<svg xmlns="http://www.w3.org/2000/svg" width="32" height="32"><path d="m31.732 15.05-1.441-2.344a1.813 1.813 0 0 1-.268-.999l.076-2.75a1.813 1.813 0 0 0-.95-1.645l-2.42-1.31a1.811 1.811 0 0 1-.731-.731l-1.31-2.42a1.813 1.813 0 0 0-1.594-.95h-.05l-2.751.076h-.05a1.812 1.812 0 0 1-.95-.268L16.95.27a1.813 1.813 0 0 0-1.898 0l-2.345 1.44a1.812 1.812 0 0 1-.949.269l-.05-.001-2.75-.076h-.05a1.813 1.813 0 0 0-1.595.95l-1.31 2.42a1.811 1.811 0 0 1-.731.731l-2.42 1.31a1.813 1.813 0 0 0-.95 1.644l.076 2.751a1.813 1.813 0 0 1-.268 1L.27 15.05a1.813 1.813 0 0 0 0 1.898l1.44 2.345a1.813 1.813 0 0 1 .268.999l-.076 2.75a1.813 1.813 0 0 0 .95 1.645l2.42 1.31a1.811 1.811 0 0 1 .731.731l1.31 2.42a1.813 1.813 0 0 0 1.594.95h.05l2.751-.076h.05a1.812 1.812 0 0 1 .95.268l2.344 1.44a1.813 1.813 0 0 0 1.898 0l2.345-1.44a1.812 1.812 0 0 1 .949-.269l.05.001 2.75.076h.05a1.813 1.813 0 0 0 1.595-.95l1.31-2.42a1.811 1.811 0 0 1 .731-.731l2.42-1.31a1.813 1.813 0 0 0 .95-1.644l-.076-2.751a1.813 1.813 0 0 1 .268-1l1.44-2.344a1.813 1.813 0 0 0 0-1.898zM11.468 7.843a3.626 3.626 0 1 1-3.626 3.626 3.626 3.626 0 0 1 3.626-3.626Zm9.064 16.316a3.626 3.626 0 1 1 3.626-3.626 3.626 3.626 0 0 1-3.626 3.626zm3.68-14.448L9.71 24.212a1.36 1.36 0 0 1-1.922-1.922L22.29 7.788a1.36 1.36 0 0 1 1.922 1.922z" style="stroke-width:1.81278"/></svg>