<svg xmlns="http://www.w3.org/2000/svg" width="32" height="32"><path d="M16 1.93a13.52 13.52 0 0 1 13.506 13.505v12.89a3.864 3.864 0 0 0-4.658.615l-1.13 1.13-1.13-1.13a3.859 3.859 0 0 0-5.457 0L16 30.07l-1.13-1.13a3.859 3.859 0 0 0-5.458 0l-1.13 1.13-1.13-1.13a3.864 3.864 0 0 0-4.658-.615V15.964A13.811 13.811 0 0 1 15.098 1.959q.455-.03.903-.03M16 0q-.51 0-1.028.033A15.786 15.786 0 0 0 .566 15.963v13.308a1.46 1.46 0 0 0 1.472 1.465 1.43 1.43 0 0 0 1.022-.431 1.93 1.93 0 0 1 2.729 0l1.13 1.13a1.93 1.93 0 0 0 2.728 0l1.13-1.13a1.93 1.93 0 0 1 2.73 0l1.13 1.13a1.93 1.93 0 0 0 2.728 0l1.13-1.13a1.93 1.93 0 0 1 2.729 0l1.13 1.13a1.93 1.93 0 0 0 2.728 0l1.13-1.13a1.93 1.93 0 0 1 2.729 0 1.43 1.43 0 0 0 1.023.43 1.46 1.46 0 0 0 1.472-1.464V15.435A15.435 15.435 0 0 0 16 0Zm-3.86 14.47a2.894 2.894 0 1 1-2.893-2.894 2.894 2.894 0 0 1 2.894 2.894Zm13.506 0a2.894 2.894 0 1 1-2.894-2.894 2.894 2.894 0 0 1 2.894 2.894Z"/></svg>