<svg xmlns="http://www.w3.org/2000/svg" width="32" height="32"><path d="M9.47 10.04a1.284 1.284 0 0 0 .637.17 1.27 1.27 0 0 0 1.102-.638l3.688-6.39a1.332 1.332 0 0 1 2.206 0l3.999 6.927-2.485 1.435-.887.512.99.265 5.796 1.553.41.11.11-.41 1.553-5.796.265-.99-.888.513-2.66 1.536-4-6.928a3.817 3.817 0 0 0-6.612 0l-3.69 6.392a1.272 1.272 0 0 0 .465 1.739zM31.066 22.277l-3.69-6.391a1.272 1.272 0 1 0-2.203 1.273l3.69 6.391a1.274 1.274 0 0 1-1.103 1.91h-7.941v-3.995l-.724.724-4.244 4.243-.3.3.3.3 4.244 4.244.724.724v-3.995h7.941a3.819 3.819 0 0 0 3.306-5.728zM11.757 25.46H4.242a1.274 1.274 0 0 1-1.105-1.91l4.059-7.029 2.66 1.536.887.513-.265-.99-1.553-5.796-.11-.41-.41.11-5.796 1.553-.99.265.887.512 2.486 1.435-4.058 7.028a3.819 3.819 0 0 0 3.308 5.728h7.515a1.273 1.273 0 0 0 0-2.546z"/></svg>