<svg xmlns="http://www.w3.org/2000/svg" width="32" height="32"><path d="M10.95 10.065c-.627-1.07-.775-1.991-.738-2.618.037-.7.295-1.364.848-1.806.48-.443 1.29-.812 2.47-.553 2.175.479 2.507 2.359 2.507 2.359s.369-1.88 2.507-2.323c1.143-.258 1.954.148 2.47.553.516.443.81 1.106.848 1.807.037.627-.11 1.548-.738 2.617-1.18 1.991-4.534 4.498-5.013 4.83-.074 0-3.982-2.876-5.162-4.866zM28.091 0v26.249L22.378 32H3.908V0ZM4.94 30.968h16.7v-5.383h5.42V1.032H4.94Zm17.77-4.35v3.576l3.539-3.576zm-12.387-8.074h11.354v-1.032H10.323Zm0 2.36h11.354V19.87H10.323Zm0 2.396h11.354v-1.033H10.323Z"/></svg>