<svg xmlns="http://www.w3.org/2000/svg" width="32" height="32" viewBox="0 0 8.467 8.467"><path fill-rule="evenodd" d="M78.098 966.587a6.653 6.653 0 0 0-2.253-1.503c-1.839-.727-4.051-.838-6.563-.508-4.945.65-11.24 3.1-18.672 7.712a91.221 91.221 0 0 0-3.27-.044c-7.127 0-13.579.808-18.408 2.187-2.414.69-4.43 1.49-5.988 2.542-1.52 1.026-2.808 2.458-2.873 4.33-.002.037 0 .097 0 .134v49.674c.001 1.94 1.316 3.411 2.873 4.463 1.558 1.053 3.553 1.874 5.966 2.564 4.827 1.378 11.28 2.187 18.407 2.187 7.127 0 13.58-.81 18.407-2.187 2.414-.69 4.408-1.513 5.966-2.564 1.52-1.025 2.834-2.436 2.895-4.309.003-.047-.021-.107-.022-.154v-49.056c4.178-4.94 6.111-9.16 5.104-12.838-.273-1-.843-1.905-1.568-2.63zm-2.74 2.828c.22.23.348.495.442.84.322 1.176-.324 3.938-3.005 7.601a9.148 9.148 0 0 0-1.083-.862c-1.558-1.052-3.575-1.896-5.988-2.585-2.332-.666-5.04-1.196-8.022-1.569 4.91-2.546 9.064-3.906 12.132-4.309 2.061-.27 3.602-.08 4.53.287.463.184.773.368.994.597zm-4.773 17.192v44.503c0 .045-.107.476-1.105 1.149s-2.705 1.418-4.861 2.033c-4.312 1.23-10.463 2.033-17.28 2.033-6.818 0-13.015-.802-17.325-2.033-2.154-.616-3.82-1.36-4.817-2.033-.996-.674-1.107-1.094-1.105-1.149l-.022-21.854a2.1 2.1 0 0 0 .177-.398c1.135-3.171 2.201-4.985 3.05-5.922.848-.936 1.38-1.108 2.21-1.237 1.655-.26 4.985.505 8.484-2.077.032-.018.064-.064.089-.089 1.205-.992 1.976-2.166 2.21-3.358.233-1.193-.013-2.18-.155-2.895-.248-1.244-.542-1.653.353-2.873 2.185.17 4.482.265 6.85.265 4.718 0 9.122-.354 12.971-.994-2.451 1.843-5.213 3.732-8.308 5.701a6.908 6.908 0 0 0-3.536-1.68l-.021-.021a7.264 7.264 0 0 0-1.127-.066c-3.839 0-6.983 3.144-6.983 6.982.01 3.831 3.152 6.973 6.983 6.983 3.838 0 6.982-3.145 6.982-6.983 0-.614-.07-1.199-.22-1.768 6.597-4.19 11.798-8.197 15.755-11.866.254-.121.513-.225.75-.353zm-21.191 11.821c.132.132.267.268.376.42.066.148.143.292.243.42.203.411.31.839.31 1.326a2.983 2.983 0 0 1-3.006 3.005 3.008 3.008 0 0 1-3.005-3.005l.022-.022c.002-1.675 1.307-2.983 2.983-2.983a3.062 3.062 0 0 1 2.077.84z" overflow="visible" style="color:#000;text-indent:0;text-transform:none;direction:ltr;baseline-shift:baseline;enable-background:accumulate" transform="matrix(.11152 0 0 .11152 -1.342 -107.546)"/></svg>