<svg
   width="32"
   height="32"
   version="1.1">
  <path
     fill="#000000"
     fill-rule="evenodd"
     d="M -2.85e-4,11.638962 C -2.85e-4,10.299083 1.0867996,9.212 2.4256913,9.212 H 29.574307 c 1.340815,0 2.425978,1.084543 2.425978,2.426962 v 8.722076 c 0,1.339878 -1.087083,2.426962 -2.425978,2.426962 H 2.4256913 c -1.3408147,0 -2.4259763,-1.084543 -2.4259763,-2.426962 z m 0.9697143,0 v 8.722076 c 0,0.806734 0.6508819,1.457248 1.456262,1.457248 H 29.574307 c 0.803337,0 1.456264,-0.652929 1.456264,-1.457248 v -8.722076 c 0,-0.806739 -0.650881,-1.457248 -1.456264,-1.457248 H 2.4256913 c -0.8033341,0 -1.456262,0.652928 -1.456262,1.457248 z M 26.86769,16 l 1.111729,1.111724 c 0.189346,0.189351 0.189346,0.496344 0,0.685694 -0.189352,0.189346 -0.496344,0.189346 -0.685695,0 L 26.182,16.685689 25.070276,17.797418 c -0.189351,0.189346 -0.496344,0.189346 -0.685694,0 -0.189348,-0.18935 -0.189348,-0.496343 0,-0.685694 L 25.49631,16 24.384582,14.888276 c -0.189348,-0.189351 -0.189348,-0.496344 0,-0.685695 0.18935,-0.189346 0.496343,-0.189346 0.685694,0 L 26.182,15.31431 27.293724,14.202581 c 0.189351,-0.189346 0.496343,-0.189346 0.685695,0 0.189346,0.189351 0.189346,0.496344 0,0.685695 z"
     id="path2"
     style="stroke-width:0.484857" />
</svg>
