<svg
   width="32"
   height="32"
   version="1.1">
  <path
     fill="#000000"
     fill-rule="evenodd"
     d="M -2.85e-4,11.638962 C -2.85e-4,10.299083 1.0867996,9.212 2.4256913,9.212 H 29.574307 c 1.340815,0 2.425978,1.084543 2.425978,2.426962 v 8.722076 c 0,1.339878 -1.087083,2.426962 -2.425978,2.426962 H 2.4256913 c -1.3408147,0 -2.4259763,-1.084543 -2.4259763,-2.426962 z m 0.96971426,0 v 8.722076 c 0,0.806734 0.65088194,1.457248 1.45626204,1.457248 H 29.574307 c 0.803337,0 1.456264,-0.652929 1.456264,-1.457248 v -8.722076 c 0,-0.806739 -0.650881,-1.457248 -1.456264,-1.457248 H 2.4256913 c -0.8033341,0 -1.45626204,0.652928 -1.45626204,1.457248 z M 5.344156,13.575714 H 4.3744432 c -0.2677794,0 -0.4848572,-0.21708 -0.4848572,-0.484857 0,-0.267782 0.2170778,-0.484858 0.4848572,-0.484858 h 2.8981287 c 0.2677793,0 0.4848572,0.217076 0.4848572,0.484858 0,0.267777 -0.2170779,0.484857 -0.4848572,0.484857 H 6.3138717 l -0.011011,4.848571 H 7.272572 c 0.2677793,0 0.4848572,0.217076 0.4848572,0.484858 0,0.267777 -0.2170779,0.484856 -0.4848572,0.484856 H 4.3744432 c -0.2677794,0 -0.4848572,-0.217079 -0.4848572,-0.484856 0,-0.267782 0.2170778,-0.484858 0.4848572,-0.484858 h 0.9587002 z"
     style="stroke-width:0.484857" />
</svg>
