<?xml version="1.0" encoding="UTF-8" standalone="no"?>
<!-- Created with Inkscape (http://www.inkscape.org/) -->

<svg
   xmlns:dc="http://purl.org/dc/elements/1.1/"
   xmlns:cc="http://creativecommons.org/ns#"
   xmlns:rdf="http://www.w3.org/1999/02/22-rdf-syntax-ns#"
   xmlns:svg="http://www.w3.org/2000/svg"
   xmlns="http://www.w3.org/2000/svg"
   version="1.1"
   width="32"
   height="32"
   id="svg3251">
  <defs
     id="defs3253" />
  <metadata
     id="metadata3256">
    <rdf:RDF>
      <cc:Work
         rdf:about="">
        <dc:format>image/svg+xml</dc:format>
        <dc:type
           rdf:resource="http://purl.org/dc/dcmitype/StillImage" />
        <dc:title></dc:title>
      </cc:Work>
    </rdf:RDF>
  </metadata>
  <g
     id="layer1">
    <path
       d="m 32,25.7509 q 0,1.0774 -0.754221,1.8316 l -3.663296,3.6633 Q 26.828262,32 25.750851,32 24.67344,32 23.919219,31.2458 L 16,23.3266 8.080781,31.2458 Q 7.32656,32 6.249149,32 5.171738,32 4.417517,31.2458 L 0.754221,27.5825 Q 0,26.8283 0,25.7509 0,24.6734 0.754221,23.9192 L 8.67344,16 0.754221,8.0807799 Q 0,7.3265599 0,6.2491499 0,5.1717399 0.754221,4.4175199 L 4.417517,0.7542201 Q 5.171738,9.9999998e-8 6.249149,9.9999998e-8 7.32656,9.9999998e-8 8.080781,0.7542201 L 16,8.6734399 23.919219,0.7542201 Q 24.67344,9.9999998e-8 25.750851,9.9999998e-8 q 1.077411,0 1.831632,0.754220000000002 l 3.663296,3.6632998 Q 32,5.1717399 32,6.2491499 q 0,1.07741 -0.754221,1.83163 L 23.32656,16 31.245779,23.9192 Q 32,24.6734 32,25.7509 z"
       id="path253" />
  </g>
</svg>
