<?xml version="1.0" encoding="UTF-8" standalone="no"?>
<!-- Created with Inkscape (http://www.inkscape.org/) -->

<svg
   xmlns:dc="http://purl.org/dc/elements/1.1/"
   xmlns:cc="http://creativecommons.org/ns#"
   xmlns:rdf="http://www.w3.org/1999/02/22-rdf-syntax-ns#"
   xmlns:svg="http://www.w3.org/2000/svg"
   xmlns="http://www.w3.org/2000/svg"
   version="1.1"
   width="32"
   height="32"
   id="svg3251">
  <defs
     id="defs3253" />
  <metadata
     id="metadata3256">
    <rdf:RDF>
      <cc:Work
         rdf:about="">
        <dc:format>image/svg+xml</dc:format>
        <dc:type
           rdf:resource="http://purl.org/dc/dcmitype/StillImage" />
        <dc:title></dc:title>
      </cc:Work>
    </rdf:RDF>
  </metadata>
  <g
     id="layer1">
    <path
       d="m 19.651126,25.00005 v 6 q 0,0.39996 -0.29998,0.69997 Q 19.051176,32 18.651176,32 h -6.000001 q -0.39996,0 -0.69997,-0.29998 -0.30001,-0.29997 -0.29998,-0.69997 v -6 q 0,-0.39997 0.29998,-0.69997 0.29997,-0.30001 0.69997,-0.29998 h 6.000001 q 0.39996,0 0.69997,0.29998 0.30001,0.29997 0.29998,0.69997 z m 7.89994,-14.99994 q 0,1.34994 -0.38748,2.525 -0.38748,1.17507 -0.87496,1.91247 -0.48747,0.73741 -1.37504,1.48747 -0.88758,0.75005 -1.43752,1.08752 -0.54994,0.33747 -1.52495,0.88748 -1.025,0.57501 -1.71252,1.62498 -0.68753,1.04997 -0.68749,1.67499 0,0.42494 -0.29998,0.81246 -0.29998,0.38751 -0.69998,0.38748 h -5.999991 q -0.37496,0 -0.63748,-0.46247 -0.26252,-0.46247 -0.26252,-0.93752 v -1.12495 q 0,-2.075 1.62498,-3.91251 1.624981,-1.83752 3.575011,-2.71248 1.47501,-0.67503 2.09997,-1.39999 0.62496,-0.72495 0.62506,-1.90001 0,-1.05 -1.16248,-1.85 -1.16248,-0.80001 -2.68757,-0.80004 -1.624981,0 -2.699951,0.72498 -0.87496,0.62506 -2.67498,2.87494 -0.32502,0.39996 -0.7749597,0.39996 -0.29998,0 -0.62506,-0.19995 L 4.8512253,7.97496 Q 4.5262153,7.725 4.4637453,7.3499 4.4012453,6.97481 4.6012353,6.64992 8.6012153,0 16.201186,0 q 1.99997,0 4.02495,0.77496 2.02499,0.77497 3.65,2.075 1.62501,1.30003 2.65,3.18749 1.025,1.88747 1.025,3.96246 z"
       id="path259" />
  </g>
</svg>
