<?xml version="1.0" encoding="UTF-8" standalone="no"?>
<!-- Created with Inkscape (http://www.inkscape.org/) -->

<svg
   xmlns:dc="http://purl.org/dc/elements/1.1/"
   xmlns:cc="http://creativecommons.org/ns#"
   xmlns:rdf="http://www.w3.org/1999/02/22-rdf-syntax-ns#"
   xmlns:svg="http://www.w3.org/2000/svg"
   xmlns="http://www.w3.org/2000/svg"
   version="1.1"
   width="32"
   height="32"
   id="svg3251">
  <defs
     id="defs3253" />
  <metadata
     id="metadata3256">
    <rdf:RDF>
      <cc:Work
         rdf:about="">
        <dc:format>image/svg+xml</dc:format>
        <dc:type
           rdf:resource="http://purl.org/dc/dcmitype/StillImage" />
        <dc:title></dc:title>
      </cc:Work>
    </rdf:RDF>
  </metadata>
  <g
     id="layer1">
    <path
       d="m 20.363801,25.45459 v 5.09091 q 0,0.5909 -0.4318,1.0227 Q 19.500191,32 18.909311,32 h -5.8182 q -0.59091,0 -1.02268,-0.4318 -0.43178,-0.4318 -0.43181,-1.0227 v -5.09091 q 0,-0.59092 0.43181,-1.02269 0.4318,-0.43177 1.02268,-0.4318 h 5.8182 q 0.59092,0 1.02269,0.4318 0.43177,0.43181 0.4318,1.02269 z M 21.045621,1.4544902 20.409231,18.90908 q -0.0227,0.59092 -0.46592,1.02269 -0.44322,0.43177 -1.03413,0.4318 h -5.8182 q -0.59091,0 -1.03413,-0.4318 -0.44321,-0.4318 -0.46592,-1.02269 L 10.954551,1.4544902 q -0.0227,-0.59091 0.39774,-1.02269 0.42046,-0.43177 1.01135,-0.4318 h 7.27272 q 0.59092,0 1.01134,0.4318 0.42043,0.43181 0.39775,1.02269 z"
       id="path259" />
  </g>
</svg>
