<?xml version="1.0" encoding="UTF-8" standalone="no"?>
<!-- Created with Inkscape (http://www.inkscape.org/) -->

<svg
   xmlns:dc="http://purl.org/dc/elements/1.1/"
   xmlns:cc="http://creativecommons.org/ns#"
   xmlns:rdf="http://www.w3.org/1999/02/22-rdf-syntax-ns#"
   xmlns:svg="http://www.w3.org/2000/svg"
   xmlns="http://www.w3.org/2000/svg"
   version="1.1"
   width="32"
   height="32"
   id="svg3251">
  <defs
     id="defs3253" />
  <metadata
     id="metadata3256">
    <rdf:RDF>
      <cc:Work
         rdf:about="">
        <dc:format>image/svg+xml</dc:format>
        <dc:type
           rdf:resource="http://purl.org/dc/dcmitype/StillImage" />
        <dc:title></dc:title>
      </cc:Work>
    </rdf:RDF>
  </metadata>
  <g
     id="layer1">
    <path
       d="m 23.163113,12.34459 -1.233219,-1.23322 c -0.227684,-0.22768 -0.595724,-0.22768 -0.822168,0 l -7.40186,7.40063 -3.518771,-3.5471 c -0.228923,-0.22768 -0.595723,-0.22768 -0.824647,0 l -1.233219,1.23446 c -0.227684,0.22768 -0.227684,0.59574 0,0.82214 l 5.160625,5.1976 c 0.227684,0.2265 0.595724,0.2265 0.822168,0 l 9.051091,-9.0511 c 0.228924,-0.22768 0.228924,-0.59572 0,-0.82341 z M 16,2.5e-7 C 7.163018,2.5e-7 0,7.1631097 0,16 0,24.8369 7.163113,32 16,32 24.836887,32 32,24.8369 32,16 32,7.1631097 24.836887,2.5e-7 16,2.5e-7 z M 16,28.3077 C 9.203654,28.3077 3.692283,22.7963 3.692283,16 3.692283,9.2024497 9.203654,3.6922797 16,3.6922797 c 6.797554,0 12.307717,5.5101 12.307717,12.3077203 0,6.7963 -5.5101,12.3077 -12.307717,12.3077 z"
       id="path257" />
  </g>
</svg>
