<?xml version="1.0" encoding="UTF-8" standalone="no"?>
<!-- Created with Inkscape (http://www.inkscape.org/) -->

<svg
   xmlns:dc="http://purl.org/dc/elements/1.1/"
   xmlns:cc="http://creativecommons.org/ns#"
   xmlns:rdf="http://www.w3.org/1999/02/22-rdf-syntax-ns#"
   xmlns:svg="http://www.w3.org/2000/svg"
   xmlns="http://www.w3.org/2000/svg"
   version="1.1"
   width="32"
   height="32"
   id="svg3240">
  <defs
     id="defs3242" />
  <metadata
     id="metadata3245">
    <rdf:RDF>
      <cc:Work
         rdf:about="">
        <dc:format>image/svg+xml</dc:format>
        <dc:type
           rdf:resource="http://purl.org/dc/dcmitype/StillImage" />
        <dc:title></dc:title>
      </cc:Work>
    </rdf:RDF>
  </metadata>
  <g
     id="layer1">
    <path
       d="M 16,32 C 7.163018,32 0,24.8369 0,16 0,7.16311 7.163113,0 16,0 24.836887,0 32,7.16311 32,16 32,24.8369 24.836887,32 16,32 z M 16,3.69228 C 9.203654,3.69228 3.692283,9.20365 3.692283,16 3.692283,22.7963 9.203654,28.3077 16,28.3077 22.797554,28.3077 28.307717,22.7963 28.307717,16 28.307717,9.20365 22.797617,3.69228 16,3.69228 z m 5.583949,16.65852 -1.24797,1.248 c -0.228924,0.2289 -0.60062,0.2289 -0.830751,0 l -3.532345,-3.5324 -3.532345,3.5324 c -0.230132,0.2289 -0.600619,0.2289 -0.830751,0 l -1.247971,-1.248 c -0.228923,-0.2289 -0.228923,-0.6006 0,-0.8308 l 3.533553,-3.53109 -3.533553,-3.53235 c -0.228923,-0.23013 -0.228923,-0.60186 0,-0.83202 l 1.247971,-1.24676 c 0.230132,-0.23014 0.600619,-0.23014 0.830751,0 l 3.532345,3.53234 3.532345,-3.53234 c 0.230131,-0.23014 0.601859,-0.23014 0.830751,0 l 1.24797,1.24676 c 0.228924,0.23013 0.228924,0.60186 0,0.83202 l -3.533553,3.53235 3.533553,3.53109 c 0.228924,0.2302 0.228924,0.6031 0,0.8308 z"
       id="path257" />
  </g>
</svg>
