<?xml version="1.0" encoding="UTF-8" standalone="no"?>
<!-- Created with Inkscape (http://www.inkscape.org/) -->

<svg
   xmlns:dc="http://purl.org/dc/elements/1.1/"
   xmlns:cc="http://creativecommons.org/ns#"
   xmlns:rdf="http://www.w3.org/1999/02/22-rdf-syntax-ns#"
   xmlns:svg="http://www.w3.org/2000/svg"
   xmlns="http://www.w3.org/2000/svg"
   version="1.1"
   width="32"
   height="32"
   id="svg3240">
  <defs
     id="defs3242" />
  <metadata
     id="metadata3245">
    <rdf:RDF>
      <cc:Work
         rdf:about="">
        <dc:format>image/svg+xml</dc:format>
        <dc:type
           rdf:resource="http://purl.org/dc/dcmitype/StillImage" />
        <dc:title></dc:title>
      </cc:Work>
    </rdf:RDF>
  </metadata>
  <g
     id="layer1">
    <path
       d="M 16,32 C 7.1630179,32 1.5e-7,24.8369 1.5e-7,16 1.5e-7,7.16311 7.1631129,0 16,0 24.836887,0 32,7.16311 32,16 32,24.8369 24.836887,32 16,32 z M 16,3.69228 C 9.2036539,3.69228 3.6922829,9.20238 3.6922829,16 3.6922829,22.7963 9.2036539,28.3077 16,28.3077 22.797554,28.3077 28.307717,22.7963 28.307717,16 28.307717,9.20245 22.797617,3.69228 16,3.69228 z m 4.908336,13.53852 h -3.692347 v 3.6923 c 0,0.6806 -0.551375,1.2308 -1.230772,1.2308 -0.680604,0 -1.230771,-0.5502 -1.230771,-1.2308 v -3.6923 h -3.692347 c -0.680604,0 -1.2307721,-0.5514 -1.2307721,-1.2308 0,-0.6794 0.5501681,-1.23077 1.2307721,-1.23077 h 3.692347 v -3.69235 c 0,-0.6806 0.550167,-1.23077 1.230771,-1.23077 0.679397,0 1.230772,0.55017 1.230772,1.23077 v 3.69235 h 3.692347 c 0.679396,0 1.230772,0.55137 1.230772,1.23077 0,0.6794 -0.551376,1.2308 -1.230772,1.2308 z"
       id="path257" />
  </g>
</svg>
