<?xml version="1.0" encoding="UTF-8" standalone="no"?>
<!-- Created with Inkscape (http://www.inkscape.org/) -->

<svg
   xmlns:dc="http://purl.org/dc/elements/1.1/"
   xmlns:cc="http://creativecommons.org/ns#"
   xmlns:rdf="http://www.w3.org/1999/02/22-rdf-syntax-ns#"
   xmlns:svg="http://www.w3.org/2000/svg"
   xmlns="http://www.w3.org/2000/svg"
   version="1.1"
   width="32"
   height="32"
   id="svg3251">
  <defs
     id="defs3253" />
  <metadata
     id="metadata3256">
    <rdf:RDF>
      <cc:Work
         rdf:about="">
        <dc:format>image/svg+xml</dc:format>
        <dc:type
           rdf:resource="http://purl.org/dc/dcmitype/StillImage" />
        <dc:title></dc:title>
      </cc:Work>
    </rdf:RDF>
  </metadata>
  <g
     id="layer1">
    <path
       d="M 16,0 C 7.163018,0 0,7.16311 0,16 0,24.8369 7.163113,32 16,32 24.836887,32 32,24.8369 32,16 32,7.16311 24.836887,0 16,0 z M 24.932958,11.45478 13.25781,23.1287 c -0.29295,0.2917 -0.766757,0.2917 -1.059707,0 l -0.235091,-0.2351 -0.0012,0 -6.423411,-6.469 c -0.29295,-0.29295 -0.29295,-0.76796 0,-1.06094 l 1.592644,-1.59138 c 0.29295,-0.29295 0.767964,-0.29295 1.060946,0 l 4.54036,4.57352 9.545848,-9.54581 c 0.29295,-0.29295 0.767965,-0.29295 1.060947,0 l 1.592643,1.59264 c 0.294159,0.29174 0.294159,0.76676 0.0012,1.06095 z"
       id="path257" />
  </g>
</svg>
