<?xml version="1.0" encoding="UTF-8" standalone="no"?>
<!-- Created with Inkscape (http://www.inkscape.org/) -->

<svg
   xmlns:dc="http://purl.org/dc/elements/1.1/"
   xmlns:cc="http://creativecommons.org/ns#"
   xmlns:rdf="http://www.w3.org/1999/02/22-rdf-syntax-ns#"
   xmlns:svg="http://www.w3.org/2000/svg"
   xmlns="http://www.w3.org/2000/svg"
   version="1.1"
   width="32"
   height="32"
   id="svg3251">
  <defs
     id="defs3253" />
  <metadata
     id="metadata3256">
    <rdf:RDF>
      <cc:Work
         rdf:about="">
        <dc:format>image/svg+xml</dc:format>
        <dc:type
           rdf:resource="http://purl.org/dc/dcmitype/StillImage" />
        <dc:title></dc:title>
      </cc:Work>
    </rdf:RDF>
  </metadata>
  <g
     id="layer1">
    <path
       d="M 15.999998,0 C 11.212685,0 7.333006,3.8803 7.333006,8.667 l 0,4.666 -2,0 C 3.859693,13.333 2.66699,14.5266 2.66699,16 l 0,13.333 c 0,1.4733 1.192641,2.667 2.666016,2.667 l 21.333984,0 c 1.47331,0 2.66602,-1.1936 2.66602,-2.667 l 0,-13.333 c 0,-1.4733 -1.19265,-2.667 -2.66602,-2.667 l -16,0 0,-4.666 c 0,-2.9467 2.386383,-5.33399 5.333008,-5.33399 2.946622,0 5.333012,2.38736 5.333012,5.33399 l 0,0.333 c 0,0.92 0.74699,1.667 1.66699,1.667 0.92,0 1.66699,-0.747 1.66699,-1.667 l 0,-0.333 C 24.66699,3.8803 20.78669,0 15.999998,0 z m 0,18 c 1.473372,0 2.666992,1.1936 2.666992,2.667 0,0.94 -0.48739,1.7659 -1.2207,2.2392 0,0 0.26108,1.5734 0.55371,3.4268 0,0.5533 -0.44669,1 -1.000002,1 l -2,0 c -0.553313,0 -1,-0.4467 -1,-1 l 0.553711,-3.4268 c -0.733313,-0.4733 -1.220703,-1.2992 -1.220703,-2.2392 0,-1.4733 1.193617,-2.667 2.666992,-2.667 z"
       id="path257" />
  </g>
</svg>
