<?xml version="1.0" encoding="UTF-8" standalone="no"?>
<!-- Created with Inkscape (http://www.inkscape.org/) -->

<svg
   xmlns:dc="http://purl.org/dc/elements/1.1/"
   xmlns:cc="http://creativecommons.org/ns#"
   xmlns:rdf="http://www.w3.org/1999/02/22-rdf-syntax-ns#"
   xmlns:svg="http://www.w3.org/2000/svg"
   xmlns="http://www.w3.org/2000/svg"
   version="1.1"
   width="32"
   height="32"
   id="svg3251">
  <defs
     id="defs3253" />
  <metadata
     id="metadata3256">
    <rdf:RDF>
      <cc:Work
         rdf:about="">
        <dc:format>image/svg+xml</dc:format>
        <dc:type
           rdf:resource="http://purl.org/dc/dcmitype/StillImage" />
        <dc:title></dc:title>
      </cc:Work>
    </rdf:RDF>
  </metadata>
  <g
     id="layer1">
    <path
       d="m 30.666574,26.6042 q 0,2.5 -1.52084,3.9479 Q 27.624895,32.0001 25.104129,32 H 6.8957985 q -2.520797,0 -4.041605,-1.4479 -1.520809,-1.4478 -1.52084,-3.9479 0,-1.1042 0.07295,-2.1562 0.07295,-1.0521 0.291656,-2.2709 0.218712,-1.2187 0.552052,-2.2604 0.33334,-1.0417 0.895843,-2.0312 0.562503,-0.9896 1.291708,-1.6875 0.729204,-0.6979 1.781234,-1.1146 1.05203,-0.4167 2.322927,-0.4167 0.18748,0 0.875001,0.4479 0.6875205,0.4479 1.5520395,1 0.864519,0.5521 2.249982,1 1.385463,0.4479 2.781254,0.4479 1.39579,0 2.781253,-0.4479 1.385463,-0.4479 2.249982,-1 0.864519,-0.5521 1.55204,-1 0.687521,-0.4479 0.875002,-0.4479 1.270834,0 2.322926,0.4167 1.052092,0.4167 1.781235,1.1146 0.729143,0.6978 1.291708,1.6875 0.562565,0.9896 0.895842,2.0312 0.333278,1.0416 0.552053,2.2604 0.218773,1.2189 0.291656,2.2709 0.07288,1.0519 0.07295,2.1562 z M 23.999933,8.0001 q 0,3.3124 -2.343799,5.6562 -2.3438,2.3438 -5.656263,2.3439 -3.312464,0 -5.656264,-2.3439 -2.3437995,-2.3438 -2.3437995,-5.6562 0,-3.31248 2.3437995,-5.65631 Q 12.687407,-4.0003111e-5 15.99987,0 q 3.312464,2.9996889e-5 5.656264,2.34379 2.343799,2.34378 2.343799,5.65631 z"
       id="path257" />
  </g>
</svg>
