<?xml version="1.0" encoding="UTF-8" standalone="no"?>
<!-- Created with Inkscape (http://www.inkscape.org/) -->

<svg
   xmlns:dc="http://purl.org/dc/elements/1.1/"
   xmlns:cc="http://creativecommons.org/ns#"
   xmlns:rdf="http://www.w3.org/1999/02/22-rdf-syntax-ns#"
   xmlns:svg="http://www.w3.org/2000/svg"
   xmlns="http://www.w3.org/2000/svg"
   version="1.1"
   width="32"
   height="32"
   id="svg3261">
  <defs
     id="defs3263" />
  <metadata
     id="metadata3266">
    <rdf:RDF>
      <cc:Work
         rdf:about="">
        <dc:format>image/svg+xml</dc:format>
        <dc:type
           rdf:resource="http://purl.org/dc/dcmitype/StillImage" />
        <dc:title></dc:title>
      </cc:Work>
    </rdf:RDF>
  </metadata>
  <g
     id="layer1">
    <path
       d="m 9.883279,15.999995 q -2.699976,0.0833 -4.416686,2.13335 h -2.23331 q -1.366617,0 -2.29995,-0.67501 Q 0,16.783315 0,15.483335 q 0,-5.88329 2.066648,-5.88329 0.100022,0 0.724982,0.35 0.624959,0.35 1.624963,0.7083 1.000004,0.35831 1.983332,0.35834 1.116671,0 2.216666,-0.38335 -0.08332,0.61669 -0.08332,1.1 0,2.31665 1.350004,4.26663 z m 17.850052,10.61667 q 0,1.99997 -1.216661,3.15833 -1.216662,1.15836 -3.233345,1.15833 H 8.716675 q -2.016683,0 -3.233345,-1.15833 -1.216661,-1.15833 -1.216661,-3.15833 0,-0.88334 0.05827,-1.72502 0.05827,-0.84168 0.233333,-1.81667 0.175062,-0.97499 0.441684,-1.80833 0.266622,-0.83335 0.716644,-1.62497 0.450022,-0.79162 1.033293,-1.35 0.583271,-0.55838 1.424981,-0.89164 0.841711,-0.33327 1.858328,-0.33336 0.166662,0 0.716644,0.35834 0.549982,0.35834 1.216662,0.80005 0.66668,0.44172 1.78335,0.79996 1.116671,0.35824 2.250017,0.35834 1.133346,9e-5 2.250016,-0.35834 1.116671,-0.35843 1.78335,-0.79996 0.66668,-0.44153 1.216662,-0.80005 0.549982,-0.35853 0.716644,-0.35834 1.016648,0 1.858328,0.33336 0.841679,0.33335 1.424981,0.89164 0.583302,0.55829 1.033386,1.35 0.450084,0.79172 0.716644,1.62497 0.26656,0.83324 0.441684,1.80833 0.175125,0.97508 0.233334,1.81667 0.05821,0.84159 0.05827,1.72502 z M 10.666687,5.333345 q 0,1.76664 -1.249981,3.01669 -1.249982,1.25004 -3.016687,1.24998 -1.766706,-6e-5 -3.016688,-1.24998 -1.249981,-1.24992 -1.249981,-3.01669 0,-1.76677 1.249981,-3.01669 1.249982,-1.24992 3.016688,-1.24998 1.766705,-6e-5 3.016687,1.24998 1.249981,1.25005 1.249981,3.01669 z m 11.733238,6.40002 q 0,2.65001 -1.875003,4.52501 -1.875003,1.87501 -4.525015,1.87501 -2.650012,0 -4.525016,-1.87501 -1.875003,-1.875 -1.875003,-4.52501 0,-2.65001 1.875003,-4.52502 1.875004,-1.875 4.525016,-1.875 2.650012,0 4.525015,1.875 1.875003,1.87501 1.875003,4.52502 z M 32,15.483335 q 0,1.29998 -0.933333,1.975 -0.933333,0.67501 -2.300012,0.67501 h -2.23331 q -1.716648,-2.05 -4.416686,-2.13335 1.350004,-1.94998 1.350004,-4.26663 0,-0.48331 -0.08332,-1.1 1.099995,0.38335 2.216665,0.38335 0.983329,0 1.983333,-0.35833 1.000004,-0.35834 1.624963,-0.70831 0.62496,-0.34997 0.724982,-0.35 2.066648,0 2.066648,5.88336 z M 29.866619,5.333345 q 0,1.76664 -1.249982,3.01669 -1.249981,1.25004 -3.016687,1.24998 -1.766705,-6e-5 -3.016687,-1.24998 -1.249982,-1.24992 -1.249982,-3.01669 0,-1.76677 1.249982,-3.01669 1.249982,-1.24992 3.016687,-1.24998 1.766706,-6e-5 3.016687,1.24998 1.249982,1.25005 1.249982,3.01669 z"
       id="path263" />
  </g>
</svg>
