<?xml version="1.0" encoding="UTF-8" standalone="no"?>
<!-- Created with Inkscape (http://www.inkscape.org/) -->

<svg
   xmlns:dc="http://purl.org/dc/elements/1.1/"
   xmlns:cc="http://creativecommons.org/ns#"
   xmlns:rdf="http://www.w3.org/1999/02/22-rdf-syntax-ns#"
   xmlns:svg="http://www.w3.org/2000/svg"
   xmlns="http://www.w3.org/2000/svg"
   version="1.1"
   width="32"
   height="32"
   id="svg3261">
  <defs
     id="defs3263" />
  <metadata
     id="metadata3266">
    <rdf:RDF>
      <cc:Work
         rdf:about="">
        <dc:format>image/svg+xml</dc:format>
        <dc:type
           rdf:resource="http://purl.org/dc/dcmitype/StillImage" />
        <dc:title></dc:title>
      </cc:Work>
    </rdf:RDF>
  </metadata>
  <g
     id="layer1">
    <path
       d="M 32,22.28571 V 28 q 0,0.71428 -0.5,1.21428 -0.500001,0.5 -1.214283,0.5 H 24.57143 q -0.714282,0 -1.214282,-0.5 -0.500001,-0.5 -0.500001,-1.21428 v -5.71429 q 0,-0.71428 0.500001,-1.21428 0.5,-0.5 1.214282,-0.5 h 1.714283 V 17.14286 H 17.14286 v 3.42857 h 1.714283 q 0.714282,0 1.214283,0.5 0.5,0.5 0.5,1.21428 V 28 q 0,0.71428 -0.5,1.21428 -0.500001,0.5 -1.214283,0.5 h -5.714286 q -0.714282,0 -1.214283,-0.5 -0.5,-0.5 -0.5,-1.21428 v -5.71429 q 0,-0.71428 0.5,-1.21428 0.500001,-0.5 1.214283,-0.5 H 14.85714 V 17.14286 H 5.7142871 v 3.42857 h 1.714283 q 0.714281,0 1.2142821,0.5 0.5,0.5 0.5,1.21428 V 28 q 0,0.71428 -0.5,1.21428 -0.5000011,0.5 -1.2142821,0.5 h -5.714287 q -0.7142823,0 -1.21428275,-0.5 Q -1.5e-7,28.71428 -1.5e-7,28 v -5.71429 q 0,-0.71428 0.5000005,-1.21428 0.50000045,-0.5 1.21428275,-0.5 h 1.714283 v -3.42857 q 0,-0.92856 0.678563,-1.60716 0.678563,-0.67859 1.607158,-0.67856 H 14.85714 v -3.42857 h -1.714283 q -0.714282,0 -1.214283,-0.5 -0.5,-0.5 -0.5,-1.21428 V 4 q 0,-0.71428 0.5,-1.21428 0.500001,-0.5 1.214283,-0.5 h 5.714286 q 0.714282,0 1.214283,0.5 0.5,0.5 0.5,1.21428 v 5.71429 q 0,0.71428 -0.5,1.21428 -0.500001,0.5 -1.214283,0.5 H 17.14286 v 3.42857 h 9.142853 q 0.928564,0 1.607158,0.67856 0.678594,0.67857 0.678563,1.60716 v 3.42857 h 1.714283 q 0.714282,0 1.214283,0.5 0.5,0.5 0.5,1.21428 z"
       id="path257" />
  </g>
</svg>
