<?xml version="1.0" encoding="UTF-8" standalone="no"?>
<!-- Created with Inkscape (http://www.inkscape.org/) -->

<svg
   xmlns:dc="http://purl.org/dc/elements/1.1/"
   xmlns:cc="http://creativecommons.org/ns#"
   xmlns:rdf="http://www.w3.org/1999/02/22-rdf-syntax-ns#"
   xmlns:svg="http://www.w3.org/2000/svg"
   xmlns="http://www.w3.org/2000/svg"
   version="1.1"
   width="32"
   height="32"
   id="svg3251">
  <defs
     id="defs3253" />
  <metadata
     id="metadata3256">
    <rdf:RDF>
      <cc:Work
         rdf:about="">
        <dc:format>image/svg+xml</dc:format>
        <dc:type
           rdf:resource="http://purl.org/dc/dcmitype/StillImage" />
        <dc:title></dc:title>
      </cc:Work>
    </rdf:RDF>
  </metadata>
  <g
     id="layer1">
    <path
       d="m 30.769148,17.230777 q 0,3.000025 -1.173069,5.730777 -1.173068,2.730752 -3.15385,4.711501 -1.980781,1.980841 -4.711541,3.153893 Q 18.999929,32 15.999921,32 12.999914,32 10.269154,30.826948 7.5383941,29.653896 5.5576133,27.673055 3.5768315,25.692306 2.4037627,22.961554 1.230694,20.230802 1.230694,17.230777 q 0,-3.500012 1.5480891,-6.596184 1.5480901,-3.0961823 4.3557868,-5.1923345 0.826915,-0.6154001 1.8365079,-0.4807963 1.0095937,0.134613 1.6057612,0.961528 0.615401,0.807678 0.47116,1.8172985 -0.144241,1.0096293 -0.951922,1.6250303 -1.8846096,1.423087 -2.913469,3.480765 -1.0288594,2.057687 -1.028828,4.384628 0,2.000014 0.7788769,3.817294 0.7788769,1.817363 2.1057569,3.144293 1.3268802,1.32693 3.1442482,2.105733 1.81737,0.778804 3.817322,0.778897 1.999953,9.2e-5 3.817322,-0.778897 1.817369,-0.778896 3.144249,-2.105733 1.326879,-1.326838 2.105756,-3.144293 0.778878,-1.81741 0.778878,-3.817294 0,-2.326904 -1.028828,-4.384628 Q 23.788533,10.788369 21.903892,9.365319 21.09621,8.749918 20.951969,7.7402887 20.807728,6.7306682 21.42313,5.9229902 q 0.596136,-0.826915 1.615362,-0.961528 1.019226,-0.1346038 1.826938,0.4807963 2.807697,2.0961522 4.355787,5.1923345 1.548089,3.096172 1.548089,6.596184 z M 18.461465,2.4615449 V 14.769232 q 0,0.999993 -0.730745,1.730797 -0.730744,0.730803 -1.730799,0.730748 -1.000055,-6.5e-5 -1.730799,-0.730748 -0.730744,-0.730684 -0.730744,-1.730797 V 2.4615449 q 0,-0.9999928 0.730744,-1.7307966 Q 14.999866,-6.4597145e-5 15.999921,0 q 1.000055,6.4602855e-5 1.730799,0.7307483 0.730745,0.7306838 0.730745,1.7307966 z"
       id="path257" />
  </g>
</svg>
