<?xml version="1.0" encoding="UTF-8" standalone="no"?>
<!-- Created with Inkscape (http://www.inkscape.org/) -->

<svg
   xmlns:dc="http://purl.org/dc/elements/1.1/"
   xmlns:cc="http://creativecommons.org/ns#"
   xmlns:rdf="http://www.w3.org/1999/02/22-rdf-syntax-ns#"
   xmlns:svg="http://www.w3.org/2000/svg"
   xmlns="http://www.w3.org/2000/svg"
   version="1.1"
   width="32"
   height="32"
   id="svg3251">
  <defs
     id="defs3253" />
  <metadata
     id="metadata3256">
    <rdf:RDF>
      <cc:Work
         rdf:about="">
        <dc:format>image/svg+xml</dc:format>
        <dc:type
           rdf:resource="http://purl.org/dc/dcmitype/StillImage" />
        <dc:title></dc:title>
      </cc:Work>
    </rdf:RDF>
  </metadata>
  <g
     id="layer1">
    <path
       d="M 27.31375,4.68631 C 30.335687,7.70831 32,11.7263 32,16.0001 32,20.2738 30.335687,24.2917 27.31375,27.3138 24.291687,30.3357 20.27375,32 16,32 11.72625,32 7.708313,30.3357 4.68625,27.3138 1.664313,24.2917 0,20.2738 0,16.0001 0,11.7263 1.664188,7.70831 4.68625,4.68631 7.708313,1.66431 11.72625,0 16,0 20.27375,0 24.291687,1.66431 27.31375,4.68631 z M 25.8995,25.8996 c 1.970562,-1.9707 3.280812,-4.4253 3.821,-7.0957 -0.421063,0.6199 -0.823813,0.8498 -1.07325,-0.5377 -0.256875,-2.2622 -2.334625,-0.8171 -3.641125,-1.6206 -1.375125,0.9268 -4.465813,-1.802 -3.940563,1.2757 0.810438,1.3882 4.37525,-1.8578 2.598375,1.0795 -1.133562,2.0504 -4.145062,6.5916 -3.753312,8.9455 0.04944,3.4295 -3.504188,0.7151 -4.728563,-0.4225 C 14.358437,25.2451 14.901375,21.2621 12.74775,20.1461 10.410187,20.0446 8.403875,19.8322 7.497938,17.2189 6.95275,15.3493 8.078063,12.566 10.081625,12.1363 c 2.932812,-1.8427 3.980437,2.158 6.730937,2.2323 0.854,-0.8935 3.18175,-1.1777 3.37475,-2.1797 -1.804687,-0.3184 2.289625,-1.5174 -0.17275,-2.1994 -1.358437,0.1598 -2.233687,1.4086 -1.5115,2.4674 -2.632437,0.6138 -2.71675,-3.8095 -5.247187,-2.4143 -0.06431,2.206 -4.131937,0.7152 -1.407375,0.2679 0.936125,-0.409 -1.526875,-1.5943 -0.19625,-1.3789 0.653625,-0.035 2.854125,-0.8066 2.258625,-1.32504 1.225312,-0.76062 2.255,1.82154 3.454312,-0.0588 C 18.231062,6.10195 17.002062,5.83501 15.91675,6.56788 15.304875,5.88276 16.997062,4.40301 18.489625,3.76357 18.987062,3.55045 19.462187,3.43432 19.825437,3.4672 20.57725,4.3357 21.967625,4.48614 22.040375,3.36276 20.178437,2.47106 18.1255,2 16,2 12.949312,2 10.047812,2.9695 7.646625,4.76219 8.291938,5.05781 8.65825,5.42588 8.036563,5.89644 7.553563,7.33563 5.59375,9.2676 3.873313,8.9941 2.98,10.5346 2.391688,12.2318 2.140188,14.0106 c 1.441,0.4767 1.77325,1.4203 1.463625,1.7359 -0.73425,0.6402 -1.1855,1.5478 -1.418,2.5413 0.469062,2.8699 1.817875,5.5149 3.914687,7.6118 C 8.74475,28.5438 12.260437,30 16,30 c 3.7395,0 7.25525,-1.4562 9.8995,-4.1004 z"
       id="path257" />
  </g>
</svg>
