<?xml version="1.0" encoding="UTF-8" standalone="no"?>
<!-- Created with Inkscape (http://www.inkscape.org/) -->

<svg
   xmlns:dc="http://purl.org/dc/elements/1.1/"
   xmlns:cc="http://creativecommons.org/ns#"
   xmlns:rdf="http://www.w3.org/1999/02/22-rdf-syntax-ns#"
   xmlns:svg="http://www.w3.org/2000/svg"
   xmlns="http://www.w3.org/2000/svg"
   version="1.1"
   width="32"
   height="32"
   id="svg3251">
  <defs
     id="defs3253" />
  <metadata
     id="metadata3256">
    <rdf:RDF>
      <cc:Work
         rdf:about="">
        <dc:format>image/svg+xml</dc:format>
        <dc:type
           rdf:resource="http://purl.org/dc/dcmitype/StillImage" />
        <dc:title></dc:title>
      </cc:Work>
    </rdf:RDF>
  </metadata>
  <g
     id="layer1">
    <path
       d="m 29.155868,2.8441413 h -6.636309 c -1.564273,0 -3.7491,0.9049699 -4.855231,2.0110999 L 6.5178181,16.001751 c -1.106071,1.10607 -1.106071,2.91606 0,4.02219 l 8.3023779,8.30232 c 1.106071,1.10613 2.916065,1.10613 4.022196,0 L 29.988843,17.179811 C 31.095033,16.073681 32,13.888851 32,12.324581 V 5.6882712 c 0,-1.56427 -1.27986,-2.8441299 -2.844132,-2.8441299 z m -3.792177,9.4804397 c -1.57079,0 -2.844132,-1.27334 -2.844132,-2.8441297 0,-1.57079 1.273342,-2.84413 2.844132,-2.84413 1.570791,0 2.844132,1.27334 2.844132,2.84413 0,1.5707897 -1.273341,2.8441297 -2.844132,2.8441297 z m -23.0307769,6.35859 10.1434209,10.14342 c -1.074371,0.56764 -2.443051,0.40108 -3.3444039,-0.50033 l -8.30237797,-8.30232 c -1.106071,-1.10613 -1.106071,-2.91612 0,-4.02219 L 11.976064,4.8552413 c 1.10613,-1.10613 3.290957,-2.0111 4.85523,-2.0111 L 2.3329141,17.342461 c -0.368671,0.36873 -0.368671,0.97198 0,1.34071 z"
       id="path265" />
  </g>
</svg>
