<?xml version="1.0" encoding="UTF-8" standalone="no"?>
<!-- Created with Inkscape (http://www.inkscape.org/) -->

<svg
   xmlns:dc="http://purl.org/dc/elements/1.1/"
   xmlns:cc="http://creativecommons.org/ns#"
   xmlns:rdf="http://www.w3.org/1999/02/22-rdf-syntax-ns#"
   xmlns:svg="http://www.w3.org/2000/svg"
   xmlns="http://www.w3.org/2000/svg"
   version="1.1"
   width="32"
   height="32"
   id="svg3261">
  <defs
     id="defs3263" />
  <metadata
     id="metadata3266">
    <rdf:RDF>
      <cc:Work
         rdf:about="">
        <dc:format>image/svg+xml</dc:format>
        <dc:type
           rdf:resource="http://purl.org/dc/dcmitype/StillImage" />
        <dc:title></dc:title>
      </cc:Work>
    </rdf:RDF>
  </metadata>
  <g
     id="layer1">
    <path
       d="m 16.000007,4.57137 q -3.642837,0 -6.8124775,1.24105 -3.16964,1.24104 -5.03571,3.34821 -1.866069,2.10717 -1.86604,4.55354 0,2.00001 1.276766,3.81247 1.276766,1.81246 3.598201,3.13392 l 1.553557,0.89284 -0.482171,1.7143 q -0.42856,1.625 -1.24999,3.07145 2.714275,-1.125 4.9107175,-3.05356 l 0.767848,-0.67855 1.017864,0.10716 q 1.232159,0.14283 2.321435,0.14283 3.642837,0 6.812478,-1.24105 3.16964,-1.24104 5.035709,-3.34821 1.86607,-2.10717 1.86604,-4.55354 -2.9e-5,-2.44637 -1.86604,-4.55354 Q 25.982184,7.05352 22.812485,5.81248 19.642786,4.57143 16.000007,4.57143 z m 15.999971,9.14283 q 0,3.10714 -2.142831,5.74103 -2.142832,2.63389 -5.821419,4.1607 -3.678587,1.52681 -8.035721,1.52678 -1.24999,0 -2.589281,-0.14282 -3.5357345,3.125 -8.2142665,4.32144 -0.874981,0.24999 -2.035698,0.39287 h -0.08927 q -0.267817,0 -0.482171,-0.18752 -0.214353,-0.18752 -0.285707,-0.49106 v -0.0178 q -0.05355,-0.0714 -0.0089,-0.21426 0.04461,-0.14283 0.03572,-0.17855 -0.0089,-0.0357 0.08036,-0.16966 l 0.107163,-0.16071 q 0,0 0.124993,-0.1518 0.124993,-0.1518 0.142824,-0.16071 0.124993,-0.14283 0.553553,-0.61605 0.428561,-0.47323 0.616051,-0.67855 0.187489,-0.20532 0.553553,-0.70535 0.366064,-0.50003 0.58033,-0.9107 0.214265,-0.41067 0.48217,-1.05359 0.267906,-0.64291 0.464281,-1.35715 Q 3.2321595,21.07143 1.6160765,18.73217 -6.4997398e-6,16.3929 2.250026e-5,13.71432 q 0,-3.10715 2.14283199974,-5.74103 2.142831,-2.63389 5.821418,-4.1607 3.6785875,-1.52681 8.0357215,-1.52679 4.357133,3e-5 8.03572,1.52679 3.678587,1.52675 5.821419,4.1607 2.142831,2.63394 2.142831,5.74103 z"
       id="path267" />
  </g>
</svg>
