<?xml version="1.0" encoding="UTF-8" standalone="no"?>
<!-- Created with Inkscape (http://www.inkscape.org/) -->

<svg
   xmlns:dc="http://purl.org/dc/elements/1.1/"
   xmlns:cc="http://creativecommons.org/ns#"
   xmlns:rdf="http://www.w3.org/1999/02/22-rdf-syntax-ns#"
   xmlns:svg="http://www.w3.org/2000/svg"
   xmlns="http://www.w3.org/2000/svg"
   version="1.1"
   width="32"
   height="32"
   id="svg3261">
  <defs
     id="defs3263" />
  <metadata
     id="metadata3266">
    <rdf:RDF>
      <cc:Work
         rdf:about="">
        <dc:format>image/svg+xml</dc:format>
        <dc:type
           rdf:resource="http://purl.org/dc/dcmitype/StillImage" />
        <dc:title></dc:title>
      </cc:Work>
    </rdf:RDF>
  </metadata>
  <g
     id="layer1">
    <path
       d="m 31.999963,13.71145 q 0,3.10715 -2.142831,5.74103 -2.142832,2.63389 -5.821419,4.1607 -3.678587,1.52681 -8.035721,1.52678 -1.24999,0 -2.589281,-0.14282 -3.5357345,3.125 -8.2142665,4.32144 -0.874981,0.24999 -2.035699,0.39287 -0.303538,0.0357 -0.544638,-0.16071 -0.2411,-0.19644 -0.312512,-0.51786 v -0.0178 q -0.05355,-0.0715 -0.0089,-0.21427 0.04461,-0.14282 0.03572,-0.17855 -0.0089,-0.0357 0.08036,-0.16965 l 0.107162,-0.16072 q 0,0 0.124993,-0.1518 0.124998,-0.15179 0.142829,-0.16071 0.124993,-0.14282 0.553554,-0.61605 0.42856,-0.47323 0.61605,-0.67855 0.187489,-0.20532 0.553553,-0.70535 0.366064,-0.50003 0.58033,-0.9107 0.214265,-0.41067 0.48217,-1.05359 0.267906,-0.64291 0.464282,-1.35715 Q 3.2321505,21.06871 1.6160675,18.72945 -1.5499918e-5,16.39018 1.4500082e-5,13.7116 q 0,-2.32144 1.267849999918,-4.4374902 1.26785,-2.11606 3.410711,-3.65178 2.142861,-1.53573 5.107151,-2.43749 2.9642915,-0.9017502 6.2142885,-0.9017802 4.357163,0 8.035721,1.5267802 3.678557,1.52678 5.821418,4.1607 2.142861,2.6339202 2.142832,5.7410302 z"
       id="path267" />
  </g>
</svg>
