<?xml version="1.0" encoding="UTF-8" standalone="no"?>
<!-- Created with Inkscape (http://www.inkscape.org/) -->

<svg
   xmlns:dc="http://purl.org/dc/elements/1.1/"
   xmlns:cc="http://creativecommons.org/ns#"
   xmlns:rdf="http://www.w3.org/1999/02/22-rdf-syntax-ns#"
   xmlns:svg="http://www.w3.org/2000/svg"
   xmlns="http://www.w3.org/2000/svg"
   version="1.1"
   width="32"
   height="32"
   id="svg3143">
  <defs
     id="defs3145" />
  <metadata
     id="metadata3148">
    <rdf:RDF>
      <cc:Work
         rdf:about="">
        <dc:format>image/svg+xml</dc:format>
        <dc:type
           rdf:resource="http://purl.org/dc/dcmitype/StillImage" />
        <dc:title></dc:title>
      </cc:Work>
    </rdf:RDF>
  </metadata>
  <path
     d="m 9.601067,23.466667 c -0.344534,0 -0.682667,-0.1664 -0.888534,-0.474667 l -4.266666,-6.4 C 4.119467,16.1024 4.251733,15.44 4.741333,15.112534 5.230933,14.785067 5.893333,14.9184 6.2208,15.408 l 4.266667,6.4 c 0.3264,0.490667 0.194133,1.152 -0.295467,1.479467 -0.181333,0.1216 -0.3872,0.1792 -0.590933,0.1792 z m 12.797866,0 c -0.203733,0 -0.408533,-0.0576 -0.590933,-0.1792 -0.490667,-0.3264 -0.622933,-0.9888 -0.295467,-1.479467 l 4.266667,-6.4 c 0.3264,-0.490666 0.9888,-0.622933 1.479467,-0.295466 0.490666,0.327466 0.622933,0.9888 0.295466,1.479466 l -4.266666,6.4 c -0.205867,0.308267 -0.544,0.474667 -0.888534,0.474667 z M 20.266667,6.4 h -8.533334 c -0.5888,0 -1.066666,-0.477867 -1.066666,-1.066667 0,-0.5888 0.477866,-1.066666 1.066666,-1.066666 h 8.533334 c 0.5888,0 1.066666,0.477866 1.066666,1.066666 0,0.5888 -0.477866,1.066667 -1.066666,1.066667 z M 16,25.6 c -2.945067,0 -5.333333,0.954667 -5.333333,2.133334 v 2.133333 H 21.333333 V 27.733334 C 21.333333,26.554667 18.945067,25.6 16,25.6 z m 3.2,-3.2 c 0,1.767467 -1.432533,3.2 -3.2,3.2 -1.767467,0 -3.2,-1.432533 -3.2,-3.2 0,-1.767466 1.432533,-3.2 3.2,-3.2 1.767467,0 3.2,1.432534 3.2,3.2 z M 26.666667,8.533333 c -2.945067,0 -5.333334,0.954667 -5.333334,2.133334 V 12.8 H 32 V 10.666667 C 32,9.488 29.611733,8.533333 26.666667,8.533333 z m 3.2,-3.2 c 0,1.767467 -1.432534,3.2 -3.2,3.2 -1.767467,0 -3.2,-1.432533 -3.2,-3.2 0,-1.767466 1.432533,-3.2 3.2,-3.2 1.767466,0 3.2,1.432534 3.2,3.2 z m -24.533334,3.2 C 2.388267,8.533333 0,9.488 0,10.666667 V 12.8 H 10.666667 V 10.666667 C 10.666667,9.488 8.2784,8.533333 5.333333,8.533333 z m 3.2,-3.2 c 0,1.767467 -1.432533,3.2 -3.2,3.2 -1.767466,0 -3.2,-1.432533 -3.2,-3.2 0,-1.767466 1.432534,-3.2 3.2,-3.2 1.767467,0 3.2,1.432534 3.2,3.2 z"
     id="path20" />
</svg>
