<?xml version="1.0" encoding="UTF-8" standalone="no"?>
<!-- Created with Inkscape (http://www.inkscape.org/) -->

<svg
   xmlns:dc="http://purl.org/dc/elements/1.1/"
   xmlns:cc="http://creativecommons.org/ns#"
   xmlns:rdf="http://www.w3.org/1999/02/22-rdf-syntax-ns#"
   xmlns:svg="http://www.w3.org/2000/svg"
   xmlns="http://www.w3.org/2000/svg"
   version="1.1"
   width="32"
   height="32"
   id="svg3251">
  <defs
     id="defs3253" />
  <metadata
     id="metadata3256">
    <rdf:RDF>
      <cc:Work
         rdf:about="">
        <dc:format>image/svg+xml</dc:format>
        <dc:type
           rdf:resource="http://purl.org/dc/dcmitype/StillImage" />
        <dc:title></dc:title>
      </cc:Work>
    </rdf:RDF>
  </metadata>
  <g
     id="layer1">
    <path
       d="m 21.333365,16.00003 q 0,-2.20831 -1.562479,-3.77082 -1.562479,-1.56251 -3.770822,-1.56248 -2.208343,3e-5 -3.770822,1.56248 -1.562479,1.56245 -1.562479,3.77082 0,2.20837 1.562479,3.77082 1.562479,1.56245 3.770822,1.56248 2.208343,3e-5 3.770822,-1.56248 1.562479,-1.56251 1.562479,-3.77082 z M 32,13.7292 v 4.62495 q 0,0.24998 -0.16662,0.47918 -0.166619,0.2292 -0.416725,0.27085 l -3.854148,0.58335 q -0.395821,1.12497 -0.812515,1.89581 0.729157,1.04169 2.22915,2.87499 0.208299,0.25 0.208299,0.5209 0,0.2709 -0.187491,0.4792 -0.562506,0.7708 -2.062499,2.25 -1.499993,1.4791 -1.958333,1.4791 -0.249977,0 -0.541666,-0.1875 l -2.875013,-2.2499 q -0.916648,0.4791 -1.895815,0.7916 -0.333303,2.8333 -0.604184,3.875 -0.145812,0.5833 -0.749997,0.5833 h -4.624951 q -0.291656,0 -0.510423,-0.1771 -0.218766,-0.1771 -0.239574,-0.4479 l -0.583344,-3.8333 q -1.020782,-0.3333 -1.87504,-0.7709 l -2.937467,2.2292 q -0.208299,0.1875 -0.520859,0.1875 -0.291656,0 -0.520858,-0.2292 -2.625036,-2.375 -3.437487,-3.5 -0.145812,-0.2083 -0.145812,-0.4792 0,-0.25 0.166619,-0.4792 0.312464,-0.4375 1.062493,-1.3854 0.750028,-0.9478 1.124978,-1.4687 -0.562505,-1.04166 -0.854161,-2.0625 L 0.60412,19.02082 Q 0.333271,18.97912 0.166619,18.76041 -3.1996928e-5,18.54168 0,18.27083 V 13.64588 Q 0,13.3959 0.166619,13.1667 0.333239,12.93749 0.562441,12.89585 L 4.437428,12.3125 Q 4.729085,11.35414 5.249943,10.39585 4.416621,9.2083202 3.020793,7.5208302 q -0.208298,-0.24997 -0.208298,-0.49998 0,-0.2083 0.187491,-0.47918 0.541666,-0.75 2.052094,-2.23965 1.510429,-1.48966 1.968737,-1.48956 0.270849,0 0.541666,0.2083 l 2.875013,2.22915 q 0.916649,-0.47918 1.895815,-0.79161 0.333303,-2.8333 0.604184,-3.8749904 0.145813,-0.58334 0.749997,-0.58334 h 4.624951 q 0.291657,0 0.510423,0.17708 0.218767,0.17709 0.239574,0.44791 l 0.583345,3.8333404 q 1.020781,0.3333 1.875039,0.77083 l 2.958339,-2.22915 q 0.187491,-0.18749 0.499987,-0.18749 0.270849,0 0.520859,0.2083 2.687522,2.47916 3.437486,3.54169 0.145813,0.16661 0.145813,0.45834 0,0.24997 -0.16662,0.47917 -0.312464,0.43751 -1.062492,1.3854 -0.750029,0.94789 -1.124979,1.4687498 0.541666,1.04165 0.854162,2.04166 l 3.812436,0.58334 q 0.270849,0.0417 0.437501,0.26041 0.166652,0.21874 0.16662,0.48959 z"
       id="path257" />
  </g>
</svg>
