<?xml version="1.0" encoding="UTF-8" standalone="no"?>
<!-- Created with Inkscape (http://www.inkscape.org/) -->

<svg
   xmlns:dc="http://purl.org/dc/elements/1.1/"
   xmlns:cc="http://creativecommons.org/ns#"
   xmlns:rdf="http://www.w3.org/1999/02/22-rdf-syntax-ns#"
   xmlns:svg="http://www.w3.org/2000/svg"
   xmlns="http://www.w3.org/2000/svg"
   version="1.1"
   width="32"
   height="32"
   id="svg3251">
  <defs
     id="defs3253" />
  <metadata
     id="metadata3256">
    <rdf:RDF>
      <cc:Work
         rdf:about="">
        <dc:format>image/svg+xml</dc:format>
        <dc:type
           rdf:resource="http://purl.org/dc/dcmitype/StillImage" />
        <dc:title></dc:title>
      </cc:Work>
    </rdf:RDF>
  </metadata>
  <g
     id="layer1">
    <path
       d="M 16,0 C 7.163437,0 0,2.23856 0,5 v 3 l 12,12 v 10 c 0,1.1046 1.790812,2 4,2 2.209125,0 4,-0.8954 4,-2 V 20 L 32,8 V 5 C 32,2.23856 24.836562,0 16,0 z M 2.9495,4.33825 C 3.69775,3.91144 4.748937,3.50638 5.989437,3.16675 8.737687,2.41437 12.292813,2 16,2 c 3.707125,0 7.262312,0.41437 10.010562,1.16675 1.2405,0.33963 2.291688,0.74469 3.04,1.1715 0.4935,0.28144 0.760125,0.5195 0.88425,0.66175 -0.124125,0.14225 -0.390812,0.38025 -0.88425,0.66175 -0.748312,0.42681 -1.7995,0.83187 -3.04,1.1715 C 23.262375,7.58563 19.707187,8 16,8 12.292812,8 8.737687,7.58563 5.989437,6.83325 4.748937,6.49362 3.69775,6.08856 2.9495,5.66175 2.456,5.38025 2.189375,5.14225 2.065187,5 2.189375,4.85775 2.456,4.61975 2.9495,4.33825 z"
       id="path257" />
  </g>
</svg>
