<?xml version="1.0" encoding="UTF-8" standalone="no"?>
<!-- Created with Inkscape (http://www.inkscape.org/) -->

<svg
   xmlns:dc="http://purl.org/dc/elements/1.1/"
   xmlns:cc="http://creativecommons.org/ns#"
   xmlns:rdf="http://www.w3.org/1999/02/22-rdf-syntax-ns#"
   xmlns:svg="http://www.w3.org/2000/svg"
   xmlns="http://www.w3.org/2000/svg"
   version="1.1"
   width="32"
   height="32"
   id="svg3251">
  <defs
     id="defs3253" />
  <metadata
     id="metadata3256">
    <rdf:RDF>
      <cc:Work
         rdf:about="">
        <dc:format>image/svg+xml</dc:format>
        <dc:type
           rdf:resource="http://purl.org/dc/dcmitype/StillImage" />
        <dc:title></dc:title>
      </cc:Work>
    </rdf:RDF>
  </metadata>
  <g
     id="layer1">
    <path
       d="m 4.63389,16.867645 4.632766,-4.63276 H 6.551565 c 0.02491,-0.068 0.05094,-0.13481 0.07588,-0.20165 1.610699,-4.07999 5.588739,-6.96613 10.239655,-6.96613 6.078085,0 11.005341,4.92726 11.005341,11.00422 0,6.07808 -4.927256,11.00534 -11.005341,11.00534 -4.46964,0 -8.317443,-2.66637 -10.039167,-6.4938 -0.01696,-0.0351 -0.02719,-0.0748 -0.04418,-0.11212 l -2.95069,2.9326 c 0.0204,0.034 0.03398,0.0725 0.05439,0.10874 0.0045,0.008 0.0091,0.0158 0.01358,0.0227 2.604098,4.49908 7.469051,7.52453 13.040799,7.52453 8.316316,0 15.05817,-6.74185 15.05817,-15.05817 0,-8.31632 -6.74298,-15.06046 -15.059329,-15.06046 -6.952512,0 -12.80298,4.70981 -14.535967,11.11412 -0.01696,0.0589 -0.02265,0.12119 -0.03624,0.18008 H -2e-6 l 4.633892,4.63277 z"
       id="path257" />
  </g>
</svg>
