<?xml version="1.0" encoding="UTF-8" standalone="no"?>
<!-- Created with Inkscape (http://www.inkscape.org/) -->

<svg
   xmlns:dc="http://purl.org/dc/elements/1.1/"
   xmlns:cc="http://creativecommons.org/ns#"
   xmlns:rdf="http://www.w3.org/1999/02/22-rdf-syntax-ns#"
   xmlns:svg="http://www.w3.org/2000/svg"
   xmlns="http://www.w3.org/2000/svg"
   version="1.1"
   width="32"
   height="32"
   id="svg3251">
  <defs
     id="defs3253" />
  <metadata
     id="metadata3256">
    <rdf:RDF>
      <cc:Work
         rdf:about="">
        <dc:format>image/svg+xml</dc:format>
        <dc:type
           rdf:resource="http://purl.org/dc/dcmitype/StillImage" />
        <dc:title></dc:title>
      </cc:Work>
    </rdf:RDF>
  </metadata>
  <g
     id="layer1">
    <path
       d="m 22.825914,25.7471 3.710923,-4.9964 4.358067,-4.1637 c 0,0 -1.45226,-1.732 -3.248239,-1.732 -0.806403,0 -1.545117,0.2308 -2.219813,0.6924 -0.670899,0.4602 -1.28299,1.1513 -1.834766,2.0755 -0.771256,0.2696 -1.371987,0.5267 -1.803416,0.7712 -0.0953,-0.9607 -0.210694,-1.6717 -0.344848,-2.132 L 23.947008,6.5453 C 24.540176,4.2026 24.681925,3.0186 23.271056,2.3916 21.860188,1.7646 20.418001,3.494 19.675552,5.6988 l -2.37402,7.5033 0.07151,-9.6492 C 17.373042,1.1839 16.625573,0 15.130665,0 13.620695,0 12.867043,1.0497 12.867043,3.1479 v 9.6466 L 10.43911,4.3444 C 9.8371557,2.8495 8.7774117,1.3771 7.3664797,1.8473 5.9555497,2.3175 6.0220777,4.639 6.4133067,6.1251 l 2.163359,8.2383 -3.488964,-5.7625 c -1.067244,-1.85 -2.908318,-2.2073 -3.324683,-1.776 -0.663463,0.6885 -1.10738095,2.1534 0.09653,4.2565 l 3.848907,6.7007 3.436275,11.9041 V 32 H 19.177622 v -2.9835 c 1.16509,-0.799 2.172146,-1.8888 3.648224,-3.2696 v 0 z"
       id="path257" />
  </g>
</svg>
