<?xml version="1.0" encoding="UTF-8" standalone="no"?>
<!-- Created with Inkscape (http://www.inkscape.org/) -->

<svg
   xmlns:dc="http://purl.org/dc/elements/1.1/"
   xmlns:cc="http://creativecommons.org/ns#"
   xmlns:rdf="http://www.w3.org/1999/02/22-rdf-syntax-ns#"
   xmlns:svg="http://www.w3.org/2000/svg"
   xmlns="http://www.w3.org/2000/svg"
   version="1.1"
   width="32"
   height="32"
   id="svg3105">
  <defs
     id="defs3107" />
  <metadata
     id="metadata3110">
    <rdf:RDF>
      <cc:Work
         rdf:about="">
        <dc:format>image/svg+xml</dc:format>
        <dc:type
           rdf:resource="http://purl.org/dc/dcmitype/StillImage" />
        <dc:title></dc:title>
      </cc:Work>
    </rdf:RDF>
  </metadata>
  <g
     id="layer1">
    <path
       d="M 27.941345,4.3892085e-4 C 26.788869,0.01743892 25.652467,0.52969892 24.875183,1.5004979 l -5.576932,6.97091 -4.898454,-3.66959 c -1.727907,-1.29595 -4.173983,-0.98745 -5.5238945,0.7005 l -7.99864,9.9990511 c -1.379949,1.72589 -1.098478,4.24193 0.62344,5.62193 0.73796,0.588 1.621799,0.8776 2.495759,0.8776 1.175902,0 2.336208,-0.5161 3.126205,-1.504 l 5.5769315,-6.97093 4.900455,3.6756 c 1.727906,1.29595 4.175064,0.98344 5.522894,-0.7045 l 7.999641,-9.9990511 c 1.379949,-1.72189 1.100462,-4.24192 -0.62344,-5.62196898 -0.755076,-0.60281 -1.661433,-0.88883 -2.557803,-0.87560999915 z M 2.0010545,28.000199 c -1.105963,0 -2.00041000155,0.8944 -2.00041000155,2.0004 0,1.106 0.89441500155,1.9994 2.00041000155,1.9994 l 27.9977405,0 c 1.105964,0 2.000411,-0.8934 2.000411,-1.9994 0,-1.106 -0.894415,-2.0004 -2.000411,-2.0004 l -27.9977405,0 z"
       id="path257" />
  </g>
</svg>
