<?xml version="1.0" encoding="UTF-8" standalone="no"?>
<!-- Created with Inkscape (http://www.inkscape.org/) -->

<svg
   xmlns:dc="http://purl.org/dc/elements/1.1/"
   xmlns:cc="http://creativecommons.org/ns#"
   xmlns:rdf="http://www.w3.org/1999/02/22-rdf-syntax-ns#"
   xmlns:svg="http://www.w3.org/2000/svg"
   xmlns="http://www.w3.org/2000/svg"
   version="1.1"
   width="32"
   height="32"
   id="svg3251">
  <defs
     id="defs3253" />
  <metadata
     id="metadata3256">
    <rdf:RDF>
      <cc:Work
         rdf:about="">
        <dc:format>image/svg+xml</dc:format>
        <dc:type
           rdf:resource="http://purl.org/dc/dcmitype/StillImage" />
        <dc:title></dc:title>
      </cc:Work>
    </rdf:RDF>
  </metadata>
  <g
     id="layer1">
    <path
       d="M 29.714279,25.71432 V 12.00003 q -0.571438,0.64284 -1.232157,1.17856 -4.785724,3.67857 -7.607164,6.03573 -0.91072,0.76784 -1.482158,1.19644 -0.571438,0.42859 -1.544658,0.86606 -0.973219,0.43747 -1.830345,0.4375 h -0.03572 q -0.857157,0 -1.830345,-0.4375 -0.973189,-0.4375 -1.544658,-0.86606 -0.571469,-0.42857 -1.482158,-1.19644 -2.82144,-2.35716 -7.607163,-6.03573 -0.66072,-0.53572 -1.232158,-1.17856 v 13.71429 q 0,0.23216 0.169657,0.40179 0.169656,0.16962 0.401781,0.16965 h 26.285744 q 0.232157,0 0.401782,-0.16965 0.169625,-0.16966 0.169657,-0.40179 z m 0,-18.76789 v -0.4375 q 0,0 -0.0089,-0.23216 -0.0089,-0.23215 -0.05356,-0.22322 -0.04462,0.009 -0.09822,-0.16071 -0.05359,-0.16966 -0.160719,-0.13394 -0.107125,0.0357 -0.25,-0.0447 H 2.857097 q -0.232157,0 -0.401782,0.16966 -0.169625,0.16965 -0.169656,0.40178 0,3 2.625002,5.07144 3.446441,2.71429 7.160726,5.66073 0.107156,0.0893 0.625,0.52678 0.517845,0.4375 0.821439,0.66965 0.303594,0.23216 0.794657,0.56251 0.491063,0.33034 0.901782,0.49106 0.410719,0.16072 0.767844,0.16072 h 0.03572 q 0.357157,0 0.767845,-0.16072 0.410688,-0.16072 0.901782,-0.49106 0.491094,-0.33035 0.794657,-0.56251 0.303563,-0.23215 0.821438,-0.66965 0.517876,-0.4375 0.625001,-0.52678 3.714285,-2.94644 7.160725,-5.66073 0.964283,-0.76784 1.794658,-2.0625 0.830376,-1.29466 0.830345,-2.34822 z M 32,6.28571 v 19.42858 q 0,1.17857 -0.839282,2.01785 -0.839282,0.83928 -2.017846,0.83928 H 2.857128 q -1.178564,0 -2.017846,-0.83928 Q 0,26.89286 0,25.71429 V 6.28571 Q 0,5.10715 0.839282,4.26787 1.678564,3.42858 2.857128,3.42858 h 26.285744 q 1.178564,0 2.017846,0.83929 Q 32,5.10715 32,6.28571 z"
       id="path257" />
  </g>
</svg>
