<?xml version="1.0" encoding="UTF-8" standalone="no"?>
<!-- Created with Inkscape (http://www.inkscape.org/) -->

<svg
   xmlns:dc="http://purl.org/dc/elements/1.1/"
   xmlns:cc="http://creativecommons.org/ns#"
   xmlns:rdf="http://www.w3.org/1999/02/22-rdf-syntax-ns#"
   xmlns:svg="http://www.w3.org/2000/svg"
   xmlns="http://www.w3.org/2000/svg"
   version="1.1"
   width="32"
   height="32"
   id="svg3251">
  <defs
     id="defs3253" />
  <metadata
     id="metadata3256">
    <rdf:RDF>
      <cc:Work
         rdf:about="">
        <dc:format>image/svg+xml</dc:format>
        <dc:type
           rdf:resource="http://purl.org/dc/dcmitype/StillImage" />
        <dc:title></dc:title>
      </cc:Work>
    </rdf:RDF>
  </metadata>
  <g
     id="layer1">
    <path
       d="m 0,28 c 5.66,2.5667 12.379312,4 19,4 2.146687,0 4.26,-0.1 6.32,-0.44 0.806,-0.1333 1.852687,-0.4333 2.306,-0.78 0.634,-0.4873 1.040687,-1.2533 1.040687,-2.1133 0,-0.7927 -0.346687,-1.5133 -0.9,-2 H 28 c 1.473312,0 2.666687,-1.1933 2.666687,-2.6667 0,-1.4734 -1.193312,-2.6667 -2.666687,-2.6667 h 1.333312 C 30.806625,21.3333 32,20.14 32,18.6666 32,17.1933 30.806687,15.9999 29.333312,15.9999 30.806625,15.9999 32,14.8066 32,13.3333 32,11.8599 30.806687,10.6666 29.333312,10.6666 L 17.374,10.6667 c -0.920688,0 -1.666688,-0.7466998 -1.666688,-1.6666998 l 0.839313,-5.54069 c 0.07938,-0.252 0.120062,-0.51931 0.120062,-0.79262 C 16.666687,1.1933702 15.473375,-1.4999999e-7 14,-1.4999999e-7 12.766687,-1.4999999e-7 11.726687,0.84000015 11.426687,1.9733102 l -0.113312,0.38 C 9.6,7.8066902 5.72,12.7873 0,16 v 12 z"
       id="path257" />
  </g>
</svg>
