<?xml version="1.0" encoding="UTF-8" standalone="no"?>
<!-- Created with Inkscape (http://www.inkscape.org/) -->

<svg
   xmlns:dc="http://purl.org/dc/elements/1.1/"
   xmlns:cc="http://creativecommons.org/ns#"
   xmlns:rdf="http://www.w3.org/1999/02/22-rdf-syntax-ns#"
   xmlns:svg="http://www.w3.org/2000/svg"
   xmlns="http://www.w3.org/2000/svg"
   version="1.1"
   width="32"
   height="32"
   id="svg3251">
  <defs
     id="defs3253" />
  <metadata
     id="metadata3256">
    <rdf:RDF>
      <cc:Work
         rdf:about="">
        <dc:format>image/svg+xml</dc:format>
        <dc:type
           rdf:resource="http://purl.org/dc/dcmitype/StillImage" />
        <dc:title></dc:title>
      </cc:Work>
    </rdf:RDF>
  </metadata>
  <g
     id="layer1">
    <path
       d="M 0,4 C 5.66,1.43331 12.379312,0 19,0 c 2.146687,0 4.26,0.1 6.32,0.44 0.806,0.13331 1.852687,0.43331 2.306,0.78 0.634,0.48731 1.040687,1.25331 1.040687,2.11331 0,0.79269 -0.346687,1.51332 -0.9,2 H 28 c 1.473312,0 2.666687,1.19331 2.666687,2.66669 0,1.4734 -1.193312,2.6667 -2.666687,2.6667 h 1.333312 C 30.806625,10.6667 32,11.86 32,13.3334 c 0,1.4733 -1.193313,2.6667 -2.666688,2.6667 1.473313,0 2.666688,1.1933 2.666688,2.6666 0,1.4734 -1.193313,2.6667 -2.666688,2.6667 L 17.374,21.3333 c -0.920688,0 -1.666688,0.7467 -1.666688,1.6667 l 0.839313,5.5407 c 0.07938,0.252 0.120062,0.5193 0.120062,0.7926 C 16.666687,30.8066 15.473375,32 14,32 12.766687,32 11.726687,31.16 11.426687,30.0267 L 11.313375,29.6474 C 9.6,24.1933 5.72,19.2127 0,16 V 4 z"
       id="path257" />
  </g>
</svg>
