<?xml version="1.0" encoding="UTF-8" standalone="no"?>
<!-- Created with Inkscape (http://www.inkscape.org/) -->

<svg
   xmlns:dc="http://purl.org/dc/elements/1.1/"
   xmlns:cc="http://creativecommons.org/ns#"
   xmlns:rdf="http://www.w3.org/1999/02/22-rdf-syntax-ns#"
   xmlns:svg="http://www.w3.org/2000/svg"
   xmlns="http://www.w3.org/2000/svg"
   version="1.1"
   width="32"
   height="32"
   id="svg3251">
  <defs
     id="defs3253" />
  <metadata
     id="metadata3256">
    <rdf:RDF>
      <cc:Work
         rdf:about="">
        <dc:format>image/svg+xml</dc:format>
        <dc:type
           rdf:resource="http://purl.org/dc/dcmitype/StillImage" />
        <dc:title></dc:title>
      </cc:Work>
    </rdf:RDF>
  </metadata>
  <g
     id="layer1">
    <path
       d="M -9.9999997e-8,27.760045 C 3.7199999,30.060045 8.0406871,31.333345 12.306688,31.333345 c 1.879312,0 3.72,-0.1933 5.5,-0.6667 C 19.033375,30.319945 20,29.313945 20,27.999945 c 0,-0.7927 -0.346688,-1.51329 -0.9,-1.99998 l 0.233313,7e-5 c 1.473312,0 2.666687,-1.19332 2.666687,-2.66669 0,-1.47337 -1.193313,-2.66669 -2.666688,-2.66669 h 1.333313 c 1.473312,0 2.666687,-1.19331 2.666687,-2.66669 0,-1.47337 -1.193312,-2.66668 -2.666687,-2.66668 h 8.666687 c 1.473313,0 2.666688,-1.19332 2.666688,-2.66669 0,-1.47337 -1.193313,-2.66669 -2.666688,-2.66669 L 14.126,10.000035 c -0.739313,0 -1.333312,-0.6 -1.333312,-1.33332 0,-0.126 0.02,-0.24668 0.05331,-0.36 l 1.533313,-3.77331 c 0.180687,-0.36006 0.287375,-0.76669 0.287375,-1.20006 0,-1.47331 -1.193313,-2.66669 -2.666688,-2.66669 -1.106687,0 -2.0599999,0.68 -2.4666879,1.64 -2.23331,4.32669 -4.9733102,7.79338 -9.5333102,10.22006 v 15.23333 z"
       id="path257" />
  </g>
</svg>
