<?xml version="1.0" encoding="UTF-8" standalone="no"?>
<!-- Created with Inkscape (http://www.inkscape.org/) -->

<svg
   xmlns:dc="http://purl.org/dc/elements/1.1/"
   xmlns:cc="http://creativecommons.org/ns#"
   xmlns:rdf="http://www.w3.org/1999/02/22-rdf-syntax-ns#"
   xmlns:svg="http://www.w3.org/2000/svg"
   xmlns="http://www.w3.org/2000/svg"
   version="1.1"
   width="32"
   height="32"
   id="svg3251">
  <defs
     id="defs3253" />
  <metadata
     id="metadata3256">
    <rdf:RDF>
      <cc:Work
         rdf:about="">
        <dc:format>image/svg+xml</dc:format>
        <dc:type
           rdf:resource="http://purl.org/dc/dcmitype/StillImage" />
        <dc:title></dc:title>
      </cc:Work>
    </rdf:RDF>
  </metadata>
  <g
     id="layer1">
    <path
       d="m 32,27.760035 c -3.72,2.30001 -8.040688,3.57331 -12.306688,3.57331 -1.879312,0 -3.72,-0.1933 -5.5,-0.6667 C 12.966687,30.320045 12,29.313345 12,28.000035 c 0,-0.79269 0.346687,-1.51331 0.9,-2 H 12.666687 C 11.193375,26.000035 10,24.806715 10,23.333345 c 0,-1.47337 1.193312,-2.66669 2.666687,-2.66669 h -1.333312 c -1.473313,0 -2.666688,-1.19331 -2.666688,-2.66669 0,-1.47337 1.193313,-2.66668 2.666688,-2.66668 l -8.666688,6e-5 C 1.193375,15.333345 0,14.140035 0,12.666655 0,11.193285 1.193312,9.999965 2.666687,9.999965 H 17.874 c 0.739312,0 1.333312,-0.59931 1.333312,-1.33331 0,-0.126 -0.02069,-0.24669 -0.05331,-0.36 L 17.62,4.533345 c -0.18,-0.36 -0.286688,-0.76663 -0.286688,-1.2 0,-1.47331 1.193313,-2.66669 2.666688,-2.66669 1.106687,0 2.06,0.68 2.466687,1.64 C 24.7,6.633345 27.44,10.099975 32,12.526655 v 15.23338 z"
       id="path257" />
  </g>
</svg>
