<?xml version="1.0" encoding="UTF-8" standalone="no"?>
<!-- Created with Inkscape (http://www.inkscape.org/) -->

<svg
   xmlns:dc="http://purl.org/dc/elements/1.1/"
   xmlns:cc="http://creativecommons.org/ns#"
   xmlns:rdf="http://www.w3.org/1999/02/22-rdf-syntax-ns#"
   xmlns:svg="http://www.w3.org/2000/svg"
   xmlns="http://www.w3.org/2000/svg"
   version="1.1"
   width="32"
   height="32"
   id="svg3251">
  <defs
     id="defs3253" />
  <metadata
     id="metadata3256">
    <rdf:RDF>
      <cc:Work
         rdf:about="">
        <dc:format>image/svg+xml</dc:format>
        <dc:type
           rdf:resource="http://purl.org/dc/dcmitype/StillImage" />
        <dc:title></dc:title>
      </cc:Work>
    </rdf:RDF>
  </metadata>
  <g
     id="layer1">
    <path
       d="m 27,22 c -1.41125,0 -2.685,0.5856 -3.594125,1.5259 L 9.9370002,16.7915 C 9.9780602,16.5336 10,16.2694 10,16 10,15.7306 9.97806,15.4664 9.937,15.2086 L 23.405875,8.4741 C 24.315,9.4144 25.58875,10 27,10 c 2.761437,0 5,-2.23856 5,-5 0,-2.76144 -2.238563,-5 -5,-5 -2.761438,0 -5,2.23856 -5,5 0,0.26944 0.022,0.53363 0.063,0.79144 L 8.5941252,12.5259 C 7.6850002,11.5856 6.4112502,11 5.0000002,11 2.2385622,11 -2e-7,13.2386 -2e-7,16 c 0,2.7615 2.2385624,5 5.0000004,5 1.41125,0 2.685,-0.5856 3.594125,-1.5259 L 22.063,26.2086 C 22.022,26.4664 22,26.7306 22,27 c 0,2.7615 2.238562,5 5,5 2.761437,0 5,-2.2385 5,-5 0,-2.7614 -2.238563,-5 -5,-5 z"
       id="path257" />
  </g>
</svg>
