<?xml version="1.0" encoding="UTF-8" standalone="no"?>
<!-- Created with Inkscape (http://www.inkscape.org/) -->

<svg
   xmlns:dc="http://purl.org/dc/elements/1.1/"
   xmlns:cc="http://creativecommons.org/ns#"
   xmlns:rdf="http://www.w3.org/1999/02/22-rdf-syntax-ns#"
   xmlns:svg="http://www.w3.org/2000/svg"
   xmlns="http://www.w3.org/2000/svg"
   version="1.1"
   width="32"
   height="32"
   id="svg3251">
  <defs
     id="defs3253" />
  <metadata
     id="metadata3256">
    <rdf:RDF>
      <cc:Work
         rdf:about="">
        <dc:format>image/svg+xml</dc:format>
        <dc:type
           rdf:resource="http://purl.org/dc/dcmitype/StillImage" />
        <dc:title></dc:title>
      </cc:Work>
    </rdf:RDF>
  </metadata>
  <g
     id="layer1">
    <path
       d="m 23.11159,32 h -5.34764 c -3.545081,0 -6.417381,-2.8734 -6.417381,-6.4174 v -9.62657 h 6.484971 v 2.13948 c 0,1.18135 0.89057,2.1384 2.07295,2.1384 h 1.06867 c 1.18241,0 2.13947,-0.95816 2.13947,-2.1384 v -2.13948 h 6.4839 v 9.62657 c 0,3.544 -2.94097,6.4174 -6.48497,6.4174 z m 0,-18.18347 c 0,-1.18135 -0.95816,-2.13947 -2.13947,-2.13947 v 0 -6.35085 c 0,0 -1.40343,-0.0665 2.07295,-0.0665 3.47637,0 6.55149,2.27252 6.55149,6.41738 0,2.12768 0,2.89484 0,3.14161 h -6.48497 v -1.00214 z m -3.1309,-9.28111 c 0,-2.06758 -0.97316,-3.21888 -2.92167,-3.21888 -2.061162,0 -3.638397,1.48498 -4.730677,4.45386 l -0.224257,0.60836 c -1.277882,3.47101 -3.151293,5.20709 -5.616951,5.20709 -0.995709,0 -1.924896,-0.37982 -2.788629,-1.13733 C 2.834771,9.68993 2.40344,8.87556 2.40344,8.00322 c 0,-0.43133 0.201714,-0.64805 0.607287,-0.64805 0.273598,0 0.555803,0.34441 0.846552,1.03219 0.5279,1.27038 1.409857,1.90557 2.643758,1.90557 0.934546,0 1.698494,-0.30151 2.29399,-0.90665 C 9.390523,8.78221 10.06755,7.62019 10.825068,5.90023 L 11.314347,4.81545 C 12.751034,1.60514 14.68665,0 17.11797,0 c 2.78649,0 4.17919,1.59013 4.17919,4.53539 h -1.31653 z m 2.06116,9.81544 V 17.559 c 0,0.88627 -0.71782,1.60407 -1.60407,1.60407 -0.88624,0 -1.60407,-0.71783 -1.60407,-1.60407 v -3.20814 c 0,-0.88628 0.71783,-1.60514 1.60407,-1.60514 0.88625,0 1.60407,0.7189 1.60407,1.60514 z M 17.83047,5.25968 c 3.4753,0 2.1384,0.0665 2.1384,0.0665 v 6.35086 c -1.18134,0 -2.1384,0.95815 -2.1384,2.13947 v 1.00321 h -6.484973 c 0,-0.24677 0,-1.01393 0,-3.14161 0,-4.14593 3.008564,-6.41845 6.484973,-6.41845 z"
       id="path257" />
  </g>
</svg>
