<?xml version="1.0" encoding="UTF-8" standalone="no"?>
<!-- Created with Inkscape (http://www.inkscape.org/) -->

<svg
   xmlns:dc="http://purl.org/dc/elements/1.1/"
   xmlns:cc="http://creativecommons.org/ns#"
   xmlns:rdf="http://www.w3.org/1999/02/22-rdf-syntax-ns#"
   xmlns:svg="http://www.w3.org/2000/svg"
   xmlns="http://www.w3.org/2000/svg"
   xmlns:sodipodi="http://sodipodi.sourceforge.net/DTD/sodipodi-0.dtd"
   xmlns:inkscape="http://www.inkscape.org/namespaces/inkscape"
   width="32px"
   height="32px"
   id="svg2985"
   version="1.1"
   inkscape:version="0.48.4 r9939"
   sodipodi:docname="2118.svg">
  <defs
     id="defs2987" />
  <sodipodi:namedview
     id="base"
     pagecolor="#ffffff"
     bordercolor="#666666"
     borderopacity="1.0"
     inkscape:pageopacity="0.0"
     inkscape:pageshadow="2"
     inkscape:zoom="11.197802"
     inkscape:cx="5.6854758"
     inkscape:cy="16"
     inkscape:current-layer="layer1"
     showgrid="true"
     inkscape:grid-bbox="true"
     inkscape:document-units="px"
     inkscape:window-width="1600"
     inkscape:window-height="848"
     inkscape:window-x="0"
     inkscape:window-y="0"
     inkscape:window-maximized="1" />
  <metadata
     id="metadata2990">
    <rdf:RDF>
      <cc:Work
         rdf:about="">
        <dc:format>image/svg+xml</dc:format>
        <dc:type
           rdf:resource="http://purl.org/dc/dcmitype/StillImage" />
        <dc:title></dc:title>
      </cc:Work>
    </rdf:RDF>
  </metadata>
  <g
     id="layer1"
     inkscape:label="Layer 1"
     inkscape:groupmode="layer">
    <path
       d="m 24.115902,-0.002135 c 0,0 0.03456,10.30167 3.13e-4,15.36187 -6.25e-4,0.1236 -0.02431,0.2071 -0.132815,0.2071 -0.02431,-0.01 -0.05088,-0.028 -0.08128,-0.072 -1.073928,-1.4877 -2.137636,-2.979 -3.201032,-4.4763 -0.139846,-0.2083 -0.370882,-0.2096 -0.513603,0 -1.08674,1.4848 -2.174137,2.9565 -3.261189,4.4253 -0.08703,0.1223 -0.226879,0.1203 -0.311694,0 -1.05827,-1.4964 -2.11651,-2.9937 -3.185031,-4.4926 -0.140159,-0.2086 -0.371851,-0.2112 -0.514572,-0.01 -1.085145,1.4733 -2.174135,2.9438 -3.2666253,4.4238 -0.08672,0.1232 -0.227849,0.1226 -0.313288,0 -1.070739,-1.4906 -2.152354,-2.9789 -3.246782,-4.4676 -0.14369,-0.2074 -0.381132,-0.208 -0.527042,-10e-4 -1.052833,1.4304 -2.11301,2.8724 -3.175437,4.3316 -0.307193,0.4752 -0.298568,0.6301 -0.298568,0.88 0,5.298 0,15.8941 0,15.8941 H 29.912768 v -32 h -5.796925 z"
       id="path257"
       inkscape:connector-curvature="0" />
  </g>
</svg>
