<?xml version="1.0" encoding="UTF-8" standalone="no"?>
<!-- Created with Inkscape (http://www.inkscape.org/) -->

<svg
   xmlns:dc="http://purl.org/dc/elements/1.1/"
   xmlns:cc="http://creativecommons.org/ns#"
   xmlns:rdf="http://www.w3.org/1999/02/22-rdf-syntax-ns#"
   xmlns:svg="http://www.w3.org/2000/svg"
   xmlns="http://www.w3.org/2000/svg"
   version="1.1"
   width="32"
   height="32"
   id="svg3251">
  <defs
     id="defs3253" />
  <metadata
     id="metadata3256">
    <rdf:RDF>
      <cc:Work
         rdf:about="">
        <dc:format>image/svg+xml</dc:format>
        <dc:type
           rdf:resource="http://purl.org/dc/dcmitype/StillImage" />
        <dc:title></dc:title>
      </cc:Work>
    </rdf:RDF>
  </metadata>
  <g
     id="layer1">
    <path
       d="m 10.212752,16 c 0,0.9396 0.762574,1.7021 1.702147,1.7021 0.939573,0 1.702147,-0.7625 1.702147,-1.7021 0,-0.9396 -0.762574,-1.7021 -1.702147,-1.7021 -0.939573,0 -1.702147,0.7625 -1.702147,1.7021 z m 8.170202,0 c 0,0.9396 0.762574,1.7021 1.702147,1.7021 0.939573,0 1.702147,-0.7625 1.702147,-1.7021 0,-0.9396 -0.762574,-1.7021 -1.702147,-1.7021 -0.939573,0 -1.702147,0.7625 -1.702147,1.7021 z M 0,29.2766 C 0,30.7812 1.2187,32 2.723421,32 H 29.276578 C 30.781236,32 32,30.7813 32,29.2766 L 31.999936,2.72342 C 31.999936,1.21876 30.781236,0 29.276514,0 L 2.723421,6e-5 C 1.2187,6e-5 0,1.21876 0,2.72342 V 29.2766 z M 6.808522,16 c 0,-5.0791 4.112293,-9.19148 9.191478,-9.19148 5.079185,0 9.191477,4.11238 9.191477,9.19148 0,5.0791 -4.112356,9.1915 -9.191477,9.1915 -5.079121,0 -9.191478,-4.1123 -9.191478,-9.1915 z"
       id="path257" />
  </g>
</svg>
