<?xml version="1.0" encoding="UTF-8" standalone="no"?>
<!-- Created with Inkscape (http://www.inkscape.org/) -->

<svg
   xmlns:dc="http://purl.org/dc/elements/1.1/"
   xmlns:cc="http://creativecommons.org/ns#"
   xmlns:rdf="http://www.w3.org/1999/02/22-rdf-syntax-ns#"
   xmlns:svg="http://www.w3.org/2000/svg"
   xmlns="http://www.w3.org/2000/svg"
   version="1.1"
   width="32"
   height="32"
   id="svg3251">
  <defs
     id="defs3253" />
  <metadata
     id="metadata3256">
    <rdf:RDF>
      <cc:Work
         rdf:about="">
        <dc:format>image/svg+xml</dc:format>
        <dc:type
           rdf:resource="http://purl.org/dc/dcmitype/StillImage" />
        <dc:title></dc:title>
      </cc:Work>
    </rdf:RDF>
  </metadata>
  <g
     id="layer1">
    <path
       d="m 20.541805,0.48012688 -5.873515,5.86620002 -2.540478,-2.5331 c -0.63926,-0.63995 -1.673175,-0.63995 -2.313122,0 -0.639948,0.63995 -0.639948,1.67318 0,2.31312 l 0.35997,0.35997 -2.839766,2.84646 C 3.668509,12.999177 2.915259,18.405977 5.561728,22.692377 l -4.786292,4.7863 c -1.033915,1.0326 -1.033915,2.7131 0,3.7457 1.033227,1.0339 2.713088,1.0339 3.739004,0 l 4.786917,-4.7923 c 4.299646,2.6664 9.693201,1.9058 13.365585,-1.7666 l 2.839766,-2.8464 0.367282,0.3673 c 0.63926,0.6392 1.671862,0.6392 2.312497,0 0.640634,-0.6407 0.640634,-1.6746 0,-2.3138 l -2.873763,-2.8738 6.2068,-6.2062 c 0.640635,-0.6399 0.640635,-1.6732001 0,-2.3131001 -0.640635,-0.63996 -1.673174,-0.63996 -2.312497,0 l -6.2068,6.1995001 -6.020191,-6.0128001 5.873516,-5.87286 c 0.640634,-0.63995 0.640634,-1.67318 0,-2.31313002 -0.640635,-0.63994 -1.672425,-0.64001 -2.311747,-6e-5 z"
       id="path257" />
  </g>
</svg>
