<?xml version="1.0" encoding="UTF-8" standalone="no"?>
<!-- Created with Inkscape (http://www.inkscape.org/) -->

<svg
   xmlns:dc="http://purl.org/dc/elements/1.1/"
   xmlns:cc="http://creativecommons.org/ns#"
   xmlns:rdf="http://www.w3.org/1999/02/22-rdf-syntax-ns#"
   xmlns:svg="http://www.w3.org/2000/svg"
   xmlns="http://www.w3.org/2000/svg"
   version="1.1"
   width="32"
   height="32"
   id="svg3251">
  <defs
     id="defs3253" />
  <metadata
     id="metadata3256">
    <rdf:RDF>
      <cc:Work
         rdf:about="">
        <dc:format>image/svg+xml</dc:format>
        <dc:type
           rdf:resource="http://purl.org/dc/dcmitype/StillImage" />
        <dc:title></dc:title>
      </cc:Work>
    </rdf:RDF>
  </metadata>
  <g
     id="layer1">
    <path
       d="M 32,17 28,9 H 22 V 5 C 22,3.9 21.1,3 20,3 H 2 C 0.9,3 0,3.9 0,5 v 16 l 2,2 H 4.536437 C 4.195875,23.5885 4,24.27119 4,25 c 0,2.20912 1.790875,4 4,4 2.209125,0 4,-1.79088 4,-4 0,-0.72881 -0.195875,-1.4115 -0.536437,-2 H 22.5365 C 22.195937,23.5885 22,24.27119 22,25 c 0,2.20912 1.790875,4 4,4 2.209125,0 4,-1.79088 4,-4 0,-0.72881 -0.195938,-1.4115 -0.5365,-2 H 32 v -6 z m -10,0 v -5 h 4.145875 l 2.5,5 H 22 z"
       id="path257" />
  </g>
</svg>
