<?xml version="1.0" encoding="UTF-8" standalone="no"?>
<!-- Created with Inkscape (http://www.inkscape.org/) -->

<svg
   xmlns:dc="http://purl.org/dc/elements/1.1/"
   xmlns:cc="http://creativecommons.org/ns#"
   xmlns:rdf="http://www.w3.org/1999/02/22-rdf-syntax-ns#"
   xmlns:svg="http://www.w3.org/2000/svg"
   xmlns="http://www.w3.org/2000/svg"
   version="1.1"
   width="32"
   height="32"
   id="svg3240">
  <defs
     id="defs3242" />
  <metadata
     id="metadata3245">
    <rdf:RDF>
      <cc:Work
         rdf:about="">
        <dc:format>image/svg+xml</dc:format>
        <dc:type
           rdf:resource="http://purl.org/dc/dcmitype/StillImage" />
        <dc:title></dc:title>
      </cc:Work>
    </rdf:RDF>
  </metadata>
  <g
     id="layer1">
    <path
       d="m 9.548714,10.191417 c 1.21957,0 1.52465,0.60944 2.336718,0.50773 0.812785,-0.10167 0.101671,-1.5239303 -0.609443,-2.5394003 -0.711114,-1.01548 -2.336,-0.50774 -3.555504,0.20337 C 6.5016,9.0742267 0.025548,13.010907 0.025548,13.010907 h 5.663299 c 0,-7.2e-4 2.641015,-2.81953 3.859932,-2.81953 z M 0,13.746197 v 9.244419 c 0,0.78508 0.636426,1.42226 1.422228,1.42226 0,0 5.482665,0 11.436785,0 1.068041,0 2.044428,-3.31875 3.140954,-3.31875 0.952209,0 1.668218,3.31875 2.606951,3.31875 6.323903,0 11.970104,0 11.970104,0 C 31.36279,24.412876 32,23.775736 32,22.990616 V 13.746197 H 9.8e-5 z m 12.799922,6.400749 c 0,1.17761 -0.9557,2.13337 -2.133375,2.13337 H 4.266554 c -1.178328,0 -2.133375,-0.9557 -2.133375,-2.13337 v -2.13338 c 0,-1.178329 0.955047,-2.133369 2.133375,-2.133369 h 6.399993 c 1.177609,0 2.133375,0.95504 2.133375,2.133369 v 2.13338 z m 17.066638,0 c 0,1.17761 -0.9557,2.13337 -2.133375,2.13337 h -6.399993 c -1.178327,0 -2.133375,-0.9557 -2.133375,-2.13337 v -2.13338 c 0,-1.178329 0.955048,-2.133369 2.133375,-2.133369 h 6.399993 c 1.17761,0 2.133375,0.95504 2.133375,2.133369 v 2.13338 z m -9.75284,-9.447829 c 0.812785,0.10167 1.117148,-0.50774 2.336718,-0.50774 1.218885,0 3.860585,2.81888 3.860585,2.81888 h 5.663298 c 0,0 -6.476051,-3.9367103 -7.694936,-4.6477903 -1.21957,-0.71112 -2.844424,-1.21889 -3.555538,-0.20338 -0.711114,1.01551 -1.42226,2.4383903 -0.610127,2.5401003 z"
       id="path257" />
  </g>
</svg>
