<?xml version="1.0" encoding="UTF-8" standalone="no"?>
<!-- Created with Inkscape (http://www.inkscape.org/) -->

<svg
   xmlns:dc="http://purl.org/dc/elements/1.1/"
   xmlns:cc="http://creativecommons.org/ns#"
   xmlns:rdf="http://www.w3.org/1999/02/22-rdf-syntax-ns#"
   xmlns:svg="http://www.w3.org/2000/svg"
   xmlns="http://www.w3.org/2000/svg"
   version="1.1"
   width="32"
   height="32"
   id="svg3251">
  <defs
     id="defs3253" />
  <metadata
     id="metadata3256">
    <rdf:RDF>
      <cc:Work
         rdf:about="">
        <dc:format>image/svg+xml</dc:format>
        <dc:type
           rdf:resource="http://purl.org/dc/dcmitype/StillImage" />
        <dc:title></dc:title>
      </cc:Work>
    </rdf:RDF>
  </metadata>
  <g
     id="layer1">
    <path
       d="M 30.000171,9 23.00018,2.00002 25.000196,0 32.000188,6.99999 z m -2.00014,1.9998 -1.000008,11.0001 C 17.999954,21.9999 4.9998515,32 4.9998515,32 l -1.660325,-1.6603 8.5520665,-8.5521 c 0.342941,0.1365 0.716694,0.2123 1.108322,0.2123 1.656888,0 3.000023,-1.3431 3.000023,-3 0,-1.6569 -1.343135,-3 -3.000023,-3 -1.656888,0 -3.0000245,1.3431 -3.0000245,3 0,0.3916 0.075811,0.7653 0.2123145,1.1083 L 1.6601385,28.6603 -1.875e-4,27 c 0,0 10.000078,-13.0001 10.000078,-22.00021 L 20.999977,3.99978 28.000031,10.9998 z"
       id="path257" />
  </g>
</svg>
