<?xml version="1.0" encoding="UTF-8" standalone="no"?>
<!-- Created with Inkscape (http://www.inkscape.org/) -->

<svg
   xmlns:dc="http://purl.org/dc/elements/1.1/"
   xmlns:cc="http://creativecommons.org/ns#"
   xmlns:rdf="http://www.w3.org/1999/02/22-rdf-syntax-ns#"
   xmlns:svg="http://www.w3.org/2000/svg"
   xmlns="http://www.w3.org/2000/svg"
   version="1.1"
   width="32"
   height="32"
   id="svg3251">
  <defs
     id="defs3253" />
  <metadata
     id="metadata3256">
    <rdf:RDF>
      <cc:Work
         rdf:about="">
        <dc:format>image/svg+xml</dc:format>
        <dc:type
           rdf:resource="http://purl.org/dc/dcmitype/StillImage" />
        <dc:title></dc:title>
      </cc:Work>
    </rdf:RDF>
  </metadata>
  <g
     id="layer1">
    <path
       d="M 4.695586,4.6895515 C 1.79862,7.5830655 0,11.58206 0,16 0,20.417938 1.79862,24.413401 4.695586,27.310448 L 6.216522,25.801583 C 3.675487,23.305053 2.088268,19.833316 2.088268,16 c 0,-3.836732 1.583043,-7.3080895 4.128254,-9.8015845 L 4.695586,4.6895515 z m 22.632969,0 -1.71407,1.701999 c 2.434831,2.478115 3.94719,5.8698705 3.94719,9.6084495 1.62e-4,3.7358 -1.503441,7.127326 -3.935119,9.60845 l 1.701999,1.701998 C 30.222029,24.413442 32,20.418101 32,16 32,11.581897 30.222029,7.5830245 27.328555,4.6895515 z M 7.50811,7.5020755 C 5.2996,9.6594825 3.935119,12.672644 3.935119,16 c 0,3.327522 1.364522,6.33697 3.572991,8.497925 L 9.185967,22.832138 C 7.405905,21.096327 6.288947,18.675486 6.288947,16 c 0,-2.678812 1.11284,-5.099419 2.89702,-6.8321385 L 7.50811,7.5020755 z m 16.802716,0.193134 -1.665786,1.665787 C 24.31978,11.078549 25.360837,13.41868 25.360996,16 c 0,2.578576 -1.032425,4.918545 -2.703886,6.639003 l 1.653716,1.653717 C 26.406459,22.147563 27.702913,19.226933 27.702754,16 c 0,-3.226776 -1.296335,-6.1630785 -3.391928,-8.3047905 z M 10.356846,10.33874 C 8.875441,11.769179 7.954734,13.78215 7.954734,16 c 0,2.217848 0.920707,4.215135 2.402112,5.649188 l 1.665787,-1.665786 C 10.973025,18.978177 10.308563,17.56579 10.308563,16 c 0,-1.569161 0.660498,-2.993506 1.71407,-3.995474 L 10.356846,10.33874 z m 11.117315,0.205205 -1.677857,1.665787 c 0.945227,0.987127 1.533006,2.31774 1.533006,3.790268 0,1.469001 -0.56742,2.81242 -1.508865,3.802338 l 1.653716,1.653715 C 22.846923,20.037226 23.695209,18.12102 23.695209,16 c 0,-2.12165 -0.847566,-4.04057 -2.221048,-5.456055 z m -5.468126,2.836666 c -1.443925,0 -2.619389,1.175464 -2.619389,2.619389 0,1.443925 1.175464,2.607317 2.619389,2.607317 1.443925,0 2.607319,-1.163392 2.607319,-2.607317 0,-1.443925 -1.163394,-2.619388 -2.607319,-2.619388 z"
       id="path3474"
       style="fill:#000000" />
  </g>
</svg>
