<?xml version="1.0" encoding="UTF-8" standalone="no"?>
<!-- Created with Inkscape (http://www.inkscape.org/) -->

<svg
   xmlns:dc="http://purl.org/dc/elements/1.1/"
   xmlns:cc="http://creativecommons.org/ns#"
   xmlns:rdf="http://www.w3.org/1999/02/22-rdf-syntax-ns#"
   xmlns:svg="http://www.w3.org/2000/svg"
   xmlns="http://www.w3.org/2000/svg"
   version="1.1"
   width="32"
   height="32"
   id="svg3261">
  <defs
     id="defs3263" />
  <metadata
     id="metadata3266">
    <rdf:RDF>
      <cc:Work
         rdf:about="">
        <dc:format>image/svg+xml</dc:format>
        <dc:type
           rdf:resource="http://purl.org/dc/dcmitype/StillImage" />
        <dc:title></dc:title>
      </cc:Work>
    </rdf:RDF>
  </metadata>
  <g
     id="layer1">
    <path
       d="m 28.658381,15.997952 2.873131,2.8107 q 0.624602,0.5829 0.416412,1.4574 -0.249816,0.8536 -1.082639,1.0618 l -3.914113,0.9994 1.103467,3.8724 q 0.249816,0.8537 -0.395552,1.4574 -0.603773,0.6454 -1.457393,0.3956 l -3.872487,-1.1035 -0.999357,3.9141 q -0.20819,0.8328 -1.061811,1.0827 -0.249815,0.042 -0.395551,0.042 -0.645399,0 -1.061811,-0.458 L 16,28.656852 l -2.810676,2.8731 q -0.582945,0.6246 -1.457394,0.4164 -0.85362,-0.229 -1.06181,-1.0826 l -0.999358,-3.9141 -3.872487,1.1035 q -0.85362,0.2498 -1.457394,-0.3956 -0.645399,-0.6038 -0.395552,-1.4574 l 1.103468,-3.8725 -3.914113,-0.9993 q -0.83276,-0.2082 -1.082639,-1.0618 -0.20819,-0.8745 0.416412,-1.4574 l 2.87313,-2.8107 -2.87313,-2.8107 q -0.624602,-0.5829 -0.416412,-1.4574 0.249816,-0.8536 1.082639,-1.06179 L 5.048797,9.6692016 3.945329,5.7967116 Q 3.695514,4.9430914 4.340881,4.3393214 q 0.603774,-0.6454 1.457394,-0.39555 l 3.872487,1.10346 0.999358,-3.91411 q 0.20819,-0.85361997 1.06181,-1.06180997 0.85362,-0.24981 1.457394,0.39555 L 16,3.3608214 18.810677,0.46686143 q 0.603774,-0.6246 1.457394,-0.39555 0.85362,0.20819 1.06181,1.06180997 l 0.999357,3.91411 3.872487,-1.10346 q 0.853621,-0.24982 1.457394,0.39555 0.645399,0.60377 0.395552,1.4573902 l -1.103468,3.87249 3.914113,0.9993604 q 0.832761,0.20819 1.082639,1.06179 0.20819,0.8744 -0.416412,1.4574 z"
       id="path257" />
  </g>
</svg>
