<?xml version="1.0" encoding="UTF-8" standalone="no"?>
<!-- Created with Inkscape (http://www.inkscape.org/) -->

<svg
   xmlns:dc="http://purl.org/dc/elements/1.1/"
   xmlns:cc="http://creativecommons.org/ns#"
   xmlns:rdf="http://www.w3.org/1999/02/22-rdf-syntax-ns#"
   xmlns:svg="http://www.w3.org/2000/svg"
   xmlns="http://www.w3.org/2000/svg"
   version="1.1"
   width="32"
   height="32"
   id="svg3251">
  <defs
     id="defs3253" />
  <metadata
     id="metadata3256">
    <rdf:RDF>
      <cc:Work
         rdf:about="">
        <dc:format>image/svg+xml</dc:format>
        <dc:type
           rdf:resource="http://purl.org/dc/dcmitype/StillImage" />
        <dc:title></dc:title>
      </cc:Work>
    </rdf:RDF>
  </metadata>
  <g
     id="layer1">
    <path
       d="m 29.793614,2.3325661 -0.125875,-0.12631 c -2.942129,-2.94168997 -7.756074,-2.94168997 -10.697703,0 l -6.815823,6.81673 c -2.9416921,2.9416999 -2.9416921,7.7554999 0,10.6971999 l 0.125813,0.1258 c 0.24475,0.2453 0.504563,0.4664 0.773001,0.6706 l 2.495254,-2.4953 c -0.290688,-0.1717 -0.566439,-0.3773 -0.816126,-0.6269 l -0.126313,-0.1263 c -1.597315,-1.5968 -1.597315,-4.196 0,-5.7934 l 6.81651,-6.8160499 c 1.597377,-1.59744 4.196069,-1.59744 5.793321,0 l 0.126313,0.12575 c 1.596877,1.59737 1.596877,4.1966 0,5.7933999 l -3.083942,3.084 c 0.535375,1.3221 0.789001,2.7312 0.766813,4.1371 l 4.768882,-4.7689 c 2.941692,-2.9418 2.941692,-7.7555999 -1.25e-4,-10.6974199 z M 19.720037,12.154187 c -0.24475,-0.2447 -0.504563,-0.466301 -0.773001,-0.67 l -2.495254,2.4948 c 0.290751,0.1717 0.566438,0.3773 0.816126,0.6269 l 0.126313,0.1263 c 1.597377,1.5973 1.597377,4.196 0,5.7933 l -6.816573,6.8167 c -1.5974391,1.597 -4.1961311,1.597 -5.7933831,0 l -0.126313,-0.1263 c -1.596815,-1.5975 -1.596815,-4.1961 0,-5.7934 l 3.084005,-3.0839 c -0.535439,-1.3221 -0.788939,-2.7313 -0.766814,-4.1371 l -4.768819,4.7687 c -2.94175496,2.9417 -2.94175496,7.755599 0,10.6977 l 0.125812,0.126 c 2.942255,2.941499 7.7560121,2.941499 10.6977661,0 l 6.815948,-6.8162 c 2.941691,-2.9417 2.941691,-7.7561 0,-10.6977 l -0.125813,-0.1258 z"
       id="path257" />
  </g>
</svg>
