<?xml version="1.0" encoding="UTF-8" standalone="no"?>
<!-- Created with Inkscape (http://www.inkscape.org/) -->

<svg
   xmlns:dc="http://purl.org/dc/elements/1.1/"
   xmlns:cc="http://creativecommons.org/ns#"
   xmlns:rdf="http://www.w3.org/1999/02/22-rdf-syntax-ns#"
   xmlns:svg="http://www.w3.org/2000/svg"
   xmlns="http://www.w3.org/2000/svg"
   version="1.1"
   width="32"
   height="32"
   id="svg3251">
  <defs
     id="defs3253" />
  <metadata
     id="metadata3256">
    <rdf:RDF>
      <cc:Work
         rdf:about="">
        <dc:format>image/svg+xml</dc:format>
        <dc:type
           rdf:resource="http://purl.org/dc/dcmitype/StillImage" />
        <dc:title></dc:title>
      </cc:Work>
    </rdf:RDF>
  </metadata>
  <g
     id="layer1">
    <path
       d="m 24.000039,9.74907 c 0,-0.63199 -0.511991,-1.14285 -1.142851,-1.14285 h -3.428586 c 0,0 0.03768,-1.376 0.03768,-3.37599 0,-1.85713 -1.53824,-3.55202 -3.466301,-3.55202 -1.92806,0 -3.414871,1.6126 -3.414871,3.54173 0,1.85713 -0.01372,3.38741 -0.01372,3.38741 H 9.142804 c -0.631992,0 -1.142851,0.51086 -1.142851,1.14285 0,0.63086 0,2.21487 0,2.21487 h 16.000015 c 0,-0.001 0,-1.58517 0,-2.21603 z M 16.000016,7.3925 c -0.631992,0 -1.142852,-0.51199 -1.142852,-1.14285 0,-0.63199 0.51086,-1.14285 1.142852,-1.14285 0.63086,0 1.142851,0.51086 1.142851,1.14285 0,0.63086 -0.511991,1.14285 -1.142851,1.14285 z m 13.714281,2.35657 -4.571438,-0.0708 0.024,3.5474 H 6.857172 V 9.82111 L 2.285735,9.75031 C 1.024047,9.75031 0,10.77432 0,12.03604 v 16.00002 c 0,1.26168 1.024015,2.28573 2.285735,2.28573 h 27.42853 C 30.975954,30.32179 32,29.29778 32,28.03606 V 12.03604 C 32,10.77319 30.975985,9.74917 29.714265,9.74917 z M 9.142875,16.39248 c 1.380588,0 2.500572,1.47086 2.500572,3.28568 0,1.81483 -1.120016,3.28569 -2.500572,3.28569 -1.380556,0 -2.500571,-1.47086 -2.500571,-3.28569 0,-1.81482 1.120015,-3.28568 2.500571,-3.28568 z M 4.190896,26.83249 c 0,0 0.27089,-2.17372 0.886872,-2.58399 0.614849,-0.41033 2.38856,-0.68342 2.38856,-0.68342 0,0 1.149709,1.22856 1.638833,1.22856 0.488023,0 1.6377,-1.22856 1.6377,-1.22856 0,0 1.773711,0.27202 2.389693,0.68342 0.7234,0.4823 0.904014,2.58399 0.904014,2.58399 H 4.190834 z M 27.428594,25.74906 H 17.142899 V 24.6062 h 10.285695 v 1.14286 z m 0,-2.28568 H 17.142899 v -1.14285 h 10.285695 v 1.14285 z m 0,-2.28573 H 17.142899 V 20.0348 h 10.285695 v 1.14285 z m 0,-2.2857 H 17.142899 V 17.7491 h 10.285695 v 1.14285 z"
       id="path257" />
  </g>
</svg>
