<?xml version="1.0" encoding="UTF-8" standalone="no"?>
<!-- Created with Inkscape (http://www.inkscape.org/) -->

<svg
   xmlns:dc="http://purl.org/dc/elements/1.1/"
   xmlns:cc="http://creativecommons.org/ns#"
   xmlns:rdf="http://www.w3.org/1999/02/22-rdf-syntax-ns#"
   xmlns:svg="http://www.w3.org/2000/svg"
   xmlns="http://www.w3.org/2000/svg"
   xmlns:sodipodi="http://sodipodi.sourceforge.net/DTD/sodipodi-0.dtd"
   xmlns:inkscape="http://www.inkscape.org/namespaces/inkscape"
   version="1.1"
   width="32"
   height="32"
   id="svg3240"
   inkscape:version="0.48.4 r9939"
   sodipodi:docname="2081.svg">
  <sodipodi:namedview
     pagecolor="#ffffff"
     bordercolor="#666666"
     borderopacity="1"
     objecttolerance="10"
     gridtolerance="10"
     guidetolerance="10"
     inkscape:pageopacity="0"
     inkscape:pageshadow="2"
     inkscape:window-width="640"
     inkscape:window-height="480"
     id="namedview7"
     showgrid="false"
     inkscape:zoom="7.375"
     inkscape:cx="16"
     inkscape:cy="16"
     inkscape:window-x="0"
     inkscape:window-y="0"
     inkscape:window-maximized="0"
     inkscape:current-layer="svg3240" />
  <defs
     id="defs3242" />
  <metadata
     id="metadata3245">
    <rdf:RDF>
      <cc:Work
         rdf:about="">
        <dc:format>image/svg+xml</dc:format>
        <dc:type
           rdf:resource="http://purl.org/dc/dcmitype/StillImage" />
        <dc:title />
      </cc:Work>
    </rdf:RDF>
  </metadata>
  <path
     d="m 16,4.6940065 c -3.051811,0 -6.019028,0.5867003 -8.807571,1.7665615 C 4.4999874,7.6000509 2.076265,9.2297289 0,11.305994 l 2.29653,2.29653 C 5.9572492,9.9418049 10.822662,7.9242909 16,7.9242909 c 5.177338,0 10.042751,2.017514 13.70347,5.6782331 L 32,11.305994 C 29.924543,9.2297289 27.500013,7.5992429 24.807571,6.460568 22.019028,5.2815144 19.051811,4.6940065 16,4.6940065 z m 0,6.4605675 c -4.314044,0 -8.3819811,1.669048 -11.4321767,4.719243 l 2.29653,2.296529 C 9.3048328,15.729868 12.548442,14.384858 16,14.384858 c 3.451558,0 6.695167,1.34501 9.135647,3.785488 l 2.29653,-2.296529 C 24.381981,12.822814 20.314044,11.154574 16,11.154574 z m 0,6.460567 c -2.671445,0 -5.084265,1.096884 -6.8391167,2.851735 L 11.432177,22.73817 C 12.601539,21.567999 14.219306,20.845425 16,20.845425 c 1.780694,0 3.397653,0.722575 4.567823,1.892746 l 2.271294,-2.271295 C 21.084265,18.712026 18.671445,17.615141 16,17.615141 z m 0,6.460569 c -0.892366,0 -1.615142,0.722776 -1.615142,1.615141 0,0.892366 0.722776,1.615142 1.615142,1.615142 0.892366,0 1.615142,-0.722776 1.615142,-1.615142 0,-0.892365 -0.722776,-1.615141 -1.615142,-1.615141 z"
     id="path4"
     inkscape:connector-curvature="0" />
</svg>
