<?xml version="1.0" encoding="UTF-8" standalone="no"?>
<!-- Created with Inkscape (http://www.inkscape.org/) -->

<svg
   xmlns:dc="http://purl.org/dc/elements/1.1/"
   xmlns:cc="http://creativecommons.org/ns#"
   xmlns:rdf="http://www.w3.org/1999/02/22-rdf-syntax-ns#"
   xmlns:svg="http://www.w3.org/2000/svg"
   xmlns="http://www.w3.org/2000/svg"
   version="1.1"
   width="32"
   height="32"
   id="svg3251">
  <defs
     id="defs3253" />
  <metadata
     id="metadata3256">
    <rdf:RDF>
      <cc:Work
         rdf:about="">
        <dc:format>image/svg+xml</dc:format>
        <dc:type
           rdf:resource="http://purl.org/dc/dcmitype/StillImage" />
        <dc:title></dc:title>
      </cc:Work>
    </rdf:RDF>
  </metadata>
  <g
     id="layer1">
    <path
       d="m 31.341686,25.558641 -14.392249,-12.3362 c 0.67025,-1.2593 1.050562,-2.6963 1.050562,-4.2223998 0,-4.97056 -4.029437,-9.000000004586 -8.9999992,-9.000000004586 -0.9091875,0 -1.786625,0.135370004586 -2.6139374,0.386060004586 l 5.1996876,5.19969 c 0.777812,0.77781 0.777812,2.05062 0,2.82845 L 8.4141873,11.585741 c -0.7778125,0.7779 -2.0506249,0.7779 -2.8284374,0 L 0.38606254,6.3861012 C 0.13537505,7.2134112 5.196169e-8,8.0908412 5.196169e-8,9.0000412 5.196169e-8,13.970641 4.0294375,18.000041 8.9999998,18.000041 c 1.5260622,0 2.9630622,-0.3803 4.2223752,-1.0506 l 12.336249,14.3922 c 0.715875,0.8351 1.938,0.8821 2.71575,0.1043 l 3.171625,-3.1716 c 0.77775,-0.7777 0.730812,-1.9998 -0.104313,-2.7157 z"
       id="path257" />
  </g>
</svg>
