<?xml version="1.0" encoding="UTF-8" standalone="no"?>
<!-- Created with Inkscape (http://www.inkscape.org/) -->

<svg
   xmlns:dc="http://purl.org/dc/elements/1.1/"
   xmlns:cc="http://creativecommons.org/ns#"
   xmlns:rdf="http://www.w3.org/1999/02/22-rdf-syntax-ns#"
   xmlns:svg="http://www.w3.org/2000/svg"
   xmlns="http://www.w3.org/2000/svg"
   version="1.1"
   width="32"
   height="32"
   id="svg3251">
  <defs
     id="defs3253" />
  <metadata
     id="metadata3256">
    <rdf:RDF>
      <cc:Work
         rdf:about="">
        <dc:format>image/svg+xml</dc:format>
        <dc:type
           rdf:resource="http://purl.org/dc/dcmitype/StillImage" />
        <dc:title></dc:title>
      </cc:Work>
    </rdf:RDF>
  </metadata>
  <g
     id="layer1">
    <path
       d="M 27.883375,13.07781 C 27.959745,12.73063 28,12.37006 28,12 28,9.23856 25.761437,7 23,7 22.555562,7 22.124562,7.0584 21.714625,7.16725 20.939687,4.75 18.674312,3 16,3 13.270375,3 10.967062,4.823 10.239812,7.31781 9.529125,7.11087 8.777563,7 8,7 3.58175,7 0,10.58175 0,15 c 0,4.41837 3.58175,8 8,8 h 4 v 6 h 8 v -6 h 7 c 2.761437,0 5,-2.2385 5,-5 0,-2.46 -1.776688,-4.50506 -4.116625,-4.92219 z M 18,21 v 6 H 14 V 21 H 9 l 7,-7 7,7 h -5 z"
       id="path257" />
  </g>
</svg>
