<?xml version="1.0" encoding="UTF-8" standalone="no"?>
<!-- Created with Inkscape (http://www.inkscape.org/) -->

<svg
   xmlns:dc="http://purl.org/dc/elements/1.1/"
   xmlns:cc="http://creativecommons.org/ns#"
   xmlns:rdf="http://www.w3.org/1999/02/22-rdf-syntax-ns#"
   xmlns:svg="http://www.w3.org/2000/svg"
   xmlns="http://www.w3.org/2000/svg"
   version="1.1"
   width="32"
   height="32"
   id="svg3251">
  <defs
     id="defs3253" />
  <metadata
     id="metadata3256">
    <rdf:RDF>
      <cc:Work
         rdf:about="">
        <dc:format>image/svg+xml</dc:format>
        <dc:type
           rdf:resource="http://purl.org/dc/dcmitype/StillImage" />
        <dc:title></dc:title>
      </cc:Work>
    </rdf:RDF>
  </metadata>
  <g
     id="layer1">
    <g
       transform="matrix(0.32652933,0,0,0.32652933,-0.32640229,0.12055215)"
       id="g3">
      <g
         id="g5">
        <path
           d="m 98.656,80.699 -9.375,-18.5 c -0.521,-1.546 -1.59,-2.9 -2.932,-3.884 1.209,-1.048 1.988,-2.574 1.988,-4.294 V 10.709 C 88.338,7.56 85.776,5 82.631,5 H 17.367 c -3.148,0 -5.708,2.56 -5.708,5.709 v 43.312 c 0,1.721 0.782,3.248 1.989,4.295 -1.34,0.983 -2.408,2.338 -2.929,3.883 L 1.344,80.698 c -0.633,1.877 -0.386,7.751 0.68,9.232 1.064,1.482 2.809,2.332 4.789,2.332 h 86.375 c 1.979,0 3.725,-0.85 4.789,-2.332 1.065,-1.481 1.311,-7.355 0.679,-9.231 z m -5.468,4.345 H 6.812 c -1.915,0 -2.979,-1.485 -2.368,-3.299 l 9.375,-18.498 c 0.614,-1.812 2.678,-3.297 4.592,-3.297 h 63.176 c 1.913,0 3.979,1.484 4.591,3.297 l 9.375,18.498 c 0.612,1.814 -0.453,3.299 -2.365,3.299 z M 14.932,10.709 c 0,-1.344 1.092,-2.436 2.435,-2.436 h 65.264 c 1.342,0 2.436,1.092 2.436,2.436 v 43.312 c 0,1.343 -1.094,2.435 -2.436,2.435 H 17.367 c -1.342,0 -2.435,-1.092 -2.435,-2.435 V 10.709 z"
           id="path7" />
        <path
           d="m 61.964,72.913 c -0.12,-0.828 -0.937,-1.478 -1.855,-1.478 h -20.22 c -0.92,0 -1.736,0.649 -1.855,1.479 l -1.656,6.943 c -0.062,0.426 0.076,0.852 0.38,1.165 0.302,0.313 0.748,0.494 1.224,0.494 h 24.032 c 0.477,0 0.924,-0.181 1.225,-0.494 0.304,-0.313 0.441,-0.739 0.379,-1.165 l -1.654,-6.944 z"
           id="path9" />
        <path
           d="m 20.273,54.055 h 59.453 c 1.831,0 3.329,-1.499 3.329,-3.332 V 14.005 c 0,-1.831 -1.498,-3.33 -3.329,-3.33 H 20.273 c -1.832,0 -3.33,1.499 -3.33,3.33 v 36.718 c 0,1.833 1.498,3.332 3.33,3.332 z"
           id="path11" />
      </g>
    </g>
  </g>
</svg>
