<?xml version="1.0" encoding="UTF-8" standalone="no"?>
<!-- Created with Inkscape (http://www.inkscape.org/) -->

<svg
   xmlns:dc="http://purl.org/dc/elements/1.1/"
   xmlns:cc="http://creativecommons.org/ns#"
   xmlns:rdf="http://www.w3.org/1999/02/22-rdf-syntax-ns#"
   xmlns:svg="http://www.w3.org/2000/svg"
   xmlns="http://www.w3.org/2000/svg"
   version="1.1"
   width="32"
   height="32"
   id="svg3251">
  <defs
     id="defs3253" />
  <metadata
     id="metadata3256">
    <rdf:RDF>
      <cc:Work
         rdf:about="">
        <dc:format>image/svg+xml</dc:format>
        <dc:type
           rdf:resource="http://purl.org/dc/dcmitype/StillImage" />
        <dc:title></dc:title>
      </cc:Work>
    </rdf:RDF>
  </metadata>
  <g
     id="layer1">
    <g
       transform="translate(25.526007,-40.779969)"
       id="Captions" />
    <g
       transform="matrix(0.32,0,0,0.32,0,-0.17533626)"
       id="Your_Icon">
      <path
         d="m 83.51,51.599 h -7.533 l 6.708,-33.534 c 0.4,-2 2.346,-3.296 4.347,-2.897 2,0.401 3.297,2.346 2.896,4.346 l -6.418,32.085 0,0 z"
         id="ant-r"
         style="fill-rule:evenodd" />
      <path
         d="m 16.551,51.599 -6.28,-31.918 c -0.395,-2.011 0.888,-3.968 2.866,-4.37 1.977,-0.401 3.902,0.903 4.298,2.915 L 24,51.599 h -7.449 l 0,0 z"
         id="ant-l"
         style="fill-rule:evenodd" />
      <path
         d="M 88.312,54 H 80.779 23.341 15.892 4.83 0 v 26 h 9.712 l 3.333,6 h 14.262 l 3.332,-6 H 72.78 l 3.333,6 h 14.262 l 3.333,-6 H 100 V 54 H 88.312 z M 73.864,73.188 c -1.883,0 -3.409,-1.524 -3.409,-3.408 0,-1.883 1.526,-3.408 3.409,-3.408 1.882,0 3.408,1.525 3.408,3.408 0,1.883 -1.526,3.408 -3.408,3.408 z m 13.068,0 c -1.883,0 -3.408,-1.524 -3.408,-3.408 0,-1.883 1.525,-3.408 3.408,-3.408 1.883,0 3.409,1.525 3.409,3.408 0,1.883 -1.527,3.408 -3.409,3.408 z"
         id="base-9"
         style="fill-rule:evenodd" />
    </g>
  </g>
</svg>
