<?xml version="1.0" encoding="UTF-8" standalone="no"?>
<!-- Created with Inkscape (http://www.inkscape.org/) -->

<svg
   xmlns:dc="http://purl.org/dc/elements/1.1/"
   xmlns:cc="http://creativecommons.org/ns#"
   xmlns:rdf="http://www.w3.org/1999/02/22-rdf-syntax-ns#"
   xmlns:svg="http://www.w3.org/2000/svg"
   xmlns="http://www.w3.org/2000/svg"
   version="1.1"
   width="32"
   height="32"
   id="svg3251">
  <defs
     id="defs3253" />
  <metadata
     id="metadata3256">
    <rdf:RDF>
      <cc:Work
         rdf:about="">
        <dc:format>image/svg+xml</dc:format>
        <dc:type
           rdf:resource="http://purl.org/dc/dcmitype/StillImage" />
        <dc:title></dc:title>
      </cc:Work>
    </rdf:RDF>
  </metadata>
  <g
     id="layer1">
    <path
       d="M 24.205569,9.7403 C 24.778691,9.3331 25.328414,8.8798 25.832164,8.3761 26.888293,7.31993 27.594782,6.02046 27.821362,4.71707 28.069822,3.28835 27.705258,1.96182 26.821261,1.07776 26.116163,0.37272 25.160961,0 24.058922,0 22.48962,0 20.836276,0.75328 19.522897,2.06666 17.42101,4.16855 16.195783,7.06995 15.536533,9.1405 15.048339,7.0599 14.075557,4.25082 12.184377,2.35958 11.169605,1.34487 9.872604,0.82386 8.647947,0.82386 7.647087,0.82386 6.694541,1.17179 5.983752,1.88264 4.403258,3.4632 4.616811,6.23926 6.460752,8.0832 7.118169,8.7406 7.886694,9.2867 8.69683,9.7404 H 1.834804 v 8.0944 H 3.858403 V 32 H 28.141597 V 17.8347 h 2.023599 V 9.7403 H 24.205569 z M 21.132544,3.67644 c 0.876598,-0.8766 1.970543,-1.39989 2.926314,-1.39989 0.338321,0 0.812855,0.0713 1.152503,0.41098 0.823036,0.82297 0.360834,2.72895 -0.989034,4.07875 C 22.83281,8.1558 20.9637,9.1114 19.339382,9.7403 H 17.737197 C 18.324294,7.92075 19.383205,5.42578 21.132544,3.67644 z M 7.207903,4.70949 C 7.185703,4.42112 7.206303,3.87956 7.593525,3.49235 7.917428,3.16845 8.345672,3.10041 8.647947,3.10041 v 0 c 0.672151,0 1.374404,0.31669 1.926593,0.86888 1.07099,1.07099 1.952963,2.77524 2.550621,4.92861 0.01613,0.058 0.03187,0.116 0.0473,0.1735 C 13.115041,9.0564 13.057179,9.0404 12.999,9.0244 10.845637,8.4266 9.14145,7.54466 8.07046,6.47367 7.569999,5.97327 7.255645,5.33033 7.207901,4.70979 z M 13.976401,29.9763 H 5.882003 V 16.8229 h 8.094398 v 13.1534 z m 0,-14.1652 H 3.858403 v -4.0472 h 10.117998 v 4.0472 z M 26.117997,29.9763 H 18.0236 V 16.8229 h 8.094397 v 13.1534 z m 2.0236,-14.1652 H 18.0236 v -4.0472 h 10.117997 v 4.0472 z"
       id="path257-3" />
  </g>
</svg>
