<?xml version="1.0" encoding="UTF-8" standalone="no"?>
<!-- Created with Inkscape (http://www.inkscape.org/) -->

<svg
   xmlns:dc="http://purl.org/dc/elements/1.1/"
   xmlns:cc="http://creativecommons.org/ns#"
   xmlns:rdf="http://www.w3.org/1999/02/22-rdf-syntax-ns#"
   xmlns:svg="http://www.w3.org/2000/svg"
   xmlns="http://www.w3.org/2000/svg"
   version="1.1"
   width="32"
   height="32"
   id="svg3105">
  <defs
     id="defs3107" />
  <metadata
     id="metadata3110">
    <rdf:RDF>
      <cc:Work
         rdf:about="">
        <dc:format>image/svg+xml</dc:format>
        <dc:type
           rdf:resource="http://purl.org/dc/dcmitype/StillImage" />
        <dc:title></dc:title>
      </cc:Work>
    </rdf:RDF>
  </metadata>
  <g
     id="layer1">
    <path
       d="m 7.1105675,0 c -2.940493,0 -5.332681,2.39219 -5.332681,5.33268 l 0,21.33362 c 0,2.9405 2.392188,5.3337 5.332681,5.3337 l 17.7788645,0 c 2.940493,0 5.332681,-2.3932 5.332681,-5.3337 l 0,-21.33362 C 30.222113,2.39219 27.829925,0 24.889432,0 L 7.1105675,0 z m 0,3.55577 17.7788645,0 c 0.979569,0 1.776908,0.79835 1.776908,1.77789 l 0,21.33364 c 0,0.9796 -0.79737,1.7769 -1.776908,1.7769 l -17.7788645,0 c -0.979569,0 -1.777886,-0.7973 -1.777886,-1.7769 l 0,-21.33364 c 0,-0.97957 0.798348,-1.77789 1.777886,-1.77789 z m 1.777887,3.5548 c -0.490709,0 -0.888454,0.39872 -0.888454,0.88943 0,0.49071 0.397776,0.88845 0.888454,0.88845 l 14.2230905,0 C 23.602254,8.88845 24,8.49071 24,8 24,7.50929 23.602223,7.11057 23.111545,7.11057 l -14.2230905,0 z m 0,5.33363 c -0.490709,0 -0.888454,0.3988 -0.888454,0.8895 0,0.4907 0.397776,0.8884 0.888454,0.8884 l 14.2230905,0 C 23.602254,14.2221 24,13.8244 24,13.3337 24,12.843 23.602223,12.4442 23.111545,12.4442 l -14.2230905,0 z m 0,5.3337 c -0.490709,0 -0.888454,0.3977 -0.888454,0.8884 0,0.4907 0.397776,0.8895 0.888454,0.8895 l 14.2230905,0 C 23.602254,19.5558 24,19.157 24,18.6663 24,18.1756 23.602223,17.7779 23.111545,17.7779 l -14.2230905,0 z m 0,5.3336 c -0.490709,0 -0.888454,0.3978 -0.888454,0.8885 0,0.4907 0.397776,0.8894 0.888454,0.8894 l 14.2230905,0 C 23.602254,24.8894 24,24.4907 24,24 24,23.5093 23.602223,23.1115 23.111545,23.1115 l -14.2230905,0 z"
       id="path257" />
  </g>
</svg>
