<?xml version="1.0" encoding="UTF-8" standalone="no"?>
<!-- Created with Inkscape (http://www.inkscape.org/) -->

<svg
   xmlns:dc="http://purl.org/dc/elements/1.1/"
   xmlns:cc="http://creativecommons.org/ns#"
   xmlns:rdf="http://www.w3.org/1999/02/22-rdf-syntax-ns#"
   xmlns:svg="http://www.w3.org/2000/svg"
   xmlns="http://www.w3.org/2000/svg"
   version="1.1"
   width="32"
   height="32"
   id="svg3251">
  <defs
     id="defs3253" />
  <metadata
     id="metadata3256">
    <rdf:RDF>
      <cc:Work
         rdf:about="">
        <dc:format>image/svg+xml</dc:format>
        <dc:type
           rdf:resource="http://purl.org/dc/dcmitype/StillImage" />
        <dc:title></dc:title>
      </cc:Work>
    </rdf:RDF>
  </metadata>
  <g
     id="layer1">
    <path
       d="M 1.125,28.57142 H 0 V 3.42858 H 1.125 V 28.57142 z M 2.25,28.55362 H 1.678562 V 3.42862 H 2.25 v 25.125 z m 1.678562,0 H 3.375 v -25.125 h 0.553562 v 25.125 z m 2.803594,0 H 6.178594 v -25.125 h 0.553562 v 25.125 z m 2.803563,0 H 8.428562 v -25.125 h 1.107157 v 25.125 z m 2.25,0 h -0.553563 v -25.125 h 0.553563 v 25.125 z m 1.125,0 h -0.553563 v -25.125 h 0.553563 v 25.125 z m 1.125,0 h -0.553563 v -25.125 h 0.553563 v 25.125 z m 2.803562,0 h -1.125 v -25.125 h 1.125 v 25.125 z m 2.803563,0 h -1.125 v -25.125 h 1.125 v 25.125 z m 2.25,0 h -1.125 v -25.125 h 1.125 v 25.125 z m 2.25,0 h -1.125 v -25.125 h 1.125 v 25.125 z m 1.678593,0 h -1.125 v -25.125 h 1.125 v 25.125 z m 3.375,0 h -1.678562 v -25.125 h 1.678562 v 25.125 z m 1.125,0 H 29.75 v -25.125 h 0.571438 v 25.125 z M 32,28.57142 H 30.875 V 3.42858 H 32 v 25.14284 z"
       id="path257" />
  </g>
</svg>
