<?xml version="1.0" encoding="UTF-8" standalone="no"?>
<!-- Created with Inkscape (http://www.inkscape.org/) -->

<svg
   xmlns:dc="http://purl.org/dc/elements/1.1/"
   xmlns:cc="http://creativecommons.org/ns#"
   xmlns:rdf="http://www.w3.org/1999/02/22-rdf-syntax-ns#"
   xmlns:svg="http://www.w3.org/2000/svg"
   xmlns="http://www.w3.org/2000/svg"
   version="1.1"
   width="32"
   height="32"
   id="svg3251">
  <defs
     id="defs3253" />
  <metadata
     id="metadata3256">
    <rdf:RDF>
      <cc:Work
         rdf:about="">
        <dc:format>image/svg+xml</dc:format>
        <dc:type
           rdf:resource="http://purl.org/dc/dcmitype/StillImage" />
        <dc:title></dc:title>
      </cc:Work>
    </rdf:RDF>
  </metadata>
  <g
     id="layer1">
    <path
       d="M 29,4 H 3 C 1.35,4 0,5.35 0,7 v 18 c 0,1.65 1.35,3 3,3 h 26 c 1.65,0 3,-1.35 3,-3 V 7 C 32,5.35 30.65,4 29,4 z M 3,6 h 26 c 0.542062,0 1,0.45794 1,1 v 3 H 2 V 7 C 2,6.45794 2.457937,6 3,6 z M 29,26 H 3 C 2.457937,26 2,25.54206 2,25 v -9 h 28 v 9 c 0,0.54206 -0.457938,1 -1,1 z M 4,20 h 2 v 4 H 4 z m 4,0 h 2 v 4 H 8 z m 4,0 h 2 v 4 h -2 z"
       id="path257" />
  </g>
</svg>
