<?xml version="1.0" encoding="UTF-8" standalone="no"?>
<!-- Created with Inkscape (http://www.inkscape.org/) -->

<svg
   xmlns:dc="http://purl.org/dc/elements/1.1/"
   xmlns:cc="http://creativecommons.org/ns#"
   xmlns:rdf="http://www.w3.org/1999/02/22-rdf-syntax-ns#"
   xmlns:svg="http://www.w3.org/2000/svg"
   xmlns="http://www.w3.org/2000/svg"
   version="1.1"
   width="32"
   height="32"
   id="svg3251">
  <defs
     id="defs3253" />
  <metadata
     id="metadata3256">
    <rdf:RDF>
      <cc:Work
         rdf:about="">
        <dc:format>image/svg+xml</dc:format>
        <dc:type
           rdf:resource="http://purl.org/dc/dcmitype/StillImage" />
        <dc:title></dc:title>
      </cc:Work>
    </rdf:RDF>
  </metadata>
  <g
     id="layer1">
    <path
       d="M 4.99997,29.3333 C 4.99997,30.8066 6.19328,32 7.66666,32 h 16.66669 c 1.47331,0 2.66668,-1.1933 2.66668,-2.6667 l -6e-5,-26.6666102 c 0,-1.47332 -1.19331,-2.66669 -2.66669,-2.66669 H 7.6666 c -1.47332,0 -2.66663,1.19331 -2.66663,2.66669 V 29.3333 z m 4.8,-25.9999902 h 12.4 c 0.81331,0 1.46663,0.6533804 1.46663,1.4666904 v 4.4 C 23.6666,10.0133 23.01328,10.6667 22.19991,10.6667 H 9.79997 c -0.81331,0 -1.46669,-0.6533 -1.46669,-1.4666998 v -4.4 c 0,-0.81331 0.65331,-1.4666904 1.46669,-1.4666904 z M 8.33328,15 c 0,-0.92 0.74669,-1.6667 1.66669,-1.6667 0.92,0 1.66669,0.7467 1.66669,1.6667 0,0.92 -0.74669,1.6667 -1.66669,1.6667 -0.92,0 -1.66669,-0.7467 -1.66669,-1.6667 z m 6,0 c 0,-0.92 0.74669,-1.6667 1.66669,-1.6667 0.92,0 1.66669,0.7467 1.66669,1.6667 0,0.92 -0.74669,1.6667 -1.66669,1.6667 -0.92,0 -1.66669,-0.7467 -1.66669,-1.6667 z m 6,0 c 0,-0.92 0.74669,-1.6667 1.66669,-1.6667 0.92,0 1.66669,0.7467 1.66669,1.6667 0,0.92 -0.74669,1.6667 -1.66669,1.6667 -0.92,0 -1.66669,-0.7467 -1.66669,-1.6667 z m -12,6 c 0,-0.92 0.74669,-1.6667 1.66669,-1.6667 0.92,0 1.66669,0.7467 1.66669,1.6667 0,0.92 -0.74669,1.6667 -1.66669,1.6667 -0.92,0 -1.66669,-0.7467 -1.66669,-1.6667 z m 6,0 c 0,-0.92 0.74669,-1.6667 1.66669,-1.6667 0.92,0 1.66669,0.7467 1.66669,1.6667 0,0.92 -0.74669,1.6667 -1.66669,1.6667 -0.92,0 -1.66669,-0.7467 -1.66669,-1.6667 z m 6,0 c 0,-0.92 0.74669,-1.6667 1.66669,-1.6667 0.92,0 1.66669,0.7467 1.66669,1.6667 0,0.92 -0.74669,1.6667 -1.66669,1.6667 -0.92,0 -1.66669,-0.7467 -1.66669,-1.6667 z m -12,6 c 0,-0.92 0.74669,-1.6667 1.66669,-1.6667 0.92,0 1.66669,0.7467 1.66669,1.6667 0,0.92 -0.74669,1.6667 -1.66669,1.6667 -0.92,0 -1.66669,-0.7467 -1.66669,-1.6667 z m 6,0 c 0,-0.92 0.74669,-1.6667 1.66669,-1.6667 0.92,0 1.66669,0.7467 1.66669,1.6667 0,0.92 -0.74669,1.6667 -1.66669,1.6667 -0.92,0 -1.66669,-0.7467 -1.66669,-1.6667 z m 6,0 c 0,-0.92 0.74669,-1.6667 1.66669,-1.6667 0.92,0 1.66669,0.7467 1.66669,1.6667 0,0.92 -0.74669,1.6667 -1.66669,1.6667 -0.92,0 -1.66669,-0.7467 -1.66669,-1.6667 z"
       id="path257" />
  </g>
</svg>
