<?xml version="1.0" encoding="UTF-8" standalone="no"?>
<!-- Created with Inkscape (http://www.inkscape.org/) -->

<svg
   xmlns:dc="http://purl.org/dc/elements/1.1/"
   xmlns:cc="http://creativecommons.org/ns#"
   xmlns:rdf="http://www.w3.org/1999/02/22-rdf-syntax-ns#"
   xmlns:svg="http://www.w3.org/2000/svg"
   xmlns="http://www.w3.org/2000/svg"
   version="1.1"
   width="32"
   height="32"
   id="svg3105">
  <defs
     id="defs3107" />
  <metadata
     id="metadata3110">
    <rdf:RDF>
      <cc:Work
         rdf:about="">
        <dc:format>image/svg+xml</dc:format>
        <dc:type
           rdf:resource="http://purl.org/dc/dcmitype/StillImage" />
        <dc:title></dc:title>
      </cc:Work>
    </rdf:RDF>
  </metadata>
  <g
     id="layer1">
    <path
       d="M 14.929238,9.5215169e-6 C 12.966297,-0.00199048 12.237027,2.6454495 12.237027,2.6454495 c -1.18436,1.60773 -3.1299602,0.93023 -3.1299602,0.93023 -3.21546,-0.93055 -2.19873,2.19973 -2.19873,2.19973 l 4.3974602,3.55379 10e-4,0 10.322111,0 c 5.49994,-3.97722 3.72292,-6.26092 3.72292,-6.26092 -2.7075,-1.94574 -4.65316,1.59583 -4.65316,1.59583 -1.86191,0.75106 -3.13095,-3.37272 -3.13095,-3.37272 C 16.511168,0.34739952 15.639228,5.4952152e-4 14.929238,9.5215169e-6 z M 9.9656668,10.26939 l 0,1.9709 12.7277812,0 0,-1.9709 -12.7277812,0 z m 1.0476302,2.95187 c 0,0 -6.3466302,5.9213 -7.3602802,9.1372 0,0 -1.18538,7.1916 7.8676802,9.2227 0,0 6.091951,1.4383 11.676171,-1.0158 -3.8e-4,0 7.36183,-1.6929 4.56859,-9.3063 0,0 -0.51004,-3.0069 -6.68375,-8.0378 l -10.068411,0 z m 4.722801,1.74207 1.00386,0 0,1.54608 c 0.93973,0.0316 1.59152,0.28522 2.06939,0.55615 l -0.39796,1.0516 c -0.33495,-0.1917 -0.98683,-0.5571 -2.00771,-0.5571 -1.22476,0 -1.68636,0.7327 -1.68636,1.3859 0,0.8116 0.58793,1.2252 1.97389,1.8147 1.63972,0.6703 2.46934,1.4817 2.46934,2.8981 0,1.2751 -0.87638,2.4523 -2.5161,2.7091 l 0,1.6546 -1.00386,0 0,-1.5919 c -0.92333,-0.016 -1.8631,-0.3036 -2.420601,-0.7014 l 0.383041,-1.0665 c 0.55711,0.3662 1.38442,0.6855 2.27534,0.6855 1.13139,0 1.89629,-0.6551 1.89629,-1.562 0,-0.875 -0.62112,-1.4184 -1.79978,-1.8943 -1.62489,-0.6364 -2.628531,-1.3859 -2.628531,-2.7718 0,-1.3216 0.940571,-2.32499 2.389751,-2.56389 l 0,-1.59284 z"
       id="path257" />
  </g>
</svg>
