<?xml version="1.0" encoding="UTF-8" standalone="no"?>
<!-- Created with Inkscape (http://www.inkscape.org/) -->

<svg
   xmlns:dc="http://purl.org/dc/elements/1.1/"
   xmlns:cc="http://creativecommons.org/ns#"
   xmlns:rdf="http://www.w3.org/1999/02/22-rdf-syntax-ns#"
   xmlns:svg="http://www.w3.org/2000/svg"
   xmlns="http://www.w3.org/2000/svg"
   version="1.1"
   width="32"
   height="32"
   id="svg3251">
  <defs
     id="defs3253" />
  <metadata
     id="metadata3256">
    <rdf:RDF>
      <cc:Work
         rdf:about="">
        <dc:format>image/svg+xml</dc:format>
        <dc:type
           rdf:resource="http://purl.org/dc/dcmitype/StillImage" />
        <dc:title></dc:title>
      </cc:Work>
    </rdf:RDF>
  </metadata>
  <g
     id="layer1">
    <path
       d="M 32,8 C 32,6.594 31.043,5.392 29.674,5.076 L 16.661,2.073 C 16.443,2.024 16.221,2 16,2 15.779,2 15.557,2.024 15.325,2.076 l -12.999,3 C 0.956,5.392 0,6.594 0,8 0,9.406 0.957,10.608 2.325,10.924 L 5,11.541 V 20 c 0,2.654 3.038,5 11,5 7.962,0 11,-2.346 11,-5 v -8.459 l 2.674,-0.617 C 31.043,10.608 32,9.406 32,8 z m -7,12 c 0,1.105 -3,3 -9,3 -6,0 -9,-1.895 -9,-3 v -7.997 l 8.338,1.924 C 15.556,13.976 15.779,14 16,14 c 0.221,0 0.444,-0.024 0.674,-0.076 L 25,12.003 V 20 z M 16.225,11.975 C 16.15,11.991 16.075,12 16,12 15.925,12 15.849,11.991 15.775,11.975 l -13,-3 C 2.321,8.87 2,8.466 2,8 2,7.534 2.321,7.13 2.775,7.025 l 13,-3 C 15.849,4.009 15.924,4 16,4 c 0.076,0 0.151,0.009 0.225,0.025 l 13,3 C 29.678,7.13 30,7.534 30,8 30,8.466 29.678,8.87 29.225,8.975 l -13,3 z M 29,13 c 0,-0.553 0.447,-1 1,-1 0.552,0 1,0.447 1,1 v 9 c 0,0.553 -0.448,1 -1,1 -0.553,0 -1,-0.447 -1,-1 v -9 z m 1,11 c 1.104,0 2,2.896 2,4 0,1.104 -0.896,2 -2,2 -1.105,0 -2,-0.896 -2,-2 0,-1.104 0.895,-4 2,-4 z"
       id="path257" />
  </g>
</svg>
