<?xml version="1.0" encoding="UTF-8" standalone="no"?>
<!-- Created with Inkscape (http://www.inkscape.org/) -->

<svg
   xmlns:dc="http://purl.org/dc/elements/1.1/"
   xmlns:cc="http://creativecommons.org/ns#"
   xmlns:rdf="http://www.w3.org/1999/02/22-rdf-syntax-ns#"
   xmlns:svg="http://www.w3.org/2000/svg"
   xmlns="http://www.w3.org/2000/svg"
   version="1.1"
   width="32"
   height="32"
   id="svg3105">
  <defs
     id="defs3107" />
  <metadata
     id="metadata3110">
    <rdf:RDF>
      <cc:Work
         rdf:about="">
        <dc:format>image/svg+xml</dc:format>
        <dc:type
           rdf:resource="http://purl.org/dc/dcmitype/StillImage" />
        <dc:title></dc:title>
      </cc:Work>
    </rdf:RDF>
  </metadata>
  <g
     id="layer1">
    <path
       d="m 15.998855,13.17526 c -5.19757,0 -9.41237,4.2148 -9.41237,9.41237 0,5.19757 4.2148,9.41237 9.41237,9.41237 5.19871,0 9.41237,-4.2148 9.41237,-9.41237 0,-5.19757 -4.21366,-9.41237 -9.41237,-9.41237 z m 0,17.44955 c -4.39786,0 -7.96396,-3.5661 -7.96396,-7.96625 0,-4.39785 3.5661,-7.96281 7.96396,-7.96281 4.40014,0 7.96396,3.56496 7.96396,7.96281 0,4.40015 -3.56382,7.96625 -7.96396,7.96625 z M 20.731925,5.64605 23.962815,0 H 8.034895 l 3.28008,5.64605 h 9.41695 z m 1.68981,9.61144 5.76847,-9.4936 -3.86815,-5.59914 -7.26492,12.77368 c 3.18741,0.26658 5.3646,2.31906 5.3646,2.31906 z m -7.50518,-2.38999 -7.23976,-12.70275 -3.867,5.59914 5.59914,9.66064 c -10e-4,0 2.03189,-2.09596 5.50762,-2.55703 z m -0.21166,7.62188 c -0.43818,0.34208 -0.84204,0.57204 -1.21501,0.69446 v 1.29396 c 0.70818,-0.23225 1.3237,-0.59264 1.8454,-1.08116 v 5.38977 h 1.43011 v -7.4926 h -1.1601 c -0.16246,0.45306 -0.46221,0.85349 -0.9004,1.19557 z"
       id="path257" />
  </g>
</svg>
