<?xml version="1.0" encoding="UTF-8" standalone="no"?>
<!-- Created with Inkscape (http://www.inkscape.org/) -->

<svg
   xmlns:dc="http://purl.org/dc/elements/1.1/"
   xmlns:cc="http://creativecommons.org/ns#"
   xmlns:rdf="http://www.w3.org/1999/02/22-rdf-syntax-ns#"
   xmlns:svg="http://www.w3.org/2000/svg"
   xmlns="http://www.w3.org/2000/svg"
   version="1.1"
   width="32"
   height="32"
   id="svg3240">
  <defs
     id="defs3242" />
  <metadata
     id="metadata3245">
    <rdf:RDF>
      <cc:Work
         rdf:about="">
        <dc:format>image/svg+xml</dc:format>
        <dc:type
           rdf:resource="http://purl.org/dc/dcmitype/StillImage" />
        <dc:title></dc:title>
      </cc:Work>
    </rdf:RDF>
  </metadata>
  <g
     id="layer1">
    <path
       d="M 16,32 C 24.836562,32 32,24.8366 32,16 32,7.16344 24.836562,0 16,0 7.1634375,0 0,7.16344 0,16 0,24.8366 7.1634375,32 16,32 z M 16,3 C 23.179687,3 29,8.8203 29,16 29,23.1797 23.179687,29 16,29 8.8203125,29 3,23.1797 3,16 3,8.8203 8.8203125,3 16,3 z m 0,15.7112 c 3.623438,0 7.069687,-0.9626 10,-2.6537 C 25.544563,21.6337 21.21475,26 16,26 10.785375,26 6.4555625,21.629 6,16.053 c 2.9303125,1.691 6.376563,2.6582 10,2.6582 z M 8,11 c 0,-1.6568 0.8954375,-3 2,-3 1.104563,0 2,1.3432 2,3 0,1.6568 -0.895437,3 -2,3 -1.1045625,0 -2,-1.3432 -2,-3 z m 12,0 c 0,-1.6568 0.895437,-3 2,-3 1.104562,0 2,1.3432 2,3 0,1.6568 -0.895438,3 -2,3 -1.104563,0 -2,-1.3432 -2,-3 z"
       id="path257" />
  </g>
</svg>
