<?xml version="1.0" encoding="UTF-8" standalone="no"?>
<!-- Created with Inkscape (http://www.inkscape.org/) -->

<svg
   xmlns:dc="http://purl.org/dc/elements/1.1/"
   xmlns:cc="http://creativecommons.org/ns#"
   xmlns:rdf="http://www.w3.org/1999/02/22-rdf-syntax-ns#"
   xmlns:svg="http://www.w3.org/2000/svg"
   xmlns="http://www.w3.org/2000/svg"
   version="1.1"
   width="32"
   height="32"
   id="svg3240">
  <defs
     id="defs3242" />
  <metadata
     id="metadata3245">
    <rdf:RDF>
      <cc:Work
         rdf:about="">
        <dc:format>image/svg+xml</dc:format>
        <dc:type
           rdf:resource="http://purl.org/dc/dcmitype/StillImage" />
        <dc:title></dc:title>
      </cc:Work>
    </rdf:RDF>
  </metadata>
  <g
     id="layer1">
    <path
       d="M 16,32 C 24.836562,32 32,24.8366 32,16 32,7.16344 24.836562,0 16,0 7.1634372,0 -2e-7,7.16344 -2e-7,16 -2e-7,24.8366 7.1634372,32 16,32 z M 16,3 C 23.179687,3 29,8.8203 29,16 29,23.1797 23.179687,29 16,29 8.8203122,29 3.0000002,23.1797 3.0000002,16 3.0000002,8.8203 8.8203122,3 16,3 z m -7.9999998,7 c 0,-1.1046 0.895437,-2 1.9999998,-2 1.104563,0 2,0.8954 2,2 0,1.1046 -0.895437,2 -2,2 C 8.8954372,12 8.0000002,11.1046 8.0000002,10 z M 20,10 c 0,-1.1046 0.895437,-2 2,-2 1.104562,0 2,0.8954 2,2 0,1.1046 -0.895438,2 -2,2 -1.104563,0 -2,-0.8954 -2,-2 z m 2.003062,9.6019 2.57275,1.5436 C 22.827,24.0539 19.640937,26 16,26 12.359062,26 9.1730002,24.0539 7.4241872,21.1455 l 2.57275,-1.5436 C 11.221125,21.6377 13.451375,23 16,23 c 2.548625,0 4.778875,-1.3623 6.003062,-3.3981 z"
       id="path257" />
  </g>
</svg>
