<?xml version="1.0" encoding="UTF-8" standalone="no"?>
<!-- Created with Inkscape (http://www.inkscape.org/) -->

<svg
   xmlns:dc="http://purl.org/dc/elements/1.1/"
   xmlns:cc="http://creativecommons.org/ns#"
   xmlns:rdf="http://www.w3.org/1999/02/22-rdf-syntax-ns#"
   xmlns:svg="http://www.w3.org/2000/svg"
   xmlns="http://www.w3.org/2000/svg"
   version="1.1"
   width="32"
   height="32"
   id="svg3240">
  <defs
     id="defs3242" />
  <metadata
     id="metadata3245">
    <rdf:RDF>
      <cc:Work
         rdf:about="">
        <dc:format>image/svg+xml</dc:format>
        <dc:type
           rdf:resource="http://purl.org/dc/dcmitype/StillImage" />
        <dc:title></dc:title>
      </cc:Work>
    </rdf:RDF>
  </metadata>
  <g
     id="layer1">
    <path
       d="M 16,32 C 24.836562,32 32,24.8366 32,16 32,7.16344 24.836562,0 16,0 7.163437,0 0,7.16344 0,16 0,24.8366 7.163437,32 16,32 z M 16,3 C 23.179687,3 29,8.8203 29,16 29,23.1797 23.179687,29 16,29 8.820312,29 3,23.1797 3,16 3,8.8203 8.820312,3 16,3 z m -8,7 c 0,-1.1046 0.895437,-2 2,-2 1.104563,0 2,0.8954 2,2 0,1.1046 -0.895437,2 -2,2 -1.104563,0 -2,-0.8954 -2,-2 z m 12,0 c 0,-1.1046 0.895437,-2 2,-2 1.104562,0 2,0.8954 2,2 0,1.1046 -0.895438,2 -2,2 -1.104563,0 -2,-0.8954 -2,-2 z M 9.996937,24.3981 7.424187,22.8545 C 9.173,19.9461 12.359063,18 16,18 c 3.640875,0 6.826937,1.9461 8.575812,4.8545 l -2.57275,1.5436 C 20.778875,22.3623 18.548625,21 16,21 c -2.548688,0 -4.778875,1.3623 -6.003063,3.3981 z"
       id="path257" />
  </g>
</svg>
