<?xml version="1.0" encoding="UTF-8" standalone="no"?>
<!-- Created with Inkscape (http://www.inkscape.org/) -->

<svg
   xmlns:dc="http://purl.org/dc/elements/1.1/"
   xmlns:cc="http://creativecommons.org/ns#"
   xmlns:rdf="http://www.w3.org/1999/02/22-rdf-syntax-ns#"
   xmlns:svg="http://www.w3.org/2000/svg"
   xmlns="http://www.w3.org/2000/svg"
   version="1.1"
   width="32"
   height="32"
   id="svg3240">
  <defs
     id="defs3242" />
  <metadata
     id="metadata3245">
    <rdf:RDF>
      <cc:Work
         rdf:about="">
        <dc:format>image/svg+xml</dc:format>
        <dc:type
           rdf:resource="http://purl.org/dc/dcmitype/StillImage" />
        <dc:title></dc:title>
      </cc:Work>
    </rdf:RDF>
  </metadata>
  <g
     id="layer1">
    <path
       d="M 16,32 C 24.836562,32 32,24.8366 32,16 32,7.16344 24.836562,0 16,0 7.163438,0 0,7.16344 0,16 0,24.8366 7.163438,32 16,32 z M 16,3 C 23.179687,3 29,8.8203 29,16 29,23.1797 23.179687,29 16,29 8.820313,29 3,23.1797 3,16 3,8.8203 8.820313,3 16,3 z m 9,5 c 0.55,0 1,0.45 1,1 v 3 c 0,1.1 -0.9,2 -2,2 h -4 c -1.1,0 -2,-0.9 -2,-2 h -4 c 0,1.1 -0.9,2 -2,2 H 8 C 6.9,14 6,13.1 6,12 V 9 C 6,8.45 6.45,8 7,8 h 6 c 0.55,0 1,0.45 1,1 v 1 h 4 V 9 c 0,-0.55 0.45,-1 1,-1 h 6 z m -9,16 c 2.91275,0 5.461625,-1.5568 6.860813,-3.8837 l 1.715,1.0292 C 22.826875,24.0539 19.640937,26 16,26 14.485688,26 13.0505,25.6626 11.764375,25.0599 l 1.036313,-1.7274 C 13.7805,23.7611 14.862063,24 16,24 z"
       id="path257" />
  </g>
</svg>
