<?xml version="1.0" encoding="UTF-8" standalone="no"?>
<!-- Created with Inkscape (http://www.inkscape.org/) -->

<svg
   xmlns:dc="http://purl.org/dc/elements/1.1/"
   xmlns:cc="http://creativecommons.org/ns#"
   xmlns:rdf="http://www.w3.org/1999/02/22-rdf-syntax-ns#"
   xmlns:svg="http://www.w3.org/2000/svg"
   xmlns="http://www.w3.org/2000/svg"
   version="1.1"
   width="32"
   height="32"
   id="svg3240">
  <defs
     id="defs3242" />
  <metadata
     id="metadata3245">
    <rdf:RDF>
      <cc:Work
         rdf:about="">
        <dc:format>image/svg+xml</dc:format>
        <dc:type
           rdf:resource="http://purl.org/dc/dcmitype/StillImage" />
        <dc:title></dc:title>
      </cc:Work>
    </rdf:RDF>
  </metadata>
  <g
     id="layer1">
    <path
       d="M 16,32 C 24.836562,32 32,24.8366 32,16 32,7.16344 24.836562,0 16,0 7.163438,0 0,7.16344 0,16 0,24.8366 7.163438,32 16,32 z M 16,3 C 23.179687,3 29,8.8203 29,16 29,23.1797 23.179687,29 16,29 8.820313,29 3,23.1797 3,16 3,8.8203 8.820313,3 16,3 z m 6.003062,21.3981 C 20.778875,22.3623 18.548562,21 16,21 13.451375,21 11.221125,22.3623 9.996938,24.3981 L 7.424188,22.8545 C 9.172938,19.9461 12.359062,18 16,18 c 3.640875,0 6.827,1.9461 8.575812,4.8545 l -2.57275,1.5436 z m 1.967,-15.6406 c 0.133875,0.5357 -0.191874,1.0787 -0.727562,1.2126 -0.550813,0.1391 -1.203813,0.3788 -1.77925,0.6672 0.33275,0.3572 0.536687,0.836 0.536687,1.3627 0,1.1046 -0.895437,2 -2,2 -1.104562,0 -2,-0.8954 -2,-2 0,-0.037 0.0011,-0.073 0.0031,-0.1089 0.0635,-1.4829 1.412875,-2.467 2.54975,-3.0355 1.085687,-0.5428 2.159437,-0.8144 2.204625,-0.8257 0.535812,-0.13402 1.078687,0.1918 1.212687,0.7276 z m -15.940124,0 c 0.134,-0.5358 0.676875,-0.86162 1.212687,-0.7276 0.04519,0.011 1.118938,0.2829 2.204625,0.8257 1.136875,0.5685 2.48625,1.5526 2.54975,3.0355 0.0019,0.036 0.0031,0.072 0.0031,0.1089 0,1.1046 -0.895438,2 -2,2 -1.104563,0 -2,-0.8954 -2,-2 0,-0.5267 0.203937,-1.0055 0.536687,-1.3627 C 9.96135,10.3489 9.30835,10.1092 8.757537,9.9701 8.22185,9.8362 7.8961,9.2932 8.029975,8.7575 z"
       id="path257" />
  </g>
</svg>
