<?xml version="1.0" encoding="UTF-8" standalone="no"?>
<!-- Created with Inkscape (http://www.inkscape.org/) -->

<svg
   xmlns:dc="http://purl.org/dc/elements/1.1/"
   xmlns:cc="http://creativecommons.org/ns#"
   xmlns:rdf="http://www.w3.org/1999/02/22-rdf-syntax-ns#"
   xmlns:svg="http://www.w3.org/2000/svg"
   xmlns="http://www.w3.org/2000/svg"
   version="1.1"
   width="32"
   height="32"
   id="svg3240">
  <defs
     id="defs3242" />
  <metadata
     id="metadata3245">
    <rdf:RDF>
      <cc:Work
         rdf:about="">
        <dc:format>image/svg+xml</dc:format>
        <dc:type
           rdf:resource="http://purl.org/dc/dcmitype/StillImage" />
        <dc:title></dc:title>
      </cc:Work>
    </rdf:RDF>
  </metadata>
  <g
     id="layer1">
    <path
       d="m 19.764514,15.058832 c -1.039565,0 -1.88237,-0.842805 -1.882306,-1.882401 0,-0.03445 0.001,-0.06852 0.0029,-0.102494 0.05976,-1.395681 1.329752,-2.321949 2.399758,-2.856971 1.021804,-0.51089 2.032414,-0.766495 2.074923,-0.777102 0.504286,-0.126108 1.015237,0.180518 1.14134,0.684801 0.125975,0.504292 -0.180582,1.015238 -0.684804,1.141346 -0.518391,0.13089 -1.132993,0.356471 -1.674581,0.627963 0.31319,0.336188 0.505095,0.786805 0.505095,1.282514 0,1.039567 -0.842806,1.882373 -1.88237,1.882373 z M 9.1835008,11.266011 C 8.6792793,11.139969 8.37269,10.628957 8.4987616,10.124731 8.6248003,9.620448 9.1358151,9.313822 9.6401016,9.43993 c 0.042475,0.01064 1.0531194,0.266184 2.0749224,0.777102 1.070071,0.535021 2.340006,1.46129 2.399758,2.856971 0.0018,0.03398 0.0029,0.06814 0.0029,0.102485 0,1.039567 -0.842805,1.882373 -1.88237,1.882373 -1.039564,0 -1.88237,-0.842806 -1.88237,-1.882373 0,-0.495709 0.191938,-0.946354 0.505095,-1.282514 -0.541601,-0.271492 -1.1562356,-0.497045 -1.6745625,-0.627963 z m 6.8164332,12.263424 c 2.398627,0 4.497748,-1.282137 5.649959,-3.198251 l 2.421433,1.452819 c -1.64595,2.737376 -4.644589,4.568935 -8.071359,4.568935 -3.426771,0 -6.4254081,-1.831597 -8.0713582,-4.568935 L 10.350043,20.331184 C 11.502221,22.247298 13.601276,23.529435 16,23.529435 z M 31.058767,3.7647081 C 31.058767,2.4259967 30.778641,1.152923 30.274905,0 c -0.987544,2.2599072 -2.83669,4.0568306 -5.132182,4.9757959 -2.535114,-1.94002 -5.703984,-3.0934607 -9.142756,-3.0934607 -3.438772,0 -6.6076406,1.1534689 -9.1427555,3.0934607 C 4.5616873,4.0567742 2.7125737,2.2598696 1.7250305,0 1.2212618,1.152923 0.9411675,2.4259967 0.9411675,3.7647081 c 0,2.1639542 0.730872,4.1566989 1.9584595,5.7463939 C 1.65347,11.703527 0.9411675,14.239086 0.9411675,16.941168 0.9411675,25.257944 7.683227,32 16,32 c 8.316772,0 15.058832,-6.742056 15.058832,-15.058832 0,-2.702138 -0.712302,-5.237641 -1.958459,-7.430066 1.227588,-1.5897232 1.958459,-3.5825056 1.958459,-5.7463939 z M 15.999934,29.176469 c -6.7573602,0 -12.2353079,-5.477942 -12.2353079,-12.235273 0,-6.757322 5.4779797,-12.2353015 12.2353079,-12.2353015 6.75733,0 12.23531,5.4779795 12.23531,12.2353015 0,6.757331 -5.477979,12.235273 -12.235309,12.235273 z"
       id="path257" />
  </g>
</svg>
