<?xml version="1.0" encoding="UTF-8" standalone="no"?>
<!-- Created with Inkscape (http://www.inkscape.org/) -->

<svg
   xmlns:dc="http://purl.org/dc/elements/1.1/"
   xmlns:cc="http://creativecommons.org/ns#"
   xmlns:rdf="http://www.w3.org/1999/02/22-rdf-syntax-ns#"
   xmlns:svg="http://www.w3.org/2000/svg"
   xmlns="http://www.w3.org/2000/svg"
   version="1.1"
   width="32"
   height="32"
   id="svg3240">
  <defs
     id="defs3242" />
  <metadata
     id="metadata3245">
    <rdf:RDF>
      <cc:Work
         rdf:about="">
        <dc:format>image/svg+xml</dc:format>
        <dc:type
           rdf:resource="http://purl.org/dc/dcmitype/StillImage" />
        <dc:title></dc:title>
      </cc:Work>
    </rdf:RDF>
  </metadata>
  <g
     id="layer1">
    <path
       d="M 16,32 C 24.836562,32 32,24.8366 32,16 32,7.16344 24.836562,0 16,0 7.163437,0 0,7.16344 0,16 0,24.8366 7.163437,32 16,32 z M 16,3 C 23.179687,3 29,8.8203 29,16 29,23.1797 23.179687,29 16,29 8.820312,29 3,23.1797 3,16 3,8.8203 8.820312,3 16,3 z m -8,7 c 0,-1.1046 0.895437,-2 2,-2 1.104563,0 2,0.8954 2,2 0,1.1046 -0.895437,2 -2,2 -1.104563,0 -2,-0.8954 -2,-2 z m 12,0 c 0,-1.1046 0.895437,-2 2,-2 1.104562,0 2,0.8954 2,2 0,1.1046 -0.895438,2 -2,2 -1.104563,0 -2,-0.8954 -2,-2 z m 2.690812,10 h 2.027 c 0.288938,2.2658 -1.014125,4.5166 -3.248687,5.33 -2.59075,0.943 -5.465625,-0.3974 -6.40875,-2.988 C 14.4945,20.7875 12.769563,19.9832 11.215125,20.5491 9.791312,21.0675 8.99775,22.5584 9.30925,23.9999 H 7.282375 c -0.288813,-2.2659 1.014062,-4.5165 3.248625,-5.33 2.59075,-0.9431 5.465688,0.3973 6.408813,2.9879 0.56575,1.5546 2.290812,2.3588 3.845125,1.7929 C 22.20875,22.9324 23.002313,21.4414 22.690812,20 z"
       id="path257" />
  </g>
</svg>
