<?xml version="1.0" encoding="UTF-8" standalone="no"?>
<!-- Created with Inkscape (http://www.inkscape.org/) -->

<svg
   xmlns:dc="http://purl.org/dc/elements/1.1/"
   xmlns:cc="http://creativecommons.org/ns#"
   xmlns:rdf="http://www.w3.org/1999/02/22-rdf-syntax-ns#"
   xmlns:svg="http://www.w3.org/2000/svg"
   xmlns="http://www.w3.org/2000/svg"
   xmlns:sodipodi="http://sodipodi.sourceforge.net/DTD/sodipodi-0.dtd"
   xmlns:inkscape="http://www.inkscape.org/namespaces/inkscape"
   width="32px"
   height="32px"
   id="svg2985"
   version="1.1"
   inkscape:version="0.48.4 r9939"
   sodipodi:docname="2119.svg">
  <defs
     id="defs2987" />
  <sodipodi:namedview
     id="base"
     pagecolor="#ffffff"
     bordercolor="#666666"
     borderopacity="1.0"
     inkscape:pageopacity="0.0"
     inkscape:pageshadow="2"
     inkscape:zoom="11.197802"
     inkscape:cx="5.6854758"
     inkscape:cy="16"
     inkscape:current-layer="layer1"
     showgrid="true"
     inkscape:grid-bbox="true"
     inkscape:document-units="px"
     inkscape:window-width="1600"
     inkscape:window-height="848"
     inkscape:window-x="0"
     inkscape:window-y="0"
     inkscape:window-maximized="1" />
  <metadata
     id="metadata2990">
    <rdf:RDF>
      <cc:Work
         rdf:about="">
        <dc:format>image/svg+xml</dc:format>
        <dc:type
           rdf:resource="http://purl.org/dc/dcmitype/StillImage" />
        <dc:title></dc:title>
      </cc:Work>
    </rdf:RDF>
  </metadata>
  <g
     id="layer1"
     inkscape:label="Layer 1"
     inkscape:groupmode="layer">
    <path
       d="m 19.354873,14.474225 c -0.691187,-0.97503 -0.935031,-1.21887 -1.910094,-1.86943 -0.08191,-0.0806 -0.204468,-0.0406 -0.204468,0.0806 0,0.32641 0.04097,0.65057 0.04097,0.97697 0,0.97503 -0.08159,1.42303 -0.447687,2.31616 l -0.975031,1.66815 c -0.04191,0.0813 0.08159,0.24513 0.202875,0.16319 l 2.683531,-1.70753 0.609594,-1.34241 c 0.04159,-0.12256 0.04159,-0.20384 3.12e-4,-0.28575 z m 4.553594,-6.34178 c 0.122562,0 0.204156,0.0406 0.204156,0.16319 l 1.097594,3.78113 -0.406094,0.24384 -2.521594,-3.98559 c -0.08159,-0.0813 -0.04062,-0.28447 0.121282,-0.28447 l 1.504625,0.0819 z m -1.220156,8.94497 c 0,0 1.58625,4.14753 1.58625,4.18816 0.04191,0.16191 0.163187,0.28447 0.284468,0.36641 l 4.432,3.57824 c 0.122563,0.12257 0.204157,0.28447 0.245125,0.44672 v 0.28447 c 0,0.65056 -0.245125,1.26047 -0.732468,1.70753 -0.03969,0 -0.08159,0.0813 -0.08159,0.16319 0,0.0819 0.08159,0.20319 0.204156,0.20319 h 0.609906 c 0.487375,0 0.975032,-0.28513 1.219844,-0.73119 l 1.504625,-2.56256 c 0.03937,-0.03969 0.03937,-0.0816 0.03937,-0.16225 0,-0.12256 -0.08063,-0.24384 -0.203187,-0.32575 l -0.893438,-0.40575 -3.090562,-3.57825 c -0.12225,-0.12256 -0.284469,-0.20447 -0.447688,-0.20447 -0.121281,0 -0.202875,0.0406 -0.284469,0.0819 -0.203187,-0.24385 -0.325437,-0.44672 -0.366406,-0.73119 l -1.504312,-6.18113 0.447687,-0.28446 h 0.03969 c 0.163187,0.12128 0.366406,0.20256 0.610875,0.20256 0.121281,0 0.243843,0 0.324468,-0.0813 0.284469,-0.16257 0.406719,-0.28513 0.610875,-0.56928 0.03969,-0.04 0.03969,-0.16191 0.03969,-0.24385 v -0.0406 c 0,-0.24385 -0.16225,-0.48738 -0.406094,-0.60863 -0.244812,-0.16384 -0.406719,-0.40737 -0.406719,-0.73247 -0.04097,-1.09887 -0.284812,-2.27681 -0.691531,-3.29375 -0.203187,-0.44737 -0.487375,-0.77184 -0.935375,-1.01697 -1.219844,-0.56928 -2.520312,-0.85375 -3.862406,-0.85375 h -0.569281 c -0.406094,0 -0.690563,0.12128 -1.015688,0.32575 l -1.504625,1.01569 c -0.04097,0.0419 -0.08159,0.0419 -0.16225,0.0419 -0.163187,0 -0.284469,-0.12257 -0.284469,-0.28447 v -0.20447 c 0,-0.97631 -0.529281,-1.86944 -1.383375,-2.31744 -0.325437,-0.20256 -0.569281,-0.28447 -0.935375,-0.28447 -0.325437,0 -0.487687,0.04 -0.772156,0.20319 -0.447687,0.16319 -0.773125,0.48738 -1.057594,0.85375 -0.202875,0.28447 -0.284812,0.61056 -0.284812,0.97631 0,0.93503 0.773437,1.82944 1.666562,2.15488 l 0.977282,0.1619 c 0.202875,0 0.324156,0.12257 0.324156,0.32575 0,0.0819 -0.03969,0.16191 -0.121281,0.24385 l -1.016969,1.01697 c -0.08159,0.12128 -0.121281,0.16319 -0.121281,0.32575 v 0.28447 c 0,1.13825 0.16225,2.35809 0.487375,3.45568 0,0.16319 0.03969,0.28513 0.03969,0.40672 0,0.20447 -0.03969,0.36641 -0.121281,0.56928 l -1.383375,3.41632 c -0.08031,0.12128 -0.121281,0.28446 -0.121281,0.40575 0,0.16318 0.04063,0.3264 0.121281,0.448 l -1.707188,1.09696 c -0.08159,-0.28446 -0.202875,-0.4464 -0.446718,-0.60928 l -0.243844,-0.1219 -1.057906,-0.32641 c -0.243844,-0.0806 -0.446719,-0.24256 -0.568969,-0.44672 l -0.773438,-1.29984 c -0.03969,0 -0.03969,-0.0419 -0.08031,-0.0819 l -0.609914,-0.20318 -1.219843,-0.16318 h -0.08159 c -0.40575,0 -0.772156,0.20318 -0.975031,0.56928 L 3e-6,28.015075 h 13.824969 c 0.12225,0 0.244812,-0.12128 0.244812,-0.24256 0,0 0,-0.0426 -1.789125,-6.42497 l 1.910407,-1.21985 c 0.122562,0.0806 0.202875,0.0806 0.325437,0.0806 0.12225,0 0.204156,0 0.284469,-0.04 l 0.854719,-0.40672 c 0.202875,-0.12256 0.324156,-0.28447 0.324156,-0.528 0,-0.0819 0,-0.12191 -0.03969,-0.20319 l 2.276469,-1.38303 -0.325437,0.81375 c -0.28575,0.73119 -0.446719,1.50431 -0.488313,2.27681 l -0.285125,5.44863 -0.03937,0.528 c -0.04191,0.0406 -0.04191,0.0806 -0.08191,0.0806 l -1.749125,0.48863 c -0.16225,0.0406 -0.284469,0.20256 -0.284469,0.36512 0,0.20385 0.204156,0.36641 0.366406,0.36641 h 4.025594 c 0.244156,0 0.406406,-0.20319 0.448,-0.40641 0.242563,-1.952 0.487375,-3.90303 0.771844,-5.89631 0,-0.04 0,-0.0806 -0.04063,-0.12128 l -0.08191,-0.0413 c -0.08031,0 -0.161907,-0.08 -0.161907,-0.20256 v -0.52863 c 0,-0.12256 0.03969,-0.20384 0.08159,-0.28447 1.300156,-1.50431 1.341125,-1.62687 2.113281,-3.41631 0,-0.0406 0.04191,-0.0813 0.08159,-0.0813 0.08191,0 0.121594,0.0406 0.121594,0.0406 z"
       id="path257"
       inkscape:connector-curvature="0" />
  </g>
</svg>
