<?xml version="1.0" encoding="UTF-8" standalone="no"?>
<!-- Created with Inkscape (http://www.inkscape.org/) -->

<svg
   xmlns:dc="http://purl.org/dc/elements/1.1/"
   xmlns:cc="http://creativecommons.org/ns#"
   xmlns:rdf="http://www.w3.org/1999/02/22-rdf-syntax-ns#"
   xmlns:svg="http://www.w3.org/2000/svg"
   xmlns="http://www.w3.org/2000/svg"
   version="1.1"
   width="32"
   height="32"
   id="svg3251">
  <defs
     id="defs3253" />
  <metadata
     id="metadata3256">
    <rdf:RDF>
      <cc:Work
         rdf:about="">
        <dc:format>image/svg+xml</dc:format>
        <dc:type
           rdf:resource="http://purl.org/dc/dcmitype/StillImage" />
        <dc:title></dc:title>
      </cc:Work>
    </rdf:RDF>
  </metadata>
  <g
     id="layer1">
    <g
       transform="matrix(0.32466709,0,0,0.32466709,0.45656307,0.02029166)"
       id="g186">
      <g
         id="g188" />
    </g>
    <path
       d="M 5.28125,0 C 4.5640604,0 4,0.59531043 4,1.3125 l 0,29.375 C 4,31.404689 4.5640604,32 5.28125,32 c 0.7171896,0 1.3125,-0.595311 1.3125,-1.3125 l 0,-29.375 C 6.59375,0.59531043 5.9984396,0 5.28125,0 z m 18.1875,1 C 18.208955,1.0631926 13.368112,4.4907021 7.8125,1.9375 l 0,15.8125 c 7.110859,3.26745 13.059434,-3.275566 20.1875,0 L 28,1.9375 C 26.440736,1.2208988 24.941492,0.98230607 23.46875,1 z"
       id="path3642" />
  </g>
</svg>
