<?xml version="1.0" encoding="UTF-8" standalone="no"?>
<!-- Created with Inkscape (http://www.inkscape.org/) -->

<svg
   xmlns:dc="http://purl.org/dc/elements/1.1/"
   xmlns:cc="http://creativecommons.org/ns#"
   xmlns:rdf="http://www.w3.org/1999/02/22-rdf-syntax-ns#"
   xmlns:svg="http://www.w3.org/2000/svg"
   xmlns="http://www.w3.org/2000/svg"
   version="1.1"
   width="32"
   height="32"
   id="svg3251">
  <defs
     id="defs3253" />
  <metadata
     id="metadata3256">
    <rdf:RDF>
      <cc:Work
         rdf:about="">
        <dc:format>image/svg+xml</dc:format>
        <dc:type
           rdf:resource="http://purl.org/dc/dcmitype/StillImage" />
        <dc:title></dc:title>
      </cc:Work>
    </rdf:RDF>
  </metadata>
  <g
     id="layer1">
    <path
       d="m 16.0135,22.0813 c -0.037,0 -0.074,0 -0.111,0 -8.7818,0 -15.8845,-2.1329 -15.8865,-3.7709 L 0,11.8776 c 0,-0.01 0,-0.019 0,-0.027 1.4459,0.686 3.1449,1.002 4.1608,1.191 3.1569,0.587 7.3268,0.911 11.7377,0.911 h 0.111 c 4.4388,0 8.6327,-0.337 11.8126,-0.934 1.017,-0.191 2.7099,-0.509 4.1569,-1.191 0,0 0,0.01 0,0.01 l 0.017,6.4328 c 0,1.645 -7.1528,3.7999 -15.9865,3.8119 z m 0,-10.0657 c -0.037,0 -0.074,0 -0.111,0 C 7.1207,12.0156 0.018,10.0697 0.016,8.4317 L 0,2.9979 C 0,1.354 7.1557,0.011 15.9895,0 c 0.039,0 0.076,0 0.115,0 8.7787,0 15.8765,1.32 15.8785,2.9579 L 32,8.3917 c 0,1.644 -7.1528,3.6119 -15.9865,3.6239 z m -0.112,12.0036 h 0.111 c 4.4388,-0.01 8.6337,-0.5239 11.8126,-1.1209 1.017,-0.191 2.7099,-0.509 4.1579,-1.192 l 0.016,7.2958 c 0,1.6449 -7.1528,2.9869 -15.9865,2.9979 -0.038,0 -0.074,0 -0.113,0 C 7.1197,32 0.017,30.68 0.015,29.0431 L 0,21.7283 c 1.4459,0.687 3.1459,1.003 4.1638,1.192 3.1569,0.588 7.3258,1.0989 11.7377,1.0989 z"
       id="path257" />
  </g>
</svg>
