<?xml version="1.0" encoding="UTF-8" standalone="no"?>
<!-- Created with Inkscape (http://www.inkscape.org/) -->

<svg
   xmlns:dc="http://purl.org/dc/elements/1.1/"
   xmlns:cc="http://creativecommons.org/ns#"
   xmlns:rdf="http://www.w3.org/1999/02/22-rdf-syntax-ns#"
   xmlns:svg="http://www.w3.org/2000/svg"
   xmlns="http://www.w3.org/2000/svg"
   version="1.1"
   width="32"
   height="32"
   id="svg3105">
  <defs
     id="defs3107" />
  <metadata
     id="metadata3110">
    <rdf:RDF>
      <cc:Work
         rdf:about="">
        <dc:format>image/svg+xml</dc:format>
        <dc:type
           rdf:resource="http://purl.org/dc/dcmitype/StillImage" />
        <dc:title></dc:title>
      </cc:Work>
    </rdf:RDF>
  </metadata>
  <g
     id="layer1">
    <path
       d="M 8.3333125,29.3333 C 8.3333125,30.8066 9.5266255,32 11,32 h 10 c 1.473312,0 2.666688,-1.1933 2.666688,-2.6667 v -0.78 c 0,-0.626 0.433312,-1.1533 1.019312,-1.2927 3.200625,-0.4939 5.647312,-3.2606 5.647312,-6.5939 0,-1.5 -0.493312,-2.8867 -1.333312,-4 v -4.56 C 29,5.42 23.18,0 16,0 8.8200005,0 3.0000005,5.42 3.0000005,12.1067 v 4.56 c -0.84,1.1133 -1.333313,2.5 -1.333313,4 0,3.3333 2.446688,6.1 5.646688,6.594 0.586687,0.1393 1.02,0.6667 1.02,1.2927 l -6.3e-5,0.7799 z M 7.0000005,16 c 0,-1.84 1.493312,-3.3333 3.3333115,-3.3333 1.840001,0 3.333313,1.4933 3.333313,3.3333 0,1.84 -1.493313,3.3333 -3.333313,3.3333 C 8.4933125,19.3333 7.0000005,17.84 7.0000005,16 z m 11.3333115,0 c 0,-1.84 1.493313,-3.3333 3.333313,-3.3333 1.84,0 3.333312,1.4933 3.333312,3.3333 0,1.84 -1.493312,3.3333 -3.333312,3.3333 -1.84,0 -3.333313,-1.4933 -3.333313,-3.3333 z m -5.620687,7.12 2.347312,-2.3467 c 0.520001,-0.52 1.36,-0.52 1.88,0 l 2.346688,2.3467 c 0.506687,0.5067 0.506687,1.3267 0,1.8333 -0.506687,0.5066 -1.326687,0.5067 -1.833312,0 L 16,23.5 14.546,24.9533 c -0.506,0.5067 -1.326,0.5067 -1.833312,0 -0.505375,-0.5066 -0.505375,-1.3273 -6.2e-5,-1.8333 z"
       id="path257" />
  </g>
</svg>
