<?xml version="1.0" encoding="UTF-8" standalone="no"?>
<!-- Created with Inkscape (http://www.inkscape.org/) -->

<svg
   xmlns:dc="http://purl.org/dc/elements/1.1/"
   xmlns:cc="http://creativecommons.org/ns#"
   xmlns:rdf="http://www.w3.org/1999/02/22-rdf-syntax-ns#"
   xmlns:svg="http://www.w3.org/2000/svg"
   xmlns="http://www.w3.org/2000/svg"
   xmlns:sodipodi="http://sodipodi.sourceforge.net/DTD/sodipodi-0.dtd"
   xmlns:inkscape="http://www.inkscape.org/namespaces/inkscape"
   width="32px"
   height="32px"
   id="svg2985"
   version="1.1"
   inkscape:version="0.48.4 r9939"
   sodipodi:docname="2132.svg">
  <defs
     id="defs2987" />
  <sodipodi:namedview
     id="base"
     pagecolor="#ffffff"
     bordercolor="#666666"
     borderopacity="1.0"
     inkscape:pageopacity="0.0"
     inkscape:pageshadow="2"
     inkscape:zoom="11.197802"
     inkscape:cx="5.6854758"
     inkscape:cy="16"
     inkscape:current-layer="layer1"
     showgrid="true"
     inkscape:grid-bbox="true"
     inkscape:document-units="px"
     inkscape:window-width="1600"
     inkscape:window-height="848"
     inkscape:window-x="0"
     inkscape:window-y="0"
     inkscape:window-maximized="1" />
  <metadata
     id="metadata2990">
    <rdf:RDF>
      <cc:Work
         rdf:about="">
        <dc:format>image/svg+xml</dc:format>
        <dc:type
           rdf:resource="http://purl.org/dc/dcmitype/StillImage" />
        <dc:title></dc:title>
      </cc:Work>
    </rdf:RDF>
  </metadata>
  <g
     id="layer1"
     inkscape:label="Layer 1"
     inkscape:groupmode="layer">
    <path
       d="m 22.870342,2.88319 c 0,1.59359 -1.29375,2.88737 -2.88353,2.88737 -1.59585,0 -2.89153,-1.29375 -2.89153,-2.88737 0,-1.59775 1.29568,-2.88319 2.89153,-2.88319 1.58975,0 2.88353,1.28544 2.88353,2.88319 z M 21.503312,19.104 v 12.3293 c 0,0.3104 -0.2541,0.5667 -0.56672,0.5667 -0.31263,0 -0.56672,-0.2563 -0.56672,-0.5667 V 19.104 c 0,-0.4893 -0.39809,-0.8893 -0.89184,-0.8893 -0.48738,0 -0.88738,0.4 -0.88738,0.8893 0,0.3107 -0.25631,0.5648 -0.56672,0.5648 -0.31262,0 -0.56672,-0.2541 -0.56672,-0.5648 0,-0.8314 0.50175,-1.5354 1.21441,-1.8477 -1.43519,-2.1334 -2.23328,-4.4854 -2.66241,-6.448 l -2.58687,7.3293 c -0.002,0 -0.0102,0.01 -0.0125,0.01 0.0937,0.3146 1.68738,5.9418 -0.20416,12.3169 -0.18975,0.6416 -0.77503,1.0518 -1.41056,1.0518 -0.13759,0 -0.27937,-0.019 -0.41887,-0.06 -0.77919,-0.2291 -1.22497,-1.0499 -0.9936,-1.8291 1.50432,-5.0733 0.43969,-9.7293 0.23138,-10.5376 -1.5981,-3.1145 -1.90816,-5.9897 -0.91872,-8.5501 1.57919,-4.08734 5.91456,-5.70397 6.09791,-5.77278 0.76031,-0.27938 1.61246,0.11647 1.88737,0.87903 0.0979,0.26881 0.0666,0.90209 0.0666,0.95841 0,0.0521 0.0544,5.63514 3.02719,9.74174 0.27713,0.3853 0.27488,0.8813 0.0374,1.2643 0.41662,0.369 0.69153,0.8938 0.69153,1.4938 z"
       id="path257"
       inkscape:connector-curvature="0" />
  </g>
</svg>
