<?xml version="1.0" encoding="UTF-8" standalone="no"?>
<!-- Created with Inkscape (http://www.inkscape.org/) -->

<svg
   xmlns:dc="http://purl.org/dc/elements/1.1/"
   xmlns:cc="http://creativecommons.org/ns#"
   xmlns:rdf="http://www.w3.org/1999/02/22-rdf-syntax-ns#"
   xmlns:svg="http://www.w3.org/2000/svg"
   xmlns="http://www.w3.org/2000/svg"
   version="1.1"
   width="32"
   height="32"
   id="svg3251">
  <defs
     id="defs3253" />
  <metadata
     id="metadata3256">
    <rdf:RDF>
      <cc:Work
         rdf:about="">
        <dc:format>image/svg+xml</dc:format>
        <dc:type
           rdf:resource="http://purl.org/dc/dcmitype/StillImage" />
        <dc:title></dc:title>
      </cc:Work>
    </rdf:RDF>
  </metadata>
  <g
     id="layer1">
    <path
       d="m 4.333345,20.6667 c 0,6.26 5.07331,11.3333 11.33331,11.3333 h 0.66669 c 6.26069,0 11.33331,-5.0733 11.33331,-11.3333 0,-1.4067 -0.2,-2.7533 -0.66669,-4 -3.87399,0 -7.28668,1.94 -9.33331,4.9 V 16.5 c 3.80669,-0.7733 6.66669,-4.1333 6.66669,-8.1667 V 1.32 c 0,-0.72669 -0.6,-1.32 -1.33331,-1.32 -0.374,0 -0.71332,0.15331 -0.95331,0.4 L 19.513345,2.90669 17.000035,0.4 c -0.53332,-0.53331 -1.39331,-0.53331 -1.92,0 L 12.526715,2.94669 9.953345,0.4 C 9.713345,0.15331 9.373345,0 9.000035,0 8.266715,0 7.666715,0.59331 7.666715,1.32 l -6e-5,7.0133 c 0,4.0333 2.86,7.3933 6.66669,8.1667 v 5.0667 c -2.04669,-2.96 -5.46,-4.9 -9.33331,-4.9 -0.46669,1.2466 -0.66669,2.5933 -0.66669,4 z"
       id="path257" />
  </g>
</svg>
