<?xml version="1.0" encoding="UTF-8" standalone="no"?>
<!-- Created with Inkscape (http://www.inkscape.org/) -->

<svg
   xmlns:dc="http://purl.org/dc/elements/1.1/"
   xmlns:cc="http://creativecommons.org/ns#"
   xmlns:rdf="http://www.w3.org/1999/02/22-rdf-syntax-ns#"
   xmlns:svg="http://www.w3.org/2000/svg"
   xmlns="http://www.w3.org/2000/svg"
   xmlns:sodipodi="http://sodipodi.sourceforge.net/DTD/sodipodi-0.dtd"
   xmlns:inkscape="http://www.inkscape.org/namespaces/inkscape"
   width="32px"
   height="32px"
   id="svg2985"
   version="1.1"
   inkscape:version="0.48.4 r9939"
   sodipodi:docname="2140.svg">
  <defs
     id="defs2987" />
  <sodipodi:namedview
     id="base"
     pagecolor="#ffffff"
     bordercolor="#666666"
     borderopacity="1.0"
     inkscape:pageopacity="0.0"
     inkscape:pageshadow="2"
     inkscape:zoom="11.197802"
     inkscape:cx="5.6854758"
     inkscape:cy="16"
     inkscape:current-layer="layer1"
     showgrid="true"
     inkscape:grid-bbox="true"
     inkscape:document-units="px"
     inkscape:window-width="1600"
     inkscape:window-height="848"
     inkscape:window-x="0"
     inkscape:window-y="0"
     inkscape:window-maximized="1" />
  <metadata
     id="metadata2990">
    <rdf:RDF>
      <cc:Work
         rdf:about="">
        <dc:format>image/svg+xml</dc:format>
        <dc:type
           rdf:resource="http://purl.org/dc/dcmitype/StillImage" />
        <dc:title></dc:title>
      </cc:Work>
    </rdf:RDF>
  </metadata>
  <g
     id="layer1"
     inkscape:label="Layer 1"
     inkscape:groupmode="layer">
    <path
       d="M 12,0 C 11.113594,0 10.4,0.71359 10.4,1.6 H 7.2 C 6.313594,1.6 5.6,2.31359 5.6,3.2 v 9.7 l -3.2,1.5 3.2,6.4 V 24 l 5.1,1.5 c 0.174719,0.058 0.331687,0.1 0.5,0.1 0.168312,0 0.353125,-0.055 0.5,-0.1 L 16,24 l 4.3,1.5 c 0.165125,0.054 0.331375,0.1 0.5,0.1 0.168625,0 0.342562,-0.052 0.5,-0.1 L 26.4,24 v -3.2 l 3.2,-6.4 -3.2,-1.5 V 3.2 C 26.4,2.31359 25.68672,1.6 24.8,1.6 H 21.6 C 21.6,0.71328 20.886719,0 20,0 H 12 z M 8.8,4.8 h 14.4 v 6.6 L 17.6,8.8 16,8 14.4,8.8 8.8,11.4 V 4.8 z M 5.6,27.2 c -0.17025,0 -0.387688,0.055 -0.5,0.1 l -2.7,0.9 v 3.25 l 3.2,-1.05 5.1,1.5 c 0.174719,0.058 0.331687,0.1 0.5,0.1 0.168312,0 0.353125,-0.053 0.5,-0.1 l 4.3,-1.5 4.3,1.5 c 0.165125,0.054 0.331375,0.1 0.5,0.1 0.168625,0 0.342562,-0.05 0.5,-0.1 l 5.1,-1.5 3.2,1.05 V 28.2 l -2.7,-0.9 c -0.15872,-0.053 -0.33138,-0.1 -0.5,-0.1 -0.16897,0 -0.33744,0.047 -0.5,0.1 l -5.1,1.5 -4.3,-1.5 c -0.168969,-0.056 -0.331031,-0.1 -0.5,-0.1 -0.168969,0 -0.347031,0.052 -0.5,0.1 L 11.2,28.8 6.1,27.3 C 5.893594,27.222 5.77025,27.2 5.6,27.2 z"
       id="path257"
       inkscape:connector-curvature="0" />
  </g>
</svg>
