<?xml version="1.0" encoding="UTF-8" standalone="no"?>
<!-- Created with Inkscape (http://www.inkscape.org/) -->

<svg
   xmlns:dc="http://purl.org/dc/elements/1.1/"
   xmlns:cc="http://creativecommons.org/ns#"
   xmlns:rdf="http://www.w3.org/1999/02/22-rdf-syntax-ns#"
   xmlns:svg="http://www.w3.org/2000/svg"
   xmlns="http://www.w3.org/2000/svg"
   xmlns:sodipodi="http://sodipodi.sourceforge.net/DTD/sodipodi-0.dtd"
   xmlns:inkscape="http://www.inkscape.org/namespaces/inkscape"
   version="1.1"
   width="32"
   height="32"
   id="svg3251"
   inkscape:version="0.91 r13725"
   sodipodi:docname="2134.svg">
  <sodipodi:namedview
     pagecolor="#ffffff"
     bordercolor="#666666"
     borderopacity="1"
     objecttolerance="10"
     gridtolerance="10"
     guidetolerance="10"
     inkscape:pageopacity="0"
     inkscape:pageshadow="2"
     inkscape:window-width="1920"
     inkscape:window-height="1027"
     id="namedview7"
     showgrid="false"
     units="px"
     width="32in"
     inkscape:zoom="4"
     inkscape:cx="20"
     inkscape:cy="16"
     inkscape:window-x="0"
     inkscape:window-y="0"
     inkscape:window-maximized="1"
     inkscape:current-layer="svg3251" />
  <defs
     id="defs3253" />
  <metadata
     id="metadata3256">
    <rdf:RDF>
      <cc:Work
         rdf:about="">
        <dc:format>image/svg+xml</dc:format>
        <dc:type
           rdf:resource="http://purl.org/dc/dcmitype/StillImage" />
        <dc:title></dc:title>
      </cc:Work>
    </rdf:RDF>
  </metadata>
  <g
     transform="matrix(0.39024386,0,0,0.39024386,-3.512193,-375.16568)"
     id="g4">
    <path
       d="m 35.106385,966.86868 1.0408,1.777 c 5.2833,-2.7325 13.1557,-5.692 22.1997,-6.2069 10.1083,-0.5753 21.6663,1.9843 32.0012,11.3347 0.6274,0.5611 0.8317,1.5332 0.482,2.2941 -0.3495,0.7609 -1.2258,1.2512 -2.0679,1.1572 -4.967,-0.5888 -7.932,-0.7635 -10.8998,0.9253 -2.9678,1.6889 -4.2969,4.3071 -6.263,8.8414 -0.3426,0.7731 -1.2266,1.276 -2.077,1.182 -4.9672,-0.589 -7.9322,-0.7636 -10.9,0.9253 -2.7454,1.5623 -4.1098,3.9914 -5.8522,7.9254 l 17.0016,29.02462 c 0.8567,0.1761 1.6235,0.7375 2.0417,1.4947 l 6.0563,10.339 c 0.819,1.3546 0.2981,3.3258 -1.0882,4.1145 -1.3862,0.7888 -3.3788,0.2482 -4.1591,-1.1284 l -6.0563,-10.339 c -0.4434,-0.7311 -0.5469,-1.6539 -0.2767,-2.4632 l -17.0174,-29.05162 c -4.3275,-0.4797 -7.1443,-0.5296 -9.8897,1.03262 -2.9678,1.6889 -4.2967,4.3071 -6.2629,8.8414 -0.3426,0.7731 -1.2266,1.276 -2.0772,1.1819 -4.967,-0.5887 -7.9319,-0.7634 -10.8997,0.9253 -2.967801,1.6889 -4.296901,4.3072 -6.263101,8.8415 -0.3383,0.7655 -1.2074,1.2684 -2.0506,1.1864 -0.843299,-0.082 -1.595299,-0.7424 -1.774699,-1.5585 -2.9300003,-13.3026 0.6124,-24.43762 6.136099,-32.82152 4.942101,-7.5013 11.413601,-12.8364 16.458801,-16.0074 l -1.0408,-1.7772 z"
       style="color:#000000;text-indent:0;text-transform:none;direction:ltr;block-progression:tb;baseline-shift:baseline;display:inline;overflow:visible;visibility:visible;fill:#000000;fill-opacity:1;stroke:none;marker:none;enable-background:accumulate"
       visibility="visible"
       display="inline"
       overflow="visible"
       id="path6"
       inkscape:connector-curvature="0" />
  </g>
</svg>
