<?xml version="1.0" encoding="UTF-8" standalone="no"?>
<!-- Created with Inkscape (http://www.inkscape.org/) -->

<svg
   xmlns:dc="http://purl.org/dc/elements/1.1/"
   xmlns:cc="http://creativecommons.org/ns#"
   xmlns:rdf="http://www.w3.org/1999/02/22-rdf-syntax-ns#"
   xmlns:svg="http://www.w3.org/2000/svg"
   xmlns="http://www.w3.org/2000/svg"
   xmlns:sodipodi="http://sodipodi.sourceforge.net/DTD/sodipodi-0.dtd"
   xmlns:inkscape="http://www.inkscape.org/namespaces/inkscape"
   width="32px"
   height="32px"
   id="svg2985"
   version="1.1"
   inkscape:version="0.48.4 r9939"
   sodipodi:docname="1261.svg">
  <defs
     id="defs2987" />
  <sodipodi:namedview
     id="base"
     pagecolor="#ffffff"
     bordercolor="#666666"
     borderopacity="1.0"
     inkscape:pageopacity="0.0"
     inkscape:pageshadow="2"
     inkscape:zoom="11.197802"
     inkscape:cx="5.6854758"
     inkscape:cy="16"
     inkscape:current-layer="layer1"
     showgrid="true"
     inkscape:grid-bbox="true"
     inkscape:document-units="px"
     inkscape:window-width="1600"
     inkscape:window-height="848"
     inkscape:window-x="0"
     inkscape:window-y="0"
     inkscape:window-maximized="1" />
  <metadata
     id="metadata2990">
    <rdf:RDF>
      <cc:Work
         rdf:about="">
        <dc:format>image/svg+xml</dc:format>
        <dc:type
           rdf:resource="http://purl.org/dc/dcmitype/StillImage" />
        <dc:title></dc:title>
      </cc:Work>
    </rdf:RDF>
  </metadata>
  <g
     id="layer1"
     inkscape:label="Layer 1"
     inkscape:groupmode="layer">
    <path
       d="M 16.00048,1.9258631e-5 C 13.50259,-0.00598074 11.47907,2.0180593 11.48098,4.5185393 c -0.002,2.49311 2.02158,4.51595 4.5195,4.51855 2.4947,0 4.51853,-2.02547 4.51853,-4.51855 0,-2.50045 -2.02348,-4.52396004 -4.51853,-4.518520041369 z M 13.25929,9.7264893 c -0.85728,0.01 -1.39425,0.3163007 -1.88769,0.7989007 l -6.0429296,6.0614 c -1.65792,1.6598 0.57961,3.7759 2.23241,2.1231 l 3.6474396,-3.6836 0,3.4668 4.79196,0 4.7363,0 0,-3.4854 3.75681,3.7569 c 1.50784,1.5984 3.80584,-0.5388 2.23241,-2.1055 l -6.11617,-6.1337 C 20.10774,10.03349 19.53272,9.7332893 18.68601,9.7264893 l -5.42672,0 z M 11.20852,20.27139 c 0,0 -3.0488096,3.0603 -3.0488096,3.0673 -0.98656,0.9789 -0.7326,2.707 0.18164,3.6475 l 4.2831796,4.4462 c 1.64127,1.6407 3.84039,-0.6397 2.25096,-2.2324 l -2.70409,-2.705 2.63085,-2.6309 -3.59373,-3.5927 z m 9.5097,0 -3.59275,3.5927 2.6494,2.6309 -2.70311,2.705 c -1.6003,1.5927 0.59912,3.8731 2.24901,2.2324 l 4.26462,-4.4462 c 0.92384,-0.9405 1.17685,-2.6686 0.2002,-3.6475 -0.01,-0.01 -3.06737,-3.0673 -3.06737,-3.0673 z"
       id="path257"
       inkscape:connector-curvature="0" />
  </g>
</svg>
