<?xml version="1.0" encoding="UTF-8" standalone="no"?>
<!-- Created with Inkscape (http://www.inkscape.org/) -->

<svg
   xmlns:dc="http://purl.org/dc/elements/1.1/"
   xmlns:cc="http://creativecommons.org/ns#"
   xmlns:rdf="http://www.w3.org/1999/02/22-rdf-syntax-ns#"
   xmlns:svg="http://www.w3.org/2000/svg"
   xmlns="http://www.w3.org/2000/svg"
   xmlns:sodipodi="http://sodipodi.sourceforge.net/DTD/sodipodi-0.dtd"
   xmlns:inkscape="http://www.inkscape.org/namespaces/inkscape"
   width="32px"
   height="32px"
   id="svg2985"
   version="1.1"
   inkscape:version="0.48.4 r9939"
   sodipodi:docname="2136.svg">
  <defs
     id="defs2987" />
  <sodipodi:namedview
     id="base"
     pagecolor="#ffffff"
     bordercolor="#666666"
     borderopacity="1.0"
     inkscape:pageopacity="0.0"
     inkscape:pageshadow="2"
     inkscape:zoom="11.197802"
     inkscape:cx="5.6854758"
     inkscape:cy="16"
     inkscape:current-layer="layer1"
     showgrid="true"
     inkscape:grid-bbox="true"
     inkscape:document-units="px"
     inkscape:window-width="1600"
     inkscape:window-height="848"
     inkscape:window-x="0"
     inkscape:window-y="0"
     inkscape:window-maximized="1" />
  <metadata
     id="metadata2990">
    <rdf:RDF>
      <cc:Work
         rdf:about="">
        <dc:format>image/svg+xml</dc:format>
        <dc:type
           rdf:resource="http://purl.org/dc/dcmitype/StillImage" />
        <dc:title></dc:title>
      </cc:Work>
    </rdf:RDF>
  </metadata>
  <g
     id="layer1"
     inkscape:label="Layer 1"
     inkscape:groupmode="layer">
    <path
       d="m 13.544046,3.6041146 c -1.169583,0.005 -2.118927,0.95357 -2.11699,2.13217 -0.0019,1.1635 0.947431,2.1132 2.11699,2.1177 1.172149,0 2.121572,-0.9539 2.117746,-2.1177 0.0042,-1.1786 -0.945597,-2.12737 -2.117746,-2.13217 z m 9.776135,2.31217 c -1.018867,-0.01 -2.330335,0.4101 -3.108903,1.1864 l -4.564618,4.5654004 0,-1.337 c -0.0019,-2.8479004 -4.199678,-2.8169004 -4.204472,0 l 0,5.4514 0.01513,0 -3.9646269,3.9639 c -0.377916,0.3747 -0.423186,0.3904 -1.15534,0.3904 -0.0032,9e-4 -2.432496,0 -2.432496,0 -2.435165,0 -3.89877797,2.1928 -3.90485497359744,4.0539 C 0.00610013,26.047585 1.4694541,28.397485 4.1295681,28.395885 c 0,0 3.296851,0 4.30964,0 1.026542,0 2.2616779,-0.3882 3.2882199,-1.352 l 12.643681,-12.5983 c 0.265912,-0.2461 0.416236,-0.3203 0.885987,-0.3155 0,0 1.738335,-0.01 3.123279,0 1.498205,-0.01 3.625352,-1.7092 3.619613,-4.1591004 0.0058,-2.4358 -2.137351,-4.0563 -3.75429,-4.0547 l -4.925519,0 z m 0.300373,2.0875 4.429184,0 c 1.086709,0 1.813312,1.2113 1.81813,1.9377 -0.0051,0.7123004 -0.520638,2.0555004 -1.833263,2.0564004 l -2.671582,0 c -1.131184,-9e-4 -1.632567,0.158 -2.283444,0.8111 l -12.748092,12.7337 c -0.5091179,0.5229 -1.1635539,0.7274 -1.9974449,0.7203 l -4.204472,0 c -1.083173,0.01 -2.033975,-0.9057 -2.026954,-2.1018 -0.007,-1.2032 0.899583,-1.8743 1.831749,-1.8772 l 2.883434,0 c 0.846384,0 1.398648,-0.2374 1.876388,-0.7203 L 21.653373,8.6045846 c 0.534395,-0.5296 1.060946,-0.5963 1.967181,-0.6008 z"
       id="path295"
       inkscape:connector-curvature="0" />
  </g>
</svg>
