<?xml version="1.0" encoding="UTF-8" standalone="no"?>
<!-- Created with Inkscape (http://www.inkscape.org/) -->

<svg
   xmlns:dc="http://purl.org/dc/elements/1.1/"
   xmlns:cc="http://creativecommons.org/ns#"
   xmlns:rdf="http://www.w3.org/1999/02/22-rdf-syntax-ns#"
   xmlns:svg="http://www.w3.org/2000/svg"
   xmlns="http://www.w3.org/2000/svg"
   xmlns:sodipodi="http://sodipodi.sourceforge.net/DTD/sodipodi-0.dtd"
   xmlns:inkscape="http://www.inkscape.org/namespaces/inkscape"
   width="32px"
   height="32px"
   id="svg2985"
   version="1.1"
   inkscape:version="0.48.4 r9939"
   sodipodi:docname="2134.svg">
  <defs
     id="defs2987" />
  <sodipodi:namedview
     id="base"
     pagecolor="#ffffff"
     bordercolor="#666666"
     borderopacity="1.0"
     inkscape:pageopacity="0.0"
     inkscape:pageshadow="2"
     inkscape:zoom="11.197802"
     inkscape:cx="5.6854758"
     inkscape:cy="16"
     inkscape:current-layer="layer1"
     showgrid="true"
     inkscape:grid-bbox="true"
     inkscape:document-units="px"
     inkscape:window-width="1600"
     inkscape:window-height="848"
     inkscape:window-x="0"
     inkscape:window-y="0"
     inkscape:window-maximized="1" />
  <metadata
     id="metadata2990">
    <rdf:RDF>
      <cc:Work
         rdf:about="">
        <dc:format>image/svg+xml</dc:format>
        <dc:type
           rdf:resource="http://purl.org/dc/dcmitype/StillImage" />
        <dc:title></dc:title>
      </cc:Work>
    </rdf:RDF>
  </metadata>
  <g
     id="layer1"
     inkscape:label="Layer 1"
     inkscape:groupmode="layer">
    <path
       d="m 15.99958,2.222165 c -1.472694,0 -2.666596,1.1939 -2.666596,2.66659 0,1.47268 1.193902,2.66658 2.666596,2.66658 1.472695,0 2.666597,-1.1939 2.666597,-2.66658 0,-1.47269 -1.193902,-2.66659 -2.666597,-2.66659 z m -3.555462,6.22207 c -2.222376,0 -3.11145,1.778 -3.11145,3.1114 l 0,3.9995 2.222584,0 0,-3.5546 0.888866,0 0,3.5546 7.110924,0 0,-3.5546 0.889707,0 0,3.5546 2.221743,0 0,-3.9995 c 3.23e-4,-1.3334 -0.888751,-3.1114 -3.11145,-3.1114 l -7.110924,0 z M 0,16.444835 l 0,2.2218 1.777731,0 0,11.1112 28.444541,0 0,-11.1112 1.777728,0 0,-2.2218 -1.777728,0 -30.222272,0 z m 15.99958,2.6666 0.999028,3.0736 3.231703,0 -2.614459,1.8988 0.999028,3.0737 -2.6153,-1.8989 -2.613618,1.8997 0.998187,-3.0736 -2.614459,-1.8997 3.231703,0 0.998187,-3.0736 z"
       id="path279"
       inkscape:connector-curvature="0" />
  </g>
</svg>
