<?xml version="1.0" encoding="UTF-8" standalone="no"?>
<!-- Created with Inkscape (http://www.inkscape.org/) -->

<svg
   xmlns:dc="http://purl.org/dc/elements/1.1/"
   xmlns:cc="http://creativecommons.org/ns#"
   xmlns:rdf="http://www.w3.org/1999/02/22-rdf-syntax-ns#"
   xmlns:svg="http://www.w3.org/2000/svg"
   xmlns="http://www.w3.org/2000/svg"
   xmlns:sodipodi="http://sodipodi.sourceforge.net/DTD/sodipodi-0.dtd"
   xmlns:inkscape="http://www.inkscape.org/namespaces/inkscape"
   width="32px"
   height="32px"
   id="svg2985"
   version="1.1"
   inkscape:version="0.48.4 r9939"
   sodipodi:docname="2138.svg">
  <defs
     id="defs2987" />
  <sodipodi:namedview
     id="base"
     pagecolor="#ffffff"
     bordercolor="#666666"
     borderopacity="1.0"
     inkscape:pageopacity="0.0"
     inkscape:pageshadow="2"
     inkscape:zoom="11.197802"
     inkscape:cx="5.6854758"
     inkscape:cy="16"
     inkscape:current-layer="layer1"
     showgrid="true"
     inkscape:grid-bbox="true"
     inkscape:document-units="px"
     inkscape:window-width="1600"
     inkscape:window-height="848"
     inkscape:window-x="0"
     inkscape:window-y="0"
     inkscape:window-maximized="1" />
  <metadata
     id="metadata2990">
    <rdf:RDF>
      <cc:Work
         rdf:about="">
        <dc:format>image/svg+xml</dc:format>
        <dc:type
           rdf:resource="http://purl.org/dc/dcmitype/StillImage" />
        <dc:title></dc:title>
      </cc:Work>
    </rdf:RDF>
  </metadata>
  <g
     id="layer1"
     inkscape:label="Layer 1"
     inkscape:groupmode="layer">
    <path
       d="m 16.83646,0.05966 -4.864923,3.73649 0.736772,0.95639 4.858851,-3.74155 -0.7307,-0.95133 z m 1.003953,1.30757 -4.857839,3.74155 0.712483,0.924 4.855815,-3.74054 -0.710459,-0.92501 z m 0.984725,1.28125 -4.855815,3.74054 0.728676,0.94627 4.85379,-3.73852 -0.726651,-0.94829 z M 19.826055,3.952 18.938487,4.63514 22.679023,9.49095 23.559507,8.8149 19.826055,3.952 z m -8.21076,0.1174 -1.008001,0.77523 3.696005,4.79712 1.00699,-0.77523 -3.694994,-4.79712 z m 6.967963,0.84101 -0.899712,0.69326 3.739523,4.8548 0.899713,-0.69325 -3.739524,-4.85481 z M 10.25004,5.11788 9.305798,5.84352 13.003827,10.64266 13.947058,9.91601 10.25004,5.11788 z m 7.077264,0.76005 -1.005977,0.77422 3.736487,4.85177 1.00699,-0.77321 -3.7375,-4.85278 z m -8.377748,0.23885 -0.867327,0.66593 3.691958,4.80825 0.873399,-0.67403 -3.69803,-4.80015 z m 16.327399,1.99475 -4.864923,3.73547 0.737784,0.9574 4.857839,-3.74155 -0.7307,-0.95132 z m -8.34435,0.0719 -4.885165,3.76382 0.767134,0.99889 4.887188,-3.76381 -0.769157,-0.9989 z M 8.755243,8.41013 3.889307,12.14662 4.627092,13.10402 9.48493,9.36146 8.755243,8.41013 z m 17.524653,1.00902 -4.855814,3.74154 0.712483,0.92401 4.854802,-3.74155 -0.711471,-0.924 z m -8.303868,0.11841 -4.887188,3.76482 0.722603,0.94222 4.889213,-3.76584 -0.724628,-0.9412 z m -8.217844,0.18115 -4.856827,3.74155 0.711471,0.92299 4.856827,-3.74054 -0.711471,-0.924 z m 17.506437,0.98068 -4.854803,3.74054 0.728676,0.94727 4.854803,-3.73952 -0.728676,-0.94829 z m -8.290712,0.1346 -4.8882,3.76685 0.719567,0.93716 4.896297,-3.75977 -0.727664,-0.94424 z m -8.231001,0.16497 -4.855814,3.74053 0.729687,0.94627 4.853791,-3.73953 -0.727664,-0.94727 z m 17.523642,1.00496 -0.887568,0.68415 3.740536,4.85379 L 32,16.86581 28.26655,12.00392 z m -8.21076,0.1174 -1.008001,0.77422 3.696005,4.79914 1.00699,-0.77624 -3.694994,-4.79712 z m -8.310952,0.18217 -0.887568,0.68313 3.730415,4.84367 0.881496,-0.67706 -3.724343,-4.84974 z m -8.21076,0.1174 -1.009014,0.77421 3.696006,4.79813 1.008001,-0.77624 -3.694993,-4.7961 z m 23.488663,0.54043 -0.899712,0.69325 3.738511,4.8538 0.901737,-0.69326 -3.740536,-4.85379 z m -8.332206,0.20848 -0.94323,0.72564 3.697018,4.79914 0.94323,-0.72665 -3.697018,-4.79813 z m -8.189507,0.0911 -0.899712,0.69325 3.729404,4.84064 0.900724,-0.69123 -3.730416,-4.84266 z M 2.168823,13.46938 1.22458,14.19401 4.92261,18.99416 5.864828,18.26751 2.168823,13.46938 z m 23.597964,0.45947 -1.005977,0.77523 3.737499,4.85075 1.00699,-0.7732 -3.738512,-4.85278 z m -8.376736,0.23986 -0.867326,0.66592 3.691957,4.80724 0.873399,-0.67301 -3.69803,-4.80015 z m -8.144976,0.0597 -1.005978,0.77523 3.727379,4.83962 1.008002,-0.77422 -3.729403,-4.84063 z M 0.868339,14.46826 0,15.13419 3.691958,19.94143 4.566369,19.26841 0.868339,14.46826 z M 25.375124,16.2353 20.48996,19.99911 21.259117,20.997 26.14327,17.23217 25.375124,16.2353 z m -8.269459,0.22771 -1.006989,0.77321 -3.848826,2.97441 0.727664,0.94526 4.857839,-3.74256 -0.729688,-0.95032 z m -8.254278,0.0719 -4.887188,3.76381 0.769158,0.99788 4.886176,-3.76482 -0.768146,-0.99687 z m 17.565136,1.05354 -4.887188,3.76584 0.722603,0.94121 4.889213,-3.76584 -0.724628,-0.94121 z m -8.306904,0.18116 -4.857839,3.74155 0.711471,0.924 4.856826,-3.74054 -0.710458,-0.92501 z m -8.21582,0.11942 -4.886177,3.76483 0.722604,0.9412 4.8882,-3.76583 -0.724627,-0.9402 z m 17.521617,0.99586 -4.889212,3.76685 0.719567,0.93716 4.896297,-3.76078 -0.726652,-0.94323 z m -8.321073,0.16597 -4.855815,3.74054 0.728676,0.94627 4.853791,-3.73852 -0.726652,-0.94829 z m -8.201651,0.13359 -4.889213,3.76685 0.72058,0.93716 1.006989,-0.7732 -0.01012,-0.0122 3.889307,-2.98656 -0.717543,-0.9321 z m 9.202568,1.17095 -0.887567,0.68313 3.740535,4.85481 0.881496,-0.6771 -3.734464,-4.86084 z m -8.201651,0.12954 -1.008002,0.77422 3.686898,4.78498 1.006989,-0.7752 -3.685885,-4.784 z m 6.958854,0.82786 -0.900724,0.69325 3.739524,4.85279 0.900724,-0.6922 -3.739524,-4.85384 z m -8.323097,0.21961 -0.944243,0.72564 3.68791,4.78799 0.94323,-0.7276 -3.686897,-4.78603 z m 7.067143,0.7479 -1.006989,0.77524 3.7375,4.85079 1.008001,-0.7742 -3.738512,-4.85183 z m -8.367627,0.25099 -0.868339,0.66694 3.682849,4.7951 0.873399,-0.674 -3.687909,-4.78804 z m 7.972928,2.05548 -4.885164,3.76276 0.767133,0.9989 4.886177,-3.7638 -0.768146,-0.99786 z m 1.043423,1.35416 -4.887188,3.7638 0.722603,0.9422 4.888201,-3.7658 -0.723616,-0.9402 z m 0.997881,1.2954 -4.8882,3.7668 0.719567,0.9372 4.896297,-3.7598 -0.727664,-0.9442 z"
       id="path257"
       inkscape:connector-curvature="0" />
  </g>
</svg>
