<?xml version="1.0" encoding="UTF-8" standalone="no"?>
<!-- Created with Inkscape (http://www.inkscape.org/) -->

<svg
   xmlns:dc="http://purl.org/dc/elements/1.1/"
   xmlns:cc="http://creativecommons.org/ns#"
   xmlns:rdf="http://www.w3.org/1999/02/22-rdf-syntax-ns#"
   xmlns:svg="http://www.w3.org/2000/svg"
   xmlns="http://www.w3.org/2000/svg"
   xmlns:sodipodi="http://sodipodi.sourceforge.net/DTD/sodipodi-0.dtd"
   xmlns:inkscape="http://www.inkscape.org/namespaces/inkscape"
   width="32px"
   height="32px"
   id="svg2985"
   version="1.1"
   inkscape:version="0.92.3 (2405546, 2018-03-11)"
   sodipodi:docname="2139.svg">
  <defs
     id="defs2987" />
  <sodipodi:namedview
     id="base"
     pagecolor="#ffffff"
     bordercolor="#666666"
     borderopacity="1.0"
     inkscape:pageopacity="0.0"
     inkscape:pageshadow="2"
     inkscape:zoom="11.197802"
     inkscape:cx="7.2924426"
     inkscape:cy="22.293078"
     inkscape:current-layer="layer1"
     showgrid="true"
     inkscape:grid-bbox="true"
     inkscape:document-units="px"
     inkscape:window-width="1920"
     inkscape:window-height="1015"
     inkscape:window-x="0"
     inkscape:window-y="0"
     inkscape:window-maximized="1" />
  <metadata
     id="metadata2990">
    <rdf:RDF>
      <cc:Work
         rdf:about="">
        <dc:format>image/svg+xml</dc:format>
        <dc:type
           rdf:resource="http://purl.org/dc/dcmitype/StillImage" />
        <dc:title></dc:title>
      </cc:Work>
    </rdf:RDF>
  </metadata>
  <g
     id="layer1"
     inkscape:label="Layer 1"
     inkscape:groupmode="layer">
    <g
       transform="scale(0.0625)"
       style="opacity:1"
       id="g6">
      <path
         inkscape:connector-curvature="0"
         class="st0"
         d="M 16.59,24.154 C 7.43,24.154 0,31.58 0,40.744 v 23.41 327.41 c 0,9.164 7.43,16.59 16.59,16.59 h 201.973 v 34.121 h -77.246 l -14.864,31.977 -6.324,13.434 h 0.078 l -0.078,0.16 h 271.742 l -21.188,-45.57 H 293.441 V 408.155 H 495.41 c 5.726,0 10.777,-2.902 13.758,-7.313 1.789,-2.648 2.832,-5.839 2.832,-9.277 V 64.154 40.744 c 0,-9.164 -7.426,-16.59 -16.59,-16.59 H 472 40 Z m 23.414,40 h 129.617 l 18.829,0.023 -13.844,92.672 -2.653,17.762 -0.734,4.645 0.043,-0.004 -0.023,0.164 20.602,-2.578 48.934,-6.121 29.863,-3.641 -49.894,83.161 -5.02,8.367 7.637,4.847 72.504,46.039 6.293,-8.89 -59.996,-47.23 63.442,-95.406 8.527,-12.825 5.313,-7.82 -0.122,0.008 0.114,-0.168 -25.668,1.446 -58.531,3.304 -21.805,1.168 26.848,-78.922 h 231.726 v 304 h -432 V 64.154 Z"
         id="path4" />
    </g>
  </g>
</svg>
