<?xml version="1.0" encoding="UTF-8" standalone="no"?>
<!-- Created with Inkscape (http://www.inkscape.org/) -->

<svg
   xmlns:dc="http://purl.org/dc/elements/1.1/"
   xmlns:cc="http://creativecommons.org/ns#"
   xmlns:rdf="http://www.w3.org/1999/02/22-rdf-syntax-ns#"
   xmlns:svg="http://www.w3.org/2000/svg"
   xmlns="http://www.w3.org/2000/svg"
   xmlns:sodipodi="http://sodipodi.sourceforge.net/DTD/sodipodi-0.dtd"
   xmlns:inkscape="http://www.inkscape.org/namespaces/inkscape"
   width="32px"
   height="32px"
   id="svg2985"
   version="1.1"
   inkscape:version="0.92.3 (2405546, 2018-03-11)"
   sodipodi:docname="2140.svg">
  <defs
     id="defs2987" />
  <sodipodi:namedview
     id="base"
     pagecolor="#ffffff"
     bordercolor="#666666"
     borderopacity="1.0"
     inkscape:pageopacity="0.0"
     inkscape:pageshadow="2"
     inkscape:zoom="11.197802"
     inkscape:cx="-9.853288"
     inkscape:cy="16"
     inkscape:current-layer="layer1"
     showgrid="true"
     inkscape:grid-bbox="true"
     inkscape:document-units="px"
     inkscape:window-width="1920"
     inkscape:window-height="1015"
     inkscape:window-x="0"
     inkscape:window-y="0"
     inkscape:window-maximized="1" />
  <metadata
     id="metadata2990">
    <rdf:RDF>
      <cc:Work
         rdf:about="">
        <dc:format>image/svg+xml</dc:format>
        <dc:type
           rdf:resource="http://purl.org/dc/dcmitype/StillImage" />
        <dc:title />
      </cc:Work>
    </rdf:RDF>
  </metadata>
  <g
     id="layer1"
     inkscape:label="Layer 1"
     inkscape:groupmode="layer">
    <g
       style="opacity:1"
       id="g6"
       transform="matrix(0.0625,0,0,0.0625,0,3.125e-5)">
      <path
         class="st0"
         d="M 472,22.654 H 40 c -22.09,0 -40,17.91 -40,40 v 304 c 0,22.094 17.91,40 40,40 h 178.582 v 31.102 c 0,13.875 -10.657,25.426 -24.485,26.543 l -74.766,6.038 c -2.074,0.168 -3.676,1.902 -3.676,3.985 v 11.027 c 0,2.207 1.79,3.996 3.996,3.996 h 272.696 c 2.21,0 4,-1.789 4,-3.996 v -11.027 c 0,-2.082 -1.602,-3.817 -3.676,-3.985 l -74.766,-6.038 C 304.077,463.181 293.42,451.631 293.42,437.756 V 406.654 H 472 c 22.094,0 40,-17.906 40,-40 v -304 c 0,-22.089 -17.906,-40 -40,-40 z m -432,344 v -304 h 432 v 304 H 41.16 Z"
         id="path4"
         inkscape:connector-curvature="0"
         style="fill:#374149" />
    </g>
  </g>
</svg>
