<?xml version="1.0" encoding="UTF-8" standalone="no"?>
<!-- Created with Inkscape (http://www.inkscape.org/) -->

<svg
   xmlns:dc="http://purl.org/dc/elements/1.1/"
   xmlns:cc="http://creativecommons.org/ns#"
   xmlns:rdf="http://www.w3.org/1999/02/22-rdf-syntax-ns#"
   xmlns:svg="http://www.w3.org/2000/svg"
   xmlns="http://www.w3.org/2000/svg"
   xmlns:sodipodi="http://sodipodi.sourceforge.net/DTD/sodipodi-0.dtd"
   xmlns:inkscape="http://www.inkscape.org/namespaces/inkscape"
   width="32px"
   height="32px"
   id="svg2985"
   version="1.1"
   inkscape:version="0.48.4 r9939"
   sodipodi:docname="2131.svg">
  <defs
     id="defs2987" />
  <sodipodi:namedview
     id="base"
     pagecolor="#ffffff"
     bordercolor="#666666"
     borderopacity="1.0"
     inkscape:pageopacity="0.0"
     inkscape:pageshadow="2"
     inkscape:zoom="11.197802"
     inkscape:cx="5.6854758"
     inkscape:cy="16"
     inkscape:current-layer="layer1"
     showgrid="true"
     inkscape:grid-bbox="true"
     inkscape:document-units="px"
     inkscape:window-width="1600"
     inkscape:window-height="848"
     inkscape:window-x="0"
     inkscape:window-y="0"
     inkscape:window-maximized="1" />
  <metadata
     id="metadata2990">
    <rdf:RDF>
      <cc:Work
         rdf:about="">
        <dc:format>image/svg+xml</dc:format>
        <dc:type
           rdf:resource="http://purl.org/dc/dcmitype/StillImage" />
        <dc:title></dc:title>
      </cc:Work>
    </rdf:RDF>
  </metadata>
  <g
     id="layer1"
     inkscape:label="Layer 1"
     inkscape:groupmode="layer">
    <path
       d="M 1.066404,2e-7 C 0.477253,2e-7 10e-7,0.4772502 10e-7,1.0664002 l 0,29.8671998 C 10e-7,31.5224 0.477253,32 1.066404,32 1.655557,32 2.132809,31.5224 2.132809,30.9336 l 0,-0.3561 27.734392,0 0,0.3561 c 0,0.5888 0.477593,1.0664 1.066398,1.0664 0.588805,0 1.0664,-0.4776 1.0664,-1.0664 l 0,-29.8671998 c 0,-0.58915 -0.477595,-1.0664 -1.0664,-1.0664 -0.588805,0 -1.066398,0.47725 -1.066398,1.0664 l 0,6.8975996 -27.734392,0 0,-6.8975996 c 0,-0.58915 -0.477252,-1.0664 -1.066405,-1.0664 z m 3.082802,0.71126 0,6.3994096 6.399412,0 0,-6.3994096 -6.399412,0 z m 8.650595,0 0,6.3994096 6.400399,0 0,-6.3994096 -6.400399,0 z M 2.132809,10.09778 l 27.734392,0 0,8.10702 -27.734392,0 0,-8.10702 z m 19.317592,0.85333 0,6.40039 6.400394,0 0,-6.40039 -6.400394,0 z m -17.301195,0.071 0,6.40039 6.399412,0 0,-6.40039 -6.399412,0 z m 8.650595,0 0,6.40039 6.400399,0 0,-6.40039 -6.400399,0 z m -10.666992,9.31549 27.734392,0 0,8.1071 -27.734392,0 0,-8.1071 z m 2.016397,0.8533 0,6.4004 6.399412,0 0,-6.4004 -6.399412,0 z m 8.650595,0 0,6.4004 6.400399,0 0,-6.4004 -6.400399,0 z"
       id="path257"
       inkscape:connector-curvature="0" />
  </g>
</svg>
