<?xml version="1.0" encoding="UTF-8" standalone="no"?>
<!-- Created with Inkscape (http://www.inkscape.org/) -->

<svg
   xmlns:dc="http://purl.org/dc/elements/1.1/"
   xmlns:cc="http://creativecommons.org/ns#"
   xmlns:rdf="http://www.w3.org/1999/02/22-rdf-syntax-ns#"
   xmlns:svg="http://www.w3.org/2000/svg"
   xmlns="http://www.w3.org/2000/svg"
   xmlns:sodipodi="http://sodipodi.sourceforge.net/DTD/sodipodi-0.dtd"
   xmlns:inkscape="http://www.inkscape.org/namespaces/inkscape"
   width="32px"
   height="32px"
   id="svg3441"
   version="1.1"
   inkscape:version="0.48.4 r9939"
   sodipodi:docname="2135.svg">
  <defs
     id="defs3443" />
  <sodipodi:namedview
     id="base"
     pagecolor="#ffffff"
     bordercolor="#666666"
     borderopacity="1.0"
     inkscape:pageopacity="0.0"
     inkscape:pageshadow="2"
     inkscape:zoom="11.197802"
     inkscape:cx="15.329734"
     inkscape:cy="16.100586"
     inkscape:current-layer="layer1"
     showgrid="true"
     inkscape:grid-bbox="true"
     inkscape:document-units="px"
     inkscape:window-width="1600"
     inkscape:window-height="848"
     inkscape:window-x="0"
     inkscape:window-y="0"
     inkscape:window-maximized="1" />
  <metadata
     id="metadata3446">
    <rdf:RDF>
      <cc:Work
         rdf:about="">
        <dc:format>image/svg+xml</dc:format>
        <dc:type
           rdf:resource="http://purl.org/dc/dcmitype/StillImage" />
        <dc:title></dc:title>
      </cc:Work>
    </rdf:RDF>
  </metadata>
  <g
     id="layer1"
     inkscape:label="Layer 1"
     inkscape:groupmode="layer">
    <path
       d="M 25.59545,28.110137 20.01721,11.223557 V 4.7620368 c 0,-0.55595 -0.47414,-1.23681 -1.0308,-1.23681 h -0.98343 v -2.28842 c 0,-0.55594975 -0.47413,-1.236809751569 -1.0308,-1.236809751569 h -2.01459 c -0.55595,0 -0.98342,0.680860001569 -0.98342,1.236809751569 v 2.28806 h -1.03081 c -0.55595,0 -0.98342,0.68086 -0.98342,1.23681 v 6.6040302 l -5.5545502,16.74443 c -0.14392,0.47879 0.12167,0.9845 0.6001,1.12842 l 0.53693,0.16153 -0.51936,1.7249 c -0.0804,0.2685 0.0718,0.5528 0.34062,0.6335 l 0.73076,0.2197 c 0.26919,0.081 0.55274,-0.072 0.63383,-0.3407 l 0.51757,-1.72419 0.7885502,0.23689 c 0.47878,0.14356 0.98342,-0.12779 1.12806,-0.60693 l 4.82598,-14.57623 4.82561,14.57623 c 0.14428,0.47914 0.64928,0.75085 1.12807,0.60693 l 0.78887,-0.23689 0.51721,1.72419 c 0.0815,0.2685 0.365,0.4221 0.63455,0.3407 l 0.73076,-0.2197 c 0.26883,-0.081 0.42207,-0.365 0.34134,-0.6335 l -0.5172,-1.7249 0.5459,-0.16153 c 0.47879,-0.14392 0.75622,-0.64963 0.61194,-1.12842 z M 15.9647,5.7691468 c 1.11265,0 2.01459,0.90194 2.01459,2.01423 0,1.11229 -0.90194,2.01423 -2.01459,2.01423 -1.11229,0 -2.01423,-0.90194 -2.01423,-2.01423 0,-1.11229 0.90194,-2.01423 2.01423,-2.01423 z"
       id="path257"
       inkscape:connector-curvature="0" />
  </g>
</svg>
