<?xml version="1.0" encoding="UTF-8" standalone="no"?>
<!-- Created with Inkscape (http://www.inkscape.org/) -->

<svg
   xmlns:dc="http://purl.org/dc/elements/1.1/"
   xmlns:cc="http://creativecommons.org/ns#"
   xmlns:rdf="http://www.w3.org/1999/02/22-rdf-syntax-ns#"
   xmlns:svg="http://www.w3.org/2000/svg"
   xmlns="http://www.w3.org/2000/svg"
   xmlns:sodipodi="http://sodipodi.sourceforge.net/DTD/sodipodi-0.dtd"
   xmlns:inkscape="http://www.inkscape.org/namespaces/inkscape"
   width="32px"
   height="32px"
   id="svg3441"
   version="1.1"
   inkscape:version="0.48.4 r9939"
   sodipodi:docname="2142.svg">
  <defs
     id="defs3443" />
  <sodipodi:namedview
     id="base"
     pagecolor="#ffffff"
     bordercolor="#666666"
     borderopacity="1.0"
     inkscape:pageopacity="0.0"
     inkscape:pageshadow="2"
     inkscape:zoom="11.197802"
     inkscape:cx="15.329734"
     inkscape:cy="16.100586"
     inkscape:current-layer="layer1"
     showgrid="true"
     inkscape:grid-bbox="true"
     inkscape:document-units="px"
     inkscape:window-width="1600"
     inkscape:window-height="848"
     inkscape:window-x="0"
     inkscape:window-y="0"
     inkscape:window-maximized="1" />
  <metadata
     id="metadata3446">
    <rdf:RDF>
      <cc:Work
         rdf:about="">
        <dc:format>image/svg+xml</dc:format>
        <dc:type
           rdf:resource="http://purl.org/dc/dcmitype/StillImage" />
        <dc:title></dc:title>
      </cc:Work>
    </rdf:RDF>
  </metadata>
  <g
     id="layer1"
     inkscape:label="Layer 1"
     inkscape:groupmode="layer">
    <path
       id="calculator-2-icon"
       d="M 6.198757,10.76645 7.801709,9.1635001 6.198757,7.5605401 7.389903,6.3693198 8.992854,7.9723501 10.595961,6.3693198 11.787107,7.5605401 10.184078,9.1635001 11.787029,10.76645 10.595883,11.95767 8.992777,10.35464 7.389825,11.95767 6.198757,10.76645 z M 9.868039,20.0567 H 8.102913 v 2.0845 H 6.018485 v 1.76521 h 2.084428 v 2.0845 h 1.765126 v -2.0845 h 2.084582 V 22.1412 H 9.868039 V 20.0567 z M 22.935301,7.5034601 c 0.565282,0 1.025165,-0.4598903 1.025165,-1.0251703 0,-0.56528 -0.459883,-1.02516 -1.025165,-1.02516 -0.565282,0 -1.025165,0.45988 -1.025165,1.02516 0,0.56536 0.459883,1.0251703 1.025165,1.0251703 z m 1.025165,4.1916899 c 0,-0.56529 -0.459883,-1.02517 -1.025165,-1.02517 -0.565282,0 -1.025165,0.45988 -1.025165,1.02517 0,0.56528 0.459883,1.02516 1.025165,1.02516 0.565282,0 1.025165,-0.45988 1.025165,-1.02516 z M 20.054602,8.2429501 v 1.65188 h 5.934214 v -1.65188 h -5.934214 z m 0,14.0899399 h 5.934214 v -1.65196 h -5.934214 v 1.65196 z m 0,3.03394 h 5.934214 v -1.65172 h -5.934214 v 1.65172 z M 32,5.8252398 C 32,2.6079998 29.392,-1.5e-7 26.174757,-1.5e-7 H 5.825243 C 2.608,-1.5e-7 0,2.6079998 0,5.8252398 V 26.17476 C 0,29.39192 2.608,32 5.825243,32 H 26.174757 C 29.392,32 32,29.39192 32,26.17476 V 5.8252398 z m -3.106796,0.38835 V 14.83495 H 17.165049 V 3.1067998 h 8.621359 c 1.715883,0 3.106796,1.39091 3.106796,3.10679 z M 6.213592,3.1067998 h 8.621359 V 14.83495 H 3.106796 V 6.2135898 c 0,-1.71588 1.390913,-3.10679 3.106796,-3.10679 z M 3.106796,25.78641 V 17.16505 H 14.834951 V 28.8932 H 6.213592 c -1.715883,0 -3.106796,-1.39091 -3.106796,-3.10679 z M 25.786408,28.8932 H 17.165049 V 17.16505 h 11.728155 v 8.62136 c 0,1.71588 -1.390913,3.10679 -3.106796,3.10679 z"
       inkscape:connector-curvature="0" />
  </g>
</svg>
