<?xml version="1.0" encoding="UTF-8" standalone="no"?>
<!-- Created with Inkscape (http://www.inkscape.org/) -->

<svg
   xmlns:dc="http://purl.org/dc/elements/1.1/"
   xmlns:cc="http://creativecommons.org/ns#"
   xmlns:rdf="http://www.w3.org/1999/02/22-rdf-syntax-ns#"
   xmlns:svg="http://www.w3.org/2000/svg"
   xmlns="http://www.w3.org/2000/svg"
   version="1.1"
   width="32"
   height="32"
   id="svg3105">
  <defs
     id="defs3107" />
  <metadata
     id="metadata3110">
    <rdf:RDF>
      <cc:Work
         rdf:about="">
        <dc:format>image/svg+xml</dc:format>
        <dc:type
           rdf:resource="http://purl.org/dc/dcmitype/StillImage" />
        <dc:title></dc:title>
      </cc:Work>
    </rdf:RDF>
  </metadata>
  <g
     id="layer1">
    <path
       d="m 18.64357,12.36641 c 0.724604,-2.46506 0.418086,-5.16735 -0.918379,-7.43042 0.02936,0.0411 -12.776277,12.95009 -12.86788,12.86906 2.225484,1.31415 4.927774,1.68408 7.359953,1.00528 -0.01762,-0.0622 6.374633,-6.45332 6.426306,-6.44392 z M 16.359366,2.87727 C 14.634175,1.17674 12.16559,0.02349 9.554903,0.02349 4.278332,0.02349 0,4.31239 0,9.60188 c 0,2.58132 1.174398,5.08044 2.830299,6.80329 0.0035,0 13.448033,-13.4175 13.529067,-13.5279 z M 29.87199,28.29125 c 0,0 0.31239,-2.69877 -0.46624,-3.47739 -0.0517,-0.0517 -8.979443,-10.95127 -8.979443,-10.95127 l -6.643571,6.64357 10.899594,9.02995 c 0.72695,0.8303 3.52906,0.41574 3.52906,0.41574 L 30.44275,31.97651 32,30.41926 29.87199,28.29125 z"
       id="path257" />
  </g>
</svg>
