<?xml version="1.0" encoding="UTF-8" standalone="no"?>
<!-- Created with Inkscape (http://www.inkscape.org/) -->

<svg
   xmlns:dc="http://purl.org/dc/elements/1.1/"
   xmlns:cc="http://creativecommons.org/ns#"
   xmlns:rdf="http://www.w3.org/1999/02/22-rdf-syntax-ns#"
   xmlns:svg="http://www.w3.org/2000/svg"
   xmlns="http://www.w3.org/2000/svg"
   version="1.1"
   width="32"
   height="32"
   id="svg3105">
  <defs
     id="defs3107" />
  <metadata
     id="metadata3110">
    <rdf:RDF>
      <cc:Work
         rdf:about="">
        <dc:format>image/svg+xml</dc:format>
        <dc:type
           rdf:resource="http://purl.org/dc/dcmitype/StillImage" />
        <dc:title></dc:title>
      </cc:Work>
    </rdf:RDF>
  </metadata>
  <g
     id="layer1">
    <path
       d="M 26.160192,13.399698 18.59912,5.8386176 c -0.463361,-0.46454 -0.463361,-1.21542 0,-1.67997 0.464542,-0.46455 1.216612,-0.46455 1.681152,0 l 0.84,0.83999 3.781721,-3.78054 c 1.62295,-1.62412997 4.25577,-1.62412997 5.87991,0 1.624129,1.62295 1.624129,4.25696 0,5.87991 l -3.78054,3.7817194 0.83999,0.83999 c 0.46454,0.46455 0.46454,1.21543 0,1.67998 -0.464551,0.46454 -1.21781,0.46454 -1.681161,0 z M 8.3980899,29.481828 c -0.735437,0.735419 -2.57224,-0.78653 -3.35995,0 l -1.996009,1.995999 c -0.695034,0.696231 -1.82373,0.696231 -2.51996103,0 -0.696226,-0.69623 -0.696226,-1.82374 0,-2.519959 l 1.99600303,-1.99601 c 0.787719,-0.78652 -0.735428,-2.62451 0,-3.35995 C 3.2524249,22.865288 18.584857,7.5340376 18.584857,7.5340376 l 5.879915,5.8811004 c 0,0 -15.3312481,15.331249 -16.0666821,16.06669 z M 22.784802,13.415138 18.584857,9.2140176 c 0,0 -13.6524571,13.6524604 -14.3867091,14.3878904 -0.735429,0.73544 0.735442,2.62451 0,3.35995 l -2.83599,2.83481 c -0.23168,0.231679 -0.23168,0.608299 0,0.839979 0.231684,0.23169 0.608304,0.23169 0.839985,0 l 2.835997,-2.83599 c 0.735438,-0.73544 2.624513,0.73543 3.35995,0 0.735434,-0.73544 14.3867131,-14.38552 14.3867131,-14.38552 z"
       id="path257" />
  </g>
</svg>
