<?xml version="1.0" encoding="UTF-8" standalone="no"?>
<!-- Created with Inkscape (http://www.inkscape.org/) -->

<svg
   xmlns:dc="http://purl.org/dc/elements/1.1/"
   xmlns:cc="http://creativecommons.org/ns#"
   xmlns:rdf="http://www.w3.org/1999/02/22-rdf-syntax-ns#"
   xmlns:svg="http://www.w3.org/2000/svg"
   xmlns="http://www.w3.org/2000/svg"
   version="1.1"
   width="32"
   height="32"
   id="svg3251">
  <defs
     id="defs3253" />
  <metadata
     id="metadata3256">
    <rdf:RDF>
      <cc:Work
         rdf:about="">
        <dc:format>image/svg+xml</dc:format>
        <dc:type
           rdf:resource="http://purl.org/dc/dcmitype/StillImage" />
        <dc:title></dc:title>
      </cc:Work>
    </rdf:RDF>
  </metadata>
  <g
     id="layer1">
    <path
       d="M 31.250514,6.4378097 26.250411,2.4377202 c -0.355007,-0.284 -0.797016,-0.43801 -1.250025,-0.43801 H 7.000016 c -0.454009,0 -0.895018,0.15401 -1.250025,0.43801 L 0.74988803,6.4378097 c -0.654014,0.52401 -0.912019,1.40002 -0.647014,2.19504 L 2.102916,14.63297 C 2.29992,15.22399 2.761929,15.69 3.351941,15.892 3.561946,15.964 3.78195,16 3.999955,16 c 0.348007,0 0.693014,-0.091 1.00002,-0.268 v 12.26825 c 0,1.10402 0.896019,2.00004 2.000041,2.00004 h 18.00037 c 1.104022,0 2.000041,-0.89602 2.000041,-2.00004 V 15.732 C 27.307433,15.909 27.65244,16 28.000448,16 c 0.219004,0 0.438009,-0.036 0.648013,-0.108 0.590012,-0.202 1.051021,-0.66801 1.248026,-1.25903 l 2.000041,-6.0001203 c 0.266005,-0.79502 0.008,-1.67103 -0.646014,-2.19504 z m -11.496236,-2.43806 c -0.553012,1.16103 -2.018042,2.00005 -3.754077,2.00005 -1.736036,0 -3.202066,-0.83902 -3.754078,-2.00005 h 7.508155 z M 28.000448,13.99996 25.000386,11.99992 V 28.00025 H 7.000016 V 11.99992 L 3.999955,13.99996 1.999913,7.9998397 7.000016,3.9997497 h 4.177085 c 0.557012,1.72204 2.496052,3.00007 4.8231,3.00007 2.326047,0 4.266087,-1.27803 4.822099,-3.00007 h 4.178086 l 5.000103,4.00009 -2.000041,6.0001203 z"
       id="path257" />
  </g>
</svg>
