<?xml version="1.0" encoding="UTF-8" standalone="no"?>
<!-- Created with Inkscape (http://www.inkscape.org/) -->

<svg
   xmlns:dc="http://purl.org/dc/elements/1.1/"
   xmlns:cc="http://creativecommons.org/ns#"
   xmlns:rdf="http://www.w3.org/1999/02/22-rdf-syntax-ns#"
   xmlns:svg="http://www.w3.org/2000/svg"
   xmlns="http://www.w3.org/2000/svg"
   version="1.1"
   width="32"
   height="32"
   id="svg3105">
  <defs
     id="defs3107" />
  <metadata
     id="metadata3110">
    <rdf:RDF>
      <cc:Work
         rdf:about="">
        <dc:format>image/svg+xml</dc:format>
        <dc:type
           rdf:resource="http://purl.org/dc/dcmitype/StillImage" />
        <dc:title></dc:title>
      </cc:Work>
    </rdf:RDF>
  </metadata>
  <g
     id="layer1">
    <path
       d="M 1.332489,0 C 0.971382,2e-5 0.659373,0.13162 0.395488,0.39549 0.131602,0.65935 0,0.97237 0,1.3335 l 0,8 c 2.2e-5,0.36111 0.131624,0.67312 0.395488,0.937 0.263863,0.26389 0.575873,0.3965 0.937001,0.3965 l 8.001013,0 c 0.361107,-2e-5 0.673116,-0.13263 0.937001,-0.3965 0.263886,-0.26386 0.395488,-0.57587 0.395488,-0.937 l 0,-8 C 10.665969,0.9724 10.534367,0.65937 10.270503,0.39549 10.00664,0.1316 9.69463,0 9.333502,0 L 1.332489,0 z m 21.334009,0 c -0.361107,2e-5 -0.67413,0.13162 -0.938015,0.39549 -0.263886,0.26386 -0.395488,0.57688 -0.395488,0.93801 l 0,8 c 2.2e-5,0.36111 0.131624,0.67312 0.395488,0.937 0.263863,0.26389 0.576887,0.3965 0.938015,0.3965 l 8,0 c 0.361106,-2e-5 0.673115,-0.13263 0.937001,-0.3965 C 31.867384,10.00664 32,9.69463 32,9.3335 l 0,-8 C 31.999978,0.9724 31.867362,0.65937 31.603499,0.39549 31.339635,0.1316 31.027626,0 30.666498,0 l -8,0 z M 1.332489,13.333 c -0.361107,2e-5 -0.673116,0.13263 -0.937001,0.3965 C 0.131602,13.99336 0,14.30537 0,14.6665 l 0,2.667 c 0,2.79172 0.683384,5.30556 2.051464,7.54164 C 3.419545,27.1112 5.322197,28.8579 7.759665,30.1148 10.197133,31.3718 12.944377,32 16,32 c 3.055623,0 5.801853,-0.6282 8.239321,-1.8852 2.437467,-1.2569 4.34012,-3.0035 5.708201,-5.23966 C 31.315603,22.63902 32,20.12518 32,17.3335 l 0,-2.667 c -2.2e-5,-0.36111 -0.132638,-0.67312 -0.396501,-0.937 -0.263864,-0.26389 -0.575873,-0.3965 -0.937001,-0.3965 l -8,0 c -0.361107,2e-5 -0.67413,0.13263 -0.938015,0.3965 -0.263886,0.26386 -0.395488,0.57587 -0.395488,0.937 l 0,2.667 c 0,0.72232 -0.163411,1.34733 -0.489796,1.87502 -0.326384,0.52768 -0.69778,0.9235 -1.114463,1.18747 -0.416683,0.26398 -0.909077,0.47196 -1.478514,0.62467 -0.569437,0.15271 -1.014041,0.24292 -1.333503,0.27076 -0.319461,0.0278 -0.625056,0.0416 -0.916719,0.0416 -0.291663,-5e-5 -0.597258,-0.0138 -0.916719,-0.0416 -0.319462,-0.0278 -0.764066,-0.11796 -1.333503,-0.27076 -0.569437,-0.1528 -1.062845,-0.36078 -1.479528,-0.62467 -0.416683,-0.26388 -0.788079,-0.6597 -1.114463,-1.18747 -0.326385,-0.52777 -0.489796,-1.15278 -0.489796,-1.87502 l 0,-2.667 c -2.2e-5,-0.36111 -0.131624,-0.67312 -0.395488,-0.937 C 10.00664,13.46561 9.69463,13.333 9.333502,13.333 l -8.001013,0 z"
       id="path257" />
  </g>
</svg>
