<?xml version="1.0" encoding="UTF-8" standalone="no"?>
<!-- Created with Inkscape (http://www.inkscape.org/) -->

<svg
   xmlns:dc="http://purl.org/dc/elements/1.1/"
   xmlns:cc="http://creativecommons.org/ns#"
   xmlns:rdf="http://www.w3.org/1999/02/22-rdf-syntax-ns#"
   xmlns:svg="http://www.w3.org/2000/svg"
   xmlns="http://www.w3.org/2000/svg"
   version="1.1"
   width="32"
   height="32"
   id="svg3251">
  <defs
     id="defs3253" />
  <metadata
     id="metadata3256">
    <rdf:RDF>
      <cc:Work
         rdf:about="">
        <dc:format>image/svg+xml</dc:format>
        <dc:type
           rdf:resource="http://purl.org/dc/dcmitype/StillImage" />
        <dc:title></dc:title>
      </cc:Work>
    </rdf:RDF>
  </metadata>
  <g
     id="layer1">
    <path
       d="m 1.0175e-4,17.33335 c 0,1.47331 1.19329605,2.66667 2.66667205,2.66667 h 6.666697 v 9.33328 c 0,1.4733 1.1932962,2.6667 2.6666722,2.6667 1.473376,0 2.666672,-1.1933 2.666672,-2.6667 l -6.5e-5,-9.33328 h 9.339985 c 0.933327,0 1.779987,-0.38669 2.38669,-1.00669 l 4.625991,-4.62671 c 1.30731,-1.30669 1.30731,-3.4267 0,-4.73329 L 26.39336,5.00669 c -0.606638,-0.62 -1.453298,-1.0067 -2.386625,-1.0067 H 14.66675 V 2.66667 C 14.66675,1.19336 13.473453,0 12.000078,0 10.526702,0 9.3334048,1.1933 9.3334048,2.66667 v 1.33332 h -6.666631 c -1.473311,0 -2.66667205,1.1933 -2.66667205,2.66667 v 10.66663 z"
       id="path257" />
  </g>
</svg>
