<?xml version="1.0" encoding="UTF-8" standalone="no"?>
<!-- Created with Inkscape (http://www.inkscape.org/) -->

<svg
   xmlns:dc="http://purl.org/dc/elements/1.1/"
   xmlns:cc="http://creativecommons.org/ns#"
   xmlns:rdf="http://www.w3.org/1999/02/22-rdf-syntax-ns#"
   xmlns:svg="http://www.w3.org/2000/svg"
   xmlns="http://www.w3.org/2000/svg"
   version="1.1"
   width="32"
   height="32"
   id="svg3251">
  <defs
     id="defs3253" />
  <metadata
     id="metadata3256">
    <rdf:RDF>
      <cc:Work
         rdf:about="">
        <dc:format>image/svg+xml</dc:format>
        <dc:type
           rdf:resource="http://purl.org/dc/dcmitype/StillImage" />
        <dc:title></dc:title>
      </cc:Work>
    </rdf:RDF>
  </metadata>
  <g
     id="layer1">
    <path
       d="M 16,0 0,10 H 32 L 16,0 z m 9,12 1,2 v 12 h 4 V 14 l 1,-2 h -6 z m -8,0 1,2 v 12 h 4 V 14 l 1,-2 h -6 z m -8,0 1,2 v 12 h 4 V 14 l 1,-2 H 9 z m -8,0 1,2 V 26 H 6 V 14 L 7,12 H 1 z M 1,28 0,32 H 32 L 31,28 H 1 z M 18,6 c 0,1.10456 -0.895438,2 -2,2 -1.104562,0 -2,-0.89544 -2,-2 0,-1.10456 0.895438,-2 2,-2 1.104562,0 2,0.89544 2,2 z"
       id="path257" />
  </g>
</svg>
