<?xml version="1.0" encoding="UTF-8" standalone="no"?>
<!-- Created with Inkscape (http://www.inkscape.org/) -->

<svg
   xmlns:dc="http://purl.org/dc/elements/1.1/"
   xmlns:cc="http://creativecommons.org/ns#"
   xmlns:rdf="http://www.w3.org/1999/02/22-rdf-syntax-ns#"
   xmlns:svg="http://www.w3.org/2000/svg"
   xmlns="http://www.w3.org/2000/svg"
   version="1.1"
   width="32"
   height="32"
   id="svg3143">
  <defs
     id="defs3145" />
  <metadata
     id="metadata3148">
    <rdf:RDF>
      <cc:Work
         rdf:about="">
        <dc:format>image/svg+xml</dc:format>
        <dc:type
           rdf:resource="http://purl.org/dc/dcmitype/StillImage" />
        <dc:title></dc:title>
      </cc:Work>
    </rdf:RDF>
  </metadata>
  <path
     d="M 25.899,4.101 C 23.255,1.457 19.739,0 16,0 12.261,0 8.745,1.456 6.101,4.101 3.457,6.746 2,10.261 2,14 v 7 c 0,1.657 1.343,3 3,3 1.657,0 3,-1.343 3,-3 V 17 C 8,15.343 6.657,14 5,14 4.665,14 4.343,14.056 4.042,14.157 V 14 C 4.552,7.849 9.72,3 16,3 22.28,3 27.448,7.849 27.958,14 v 0.157 C 27.657,14.056 27.335,14 27,14 c -1.657,0 -3,1.343 -3,3 v 4 c 0,1.657 1.343,3 3,3 0.351,0 0.687,-0.061 1,-0.171 V 27 c 0,0.551 -0.449,1 -1,1 H 21.829 C 21.417,26.835 20.307,26 19,26 c -1.657,0 -3,1.343 -3,3 0,1.657 1.343,3 3,3 1.306,0 2.417,-0.835 2.829,-2 H 27 c 1.654,0 3,-1.346 3,-3 V 14 C 30,10.26 28.544,6.745 25.899,4.101 z"
     id="path4" />
</svg>
