<?xml version="1.0" encoding="UTF-8" standalone="no"?>
<!-- Created with Inkscape (http://www.inkscape.org/) -->

<svg
   xmlns:dc="http://purl.org/dc/elements/1.1/"
   xmlns:cc="http://creativecommons.org/ns#"
   xmlns:rdf="http://www.w3.org/1999/02/22-rdf-syntax-ns#"
   xmlns:svg="http://www.w3.org/2000/svg"
   xmlns="http://www.w3.org/2000/svg"
   xmlns:sodipodi="http://sodipodi.sourceforge.net/DTD/sodipodi-0.dtd"
   xmlns:inkscape="http://www.inkscape.org/namespaces/inkscape"
   width="32px"
   height="32px"
   id="svg3441"
   version="1.1"
   inkscape:version="0.48.4 r9939"
   sodipodi:docname="2163.svg">
  <defs
     id="defs3443" />
  <sodipodi:namedview
     id="base"
     pagecolor="#ffffff"
     bordercolor="#666666"
     borderopacity="1.0"
     inkscape:pageopacity="0.0"
     inkscape:pageshadow="2"
     inkscape:zoom="11.197802"
     inkscape:cx="15.329734"
     inkscape:cy="16.100586"
     inkscape:current-layer="layer1"
     showgrid="true"
     inkscape:grid-bbox="true"
     inkscape:document-units="px"
     inkscape:window-width="1600"
     inkscape:window-height="848"
     inkscape:window-x="0"
     inkscape:window-y="0"
     inkscape:window-maximized="1" />
  <metadata
     id="metadata3446">
    <rdf:RDF>
      <cc:Work
         rdf:about="">
        <dc:format>image/svg+xml</dc:format>
        <dc:type
           rdf:resource="http://purl.org/dc/dcmitype/StillImage" />
        <dc:title></dc:title>
      </cc:Work>
    </rdf:RDF>
  </metadata>
  <g
     id="layer1"
     inkscape:label="Layer 1"
     inkscape:groupmode="layer">
    <path
       d="m 25.823156,0.77532879 c -0.478947,0.003 -1.012788,0.46543001 -1.159657,0.94036001 l -0.219294,0.50363 -0.195135,0.45718 -0.957089,1.39288 -2.85547,3.5728096 c 1.24351,1.3286 2.789786,2.3284 4.684161,3.1574996 l 0.936646,-0.7406 0.455314,-0.3047996 0.219294,0 0.651378,0.3465996 c 1.460157,0.7869 3.528428,0.656 4.226988,-1.0229996 l 0.152391,-0.3689 c 0.242219,-0.5885 0.477793,-1.3739 -0.262038,-1.76369 l -0.237879,-0.0437 c -0.676794,-0.13089 -1.437567,-0.0673 -1.937408,-0.58726 l -0.763813,-0.82886 C 27.951952,4.8333084 27.188779,4.0941288 26.580464,3.6790988 l 0.06412,-0.60957 0.131019,-0.56682 c 0.131517,-0.50397 -0.195231,-1.45955 -0.694122,-1.67908001 -0.0821,-0.0338 -0.169627,-0.0489 -0.258321,-0.0483 z M 0.87379977,6.0263084 l -0.498987,0.0251 c -0.764154,0 -0.219978,3.22058 0.39027,5.1831796 0.28289603,0.871 0.74095403,1.2398 0.78704303,1.4133 l -0.110577,0.1514 c -1.59072203,2.2215 -1.13320803,4.4649 -0.56681903,6.774 0.17311603,0.719 0.91282103,1.7424 0.30385203,3.1603 l -0.30385203,0.7145 c -0.67617,1.1549 -0.84997,3.1394 -0.520359,4.4463 l 0.216506,0.8465 c 0.282897,1.1334 0.87111103,2.4838 2.20037503,2.4838 0.566389,0 1.369727,-0.242 1.155012,-0.9357 l -0.698768,-2.1353 c -0.283849,-0.8464 2.08e-4,-4.9634 0.698768,-4.7474 l -0.0223,2.2877 c 0.279685,1.6336 0.935337,3.8761 1.739485,4.2029 l 1.13271,0.4766 c 1.522868,0.6557 1.372016,-1.391 0.805628,-2.2198 l -0.716423,-1.4598 c -0.351049,-0.4989 -0.372704,-1.4564 -0.28341,-1.6977 l 0.10593,-0.3039 1.352934,-3.5077 0.238807,-1.5444 c 0.08769,-0.5658 -0.110427,-1.4377 0.629077,-1.5471 l 1.6372722,-0.2175 c 2.284792,1.2192 4.311427,1.786 7.251575,2.5479 l 0.367968,0.9562 c -0.06461,1.7641 -0.303749,2.5505 -0.4135,3.8126 l -0.15332,1.8519 c -0.235499,1.2829 -0.630355,3.0918 2.095374,3.0032 0.892461,0.1315 1.826773,-0.8919 0.997975,-1.6113 -1.176309,-0.6093 -0.956792,-1.3703 -0.782397,-2.2003 l 0.956159,-4.3748 0.219295,4.5281 c 0.04288,2.31 -0.565668,4.335 3.156534,3.7475 0.892491,-0.4352 0.567236,-1.3498 0.109648,-1.5908 -0.719345,-0.2179 -1.239012,-0.2826 -1.218198,-1.1968 l -0.04367,-0.893 c -0.08864,-1.8947 0.04297,-3.8117 0.432084,-5.6636 l 0.220223,-1.0463 c 0.54495,-2.5881 1.176301,-3.5488 0.608634,-7.8806 -2.08991,-0.7616 -3.354747,-1.6549 -4.81425,-3.1146996 l -1.260941,0.7833 c -0.630378,0.3933 -1.238782,0.8504996 -1.95878,1.0443996 l -1.938337,0.525 -11.0632042,-0.1096 c -1.527358,0.3472 -1.154327,-4.9675696 -2.44104203,-4.9675696 z"
       id="path265"
       inkscape:connector-curvature="0" />
  </g>
</svg>
