<?xml version="1.0" encoding="UTF-8" standalone="no"?>
<!-- Created with Inkscape (http://www.inkscape.org/) -->

<svg
   xmlns:dc="http://purl.org/dc/elements/1.1/"
   xmlns:cc="http://creativecommons.org/ns#"
   xmlns:rdf="http://www.w3.org/1999/02/22-rdf-syntax-ns#"
   xmlns:svg="http://www.w3.org/2000/svg"
   xmlns="http://www.w3.org/2000/svg"
   xmlns:sodipodi="http://sodipodi.sourceforge.net/DTD/sodipodi-0.dtd"
   xmlns:inkscape="http://www.inkscape.org/namespaces/inkscape"
   width="32px"
   height="32px"
   id="svg2985"
   version="1.1"
   inkscape:version="0.48.4 r9939"
   sodipodi:docname="2157.svg">
  <defs
     id="defs2987" />
  <sodipodi:namedview
     id="base"
     pagecolor="#ffffff"
     bordercolor="#666666"
     borderopacity="1.0"
     inkscape:pageopacity="0.0"
     inkscape:pageshadow="2"
     inkscape:zoom="11.197802"
     inkscape:cx="5.6854758"
     inkscape:cy="16"
     inkscape:current-layer="layer1"
     showgrid="true"
     inkscape:grid-bbox="true"
     inkscape:document-units="px"
     inkscape:window-width="1600"
     inkscape:window-height="848"
     inkscape:window-x="0"
     inkscape:window-y="0"
     inkscape:window-maximized="1" />
  <metadata
     id="metadata2990">
    <rdf:RDF>
      <cc:Work
         rdf:about="">
        <dc:format>image/svg+xml</dc:format>
        <dc:type
           rdf:resource="http://purl.org/dc/dcmitype/StillImage" />
        <dc:title></dc:title>
      </cc:Work>
    </rdf:RDF>
  </metadata>
  <g
     id="layer1"
     inkscape:label="Layer 1"
     inkscape:groupmode="layer">
    <path
       d="m 25.412284,0 c -3.639038,0 -6.588471,2.94976 -6.588471,6.58847 0,0.82528 0.193275,1.62529 0.470078,2.35295 L 3.7646245,24.47101 c 0,-1.88191 0,-5.6467 0,-7.52928 0,-2.82368 1.882575,-3.76479 1.882575,-3.76479 l 1.882247,1.88225 c 0,0 0,-5.01983 0,-7.52928 0,-1.88255 -0.941107,-0.94111 -1.882247,0 -5.647364,5.64703 -5.647364,5.59489 -5.647364,9.41153 v 13.17631 c 0,0.94111 0.941107,1.88225 1.882247,1.88225 H 15.058728 c 3.816969,0 6.902075,-3.13696 9.411825,-5.64704 0.941435,-0.94048 1.882246,-1.85822 0,-1.88224 h -7.528954 l 1.882247,1.88224 c 0,0 -0.941436,1.8832 -3.765118,1.8832 -1.882247,0 -5.6470355,0 -7.5292815,0 L 23.05904,12.70624 c 0.72769,0.27713 1.527668,0.47074 2.353277,0.47074 3.638381,0 6.587847,-2.94977 6.587847,-6.58848 0,-3.63871 -2.949433,-6.58847 -6.587847,-6.58847 v 0 z m 0,3.76482 c 1.559048,0 2.823353,1.26431 2.823353,2.82368 0,1.55938 -1.264305,2.82369 -2.823353,2.82369 -1.559673,0 -2.823354,-1.26431 -2.823354,-2.82369 0,-1.55937 1.263681,-2.82368 2.823354,-2.82368 z"
       id="path257"
       inkscape:connector-curvature="0" />
  </g>
</svg>
