<?xml version="1.0" encoding="UTF-8" standalone="no"?>
<!-- Created with Inkscape (http://www.inkscape.org/) -->

<svg
   xmlns:dc="http://purl.org/dc/elements/1.1/"
   xmlns:cc="http://creativecommons.org/ns#"
   xmlns:rdf="http://www.w3.org/1999/02/22-rdf-syntax-ns#"
   xmlns:svg="http://www.w3.org/2000/svg"
   xmlns="http://www.w3.org/2000/svg"
   xmlns:sodipodi="http://sodipodi.sourceforge.net/DTD/sodipodi-0.dtd"
   xmlns:inkscape="http://www.inkscape.org/namespaces/inkscape"
   width="32px"
   height="32px"
   id="svg3441"
   version="1.1"
   inkscape:version="0.48.4 r9939"
   sodipodi:docname="2162.svg">
  <defs
     id="defs3443" />
  <sodipodi:namedview
     id="base"
     pagecolor="#ffffff"
     bordercolor="#666666"
     borderopacity="1.0"
     inkscape:pageopacity="0.0"
     inkscape:pageshadow="2"
     inkscape:zoom="11.197802"
     inkscape:cx="15.329734"
     inkscape:cy="16.100586"
     inkscape:current-layer="layer1"
     showgrid="true"
     inkscape:grid-bbox="true"
     inkscape:document-units="px"
     inkscape:window-width="1600"
     inkscape:window-height="848"
     inkscape:window-x="0"
     inkscape:window-y="0"
     inkscape:window-maximized="1" />
  <metadata
     id="metadata3446">
    <rdf:RDF>
      <cc:Work
         rdf:about="">
        <dc:format>image/svg+xml</dc:format>
        <dc:type
           rdf:resource="http://purl.org/dc/dcmitype/StillImage" />
        <dc:title></dc:title>
      </cc:Work>
    </rdf:RDF>
  </metadata>
  <g
     id="layer1"
     inkscape:label="Layer 1"
     inkscape:groupmode="layer">
    <path
       d="M 24.466885,8.46656 C 20.909776,8.46656 17.647688,11.80705 16,13.82751 14.351985,11.80701 11.090224,8.46656 7.533115,8.46656 3.379201,8.46656 0,11.84609 0,16 c 0,4.15391 3.379201,7.53344 7.533115,7.53344 3.557109,0 6.81887,-3.34049 8.466885,-5.36128 1.647361,2.0205 4.90945,5.36128 8.466885,5.36128 C 28.620472,23.53344 32,20.15391 32,16 32,11.84609 28.620472,8.46656 24.466885,8.46656 z M 7.533115,20.91745 c -2.711345,0 -4.917453,-2.2064 -4.917453,-4.91745 0,-2.71167 2.206075,-4.91775 4.917453,-4.91775 2.526414,0 5.430399,3.07935 6.848957,4.91775 -1.418884,1.83905 -4.322576,4.91745 -6.848957,4.91745 z m 16.93377,0 c -2.527034,0 -5.432,-3.08065 -6.849937,-4.91905 1.415356,-1.83873 4.314246,-4.9168 6.849937,-4.9168 2.711672,0 4.917127,2.20607 4.917127,4.91775 0,2.71199 -2.205455,4.91807 -4.917127,4.91807 z"
       id="path257"
       inkscape:connector-curvature="0" />
  </g>
</svg>
