<?xml version="1.0" encoding="UTF-8" standalone="no"?>
<!-- Created with Inkscape (http://www.inkscape.org/) -->

<svg
   xmlns:dc="http://purl.org/dc/elements/1.1/"
   xmlns:cc="http://creativecommons.org/ns#"
   xmlns:rdf="http://www.w3.org/1999/02/22-rdf-syntax-ns#"
   xmlns:svg="http://www.w3.org/2000/svg"
   xmlns="http://www.w3.org/2000/svg"
   version="1.1"
   width="32"
   height="32"
   id="svg3143">
  <defs
     id="defs3145" />
  <metadata
     id="metadata3148">
    <rdf:RDF>
      <cc:Work
         rdf:about="">
        <dc:format>image/svg+xml</dc:format>
        <dc:type
           rdf:resource="http://purl.org/dc/dcmitype/StillImage" />
        <dc:title></dc:title>
      </cc:Work>
    </rdf:RDF>
  </metadata>
  <path
     d="m 8.5333335,0 c -1.178667,0 -2.133334,0.954667 -2.133334,2.133333 l 0,14.933334 -4.266666,0 0,4.266666 2.133333,0 0,10.666667 4.266667,0 0,-4.266667 14.9333335,0 0,4.266667 4.266666,0 0,-10.666667 2.133333,0 0,-4.266666 -4.266666,0 0,-14.933334 C 25.600001,0.954667 24.645334,0 23.466667,0 22.288001,0 21.333334,0.954667 21.333334,2.133333 l 0,2.133334 -10.666667,0 0,-2.133334 C 10.666667,0.954667 9.7119995,0 8.5333335,0 z m 2.1333335,6.4 10.666667,0 0,2.133333 -10.666667,0 0,-2.133333 z m 0,4.266667 10.666667,0 0,2.133333 -10.666667,0 0,-2.133333 z m 0,4.266666 10.666667,0 0,2.133334 -10.666667,0 0,-2.133334 z m -2.1333335,6.4 14.9333335,0 0,4.266667 -14.9333335,0 0,-4.266667 z"
     id="path4" />
</svg>
