<?xml version="1.0" encoding="UTF-8" standalone="no"?>
<!-- Created with Inkscape (http://www.inkscape.org/) -->

<svg
   xmlns:dc="http://purl.org/dc/elements/1.1/"
   xmlns:cc="http://creativecommons.org/ns#"
   xmlns:rdf="http://www.w3.org/1999/02/22-rdf-syntax-ns#"
   xmlns:svg="http://www.w3.org/2000/svg"
   xmlns="http://www.w3.org/2000/svg"
   xmlns:sodipodi="http://sodipodi.sourceforge.net/DTD/sodipodi-0.dtd"
   xmlns:inkscape="http://www.inkscape.org/namespaces/inkscape"
   version="1.1"
   width="32"
   height="32"
   id="svg3251"
   inkscape:version="0.91 r13725"
   sodipodi:docname="2165.svg">
  <sodipodi:namedview
     pagecolor="#ffffff"
     bordercolor="#666666"
     borderopacity="1"
     objecttolerance="10"
     gridtolerance="10"
     guidetolerance="10"
     inkscape:pageopacity="0"
     inkscape:pageshadow="2"
     inkscape:window-width="1920"
     inkscape:window-height="1027"
     id="namedview7"
     showgrid="false"
     units="px"
     width="32in"
     inkscape:zoom="4"
     inkscape:cx="20"
     inkscape:cy="16"
     inkscape:window-x="0"
     inkscape:window-y="0"
     inkscape:window-maximized="1"
     inkscape:current-layer="svg3251" />
  <defs
     id="defs3253" />
  <metadata
     id="metadata3256">
    <rdf:RDF>
      <cc:Work
         rdf:about="">
        <dc:format>image/svg+xml</dc:format>
        <dc:type
           rdf:resource="http://purl.org/dc/dcmitype/StillImage" />
        <dc:title></dc:title>
      </cc:Work>
    </rdf:RDF>
  </metadata>
  <g
     id="g4"
     transform="matrix(1.038961,0,0,1.038961,-9.974025,-9.974025)">
    <path
       d="m 25,21.5 c 0.7,0 1.2,-0.6 1.2,-1.2 l 0,-2.3 c 0,-0.7 -0.6,-1.2 -1.2,-1.2 -0.6,0 -1.2,0.6 -1.2,1.2 l 0,2.3 c 0,0.6 0.5,1.2 1.2,1.2 z"
       id="path6"
       inkscape:connector-curvature="0"
       style="fill:#000000" />
    <path
       d="m 18,22.5 c 0.2,0.4 0.7,0.6 1.1,0.6 0.2,0 0.4,-0.1 0.6,-0.2 0.6,-0.3 0.8,-1.1 0.5,-1.7 l -1.2,-2 c -0.3,-0.6 -1.1,-0.8 -1.7,-0.5 -0.6,0.3 -0.8,1.1 -0.5,1.7 l 1.2,2.1 z"
       id="path8"
       inkscape:connector-curvature="0"
       style="fill:#000000" />
    <path
       d="m 12.1,26.1 2,1.2 c 0.2,0.1 0.4,0.2 0.6,0.2 0.4,0 0.9,-0.2 1.1,-0.6 0.3,-0.6 0.1,-1.4 -0.5,-1.7 l -2,-1.2 c -0.6,-0.3 -1.4,-0.1 -1.7,0.5 -0.3,0.5 -0.1,1.2 0.5,1.6 z"
       id="path10"
       inkscape:connector-curvature="0"
       style="fill:#000000" />
    <path
       d="m 39.2,30.8 -4.8,0 c -0.6,-4.6 -4.6,-8.2 -9.4,-8.2 -4.8,0 -8.8,3.6 -9.4,8.2 l -4.8,0 c -0.7,0 -1.2,0.6 -1.2,1.2 0,0.6 0.6,1.2 1.2,1.2 l 28.4,0 c 0.7,0 1.2,-0.6 1.2,-1.2 0,-0.6 -0.5,-1.2 -1.2,-1.2 z M 25,25.1 c 3.4,0 6.3,2.5 6.8,5.7 l -13.6,0 c 0.5,-3.2 3.4,-5.7 6.8,-5.7 z"
       id="path12"
       inkscape:connector-curvature="0"
       style="fill:#000000" />
    <path
       d="m 35.3,27.4 c 0.2,0 0.4,-0.1 0.6,-0.2 l 2,-1.2 c 0.6,-0.3 0.8,-1.1 0.5,-1.7 -0.3,-0.6 -1.1,-0.8 -1.7,-0.5 l -2,1.2 c -0.6,0.3 -0.8,1.1 -0.5,1.7 0.2,0.5 0.6,0.7 1.1,0.7 z"
       id="path14"
       inkscape:connector-curvature="0"
       style="fill:#000000" />
    <path
       d="m 30.3,22.9 c 0.2,0.1 0.4,0.2 0.6,0.2 0.4,0 0.9,-0.2 1.1,-0.6 l 1.2,-2 c 0.3,-0.6 0.1,-1.4 -0.5,-1.7 -0.6,-0.3 -1.4,-0.1 -1.7,0.5 l -1.2,2 c -0.3,0.5 -0.1,1.3 0.5,1.6 z"
       id="path16"
       inkscape:connector-curvature="0"
       style="fill:#000000" />
  </g>
</svg>
