<?xml version="1.0" encoding="UTF-8" standalone="no"?>
<!-- Created with Inkscape (http://www.inkscape.org/) -->

<svg
   xmlns:dc="http://purl.org/dc/elements/1.1/"
   xmlns:cc="http://creativecommons.org/ns#"
   xmlns:rdf="http://www.w3.org/1999/02/22-rdf-syntax-ns#"
   xmlns:svg="http://www.w3.org/2000/svg"
   xmlns="http://www.w3.org/2000/svg"
   xmlns:sodipodi="http://sodipodi.sourceforge.net/DTD/sodipodi-0.dtd"
   xmlns:inkscape="http://www.inkscape.org/namespaces/inkscape"
   width="32px"
   height="32px"
   id="svg3441"
   version="1.1"
   inkscape:version="0.48.4 r9939"
   sodipodi:docname="2167.svg">
  <defs
     id="defs3443" />
  <sodipodi:namedview
     id="base"
     pagecolor="#ffffff"
     bordercolor="#666666"
     borderopacity="1.0"
     inkscape:pageopacity="0.0"
     inkscape:pageshadow="2"
     inkscape:zoom="11.197802"
     inkscape:cx="15.329734"
     inkscape:cy="12.528457"
     inkscape:current-layer="layer1"
     showgrid="true"
     inkscape:grid-bbox="true"
     inkscape:document-units="px"
     inkscape:window-width="1600"
     inkscape:window-height="848"
     inkscape:window-x="0"
     inkscape:window-y="0"
     inkscape:window-maximized="1" />
  <metadata
     id="metadata3446">
    <rdf:RDF>
      <cc:Work
         rdf:about="">
        <dc:format>image/svg+xml</dc:format>
        <dc:type
           rdf:resource="http://purl.org/dc/dcmitype/StillImage" />
        <dc:title></dc:title>
      </cc:Work>
    </rdf:RDF>
  </metadata>
  <g
     id="layer1"
     inkscape:label="Layer 1"
     inkscape:groupmode="layer">
    <path
       d="M 27.145648,0.38900149 26.716779,2.9653015 c 0.343095,0.009 0.672623,0.0747 0.978069,0.19026 l 0.434012,-2.60304001 -0.983212,-0.16352 z m 3.596538,0.26123 -2.381922,2.85707001 c 0.273423,0.19378 0.513417,0.43246 0.708612,0.70553 l 2.437459,-2.92496 -0.764149,-0.63764001 z m -6.147128,0.59445001 -0.89065,0.44532 0.995553,1.99111 c 0.253874,-0.21688 0.542412,-0.39121 0.85671,-0.51423 l -0.961613,-1.9222 z m -0.06582,2.87764 c -0.116191,6e-5 -0.232318,0.007 -0.348649,0.0185 -1.626652,0.16107 -2.600525,1.4002 -2.814906,1.70314 l -2.070298,2.48374 -0.967784,-0.7117 -1.351402,1.83684 c -5.01117,-2.53368 -11.2630539,-1.15639 -14.6998349,3.5173495 -3.829999,5.2085 -2.71344905,12.53491 2.495054,16.36491 5.208503,3.83 12.5359129,2.71206 16.3659459,-2.49608 3.256133,-4.42805 2.934199,-10.38613 -0.436069,-14.42626 l 1.456305,-1.97979 -1.254726,-0.9235695 2.020932,-2.42408 0.05862,-0.0782 c 0.0061,-0.008 0.57065,-0.81011 1.407967,-0.88551 0.615104,-0.0569 1.305409,0.29131 2.044587,1.03053 l 1.407967,-1.409 c -1.075566,-1.07557 -2.19053,-1.62144 -3.313711,-1.62086 z m 4.926342,0.91945 c 0.110943,0 0.174839,0.49744 0.174839,0.99555 l 2.369581,0 0,-0.99555 -2.54442,0 z m -0.05451,2.05487 c -0.130129,0.3111 -0.312611,0.59413 -0.533772,0.84231 l 2.507395,1.43162 0.493662,-0.86391 -2.467285,-1.41002 z m -5.388122,0.27871 -1.709307,1.70931 0.704498,0.7045 1.62703,-1.62806 c -0.248543,-0.22508 -0.460793,-0.48886 -0.622221,-0.78575 z m 1.013037,1.16011 0,2.9815195 0.996582,0 0,-2.6225895 c 0,-0.0604 -0.498114,-0.18329 -0.996582,-0.35893 z m 3.108018,10e-4 c -0.293696,0.16923 -0.61777,0.29089 -0.962642,0.35276 l 1.545781,2.3181595 0.828942,-0.55229 -1.412081,-2.1186295 z"
       id="path257"
       inkscape:connector-curvature="0" />
  </g>
</svg>
