<?xml version="1.0" encoding="UTF-8" standalone="no"?>
<!-- Created with Inkscape (http://www.inkscape.org/) -->

<svg
   xmlns:dc="http://purl.org/dc/elements/1.1/"
   xmlns:cc="http://creativecommons.org/ns#"
   xmlns:rdf="http://www.w3.org/1999/02/22-rdf-syntax-ns#"
   xmlns:svg="http://www.w3.org/2000/svg"
   xmlns="http://www.w3.org/2000/svg"
   xmlns:sodipodi="http://sodipodi.sourceforge.net/DTD/sodipodi-0.dtd"
   xmlns:inkscape="http://www.inkscape.org/namespaces/inkscape"
   width="32px"
   height="32px"
   id="svg3441"
   version="1.1"
   inkscape:version="0.48.4 r9939"
   sodipodi:docname="2168.svg">
  <defs
     id="defs3443" />
  <sodipodi:namedview
     id="base"
     pagecolor="#ffffff"
     bordercolor="#666666"
     borderopacity="1.0"
     inkscape:pageopacity="0.0"
     inkscape:pageshadow="2"
     inkscape:zoom="11.197802"
     inkscape:cx="15.329734"
     inkscape:cy="12.528457"
     inkscape:current-layer="layer1"
     showgrid="true"
     inkscape:grid-bbox="true"
     inkscape:document-units="px"
     inkscape:window-width="1600"
     inkscape:window-height="848"
     inkscape:window-x="0"
     inkscape:window-y="0"
     inkscape:window-maximized="1" />
  <metadata
     id="metadata3446">
    <rdf:RDF>
      <cc:Work
         rdf:about="">
        <dc:format>image/svg+xml</dc:format>
        <dc:type
           rdf:resource="http://purl.org/dc/dcmitype/StillImage" />
        <dc:title></dc:title>
      </cc:Work>
    </rdf:RDF>
  </metadata>
  <g
     id="layer1"
     inkscape:label="Layer 1"
     inkscape:groupmode="layer">
    <path
       d="M 15.994792,0 C 7.172857,0 0,7.17318 0,15.99479 0,24.81607 7.172824,32 15.994792,32 24.817086,32 32,24.81607 32,15.99479 32,7.17286 24.816727,0 15.994792,0 z m 0,2.48158 c 7.451611,0 13.513207,6.0616 13.513207,13.51318 0,7.45128 -6.061596,13.51321 -13.513207,13.51321 -7.451284,0 -13.513207,-6.06193 -13.513207,-13.51321 0,-7.45161 6.061923,-13.51318 13.513207,-13.51318 z m -8.091206,6.13099 0.750744,1.32422 5.599206,5.85987 c -0.0073,0.0657 -0.02087,0.13038 -0.02087,0.1981 0,0.97095 0.790842,1.76212 1.762121,1.76212 0.971606,0 1.762121,-0.7912 1.762121,-1.76212 6.86e-4,-0.97197 -0.790515,-1.76212 -1.762121,-1.76212 -0.152813,0 -0.296451,0.0259 -0.437934,0.0626 L 9.446734,9.18608 7.903548,8.61261 z"
       id="path257"
       inkscape:connector-curvature="0" />
  </g>
</svg>
