<?xml version="1.0" encoding="UTF-8" standalone="no"?>
<!-- Created with Inkscape (http://www.inkscape.org/) -->

<svg
   xmlns:dc="http://purl.org/dc/elements/1.1/"
   xmlns:cc="http://creativecommons.org/ns#"
   xmlns:rdf="http://www.w3.org/1999/02/22-rdf-syntax-ns#"
   xmlns:svg="http://www.w3.org/2000/svg"
   xmlns="http://www.w3.org/2000/svg"
   version="1.1"
   width="32"
   height="32"
   id="svg3015">
  <defs
     id="defs3017" />
  <metadata
     id="metadata3020">
    <rdf:RDF>
      <cc:Work
         rdf:about="">
        <dc:format>image/svg+xml</dc:format>
        <dc:type
           rdf:resource="http://purl.org/dc/dcmitype/StillImage" />
        <dc:title></dc:title>
      </cc:Work>
    </rdf:RDF>
  </metadata>
  <g
     id="layer1">
    <g
       transform="matrix(0.37089409,0,0,0.37089409,21.516474,4.998234)"
       id="Captions" />
    <g
       transform="matrix(0.37089409,0,0,0.37089409,-2.5806812,-2.8751711)"
       id="Your_Icon">
      <path
         d="m 57.566,60.932 c -2.19,1.279 -4.738,2.017 -7.458,2.017 -2.698,0 -5.227,-0.727 -7.405,-1.986 L 28.58,85.422 c 6.334,3.652 13.682,5.742 21.517,5.742 7.864,0 15.237,-2.107 21.586,-5.783 L 57.566,60.932 z"
         id="path6" />
      <path
         d="M 42.756,35.21 28.538,10.618 c -12.9,7.458 -21.58,21.35 -21.58,37.322 0,0.037 10e-4,0.06 10e-4,0.06 h 28.337 c 0,-6 3.004,-10.235 7.46,-12.79 z"
         id="path8" />
      <path
         d="M 71.726,10.692 57.514,35.241 C 61.94,37.803 64.921,42 64.921,48 h 28.313 c 0,0 0.002,-0.007 0.002,-0.044 0,-15.941 -8.649,-29.796 -21.51,-37.264 z"
         id="path10" />
      <circle
         cx="50.108002"
         cy="48.134998"
         r="7.454"
         id="circle12" />
    </g>
  </g>
</svg>
