<?xml version="1.0" encoding="UTF-8" standalone="no"?>
<!-- Created with Inkscape (http://www.inkscape.org/) -->

<svg
   xmlns:dc="http://purl.org/dc/elements/1.1/"
   xmlns:cc="http://creativecommons.org/ns#"
   xmlns:rdf="http://www.w3.org/1999/02/22-rdf-syntax-ns#"
   xmlns:svg="http://www.w3.org/2000/svg"
   xmlns="http://www.w3.org/2000/svg"
   version="1.1"
   width="32"
   height="32"
   id="svg3015">
  <defs
     id="defs3017" />
  <metadata
     id="metadata3020">
    <rdf:RDF>
      <cc:Work
         rdf:about="">
        <dc:format>image/svg+xml</dc:format>
        <dc:type
           rdf:resource="http://purl.org/dc/dcmitype/StillImage" />
        <dc:title></dc:title>
      </cc:Work>
    </rdf:RDF>
  </metadata>
  <g
     id="layer1">
    <g
       transform="translate(12.383454,-38.308802)"
       id="Captions" />
    <g
       transform="matrix(0.42355402,0,0,0.42355402,-5.1505087,-5.9714412)"
       id="Your_Icon">
      <g
         id="g6">
        <path
           d="m 67.217,22.427 c -5.306,-3.102 -11.113,-4.575 -16.859,-4.575 -11.685,0.001 -23.107,6.099 -29.483,17.01 -9.496,16.243 -4.163,37.046 11.938,46.452 5.301,3.099 11.106,4.571 16.85,4.571 11.683,0 23.104,-6.095 29.466,-16.988 9.51,-16.277 4.177,-37.068 -11.912,-46.47 z m -1.753,2.996 -10.818,18.511 c -2.805,-1.64 -6.28,-1.639 -9.118,-0.003 L 35.08,25.405 c 9.453,-5.449 21.035,-5.445 30.384,0.018 z M 34.557,78.312 C 25.208,72.849 19.518,62.765 19.627,51.849 l 21.267,0.012 c -0.031,3.275 1.676,6.301 4.479,7.941 L 34.557,78.312 z M 46.92,57.156 c -2.892,-1.689 -3.85,-5.426 -2.145,-8.344 1.709,-2.923 5.434,-3.923 8.324,-2.233 2.89,1.689 3.848,5.424 2.14,8.348 -1.705,2.918 -5.43,3.919 -8.319,2.229 z M 64.938,78.328 54.489,59.807 c 2.834,-1.635 4.602,-4.662 4.635,-7.932 l 21.267,0.009 C 80.284,62.797 74.393,72.879 64.938,78.328 z"
           id="path8"
           style="fill:none" />
        <path
           d="m 53.1,46.579 c -2.891,-1.689 -6.615,-0.689 -8.324,2.233 -1.705,2.918 -0.747,6.654 2.145,8.344 2.889,1.689 6.614,0.688 8.319,-2.229 1.707,-2.924 0.749,-6.658 -2.14,-8.348 z"
           id="path10" />
        <path
           d="M 69.055,18.974 C 63.324,15.623 57,13.852 50,13.852 v 0.008 c -13.336,0.127 -25.795,7.449 -32.579,19.058 -5.129,8.773 -6.568,18.966 -4.051,28.767 2.521,9.818 8.709,18.011 17.424,23.103 5.726,3.348 12.25,5.108 18.867,5.108 13.472,0 25.996,-7.274 32.83,-18.976 C 93.094,52.775 87.016,29.47 69.055,18.974 z M 79.127,68.896 C 72.765,79.79 61.344,85.885 49.661,85.885 43.918,85.885 38.112,84.412 32.811,81.314 16.71,71.908 11.377,51.105 20.873,34.862 27.249,23.951 38.672,17.853 50.356,17.852 c 5.746,0 11.554,1.474 16.859,4.575 16.091,9.402 21.424,30.193 11.912,46.469 z"
           id="path12" />
        <path
           d="M 54.646,43.934 65.463,25.423 C 56.114,19.96 44.532,19.956 35.079,25.405 L 45.527,43.93 c 2.839,-1.635 6.315,-1.636 9.119,0.004 z"
           id="path14" />
        <path
           d="m 59.124,51.875 c -0.033,3.27 -1.801,6.297 -4.635,7.932 L 64.937,78.328 C 74.392,72.879 80.284,62.797 80.39,51.884 L 59.124,51.875 z"
           id="path16" />
        <path
           d="M 40.894,51.861 19.627,51.85 c -0.109,10.916 5.581,21 14.93,26.463 l 10.816,-18.51 c -2.804,-1.641 -4.511,-4.666 -4.479,-7.942 z"
           id="path18" />
      </g>
    </g>
  </g>
</svg>
