<?xml version="1.0" encoding="UTF-8" standalone="no"?>
<!-- Created with Inkscape (http://www.inkscape.org/) -->

<svg
   xmlns:dc="http://purl.org/dc/elements/1.1/"
   xmlns:cc="http://creativecommons.org/ns#"
   xmlns:rdf="http://www.w3.org/1999/02/22-rdf-syntax-ns#"
   xmlns:svg="http://www.w3.org/2000/svg"
   xmlns="http://www.w3.org/2000/svg"
   version="1.1"
   width="32"
   height="32"
   id="svg3015">
  <defs
     id="defs3017" />
  <metadata
     id="metadata3020">
    <rdf:RDF>
      <cc:Work
         rdf:about="">
        <dc:format>image/svg+xml</dc:format>
        <dc:type
           rdf:resource="http://purl.org/dc/dcmitype/StillImage" />
        <dc:title></dc:title>
      </cc:Work>
    </rdf:RDF>
  </metadata>
  <g
     id="layer1">
    <g
       transform="matrix(1.509434,0,0,1.509434,4.0754714,-0.7547174)"
       id="Page-1"
       style="fill:none;stroke:none">
      <g
         transform="translate(-130,-209)"
         id="Icons-Device"
         style="fill:#000000">
        <g
           transform="translate(131,209.5)"
           id="usb">
          <path
             d="m 10,6 0,4 1,0 0,2 L 8,12 8,4 10,4 7,0 4,4 6,4 6,12 3,12 3,9.9 C 3.7,9.6 4.2,8.8 4.2,8 4.2,6.8 3.2,5.8 2,5.8 0.8,5.8 -0.2,6.8 -0.2,8 -0.2,8.8 0.3,9.6 1,9.9 L 1,12 c 0,1.1 0.9,2 2,2 l 3,0 0,3.1 c -0.7,0.4 -1.2,1.1 -1.2,1.9 0,1.2 1,2.2 2.2,2.2 1.2,0 2.2,-1 2.2,-2.2 0,-0.9 -0.5,-1.6 -1.2,-1.9 l 0,-3.1 3,0 c 1.1,0 2,-0.9 2,-2 l 0,-2 1,0 0,-4 -4,0 0,0 z"
             id="Shape" />
        </g>
      </g>
    </g>
  </g>
</svg>
