<?xml version="1.0" encoding="UTF-8" standalone="no"?>
<!-- Created with Inkscape (http://www.inkscape.org/) -->

<svg
   xmlns:dc="http://purl.org/dc/elements/1.1/"
   xmlns:cc="http://creativecommons.org/ns#"
   xmlns:rdf="http://www.w3.org/1999/02/22-rdf-syntax-ns#"
   xmlns:svg="http://www.w3.org/2000/svg"
   xmlns="http://www.w3.org/2000/svg"
   version="1.1"
   width="32"
   height="32"
   id="svg2998">
  <defs
     id="defs3000" />
  <metadata
     id="metadata3003">
    <rdf:RDF>
      <cc:Work
         rdf:about="">
        <dc:format>image/svg+xml</dc:format>
        <dc:type
           rdf:resource="http://purl.org/dc/dcmitype/StillImage" />
        <dc:title></dc:title>
      </cc:Work>
    </rdf:RDF>
  </metadata>
  <g
     id="layer1">
    <g
       transform="matrix(0.32,0,0,0.32,0,-300.18448)"
       id="layer1-6">
      <path
         d="M 45.238,954.743 0,980.933 h 9.524 v 4.762 28.571 4.763 c 0,2.381 2.124,4.762 4.762,4.762 h 14.286 v -23.81 c 0,-2.638 2.124,-4.762 4.762,-4.762 h 33.334 c 2.638,0 4.679,2.125 4.762,4.762 v 23.81 h 14.285 c 2.639,0 4.762,-2.123 4.762,-4.762 v -4.763 -28.571 -4.762 H 100 l -45.239,-26.19 c -2.034,-1.178 -4.037,-2.378 -4.761,-2.381 -0.723,-0.002 -2.695,1.184 -4.762,2.381 l 0,0 z m -11.905,45.238 v 4.762 h 33.334 v -4.762 H 33.333 z m 0,9.524 v 4.761 h 33.334 v -4.761 H 33.333 z m 0,9.524 v 4.762 h 33.334 v -4.762 H 33.333 z"
         id="path4181" />
    </g>
  </g>
</svg>
