<?xml version="1.0" encoding="UTF-8" standalone="no"?>
<!-- Created with Inkscape (http://www.inkscape.org/) -->

<svg
   xmlns:dc="http://purl.org/dc/elements/1.1/"
   xmlns:cc="http://creativecommons.org/ns#"
   xmlns:rdf="http://www.w3.org/1999/02/22-rdf-syntax-ns#"
   xmlns:svg="http://www.w3.org/2000/svg"
   xmlns="http://www.w3.org/2000/svg"
   version="1.1"
   width="32"
   height="32"
   id="svg2996">
  <defs
     id="defs2998" />
  <metadata
     id="metadata3001">
    <rdf:RDF>
      <cc:Work
         rdf:about="">
        <dc:format>image/svg+xml</dc:format>
        <dc:type
           rdf:resource="http://purl.org/dc/dcmitype/StillImage" />
        <dc:title></dc:title>
      </cc:Work>
    </rdf:RDF>
  </metadata>
  <g
     id="layer1">
    <g
       transform="matrix(0.31999996,0,0,0.31999996,4.0802242e-6,2.6162704)"
       id="g2990">
      <path
         d="M 84.274,43.753 M 90.925,28.696 82.728,7.529 C 81.195,3.477 77.845,0.029 71.505,0 H 59.945 40.188 28.427 C 22.116,0.029 18.766,3.477 17.205,7.529 L 9.006,28.696 C 5.751,29.116 -0.01,32.941 0,40.187 v 26.951 h 7.999 v 8.603 c -0.02,10.606 14.989,10.48 14.985,0 V 67.138 H 50 76.948 v 8.603 c 0.033,10.48 15.042,10.606 15.052,0 v -8.603 h 8 V 40.187 C 99.975,32.941 94.21,29.116 90.925,28.696 z M 15.727,50.874 c -3.834,0.011 -6.938,-3.187 -6.922,-7.12 -0.016,-3.96 3.088,-7.161 6.922,-7.128 3.822,-0.033 6.926,3.168 6.921,7.128 0.005,3.933 -3.1,7.13 -6.921,7.12 z M 50,28.497 H 49.933 17.541 l 6.182,-16.668 c 0.746,-2.366 1.904,-4.059 4.639,-4.1 H 49.933 50 71.64 c 2.693,0.041 3.854,1.733 4.636,4.1 l 6.183,16.668 H 50 z m 34.274,22.377 c -3.861,0.011 -6.967,-3.187 -6.988,-7.12 0.021,-3.96 3.127,-7.161 6.988,-7.128 3.795,-0.033 6.898,3.168 6.922,7.128 -0.024,3.933 -3.127,7.13 -6.922,7.12 z M 15.727,43.753"
         id="path7" />
    </g>
  </g>
</svg>
