<?xml version="1.0" encoding="UTF-8" standalone="no"?>
<!-- Created with Inkscape (http://www.inkscape.org/) -->

<svg
   xmlns:dc="http://purl.org/dc/elements/1.1/"
   xmlns:cc="http://creativecommons.org/ns#"
   xmlns:rdf="http://www.w3.org/1999/02/22-rdf-syntax-ns#"
   xmlns:svg="http://www.w3.org/2000/svg"
   xmlns="http://www.w3.org/2000/svg"
   version="1.1"
   width="32"
   height="32"
   id="svg2996">
  <defs
     id="defs2998" />
  <metadata
     id="metadata3001">
    <rdf:RDF>
      <cc:Work
         rdf:about="">
        <dc:format>image/svg+xml</dc:format>
        <dc:type
           rdf:resource="http://purl.org/dc/dcmitype/StillImage" />
        <dc:title></dc:title>
      </cc:Work>
    </rdf:RDF>
  </metadata>
  <g
     id="layer1">
    <path
       d="M 31.779603,15.945859 C 31.643282,14.620528 31.643282,14.811142 31.144402,13.376247 30.635601,11.922451 29.561679,9.0766884 28.793678,7.3938344 28.007116,5.6923984 27.173835,4.2386024 26.565834,3.3422334 25.963273,2.4465054 25.802953,2.3699394 25.233032,2.1223004 24.644231,1.8692154 23.89095,1.9121434 23.137028,1.8647304 22.388547,1.7974544 21.606466,1.7644574 20.772865,1.7644574 h -9.495056 c -0.852481,0 -1.6534423,0.033 -2.4022433,0.09995 -0.758082,0.04741 -1.530563,0.0045 -2.100484,0.25757 -0.579201,0.247318 -0.744001,0.323884 -1.332802,1.219933 -0.621761,0.896369 -1.441282,2.350165 -2.223364,4.0516 -0.776961,1.682854 -1.850883,4.5286176 -2.35008302,5.9824136 -0.504001,1.434895 -0.522561,1.24428 -0.640322,2.569612 -0.12736,1.334622 -0.36768,3.865471 -0.12288,5.276659 0.231361,1.363455 0.805442,2.288016 1.52160302,2.955327 0.710721,0.662185 1.615362,1.005932 2.731524,1.029959 -0.06144,1.406062 -0.06144,2.492726 0,3.279211 0.03296,0.777515 -0.02336,1.120301 0.320001,1.415673 0.34848,0.281597 1.239042,0.295693 1.780163,0.3194 0.53248,0.03332 1.106881,0.01922 1.398722,-0.190935 0.27328,-0.238028 0.19328,-0.419672 0.24992,-1.225379 0.04704,-0.828773 0.0752,-2.030446 0.06592,-3.66012 H 23.739589 c 0.03776,1.629674 0.08544,2.831347 0.160321,3.66012 0.06144,0.806027 -0.02336,0.987351 0.25408,1.225379 0.287681,0.209836 0.843841,0.224253 1.394242,0.190935 0.527361,-0.02371 1.417283,-0.0378 1.780163,-0.3194 0.329601,-0.295372 0.273601,-0.638158 0.320321,-1.415673 0.05184,-0.786485 0.05184,-1.873469 0,-3.279211 1.111682,-0.02403 2.016003,-0.367454 2.732164,-1.029959 0.711041,-0.667311 1.280962,-1.591872 1.525763,-2.955327 0.21696,-1.411188 0.0054,-3.942037 -0.12704,-5.276339 z M 4.7171587,21.733814 c -1.648323,0 -2.986245,-1.354164 -2.986245,-3.021961 0,-1.668438 1.337602,-3.022282 2.986245,-3.022282 1.648002,0 2.985605,1.353844 2.985605,3.022282 0,1.667797 -1.337603,3.021961 -2.985605,3.021961 z M 20.247744,21.155243 H 11.76549 c -0.886082,0 -1.604162,-0.489831 -1.604162,-1.094031 0,-0.60388 0.71808,-1.093712 1.604162,-1.093712 h 8.482254 c 0.886081,0 1.604162,0.489832 1.604162,1.093712 0,0.6042 -0.718401,1.094031 -1.604162,1.094031 z m 0,-2.960132 H 11.76549 c -0.886082,0 -1.604162,-0.48855 -1.604162,-1.091468 0,-0.602919 0.71808,-1.091469 1.604162,-1.091469 h 8.482254 c 0.886081,0 1.604162,0.48855 1.604162,1.091469 0,0.602918 -0.718401,1.091468 -1.604162,1.091468 z m 1.358722,-5.720038 c -2.472964,0.0093 -8.864014,0.0093 -11.308178,0 -2.4259243,-0.01922 -2.2137643,0.01954 -3.1792053,-0.06663 -0.975362,-0.08618 -2.114884,-0.166913 -2.604805,-0.447869 -0.48992,-0.305624 -0.43328,-0.649051 -0.32,-1.287529 0.11744,-0.653536 0.527361,-1.6203836 0.955841,-2.5737766 0.414401,-0.972295 1.022082,-2.402705 1.460163,-3.151067 0.414401,-0.752848 0.616961,-1.010417 1.078402,-1.286889 0.45696,-0.281276 1.026881,-0.323884 1.653442,-0.386034 0.612481,-0.08105 1.2905623,-0.09547 2.0345633,-0.06247 h 9.255375 c 0.739202,-0.033 1.417923,-0.01858 2.034244,0.06247 0.612161,0.06183 1.182082,0.104437 1.653442,0.386034 0.457281,0.276472 0.640321,0.534041 1.078722,1.286889 0.438081,0.748362 1.035842,2.178772 1.464323,3.151067 0.40032,0.953393 0.838401,1.9202406 0.951361,2.5737766 0.10368,0.638478 0.16032,0.981905 -0.32,1.287529 -0.504001,0.280956 -1.620163,0.362007 -2.604485,0.447864 -0.989441,0.08618 -0.848321,0.04773 -3.283205,0.06663 z m 5.686409,9.258741 c -1.648322,0 -2.986245,-1.354164 -2.986245,-3.021961 0,-1.668438 1.337923,-3.022282 2.986245,-3.022282 1.648003,0 2.985925,1.353844 2.985925,3.022282 3.2e-4,1.667797 -1.337602,3.021961 -2.985925,3.021961 z"
       id="path3"
       style="fill-rule:evenodd" />
  </g>
</svg>
