<?xml version="1.0" encoding="UTF-8" standalone="no"?>
<!-- Created with Inkscape (http://www.inkscape.org/) -->

<svg
   xmlns:dc="http://purl.org/dc/elements/1.1/"
   xmlns:cc="http://creativecommons.org/ns#"
   xmlns:rdf="http://www.w3.org/1999/02/22-rdf-syntax-ns#"
   xmlns:svg="http://www.w3.org/2000/svg"
   xmlns="http://www.w3.org/2000/svg"
   version="1.1"
   width="32"
   height="32"
   id="svg2996">
  <defs
     id="defs2998" />
  <metadata
     id="metadata3001">
    <rdf:RDF>
      <cc:Work
         rdf:about="">
        <dc:format>image/svg+xml</dc:format>
        <dc:type
           rdf:resource="http://purl.org/dc/dcmitype/StillImage" />
        <dc:title></dc:title>
      </cc:Work>
    </rdf:RDF>
  </metadata>
  <g
     id="layer1">
    <path
       d="m 31.997687,23.378659 -0.264669,-5.746811 c -0.04194,-0.905162 -0.643848,-1.614862 -1.371584,-1.614862 -0.08766,0 -0.164842,-0.0055 -0.228178,-0.013 v -1.901762 c 0,-0.08137 -0.0084,-0.159808 -0.01971,-0.237825 0.667336,-0.331781 1.159764,-1.031834 1.159764,-1.697492 0,-0.819176 -0.736545,-1.485673 -1.641706,-1.485673 h -1.36739 c -0.168616,0 -0.330103,0.02684 -0.482781,0.07466 L 27.001266,6.3013915 c -0.04111,-0.234889 -0.132125,-0.454678 -0.258797,-0.651817 0.03062,-0.124575 0.04782,-0.254603 0.04782,-0.389244 v -0.401409 c 0,-0.905161 -0.736126,-1.641287 -1.641287,-1.641287 H 6.8507214 c -0.905161,0 -1.641287,0.736126 -1.641287,1.641287 v 0.401409 c 0,0.134222 0.0172,0.26425 0.04782,0.389244 -0.126672,0.197139 -0.217692,0.416928 -0.259217,0.651817 l -0.780167,4.4545025 c -0.152678,-0.04782 -0.314583,-0.07466 -0.482361,-0.07466 h -1.367809 c -0.905162,0 -1.64128699,0.666497 -1.64128699,1.485673 0,0.665239 0.49242799,1.365292 1.15934499,1.697492 -0.01132,0.0776 -0.01929,0.156453 -0.01929,0.237825 v 1.901762 c -0.06376,0.0075 -0.140094,0.013 -0.227758,0.013 -0.72773699,0 -1.33005899,0.7097 -1.37200399,1.614862 l -0.26425,5.746811 c -0.02433,0.533115 0.132964,1.017993 0.431609,1.330479 0.205947,0.216433 0.471875,0.335136 0.74828899,0.335136 h 0.957173 v 2.096804 c 0,0.905162 0.736125,1.641287 1.641287,1.641287 h 1.641287 c 0.905161,0 1.641287,-0.736125 1.641287,-1.641287 V 25.044274 H 24.935505 v 2.096804 c 0,0.905162 0.736126,1.641287 1.640868,1.641287 h 1.641706 c 0.904743,0 1.640868,-0.736125 1.640868,-1.641287 v -2.096804 h 0.957592 c 0.276834,0 0.542342,-0.118702 0.748289,-0.335135 0.299484,-0.312486 0.456356,-0.797784 0.432867,-1.330479 z M 5.9694684,27.141078 c 0,0.302 -0.245375,0.547376 -0.546956,0.547376 h -1.641287 c -0.30158,0 -0.546956,-0.245376 -0.546956,-0.547376 v -2.096804 h 2.735199 v 2.096804 z m -0.554086,-6.895251 c -1.154312,0 -2.090093,-0.870767 -2.090093,-1.944965 0,-1.073778 0.935781,-1.944126 2.090093,-1.944126 1.153892,0 2.090092,0.870348 2.090092,1.944126 0,1.074198 -0.935781,1.944965 -2.090092,1.944965 z M 21.539254,20.148937 H 10.668507 c -0.151,0 -0.273478,-0.122477 -0.273478,-0.273058 0,-0.15142 0.122478,-0.273478 0.273478,-0.273478 h 10.870747 c 0.151,0 0.273478,0.122059 0.273478,0.273478 0,0.150581 -0.122478,0.273058 -0.273478,0.273058 z m 0,-1.39717 H 10.668507 c -0.151,0 -0.273478,-0.122897 -0.273478,-0.273478 0,-0.151 0.122478,-0.273478 0.273478,-0.273478 h 10.870747 c 0.151,0 0.273478,0.122478 0.273478,0.273478 0,0.150581 -0.122478,0.273478 -0.273478,0.273478 z m 0,-1.397589 H 10.668507 c -0.151,0 -0.273478,-0.122478 -0.273478,-0.273478 0,-0.150581 0.122478,-0.273478 0.273478,-0.273478 h 10.870747 c 0.151,0 0.273478,0.122897 0.273478,0.273478 0,0.151 -0.122478,0.273478 -0.273478,0.273478 z m 2.085059,-4.2603 c -0.514658,0 -1.109431,-0.06418 -1.48022,-0.160228 l -4.948188,-1.276791 c -0.23489,-0.0604 -0.52179,-0.100667 -0.83134,-0.118703 v -0.627489 c 0.284384,-0.08347 0.984856,-1.0137975 0.752484,-1.2465895 -0.232792,-0.232372 -0.741578,0.123736 -1.117401,0.4089585 -0.387567,-0.2965475 -0.855667,-0.6698525 -1.116981,-0.4085385 -0.261314,0.261314 0.471037,1.1639585 0.752064,1.2465885 v 0.627489 c -0.30913,0.01804 -0.59645,0.0583 -0.831339,0.118703 l -4.9477686,1.27637 c -0.371209,0.09605 -0.966401,0.160228 -1.48064,0.160228 -0.176167,0 -0.338492,-0.008 -0.468939,-0.02223 l -2.918496,-0.326748 c 0,-0.02643 0.0021,-0.05411 0.0071,-0.08263 l 1.081328,-6.1725475 c 0.0583,-0.333039 0.406022,-0.624973 0.744095,-0.624973 H 25.178744 c 0.338073,0 0.685792,0.291934 0.743676,0.624973 l 1.081328,6.1725475 c 0.005,0.0281 0.0071,0.05579 0.0076,0.08263 l -2.918915,0.326748 c -0.130028,0.01468 -0.291934,0.02223 -0.468101,0.02223 z m 0.869509,5.206986 c 0,-1.073778 0.935781,-1.944126 2.090093,-1.944126 1.154312,0 2.089673,0.870348 2.089673,1.944126 0,1.074198 -0.935361,1.944965 -2.089673,1.944965 -1.154312,0 -2.090093,-0.870767 -2.090093,-1.944965 z m 4.271625,8.840216 c 0,0.302 -0.245375,0.547375 -0.546956,0.547375 h -1.641707 c -0.30158,0 -0.546955,-0.245375 -0.546955,-0.547375 v -2.096804 h 2.735198 v 2.096804 z"
       id="path3" />
  </g>
</svg>
