<?xml version="1.0" encoding="UTF-8" standalone="no"?>
<!-- Created with Inkscape (http://www.inkscape.org/) -->

<svg
   xmlns:dc="http://purl.org/dc/elements/1.1/"
   xmlns:cc="http://creativecommons.org/ns#"
   xmlns:rdf="http://www.w3.org/1999/02/22-rdf-syntax-ns#"
   xmlns:svg="http://www.w3.org/2000/svg"
   xmlns="http://www.w3.org/2000/svg"
   version="1.1"
   width="32"
   height="32"
   id="svg2996">
  <defs
     id="defs2998" />
  <metadata
     id="metadata3001">
    <rdf:RDF>
      <cc:Work
         rdf:about="">
        <dc:format>image/svg+xml</dc:format>
        <dc:type
           rdf:resource="http://purl.org/dc/dcmitype/StillImage" />
        <dc:title></dc:title>
      </cc:Work>
    </rdf:RDF>
  </metadata>
  <g
     id="layer1">
    <g
       transform="translate(32.938176,-55.907533)"
       id="Captions" />
    <g
       transform="matrix(0.32,0,0,0.32,0,-0.06512)"
       id="Your_Icon">
      <path
         d="M 93.151,39.049 87.928,12.963 C 87.31,9.982 83.824,5 76.746,5 H 50.305 23.863 C 16.788,5 13.188,9.982 12.69,12.963 L 7.153,39.352 C 3.803,39.971 0,43.02 0,46.619 v 22.098 c 0,3.227 4,5.961 4,6.949 v 16.139 c 3,2.113 5.334,3.602 8.314,3.602 2.855,0 5.686,-1.615 8.686,-3.602 V 76.287 L 33.67,77 H 50.305 66.94 L 80,76.287 v 15.518 c 3,1.986 5.893,3.602 8.75,3.602 2.855,0 5.25,-1.488 8.25,-3.602 V 75.666 c 0,-0.988 3,-3.723 3,-6.949 V 46.619 c 0,-3.599 -3.619,-6.951 -6.849,-7.57 z M 79.231,34.955 50.304,33.709 21.381,34.955 c -5.217,0.244 -7.823,-1.367 -7.075,-6.211 l 1.488,-7.562 C 17.532,12.738 26.349,12 35.286,12 h 15.019 14.897 c 9.062,0 17.875,0.738 19.612,9.182 l 1.367,7.752 c 0.745,4.843 -1.862,6.265 -6.95,6.021 z"
         id="path6"
         style="fill-rule:evenodd" />
      <path
         d="m 26.221,21.297 c 0,2.107 1.118,4.094 2.609,5.211 0,0.125 0.125,0.5 -0.124,0.621 -0.993,1.246 -7.57,2.734 -7.947,4.592 -0.121,0.5 -0.37,1.244 -0.246,1.244 0.374,0 11.793,-0.496 12.167,-0.496 0.37,0 9.806,-0.373 10.176,-0.373 0.128,-0.125 0.128,-0.246 -0.121,-0.869 -0.868,-1.861 -6.209,-3.102 -7.448,-3.971 -0.249,-0.248 -0.249,-0.623 -0.125,-0.748 1.492,-1.117 2.36,-3.104 2.36,-5.211 0,-3.602 -2.484,-6.457 -5.59,-6.457 -3.226,0 -5.711,2.855 -5.711,6.457"
         id="path8"
         style="fill-rule:evenodd" />
      <path
         d="m 74.14,21.297 c 0,2.107 -1.118,4.094 -2.606,5.211 0,0.125 -0.125,0.5 0,0.748 1.118,1.119 7.698,2.607 8.068,4.465 0.125,0.5 0.249,1.244 0.125,1.244 -0.246,0 -11.793,-0.496 -12.039,-0.496 -0.377,0 -9.81,-0.373 -10.184,-0.373 -0.121,-0.125 -0.121,-0.246 0,-0.869 0.869,-1.861 6.331,-3.102 7.574,-3.971 0.249,-0.248 0.249,-0.623 0.124,-0.748 -1.488,-1.117 -2.485,-2.977 -2.485,-5.211 0,-3.602 2.61,-6.457 5.712,-6.457 3.229,0 5.711,2.855 5.711,6.457"
         id="path10"
         style="fill-rule:evenodd" />
    </g>
  </g>
</svg>
