<?xml version="1.0" encoding="UTF-8" standalone="no"?>
<!-- Created with Inkscape (http://www.inkscape.org/) -->

<svg
   xmlns:dc="http://purl.org/dc/elements/1.1/"
   xmlns:cc="http://creativecommons.org/ns#"
   xmlns:rdf="http://www.w3.org/1999/02/22-rdf-syntax-ns#"
   xmlns:svg="http://www.w3.org/2000/svg"
   xmlns="http://www.w3.org/2000/svg"
   version="1.1"
   width="32"
   height="32"
   id="svg2996">
  <defs
     id="defs2998" />
  <metadata
     id="metadata3001">
    <rdf:RDF>
      <cc:Work
         rdf:about="">
        <dc:format>image/svg+xml</dc:format>
        <dc:type
           rdf:resource="http://purl.org/dc/dcmitype/StillImage" />
        <dc:title></dc:title>
      </cc:Work>
    </rdf:RDF>
  </metadata>
  <g
     id="layer1">
    <g
       transform="translate(14.581066,-55.640473)"
       id="Layer_2" />
    <path
       d="m 21.208215,0.24246965 v -0.07767 c 0,-0.09084 -0.07396,-0.164799 -0.164461,-0.164799 h -2.30617 c -0.09118,0 -0.165136,0.07396 -0.165136,0.164799 v 0.06349 h -7.46795 c -1.373773,0 -2.491568,1.11745705 -2.491568,2.49089175 v 1.851622 H 8.507229 c -0.09084,0 -0.164461,0.07396 -0.164461,0.164799 v 1.044176 c 0,0.09084 0.07362,0.164461 0.164461,0.164461 H 8.61293 v 1.74761 H 8.507229 c -0.09084,0 -0.164461,0.07362 -0.164461,0.164798 v 0.623061 c 0,0.09118 0.07362,0.164799 0.164461,0.164799 H 8.61293 V 10.216511 H 8.507229 c -0.09084,0 -0.164461,0.07396 -0.164461,0.165137 v 0.623061 c 0,0.09084 0.07362,0.164461 0.164461,0.164461 H 8.61293 v 18.339599 c 0,1.373097 1.117795,2.49123 2.491568,2.49123 h 9.839971 c 1.373098,0 2.712763,-1.118133 2.712763,-2.49123 V 2.7195164 C 23.65757,1.4338837 22.484054,0.37316065 21.208215,0.24246965 z M 16.134574,1.4929817 c 0.145213,0 0.263071,0.1178577 0.263071,0.2630697 0,0.145212 -0.118196,0.26307 -0.263071,0.26307 -0.145212,0 -0.26307,-0.117858 -0.26307,-0.26307 0,-0.145212 0.117858,-0.2630697 0.26307,-0.2630697 z m -1.143122,1.1924266 h 2.286583 c 0.17189,0 0.312712,0.121573 0.312712,0.271851 0,0.149939 -0.140822,0.271512 -0.312712,0.271512 h -2.286583 c -0.172228,0 -0.312375,-0.121573 -0.312375,-0.271512 -3.37e-4,-0.14994 0.139809,-0.271851 0.312375,-0.271851 z m 1.154267,28.3727387 c -0.743621,0 -1.346082,-0.603474 -1.346082,-1.346757 0,-0.743283 0.602461,-1.346081 1.346082,-1.346081 0.743283,0 1.346419,0.602798 1.346419,1.346081 0,0.743283 -0.603136,1.346757 -1.346419,1.346757 z m 6.407564,-3.578969 H 9.717217 V 4.7693693 H 22.553283 V 27.479178 z"
       id="path4" />
  </g>
</svg>
