<?xml version="1.0" encoding="UTF-8" standalone="no"?>
<!-- Created with Inkscape (http://www.inkscape.org/) -->

<svg
   xmlns:dc="http://purl.org/dc/elements/1.1/"
   xmlns:cc="http://creativecommons.org/ns#"
   xmlns:rdf="http://www.w3.org/1999/02/22-rdf-syntax-ns#"
   xmlns:svg="http://www.w3.org/2000/svg"
   xmlns="http://www.w3.org/2000/svg"
   version="1.1"
   width="32"
   height="32"
   id="svg2996">
  <defs
     id="defs2998" />
  <metadata
     id="metadata3001">
    <rdf:RDF>
      <cc:Work
         rdf:about="">
        <dc:format>image/svg+xml</dc:format>
        <dc:type
           rdf:resource="http://purl.org/dc/dcmitype/StillImage" />
        <dc:title></dc:title>
      </cc:Work>
    </rdf:RDF>
  </metadata>
  <g
     id="layer1">
    <path
       d="M 24.27655,17.446141 C 23.040187,16.025212 21.57853,16.323232 19.893843,14.757818 19.057964,13.981091 19.13748,9.147152 19.13748,9.147152 c 0,0 -0.06271,-4.191354 0.795798,-5.050182 0.593454,-0.592162 1.635555,-0.745374 2.242585,-1.341414 0.0058,-0.0042 0.0097,-0.0081 0.0139,-0.01358 0.131233,-0.131233 0.237576,-0.285738 0.316122,-0.46901 0.0097,-0.01939 0.02036,-0.03426 0.02715,-0.05333 0.05333,-0.139636 0.0821,-0.303515 0.09729,-0.48 0.0042,-0.04525 0.02586,-0.08339 0.02586,-0.128646 0,-0.0081 -0.0042,-0.01487 -0.0055,-0.02327 0.0013,-0.01228 0.0055,-0.02166 0.0055,-0.03394 0,-0.03006 -0.02295,-0.04525 -0.02586,-0.07273 C 22.560185,0.654869 21.888833,0 21.045197,0 H 10.95453 c -0.843636,0 -1.5153125,0.654869 -1.5848075,1.481051 -0.0029,0.02715 -0.02618,0.04234 -0.02618,0.07273 0,0.01228 0.0042,0.02166 0.0055,0.03394 -0.0013,0.0084 -0.0055,0.01519 -0.0055,0.02327 0,0.04525 0.02198,0.08339 0.02618,0.128646 0.01487,0.176162 0.04364,0.340364 0.09697,0.48 0.0068,0.01907 0.01778,0.03394 0.02747,0.05333 0.0779,0.183272 0.184566,0.337777 0.315798,0.46901 0.0042,0.0055 0.0081,0.0094 0.01358,0.01358 0.6070305,0.596363 1.6491315,0.749252 2.2425855,1.341414 0.858828,0.858828 0.795798,5.050182 0.795798,5.050182 0,0 0.07952,4.833939 -0.756364,5.610666 -1.684363,1.565414 -3.1460195,1.267394 -4.3820595,2.688323 -0.875313,1.006546 -0.71499,2.800485 -0.71499,2.800485 h 8.2976965 v 7.311839 L 15.926813,32 h 0.147717 l 0.620929,-4.441535 v -7.311839 h 8.296081 c 0,0 0.16,-1.793939 -0.71499,-2.800485 z"
       id="path3" />
  </g>
</svg>
