<?xml version="1.0" encoding="UTF-8" standalone="no"?>
<!-- Created with Inkscape (http://www.inkscape.org/) -->

<svg
   xmlns:dc="http://purl.org/dc/elements/1.1/"
   xmlns:cc="http://creativecommons.org/ns#"
   xmlns:rdf="http://www.w3.org/1999/02/22-rdf-syntax-ns#"
   xmlns:svg="http://www.w3.org/2000/svg"
   xmlns="http://www.w3.org/2000/svg"
   version="1.1"
   width="32"
   height="32"
   id="svg2996">
  <defs
     id="defs2998" />
  <metadata
     id="metadata3001">
    <rdf:RDF>
      <cc:Work
         rdf:about="">
        <dc:format>image/svg+xml</dc:format>
        <dc:type
           rdf:resource="http://purl.org/dc/dcmitype/StillImage" />
        <dc:title></dc:title>
      </cc:Work>
    </rdf:RDF>
  </metadata>
  <g
     id="layer1">
    <g
       transform="matrix(0.33684211,0,0,0.33684211,-0.83233708,-0.67368444)"
       id="g3">
      <path
         d="m 89.971,2 h -80 c -3.59,0 -6.5,2.91 -6.5,6.5 v 82 c 0,3.59 2.91,6.5 6.5,6.5 h 80 c 3.59,0 6.5,-2.91 6.5,-6.5 v -82 c 0,-3.59 -2.91,-6.5 -6.5,-6.5 z m 5.5,88.5 c 0,3.037 -2.463,5.5 -5.5,5.5 h -80 c -3.038,0 -5.5,-2.463 -5.5,-5.5 V 8.5 C 4.471,5.462 6.933,3 9.971,3 h 80 c 3.037,0 5.5,2.462 5.5,5.5 v 82 z"
         id="path5" />
      <path
         d="M 85.535,7 H 57.971 v 7.669 c 6,2.947 9.359,8.744 9.359,15.402 0,9.632 -7.719,17.469 -17.352,17.469 -9.633,0 -17.396,-7.837 -17.396,-17.469 0,-6.659 3.388,-12.456 9.388,-15.402 V 7 H 14.277 c -3.3,0 -6.306,2.95 -6.306,6.25 v 73.588 c 0,3.3 3.006,6.162 6.306,6.162 h 71.258 c 3.299,0 6.436,-2.862 6.436,-6.162 V 13.25 C 91.971,9.95 88.834,7 85.535,7 z"
         id="path7" />
      <path
         d="M 48.999,32.709 V 45 h 2 V 32.709 c 1,-0.405 1.796,-1.429 1.796,-2.638 0,-1.563 -1.281,-2.828 -2.845,-2.828 -1.563,0 -2.804,1.265 -2.804,2.828 0,1.21 0.853,2.234 1.853,2.638 z"
         id="path9" />
      <path
         d="m 60.59,30.5 c 0,0.276 0.225,0.5 0.5,0.5 h 3.986 c 0.275,0 0.5,-0.224 0.5,-0.5 0,-0.276 -0.225,-0.5 -0.5,-0.5 H 61.09 c -0.276,0 -0.5,0.224 -0.5,0.5 z"
         id="path11" />
      <path
         d="m 39.351,30.5 c 0,-0.276 -0.224,-0.5 -0.5,-0.5 h -3.985 c -0.276,0 -0.5,0.224 -0.5,0.5 0,0.276 0.224,0.5 0.5,0.5 h 3.985 c 0.276,0 0.5,-0.224 0.5,-0.5 z"
         id="path13" />
      <path
         d="m 49.971,19.452 c 0.276,0 0.5,-0.224 0.5,-0.5 v -3.985 c 0,-0.276 -0.224,-0.5 -0.5,-0.5 -0.276,0 -0.5,0.224 -0.5,0.5 v 3.985 c 0,0.277 0.223,0.5 0.5,0.5 z"
         id="path15" />
      <path
         d="m 57.832,22.71 c 0.128,0 0.256,-0.049 0.354,-0.146 l 2.82,-2.818 c 0.195,-0.195 0.195,-0.512 0,-0.707 -0.195,-0.195 -0.512,-0.195 -0.707,0 l -2.82,2.818 c -0.195,0.195 -0.195,0.512 0,0.707 0.097,0.097 0.225,0.146 0.353,0.146 z"
         id="path17" />
      <path
         d="m 39.289,41.251 c 0.128,0 0.256,-0.049 0.354,-0.146 l 2.82,-2.818 c 0.195,-0.195 0.195,-0.512 0,-0.707 -0.195,-0.195 -0.512,-0.195 -0.707,0 l -2.82,2.818 c -0.195,0.195 -0.195,0.512 0,0.707 0.097,0.098 0.225,0.146 0.353,0.146 z"
         id="path19" />
      <path
         d="m 60.297,41.107 c 0.098,0.098 0.226,0.146 0.354,0.146 0.128,0 0.256,-0.049 0.354,-0.146 0.195,-0.195 0.195,-0.512 0,-0.707 l -2.818,-2.82 c -0.195,-0.195 -0.512,-0.195 -0.707,0 -0.195,0.195 -0.195,0.512 0,0.707 l 2.817,2.82 z"
         id="path21" />
      <path
         d="m 38.937,19.036 c -0.195,0.195 -0.195,0.512 0,0.707 l 2.818,2.82 c 0.098,0.098 0.226,0.146 0.354,0.146 0.128,0 0.256,-0.049 0.354,-0.146 0.195,-0.195 0.195,-0.512 0,-0.707 l -2.818,-2.82 c -0.196,-0.195 -0.513,-0.195 -0.708,0 z"
         id="path23" />
    </g>
  </g>
</svg>
