<?xml version="1.0" encoding="UTF-8" standalone="no"?>
<!-- Created with Inkscape (http://www.inkscape.org/) -->

<svg
   xmlns:dc="http://purl.org/dc/elements/1.1/"
   xmlns:cc="http://creativecommons.org/ns#"
   xmlns:rdf="http://www.w3.org/1999/02/22-rdf-syntax-ns#"
   xmlns:svg="http://www.w3.org/2000/svg"
   xmlns="http://www.w3.org/2000/svg"
   version="1.1"
   width="32"
   height="32"
   id="svg2996">
  <defs
     id="defs2998" />
  <metadata
     id="metadata3001">
    <rdf:RDF>
      <cc:Work
         rdf:about="">
        <dc:format>image/svg+xml</dc:format>
        <dc:type
           rdf:resource="http://purl.org/dc/dcmitype/StillImage" />
        <dc:title></dc:title>
      </cc:Work>
    </rdf:RDF>
  </metadata>
  <g
     id="layer1">
    <g
       transform="matrix(0.99874589,0,0,0.99874589,-0.00408027,-57.901156)"
       id="Layer_x0020_1"
       style="fill-rule:evenodd">
      <metadata
         id="CorelCorpID_0Corel-Layer" />
      <path
         d="m 14.008975,59.877403 c -0.585973,0 -1.052725,0.476778 -1.052725,1.062752 0,0.08451 0.0013,0.161828 0.02005,0.240623 l -8.3115198,9.564764 -4.23095443,0 c -0.23176259,0 -0.47945658,0.196867 -0.42109025,0.42109 l 0.28072684,1.102855 c 0.058366,0.224224 0.19030048,0.421443 0.42109025,0.421091 L 31.343857,72.640448 c 0.23079,-3.66e-4 0.362967,-0.197839 0.421091,-0.42109 l 0.2707,-1.052726 c 0.05824,-0.223372 -0.189327,-0.42109 -0.42109,-0.42109 l -4.140721,0 -8.321545,-9.564764 c 0.0186,-0.07879 0.03008,-0.156114 0.03008,-0.240623 0,-0.585974 -0.476778,-1.062752 -1.062752,-1.062752 -0.585974,0 -1.062751,0.476778 -1.062751,1.062752 0,0.585973 0.476777,1.062751 1.062751,1.062751 0.106519,0 0.213771,-0.02083 0.310805,-0.05013 l 7.63978,8.792766 -20.0118126,0 7.6498066,-8.792766 c 0.09703,0.02918 0.19426,0.05013 0.300778,0.05013 0.585974,0 1.062752,-0.476778 1.062752,-1.062751 0,-0.585974 -0.476778,-1.062752 -1.062752,-1.062752 z M 1.0454112,73.362317 c -0.23176256,0 -0.47787558,0.196258 -0.42109022,0.42109 L 4.1334064,87.689411 c 0.056665,0.224832 0.1905436,0.421091 0.4210902,0.421091 l 22.9393924,0 c 0.230425,0 0.36467,-0.197475 0.421091,-0.421091 l 3.519111,-13.906004 c 0.05654,-0.223737 -0.189328,-0.42109 -0.42109,-0.42109 l -29.9675898,0 z"
         id="path10" />
    </g>
  </g>
</svg>
