<?xml version="1.0" encoding="UTF-8" standalone="no"?>
<!-- Created with Inkscape (http://www.inkscape.org/) -->

<svg
   xmlns:dc="http://purl.org/dc/elements/1.1/"
   xmlns:cc="http://creativecommons.org/ns#"
   xmlns:rdf="http://www.w3.org/1999/02/22-rdf-syntax-ns#"
   xmlns:svg="http://www.w3.org/2000/svg"
   xmlns="http://www.w3.org/2000/svg"
   version="1.1"
   width="32"
   height="32"
   id="svg2996">
  <defs
     id="defs2998" />
  <metadata
     id="metadata3001">
    <rdf:RDF>
      <cc:Work
         rdf:about="">
        <dc:format>image/svg+xml</dc:format>
        <dc:type
           rdf:resource="http://purl.org/dc/dcmitype/StillImage" />
        <dc:title></dc:title>
      </cc:Work>
    </rdf:RDF>
  </metadata>
  <g
     id="layer1">
    <g
       transform="translate(-16.742889,-48.204434)"
       id="g15" />
    <g
       transform="translate(-16.742889,-48.204434)"
       id="g23" />
    <g
       transform="translate(-16.742889,-48.204434)"
       id="g39" />
    <path
       d="m 26.277027,9.2561414 c -1.845129,-0.823159 -3.297847,-0.665675 -4.775513,-0.233061 -2.387941,0.69881 -3.188762,-0.897991 -3.465382,-1.193971 -0.785928,-0.845124 -0.535742,-1.982505 -1.207374,-2.30678 -0.411393,-0.199181 -3.551383,-1.566272 -3.551383,-1.566272 0,0 -0.661208,-0.358154 -0.508936,-0.333582 0.218168,0.03574 0.564409,0.09717 0.663068,-0.01042 0.165303,-0.180567 0.15525,-0.598661 0.207745,-0.884961 0.126582,-0.696204 0.350708,-2.37267696 -0.658602,-2.59196296 -0.323902,-0.07037 -1.127329,-0.237528 -1.814969,-0.04691 -0.412138,0.11318 -0.700672,0.559197 -0.700672,1.05026296 0,1.01266 -0.04803,1.951232 -0.04803,1.951232 0,0 -0.236784,0.308265 -0.837679,0.390172 -0.564781,0.07669 -2.784815,1.012287 -3.54431,1.39278 -0.759122,0.379375 -2.219289,4.955332 -2.346244,5.5253256 -0.126955,0.569621 2.473571,3.144458 3.485487,3.650043 1.01266,0.505958 0.779599,0.41884 0.779599,0.41884 l 0.743858,1.469474 0.881983,0.01042 c 0,0 -0.570366,2.973944 -0.633657,4.240141 -0.06329,1.265081 -0.125466,2.973945 -0.125466,2.973945 0,0 -0.889801,1.207373 -1.090843,2.087866 -0.369324,1.6143 0.268056,3.622866 0.268056,4.762481 0,0.124348 -0.0011,0.226731 -0.0078,0.334699 0,0 -0.104989,0.539465 -0.503352,0.754283 -0.425168,0.22971 -0.736784,0.276247 -0.802681,0.618765 -0.02346,0.122487 0,0.276247 0,0.276247 0,0 0.145197,0.0108 0.97394,0 0.950486,-0.01228 1.53835,-0.287416 1.466496,-0.48697 C 8.980285,31.107259 8.943055,30.71113 8.939332,30.42148 c 0.0056,-0.797097 0.258749,-2.23232 0.766569,-3.020854 0.569249,-0.886078 0.865601,-2.340287 0.50633,-3.227482 -0.2863,-0.705511 0.696948,-1.075578 1.139242,-1.771782 0.442667,-0.696204 1.011916,-3.606857 1.011916,-3.606857 0,0 -0.315712,3.796731 0,4.303433 0.3172,0.50633 0.380492,0.822414 0.380492,0.822414 0,0 -1.000747,1.298215 -1.06441,2.184292 -0.06329,0.886078 0.92368,2.851085 0.987343,3.547661 0.02383,0.260239 0.04095,0.467238 0.05324,0.685035 -0.0019,0.01229 -0.01675,0.102383 -0.03351,0.23455 -0.035,0.273269 -0.187268,0.51601 -0.0097,0.93671 0,0 0.77811,0.04654 1.104991,0.04952 0.492183,0.0045 1.891664,0.06925 2.374911,0.06925 0,0 0.05101,-0.348847 -0.156367,-0.486971 -0.206999,-0.138124 -2.012661,-0.328742 -2.23083,-1.024946 -0.1035,-0.959793 -0.01378,-2.890921 0.239762,-3.853692 0.316456,-1.201789 0.252793,-1.962401 0.252793,-1.962401 0,0 0.633285,-0.885333 0.633285,-1.391291 0,-0.50633 0.189873,-1.393524 0.189873,-1.393524 0,0 0.442667,0.06329 1.202162,0.569621 0.759867,0.506702 2.768434,1.027552 2.768434,1.027552 0,0 -0.628445,-1.789653 1.596056,-2.369327 0.935594,-0.243857 -1.730457,-4.229717 -0.323902,-5.497776 1.019361,-0.919957 2.104619,0.371185 2.548032,-1.084141 0.442667,-1.456071 0.45979,-2.28407 2.149668,-2.28407 1.07409,0 3.29003,0.757261 3.29003,0.757261 0,0 -0.145572,-2.533511 -2.038724,-3.3775186 z M 8.725617,13.414376 C 8.188014,13.035373 7.903203,11.959794 7.61802,11.3898 7.332837,10.820552 7.059196,10.895384 7.059196,10.895384 l 0.243857,-0.250931 c 0.348474,-0.274759 0.335071,-0.7297106 0.325392,-0.8469856 0.03276,0.9385716 0.625838,1.3462416 0.876397,1.9408076 0.252793,0.600522 0.474312,1.676101 0.474312,1.676101 0,0 0.284066,0.380492 -0.253537,0 z"
       id="path83"
       style="fill-rule:evenodd" />
  </g>
</svg>
