<?xml version="1.0" encoding="UTF-8" standalone="no"?>
<!-- Created with Inkscape (http://www.inkscape.org/) -->

<svg
   xmlns:dc="http://purl.org/dc/elements/1.1/"
   xmlns:cc="http://creativecommons.org/ns#"
   xmlns:rdf="http://www.w3.org/1999/02/22-rdf-syntax-ns#"
   xmlns:svg="http://www.w3.org/2000/svg"
   xmlns="http://www.w3.org/2000/svg"
   version="1.1"
   width="32"
   height="32"
   id="svg3143">
  <defs
     id="defs3145" />
  <metadata
     id="metadata3148">
    <rdf:RDF>
      <cc:Work
         rdf:about="">
        <dc:format>image/svg+xml</dc:format>
        <dc:type
           rdf:resource="http://purl.org/dc/dcmitype/StillImage" />
        <dc:title></dc:title>
      </cc:Work>
    </rdf:RDF>
  </metadata>
  <g
     id="layer1">
    <path
       d="M 28,0 H 4 C 2.35,0 1,1.35 1,3 v 26 c 0,1.65 1.35,3 3,3 h 24 c 1.65,0 3,-1.35 3,-3 V 3 C 31,1.35 29.65,0 28,0 z M 27,28 H 5 V 4 H 27 V 28 z M 9,18 h 14 v 2 H 9 z m 0,4 h 14 v 2 H 9 z M 11,9 c 0,-1.65688 1.343125,-3 3,-3 1.656875,0 3,1.34312 3,3 0,1.65688 -1.343125,3 -3,3 -1.656875,0 -3,-1.34312 -3,-3 z m 5,3 h -4 c -1.65,0 -3,0.9 -3,2 v 2 h 10 v -2 c 0,-1.1 -1.35,-2 -3,-2 z"
       id="path129" />
  </g>
</svg>
