<?xml version="1.0" encoding="UTF-8" standalone="no"?>
<!-- Created with Inkscape (http://www.inkscape.org/) -->

<svg
   xmlns:dc="http://purl.org/dc/elements/1.1/"
   xmlns:cc="http://creativecommons.org/ns#"
   xmlns:rdf="http://www.w3.org/1999/02/22-rdf-syntax-ns#"
   xmlns:svg="http://www.w3.org/2000/svg"
   xmlns="http://www.w3.org/2000/svg"
   version="1.1"
   width="32"
   height="32"
   id="svg3143">
  <defs
     id="defs3145" />
  <metadata
     id="metadata3148">
    <rdf:RDF>
      <cc:Work
         rdf:about="">
        <dc:format>image/svg+xml</dc:format>
        <dc:type
           rdf:resource="http://purl.org/dc/dcmitype/StillImage" />
        <dc:title></dc:title>
      </cc:Work>
    </rdf:RDF>
  </metadata>
  <g
     id="layer1">
    <path
       d="m 16,10.5 c -6.54275,0 -12.35138,3.14237 -16,8 3.64862,4.85769 9.45725,8 16,8 6.54275,0 12.35138,-3.14231 16,-8 -3.64862,-4.85763 -9.45725,-8 -16,-8 z m -2,4 c 1.10456,0 2,0.89544 2,2 0,1.10456 -0.89544,2 -2,2 -1.10456,0 -2,-0.89544 -2,-2 0,-1.10456 0.89544,-2 2,-2 z m 10.1755,8.0405 c -1.239,0.63306 -2.55162,1.12069 -3.90144,1.44925 C 18.88381,24.32837 17.44588,24.5 16,24.5 14.55419,24.5 13.11619,24.32837 11.726,23.98987 10.37619,23.66119 9.06356,23.17356 7.82456,22.54062 5.85519,21.53431 4.06763,20.15281 2.58581,18.50006 4.06763,16.84731 5.85519,15.46569 7.82456,14.4595 8.83506,13.94319 9.89463,13.52369 10.98338,13.20825 10.36188,14.15331 10,15.28431 10,16.5 c 0,3.31375 2.68631,6 6,6 3.31369,0 6,-2.68625 6,-6 0,-1.21569 -0.36194,-2.34669 -0.98331,-3.29188 1.08869,0.3155 2.14825,0.735 3.15881,1.25132 1.96944,1.00619 3.75681,2.38775 5.23869,4.04056 -1.48188,1.65269 -3.26931,3.03437 -5.23869,4.0405 z M 26.90369,8.11631 C 23.50619,6.38025 19.83769,5.5 16,5.5 12.16231,5.5 8.49381,6.38025 5.09631,8.11631 3.25969,9.05481 1.54219,10.23831 0,11.61869 v 3.41268 C 1.72931,13.20119 3.77169,11.66406 6.00606,10.52231 9.11919,8.93156 12.48163,8.125 16,8.125 c 3.51838,0 6.88081,0.80656 9.99388,2.39737 2.23443,1.14175 4.27681,2.67888 6.00612,4.50907 V 11.61875 C 30.45781,10.23831 28.74037,9.05481 26.90369,8.11631 z"
       id="path129" />
  </g>
</svg>
