<?xml version="1.0" encoding="UTF-8" standalone="no"?>
<!-- Created with Inkscape (http://www.inkscape.org/) -->

<svg
   xmlns:dc="http://purl.org/dc/elements/1.1/"
   xmlns:cc="http://creativecommons.org/ns#"
   xmlns:rdf="http://www.w3.org/1999/02/22-rdf-syntax-ns#"
   xmlns:svg="http://www.w3.org/2000/svg"
   xmlns="http://www.w3.org/2000/svg"
   version="1.1"
   width="32"
   height="32"
   id="svg3143">
  <defs
     id="defs3145" />
  <metadata
     id="metadata3148">
    <rdf:RDF>
      <cc:Work
         rdf:about="">
        <dc:format>image/svg+xml</dc:format>
        <dc:type
           rdf:resource="http://purl.org/dc/dcmitype/StillImage" />
        <dc:title></dc:title>
      </cc:Work>
    </rdf:RDF>
  </metadata>
  <g
     id="layer1">
    <path
       d="m 32,18.3826 v -2 H 25.959688 C 25.7765,14.11116 24.966375,12.03804 23.72,10.37479 h 5.06075 l 2.189375,-8.7575 -1.940312,-0.48507 -1.810625,7.2425 h -5.45875 c -0.02788,-0.0217 -0.05613,-0.0429 -0.08431,-0.0642 C 21.885816,7.70108 21.999941,7.04733 21.999941,6.36695 22,3.06191 19.31375,0.3826 16,0.3826 c -3.31375,0 -6,2.67931 -6,5.98437 0,0.68038 0.114063,1.33413 0.323813,1.94357 -0.02812,0.0214 -0.05637,0.0426 -0.08431,0.0643 H 4.78075 L 2.970125,1.13234 1.029813,1.6174 3.219188,10.3749 h 5.06075 C 7.033563,12.03809 6.2235,14.11121 6.040313,16.38265 H 0 v 2 h 6.042813 c 0.118812,1.427 0.484625,2.77537 1.051187,3.99219 H 3.21925 L 1.029875,31.13228 2.970188,31.6174 4.780813,24.37484 H 8.291875 C 10.126,26.81329 12.898,28.36697 16,28.36697 c 3.102,0 5.873938,-1.55368 7.708188,-3.99218 h 3.511062 l 1.810625,7.24256 1.940313,-0.48513 -2.189375,-8.75743 h -3.87475 c 0.566562,-1.21682 0.932375,-2.56519 1.051125,-3.99219 H 32 z"
       id="path129" />
  </g>
</svg>
