<?xml version="1.0" encoding="UTF-8" standalone="no"?>
<!-- Created with Inkscape (http://www.inkscape.org/) -->

<svg
   xmlns:dc="http://purl.org/dc/elements/1.1/"
   xmlns:cc="http://creativecommons.org/ns#"
   xmlns:rdf="http://www.w3.org/1999/02/22-rdf-syntax-ns#"
   xmlns:svg="http://www.w3.org/2000/svg"
   xmlns="http://www.w3.org/2000/svg"
   version="1.1"
   width="32"
   height="32"
   id="svg3143">
  <defs
     id="defs3145" />
  <metadata
     id="metadata3148">
    <rdf:RDF>
      <cc:Work
         rdf:about="">
        <dc:format>image/svg+xml</dc:format>
        <dc:type
           rdf:resource="http://purl.org/dc/dcmitype/StillImage" />
        <dc:title></dc:title>
      </cc:Work>
    </rdf:RDF>
  </metadata>
  <g
     id="layer1">
    <path
       d="M 30.662125,9.00337 C 27.886875,8.60437 24.931437,8.31538 21.84725,8.15275 L 27,3 25,1 17.982562,8.01738 C 17.326125,8.00587 16.665188,8 16,8 V 8 L 8,0 6,2 12.068625,8.06862 C 8.289812,8.20119 4.683062,8.5225 1.337812,9.00337 0.477437,12.36981 0,16.08938 0,20 0,23.91062 0.477437,27.63019 1.337625,30.99656 5.826437,31.64194 10.78575,32 16,32 21.21425,32 26.173437,31.64194 30.662125,30.99656 31.522562,27.63019 32,23.91062 32,20 32,16.08938 31.522562,12.36981 30.662125,9.00337 z m -3.6655,18.32769 C 23.630062,27.76125 19.910688,28 16,28 12.089312,28 8.369812,27.76125 5.003375,27.33106 4.358125,25.08681 4,22.60712 4,20 4,17.39287 4.358062,14.91312 5.003375,12.66888 8.369812,12.23869 12.089313,12 16,12 c 3.9105,0 7.630062,0.23869 10.996437,0.66888 C 27.641937,14.91312 28,17.39281 28,20 c 0,2.60712 -0.358063,5.08681 -1.003375,7.33106 z"
       id="path129" />
  </g>
</svg>
