<?xml version="1.0" encoding="UTF-8" standalone="no"?>
<!-- Created with Inkscape (http://www.inkscape.org/) -->

<svg
   xmlns:dc="http://purl.org/dc/elements/1.1/"
   xmlns:cc="http://creativecommons.org/ns#"
   xmlns:rdf="http://www.w3.org/1999/02/22-rdf-syntax-ns#"
   xmlns:svg="http://www.w3.org/2000/svg"
   xmlns="http://www.w3.org/2000/svg"
   version="1.1"
   width="32"
   height="32"
   id="svg3143">
  <defs
     id="defs3145" />
  <metadata
     id="metadata3148">
    <rdf:RDF>
      <cc:Work
         rdf:about="">
        <dc:format>image/svg+xml</dc:format>
        <dc:type
           rdf:resource="http://purl.org/dc/dcmitype/StillImage" />
        <dc:title></dc:title>
      </cc:Work>
    </rdf:RDF>
  </metadata>
  <g
     id="layer1">
    <path
       d="M 16,0 C 7.163438,0 0,7.16344 0,16 0,24.83656 7.163438,32 16,32 24.836562,32 32,24.83656 32,16 32,7.16344 24.836562,0 16,0 z m -6,16 c 0,-3.31375 2.68625,-6 6,-6 3.31375,0 6,2.68625 6,6 0,3.31375 -2.68625,6 -6,6 -3.31375,0 -6,-2.68625 -6,-6 z m 18.936875,5.35863 v 0 L 23.3925,19.06206 C 23.783688,18.11881 24,17.08469 24,16 24,14.91531 23.783688,13.88119 23.3925,12.93794 l 5.544375,-2.29657 C 29.6215,12.29206 30,14.10169 30,16 c 0,1.89831 -0.378563,3.70794 -1.063125,5.35863 v 0 z M 21.358687,3.06313 v 0 0 L 19.062125,8.6075 C 18.118875,8.21631 17.08475,8 16,8 14.91525,8 13.881187,8.21631 12.937937,8.6075 L 10.641375,3.06306 C 12.292062,2.37856 14.10175,2 16,2 c 1.89825,0 3.707937,0.37856 5.358687,1.06313 z M 3.063125,10.64137 8.607563,12.93794 C 8.216375,13.88119 8,14.91531 8,16 c 0,1.08469 0.216313,2.11881 0.6075,3.06206 L 3.063125,21.35863 C 2.378563,19.70794 2,17.89831 2,16 2,14.10169 2.378563,12.29206 3.063125,10.64137 z m 7.57825,18.2955 2.296563,-5.54437 C 13.881188,23.78369 14.915313,24 16,24 c 1.084687,0 2.118812,-0.21631 3.062062,-0.6075 l 2.296563,5.54437 C 19.707937,29.62137 17.898312,30 16,30 14.101688,30 12.292063,29.62144 10.641375,28.93687 z"
       id="path129" />
  </g>
</svg>
