<?xml version="1.0" encoding="UTF-8" standalone="no"?>
<!-- Created with Inkscape (http://www.inkscape.org/) -->

<svg
   xmlns:dc="http://purl.org/dc/elements/1.1/"
   xmlns:cc="http://creativecommons.org/ns#"
   xmlns:rdf="http://www.w3.org/1999/02/22-rdf-syntax-ns#"
   xmlns:svg="http://www.w3.org/2000/svg"
   xmlns="http://www.w3.org/2000/svg"
   version="1.1"
   width="32"
   height="32"
   id="svg3143">
  <defs
     id="defs3145" />
  <metadata
     id="metadata3148">
    <rdf:RDF>
      <cc:Work
         rdf:about="">
        <dc:format>image/svg+xml</dc:format>
        <dc:type
           rdf:resource="http://purl.org/dc/dcmitype/StillImage" />
        <dc:title></dc:title>
      </cc:Work>
    </rdf:RDF>
  </metadata>
  <g
     id="layer1">
    <path
       d="m 16,12.78571 c -1.772357,0 -3.214286,1.44193 -3.214286,3.21429 0,1.77236 1.441929,3.21429 3.214286,3.21429 1.772357,0 3.214286,-1.44193 3.214286,-3.21429 0,-1.77236 -1.441929,-3.21429 -3.214286,-3.21429 z m 0,-3.6428501 v 0 c 3.787143,0 6.857143,3.0700001 6.857143,6.8571401 0,3.78714 -3.07,6.85714 -6.857143,6.85714 -3.787143,0 -6.857143,-3.07 -6.857143,-6.85714 0,-3.78714 3.07,-6.8571401 6.857143,-6.8571401 z M 29.044786,25.81236 c 0.892714,0.89264 0.892643,2.33985 0,3.23243 -0.892643,0.89271 -2.339786,0.89271 -3.232429,0 l -2.285714,-2.28572 c -0.892714,-0.89264 -0.892714,-2.33978 0,-3.23243 0.892571,-0.89264 2.339786,-0.89271 3.232428,0 l 2.285715,2.28572 z M 8.473357,5.2409299 c 0.892714,0.89264 0.892643,2.33986 0,3.23243 -0.892643,0.89271 -2.339786,0.89271 -3.232428,0 l -2.285715,-2.28572 c -0.892714,-0.89264 -0.892714,-2.33978 0,-3.23243 0.892572,-0.8926398 2.339786,-0.8927098 3.232429,0 l 2.285714,2.28572 z m 17.338929,-2.28572 c 0.892643,-0.8927098 2.339857,-0.8926398 3.232428,0 0.892715,0.89265 0.892715,2.33979 7.2e-5,3.23243 l -2.285715,2.28572 c -0.892714,0.89271 -2.339857,0.89271 -3.232428,0 -0.892714,-0.89257 -0.892714,-2.33979 0,-3.23243 l 2.285643,-2.28572 z M 5.240929,23.52664 c 0.892642,-0.89271 2.339785,-0.89264 3.232428,0 0.892643,0.89265 0.892714,2.33979 0,3.23243 l -2.285714,2.28572 c -0.892643,0.89271 -2.339786,0.89271 -3.232429,0 -0.892643,-0.89258 -0.892714,-2.33979 0,-3.23243 L 5.240929,23.52664 z M 16,1e-7 c 1.262357,0 2.285714,1.02336 2.285714,2.2857098 v 2.28572 c 0,1.26236 -1.023357,2.28571 -2.285714,2.28571 -1.262357,0 -2.285714,-1.02335 -2.285714,-2.28571 v -2.28572 C 13.714286,1.0233601 14.737643,1e-7 16,1e-7 z M 16,25.14286 c 1.262357,0 2.285714,1.02328 2.285714,2.28571 v 2.28572 C 18.285714,30.97671 17.262357,32 16,32 14.737643,32 13.714286,30.97671 13.714286,29.71429 v -2.28572 c 0,-1.26243 1.023357,-2.28571 2.285714,-2.28571 z M 0,16 c 0,-1.26236 1.023357,-2.28571 2.285714,-2.28571 h 2.285715 c 1.262357,0 2.285714,1.02335 2.285714,2.28571 0,1.26236 -1.023357,2.28571 -2.285714,2.28571 H 2.285714 C 1.023357,18.28571 0,17.26243 0,16 z m 25.142857,0 c 0,-1.26236 1.023286,-2.28571 2.285714,-2.28571 h 2.285715 C 30.976714,13.71429 32,14.73764 32,16 c 0,1.26236 -1.023286,2.28571 -2.285714,2.28571 h -2.285715 c -1.262428,0 -2.285714,-1.02335 -2.285714,-2.28571 z"
       id="path129" />
  </g>
</svg>
