<?xml version="1.0" encoding="UTF-8" standalone="no"?>
<!-- Created with Inkscape (http://www.inkscape.org/) -->

<svg
   xmlns:dc="http://purl.org/dc/elements/1.1/"
   xmlns:cc="http://creativecommons.org/ns#"
   xmlns:rdf="http://www.w3.org/1999/02/22-rdf-syntax-ns#"
   xmlns:svg="http://www.w3.org/2000/svg"
   xmlns="http://www.w3.org/2000/svg"
   version="1.1"
   width="32"
   height="32"
   id="svg3143">
  <defs
     id="defs3145" />
  <metadata
     id="metadata3148">
    <rdf:RDF>
      <cc:Work
         rdf:about="">
        <dc:format>image/svg+xml</dc:format>
        <dc:type
           rdf:resource="http://purl.org/dc/dcmitype/StillImage" />
        <dc:title></dc:title>
      </cc:Work>
    </rdf:RDF>
  </metadata>
  <g
     id="layer1">
    <path
       d="M 16,0 C 7.289125,0 0.204437,6.96131 0.00475,15.62419 0.18975,8.06594 5.937,2 13,2 c 7.179687,0 13,6.268 13,14 0,1.65688 1.343125,3 3,3 1.656875,0 3,-1.34312 3,-3 C 32,7.16344 24.836562,0 16,0 z m 0,32 C 24.710875,32 31.795563,25.03869 31.99525,16.37581 31.81025,23.93406 26.063,30 19,30 11.820313,30 6,23.732 6,16 6,14.34312 4.656875,13 3,13 1.343125,13 0,14.34312 0,16 0,24.83656 7.163437,32 16,32 z"
       id="path129" />
  </g>
</svg>
