<?xml version="1.0" encoding="UTF-8" standalone="no"?>
<!-- Created with Inkscape (http://www.inkscape.org/) -->

<svg
   xmlns:dc="http://purl.org/dc/elements/1.1/"
   xmlns:cc="http://creativecommons.org/ns#"
   xmlns:rdf="http://www.w3.org/1999/02/22-rdf-syntax-ns#"
   xmlns:svg="http://www.w3.org/2000/svg"
   xmlns="http://www.w3.org/2000/svg"
   version="1.1"
   width="32"
   height="32"
   id="svg3143">
  <defs
     id="defs3145" />
  <metadata
     id="metadata3148">
    <rdf:RDF>
      <cc:Work
         rdf:about="">
        <dc:format>image/svg+xml</dc:format>
        <dc:type
           rdf:resource="http://purl.org/dc/dcmitype/StillImage" />
        <dc:title></dc:title>
      </cc:Work>
    </rdf:RDF>
  </metadata>
  <g
     id="layer1">
    <path
       d="m 32,16.515971 c -0.04122,-2.15659 -0.509102,-4.30647 -1.373259,-6.27224 -0.861319,-1.9675105 -2.111432,-3.7498205 -3.646092,-5.2226205 -1.533756,-1.47389 -3.352641,-2.63904 -5.321444,-3.40773 -1.967642,-0.77165 -4.083266,-1.14025 -6.17341,-1.09555 -2.090401,0.0413 -4.171513,0.49588 -6.074582,1.33391 -1.904552,0.83526 -3.629964,2.04718 -5.055346,3.5343 -1.426415,1.48634 -2.553251,3.24827 -3.295939,5.1541705 -0.74552603,1.90501 -1.10077503,3.9518 -1.05619903,5.97576 0.04148,2.02428 0.482653,4.03656 1.29449403,5.87693 0.809196,1.84172 1.982866,3.51017 3.422504,4.88807 1.438865,1.379 3.143892,2.46758 4.986968,3.18415 1.842301,0.7194 3.820393,1.06123 5.7781,1.01685 1.958095,-0.0416 3.901546,-0.46943 5.67921,-1.25515 1.778825,-0.7832 3.390443,-1.91848 4.720933,-3.31071 1.331522,-1.39145 2.381787,-3.03952 3.072352,-4.81976 0.420402,-1.07917 0.705724,-2.2062 0.856094,-3.34793 0.04019,0.002 0.08057,0.004 0.12134,0.004 1.140061,0 2.064276,-0.92415 2.064276,-2.06428 0,-0.0579 -0.003,-0.11521 -0.0077,-0.17198 H 32 z m -3.280069,5.48155 c -0.757074,1.716 -1.854107,3.27059 -3.198918,4.55366 -1.344037,1.28405 -2.935142,2.29606 -4.65249,2.96063 -1.716832,0.66695 -3.557327,0.98221 -5.382728,0.93802 -1.825722,-0.0419 -3.631705,-0.44305 -5.2839,-1.17645 -1.653033,-0.73107 -3.150729,-1.78979 -4.386392,-3.08712 -1.236565,-1.29656 -2.210323,-2.83077 -2.848765,-4.48522 -0.640893,-1.65413 -0.942729,-3.42586 -0.898734,-5.18507 0.042,-1.75954 0.429886,-3.49676 1.137094,-5.08618 0.705014,-1.5901405 1.72554,-3.0309405 2.97533,-4.2191905 1.24921,-1.18915 2.726457,-2.12459 4.318013,-2.73697 1.591363,-0.61477 3.294326,-0.90332 4.987354,-0.85938 1.693351,0.0421 3.361802,0.41666 4.888528,1.09774 1.527305,0.67895 2.911144,1.66116 4.051914,2.8636 1.141674,1.20173 2.038795,2.6220805 2.625178,4.1507405 0.588577,1.5286 0.863835,3.16279 0.820034,4.78964 h 0.0077 c -0.0046,0.0568 -0.0077,0.11405 -0.0077,0.17198 0,1.06478 0.806099,1.94087 1.841269,2.05215 -0.200751,1.12315 -0.533164,2.21967 -0.992787,3.25742 z"
       id="path129" />
  </g>
</svg>
