<?xml version="1.0" encoding="UTF-8" standalone="no"?>
<!-- Created with Inkscape (http://www.inkscape.org/) -->

<svg
   xmlns:dc="http://purl.org/dc/elements/1.1/"
   xmlns:cc="http://creativecommons.org/ns#"
   xmlns:rdf="http://www.w3.org/1999/02/22-rdf-syntax-ns#"
   xmlns:svg="http://www.w3.org/2000/svg"
   xmlns="http://www.w3.org/2000/svg"
   version="1.1"
   width="32"
   height="32"
   id="svg3143">
  <defs
     id="defs3145" />
  <metadata
     id="metadata3148">
    <rdf:RDF>
      <cc:Work
         rdf:about="">
        <dc:format>image/svg+xml</dc:format>
        <dc:type
           rdf:resource="http://purl.org/dc/dcmitype/StillImage" />
        <dc:title></dc:title>
      </cc:Work>
    </rdf:RDF>
  </metadata>
  <g
     id="layer1">
    <path
       d="M 11.866667,4.26667 C 11.866667,1.91027 13.776934,0 16.133334,0 c 2.3564,0 4.266667,1.91027 4.266667,4.26667 0,2.3564 -1.910267,4.26666 -4.266667,4.26666 -2.3564,0 -4.266667,-1.91026 -4.266667,-4.26666 z m 9.051,3.749 c 0,-2.3564 1.910266,-4.26667 4.266666,-4.26667 2.356401,0 4.266667,1.91027 4.266667,4.26667 0,2.3564 -1.910266,4.26666 -4.266667,4.26666 -2.3564,0 -4.266666,-1.91026 -4.266666,-4.26666 z m 5.882334,9.051 c 0,-1.1782 0.955133,-2.13334 2.133333,-2.13334 1.178199,0 2.133333,0.95514 2.133333,2.13334 0,1.1782 -0.955134,2.13333 -2.133333,2.13333 -1.1782,0 -2.133333,-0.95513 -2.133333,-2.13333 z m -3.749001,9.051 c 0,-1.1782 0.955133,-2.13334 2.133333,-2.13334 1.1782,0 2.133334,0.95514 2.133334,2.13334 0,1.1782 -0.955133,2.13333 -2.133334,2.13333 -1.178199,0 -2.133333,-0.95513 -2.133333,-2.13333 z m -9.050933,3.749 c 0,0 0,0 0,0 0,-1.1782 0.955134,-2.13334 2.133334,-2.13334 1.1782,0 2.133333,0.95514 2.133333,2.13334 0,0 0,0 0,0 0,1.1782 -0.955133,2.13333 -2.133333,2.13333 -1.1782,0 -2.133334,-0.95513 -2.133334,-2.13333 z m -9.0510005,-3.749 c 0,0 0,0 0,0 0,-1.1782 0.955134,-2.13334 2.133334,-2.13334 1.1782,0 2.133333,0.95514 2.133333,2.13334 0,0 0,0 0,0 0,1.1782 -0.955133,2.13333 -2.133333,2.13333 -1.1782,0 -2.133334,-0.95513 -2.133334,-2.13333 z m -1.066666,-18.102 c 0,0 0,0 0,0 0,-1.76734 1.432666,-3.2 3.2,-3.2 1.767333,0 3.2000005,1.43266 3.2000005,3.2 0,0 0,0 0,0 0,1.76726 -1.4326675,3.2 -3.2000005,3.2 -1.767334,0 -3.2,-1.43267 -3.2,-3.2 z m -2.949067,9.051 c 0,-1.32547 1.074467,-2.4 2.4,-2.4 1.325533,0 2.4,1.07453 2.4,2.4 0,1.32546 -1.074533,2.4 -2.4,2.4 -1.325467,0 -2.4,-1.07454 -2.4,-2.4 z"
       id="path129" />
  </g>
</svg>
