<?xml version="1.0" encoding="UTF-8" standalone="no"?>
<!-- Created with Inkscape (http://www.inkscape.org/) -->

<svg
   xmlns:dc="http://purl.org/dc/elements/1.1/"
   xmlns:cc="http://creativecommons.org/ns#"
   xmlns:rdf="http://www.w3.org/1999/02/22-rdf-syntax-ns#"
   xmlns:svg="http://www.w3.org/2000/svg"
   xmlns="http://www.w3.org/2000/svg"
   version="1.1"
   width="32"
   height="32"
   id="svg3143">
  <defs
     id="defs3145" />
  <metadata
     id="metadata3148">
    <rdf:RDF>
      <cc:Work
         rdf:about="">
        <dc:format>image/svg+xml</dc:format>
        <dc:type
           rdf:resource="http://purl.org/dc/dcmitype/StillImage" />
        <dc:title></dc:title>
      </cc:Work>
    </rdf:RDF>
  </metadata>
  <g
     id="layer1">
    <path
       d="M 28.23225,6.23219 23.76775,1.76775 C 22.7955,0.7955 20.875,0 19.5,0 H 4.5 C 3.125,0 2,1.125 2,2.5 v 27 C 2,30.875 3.125,32 4.5,32 h 23 c 1.375,0 2.5,-1.125 2.5,-2.5 v -19 C 30,9.125 29.2045,7.20444 28.23225,6.23219 z M 26.818062,7.64644 C 26.915872,7.74424 27.013375,7.86437 27.108063,8 H 22 V 2.892 c 0.135625,0.0947 0.25575,0.19219 0.353562,0.29 l 4.4645,4.46444 z M 28,29.5 C 28,29.771 27.771,30 27.5,30 H 4.5 C 4.229,30 4,29.771 4,29.5 V 2.5 C 4,2.229 4.229,2 4.5,2 h 15 c 0.151,0 0.320437,0.0191 0.5,0.0532 V 10 h 7.94675 C 27.98094,10.17956 28,10.34894 28,10.5 v 19 z"
       id="path129" />
  </g>
</svg>
