<?xml version="1.0" encoding="UTF-8" standalone="no"?>
<!-- Created with Inkscape (http://www.inkscape.org/) -->

<svg
   xmlns:dc="http://purl.org/dc/elements/1.1/"
   xmlns:cc="http://creativecommons.org/ns#"
   xmlns:rdf="http://www.w3.org/1999/02/22-rdf-syntax-ns#"
   xmlns:svg="http://www.w3.org/2000/svg"
   xmlns="http://www.w3.org/2000/svg"
   version="1.1"
   width="32"
   height="32"
   id="svg3251">
  <defs
     id="defs3253" />
  <metadata
     id="metadata3256">
    <rdf:RDF>
      <cc:Work
         rdf:about="">
        <dc:format>image/svg+xml</dc:format>
        <dc:type
           rdf:resource="http://purl.org/dc/dcmitype/StillImage" />
        <dc:title></dc:title>
      </cc:Work>
    </rdf:RDF>
  </metadata>
  <g
     id="layer1">
    <path
       d="m 26.312875,18.4212 c -0.4265,-0.4201 -1.372313,-0.6426 -2.811625,-0.6616 -0.974312,-0.011 -2.146938,0.075 -3.380313,0.2478 -0.552312,-0.3187 -1.121624,-0.6655 -1.568375,-1.0831 -1.201937,-1.1224 -2.20525,-2.6804 -2.8305,-4.3936 0.04075,-0.1599 0.07544,-0.3006 0.107751,-0.4441 0,0 0.677062,-3.8456 0.497812,-5.14579 -0.02469,-0.17831 -0.03981,-0.23006 -0.08775,-0.36862 L 16.181065,6.42112 C 15.996816,5.99637 15.635815,5.54631 15.069628,5.57087 l -0.341125,-0.0108 c -0.63125,0 -1.14575,0.32288 -1.280813,0.80544 -0.410562,1.51357 0.01306,3.77779 0.780688,6.71049 l -0.1965,0.4778 c -0.549625,1.3398 -1.238438,2.6894 -1.846188,3.88 l -0.079,0.1547 c -0.639374,1.2512 -1.2195,2.3133 -1.745437,3.2132 l -0.543,0.2871 c -0.0395,0.021 -0.970125,0.5131 -1.188375,0.6451 -1.85175,1.1057 -3.078813,2.3607 -3.282375,3.3568 -0.06475,0.3178 -0.01656,0.7245 0.312937,0.9129 l 0.525188,0.2643 c 0.227812,0.1142 0.468063,0.172 0.714187,0.172 1.318876,0 2.850001,-1.6429 4.95925,-5.324 2.435313,-0.7927 5.207938,-1.4517 7.637938,-1.8153 1.851813,1.0428 4.129438,1.7671 5.566938,1.7671 0.255249,0 0.475374,-0.024 0.654125,-0.072 0.275687,-0.073 0.508062,-0.2301 0.649749,-0.4435 0.278938,-0.4197 0.335438,-0.9978 0.259751,-1.5898 -0.02256,-0.1758 -0.162876,-0.393 -0.314688,-0.5414 z M 6.613938,25.439 c 0.2405,-0.6576 1.192499,-1.9576 2.600124,-3.1111 0.0885,-0.072 0.3065,-0.276 0.506063,-0.4657 -1.471938,2.3476 -2.457687,3.2833 -3.106187,3.5768 z M 14.951063,6.24019 c 0.423937,0 0.665124,1.06856 0.685125,2.07041 0.02,1.0019 -0.214313,1.705 -0.504938,2.2253 -0.240687,-0.7703 -0.357063,-1.9844 -0.357063,-2.77828 0,0 -0.01769,-1.51743 0.176876,-1.51743 z M 12.464125,19.9217 c 0.295313,-0.5286 0.602562,-1.0861 0.916562,-1.6775 0.765375,-1.4473 1.248688,-2.5798 1.608688,-3.5108 0.715938,1.3027 1.607625,2.41 2.655812,3.2973 0.13075,0.1107 0.269313,0.2219 0.414813,0.3328 -2.131563,0.4218 -3.973875,0.9347 -5.595875,1.5582 z M 25.90325,19.8016 c -0.129813,0.081 -0.501688,0.1282 -0.740875,0.1282 -0.772063,0 -1.72725,-0.353 -3.066437,-0.9271 0.514624,-0.038 0.986312,-0.058 1.409375,-0.058 0.774437,0 1.003749,0 1.760937,0.1898 0.757187,0.1931 0.766812,0.5854 0.637,0.6666 z m 2.329,-13.56941 -4.4645,-4.46444 C 22.7955,0.7955 20.875,0 19.5,0 H 4.5 C 3.125,0 2,1.125 2,2.5 v 27 C 2,30.875 3.125,32 4.5,32 h 23 c 1.375,0 2.5,-1.125 2.5,-2.5 v -19 C 30,9.125 29.2045,7.20444 28.23225,6.23219 z M 26.818062,7.64644 C 26.915872,7.74424 27.013375,7.86437 27.108063,8 H 22 V 2.892 c 0.135625,0.0947 0.25575,0.19219 0.353562,0.29 l 4.4645,4.46444 z M 28,29.5 C 28,29.771 27.771,30 27.5,30 H 4.5 C 4.229,30 4,29.771 4,29.5 V 2.5 C 4,2.229 4.229,2 4.5,2 h 15 c 0.151,0 0.320437,0.0191 0.5,0.0533 V 10 h 7.94675 C 27.98094,10.1796 28,10.3489 28,10.5 v 19 z"
       id="path257" />
  </g>
</svg>
