<?xml version="1.0" encoding="UTF-8" standalone="no"?>
<!-- Created with Inkscape (http://www.inkscape.org/) -->

<svg
   xmlns:dc="http://purl.org/dc/elements/1.1/"
   xmlns:cc="http://creativecommons.org/ns#"
   xmlns:rdf="http://www.w3.org/1999/02/22-rdf-syntax-ns#"
   xmlns:svg="http://www.w3.org/2000/svg"
   xmlns="http://www.w3.org/2000/svg"
   version="1.1"
   width="32"
   height="32"
   id="svg3251">
  <defs
     id="defs3253" />
  <metadata
     id="metadata3256">
    <rdf:RDF>
      <cc:Work
         rdf:about="">
        <dc:format>image/svg+xml</dc:format>
        <dc:type
           rdf:resource="http://purl.org/dc/dcmitype/StillImage" />
        <dc:title></dc:title>
      </cc:Work>
    </rdf:RDF>
  </metadata>
  <g
     id="layer1">
    <path
       d="m 21.569375,14.7401 c -1.895875,-0.8954 -4.311625,-1.0757 -6.088563,0.189 2.160625,-0.2064 4.529938,0.1511 6.097063,1.7851 1.5,-1.7213 3.878562,-2.044 6.029937,-1.8666 -1.7965,-1.192 -4.163125,-1.032 -6.038437,-0.1075 z M 20.8015,18.9297 c -2.136813,-0.049 -4.201063,0.7241 -5.971875,1.8782 -3.34925,-1.4246 -7.5855,-1.1601 -10.437563,1.2182 0.822813,-0.029 1.625188,-0.2327 2.43925,-0.3372 2.974438,-0.2965 6.143376,0.4419 8.391,2.4945 0.930375,-1.3607 2.238875,-2.4451 3.739126,-3.1226 1.971062,-0.9537 4.192499,-1.0526 6.338125,-1.0787 -1.30275,-0.8953 -2.95675,-1.0611 -4.498063,-1.0524 z M 28.23225,6.23219 23.76775,1.76775 C 22.7955,0.7955 20.875,0 19.5,0 H 4.5 C 3.125,0 2,1.125 2,2.5 v 27 C 2,30.875 3.125,32 4.5,32 h 23 c 1.375,0 2.5,-1.125 2.5,-2.5 v -19 C 30,9.125 29.2045,7.20444 28.23225,6.23219 z M 26.818062,7.64644 C 26.915872,7.74424 27.013375,7.86437 27.108063,8 H 22 V 2.892 c 0.135625,0.0947 0.25575,0.19219 0.353562,0.29 l 4.4645,4.46444 z M 28,29.5 C 28,29.771 27.771,30 27.5,30 H 4.5 C 4.229,30 4,29.771 4,29.5 V 2.5 C 4,2.229 4.229,2 4.5,2 h 15 c 0.151,0 0.320437,0.0191 0.5,0.0533 V 10 h 7.94675 C 27.98094,10.1796 28,10.3489 28,10.5 v 19 z"
       id="path257" />
  </g>
</svg>
