<?xml version="1.0" encoding="UTF-8" standalone="no"?>
<!-- Created with Inkscape (http://www.inkscape.org/) -->

<svg
   xmlns:dc="http://purl.org/dc/elements/1.1/"
   xmlns:cc="http://creativecommons.org/ns#"
   xmlns:rdf="http://www.w3.org/1999/02/22-rdf-syntax-ns#"
   xmlns:svg="http://www.w3.org/2000/svg"
   xmlns="http://www.w3.org/2000/svg"
   version="1.1"
   width="32"
   height="32"
   id="svg3143">
  <defs
     id="defs3145" />
  <metadata
     id="metadata3148">
    <rdf:RDF>
      <cc:Work
         rdf:about="">
        <dc:format>image/svg+xml</dc:format>
        <dc:type
           rdf:resource="http://purl.org/dc/dcmitype/StillImage" />
        <dc:title></dc:title>
      </cc:Work>
    </rdf:RDF>
  </metadata>
  <path
     d="m 29.862999,24.879 c -0.031,-0.107001 -0.763,-2.651 -2.011999,-5.236999 -1.806998,-3.744002 -4.851,-5.642 -8.850999,-5.642 h -6.000002 c -3.9999988,0 -7.0439987,1.897998 -8.850999,5.642 C 2.9010002,22.228 2.1679999,24.771999 2.1380001,24.879 1.7630002,26.192001 1.968,27.501 2.6999999,28.472 c 0.7320004,0.971 1.9350002,1.528001 3.3000002,1.528001 H 26.000002 c 1.365,0 2.567997,-0.557001 3.301001,-1.528001 0.732999,-0.970999 0.936998,-2.279999 0.561996,-3.593 z M 16,26.000002 c -2.209001,0 -3.999999,-1.791002 -3.999999,-4.000003 C 12.000001,19.791002 13.790999,18 16,18 c 2.209001,0 3.999999,1.791002 3.999999,3.999999 0,2.209001 -1.790998,4.000003 -3.999999,4.000003 z M 30.190003,5.5259994 C 29.301003,4.7759995 28.084001,4.1209996 26.572001,3.5809997 23.716999,2.5619997 19.963002,1.9999995 16,1.9999995 c 0,0 0,0 0,0 -3.962998,0 -7.7179998,0.5609999 -10.5719997,1.5810002 C 3.9160002,4.1209996 2.699,4.7749996 1.81,5.5259994 0.31400001,6.7889995 0,8.1129999 0,8.9999997 L 0,11 c 0,0.529999 0.21100001,1.038999 0.58600001,1.414 L 1.586,13.414002 c 0.382,0.381997 0.8940003,0.585999 1.4149999,0.585999 0.2500003,0 0.5020003,-0.04699 0.7420001,-0.142999 L 8.7430003,11.856999 C 9.5020004,11.553 10.000001,10.818 10.000001,10.000002 V 6.5109997 C 11.83,6.1769995 13.881999,5.9999997 16,5.9999997 c 0,0 0,0 0,0 2.118001,0 4.17,0.1769998 6.000003,0.511 v 3.4890023 c 0,0.817998 0.497998,1.552998 1.256997,1.856997 l 5,2.000003 c 0.240999,0.09601 0.492999,0.142999 0.742,0.142999 0.520999,0 1.031999,-0.203 1.415003,-0.585999 L 31.414001,12.414 C 31.789002,12.038999 32,11.529999 32,11 L 32,8.9999997 C 32,8.1119996 31.686002,6.7889995 30.190003,5.5259994 z"
     id="path6"
     style="fill:#000000" />
</svg>
