<?xml version="1.0" encoding="UTF-8" standalone="no"?>
<!-- Created with Inkscape (http://www.inkscape.org/) -->

<svg
   xmlns:dc="http://purl.org/dc/elements/1.1/"
   xmlns:cc="http://creativecommons.org/ns#"
   xmlns:rdf="http://www.w3.org/1999/02/22-rdf-syntax-ns#"
   xmlns:svg="http://www.w3.org/2000/svg"
   xmlns="http://www.w3.org/2000/svg"
   version="1.1"
   width="32"
   height="32"
   viewBox="0 0 32 32"
   id="svg2">
  <metadata
     id="metadata10">
    <rdf:RDF>
      <cc:Work
         rdf:about="">
        <dc:format>image/svg+xml</dc:format>
        <dc:type
           rdf:resource="http://purl.org/dc/dcmitype/StillImage" />
        <dc:title></dc:title>
      </cc:Work>
    </rdf:RDF>
  </metadata>
  <defs
     id="defs8" />
  <path
     d="m 23,19 c -2,2 -2,4 -4,4 -2,0 -4,-2 -6,-4 C 11,17 9,15 9,13 9,11 11,11 13,9 15,7 9,1 7,1 5,1 1,7 1,7 c 0,4 4.109,12.109 8,16 3.891,3.891 12,8 16,8 0,0 6,-4 6,-6 0,-2 -6,-8 -8,-6 z"
     id="path4"
     style="fill:#000000" />
</svg>
