<?xml version="1.0" encoding="UTF-8" standalone="no"?>
<!-- Created with Inkscape (http://www.inkscape.org/) -->

<svg
   xmlns:dc="http://purl.org/dc/elements/1.1/"
   xmlns:cc="http://creativecommons.org/ns#"
   xmlns:rdf="http://www.w3.org/1999/02/22-rdf-syntax-ns#"
   xmlns:svg="http://www.w3.org/2000/svg"
   xmlns="http://www.w3.org/2000/svg"
   version="1.1"
   width="32"
   height="32"
   viewBox="0 0 32 32"
   id="svg2">
  <metadata
     id="metadata16">
    <rdf:RDF>
      <cc:Work
         rdf:about="">
        <dc:format>image/svg+xml</dc:format>
        <dc:type
           rdf:resource="http://purl.org/dc/dcmitype/StillImage" />
        <dc:title></dc:title>
      </cc:Work>
    </rdf:RDF>
  </metadata>
  <defs
     id="defs14" />
  <path
     d="m 23,19 c 2,-2 8,4 8,6 0,2 -6,6 -6,6 C 21,31 12.891,26.891 9,23 5.109,19.109 1,11 1,7 1,7 5,1 7,1 c 2,0 8,6 6,8 -2,2 -4,2 -4,4 0,2 2,4 4,6 2,2 4,4 6,4 2,0 2,-2 4,-4 z"
     id="path4"
     style="fill:#000000" />
  <path
     d="m 23,16 c -0.552,0 -1,-0.448 -1,-1 0,-2.757 -2.243,-5 -5,-5 -0.552,0 -1,-0.448 -1,-1 0,-0.552 0.448,-1 1,-1 3.86,0 7,3.14 7,7 0,0.552 -0.448,1 -1,1 z"
     id="path6"
     style="fill:#000000" />
  <path
     d="m 27,16 c -0.552,0 -1,-0.448 -1,-1 0,-4.963 -4.037,-9 -9,-9 -0.552,0 -1,-0.448 -1,-1 0,-0.552 0.448,-1 1,-1 6.065,0 11,4.935 11,11 0,0.552 -0.448,1 -1,1 z"
     id="path8"
     style="fill:#000000" />
  <path
     d="M 31,16 C 30.448,16 30,15.552 30,15 30,7.832 24.168,2 17,2 16.448,2 16,1.552 16,1 16,0.448 16.448,0 17,0 21.007,0 24.773,1.56 27.607,4.393 30.441,7.226 32,10.993 32,15 c 0,0.552 -0.448,1 -1,1 z"
     id="path10"
     style="fill:#000000" />
</svg>
