<?xml version="1.0" encoding="UTF-8" standalone="no"?>
<svg
   xmlns:dc="http://purl.org/dc/elements/1.1/"
   xmlns:cc="http://creativecommons.org/ns#"
   xmlns:rdf="http://www.w3.org/1999/02/22-rdf-syntax-ns#"
   xmlns:svg="http://www.w3.org/2000/svg"
   xmlns="http://www.w3.org/2000/svg"
   id="svg3143"
   height="32"
   width="32"
   version="1.1">
  <defs
     id="defs3145" />
  <metadata
     id="metadata3148">
    <rdf:RDF>
      <cc:Work
         rdf:about="">
        <dc:format>image/svg+xml</dc:format>
        <dc:type
           rdf:resource="http://purl.org/dc/dcmitype/StillImage" />
        <dc:title></dc:title>
      </cc:Work>
    </rdf:RDF>
  </metadata>
  <path
     id="path4"
     d="m 23,19 c 2,-2 8,4 8,6 0,2 -6,6 -6,6 C 21,31 12.891,26.891 9.0000006,23 5.1090006,19.109 1,11 1,7 1,7 5.0000003,1 7,1 9.0000006,1 15,7 13,8.9999997 11,11 9.0000006,11 9.0000006,13 9.0000006,15 11,17 13,19 c 2,2 4,4 6,4 2,0 2,-2 4,-4 z m -4,-13.9999997 12,0 0,3.9999994 -12,0 z m 0,0 12,0 0,3.9999994 -12,0 z" />
</svg>
