<?xml version="1.0" encoding="UTF-8" standalone="no"?>
<!-- Created with Inkscape (http://www.inkscape.org/) -->

<svg
   xmlns:dc="http://purl.org/dc/elements/1.1/"
   xmlns:cc="http://creativecommons.org/ns#"
   xmlns:rdf="http://www.w3.org/1999/02/22-rdf-syntax-ns#"
   xmlns:svg="http://www.w3.org/2000/svg"
   xmlns="http://www.w3.org/2000/svg"
   xmlns:sodipodi="http://sodipodi.sourceforge.net/DTD/sodipodi-0.dtd"
   xmlns:inkscape="http://www.inkscape.org/namespaces/inkscape"
   width="32px"
   height="32px"
   id="svg3251"
   version="1.1"
   inkscape:version="0.48.4 r9939"
   sodipodi:docname="New document 2">
  <defs
     id="defs3253" />
  <sodipodi:namedview
     id="base"
     pagecolor="#ffffff"
     bordercolor="#666666"
     borderopacity="1.0"
     inkscape:pageopacity="0.0"
     inkscape:pageshadow="2"
     inkscape:zoom="11.197802"
     inkscape:cx="5.6854758"
     inkscape:cy="16"
     inkscape:current-layer="layer1"
     showgrid="true"
     inkscape:grid-bbox="true"
     inkscape:document-units="px"
     inkscape:window-width="1600"
     inkscape:window-height="848"
     inkscape:window-x="0"
     inkscape:window-y="0"
     inkscape:window-maximized="1" />
  <metadata
     id="metadata3256">
    <rdf:RDF>
      <cc:Work
         rdf:about="">
        <dc:format>image/svg+xml</dc:format>
        <dc:type
           rdf:resource="http://purl.org/dc/dcmitype/StillImage" />
        <dc:title></dc:title>
      </cc:Work>
    </rdf:RDF>
  </metadata>
  <g
     id="layer1"
     inkscape:label="Layer 1"
     inkscape:groupmode="layer">
    <path
       d="M 0.180197,0.21624495 V 8.360375 l 2.666667,2.70273 v -6.16217 l 6.090082,6.09012 1.982003,-1.98201 -6.090115,-6.09008 h 6.198194 L 8.324335,0.21627495 H 0.180197 z m 22.378358,0 -6.810805,6.59458005 1.008999,1.009 6.810804,-6.55856 -1.009031,-1.04506005 z m 2.306305,2.27024005 -6.954975,6.7027 c 0.220887,0.32768 0.437636,0.66982 0.756749,0.97297 0.621905,0.68 1.479474,1.12318 2.306338,1.36939 -1.221084,1.66145 -2.731494,3.35938 -4.468473,5.04503 -1.687816,1.60384 -3.426338,3.03819 -5.081084,4.21622 -0.212348,-0.85169 -0.64266,-1.70654 -1.297307,-2.37836 -0.253629,-0.31951 -0.637405,-0.56332 -0.972972,-0.79281 l -6.954975,6.7027 c 0.171691,0.40952 0.470378,0.73372 0.756749,1.04505 0.744663,0.7538 1.531888,1.30818 2.522528,1.51353 3.307587,0.70628 8.415534,-1.93261 13.945945,-7.24325 0.02463,-0.041 0.108144,-0.10814 0.108144,-0.10814 5.563153,-5.31882 8.359737,-10.36559 7.747751,-13.65764 -0.179574,-0.99905 -0.732841,-1.87681 -1.477472,-2.63061 v -0.0361 C 25.515304,2.895865 25.19225,2.683185 24.86486,2.486475 z M 6.810805,15.459465 0,22.018045 l 1.008998,1.08109 6.810805,-6.59458 -1.008998,-1.04506 z m 14.342364,5.4775 v 8.14414 l 2.702693,2.70269 v -6.16217 l 6.090082,6.09012 1.945944,-1.98201 -6.090082,-6.09008 H 32 l -2.666667,-2.70269 h -8.180164 z"
       id="path257"
       inkscape:connector-curvature="0" />
  </g>
</svg>
