<?xml version="1.0" encoding="UTF-8" standalone="no"?>
<!-- Created with Inkscape (http://www.inkscape.org/) -->

<svg
   xmlns:dc="http://purl.org/dc/elements/1.1/"
   xmlns:cc="http://creativecommons.org/ns#"
   xmlns:rdf="http://www.w3.org/1999/02/22-rdf-syntax-ns#"
   xmlns:svg="http://www.w3.org/2000/svg"
   xmlns="http://www.w3.org/2000/svg"
   version="1.1"
   width="32"
   height="32"
   id="svg3143">
  <defs
     id="defs3145" />
  <metadata
     id="metadata3148">
    <rdf:RDF>
      <cc:Work
         rdf:about="">
        <dc:format>image/svg+xml</dc:format>
        <dc:type
           rdf:resource="http://purl.org/dc/dcmitype/StillImage" />
        <dc:title></dc:title>
      </cc:Work>
    </rdf:RDF>
  </metadata>
  <path
     d="M 16,1 C 13.95,1 12.1455,2.02075 11.0625,3.59375 10.0985,3.19575 9.051,3 8,3 3.589,3 0,6.589 0,11 0,14.914 1.73725,16.67575 3.28125,18.21875 4.73425,19.67175 6,20.914 6,24 l 0,6 c 0,0.552 0.448,1 1,1 l 18,0 c 0.552,0 1,-0.448 1,-1 l 0,-6 c 0,-3.086 1.26675,-4.32825 2.71875,-5.78125 C 30.26275,16.67575 32,14.914 32,11 32,6.589 28.411,3 24,3 22.949,3 21.9015,3.19575 20.9375,3.59375 19.8545,2.02075 18.05,1 16,1 z m 0,2 c 2.206,0 4,1.794 4,4 l 0,1 c 0,0.552 0.448,1 1,1 0.552,0 1,-0.448 1,-1 L 22,7 C 22,6.064 22.01425,5.115 23.65625,5 23.66025,5 23.921,5 24,5 c 3.308,0 6,2.692 6,6 0,3.086 -1.26675,4.32825 -2.71875,5.78125 -1.405,1.405 -2.98,2.99375 -3.25,6.21875 l -16.0625,0 c -0.271,-3.226 -1.845,-4.81375 -3.25,-6.21875 C 3.26675,15.32825 2,14.086 2,11 2,7.692 4.692,5 8,5 8.079,5 8.33975,5 8.34375,5 9.98575,5.115 10,6.064 10,7 l 0,1 c 0,0.552 0.448,1 1,1 0.552,0 1,-0.448 1,-1 l 0,-1 c 0,-2.206 1.794,-4 4,-4 z m -8,22 16,0 0,4 -16,0 0,-4 z"
     id="path4" />
</svg>
