<?xml version="1.0" encoding="UTF-8" standalone="no"?>
<!-- Created with Inkscape (http://www.inkscape.org/) -->

<svg
   xmlns:dc="http://purl.org/dc/elements/1.1/"
   xmlns:cc="http://creativecommons.org/ns#"
   xmlns:rdf="http://www.w3.org/1999/02/22-rdf-syntax-ns#"
   xmlns:svg="http://www.w3.org/2000/svg"
   xmlns="http://www.w3.org/2000/svg"
   version="1.1"
   width="32"
   height="32"
   id="svg3143">
  <defs
     id="defs3145" />
  <metadata
     id="metadata3148">
    <rdf:RDF>
      <cc:Work
         rdf:about="">
        <dc:format>image/svg+xml</dc:format>
        <dc:type
           rdf:resource="http://purl.org/dc/dcmitype/StillImage" />
        <dc:title></dc:title>
      </cc:Work>
    </rdf:RDF>
  </metadata>
  <path
     d="M 9,0 C 4.029,0 0,4.029 0,9 0,17 7.125,19.125 7.125,19.125 8.705,19.599 10,20 10,20 c 0,0 1.2675,0.4835 2.8125,1.0625 l 2.375,0.875 c 0.879,0.329 1.97175,0.31925 2.96875,0.03125 C 18.05125,21.66275 18,21.341 18,21 c 0,-1.657 1.343,-3 3,-3 0.341,0 0.66275,0.05125 0.96875,0.15625 0.287,-0.997 0.29775,-2.08975 -0.03125,-2.96875 l -0.875,-2.375 C 20.4835,11.2675 19.599,8.705 19.125,7.125 19.125,7.125 17,0 9,0 z m 13.5,19.5 c -2,0 -3,1 -3,3 0,0 4.5,2.5 4.5,7.5 0,1.105 0.895,2 2,2 1.105,0 2,-0.895 2,-2 l 0,-1 c 0,-0.552 0.448,-1 1,-1 l 1,0 c 1.105,0 2,-0.895 2,-2 0,-1.105 -0.895,-2 -2,-2 -5,0 -7.5,-4.5 -7.5,-4.5 z"
     id="path4" />
</svg>
