<?xml version="1.0" encoding="UTF-8" standalone="no"?>
<!-- Created with Inkscape (http://www.inkscape.org/) -->

<svg
   xmlns:dc="http://purl.org/dc/elements/1.1/"
   xmlns:cc="http://creativecommons.org/ns#"
   xmlns:rdf="http://www.w3.org/1999/02/22-rdf-syntax-ns#"
   xmlns:svg="http://www.w3.org/2000/svg"
   xmlns="http://www.w3.org/2000/svg"
   version="1.1"
   width="32"
   height="32"
   id="svg3143">
  <defs
     id="defs3145" />
  <metadata
     id="metadata3148">
    <rdf:RDF>
      <cc:Work
         rdf:about="">
        <dc:format>image/svg+xml</dc:format>
        <dc:type
           rdf:resource="http://purl.org/dc/dcmitype/StillImage" />
        <dc:title></dc:title>
      </cc:Work>
    </rdf:RDF>
  </metadata>
  <path
     d="m 30.508212,2e-7 c -4.135872,0 -8.069613,0.7672973 -11.6875,2.28125 -3.559888,1.4889536 -6.721083,3.6555866 -9.3749995,6.4374996 -2.679916,2.8089112 -4.748545,6.1708682 -6.1875,9.9687502 -1.487953,3.928877 -2.25,8.730643 -2.25,13.3125 l 2,0 c 0,0 0.11877,-2.42381 0.71875,-4.34375 C 4.4839395,25.235326 5.5932575,24 7.0082125,24 c 6.2128045,0 9.3161425,-1.615674 13.8749995,-7.1875 0.112,-0.135995 0.15375,-0.303756 0.09375,-0.46875 -0.06,-0.164995 -0.203006,-0.30976 -0.375,-0.34375 -0.06,-0.012 -1.486573,-0.28125 -3.8125,-0.28125 -0.290991,0 -0.58301,0.02225 -0.875,0.03125 0.396987,-0.143995 0.807763,-0.308754 1.21875,-0.46875 4.994844,-1.946938 8.271297,-4.127074 9.78125,-6.5000002 0.091,-0.142995 0.10125,-0.345005 0.03125,-0.5 -0.07,-0.154995 -0.207005,-0.257251 -0.375,-0.28125 -0.07,-0.011 -1.741824,-0.25 -4.09375,-0.25 -0.402988,0 -0.797511,0.01725 -1.1875,0.03125 0.570983,-0.226992 1.185268,-0.480008 1.78125,-0.75 4.200868,-1.90094 6.831034,-4.0165714 7.875,-6.3124996 0.07,-0.1549952 0.06075,-0.3570045 -0.03125,-0.5 C 30.822462,0.0757547 30.678206,2e-7 30.508212,2e-7 z"
     id="path4"
     style="fill:#000000" />
</svg>
