<?xml version="1.0" encoding="UTF-8" standalone="no"?>
<!-- Created with Inkscape (http://www.inkscape.org/) -->

<svg
   xmlns:dc="http://purl.org/dc/elements/1.1/"
   xmlns:cc="http://creativecommons.org/ns#"
   xmlns:rdf="http://www.w3.org/1999/02/22-rdf-syntax-ns#"
   xmlns:svg="http://www.w3.org/2000/svg"
   xmlns="http://www.w3.org/2000/svg"
   version="1.1"
   width="32"
   height="32"
   id="svg3143">
  <defs
     id="defs3145" />
  <metadata
     id="metadata3148">
    <rdf:RDF>
      <cc:Work
         rdf:about="">
        <dc:format>image/svg+xml</dc:format>
        <dc:type
           rdf:resource="http://purl.org/dc/dcmitype/StillImage" />
        <dc:title></dc:title>
      </cc:Work>
    </rdf:RDF>
  </metadata>
  <path
     d="M 3,1 C 1.346,1 0,2.346 0,4 l 0,3 c 0,1.92 0.854,5.377 2.5,8.25 1.494,2.607 3.367,4.3525 5.5,5.1875 L 8,22 c 0,0.552 0.448,1 1,1 l 1,0 0,3 c 0,2.757 2.243,5 5,5 l 8,0 c 2.757,0 5,-2.243 5,-5 l 0,-7 c 2.209,0 4,-1.791 4,-4 0,-2.209 -1.791,-4 -4,-4 -2.209,0 -4,1.791 -4,4 0,1.48 0.805,2.77675 2,3.46875 L 26,26 c 0,1.654 -1.346,3 -3,3 l -8,0 c -1.654,0 -3,-1.346 -3,-3 l 0,-3 1,0 c 0.552,0 1,-0.448 1,-1 l 0,-1.5625 C 16.133,19.6025 18.006,17.857 19.5,15.25 21.146,12.377 22,8.92 22,7 L 22,4 C 22,2.346 20.654,1 19,1 l -3,0 c -1.105,0 -2,0.895 -2,2 0,1.105 0.895,2 2,2 1.105,0 2,-0.895 2,-2 l 1,0 c 0.551,0 1,0.449 1,1 l 0,3 c 0,2.164 -1.162,5.353 -2.25,7.25 C 15.498,18.18 12.839,19 11,19 9.161,19 6.502,18.18 4.25,14.25 2.793,11.708 2,8.615 2,7 L 2,4 C 2,3.449 2.449,3 3,3 L 4,3 C 4,4.105 4.895,5 6,5 7.105,5 8,4.105 8,3 8,1.895 7.105,1 6,1 L 3,1 z m 25,12 c 1.103,0 2,0.897 2,2 0,1.103 -0.897,2 -2,2 -1.103,0 -2,-0.897 -2,-2 0,-1.103 0.897,-2 2,-2 z"
     id="path4" />
</svg>
