<?xml version="1.0" encoding="UTF-8" standalone="no"?>
<!-- Created with Inkscape (http://www.inkscape.org/) -->

<svg
   xmlns:dc="http://purl.org/dc/elements/1.1/"
   xmlns:cc="http://creativecommons.org/ns#"
   xmlns:rdf="http://www.w3.org/1999/02/22-rdf-syntax-ns#"
   xmlns:svg="http://www.w3.org/2000/svg"
   xmlns="http://www.w3.org/2000/svg"
   version="1.1"
   width="32"
   height="32"
   id="svg3143">
  <defs
     id="defs3145" />
  <metadata
     id="metadata3148">
    <rdf:RDF>
      <cc:Work
         rdf:about="">
        <dc:format>image/svg+xml</dc:format>
        <dc:type
           rdf:resource="http://purl.org/dc/dcmitype/StillImage" />
        <dc:title></dc:title>
      </cc:Work>
    </rdf:RDF>
  </metadata>
  <path
     d="m 4,1 -4,8 0,6 6,0 0,-4 2,0 0,4 4,0 0,-4 2,0 0,4 4,0 0,-4 2,0 0,4 4,0 0,-4 2,0 0,4 6,0 L 32,9 28,1 4,1 z m 0,16 0,12 -2,0 0,2 28,0 0,-2 -2,0 0,-12 -24,0 z m 4,4 8,0 0,6 -8,0 0,-6 z"
     id="path4" />
</svg>
