<?xml version="1.0" encoding="UTF-8" standalone="no"?>
<svg
   xmlns:dc="http://purl.org/dc/elements/1.1/"
   xmlns:cc="http://creativecommons.org/ns#"
   xmlns:rdf="http://www.w3.org/1999/02/22-rdf-syntax-ns#"
   xmlns:svg="http://www.w3.org/2000/svg"
   xmlns="http://www.w3.org/2000/svg"
   version="1.1"
   width="32"
   height="32"
   viewBox="0 0 32 32"
   id="svg2">
  <metadata
     id="metadata10">
    <rdf:RDF>
      <cc:Work
         rdf:about="">
        <dc:format>image/svg+xml</dc:format>
        <dc:type
           rdf:resource="http://purl.org/dc/dcmitype/StillImage" />
        <dc:title></dc:title>
      </cc:Work>
    </rdf:RDF>
  </metadata>
  <defs
     id="defs8" />
  <g
     id="Page-1"
     style="fill:none;fill-rule:evenodd;stroke:none;stroke-width:1"
     transform="matrix(1.6,0,0,1.6,0,-0.08)">
    <g
       transform="translate(-254,-42)"
       id="Icons-Device"
       style="fill:#000000">
      <g
         transform="translate(254,42)"
         id="data-usage">
        <path
           id="Shape"
           d="m 11,0.1 0,3 c 3.4,0.5 6,3.4 6,6.9 0,0.9 -0.2,1.7 -0.5,2.5 L 19.1,14 C 19.7,12.8 20,11.4 20,9.9 20,4.8 16.1,0.6 11,0.1 l 0,0 z M 10,17 C 6.1,17 3,13.9 3,10 3,6.5 5.6,3.6 9,3.1 l 0,-3 C 3.9,0.5 0,4.8 0,10 c 0,5.5 4.5,10 10,10 3.3,0 6.2,-1.6 8.1,-4.1 L 15.5,14.4 C 14.2,16 12.2,17 10,17 l 0,0 z" />
      </g>
    </g>
  </g>
</svg>
