<?xml version="1.0" encoding="UTF-8" standalone="no"?>
<svg
   xmlns:dc="http://purl.org/dc/elements/1.1/"
   xmlns:cc="http://creativecommons.org/ns#"
   xmlns:rdf="http://www.w3.org/1999/02/22-rdf-syntax-ns#"
   xmlns:svg="http://www.w3.org/2000/svg"
   xmlns="http://www.w3.org/2000/svg"
   xmlns:sodipodi="http://sodipodi.sourceforge.net/DTD/sodipodi-0.dtd"
   xmlns:inkscape="http://www.inkscape.org/namespaces/inkscape"
   version="1.1"
   x="0px"
   y="0px"
   viewBox="0 0 32 32"
   xml:space="preserve"
   id="svg2"
   inkscape:version="0.91 r13725"
   sodipodi:docname="2254.svg"
   width="32"
   height="32"><metadata
     id="metadata32"><rdf:RDF><cc:Work
         rdf:about=""><dc:format>image/svg+xml</dc:format><dc:type
           rdf:resource="http://purl.org/dc/dcmitype/StillImage" /><dc:title></dc:title></cc:Work></rdf:RDF></metadata><defs
     id="defs30" /><sodipodi:namedview
     pagecolor="#ffffff"
     bordercolor="#666666"
     borderopacity="1"
     objecttolerance="10"
     gridtolerance="10"
     guidetolerance="10"
     inkscape:pageopacity="0"
     inkscape:pageshadow="2"
     inkscape:window-width="1920"
     inkscape:window-height="1027"
     id="namedview28"
     showgrid="false"
     inkscape:zoom="1.888"
     inkscape:cx="-77.913136"
     inkscape:cy="61.440678"
     inkscape:window-x="0"
     inkscape:window-y="0"
     inkscape:window-maximized="1"
     inkscape:current-layer="svg2" /><g
     id="g4"
     transform="matrix(0.45070423,0,0,0.45070423,-6.5352115,-6.5352115)"><circle
       cx="34"
       cy="24"
       r="9"
       id="circle6" /><circle
       cx="47"
       cy="50"
       r="9"
       id="circle8" /><circle
       cx="67"
       cy="76"
       r="9"
       id="circle10" /><path
       d="m 19.5,19 c -2.8,0 -5,2.2 -5,5 0,2.8 2.2,5 5,5 l 3.6,0 C 22.4,27.5 22,25.8 22,24 c 0,-1.8 0.4,-3.5 1.1,-5 l -3.6,0 z"
       id="path12"
       inkscape:connector-curvature="0" /><path
       d="m 80.5,19 -35.6,0 c 0.7,1.5 1.1,3.2 1.1,5 0,1.8 -0.4,3.5 -1.1,5 l 35.6,0 c 2.8,0 5,-2.2 5,-5 0,-2.8 -2.3,-5 -5,-5 z"
       id="path14"
       inkscape:connector-curvature="0" /><path
       d="m 19.5,55 16.6,0 C 35.4,53.5 35,51.8 35,50 c 0,-1.8 0.4,-3.5 1.1,-5 l -16.6,0 c -2.8,0 -5,2.2 -5,5 0,2.8 2.3,5 5,5 z"
       id="path16"
       inkscape:connector-curvature="0" /><path
       d="m 80.5,45 -22.6,0 c 0.7,1.5 1.1,3.2 1.1,5 0,1.8 -0.4,3.5 -1.1,5 l 22.6,0 c 2.8,0 5,-2.2 5,-5 0,-2.8 -2.3,-5 -5,-5 z"
       id="path18"
       inkscape:connector-curvature="0" /><path
       d="m 19.5,81 36.6,0 C 55.4,79.5 55,77.8 55,76 c 0,-1.8 0.4,-3.5 1.1,-5 l -36.6,0 c -2.8,0 -5,2.2 -5,5 0,2.8 2.3,5 5,5 z"
       id="path20"
       inkscape:connector-curvature="0" /><path
       d="m 85.5,76 c 0,-2.8 -2.2,-5 -5,-5 l -2.6,0 c 0.7,1.5 1.1,3.2 1.1,5 0,1.8 -0.4,3.5 -1.1,5 l 2.6,0 c 2.7,0 5,-2.2 5,-5 z"
       id="path22"
       inkscape:connector-curvature="0" /></g></svg>