<?xml version="1.0" encoding="UTF-8" standalone="no"?>
<svg
   xmlns:dc="http://purl.org/dc/elements/1.1/"
   xmlns:cc="http://creativecommons.org/ns#"
   xmlns:rdf="http://www.w3.org/1999/02/22-rdf-syntax-ns#"
   xmlns:svg="http://www.w3.org/2000/svg"
   xmlns="http://www.w3.org/2000/svg"
   xmlns:sodipodi="http://sodipodi.sourceforge.net/DTD/sodipodi-0.dtd"
   xmlns:inkscape="http://www.inkscape.org/namespaces/inkscape"
   xml:space="preserve"
   version="1.1"
   style="clip-rule:evenodd;fill-rule:evenodd;image-rendering:optimizeQuality;shape-rendering:geometricPrecision;text-rendering:geometricPrecision"
   viewBox="0 0 32 32"
   x="0px"
   y="0px"
   id="svg2"
   inkscape:version="0.91 r13725"
   sodipodi:docname="2257.svg"
   width="32"
   height="32"><metadata
     id="metadata22"><rdf:RDF><cc:Work
         rdf:about=""><dc:format>image/svg+xml</dc:format><dc:type
           rdf:resource="http://purl.org/dc/dcmitype/StillImage" /><dc:title></dc:title></cc:Work></rdf:RDF></metadata><sodipodi:namedview
     pagecolor="#ffffff"
     bordercolor="#666666"
     borderopacity="1"
     objecttolerance="10"
     gridtolerance="10"
     guidetolerance="10"
     inkscape:pageopacity="0"
     inkscape:pageshadow="2"
     inkscape:window-width="1920"
     inkscape:window-height="1027"
     id="namedview20"
     showgrid="false"
     inkscape:zoom="0.98848168"
     inkscape:cx="-531.35752"
     inkscape:cy="113.30507"
     inkscape:window-x="0"
     inkscape:window-y="0"
     inkscape:window-maximized="1"
     inkscape:current-layer="svg2" /><defs
     id="defs4"><style
       type="text/css"
       id="style6">
   
    .fil0 {fill:black}
    .fil1 {fill:black}
   
  </style></defs><g
     transform="matrix(0.35555556,0,0,0.35555556,-1.777778,-1.6740866)"
     style="fill:none;fill-rule:evenodd;stroke:none;stroke-width:1"
     id="g8"><path
       style="fill:#000000"
       inkscape:connector-curvature="0"
       d="M 61.833007,46.788613 35.987229,65.823772 c -0.888392,0.734983 -1.69092,1.559264 -2.392704,2.454524 -7.427685,9.46549 6.140891,21.712927 14.799272,13.357927 0.818557,-0.788791 1.55583,-1.671459 2.196938,-2.63083 L 66.888595,51.351922 C 69.088966,48.054799 64.88857,44.263108 61.833007,46.788613 M 95,60 c 0,0.761315 -0.02061,1.519195 -0.05724,2.271351 l -15.538835,0 0,-4.561019 10.94805,0 C 89.823059,48.287201 86.050831,39.719261 80.136617,33.100974 L 72.232681,41.00491 68.99509,37.766174 76.899026,29.863383 C 70.280739,23.949169 61.712799,20.17694 52.288524,19.648027 l 0,10.603455 -4.579337,0 0,-10.603455 C 38.287201,20.17694 29.719261,23.949169 23.100974,29.863383 l 7.362429,7.362429 -3.237591,3.237591 -7.363574,-7.362429 C 13.949169,39.719261 10.176941,48.287201 9.6480271,57.710332 l 10.9480499,0 0,4.561019 -15.5388353,0 C 5.0194622,61.519195 5,60.761315 5,60 5,35.186862 25.186862,15 49.998855,15 74.811993,15 95,35.186862 95,60"
       id="path10" /></g></svg>