<?xml version="1.0" encoding="UTF-8" standalone="no"?>
<svg
   xmlns:dc="http://purl.org/dc/elements/1.1/"
   xmlns:cc="http://creativecommons.org/ns#"
   xmlns:rdf="http://www.w3.org/1999/02/22-rdf-syntax-ns#"
   xmlns:svg="http://www.w3.org/2000/svg"
   xmlns="http://www.w3.org/2000/svg"
   xmlns:sodipodi="http://sodipodi.sourceforge.net/DTD/sodipodi-0.dtd"
   xmlns:inkscape="http://www.inkscape.org/namespaces/inkscape"
   version="1.1"
   x="0px"
   y="0px"
   viewBox="0 0 32 32"
   enable-background="new 0 0 128 128"
   xml:space="preserve"
   id="svg2"
   inkscape:version="0.91 r13725"
   sodipodi:docname="2259.svg"
   width="32"
   height="32"><metadata
     id="metadata18"><rdf:RDF><cc:Work
         rdf:about=""><dc:format>image/svg+xml</dc:format><dc:type
           rdf:resource="http://purl.org/dc/dcmitype/StillImage" /><dc:title></dc:title></cc:Work></rdf:RDF></metadata><defs
     id="defs16" /><sodipodi:namedview
     pagecolor="#ffffff"
     bordercolor="#666666"
     borderopacity="1"
     objecttolerance="10"
     gridtolerance="10"
     guidetolerance="10"
     inkscape:pageopacity="0"
     inkscape:pageshadow="2"
     inkscape:window-width="1920"
     inkscape:window-height="1027"
     id="namedview14"
     showgrid="false"
     inkscape:zoom="1.475"
     inkscape:cx="-266.1695"
     inkscape:cy="78.644068"
     inkscape:window-x="0"
     inkscape:window-y="0"
     inkscape:window-maximized="1"
     inkscape:current-layer="svg2" /><g
     transform="matrix(0.42123554,0,0,0.42123554,-5.0617771,-406.23058)"
     id="g4"><path
       inkscape:connector-curvature="0"
       style="color:#000000;text-indent:0;text-transform:none;direction:ltr;block-progression:tb;baseline-shift:baseline;display:inline;overflow:visible;visibility:visible;fill:#000000;fill-opacity:1;stroke:none;marker:none;enable-background:accumulate"
       d="m 31.248425,969.37396 c -4.9256,0 -9.832799,1.88923 -13.593799,5.71875 -7.5216,7.65904 -7.5134,20.02188 0,27.68749 l 31.624999,32.2813 a 1.0001,1.0001 0 0 0 1.4063,0 c 10.5535,-10.7459 21.1028,-21.5041 31.6563,-32.25 7.5217,-7.65911 7.5217,-19.99725 0,-27.65629 -7.5218,-7.65904 -19.6969,-7.65914 -27.2188,0 l -5.0938,5.1875 -5.1562,-5.25 c -3.7609,-3.82952 -8.6994,-5.71875 -13.625,-5.71875 z m 0,1.96875 c 4.4001,0 8.8026,1.70959 12.1875,5.15625 l 5.875,5.96875 a 1.0001,1.0001 0 0 0 1.4063,0 l 5.8437,-5.9375 c 6.7699,-6.89342 17.6052,-6.89332 24.375,0 6.7698,6.89332 6.7698,17.98168 0,24.87499 -10.316,10.5043 -20.6214,21.0271 -30.9375,31.5313 L 19.060926,1001.374 c -6.7639,-6.90091 -6.7697,-17.98172 0,-24.87504 3.384999,-3.44666 7.787399,-5.15625 12.187499,-5.15625 z"
       visibility="visible"
       display="inline"
       overflow="visible"
       id="path6" /></g></svg>