<?xml version="1.0" encoding="UTF-8" standalone="no"?>
<svg
   xmlns:dc="http://purl.org/dc/elements/1.1/"
   xmlns:cc="http://creativecommons.org/ns#"
   xmlns:rdf="http://www.w3.org/1999/02/22-rdf-syntax-ns#"
   xmlns:svg="http://www.w3.org/2000/svg"
   xmlns="http://www.w3.org/2000/svg"
   xmlns:sodipodi="http://sodipodi.sourceforge.net/DTD/sodipodi-0.dtd"
   xmlns:inkscape="http://www.inkscape.org/namespaces/inkscape"
   xml:space="preserve"
   version="1.1"
   style="clip-rule:evenodd;fill-rule:evenodd;image-rendering:optimizeQuality;shape-rendering:geometricPrecision;text-rendering:geometricPrecision"
   viewBox="0 0 32 32"
   x="0px"
   y="0px"
   id="svg2"
   inkscape:version="0.91 r13725"
   sodipodi:docname="2260.svg"
   width="32"
   height="32"><metadata
     id="metadata22"><rdf:RDF><cc:Work
         rdf:about=""><dc:format>image/svg+xml</dc:format><dc:type
           rdf:resource="http://purl.org/dc/dcmitype/StillImage" /><dc:title></dc:title></cc:Work></rdf:RDF></metadata><sodipodi:namedview
     pagecolor="#ffffff"
     bordercolor="#666666"
     borderopacity="1"
     objecttolerance="10"
     gridtolerance="10"
     guidetolerance="10"
     inkscape:pageopacity="0"
     inkscape:pageshadow="2"
     inkscape:window-width="1920"
     inkscape:window-height="1027"
     id="namedview20"
     showgrid="false"
     inkscape:zoom="0.98848168"
     inkscape:cx="-603.51217"
     inkscape:cy="115.32838"
     inkscape:window-x="0"
     inkscape:window-y="0"
     inkscape:window-maximized="1"
     inkscape:current-layer="svg2" /><defs
     id="defs4"><style
       type="text/css"
       id="style6">
   
    .fil0 {fill:black}
    .fil1 {fill:black}
   
  </style></defs><g
     transform="matrix(0.39999821,0,0,0.39999821,-3.1998426,-3.2001392)"
     id="g4"><polygon
       points="61.201,66.897 63.606,69.302 65.924,66.984 88,88 66.984,65.924 69.303,63.606 66.897,61.201 "
       id="polygon6" /><path
       inkscape:connector-curvature="0"
       d="m 64.648,50.19 -4.381,4.381 -0.804,-0.803 4.392,-4.392 -4.111,-4.111 -4.391,4.392 -0.804,-0.803 4.392,-4.392 -4.111,-4.111 -4.392,4.391 -0.804,-0.803 4.393,-4.391 -4.111,-4.111 -4.392,4.391 -0.803,-0.803 4.392,-4.391 -4.112,-4.111 -4.391,4.391 -0.803,-0.803 4.391,-4.391 -4.111,-4.111 -4.391,4.391 -0.804,-0.805 4.392,-4.389 -4.06,-4.061 -14.477,14.48 29.28,29.28 c 2.766,2.766 6.723,3.587 10.227,2.521 l 6.773,-6.772 c 1.045,-3.439 0.262,-7.307 -2.379,-10.064 z"
       id="path8" /><polygon
       points="28.188,24.074 18.176,14.063 14.064,18.174 24.076,28.186 17.261,35.002 18.691,36.434 36.435,18.691 35.003,17.26 "
       id="polygon10" /><rect
       x="7.158"
       y="12.679"
       transform="matrix(0.7071,-0.7071,0.7071,0.7071,-6.0271,14.5517)"
       width="14.785"
       height="3.743"
       id="rect12" /></g></svg>