<?xml version="1.0" encoding="UTF-8" standalone="no"?>
<svg
   xmlns:dc="http://purl.org/dc/elements/1.1/"
   xmlns:cc="http://creativecommons.org/ns#"
   xmlns:rdf="http://www.w3.org/1999/02/22-rdf-syntax-ns#"
   xmlns:svg="http://www.w3.org/2000/svg"
   xmlns="http://www.w3.org/2000/svg"
   xmlns:sodipodi="http://sodipodi.sourceforge.net/DTD/sodipodi-0.dtd"
   xmlns:inkscape="http://www.inkscape.org/namespaces/inkscape"
   xml:space="preserve"
   version="1.1"
   style="clip-rule:evenodd;fill-rule:evenodd;image-rendering:optimizeQuality;shape-rendering:geometricPrecision;text-rendering:geometricPrecision"
   viewBox="0 0 32 32"
   x="0px"
   y="0px"
   id="svg2"
   inkscape:version="0.91 r13725"
   sodipodi:docname="2263.svg"
   width="32"
   height="32"><metadata
     id="metadata22"><rdf:RDF><cc:Work
         rdf:about=""><dc:format>image/svg+xml</dc:format><dc:type
           rdf:resource="http://purl.org/dc/dcmitype/StillImage" /><dc:title></dc:title></cc:Work></rdf:RDF></metadata><sodipodi:namedview
     pagecolor="#ffffff"
     bordercolor="#666666"
     borderopacity="1"
     objecttolerance="10"
     gridtolerance="10"
     guidetolerance="10"
     inkscape:pageopacity="0"
     inkscape:pageshadow="2"
     inkscape:window-width="1920"
     inkscape:window-height="1027"
     id="namedview20"
     showgrid="false"
     inkscape:zoom="0.98848168"
     inkscape:cx="-531.35752"
     inkscape:cy="72.838973"
     inkscape:window-x="0"
     inkscape:window-y="0"
     inkscape:window-maximized="1"
     inkscape:current-layer="svg2" /><defs
     id="defs4"><style
       type="text/css"
       id="style6">
   
    .fil0 {fill:black}
    .fil1 {fill:black}
   
  </style></defs><path
     id="path8"
     overflow="visible"
     display="inline"
     visibility="visible"
     d="m 22.077368,0.16204033 c -0.21527,0.005925 -0.4256,0.11323251 -0.556725,0.28404352 L 18.759767,3.9909136 c -0.2188,0.2767525 -0.192905,0.7165601 0.05684,0.9657381 l 0.18178,0.1817895 -7.13509,3.0676402 c -1.20091,0.496422 -2.5972754,1.5660731 -3.7493855,2.7722406 -0.577815,0.604906 -1.0894151,1.242971 -1.4542901,1.886033 -0.36487,0.643058 -0.6132,1.296313 -0.51127,1.999658 0.0035,0.02291 0.00655,0.04564 0.01125,0.06815 l 0.534035,2.215553 -3.9084002,0 c -0.38076,0 -0.7271601,0.3464 -0.7271601,0.727128 l 0,12.509165 -1.32931003,0 c -0.38127502,0 -0.7287650401321,0.34589 -0.7287650401321,0.727165 0,0.38127 0.3474900201321,0.727961 0.7287650401321,0.727126 l 22.80280193,0 c 0.381275,0 0.7288,-0.345856 0.7288,-0.727126 0,-0.381275 -0.347525,-0.728 -0.7288,-0.727165 l -1.317965,0 0,-7.850875 c 0.91902,-0.620836 1.721785,-1.27029 2.43142,-2.011018 1.805235,-1.884472 2.8868,-4.325346 3.544835,-7.987248 l 1.94284,0.783956 c 0.393125,0.161884 0.90091,-0.1066 0.988435,-0.522636 l 0.86349,-4.3287861 c 0.05607,-0.259873 -0.04435,-0.5472945 -0.249965,-0.715782 l -9.18018,-7.43051006 c -0.13371,-0.106975 -0.306075,-0.16444001 -0.4772,-0.15906551 z m 0.13633,1.76105467 8.25989,6.6920049 -0.602145,3.0335571 -2.033745,-0.829397 -7.066911,-5.9648628 c -0.155925,-0.1584 -0.310655,-0.3180255 -0.46582,-0.4771891 z m -2.067821,4.3060623 c 2.222401,1.8920221 4.459346,3.7668592 6.692001,5.6467317 -0.61927,3.744659 -1.59269,5.917532 -3.238035,7.635023 -1.70331,1.778073 -4.226911,3.113273 -7.930436,4.965058 -0.01165,0.0035 -0.0229,0.0072 -0.0342,0.01125 -1.167635,0.672875 -2.036615,0.27342 -2.408655,-0.306765 -0.186105,-0.290105 -0.25196,-0.6192 -0.136325,-0.98847 0.1156,-0.369275 0.4304,-0.8084 1.136145,-1.215711 0.004,-0.0037 0.0076,-0.0076 0.0113,-0.01127 2.1168,-1.272218 2.99636,-1.499745 4.203815,-2.454109 0.844765,-0.663455 1.32433,-1.384037 2.124585,-2.874474 0.191855,-0.369672 -0.01525,-0.887127 -0.40902,-1.022545 -1.47102,-0.514898 -2.30538,-1.258171 -2.851745,-1.863335 -0.273165,-0.302582 -0.457565,-0.570222 -0.647635,-0.795313 -0.09502,-0.112541 -0.1816,-0.218225 -0.37491,-0.340847 -0.09665,-0.06131 -0.23604,-0.137778 -0.431745,-0.147702 -0.195675,-0.0099 -0.421745,0.07682 -0.55673,0.181786 -1.39989,1.099967 -2.059635,1.498694 -3.78342,2.045094 -0.379345,0.116546 -0.607305,0.583626 -0.46578,0.95439 l 0.57942,1.499746 -3.4312405,0 -0.613525,-2.510936 c -0.01565,-0.185381 0.083525,-0.583018 0.35222,-1.05664 0.279635,-0.492876 0.72138,-1.060734 1.2384351,-1.601993 1.0340004,-1.082512 2.4026204,-2.0787345 3.2607654,-2.431389 0.0035,0 0.0076,0 0.01125,0 z m -4.40829,7.9076927 c 0.126765,0.159454 0.28789,0.3572 0.488545,0.579454 0.546765,0.605589 1.3836,1.358462 2.65862,1.942862 -0.106075,0.188582 -0.192835,0.34131 -0.284035,0.488546 l -5.419495,0 -0.49989,-1.317964 c 1.20978,-0.4424 2.03491,-0.924753 3.056255,-1.692898 z M 3.5124562,18.602003 c 4.5749503,0 9.1499308,0 13.7248758,0 -0.89178,0.6284 -1.771165,0.932037 -3.737965,2.113237 -0.004,0.0037 -0.0076,-0.0037 -0.01125,0 -0.93844,0.544473 -1.54124,1.258909 -1.78382,2.033745 -0.24349,0.77793 -0.10527,1.590765 0.295455,2.21553 0.79782,1.244 2.631055,1.766325 4.34011,0.795305 1.681235,-0.84065 3.1376,-1.581415 4.41971,-2.329125 l 0,6.95331 -17.2469858,0 z"
     style="color:#000000;text-indent:0;text-transform:none;direction:ltr;block-progression:tb;baseline-shift:baseline;display:inline;overflow:visible;visibility:visible;fill:#000000;fill-opacity:1;fill-rule:evenodd;stroke:none;marker:none;enable-background:accumulate"
     inkscape:connector-curvature="0" /></svg>