<?xml version="1.0" encoding="UTF-8" standalone="no"?>
<svg
   xmlns:dc="http://purl.org/dc/elements/1.1/"
   xmlns:cc="http://creativecommons.org/ns#"
   xmlns:rdf="http://www.w3.org/1999/02/22-rdf-syntax-ns#"
   xmlns:svg="http://www.w3.org/2000/svg"
   xmlns="http://www.w3.org/2000/svg"
   xmlns:sodipodi="http://sodipodi.sourceforge.net/DTD/sodipodi-0.dtd"
   xmlns:inkscape="http://www.inkscape.org/namespaces/inkscape"
   xml:space="preserve"
   version="1.1"
   style="clip-rule:evenodd;fill-rule:evenodd;image-rendering:optimizeQuality;shape-rendering:geometricPrecision;text-rendering:geometricPrecision"
   viewBox="0 0 32 32"
   x="0px"
   y="0px"
   id="svg2"
   inkscape:version="0.91 r13725"
   sodipodi:docname="2264.svg"
   width="32"
   height="32"><metadata
     id="metadata22"><rdf:RDF><cc:Work
         rdf:about=""><dc:format>image/svg+xml</dc:format><dc:type
           rdf:resource="http://purl.org/dc/dcmitype/StillImage" /><dc:title></dc:title></cc:Work></rdf:RDF></metadata><sodipodi:namedview
     pagecolor="#ffffff"
     bordercolor="#666666"
     borderopacity="1"
     objecttolerance="10"
     gridtolerance="10"
     guidetolerance="10"
     inkscape:pageopacity="0"
     inkscape:pageshadow="2"
     inkscape:window-width="1920"
     inkscape:window-height="1027"
     id="namedview20"
     showgrid="false"
     inkscape:zoom="0.98848168"
     inkscape:cx="-531.35752"
     inkscape:cy="-10.116535"
     inkscape:window-x="0"
     inkscape:window-y="0"
     inkscape:window-maximized="1"
     inkscape:current-layer="svg2" /><defs
     id="defs4"><style
       type="text/css"
       id="style6">
   
    .fil0 {fill:black}
    .fil1 {fill:black}
   
  </style></defs><g
     transform="matrix(0.78452043,0,0,0.78452043,-9.4972082,-9.4972082)"
     id="g4146"><path
       inkscape:connector-curvature="0"
       id="path4"
       d="m 52.744,12.254 c -0.195,-0.195 -0.512,-0.195 -0.707,0 L 12.252,52.039 c -0.195,0.195 -0.195,0.512 0,0.707 0.098,0.098 0.226,0.146 0.354,0.146 0.128,0 0.256,-0.049 0.354,-0.146 L 52.745,12.961 c 0.194,-0.195 0.194,-0.512 -10e-4,-0.707 z" /><path
       inkscape:connector-curvature="0"
       id="path6"
       d="m 21.075,30.044 c 2.396,0 4.649,-0.934 6.344,-2.631 1.693,-1.695 2.625,-3.947 2.622,-6.34 0,-4.941 -4.019,-8.962 -8.974,-8.962 -4.939,0 -8.958,4.022 -8.958,8.966 10e-4,4.944 4.023,8.967 8.966,8.967 z" /><path
       inkscape:connector-curvature="0"
       id="path8"
       d="m 43.924,34.957 c -4.94,0 -8.965,4.021 -8.971,8.965 0,4.946 4.024,8.971 8.971,8.971 4.947,0 8.971,-4.021 8.971,-8.965 0,-4.947 -4.025,-8.971 -8.971,-8.971 z" /></g></svg>