<?xml version="1.0" encoding="UTF-8" standalone="no"?>
<svg
   xmlns:dc="http://purl.org/dc/elements/1.1/"
   xmlns:cc="http://creativecommons.org/ns#"
   xmlns:rdf="http://www.w3.org/1999/02/22-rdf-syntax-ns#"
   xmlns:svg="http://www.w3.org/2000/svg"
   xmlns="http://www.w3.org/2000/svg"
   xmlns:sodipodi="http://sodipodi.sourceforge.net/DTD/sodipodi-0.dtd"
   xmlns:inkscape="http://www.inkscape.org/namespaces/inkscape"
   height="32"
   width="32"
   id="svg14"
   xml:space="preserve"
   enable-background="new 0 0 100 100"
   viewBox="0 0 32 32"
   y="0px"
   x="0px"
   version="1.1"
   inkscape:version="0.91 r13725"
   sodipodi:docname="2265.svg"><sodipodi:namedview
     pagecolor="#ffffff"
     bordercolor="#666666"
     borderopacity="1"
     objecttolerance="10"
     gridtolerance="10"
     guidetolerance="10"
     inkscape:pageopacity="0"
     inkscape:pageshadow="2"
     inkscape:window-width="1920"
     inkscape:window-height="1027"
     id="namedview9"
     showgrid="false"
     inkscape:zoom="4.9166667"
     inkscape:cx="24.40678"
     inkscape:cy="24"
     inkscape:window-x="0"
     inkscape:window-y="0"
     inkscape:window-maximized="1"
     inkscape:current-layer="svg14" /><metadata
     id="metadata20"><rdf:RDF><cc:Work
         rdf:about=""><dc:format>image/svg+xml</dc:format><dc:type
           rdf:resource="http://purl.org/dc/dcmitype/StillImage" /><dc:title></dc:title></cc:Work></rdf:RDF></metadata><defs
     id="defs18" /><g
     transform="matrix(0.5,0,0,0.5,-9,-9)"
     id="g8"><path
       id="path2"
       d="m 22,34 56,0 c 2.2,0 4,-1.8 4,-4 0,-2.2 -1.8,-4 -4,-4 l -56,0 c -2.2,0 -4,1.8 -4,4 0,2.2 1.8,4 4,4 z"
       inkscape:connector-curvature="0" /><path
       id="path4"
       d="m 78,46 -56,0 c -2.2,0 -4,1.8 -4,4 0,2.2 1.8,4 4,4 l 56,0 c 2.2,0 4,-1.8 4,-4 0,-2.2 -1.8,-4 -4,-4 z"
       inkscape:connector-curvature="0" /><path
       id="path6"
       d="m 78,66 -56,0 c -2.2,0 -4,1.8 -4,4 0,2.2 1.8,4 4,4 l 56,0 c 2.2,0 4,-1.8 4,-4 0,-2.2 -1.8,-4 -4,-4 z"
       inkscape:connector-curvature="0" /></g></svg>