<?xml version="1.0" encoding="UTF-8" standalone="no"?>
<svg
   xmlns:dc="http://purl.org/dc/elements/1.1/"
   xmlns:cc="http://creativecommons.org/ns#"
   xmlns:rdf="http://www.w3.org/1999/02/22-rdf-syntax-ns#"
   xmlns:svg="http://www.w3.org/2000/svg"
   xmlns="http://www.w3.org/2000/svg"
   xmlns:sodipodi="http://sodipodi.sourceforge.net/DTD/sodipodi-0.dtd"
   xmlns:inkscape="http://www.inkscape.org/namespaces/inkscape"
   height="32"
   width="32"
   id="svg12"
   version="1.1"
   y="0px"
   x="0px"
   viewBox="0 0 32 32"
   inkscape:version="0.91 r13725"
   sodipodi:docname="icon2.svg">
  <sodipodi:namedview
     pagecolor="#ffffff"
     bordercolor="#666666"
     borderopacity="1"
     objecttolerance="10"
     gridtolerance="10"
     guidetolerance="10"
     inkscape:pageopacity="0"
     inkscape:pageshadow="2"
     inkscape:window-width="1920"
     inkscape:window-height="1027"
     id="namedview8"
     showgrid="false"
     inkscape:zoom="4.9166667"
     inkscape:cx="24.40678"
     inkscape:cy="24"
     inkscape:window-x="0"
     inkscape:window-y="0"
     inkscape:window-maximized="1"
     inkscape:current-layer="svg12" />
  <metadata
     id="metadata18">
    <rdf:RDF>
      <cc:Work
         rdf:about="">
        <dc:format>image/svg+xml</dc:format>
        <dc:type
           rdf:resource="http://purl.org/dc/dcmitype/StillImage" />
        <dc:title>Fingerprint</dc:title>
      </cc:Work>
    </rdf:RDF>
  </metadata>
  <defs
     id="defs16" />
  <title
     id="title2">Fingerprint</title>
  <g
     transform="matrix(0.53645883,0,0,0.53645883,-1.1666826,-1.1692494)"
     id="g6">
    <path
       id="path4"
       d="m 47.09,45.23 a 87.38,87.38 0 0 1 -3.88,12.44 c -0.51,0.41 -1,0.8 -1.56,1.15 A 84.47,84.47 0 0 0 46.11,45 14.500194,14.500194 0 0 0 17.88,38.36 a 51.58,51.58 0 0 1 -3.75,11 q -0.29,-0.55 -0.57,-1.12 a 52.56,52.56 0 0 0 3.34,-10.11 15.501955,15.501955 0 0 1 30.18,7.1 z m -13.6,-9.88 a 6.5,6.5 0 0 0 -7.82,4.84 52.46,52.46 0 0 1 -6.32,16.21 l 0.7,0.64 a 52.52,52.52 0 0 0 6.59,-16.62 5.5012385,5.5012385 0 0 1 10.71,2.52 66.54,66.54 0 0 1 -7.28,18.8 q 0.56,0.07 1.14,0.09 a 67.07,67.07 0 0 0 7.11,-18.66 6.5,6.5 0 0 0 -4.83,-7.82 z m 1.37,-5.84 a 12.5,12.5 0 0 0 -15,9.3 50.52,50.52 0 0 1 -4.54,12.59 q 0.3,0.48 0.62,0.94 A 50.47,50.47 0 0 0 20.81,39 11.500924,11.500924 0 1 1 43.2,44.27 77.43,77.43 0 0 1 37.4,60.9 c 0.46,-0.16 0.92,-0.34 1.37,-0.54 A 79.9,79.9 0 0 0 44.17,44.5 12.5,12.5 0 0 0 34.86,29.51 Z m -2.06,8.76 a 3.5,3.5 0 0 0 -4.21,2.61 54.37,54.37 0 0 1 -7,17.44 c 0.27,0.2 0.55,0.39 0.83,0.58 A 55.42,55.42 0 0 0 29.57,41.1 2.5008249,2.5008249 0 1 1 34.44,42.24 62,62 0 0 1 27,61.08 l 0.92,0.26 A 63.43,63.43 0 0 0 35.37,42.48 3.5,3.5 0 0 0 32.8,38.27 Z m -0.69,2.92 a 0.5,0.5 0 0 0 -0.6,0.37 57.82,57.82 0 0 1 -7.32,18.34 c 0.3,0.16 0.61,0.3 0.92,0.44 A 59.17,59.17 0 0 0 32.48,41.78 0.5,0.5 0 0 0 32.11,41.19 Z M 40.36,4.1 a 17.76,17.76 0 0 0 -4.16,-1.7 39.27,39.27 0 0 0 -8.31,0 17.72,17.72 0 0 0 -4.22,1.7 38.31,38.31 0 0 1 16.69,0 z M 34.18,32.43 A 9.5,9.5 0 0 0 22.75,39.5 c -0.7,3 -2.18,9.24 -5.49,14.63 q 0.33,0.41 0.68,0.81 c 3.51,-5.59 5.05,-12.1 5.78,-15.2 a 8.5005088,8.5005088 0 1 1 16.55,3.89 70.85,70.85 0 0 1 -6.71,18.15 q 0.62,-0.06 1.23,-0.17 A 72.88,72.88 0 0 0 41.25,43.86 9.5,9.5 0 0 0 34.18,32.43 Z M 39.44,10 A 32.42,32.42 0 0 1 50,14.61 C 49.68,13.99 49.35,13.38 49,12.8 a 33.52,33.52 0 0 0 -34,0 c -0.35,0.58 -0.68,1.19 -1,1.8 A 32.39,32.39 0 0 1 39.44,10 Z m 0.69,-2.92 a 35.66,35.66 0 0 1 6.33,2.14 Q 45.69,8.31 44.86,7.49 A 36.79,36.79 0 0 0 40.35,6.11 36.32,36.32 0 0 0 19.15,7.51 Q 18.31,8.33 17.54,9.26 A 35.32,35.32 0 0 1 40.13,7.12 Z M 38.76,13 a 29.35,29.35 0 0 1 13.54,7.27 c -0.2,-0.66 -0.42,-1.3 -0.66,-1.93 a 30.49,30.49 0 0 0 -39.28,0 c -0.23,0.63 -0.46,1.28 -0.66,1.93 A 29.46,29.46 0 0 1 38.76,13 Z M 36.24,23.67 A 18.49,18.49 0 0 0 14,37.44 58.23,58.23 0 0 1 12,44.28 q 0.24,0.72 0.51,1.43 a 55.19,55.19 0 0 0 2.48,-8 17.5,17.5 0 1 1 34.07,8 89.83,89.83 0 0 1 -2.52,8.7 27.61,27.61 0 0 0 1.88,-2.54 c 0.64,-2.09 1.17,-4.09 1.61,-5.93 A 18.5,18.5 0 0 0 36.24,23.67 Z m 0.69,-2.92 a 21.51,21.51 0 0 0 -25.85,16 c -0.13,0.56 -0.3,1.22 -0.49,1.94 0.12,0.73 0.26,1.44 0.42,2.15 0.42,-1.38 0.77,-2.7 1,-3.86 a 20.49,20.49 0 0 1 40.4,6 37.94,37.94 0 0 0 0.91,-3.85 21.51,21.51 0 0 0 -16.4,-18.38 z M 54,30.86 a 24.5,24.5 0 0 0 -44,0 c 0,0.33 0,0.66 0,1 q 0,0.76 0,1.5 a 23.5,23.5 0 0 1 43.94,0 q 0,-0.74 0,-1.48 C 54,31.52 54,31.19 54,30.86 Z m -15.91,-15 a 26.39,26.39 0 0 1 15.54,10.51 c -0.1,-0.71 -0.2,-1.41 -0.34,-2.09 a 27.5,27.5 0 0 0 -42.58,0 c -0.13,0.69 -0.24,1.39 -0.34,2.1 a 26.51,26.51 0 0 1 27.7,-10.5 z"
       inkscape:connector-curvature="0" />
  </g>
</svg>
