<?xml version="1.0" encoding="UTF-8" standalone="no"?>
<svg
   xmlns:dc="http://purl.org/dc/elements/1.1/"
   xmlns:cc="http://creativecommons.org/ns#"
   xmlns:rdf="http://www.w3.org/1999/02/22-rdf-syntax-ns#"
   xmlns:svg="http://www.w3.org/2000/svg"
   xmlns="http://www.w3.org/2000/svg"
   xmlns:sodipodi="http://sodipodi.sourceforge.net/DTD/sodipodi-0.dtd"
   xmlns:inkscape="http://www.inkscape.org/namespaces/inkscape"
   height="32"
   width="32"
   id="svg16"
   xml:space="preserve"
   enable-background="new 0 4.867 100 88.751"
   viewBox="0 4.867 32 31.999999"
   y="0px"
   x="0px"
   version="1.1"
   inkscape:version="0.91 r13725"
   sodipodi:docname="2267.svg"><sodipodi:namedview
     pagecolor="#ffffff"
     bordercolor="#666666"
     borderopacity="1"
     objecttolerance="10"
     gridtolerance="10"
     guidetolerance="10"
     inkscape:pageopacity="0"
     inkscape:pageshadow="2"
     inkscape:window-width="1920"
     inkscape:window-height="1027"
     id="namedview10"
     showgrid="false"
     inkscape:zoom="4.9166667"
     inkscape:cx="24.40678"
     inkscape:cy="24"
     inkscape:window-x="0"
     inkscape:window-y="0"
     inkscape:window-maximized="1"
     inkscape:current-layer="svg16" /><metadata
     id="metadata22"><rdf:RDF><cc:Work
         rdf:about=""><dc:format>image/svg+xml</dc:format><dc:type
           rdf:resource="http://purl.org/dc/dcmitype/StillImage" /><dc:title></dc:title></cc:Work></rdf:RDF></metadata><defs
     id="defs20" /><g
     transform="translate(0,-78.938751)"
     id="g4"><path
       style="display:none"
       id="path2"
       d="M 40.636,88.139 C 61.704,93.305 82.969,80.422 88.142,59.36 93.308,38.298 80.42,17.032 59.357,11.865 38.295,6.692 17.024,19.574 11.857,40.642 6.691,61.704 19.572,82.97 40.636,88.139 Z"
       display="none"
       inkscape:connector-curvature="0" /></g><g
     transform="matrix(0.32,0,0,0.32,0,5.1093991)"
     id="g10"><path
       id="path6"
       d="m 33.923,93.617 -10.413,0 c -7.043,0 -12.798,-4.2 -12.798,-14.593 l 0,-17.189 C 10.712,55.631 2.471,54.937 0,54.937 L 0,43.54 c 2.471,0 10.712,-0.695 10.712,-6.893 l 0,-17.289 C 10.712,8.967 16.174,4.867 23.51,4.867 l 10.413,0 0,11.392 -4.858,0 c -6.048,0 -6.458,3.695 -6.458,6.394 l 0,16.095 c -0.085,9.298 -5.742,9.991 -9.913,10.397 l 0,0.19 c 4.169,0.308 9.828,1.009 9.913,10.307 l 0,16.186 c 0,2.7 0.41,6.394 6.458,6.394 l 4.858,0 z"
       inkscape:connector-curvature="0" /><path
       id="path8"
       d="m 66.064,4.867 10.712,0 c 6.744,0 12.5,4.206 12.5,14.59 l 0,17.19 c 0,6.197 7.94,6.893 10.724,6.893 l 0,11.398 c -2.783,0 -10.724,0.693 -10.724,6.899 l 0,17.288 c 0,10.391 -5.456,14.493 -12.792,14.493 l -10.42,0 0,-11.393 4.861,0 c 6.055,0 6.449,-3.694 6.449,-6.394 l 0,-16.099 c 0.098,-9.294 5.75,-9.989 9.924,-10.396 l 0,-0.19 C 83.123,48.838 77.472,48.138 77.374,38.842 l 0,-16.188 c 0,-2.699 -0.395,-6.394 -6.449,-6.394 l -4.861,0 z"
       inkscape:connector-curvature="0" /></g></svg>