<?xml version="1.0" encoding="UTF-8" standalone="no"?>
<svg
   xmlns:dc="http://purl.org/dc/elements/1.1/"
   xmlns:cc="http://creativecommons.org/ns#"
   xmlns:rdf="http://www.w3.org/1999/02/22-rdf-syntax-ns#"
   xmlns:svg="http://www.w3.org/2000/svg"
   xmlns="http://www.w3.org/2000/svg"
   xmlns:sodipodi="http://sodipodi.sourceforge.net/DTD/sodipodi-0.dtd"
   xmlns:inkscape="http://www.inkscape.org/namespaces/inkscape"
   height="32"
   width="32"
   id="svg14"
   version="1.1"
   y="0px"
   x="0px"
   viewBox="0 0 32 32"
   inkscape:version="0.91 r13725"
   sodipodi:docname="2269.svg">
  <sodipodi:namedview
     pagecolor="#ffffff"
     bordercolor="#666666"
     borderopacity="1"
     objecttolerance="10"
     gridtolerance="10"
     guidetolerance="10"
     inkscape:pageopacity="0"
     inkscape:pageshadow="2"
     inkscape:window-width="1920"
     inkscape:window-height="1027"
     id="namedview9"
     showgrid="false"
     inkscape:zoom="4.9166667"
     inkscape:cx="24.40678"
     inkscape:cy="24"
     inkscape:window-x="0"
     inkscape:window-y="0"
     inkscape:window-maximized="1"
     inkscape:current-layer="svg14" />
  <metadata
     id="metadata20">
    <rdf:RDF>
      <cc:Work
         rdf:about="">
        <dc:format>image/svg+xml</dc:format>
        <dc:type
           rdf:resource="http://purl.org/dc/dcmitype/StillImage" />
        <dc:title>Artboard 43</dc:title>
      </cc:Work>
    </rdf:RDF>
  </metadata>
  <defs
     id="defs18" />
  <title
     id="title2">Artboard 43</title>
  <g
     transform="matrix(0.44444444,0,0,0.44444444,-5.3333331,-5.3333331)"
     id="g8">
    <path
       id="path4"
       d="m 32,20 a 4,4 0 0 0 0,-8 l -12,0 a 3.999,3.999 0 0 0 -4,4 l 0,64 a 3.999,3.999 0 0 0 4,4 l 12,0 a 4,4 0 0 0 0,-8 l -8,0 0,-56 z"
       inkscape:connector-curvature="0" />
    <path
       id="path6"
       d="m 76,12 -12,0 a 4,4 0 0 0 0,8 l 8,0 0,56 -8,0 a 4,4 0 0 0 0,8 l 12,0 a 3.999,3.999 0 0 0 4,-4 l 0,-64 a 3.999,3.999 0 0 0 -4,-4 z"
       inkscape:connector-curvature="0" />
  </g>
</svg>
