<?xml version="1.0" encoding="UTF-8" standalone="no"?>
<svg
   xmlns:dc="http://purl.org/dc/elements/1.1/"
   xmlns:cc="http://creativecommons.org/ns#"
   xmlns:rdf="http://www.w3.org/1999/02/22-rdf-syntax-ns#"
   xmlns:svg="http://www.w3.org/2000/svg"
   xmlns="http://www.w3.org/2000/svg"
   xmlns:sodipodi="http://sodipodi.sourceforge.net/DTD/sodipodi-0.dtd"
   xmlns:inkscape="http://www.inkscape.org/namespaces/inkscape"
   height="32"
   width="32"
   id="svg8"
   xml:space="preserve"
   viewBox="0 0 32 32"
   y="0px"
   x="0px"
   version="1.1"
   inkscape:version="0.91 r13725"
   sodipodi:docname="2282.svg"><sodipodi:namedview
     pagecolor="#ffffff"
     bordercolor="#666666"
     borderopacity="1"
     objecttolerance="10"
     gridtolerance="10"
     guidetolerance="10"
     inkscape:pageopacity="0"
     inkscape:pageshadow="2"
     inkscape:window-width="1920"
     inkscape:window-height="1027"
     id="namedview6"
     showgrid="false"
     inkscape:zoom="7.375"
     inkscape:cx="16.271186"
     inkscape:cy="16"
     inkscape:window-x="0"
     inkscape:window-y="0"
     inkscape:window-maximized="1"
     inkscape:current-layer="svg8" /><metadata
     id="metadata14"><rdf:RDF><cc:Work
         rdf:about=""><dc:format>image/svg+xml</dc:format><dc:type
           rdf:resource="http://purl.org/dc/dcmitype/StillImage" /><dc:title></dc:title></cc:Work></rdf:RDF></metadata><defs
     id="defs12" /><g
     id="g4"
     transform="matrix(0.37647059,0,0,0.37647059,-2.808091,-2.8235295)"><path
       d="m 50,21.9 c 4,0 7.2,-3.2 7.2,-7.2 0,-4 -3.2,-7.2 -7.2,-7.2 -4,0 -7.2,3.2 -7.2,7.2 0,4 3.2,7.2 7.2,7.2 z"
       id="path6"
       inkscape:connector-curvature="0" /><path
       d="m 64.7,53.9 c 0,0 -1.9,-22.7 -2.8,-24.5 -1.8,-3.6 -4.5,-5.8 -11.3,-5.8 l -0.6,0 -0.7,0 c -6.7,0 -9.5,2.2 -11.3,5.8 -0.9,1.8 -2.8,24.5 -2.8,24.5 -0.1,1.3 0.8,2.5 2.2,2.7 0.1,0 0.2,0 0.3,0 1.2,0 2.3,-0.9 2.4,-2.2 L 42,34.7 42.5,50 41.1,89.5 c -0.1,1.6 1.1,2.9 2.6,3 0.1,0 0.1,0 0.2,0 1.5,0 2.7,-1.1 2.8,-2.6 L 50,57.4 53.2,89.9 c 0.1,1.5 1.4,2.6 2.8,2.6 0.1,0 0.1,0 0.2,0 1.6,-0.1 2.7,-1.5 2.6,-3 L 57.5,50 58,34.7 59.9,54.4 c 0.1,1.2 1.2,2.2 2.4,2.2 0.1,0 0.2,0 0.3,0 1.3,-0.2 2.3,-1.4 2.1,-2.7 z"
       id="path8"
       inkscape:connector-curvature="0" /></g></svg>