<?xml version="1.0" encoding="UTF-8" standalone="no"?>
<!-- Created with Inkscape (http://www.inkscape.org/) -->

<svg
   xmlns:dc="http://purl.org/dc/elements/1.1/"
   xmlns:cc="http://creativecommons.org/ns#"
   xmlns:rdf="http://www.w3.org/1999/02/22-rdf-syntax-ns#"
   xmlns:svg="http://www.w3.org/2000/svg"
   xmlns="http://www.w3.org/2000/svg"
   xmlns:sodipodi="http://sodipodi.sourceforge.net/DTD/sodipodi-0.dtd"
   xmlns:inkscape="http://www.inkscape.org/namespaces/inkscape"
   width="32"
   height="32"
   viewBox="0 0 8.4666659 8.4666659"
   version="1.1"
   id="svg93"
   inkscape:version="0.92.3 (2405546, 2018-03-11)"
   sodipodi:docname="agendamento.svg">
  <defs
     id="defs87" />
  <sodipodi:namedview
     id="base"
     pagecolor="#ffffff"
     bordercolor="#666666"
     borderopacity="1.0"
     inkscape:pageopacity="0.0"
     inkscape:pageshadow="2"
     inkscape:zoom="2.8284271"
     inkscape:cx="94.848715"
     inkscape:cy="-65.025809"
     inkscape:document-units="mm"
     inkscape:current-layer="layer1"
     showgrid="false"
     units="px"
     inkscape:window-width="1920"
     inkscape:window-height="1012"
     inkscape:window-x="0"
     inkscape:window-y="0"
     inkscape:window-maximized="1" />
  <metadata
     id="metadata90">
    <rdf:RDF>
      <cc:Work
         rdf:about="">
        <dc:format>image/svg+xml</dc:format>
        <dc:type
           rdf:resource="http://purl.org/dc/dcmitype/StillImage" />
        <dc:title></dc:title>
      </cc:Work>
    </rdf:RDF>
  </metadata>
  <g
     inkscape:label="Camada 1"
     inkscape:groupmode="layer"
     id="layer1"
     transform="translate(0,-288.53334)">
    <g
       transform="matrix(0.0891331,0,0,0.0891331,-0.23456977,288.30953)"
       id="g74">
      <path
         d="m 58.2,35.2 c -0.4,0 -0.8,0 -1.1,0.1 -0.2,0.4 -0.3,0.7 -0.5,1 -0.8,1.4 -2.3,4 -4.1,7.3 1.8,-0.5 3.8,-0.7 5.8,-0.7 13,0 23.6,10.6 23.6,23.5 0,13 -10.6,23.5 -23.6,23.5 -12.1,0 -22.1,-9.2 -23.4,-21 -1.1,0.4 -2.3,0.6 -3.5,0.6 -1.4,0 -2.9,-0.3 -4.1,-0.8 1.2,16.1 14.6,28.8 31.1,28.8 17.2,0 31.2,-14 31.2,-31.2 C 89.4,49.2 75.4,35.2 58.2,35.2 Z"
         id="path12"
         inkscape:connector-curvature="0" />
      <path
         d="m 58.2,49.8 c -2.1,0 -3.8,1.7 -3.8,3.8 v 12.7 c 0,2.1 1.7,3.8 3.8,3.8 h 10.3 c 2.1,0 3.8,-1.7 3.8,-3.8 0,-2.1 -1.7,-3.8 -3.8,-3.8 H 62 v -8.9 c 0,-2.1 -1.7,-3.8 -3.8,-3.8 z"
         id="path14"
         inkscape:connector-curvature="0" />
      <path
         d="M 34.2,60.2 C 38.8,52.2 47.5,36.9 49.9,32.6 53.1,26.8 52.9,20 49.9,14 44.7,3.7 32.2,-0.4 22,4.7 11.8,9.9 7.8,22.7 12.8,32.6 c 2.2,4.4 11,19.6 15.6,27.6 1.3,2.2 4.5,2.2 5.8,0 z M 22.4,23.3 c 0,-5 4,-9 9,-9 5,0 9,4 9,9 0,5 -4,9 -9,9 -5,-0.1 -9,-4.1 -9,-9 z"
         id="path16"
         inkscape:connector-curvature="0" />
    </g>
  </g>
</svg>
