<?xml version="1.0" encoding="UTF-8" standalone="no"?>
<svg
   xmlns:dc="http://purl.org/dc/elements/1.1/"
   xmlns:cc="http://creativecommons.org/ns#"
   xmlns:rdf="http://www.w3.org/1999/02/22-rdf-syntax-ns#"
   xmlns:svg="http://www.w3.org/2000/svg"
   xmlns="http://www.w3.org/2000/svg"
   xmlns:sodipodi="http://sodipodi.sourceforge.net/DTD/sodipodi-0.dtd"
   xmlns:inkscape="http://www.inkscape.org/namespaces/inkscape"
   version="1.1"
   x="0px"
   y="0px"
   viewBox="0 0 32 32"
   xml:space="preserve"
   id="svg20"
   sodipodi:docname="family.svg"
   width="32"
   height="32"
   inkscape:version="0.92.3 (2405546, 2018-03-11)"><metadata
     id="metadata26"><rdf:RDF><cc:Work
         rdf:about=""><dc:format>image/svg+xml</dc:format><dc:type
           rdf:resource="http://purl.org/dc/dcmitype/StillImage" /><dc:title></dc:title></cc:Work></rdf:RDF></metadata><defs
     id="defs24" /><sodipodi:namedview
     pagecolor="#ffffff"
     bordercolor="#666666"
     borderopacity="1"
     objecttolerance="10"
     gridtolerance="10"
     guidetolerance="10"
     inkscape:pageopacity="0"
     inkscape:pageshadow="2"
     inkscape:window-width="1920"
     inkscape:window-height="1012"
     id="namedview22"
     showgrid="false"
     inkscape:zoom="1.888"
     inkscape:cx="50"
     inkscape:cy="62.5"
     inkscape:window-x="0"
     inkscape:window-y="0"
     inkscape:window-maximized="1"
     inkscape:current-layer="svg20" /><g
     id="g130"
     transform="matrix(0.35537398,0,0,0.35537398,-42.727056,3.6868938)"><circle
       id="circle2"
       r="6.6999998"
       cy="11.048305"
       cx="191.45558" /><path
       id="path4"
       d="m 210.15558,41.148306 -6.5,-17.9 v 0 c -0.4,-1.3 -1.8,-2.2 -3.1,-2.2 v 0 h -2.3 -4.6 -4.2 -4.6 -2.3 v 0 c -1.3,0 -2.7,0.8 -3.1,2.2 v 0 l -6.5,17.9 c -0.1,0.3 -0.1,0.7 -0.1,1 l -3.6,3.4 h -8 l -3.5,-3.5 c 0,-0.3 0,-0.7 -0.1,-1 l -6.5,-17.9 v 0 c -0.4,-1.3 -1.8,-2.2 -3.1,-2.2 v 0 h -2.3 -4.6 -4.2 -4.6 -2.3 v 0 c -1.3,0 -2.7,0.8 -3.1,2.2 v 0 l -6.6,18 c -0.4,1.1 0.2,2.5 1.3,2.9 0.2,0.1 0.6,0.1 0.8,0.1 0.9,0 1.8,-0.6 2.1,-1.5 l 4.9,-13.6 v 0 c 0.2,-0.6 0.9,-0.9 1.5,-0.7 0.6,0.2 0.9,0.9 0.7,1.5 l -6.9,19.1 h 7.6 v 2.9 0.7 9.4 c 0,1.6 1.2,2.8 2.8,2.8 1.6,0 2.8,-1.2 2.8,-2.8 v -7.2 -2.9 -2.9 h 2.2 v 2.9 2.9 7.1 c 0,1.6 1.2,2.8 2.8,2.8 1.6,0 2.8,-1.2 2.8,-2.8 v -9.4 -0.7 -2.9 h 7.6 l -6.9,-19.1 c -0.2,-0.6 0.1,-1.2 0.7,-1.5 0.6,-0.3 1.2,0.1 1.5,0.7 v 0 l 4.9,13.6 c 0.2,0.7 0.8,1.1 1.3,1.3 l 5.9,5.9 v 6 4.6 2.9 c 0,0.9 0.8,1.7 1.7,1.7 0.9,0 1.7,-0.8 1.7,-1.7 v -2.9 -2.1 c 0,-0.7 0.4,-1.1 1.1,-1.1 0.7,0 1.1,0.4 1.1,1.1 v 2.1 2.9 c 0,0.9 0.8,1.7 1.7,1.7 0.9,0 1.7,-0.8 1.7,-1.7 v -2.9 -4.6 -6.1 l 5.9,-5.9 c 0.7,-0.2 1.1,-0.7 1.3,-1.3 l 5.1,-13.6 v 0 c 0.2,-0.4 0.7,-0.8 1.2,-0.8 0.8,0 1.5,0.7 1.5,1.5 v 22.2 2.5 7.5 c 0,1.6 1.2,2.8 2.8,2.8 1.6,0 2.7,-1.2 2.7,-2.8 v -5.4 -4.6 -0.1 c 0,-0.7 0.4,-1.1 1.1,-1.1 0.7,0 1.1,0.4 1.1,1.1 v 0.1 4.7 5.3 c 0,1.6 1.2,2.8 2.8,2.8 1.6,0 2.8,-1.2 2.8,-2.8 v -7.6 -2.4 -22 c 0,-0.8 0.7,-1.5 1.5,-1.5 0.6,0 1,0.3 1.2,0.8 v 0 l 4.9,13.6 c 0.3,0.9 1.2,1.5 2.1,1.5 0.2,0 0.6,0 0.8,-0.1 1.4,-0.5 2,-1.8 1.6,-2.9 z"
       inkscape:connector-curvature="0" /><circle
       id="circle6"
       r="6.6999998"
       cy="11.048305"
       cx="139.05557" /><circle
       id="circle8"
       r="4.9000001"
       cy="38.548306"
       cx="165.25558" /></g></svg>