<?xml version="1.0" encoding="UTF-8" standalone="no"?>
<svg
   xmlns:dc="http://purl.org/dc/elements/1.1/"
   xmlns:cc="http://creativecommons.org/ns#"
   xmlns:rdf="http://www.w3.org/1999/02/22-rdf-syntax-ns#"
   xmlns:svg="http://www.w3.org/2000/svg"
   xmlns="http://www.w3.org/2000/svg"
   xmlns:sodipodi="http://sodipodi.sourceforge.net/DTD/sodipodi-0.dtd"
   xmlns:inkscape="http://www.inkscape.org/namespaces/inkscape"
   version="1.1"
   x="0px"
   y="0px"
   viewBox="0 0 32 32"
   xml:space="preserve"
   id="svg20"
   sodipodi:docname="grafo.svg"
   width="32"
   height="32"
   inkscape:version="0.92.3 (2405546, 2018-03-11)"><metadata
     id="metadata26"><rdf:RDF><cc:Work
         rdf:about=""><dc:format>image/svg+xml</dc:format><dc:type
           rdf:resource="http://purl.org/dc/dcmitype/StillImage" /><dc:title></dc:title></cc:Work></rdf:RDF></metadata><defs
     id="defs24" /><sodipodi:namedview
     pagecolor="#ffffff"
     bordercolor="#666666"
     borderopacity="1"
     objecttolerance="10"
     gridtolerance="10"
     guidetolerance="10"
     inkscape:pageopacity="0"
     inkscape:pageshadow="2"
     inkscape:window-width="1920"
     inkscape:window-height="1012"
     id="namedview22"
     showgrid="false"
     inkscape:zoom="3.776"
     inkscape:cx="2.7838538"
     inkscape:cy="65.694666"
     inkscape:window-x="0"
     inkscape:window-y="0"
     inkscape:window-maximized="1"
     inkscape:current-layer="svg20" /><g
     id="g82"
     transform="matrix(1.2044673,0,0,1.2044673,-3.6838488,-2.5841916)"><g
       transform="matrix(0.45649073,0,0,0.45649073,-6.801712,-6.8245365)"
       id="g6"><g
         id="g4"><path
           inkscape:connector-curvature="0"
           id="path2"
           d="M 27.1,62 C 26.9,62 26.6,61.9 26.4,61.8 25.8,61.4 25.7,60.6 26,60 L 39.6,39.5 c 0.2,-0.3 0.5,-0.5 0.9,-0.6 0.4,-0.1 0.7,0.1 1,0.3 L 60.3,55.3 73.2,36 c 0.4,-0.6 1.2,-0.7 1.8,-0.4 0.6,0.4 0.7,1.2 0.4,1.8 L 61.7,57.9 c -0.2,0.3 -0.5,0.5 -0.9,0.6 -0.4,0.1 -0.7,-0.1 -1,-0.3 L 41,42.1 28.2,61.5 C 27.9,61.8 27.5,62 27.1,62 Z" /></g></g><g
       transform="matrix(0.45649073,0,0,0.45649073,-6.801712,-6.8245365)"
       id="g12"><g
         id="g10"><circle
           id="circle8"
           r="5.5"
           cy="60.799999"
           cx="27.1" /></g></g><g
       transform="matrix(0.45649073,0,0,0.45649073,-6.801712,-6.8245365)"
       id="g18"><g
         id="g16"><circle
           id="circle14"
           r="5.5"
           cy="57"
           cx="60.5" /></g></g><g
       transform="matrix(0.45649073,0,0,0.45649073,-6.801712,-6.8245365)"
       id="g24"><g
         id="g22"><circle
           id="circle20"
           r="5.5"
           cy="40.299999"
           cx="40.900002" /></g></g><g
       transform="matrix(0.45649073,0,0,0.45649073,-6.801712,-6.8245365)"
       id="g30"><g
         id="g28"><circle
           id="circle26"
           r="5.5"
           cy="36.700001"
           cx="74.300003" /></g></g></g></svg>