<?xml version="1.0" encoding="UTF-8" standalone="no"?>
<svg
   xmlns:dc="http://purl.org/dc/elements/1.1/"
   xmlns:cc="http://creativecommons.org/ns#"
   xmlns:rdf="http://www.w3.org/1999/02/22-rdf-syntax-ns#"
   xmlns:svg="http://www.w3.org/2000/svg"
   xmlns="http://www.w3.org/2000/svg"
   xmlns:sodipodi="http://sodipodi.sourceforge.net/DTD/sodipodi-0.dtd"
   xmlns:inkscape="http://www.inkscape.org/namespaces/inkscape"
   version="1.1"
   x="0px"
   y="0px"
   viewBox="0 0 32 32"
   xml:space="preserve"
   id="svg20"
   sodipodi:docname="reserva.svg"
   width="32"
   height="32"
   inkscape:version="0.92.3 (2405546, 2018-03-11)"><metadata
     id="metadata26"><rdf:RDF><cc:Work
         rdf:about=""><dc:format>image/svg+xml</dc:format><dc:type
           rdf:resource="http://purl.org/dc/dcmitype/StillImage" /><dc:title></dc:title></cc:Work></rdf:RDF></metadata><defs
     id="defs24" /><sodipodi:namedview
     pagecolor="#ffffff"
     bordercolor="#666666"
     borderopacity="1"
     objecttolerance="10"
     gridtolerance="10"
     guidetolerance="10"
     inkscape:pageopacity="0"
     inkscape:pageshadow="2"
     inkscape:window-width="1920"
     inkscape:window-height="1012"
     id="namedview22"
     showgrid="false"
     inkscape:zoom="1.888"
     inkscape:cx="50"
     inkscape:cy="62.5"
     inkscape:window-x="0"
     inkscape:window-y="0"
     inkscape:window-maximized="1"
     inkscape:current-layer="svg20" /><g
     transform="matrix(0.70933685,0,0,0.70933685,-19.497855,-1.8081946)"
     id="g91"><path
       d="m 51.6,7.1 c 9,0 16.4,7.3 16.4,16.4 0,5.2 -2.4,9.8 -6.2,12.8 0.8,0.8 1.4,1.8 1.7,2.9 0.1,0.5 0.2,0.9 0.2,1.4 5.4,-3.7 8.9,-10 8.9,-17.1 C 72.6,12 63.2,2.6 51.7,2.6 c -7,0 -13.3,3.5 -17,8.9 1.6,0.1 3.1,0.7 4.3,1.9 2.8,-3.9 7.4,-6.3 12.6,-6.3 z"
       id="path24"
       inkscape:connector-curvature="0" /><path
       d="m 61.4,23.4 c 0,-1.3 -1,-2.3 -2.3,-2.3 h -5.2 v -6.9 c 0,-1.3 -1,-2.3 -2.3,-2.3 -1.3,0 -2.3,1 -2.3,2.3 v 9.2 c 0,1.3 1,2.3 2.3,2.3 h 7.5 c 1.2,0 2.3,-1 2.3,-2.3 z"
       id="path26"
       inkscape:connector-curvature="0" /><path
       d="m 36.1,39 c 4,4 8.8,6.9 13.4,8.1 1,0.3 2.5,0.4 3.7,0.5 1.2,0.1 2.3,-0.5 2.9,-1.5 l 2.7,-4.2 c 0.7,-1.1 0.3,-2.5 -0.8,-3.1 l -6.5,-3.3 c -0.9,-0.5 -2,-0.2 -2.7,0.6 l -2.4,3 c -2.3,-1.2 -4.1,-2.4 -6.1,-4.5 -2.2,-2.2 -3.3,-4 -4.5,-6.2 l 3,-2.3 c 0.8,-0.6 1.1,-1.8 0.6,-2.7 L 36.1,17 C 35.5,15.9 34.1,15.5 33,16.2 L 28.9,19 c -1,0.6 -1.5,1.7 -1.4,2.9 0.1,1.2 0.2,2.6 0.5,3.7 1.2,4.6 4,9.4 8.1,13.4 z"
       id="path28"
       inkscape:connector-curvature="0" /></g></svg>