<?xml version="1.0" encoding="UTF-8" standalone="no"?>
<svg
   xmlns:dc="http://purl.org/dc/elements/1.1/"
   xmlns:cc="http://creativecommons.org/ns#"
   xmlns:rdf="http://www.w3.org/1999/02/22-rdf-syntax-ns#"
   xmlns:svg="http://www.w3.org/2000/svg"
   xmlns="http://www.w3.org/2000/svg"
   xmlns:sodipodi="http://sodipodi.sourceforge.net/DTD/sodipodi-0.dtd"
   xmlns:inkscape="http://www.inkscape.org/namespaces/inkscape"
   version="1.1"
   x="0px"
   y="0px"
   viewBox="0 0 32 32"
   xml:space="preserve"
   id="svg20"
   sodipodi:docname="parent.svg"
   width="32"
   height="32"
   inkscape:version="0.92.3 (2405546, 2018-03-11)"><metadata
     id="metadata26"><rdf:RDF><cc:Work
         rdf:about=""><dc:format>image/svg+xml</dc:format><dc:type
           rdf:resource="http://purl.org/dc/dcmitype/StillImage" /><dc:title></dc:title></cc:Work></rdf:RDF></metadata><defs
     id="defs24" /><sodipodi:namedview
     pagecolor="#ffffff"
     bordercolor="#666666"
     borderopacity="1"
     objecttolerance="10"
     gridtolerance="10"
     guidetolerance="10"
     inkscape:pageopacity="0"
     inkscape:pageshadow="2"
     inkscape:window-width="1920"
     inkscape:window-height="1012"
     id="namedview22"
     showgrid="false"
     inkscape:zoom="3.776"
     inkscape:cx="2.7838538"
     inkscape:cy="44.508225"
     inkscape:window-x="0"
     inkscape:window-y="0"
     inkscape:window-maximized="1"
     inkscape:current-layer="svg20" /><g
     transform="matrix(0.53679799,0,0,0.53679799,-10.78964,-0.50653819)"
     id="g135"><path
       d="m 43.8,20.6 h 12.4 c 0.7,0 1.2,-0.6 1.1,-1.3 L 57,16.7 c -0.2,-1.8 -1.3,-3.2 -2.8,-4 -1.1,0.9 -2.6,1.4 -4.2,1.4 -1.6,0 -3,-0.5 -4.2,-1.4 -1.5,0.8 -2.5,2.2 -2.8,4 l -0.4,2.6 c 0,0.6 0.5,1.3 1.2,1.3 z"
       id="path12"
       inkscape:connector-curvature="0" /><circle
       cx="50"
       cy="7.3000002"
       r="4.8000002"
       id="circle14" /><path
       d="m 21.4,59 h 12.4 c 0.7,0 1.2,-0.6 1.1,-1.3 l -0.4,-2.6 c -0.2,-1.8 -1.3,-3.2 -2.8,-4 -1.1,0.9 -2.6,1.4 -4.2,1.4 -1.6,0 -3,-0.5 -4.2,-1.4 -1.5,0.8 -2.5,2.2 -2.8,4 l -0.4,2.6 c 0.1,0.7 0.6,1.3 1.3,1.3 z"
       id="path16"
       inkscape:connector-curvature="0" /><circle
       cx="27.6"
       cy="45.799999"
       r="4.8000002"
       id="circle18" /><path
       d="m 72.4,52.7 c -1.6,0 -3,-0.5 -4.2,-1.4 -1.5,0.8 -2.5,2.2 -2.8,4 L 65,57.9 c 0,0.5 0.5,1.1 1.2,1.1 h 12.4 c 0.7,0 1.2,-0.6 1.1,-1.3 l -0.4,-2.6 c -0.2,-1.8 -1.3,-3.2 -2.8,-4 -1,1 -2.5,1.6 -4.1,1.6 z"
       id="path36"
       inkscape:connector-curvature="0" /><circle
       cx="72.400002"
       cy="45.799999"
       r="4.8000002"
       id="circle38" /><path
       d="m 71.3,37.3 c 0,0.6 0.5,1.1 1.1,1.1 0.6,0 1.1,-0.5 1.1,-1.1 v -6.4 c 0,-0.6 -0.5,-1.1 -1.1,-1.1 H 51.1 V 24 c 0,-0.6 -0.5,-1.1 -1.1,-1.1 -0.6,0 -1.1,0.5 -1.1,1.1 v 5.8 H 27.6 c -0.6,0 -1.1,0.5 -1.1,1.1 v 6.4 c 0,0.6 0.5,1.1 1.1,1.1 0.6,0 1.1,-0.5 1.1,-1.1 V 32 h 42.6 z"
       id="path40"
       inkscape:connector-curvature="0" /></g></svg>