<?xml version="1.0" encoding="UTF-8" standalone="no"?>
<!-- Created with Inkscape (http://www.inkscape.org/) -->

<svg
   xmlns:dc="http://purl.org/dc/elements/1.1/"
   xmlns:cc="http://creativecommons.org/ns#"
   xmlns:rdf="http://www.w3.org/1999/02/22-rdf-syntax-ns#"
   xmlns:svg="http://www.w3.org/2000/svg"
   xmlns="http://www.w3.org/2000/svg"
   xmlns:sodipodi="http://sodipodi.sourceforge.net/DTD/sodipodi-0.dtd"
   xmlns:inkscape="http://www.inkscape.org/namespaces/inkscape"
   version="1.1"
   width="32"
   height="32"
   id="svg3251"
   sodipodi:docname="Intersection.svg"
   inkscape:version="0.92.3 (2405546, 2018-03-11)">
  <sodipodi:namedview
     pagecolor="#ffffff"
     bordercolor="#666666"
     borderopacity="1"
     objecttolerance="10"
     gridtolerance="10"
     guidetolerance="10"
     inkscape:pageopacity="0"
     inkscape:pageshadow="2"
     inkscape:window-width="1920"
     inkscape:window-height="1015"
     id="namedview7"
     showgrid="false"
     inkscape:zoom="7.375"
     inkscape:cx="16"
     inkscape:cy="16"
     inkscape:window-x="0"
     inkscape:window-y="0"
     inkscape:window-maximized="1"
     inkscape:current-layer="svg3251" />
  <defs
     id="defs3253" />
  <metadata
     id="metadata3256">
    <rdf:RDF>
      <cc:Work
         rdf:about="">
        <dc:format>image/svg+xml</dc:format>
        <dc:type
           rdf:resource="http://purl.org/dc/dcmitype/StillImage" />
        <dc:title></dc:title>
      </cc:Work>
    </rdf:RDF>
  </metadata>
  <g
     transform="translate(5e-4,5e-4)"
     id="g4">
    <path
       inkscape:connector-curvature="0"
       style="fill:#010002"
       d="m 31.999,15.998 c 0,-5.519 -4.478,-9.997 -9.998,-9.999 -2.256,0 -4.331,0.756 -6.002,2.015 C 14.326,6.756 12.254,6.001 10.001,6 4.473,6 0,10.479 0,16 c 0,5.521 4.473,9.998 10.001,10 2.253,-0.002 4.326,-0.756 5.998,-2.016 1.672,1.259 3.746,2.013 6.001,2.016 5.521,-0.003 9.998,-4.479 9.999,-10.002 z M 10.002,24 C 5.578,23.991 2.009,20.417 2.001,16 c 0.008,-4.417 3.577,-7.991 8,-8 1.67,0.003 3.22,0.519 4.502,1.396 C 12.95,11.159 12,13.465 12,15.998 c 0,2.535 0.95,4.842 2.504,6.604 -1.282,0.877 -2.832,1.395 -4.502,1.398 z M 29.999,15.998 C 29.991,20.417 26.415,23.99 22,24 20.326,23.996 18.775,23.48 17.493,22.604 19.048,20.841 20,18.534 20,16 19.999,13.465 19.048,11.158 17.493,9.396 18.775,8.519 20.327,8.002 22,8 c 4.414,0.008 7.99,3.585 7.999,7.998 z"
       id="path2" />
  </g>
  <g
     transform="translate(47.186941,16.814059)"
     id="g6" />
  <g
     transform="translate(47.186941,16.814059)"
     id="g8" />
  <g
     transform="translate(47.186941,16.814059)"
     id="g10" />
  <g
     transform="translate(47.186941,16.814059)"
     id="g12" />
  <g
     transform="translate(47.186941,16.814059)"
     id="g14" />
  <g
     transform="translate(47.186941,16.814059)"
     id="g16" />
  <g
     transform="translate(47.186941,16.814059)"
     id="g18" />
  <g
     transform="translate(47.186941,16.814059)"
     id="g20" />
  <g
     transform="translate(47.186941,16.814059)"
     id="g22" />
  <g
     transform="translate(47.186941,16.814059)"
     id="g24" />
  <g
     transform="translate(47.186941,16.814059)"
     id="g26" />
  <g
     transform="translate(47.186941,16.814059)"
     id="g28" />
  <g
     transform="translate(47.186941,16.814059)"
     id="g30" />
  <g
     transform="translate(47.186941,16.814059)"
     id="g32" />
  <g
     transform="translate(47.186941,16.814059)"
     id="g34" />
</svg>
