<?xml version="1.0" encoding="UTF-8" standalone="no"?>
<!-- Created with Inkscape (http://www.inkscape.org/) -->

<svg
   xmlns:dc="http://purl.org/dc/elements/1.1/"
   xmlns:cc="http://creativecommons.org/ns#"
   xmlns:rdf="http://www.w3.org/1999/02/22-rdf-syntax-ns#"
   xmlns:svg="http://www.w3.org/2000/svg"
   xmlns="http://www.w3.org/2000/svg"
   xmlns:sodipodi="http://sodipodi.sourceforge.net/DTD/sodipodi-0.dtd"
   xmlns:inkscape="http://www.inkscape.org/namespaces/inkscape"
   width="32"
   height="32"
   viewBox="0 0 8.4666659 8.4666659"
   version="1.1"
   id="svg93"
   inkscape:version="0.92.3 (2405546, 2018-03-11)"
   sodipodi:docname="2.svg">
  <defs
     id="defs87" />
  <sodipodi:namedview
     id="base"
     pagecolor="#ffffff"
     bordercolor="#666666"
     borderopacity="1.0"
     inkscape:pageopacity="0.0"
     inkscape:pageshadow="2"
     inkscape:zoom="2.8284271"
     inkscape:cx="32.976871"
     inkscape:cy="-65.025809"
     inkscape:document-units="mm"
     inkscape:current-layer="layer1"
     showgrid="false"
     units="px"
     inkscape:window-width="1920"
     inkscape:window-height="1015"
     inkscape:window-x="0"
     inkscape:window-y="0"
     inkscape:window-maximized="1" />
  <metadata
     id="metadata90">
    <rdf:RDF>
      <cc:Work
         rdf:about="">
        <dc:format>image/svg+xml</dc:format>
        <dc:type
           rdf:resource="http://purl.org/dc/dcmitype/StillImage" />
        <dc:title></dc:title>
      </cc:Work>
    </rdf:RDF>
  </metadata>
  <g
     inkscape:label="Camada 1"
     inkscape:groupmode="layer"
     id="layer1"
     transform="translate(0,-288.53334)">
    <g
       transform="matrix(0.42333333,0,0,0.42333333,-0.84666663,287.68667)"
       style="fill:none;fill-rule:evenodd;stroke:none;stroke-width:1"
       id="g8">
      <path
         style="fill:#000000;fill-rule:nonzero"
         inkscape:connector-curvature="0"
         d="M 5,4 C 4.4477152,4 4,4.4477152 4,5 v 14 c 0,0.552285 0.4477152,1 1,1 h 14 c 0.552285,0 1,-0.447715 1,-1 V 5 C 20,4.4477152 19.552285,4 19,4 Z M 5,2 h 14 c 1.656854,0 3,1.3431458 3,3 v 14 c 0,1.656854 -1.343146,3 -3,3 H 5 C 3.3431458,22 2,20.656854 2,19 V 5 C 2,3.3431458 3.3431458,2 5,2 Z"
         id="path6" />
    </g>
    <g
       id="layer1-3"
       transform="matrix(0.13229167,0,0,0.13229167,2.1166666,290.65001)">
      <path
         d="m 32,25.7509 q 0,1.0774 -0.754221,1.8316 l -3.663296,3.6633 Q 26.828262,32 25.750851,32 24.67344,32 23.919219,31.2458 L 16,23.3266 8.080781,31.2458 Q 7.32656,32 6.249149,32 5.171738,32 4.417517,31.2458 L 0.754221,27.5825 Q 0,26.8283 0,25.7509 0,24.6734 0.754221,23.9192 L 8.67344,16 0.754221,8.0807799 Q 0,7.3265599 0,6.2491499 0,5.1717399 0.754221,4.4175199 L 4.417517,0.7542201 Q 5.171738,9.9999998e-8 6.249149,9.9999998e-8 7.32656,9.9999998e-8 8.080781,0.7542201 L 16,8.6734399 23.919219,0.7542201 Q 24.67344,9.9999998e-8 25.750851,9.9999998e-8 q 1.077411,0 1.831632,0.754220000000002 l 3.663296,3.6632998 Q 32,5.1717399 32,6.2491499 q 0,1.07741 -0.754221,1.83163 L 23.32656,16 31.245779,23.9192 Q 32,24.6734 32,25.7509 Z"
         id="path253"
         inkscape:connector-curvature="0" />
    </g>
  </g>
</svg>
