<?xml version="1.0" encoding="UTF-8" standalone="no"?>
<!-- Created with Inkscape (http://www.inkscape.org/) -->

<svg
   xmlns:dc="http://purl.org/dc/elements/1.1/"
   xmlns:cc="http://creativecommons.org/ns#"
   xmlns:rdf="http://www.w3.org/1999/02/22-rdf-syntax-ns#"
   xmlns:svg="http://www.w3.org/2000/svg"
   xmlns="http://www.w3.org/2000/svg"
   xmlns:sodipodi="http://sodipodi.sourceforge.net/DTD/sodipodi-0.dtd"
   xmlns:inkscape="http://www.inkscape.org/namespaces/inkscape"
   width="32"
   height="32"
   viewBox="0 0 8.4666659 8.4666659"
   version="1.1"
   id="svg93"
   inkscape:version="0.92.3 (2405546, 2018-03-11)"
   sodipodi:docname="1.svg">
  <defs
     id="defs87" />
  <sodipodi:namedview
     id="base"
     pagecolor="#ffffff"
     bordercolor="#666666"
     borderopacity="1.0"
     inkscape:pageopacity="0.0"
     inkscape:pageshadow="2"
     inkscape:zoom="2.8284271"
     inkscape:cx="32.976871"
     inkscape:cy="-65.025809"
     inkscape:document-units="mm"
     inkscape:current-layer="layer1"
     showgrid="false"
     units="px"
     inkscape:window-width="1920"
     inkscape:window-height="1015"
     inkscape:window-x="0"
     inkscape:window-y="0"
     inkscape:window-maximized="1" />
  <metadata
     id="metadata90">
    <rdf:RDF>
      <cc:Work
         rdf:about="">
        <dc:format>image/svg+xml</dc:format>
        <dc:type
           rdf:resource="http://purl.org/dc/dcmitype/StillImage" />
        <dc:title></dc:title>
      </cc:Work>
    </rdf:RDF>
  </metadata>
  <g
     inkscape:label="Camada 1"
     inkscape:groupmode="layer"
     id="layer1"
     transform="translate(0,-288.53334)">
    <g
       transform="matrix(0.42333333,0,0,0.42333333,-0.84666663,287.68667)"
       style="fill:none;fill-rule:evenodd;stroke:none;stroke-width:1"
       id="g8">
      <path
         style="fill:#000000;fill-rule:nonzero"
         inkscape:connector-curvature="0"
         d="M 5,4 C 4.4477152,4 4,4.4477152 4,5 v 14 c 0,0.552285 0.4477152,1 1,1 h 14 c 0.552285,0 1,-0.447715 1,-1 V 5 C 20,4.4477152 19.552285,4 19,4 Z M 5,2 h 14 c 1.656854,0 3,1.3431458 3,3 v 14 c 0,1.656854 -1.343146,3 -3,3 H 5 C 3.3431458,22 2,20.656854 2,19 V 5 C 2,3.3431458 3.3431458,2 5,2 Z"
         id="path6" />
    </g>
  </g>
</svg>
