<?xml version="1.0" encoding="UTF-8" standalone="no"?>
<svg
   xmlns:dc="http://purl.org/dc/elements/1.1/"
   xmlns:cc="http://creativecommons.org/ns#"
   xmlns:rdf="http://www.w3.org/1999/02/22-rdf-syntax-ns#"
   xmlns:svg="http://www.w3.org/2000/svg"
   xmlns="http://www.w3.org/2000/svg"
   id="svg3251"
   height="32"
   width="32"
   version="1.1">
  <defs
     id="defs3253" />
  <metadata
     id="metadata3256">
    <rdf:RDF>
      <cc:Work
         rdf:about="">
        <dc:format>image/svg+xml</dc:format>
        <dc:type
           rdf:resource="http://purl.org/dc/dcmitype/StillImage" />
        <dc:title></dc:title>
      </cc:Work>
    </rdf:RDF>
  </metadata>
  <g
     id="xml">
    <path
       id="path5"
       d="m 26,20 c -1.296,0 -2.492,0.414 -3.473,1.112 l -5.113,-5.113 5.112,-5.112 C 23.507,11.585 24.703,12 26,12 c 3.312,0 6,-2.687 6,-6 0,-3.313 -2.688,-6 -6,-6 -3.316,0 -6,2.687 -6,6 0,1.295 0.414,2.491 1.111,3.472 L 15.999,14.585 10.887,9.473 C 11.585,8.492 12,7.295 12,6 12,2.687 9.314,0 6,0 2.686,0 0,2.687 0,6 c 0,3.313 2.686,6 6,6 1.296,0 2.492,-0.415 3.473,-1.113 l 5.112,5.112 -5.113,5.113 C 8.491,20.414 7.295,20 6,20 c -3.314,0 -6,2.688 -6,6 0,3.312 2.686,6 6,6 3.314,0 6,-2.688 6,-6 0,-1.296 -0.415,-2.492 -1.113,-3.473 l 5.112,-5.113 5.113,5.113 C 20.414,23.509 20,24.705 20,26 c 0,3.312 2.684,6 6,6 3.312,0 6,-2.688 6,-6 0,-3.312 -2.688,-6 -6,-6 z" />
  </g>
</svg>
