<?xml version="1.0" encoding="UTF-8" standalone="no"?>
<svg
   xmlns:dc="http://purl.org/dc/elements/1.1/"
   xmlns:cc="http://creativecommons.org/ns#"
   xmlns:rdf="http://www.w3.org/1999/02/22-rdf-syntax-ns#"
   xmlns:svg="http://www.w3.org/2000/svg"
   xmlns="http://www.w3.org/2000/svg"
   id="svg3143"
   height="32"
   width="32"
   version="1.1">
  <defs
     id="defs3145" />
  <metadata
     id="metadata3148">
    <rdf:RDF>
      <cc:Work
         rdf:about="">
        <dc:format>image/svg+xml</dc:format>
        <dc:type
           rdf:resource="http://purl.org/dc/dcmitype/StillImage" />
        <dc:title></dc:title>
      </cc:Work>
    </rdf:RDF>
  </metadata>
  <g
     id="layer1">
    <path
       id="path129"
       d="M 28.23225,6.23219 23.76775,1.76775 C 22.7955,0.7955 20.875,0 19.5,0 H 4.5 C 3.125,0 2,1.125 2,2.5 v 27 C 2,30.875 3.125,32 4.5,32 h 23 c 1.375,0 2.5,-1.125 2.5,-2.5 v -19 C 30,9.125 29.2045,7.20444 28.23225,6.23219 z M 26.818062,7.64644 C 26.915872,7.74424 27.013375,7.86437 27.108063,8 H 22 V 2.892 c 0.135625,0.0947 0.25575,0.19219 0.353562,0.29 l 4.4645,4.46444 z M 28,29.5 C 28,29.771 27.771,30 27.5,30 H 4.5 C 4.229,30 4,29.771 4,29.5 V 2.5 C 4,2.229 4.229,2 4.5,2 h 15 c 0.151,0 0.320437,0.0191 0.5,0.0532 V 10 h 7.94675 C 27.98094,10.17956 28,10.34894 28,10.5 v 19 z" />
  </g>
  <path
     style="stroke-width:0.625"
     id="path257"
     d="m 16,6 c -1.25,0 -1.875,0.6877187 -1.875,1.375125 0,0.6875937 -0.625,0.6875 -0.625,3.4375 0,2.062375 1.25,6.874875 1.25,7.56225 V 19.75 h 2.5 v -1.375125 c 0,-0.687375 1.25,-5.499875 1.25,-7.56225 0,-2.0624063 -0.625,-2.7501 -0.625,-3.4375 C 17.875,6.6877187 17.25,6 16,6 Z M 14.125,20.375 V 21 H 8.5 v 3.757312 h 15 V 21 h -5.625 v -0.625 z m -5,5 V 26 h 13.75 v -0.625 z" />
</svg>
