<?xml version="1.0" encoding="UTF-8" standalone="no"?>
<svg
   xmlns:dc="http://purl.org/dc/elements/1.1/"
   xmlns:cc="http://creativecommons.org/ns#"
   xmlns:rdf="http://www.w3.org/1999/02/22-rdf-syntax-ns#"
   xmlns:svg="http://www.w3.org/2000/svg"
   xmlns="http://www.w3.org/2000/svg"
   id="svg93"
   version="1.1"
   viewBox="0 0 8.4666659 8.4666659"
   height="32"
   width="32">
  <defs
     id="defs87" />
  <metadata
     id="metadata90">
    <rdf:RDF>
      <cc:Work
         rdf:about="">
        <dc:format>image/svg+xml</dc:format>
        <dc:type
           rdf:resource="http://purl.org/dc/dcmitype/StillImage" />
        <dc:title></dc:title>
      </cc:Work>
    </rdf:RDF>
  </metadata>
  <g
     transform="translate(0,-288.53334)"
     id="layer1">
    <g
       id="g823"
       transform="matrix(0.09513109,0,0,0.09513109,-0.33295899,288.20038)">
      <path
         d="m 48,19.5 c 4.4,0 8,-3.6 8,-8 0,-4.4 -3.6,-8 -8,-8 -4.4,0 -8,3.6 -8,8 0,4.4 3.6,8 8,8"
         id="path2" />
      <path
         d="m 68,49.5 4,-12 H 24 l 4,12 h 6 l 4,39 h -6 v 4 h 32 v -4 h -6 l 4,-39 z"
         id="path4" />
      <path
         d="M 64.2,28.9 C 64,28.1 63.6,27.3 63,26.7 c -2.4,-2 -5.2,-3.4 -8.4,-4.4 -2.2,-0.4 -4.4,-0.8 -6.6,-0.8 -2.2,0 -4.4,0.4 -6.6,1 -3.2,0.8 -6,2.4 -8.4,4.4 -0.6,0.6 -1,1.4 -1.2,2.2 l -1,4.4 h 34.5 z"
         id="path6" />
    </g>
  </g>
</svg>
