<?xml version="1.0" encoding="UTF-8" standalone="no"?>
<svg
   xmlns:dc="http://purl.org/dc/elements/1.1/"
   xmlns:cc="http://creativecommons.org/ns#"
   xmlns:rdf="http://www.w3.org/1999/02/22-rdf-syntax-ns#"
   xmlns:svg="http://www.w3.org/2000/svg"
   xmlns="http://www.w3.org/2000/svg"
   version="1.1"
   x="0px"
   y="0px"
   viewBox="0 0 32 32"
   xml:space="preserve"
   id="svg20"
   width="32"
   height="32"><metadata
     id="metadata26"><rdf:RDF><cc:Work
         rdf:about=""><dc:format>image/svg+xml</dc:format><dc:type
           rdf:resource="http://purl.org/dc/dcmitype/StillImage" /><dc:title></dc:title></cc:Work></rdf:RDF></metadata><defs
     id="defs24" /><g
     transform="matrix(1.1428571,0,0,1.1428571,-2.2857136,-2.2857136)"
     id="network"><g
       id="g7"><path
         id="path5"
         d="M 26,20.101 V 11.9 c 2.281,-0.463 4,-2.48 4,-4.899 0,-2.762 -2.239,-5 -5,-5 -2.761,0 -5,2.238 -5,5 0,2.419 1.719,4.436 4,4.899 v 8.201 c -0.638,0.13 -1.229,0.384 -1.754,0.731 L 11.168,9.755 C 11.691,8.964 12,8.019 12,7 12,4.238 9.761,2 7,2 4.239,2 2,4.238 2,7 2,9.419 3.718,11.436 6,11.899 V 20.1 c -2.282,0.463 -4,2.48 -4,4.9 0,2.763 2.239,5 5,5 2.761,0 5,-2.237 5,-5 0,-2.42 -1.718,-4.437 -4,-4.899 V 11.9 C 8.638,11.77 9.229,11.517 9.754,11.17 L 20.832,22.247 C 20.309,23.036 20,23.981 20,25 c 0,2.763 2.24,5 5,5 2.76,0 5,-2.237 5,-5 0,-2.42 -1.719,-4.436 -4,-4.899 z" /></g></g></svg>