<?xml version="1.0" encoding="UTF-8" standalone="no"?>
<svg
   xmlns:dc="http://purl.org/dc/elements/1.1/"
   xmlns:cc="http://creativecommons.org/ns#"
   xmlns:rdf="http://www.w3.org/1999/02/22-rdf-syntax-ns#"
   xmlns:svg="http://www.w3.org/2000/svg"
   xmlns="http://www.w3.org/2000/svg"
   height="32"
   width="32"
   id="svg20"
   xml:space="preserve"
   viewBox="0 0 32 32"
   y="0px"
   x="0px"
   version="1.1"><metadata
     id="metadata26"><rdf:RDF><cc:Work
         rdf:about=""><dc:format>image/svg+xml</dc:format><dc:type
           rdf:resource="http://purl.org/dc/dcmitype/StillImage" /><dc:title></dc:title></cc:Work></rdf:RDF></metadata><defs
     id="defs24" /><g
     transform="matrix(1.2044673,0,0,1.2044673,-3.6838488,-2.5841916)"
     id="g82"><g
       id="g6"
       transform="matrix(0.45649073,0,0,0.45649073,-6.801712,-6.8245365)"><g
         id="g4"><path
           d="M 27.1,62 C 26.9,62 26.6,61.9 26.4,61.8 25.8,61.4 25.7,60.6 26,60 L 39.6,39.5 c 0.2,-0.3 0.5,-0.5 0.9,-0.6 0.4,-0.1 0.7,0.1 1,0.3 L 60.3,55.3 73.2,36 c 0.4,-0.6 1.2,-0.7 1.8,-0.4 0.6,0.4 0.7,1.2 0.4,1.8 L 61.7,57.9 c -0.2,0.3 -0.5,0.5 -0.9,0.6 -0.4,0.1 -0.7,-0.1 -1,-0.3 L 41,42.1 28.2,61.5 C 27.9,61.8 27.5,62 27.1,62 Z"
           id="path2" /></g></g><g
       id="g12"
       transform="matrix(0.45649073,0,0,0.45649073,-6.801712,-6.8245365)"><g
         id="g10"><circle
           cx="27.1"
           cy="60.799999"
           r="5.5"
           id="circle8" /></g></g><g
       id="g18"
       transform="matrix(0.45649073,0,0,0.45649073,-6.801712,-6.8245365)"><g
         id="g16"><circle
           cx="60.5"
           cy="57"
           r="5.5"
           id="circle14" /></g></g><g
       id="g24"
       transform="matrix(0.45649073,0,0,0.45649073,-6.801712,-6.8245365)"><g
         id="g22"><circle
           cx="40.900002"
           cy="40.299999"
           r="5.5"
           id="circle20" /></g></g><g
       id="g30"
       transform="matrix(0.45649073,0,0,0.45649073,-6.801712,-6.8245365)"><g
         id="g28"><circle
           cx="74.300003"
           cy="36.700001"
           r="5.5"
           id="circle26" /></g></g></g></svg>