<?xml version="1.0" encoding="UTF-8" standalone="no"?>
<svg
   xmlns:dc="http://purl.org/dc/elements/1.1/"
   xmlns:cc="http://creativecommons.org/ns#"
   xmlns:rdf="http://www.w3.org/1999/02/22-rdf-syntax-ns#"
   xmlns:svg="http://www.w3.org/2000/svg"
   xmlns="http://www.w3.org/2000/svg"
   height="32"
   width="32"
   id="svg20"
   xml:space="preserve"
   viewBox="0 0 32 32"
   y="0px"
   x="0px"
   version="1.1"><metadata
     id="metadata26"><rdf:RDF><cc:Work
         rdf:about=""><dc:format>image/svg+xml</dc:format><dc:type
           rdf:resource="http://purl.org/dc/dcmitype/StillImage" /><dc:title></dc:title></cc:Work></rdf:RDF></metadata><defs
     id="defs24" /><path
     d="m 2.1284041,8.4453003 -0.0013,6.51e-4 c 0.0013,0.002 0.0039,0.0046 0.0065,0.0065 -0.0026,-0.0026 -0.0039,-0.0052 -0.0052,-0.0072 z M 23.198732,31.72142 c 0.03192,-0.0026 0.06254,-0.0046 0.09772,-0.0072 0.104231,-0.01107 0.244292,-0.04951 0.385655,-0.12182 0.183056,-0.08078 0.27491,-0.171982 0.33354,-0.248201 0.02541,-0.02801 0.12182,-0.05733 0.145924,-0.0886 0.0098,-0.01238 0.09837,-0.02541 0.09837,-0.03843 0,0 0,0 0,-0.0013 0,-0.06905 0.0059,-0.114654 0.02345,-0.147226 0.0065,-0.01368 0.145923,-0.465132 0.142015,-0.595421 -0.0078,-0.366112 -0.205205,-0.697697 -0.470343,-0.920491 l -0.07687,-0.05863 c -0.176545,-0.168723 -0.601287,-0.571316 -1.470966,-1.413634 -0.0658,-0.04755 -0.220188,-0.319208 -0.229309,-0.971955 -0.03713,-1.039706 0.323768,-2.62858 0.657308,-4.446111 1.452722,-0.31595 2.75496,-0.645581 3.751019,-0.760887 0.242989,-0.02736 0.468389,-0.04365 0.672942,-0.04299 0.651445,-0.01368 0.919189,0.129638 0.966093,0.193479 0.664473,0.641022 1.065112,1.027328 1.297678,1.254031 0.0215,0.0241 0.0456,0.0469 0.0684,0.06971 0.0026,0 0.226703,0.213023 0.226703,0.214977 0.493795,0.469692 1.270969,0.452103 1.741963,-0.03843 0.136152,-0.143318 0.365461,-0.311391 0.420834,-0.492492 0.0013,-0.0065 0.355037,-0.575226 -2.035765,-2.76864 -0.370021,-0.339403 -0.772614,-0.570014 -1.198658,-0.702909 -0.501613,-0.15765 -1.025374,-0.201948 -1.52829,-0.194782 -0.77587,0.02345 -1.619491,0.151787 -2.498942,0.327025 -0.485977,0.09511 -0.981075,0.203902 -1.483339,0.315951 0.08404,-0.761539 0.137454,-1.536107 0.128334,-2.30416 v 0 0 C 23.338788,15.594907 22.779201,13.336999 21.002711,11.6237 20.897177,11.52012 20.789037,11.421752 20.679595,11.326641 19.039257,9.9097483 17.025641,9.4915213 15.129286,9.5325623 c -0.560894,0.01303 -1.12244,0.05928 -1.679425,0.125729 -0.273607,0.03322 -0.545911,0.07101 -0.817563,0.114003 0.201296,-1.188887 0.364809,-2.371259 0.357643,-3.491093 -0.002,-0.145272 -0.0072,-0.290544 -0.01694,-0.435816 -0.043,-0.669034 -0.175891,-1.343931 -0.448194,-1.969318 -0.217583,-0.501612 -0.525716,-0.971955 -0.952413,-1.384971 -0.755024,-0.73483 -1.241002,-1.201916 -1.532849,-1.4879 C 9.8916671,0.86118132 9.7926471,0.76476732 9.7314121,0.70418332 c -0.02541,-0.0228 -0.043,-0.04234 -0.05603,-0.05407 -0.01042,-0.01042 -0.0215,-0.0215 -0.03192,-0.03192 -0.234521,-0.226702 -0.555031,-0.35178 -0.879451,-0.345265 -0.05537,-0.0059 -0.134197,6.51e-4 -0.224097,0.02019 -0.0046,6.52e-4 -0.0098,0.002 -0.01629,0.0033 -0.01173,0.0026 -0.0228,0.0052 -0.03583,0.0091 -0.0026,0.0013 -0.0039,0.0013 -0.0052,0.002 -0.09316,0.02345 -0.223445,0.05993 -0.417576,0.194131 -0.217583,0.124426 -0.524413,0.55698498 -0.517247,0.98433298 6.51e-4,0.01238 6.51e-4,0.02606 0.002,0.03974 0.0026,0.172633 0.043,0.343311 0.115957,0.497704 0.03453,0.08795 0.05993,0.123774 0.08013,0.146575 0.05212,0.07882 0.111397,0.151786 0.177844,0.218885 0,0.0013 0.627342,0.60845 0.628645,0.60845 0.01303,0.01303 0.02475,0.02475 0.03713,0.03518 0.291196,0.282075 0.73027,0.674896 1.287255,1.214944 0.0065,0.0052 0.05146,0.01173 0.05146,0.01759 v -0.002 c 0,0.18957 0.3113899,0.420833 0.4208329,0.712029 0.129638,0.349174 0.181753,0.784991 0.193479,1.345233 0.03257,1.080747 -0.229308,2.446175 -0.497052,3.9477547 -1.4931109,0.315299 -2.8552819,0.614312 -3.9360289,0.61757 -1.031888,0.01042 -1.655973,-0.185662 -2.082669,-0.599329 -0.755676,-0.7335267 -1.240351,-1.2012647 -1.531546,-1.4852937 -0.149181,-0.142667 -0.247549,-0.238429 -0.308134,-0.299014 -0.02215,-0.0215 -0.04104,-0.03648 -0.05342,-0.04951 0.0046,0.0046 0.01042,0.01107 0.02085,0.0228 -0.01042,-0.01042 -0.01824,-0.02019 -0.02736,-0.02866 v 0 c 0,0 -0.0026,-0.002 -0.0039,-0.0026 0,0 0.0013,-6.52e-4 0,-6.52e-4 -0.0026,-0.002 -0.0026,-0.0026 -0.0026,-0.0026 0,-0.0013 -0.0026,-0.0013 -0.0026,-0.0013 l -0.0098,-0.01303 -0.002,0.0013 c -0.0697,-0.07166 -0.151135,-0.134198 -0.240383,-0.186313 -0.203251,-0.123775 -0.432559,-0.181102 -0.661868,-0.175239 -0.07231,-0.0059 -0.176541,-0.0026 -0.29315004,0.03192 -0.08273,0.02085 -0.165467,0.08404 -0.244292,0.08404 h -0.0013 l 0.0026,0.01368 c -0.194782,0.100974 -0.385655,0.264487 -0.504869,0.488584 -0.128335,0.32898 -0.165467,0.557637 -0.16286199556,0.715286 0.001299996,0.135501 0.0325699956,0.223446 0.0651399956,0.287287 0.0013,0.002 0.0013,0.0039 0.0026,0.0065 0.02997,0.114654 0.06189,0.249503 0.0886,0.282727 0.01629,0.02801 0.03062,0.1602547 0.04169,0.1602547 0.0013,0 0.0013,0 0.0013,0 0.0026,0 0.0039,-0.07883 0.0065,-0.07492 0.05863,0.09576 0.07361,0.06319 0.08404,0.07036 0.0059,0.0085 0.0098,-0.0091 0.01368,-0.0046 6.51e-4,0.0013 0.0033,-0.0046 0.0059,-0.002 0.07622,0.08404 0.043,0.03974 0.05928,0.05798 0.05798,0.05668 0.629296,0.611055 0.63450704,0.616267 0.01824,0.01759 0.03713,0.03257 0.05668,0.04951 0.28403,0.273607 0.6762,0.652747 1.220807,1.182372 0.0091,0.01042 0.01759,0.0202 0.02866,0.02997 v 0 c 0.537442,0.519202 1.158269,0.848181 1.813622,1.043615 0.0026,6.51e-4 0.0039,0.0013 0.0065,0.0013 0.01042,0.0039 0.0215,0.0065 0.03257,0.0091 0.646884,0.18957 1.323735,0.248852 1.982997,0.235823 1.121137,-0.02932 2.298297,-0.231263 3.48067,-0.470995 -0.07557,0.618221 -0.123124,1.245563 -0.151787,1.872904 -0.08143,1.773232 0.6214779,3.984236 0.6520959,4.059152 0.02997,0.07296 0.06124,0.145273 0.09446,0.216931 0.0215,0.04756 0.03909,0.09446 0.06189,0.141364 0.04821,0.101625 0.100322,0.202599 0.154392,0.302922 0.0091,0.01694 0.01694,0.03387 0.02541,0.05081 0.326373,0.591512 0.744601,1.153708 1.276831,1.667698 0.110746,0.107489 0.223446,0.209114 0.338751,0.308785 1.263803,1.081398 2.748446,1.596691 4.242208,1.777792 0.536791,0.06384 1.073581,0.08664 1.601252,0.07687 0.770007,-0.01694 1.543272,-0.09511 2.302857,-0.204553 -0.269698,1.422755 -0.517899,2.793395 -0.515293,3.999219 0.01759,0.93352 0.199993,1.928928 0.968047,2.698935 0.647536,0.627993 1.044917,1.009088 1.278786,1.236442 0.01368,0.01238 0.02801,0.02606 0.04104,0.03974 0.01759,0.01824 0.03713,0.03713 0.05472,0.05407 0.0026,0.0013 0.05212,0.0469 0.105534,0.09837 0.01759,0.01694 0.03453,0.03192 0.0456,0.04495 0.02671,0.02345 0.04104,0.03974 0.05342,0.05212 0.0078,0.0059 0.01368,0.0098 0.01889,0.01498 0.0052,0.0046 0.0078,0.0085 0.01368,0.01368 0.0052,0.0039 0.0091,0.0091 0.0228,0.0202 0.01042,0.0078 0.01629,0.01498 0.0443,0.03583 0.01368,0.01368 0.02801,0.02736 0.07492,0.05928 0.02541,0.01563 0.05472,0.03648 0.122472,0.07166 0.01042,0.0013 0.01759,0.0052 0.02671,0.0091 0.0039,0.0013 0.0065,0.0033 0.01042,0.0046 0.05081,0.02606 0.110746,0.06775 0.280121,0.09837 0.03974,0.0078 0.08664,0.01433 0.143969,0.01889 0.03974,0.0039 0.08273,0.0052 0.128335,0.0078 0.01889,-0.0026 0.03844,-0.0052 0.05602,-0.0078 z M 16.647153,20.829264 c -0.642976,-0.07231 -1.237745,-0.218885 -1.783656,-0.461223 -0.512035,-0.2254 -0.981727,-0.535487 -1.409726,-0.948503 -0.321814,-0.315299 -0.581089,-0.651445 -0.7889,-1.008437 -0.507475,-0.874238 -0.705514,-1.880721 -0.732224,-3.064396 -0.01042,-0.390215 0.0052,-0.791505 0.03583,-1.199961 0.0456,-0.584997 0.124426,-1.184978 0.221491,-1.796033 1.030586,-0.196736 2.035765,-0.345917 2.979708,-0.353083 1.670956,-0.01629 2.999252,0.318556 4.116479,1.396697 0.515293,0.498355 0.882056,1.061855 1.134817,1.691151 0.309436,0.768053 0.448194,1.635126 0.475555,2.596659 0,0.03062 0.0013,0.05928 0.0039,0.0899 0.0091,0.421484 -0.0078,0.851438 -0.04169,1.286603 -0.03843,0.501612 -0.100323,1.009739 -0.176542,1.521123 -0.950458,0.174588 -1.895704,0.299665 -2.801863,0.308134 -0.428651,0.0046 -0.839713,-0.01433 -1.233185,-0.05863 z"
     id="path2"
     style="fill:#000000;stroke-width:0.65144473" /></svg>