<?xml version="1.0" encoding="UTF-8" standalone="no"?>
<svg
   xmlns:dc="http://purl.org/dc/elements/1.1/"
   xmlns:cc="http://creativecommons.org/ns#"
   xmlns:rdf="http://www.w3.org/1999/02/22-rdf-syntax-ns#"
   xmlns:svg="http://www.w3.org/2000/svg"
   xmlns="http://www.w3.org/2000/svg"
   id="svg93"
   version="1.1"
   viewBox="0 0 8.4666659 8.4666659"
   height="32"
   width="32">
  <defs
     id="defs87" />
  <metadata
     id="metadata90">
    <rdf:RDF>
      <cc:Work
         rdf:about="">
        <dc:format>image/svg+xml</dc:format>
        <dc:type
           rdf:resource="http://purl.org/dc/dcmitype/StillImage" />
        <dc:title></dc:title>
      </cc:Work>
    </rdf:RDF>
  </metadata>
  <g
     transform="translate(0,-288.53334)"
     id="layer1">
    <path
       style="stroke-width:0.14268292"
       d="m 4.6272821,296.76457 c 0.656341,-1.14146 1.897682,-3.32451 2.240121,-3.93804 0.456585,-0.82757 0.428049,-1.79781 0,-2.65391 -0.741951,-1.46963 -2.525487,-2.05463 -3.980853,-1.32695 -1.455366,0.74195 -2.02609796,2.56829 -1.312683,3.98086 0.313902,0.6278 1.569512,2.79658 2.225853,3.93804 0.185488,0.31391 0.642073,0.31391 0.827562,0 z m -1.683659,-5.265 c 0,-0.71341 0.570732,-1.28414 1.284146,-1.28414 0.713415,0 1.284146,0.57073 1.284146,1.28414 0,0.71342 -0.570731,1.28415 -1.284146,1.28415 -0.713414,-0.0143 -1.284146,-0.585 -1.284146,-1.28415 z"
       id="path16" />
  </g>
</svg>
