<?xml version="1.0" encoding="UTF-8" standalone="no"?>
<svg
   xmlns:dc="http://purl.org/dc/elements/1.1/"
   xmlns:cc="http://creativecommons.org/ns#"
   xmlns:rdf="http://www.w3.org/1999/02/22-rdf-syntax-ns#"
   xmlns:svg="http://www.w3.org/2000/svg"
   xmlns="http://www.w3.org/2000/svg"
   id="svg3251"
   height="32"
   width="32"
   version="1.1">
  <defs
     id="defs3253" />
  <metadata
     id="metadata3256">
    <rdf:RDF>
      <cc:Work
         rdf:about="">
        <dc:format>image/svg+xml</dc:format>
        <dc:type
           rdf:resource="http://purl.org/dc/dcmitype/StillImage" />
        <dc:title></dc:title>
      </cc:Work>
    </rdf:RDF>
  </metadata>
  <g
     id="g4"
     transform="translate(5e-4,5e-4)">
    <path
       id="path2"
       d="m 31.999,15.998 c 0,-5.519 -4.478,-9.997 -9.998,-9.999 -2.256,0 -4.331,0.756 -6.002,2.015 C 14.326,6.756 12.254,6.001 10.001,6 4.473,6 0,10.479 0,16 c 0,5.521 4.473,9.998 10.001,10 2.253,-0.002 4.326,-0.756 5.998,-2.016 1.672,1.259 3.746,2.013 6.001,2.016 5.521,-0.003 9.998,-4.479 9.999,-10.002 z M 10.002,24 C 5.578,23.991 2.009,20.417 2.001,16 c 0.008,-4.417 3.577,-7.991 8,-8 1.67,0.003 3.22,0.519 4.502,1.396 C 12.95,11.159 12,13.465 12,15.998 c 0,2.535 0.95,4.842 2.504,6.604 -1.282,0.877 -2.832,1.395 -4.502,1.398 z M 29.999,15.998 C 29.991,20.417 26.415,23.99 22,24 20.326,23.996 18.775,23.48 17.493,22.604 19.048,20.841 20,18.534 20,16 19.999,13.465 19.048,11.158 17.493,9.396 18.775,8.519 20.327,8.002 22,8 c 4.414,0.008 7.99,3.585 7.999,7.998 z"
       style="fill:#010002" />
  </g>
  <g
     id="g6"
     transform="translate(47.186941,16.814059)" />
  <g
     id="g8"
     transform="translate(47.186941,16.814059)" />
  <g
     id="g10"
     transform="translate(47.186941,16.814059)" />
  <g
     id="g12"
     transform="translate(47.186941,16.814059)" />
  <g
     id="g14"
     transform="translate(47.186941,16.814059)" />
  <g
     id="g16"
     transform="translate(47.186941,16.814059)" />
  <g
     id="g18"
     transform="translate(47.186941,16.814059)" />
  <g
     id="g20"
     transform="translate(47.186941,16.814059)" />
  <g
     id="g22"
     transform="translate(47.186941,16.814059)" />
  <g
     id="g24"
     transform="translate(47.186941,16.814059)" />
  <g
     id="g26"
     transform="translate(47.186941,16.814059)" />
  <g
     id="g28"
     transform="translate(47.186941,16.814059)" />
  <g
     id="g30"
     transform="translate(47.186941,16.814059)" />
  <g
     id="g32"
     transform="translate(47.186941,16.814059)" />
  <g
     id="g34"
     transform="translate(47.186941,16.814059)" />
</svg>
