<?xml version="1.0" encoding="UTF-8" standalone="no"?>
<svg
   xmlns:dc="http://purl.org/dc/elements/1.1/"
   xmlns:cc="http://creativecommons.org/ns#"
   xmlns:rdf="http://www.w3.org/1999/02/22-rdf-syntax-ns#"
   xmlns:svg="http://www.w3.org/2000/svg"
   xmlns="http://www.w3.org/2000/svg"
   id="svg3251"
   height="32"
   width="32"
   version="1.1">
  <defs
     id="defs3253" />
  <metadata
     id="metadata3256">
    <rdf:RDF>
      <cc:Work
         rdf:about="">
        <dc:format>image/svg+xml</dc:format>
        <dc:type
           rdf:resource="http://purl.org/dc/dcmitype/StillImage" />
        <dc:title></dc:title>
      </cc:Work>
    </rdf:RDF>
  </metadata>
  <path
     style="fill:#010002;stroke-width:1.12280917"
     d="M 28.727511,3.3204394 C 24.354369,-1.0699785 17.243803,-1.0839962 12.851005,3.2883465 11.056336,5.0759541 10.004691,7.3215468 9.6730004,9.647159 7.3453,9.9720582 5.0987575,11.013258 3.3056817,12.797693 c -4.3975773,4.380274 -4.4068249,11.487674 -0.032099,15.879683 4.3747262,4.392009 11.4805223,4.409193 15.8796853,0.03051 1.790698,-1.786822 2.842335,-4.029239 3.174031,-6.35644 2.327696,-0.323311 4.575037,-1.366891 6.371289,-3.15132 4.389631,-4.37711 4.404438,-11.485293 0.02892,-15.8796856 z M 17.569304,27.116076 C 14.042838,30.6144 8.3717012,30.599251 4.8653976,27.091826 1.3718223,23.571722 1.3790327,17.900569 4.8904406,14.388716 c 1.3308783,-1.320887 2.972786,-2.138592 4.6875453,-2.456759 0.1615335,2.633048 1.2330341,5.220252 3.2401281,7.235277 2.008681,2.016619 4.592433,3.0991 7.224828,3.26943 -0.324926,1.713492 -1.147514,3.353754 -2.473638,4.679415 z M 27.136492,4.9051978 c 3.49516,3.521696 3.481588,9.1976012 -0.02266,12.7039102 -1.334851,1.323261 -2.977554,2.141758 -4.691522,2.460722 -0.15994,-2.634634 -1.230638,-5.22422 -3.238531,-7.240041 -2.009478,-2.015824 -4.594025,-3.0975119 -7.227215,-3.2670503 0.324926,-1.7134922 1.149896,-3.3545434 2.479199,-4.681785 3.517719,-3.4911982 9.196802,-3.4792085 12.700732,0.024245 z"
     id="path2" />
  <g
     id="g6"
     transform="translate(47.186941,16.814059)" />
  <g
     id="g8"
     transform="translate(47.186941,16.814059)" />
  <g
     id="g10"
     transform="translate(47.186941,16.814059)" />
  <g
     id="g12"
     transform="translate(47.186941,16.814059)" />
  <g
     id="g14"
     transform="translate(47.186941,16.814059)" />
  <g
     id="g16"
     transform="translate(47.186941,16.814059)" />
  <g
     id="g18"
     transform="translate(47.186941,16.814059)" />
  <g
     id="g20"
     transform="translate(47.186941,16.814059)" />
  <g
     id="g22"
     transform="translate(47.186941,16.814059)" />
  <g
     id="g24"
     transform="translate(47.186941,16.814059)" />
  <g
     id="g26"
     transform="translate(47.186941,16.814059)" />
  <g
     id="g28"
     transform="translate(47.186941,16.814059)" />
  <g
     id="g30"
     transform="translate(47.186941,16.814059)" />
  <g
     id="g32"
     transform="translate(47.186941,16.814059)" />
  <g
     id="g34"
     transform="translate(47.186941,16.814059)" />
</svg>
