<?xml version="1.0" encoding="UTF-8" standalone="no"?>
<svg
   xmlns:dc="http://purl.org/dc/elements/1.1/"
   xmlns:cc="http://creativecommons.org/ns#"
   xmlns:rdf="http://www.w3.org/1999/02/22-rdf-syntax-ns#"
   xmlns:svg="http://www.w3.org/2000/svg"
   xmlns="http://www.w3.org/2000/svg"
   id="svg93"
   version="1.1"
   viewBox="0 0 8.4666659 8.4666659"
   height="32"
   width="32">
  <defs
     id="defs87" />
  <metadata
     id="metadata90">
    <rdf:RDF>
      <cc:Work
         rdf:about="">
        <dc:format>image/svg+xml</dc:format>
        <dc:type
           rdf:resource="http://purl.org/dc/dcmitype/StillImage" />
        <dc:title></dc:title>
      </cc:Work>
    </rdf:RDF>
  </metadata>
  <g
     id="g906"
     transform="matrix(0.22198332,0,0,0.23880034,-18.406413,-8.1808221)">
    <path
       d="m 93.815,36.114 c -1.244,-1.244 -2.743,-1.856 -4.501,-1.856 -1.757,0 -3.277,0.612 -4.521,1.856 -1.244,1.262 -1.875,2.783 -1.875,4.539 0,1.757 0.631,3.258 1.875,4.502 1.244,1.262 2.763,1.895 4.521,1.895 1.758,0 3.257,-0.633 4.501,-1.895 1.264,-1.244 1.895,-2.745 1.895,-4.502 -10e-4,-1.756 -0.631,-3.277 -1.895,-4.539 z"
       id="path68" />
    <path
       d="m 85.267,49.912 c -1.165,1.164 -1.756,2.547 -1.756,4.186 L 83.49,69.713 h 11.846 l 0.019,-9.871 6.792,6.534 6.671,-6.436 v 9.772 h 11.847 V 54.215 c 0,-1.639 -0.574,-3.02 -1.737,-4.185 -1.167,-1.165 -2.548,-1.737 -4.187,-1.737 -0.85,0 -1.639,0.157 -2.35,0.474 -0.354,0.099 -0.671,0.258 -0.966,0.474 -0.336,0.297 -0.574,0.514 -0.713,0.651 -0.077,0.061 -0.137,0.119 -0.157,0.139 -0.099,0.099 -0.216,0.216 -0.314,0.337 l -8.094,8.112 -8.174,-8.173 c -0.117,-0.138 -0.236,-0.256 -0.355,-0.375 -1.163,-1.165 -2.545,-1.757 -4.166,-1.757 -1.639,0 -3.02,0.572 -4.185,1.737 z"
       id="path74" />
    <path
       d="m 119.163,36.114 c -1.243,-1.244 -2.744,-1.856 -4.5,-1.856 -1.758,0 -3.277,0.612 -4.521,1.856 -1.244,1.262 -1.877,2.783 -1.877,4.539 0,1.757 0.633,3.258 1.877,4.502 1.243,1.262 2.763,1.895 4.521,1.895 1.756,0 3.257,-0.633 4.5,-1.895 1.264,-1.244 1.896,-2.745 1.896,-4.502 0,-1.756 -0.633,-3.277 -1.896,-4.539 z"
       id="path76" />
  </g>
</svg>
