<?xml version="1.0" encoding="UTF-8" standalone="no"?>
<svg
   xmlns:dc="http://purl.org/dc/elements/1.1/"
   xmlns:cc="http://creativecommons.org/ns#"
   xmlns:rdf="http://www.w3.org/1999/02/22-rdf-syntax-ns#"
   xmlns:svg="http://www.w3.org/2000/svg"
   xmlns="http://www.w3.org/2000/svg"
   id="svg93"
   version="1.1"
   viewBox="0 0 8.4666659 8.4666659"
   height="32"
   width="32">
  <defs
     id="defs87" />
  <metadata
     id="metadata90">
    <rdf:RDF>
      <cc:Work
         rdf:about="">
        <dc:format>image/svg+xml</dc:format>
        <dc:type
           rdf:resource="http://purl.org/dc/dcmitype/StillImage" />
        <dc:title></dc:title>
      </cc:Work>
    </rdf:RDF>
  </metadata>
  <g
     transform="matrix(1.1428571,0,0,1.1428571,-60.708624,-26.548992)"
     id="g899">
    <path
       d="m 59.999214,30.638702 h -2.116666 a 0.52916665,0.52916665 0 0 1 0,-1.058333 h 1.587499 v -1.5875 a 0.529167,0.529167 0 0 1 1.058334,0 v 2.116666 a 0.52916662,0.52916662 0 0 1 -0.529167,0.529167 z"
       id="path4"
       style="stroke-width:0.26458332" />
    <path
       d="m 53.649215,26.405369 a 0.52916662,0.52916662 0 0 1 -0.529167,-0.529167 v -2.116666 a 0.52916662,0.52916662 0 0 1 0.529167,-0.529167 h 2.116666 a 0.52916662,0.52916662 0 0 1 0,1.058333 h -1.5875 v 1.5875 a 0.52916662,0.52916662 0 0 1 -0.529166,0.529167 z"
       id="path6"
       style="stroke-width:0.26458332" />
    <path
       d="m 59.999214,26.442411 a 0.52916662,0.52916662 0 0 1 -0.529167,-0.529167 v -1.5875 h -1.587499 a 0.52916662,0.52916662 0 0 1 0,-1.058333 h 2.116666 a 0.52916662,0.52916662 0 0 1 0.529167,0.529166 v 2.116667 a 0.52916662,0.52916662 0 0 1 -0.529167,0.529167 z"
       id="path8"
       style="stroke-width:0.26458332" />
    <path
       d="m 55.765881,30.638702 h -2.116666 a 0.52916662,0.52916662 0 0 1 -0.529167,-0.529167 v -2.116666 a 0.52916662,0.52916662 0 0 1 1.058333,0 v 1.5875 h 1.5875 a 0.52916665,0.52916665 0 0 1 0,1.058333 z"
       id="path10"
       style="stroke-width:0.26458332" />
  </g>
</svg>
