<?xml version="1.0" encoding="UTF-8" standalone="no"?>
<svg
   xmlns:dc="http://purl.org/dc/elements/1.1/"
   xmlns:cc="http://creativecommons.org/ns#"
   xmlns:rdf="http://www.w3.org/1999/02/22-rdf-syntax-ns#"
   xmlns:svg="http://www.w3.org/2000/svg"
   xmlns="http://www.w3.org/2000/svg"
   id="svg93"
   version="1.1"
   viewBox="0 0 8.4666659 8.4666659"
   height="32"
   width="32">
  <defs
     id="defs87" />
  <metadata
     id="metadata90">
    <rdf:RDF>
      <cc:Work
         rdf:about="">
        <dc:format>image/svg+xml</dc:format>
        <dc:type
           rdf:resource="http://purl.org/dc/dcmitype/StillImage" />
        <dc:title></dc:title>
      </cc:Work>
    </rdf:RDF>
  </metadata>
  <path
     style="stroke-width:0.30238092"
     id="path4"
     d="M 3.0231488,3.6284613 H 0.60410199 a 0.60476186,0.60476186 0 0 1 0,-1.209523 H 2.4183866 V 0.60465228 a 0.60476226,0.60476226 0 0 1 1.2095245,0 V 3.0236993 a 0.60476183,0.60476183 0 0 1 -0.6047623,0.604762 z" />
  <path
     style="stroke-width:0.30238092"
     id="path6"
     d="M 5.4432539,8.4666659 A 0.60476183,0.60476183 0 0 1 4.8384916,7.8619037 V 5.4428569 A 0.60476183,0.60476183 0 0 1 5.4432539,4.8380946 h 2.4190467 a 0.60476183,0.60476183 0 0 1 0,1.2095234 H 6.048015 V 7.8619037 A 0.60476183,0.60476183 0 0 1 5.4432539,8.4666659 Z" />
  <path
     style="stroke-width:0.30238092"
     id="path8"
     d="M 3.0233421,8.4666659 A 0.60476183,0.60476183 0 0 1 2.4185799,7.8619036 V 6.0476179 H 0.60429523 a 0.60476183,0.60476183 0 0 1 0,-1.2095233 H 3.0233421 A 0.60476183,0.60476183 0 0 1 3.6281044,5.4428557 V 7.8619036 A 0.60476183,0.60476183 0 0 1 3.0233421,8.4666659 Z" />
  <path
     style="stroke-width:0.30238092"
     id="path10"
     d="M 7.862344,3.6281743 H 5.4432972 A 0.60476183,0.60476183 0 0 1 4.838535,3.0234121 V 0.6043653 a 0.60476183,0.60476183 0 0 1 1.2095234,0 V 2.4186509 H 7.862344 a 0.60476186,0.60476186 0 0 1 0,1.2095234 z" />
</svg>
