<?xml version="1.0" encoding="UTF-8" standalone="no"?>
<svg
   xmlns:sketch="http://www.bohemiancoding.com/sketch/ns"
   xmlns:dc="http://purl.org/dc/elements/1.1/"
   xmlns:cc="http://creativecommons.org/ns#"
   xmlns:rdf="http://www.w3.org/1999/02/22-rdf-syntax-ns#"
   xmlns:svg="http://www.w3.org/2000/svg"
   xmlns="http://www.w3.org/2000/svg"
   id="svg93"
   version="1.1"
   viewBox="0 0 8.4666659 8.4666659"
   height="32"
   width="32">
  <defs
     id="defs87" />
  <metadata
     id="metadata90">
    <rdf:RDF>
      <cc:Work
         rdf:about="">
        <dc:format>image/svg+xml</dc:format>
        <dc:type
           rdf:resource="http://purl.org/dc/dcmitype/StillImage" />
        <dc:title></dc:title>
      </cc:Work>
    </rdf:RDF>
  </metadata>
  <g
     transform="matrix(0.53333333,0,0,0.53333333,-35.976563,-14.894163)"
     id="g843">
    <g
       sketch:type="MSPage"
       id="g14"
       style="fill:none;fill-rule:evenodd;stroke:none;stroke-width:1"
       transform="matrix(0.26458331,0,0,0.26458331,67.456057,33.747388)">
      <g
         sketch:type="MSLayerGroup"
         id="g12"
         style="fill:#000000">
        <path
           d="M 8,0 C 3.589,0 0,3.589 0,8 c 0,4.411 3.589,8 8,8 4.411,0 8,-3.589 8,-8 C 16,3.589 12.411,0 8,0"
           sketch:type="MSShapeGroup"
           id="path6" />
        <path
           d="m 52,0 c -4.411,0 -8,3.589 -8,8 0,4.411 3.589,8 8,8 4.411,0 8,-3.589 8,-8 0,-4.411 -3.589,-8 -8,-8"
           sketch:type="MSShapeGroup"
           id="path8" />
        <path
           d="m 30,0 c -4.411,0 -8,3.589 -8,8 0,4.411 3.589,8 8,8 4.411,0 8,-3.589 8,-8 0,-4.411 -3.589,-8 -8,-8"
           sketch:type="MSShapeGroup"
           id="path10" />
      </g>
    </g>
  </g>
</svg>
