<?xml version="1.0" encoding="UTF-8" standalone="no"?>
<!-- Created with Inkscape (http://www.inkscape.org/) -->

<svg
   xmlns:dc="http://purl.org/dc/elements/1.1/"
   xmlns:cc="http://creativecommons.org/ns#"
   xmlns:rdf="http://www.w3.org/1999/02/22-rdf-syntax-ns#"
   xmlns:svg="http://www.w3.org/2000/svg"
   xmlns="http://www.w3.org/2000/svg"
   xmlns:sodipodi="http://sodipodi.sourceforge.net/DTD/sodipodi-0.dtd"
   xmlns:inkscape="http://www.inkscape.org/namespaces/inkscape"
   version="1.1"
   width="32"
   height="32"
   id="svg3251"
   sodipodi:docname="3021.svg"
   inkscape:version="0.92.3 (2405546, 2018-03-11)">
  <sodipodi:namedview
     pagecolor="#ffffff"
     bordercolor="#666666"
     borderopacity="1"
     objecttolerance="10"
     gridtolerance="10"
     guidetolerance="10"
     inkscape:pageopacity="0"
     inkscape:pageshadow="2"
     inkscape:window-width="1920"
     inkscape:window-height="1015"
     id="namedview7"
     showgrid="false"
     inkscape:zoom="3.6875"
     inkscape:cx="22.12395"
     inkscape:cy="-33.491525"
     inkscape:window-x="0"
     inkscape:window-y="0"
     inkscape:window-maximized="1"
     inkscape:current-layer="svg3251" />
  <defs
     id="defs3253" />
  <metadata
     id="metadata3256">
    <rdf:RDF>
      <cc:Work
         rdf:about="">
        <dc:format>image/svg+xml</dc:format>
        <dc:type
           rdf:resource="http://purl.org/dc/dcmitype/StillImage" />
        <dc:title />
      </cc:Work>
    </rdf:RDF>
  </metadata>
  <g
     transform="matrix(0.65979381,0,0,0.65979381,-5.1134019,-5.6082473)"
     id="g32">
    <path
       d="m 52,44.5 c 0,-0.552 -0.448,-1 -1,-1 H 18 v -34 c 0,-0.552 -0.448,-1 -1,-1 h -4 c -0.552,0 -1,0.448 -1,1 0,0.552 0.448,1 1,1 h 3 v 34 c 0,0.552 0.448,1 1,1 h 34 c 0.552,0 1,-0.448 1,-1 z"
       id="path2"
       inkscape:connector-curvature="0" />
    <path
       d="m 17,52 c 0,2.757 2.243,5 5,5 2.757,0 5,-2.243 5,-5 0,-2.757 -2.243,-5 -5,-5 -2.757,0 -5,2.243 -5,5 z"
       id="path4"
       inkscape:connector-curvature="0" />
    <path
       d="m 40,52 c 0,2.757 2.243,5 5,5 2.757,0 5,-2.243 5,-5 0,-2.757 -2.243,-5 -5,-5 -2.757,0 -5,2.243 -5,5 z"
       id="path6"
       inkscape:connector-curvature="0" />
    <path
       d="m 48,41 c 0.552,0 1,-0.448 1,-1 V 26 c 0,-0.552 -0.448,-1 -1,-1 H 22 c -0.552,0 -1,0.448 -1,1 v 14 c 0,0.552 0.448,1 1,1 z"
       id="path8"
       inkscape:connector-curvature="0" />
  </g>
</svg>
