<?xml version="1.0" encoding="UTF-8" standalone="no"?>
<!-- Created with Inkscape (http://www.inkscape.org/) -->

<svg
   xmlns:dc="http://purl.org/dc/elements/1.1/"
   xmlns:cc="http://creativecommons.org/ns#"
   xmlns:rdf="http://www.w3.org/1999/02/22-rdf-syntax-ns#"
   xmlns:svg="http://www.w3.org/2000/svg"
   xmlns="http://www.w3.org/2000/svg"
   xmlns:sodipodi="http://sodipodi.sourceforge.net/DTD/sodipodi-0.dtd"
   xmlns:inkscape="http://www.inkscape.org/namespaces/inkscape"
   version="1.1"
   width="32"
   height="32"
   id="svg3251"
   sodipodi:docname="3022.svg"
   inkscape:version="0.92.3 (2405546, 2018-03-11)">
  <sodipodi:namedview
     pagecolor="#ffffff"
     bordercolor="#666666"
     borderopacity="1"
     objecttolerance="10"
     gridtolerance="10"
     guidetolerance="10"
     inkscape:pageopacity="0"
     inkscape:pageshadow="2"
     inkscape:window-width="1920"
     inkscape:window-height="1015"
     id="namedview7"
     showgrid="false"
     inkscape:zoom="3.6875"
     inkscape:cx="-13.401474"
     inkscape:cy="-33.491525"
     inkscape:window-x="0"
     inkscape:window-y="0"
     inkscape:window-maximized="1"
     inkscape:current-layer="svg3251" />
  <defs
     id="defs3253" />
  <metadata
     id="metadata3256">
    <rdf:RDF>
      <cc:Work
         rdf:about="">
        <dc:format>image/svg+xml</dc:format>
        <dc:type
           rdf:resource="http://purl.org/dc/dcmitype/StillImage" />
        <dc:title></dc:title>
      </cc:Work>
    </rdf:RDF>
  </metadata>
  <g
     id="g4"
     transform="matrix(0.35516093,0,0,0.44230791,-1.7758045,-6.098809)">
    <path
       d="M 94.2,28.1 C 94.1,28 93.9,27.9 93.7,27.9 L 48.3,15.5 c -0.3,-0.1 -0.6,-0.1 -0.9,0 L 6.1,32 C 6,32.1 5.8,32.1 5.7,32.2 5.3,32.5 5,33 5,33.5 v 37.2 c 0,0.6 0.4,1.2 1,1.4 l 45.6,12.4 c 0.1,0 0.2,0 0.4,0 0.1,0 0.1,0 0.2,0 0,0 0.1,0 0.1,0 0.2,0 0.3,0 0.5,-0.1 L 94.2,67.8 c 0.5,-0.2 0.9,-0.7 0.9,-1.3 V 29.4 C 95,28.8 94.7,28.3 94.2,28.1 Z M 48,18.1 89.6,29.4 78.4,33.9 v 0 L 36.8,22.6 Z M 50.8,81.6 7.6,69.8 V 35.1 L 50.8,46.9 Z M 52,44.5 10.4,33.1 21.6,28.6 61.1,39.4 63.2,40 Z m 40.4,21.3 -39,15.6 V 46.7 L 65.3,42 v 16.5 c 0,0.4 0.4,0.6 0.7,0.5 l 13.8,-5.5 c 0.4,-0.1 0.6,-0.5 0.6,-0.9 V 35.9 l 11.9,-4.8 v 34.7 z"
       id="path2"
       inkscape:connector-curvature="0" />
  </g>
</svg>
