<?xml version="1.0" encoding="UTF-8" standalone="no"?>
<!-- Created with Inkscape (http://www.inkscape.org/) -->

<svg
   xmlns:dc="http://purl.org/dc/elements/1.1/"
   xmlns:cc="http://creativecommons.org/ns#"
   xmlns:rdf="http://www.w3.org/1999/02/22-rdf-syntax-ns#"
   xmlns:svg="http://www.w3.org/2000/svg"
   xmlns="http://www.w3.org/2000/svg"
   xmlns:sodipodi="http://sodipodi.sourceforge.net/DTD/sodipodi-0.dtd"
   xmlns:inkscape="http://www.inkscape.org/namespaces/inkscape"
   version="1.1"
   width="32"
   height="32"
   id="svg3251"
   sodipodi:docname="3024.svg"
   inkscape:version="0.92.3 (2405546, 2018-03-11)">
  <sodipodi:namedview
     pagecolor="#ffffff"
     bordercolor="#666666"
     borderopacity="1"
     objecttolerance="10"
     gridtolerance="10"
     guidetolerance="10"
     inkscape:pageopacity="0"
     inkscape:pageshadow="2"
     inkscape:window-width="1920"
     inkscape:window-height="1015"
     id="namedview7"
     showgrid="false"
     inkscape:zoom="0.921875"
     inkscape:cx="-310.06949"
     inkscape:cy="60.018412"
     inkscape:window-x="0"
     inkscape:window-y="0"
     inkscape:window-maximized="1"
     inkscape:current-layer="svg3251" />
  <defs
     id="defs3253" />
  <metadata
     id="metadata3256">
    <rdf:RDF>
      <cc:Work
         rdf:about="">
        <dc:format>image/svg+xml</dc:format>
        <dc:type
           rdf:resource="http://purl.org/dc/dcmitype/StillImage" />
        <dc:title></dc:title>
      </cc:Work>
    </rdf:RDF>
  </metadata>
  <g
     id="layer1">
    <path
       d="m 15.999984,4.6666649 q -3.083325,0 -5.687498,1.52085 -2.604174,1.52085 -4.125053,4.1250501 -1.520878,2.60421 -1.520846,5.68753 3.2e-5,3.08326 1.520846,5.68744 1.520815,2.60415 4.125053,4.12505 2.604237,1.5208 5.687498,1.5208 3.08326,0 5.687466,-1.5208 2.60427,-1.5208 4.125084,-4.12505 1.520815,-2.60421 1.520847,-5.68744 3.2e-5,-3.08332 -1.520847,-5.68753 -1.520878,-2.6042001 -4.125084,-4.1250501 -2.604141,-1.52085 -5.687466,-1.52085 z M 32,16.000005 q 0,4.35418 -2.145838,8.03128 -2.145838,3.677 -5.822898,5.8229 -3.677092,2.1458 -8.031248,2.1458 -4.354188,0 -8.03128,-2.1458 -3.67706,-2.1458 -5.822898,-5.8229 Q 0,20.354125 0,16.000005 q 0,-4.35413 2.145838,-8.0312501 2.145838,-3.67713 5.822898,-5.8229 3.67706,-2.14576979979 8.03128,-2.14583979979 4.354156,-3e-5 8.031248,2.14583979979 3.677092,2.14587 5.822898,5.8229 Q 31.999968,11.645785 32,16.000005 z"
       id="path257" />
  </g>
  <g
     id="layer1-3"
     transform="matrix(0.375,0,0,0.375,10,10)">
    <path
       inkscape:connector-curvature="0"
       d="m 32,16 q 0,4.35422 -2.145833,8.0313 -2.145833,3.677 -5.822908,5.8229 Q 20.354184,32 16,32 11.645816,32 7.968741,29.8542 4.291666,27.7084 2.145833,24.0313 0,20.35415 0,16 0,11.64585 2.145833,7.96874 4.291666,4.29163 7.968741,2.14583 11.645816,3.0000629e-5 16,0 20.354184,-2.9999371e-5 24.031259,2.14583 27.708334,4.2917 29.854167,7.96874 32,11.64578 32,16 Z"
       id="path257-6" />
  </g>
</svg>
