<?xml version="1.0" encoding="UTF-8" standalone="no"?>
<!-- Created with Inkscape (http://www.inkscape.org/) -->

<svg
   xmlns:dc="http://purl.org/dc/elements/1.1/"
   xmlns:cc="http://creativecommons.org/ns#"
   xmlns:rdf="http://www.w3.org/1999/02/22-rdf-syntax-ns#"
   xmlns:svg="http://www.w3.org/2000/svg"
   xmlns="http://www.w3.org/2000/svg"
   xmlns:sodipodi="http://sodipodi.sourceforge.net/DTD/sodipodi-0.dtd"
   xmlns:inkscape="http://www.inkscape.org/namespaces/inkscape"
   version="1.1"
   width="32"
   height="32"
   id="svg3251"
   sodipodi:docname="3025.svg"
   inkscape:version="0.92.3 (2405546, 2018-03-11)">
  <sodipodi:namedview
     pagecolor="#ffffff"
     bordercolor="#666666"
     borderopacity="1"
     objecttolerance="10"
     gridtolerance="10"
     guidetolerance="10"
     inkscape:pageopacity="0"
     inkscape:pageshadow="2"
     inkscape:window-width="1920"
     inkscape:window-height="1015"
     id="namedview7"
     showgrid="false"
     inkscape:zoom="1.84375"
     inkscape:cx="-280.40678"
     inkscape:cy="-52.45718"
     inkscape:window-x="0"
     inkscape:window-y="0"
     inkscape:window-maximized="1"
     inkscape:current-layer="svg3251" />
  <defs
     id="defs3253" />
  <metadata
     id="metadata3256">
    <rdf:RDF>
      <cc:Work
         rdf:about="">
        <dc:format>image/svg+xml</dc:format>
        <dc:type
           rdf:resource="http://purl.org/dc/dcmitype/StillImage" />
        <dc:title></dc:title>
      </cc:Work>
    </rdf:RDF>
  </metadata>
  <g
     transform="matrix(0.78489085,0,0,0.78489085,-10.803238,-20.8208)"
     id="g10">
    <path
       d="m 31.415,27.236 h 6.018 l 14.282,39.35 H 45.876 L 41.767,54.801 H 26.329 L 22.061,66.586 H 16.596 Z M 40.255,50.46 34.196,33.075 27.9,50.46 Z"
       id="path6"
       inkscape:connector-curvature="0" />
    <path
       d="M 52.727,67.297 H 45.372 L 41.262,55.51 H 26.826 l -4.268,11.787 h -6.987 l 15.353,-40.77 h 7.007 z m -6.348,-1.42 h 4.324 L 36.936,27.946 H 31.907 L 17.622,65.877 h 3.942 L 25.832,54.092 H 42.27 Z M 41.252,51.17 H 26.888 L 34.209,30.957 Z M 28.912,49.751 H 39.256 L 34.184,35.194 Z"
       id="path8"
       inkscape:connector-curvature="0" />
  </g>
</svg>
