<?xml version="1.0" encoding="UTF-8" standalone="no"?>
<!-- Created with Inkscape (http://www.inkscape.org/) -->

<svg
   xmlns:dc="http://purl.org/dc/elements/1.1/"
   xmlns:cc="http://creativecommons.org/ns#"
   xmlns:rdf="http://www.w3.org/1999/02/22-rdf-syntax-ns#"
   xmlns:svg="http://www.w3.org/2000/svg"
   xmlns="http://www.w3.org/2000/svg"
   xmlns:sodipodi="http://sodipodi.sourceforge.net/DTD/sodipodi-0.dtd"
   xmlns:inkscape="http://www.inkscape.org/namespaces/inkscape"
   version="1.1"
   width="32"
   height="32"
   id="svg3251"
   sodipodi:docname="3026.svg"
   inkscape:version="0.92.3 (2405546, 2018-03-11)">
  <sodipodi:namedview
     pagecolor="#ffffff"
     bordercolor="#666666"
     borderopacity="1"
     objecttolerance="10"
     gridtolerance="10"
     guidetolerance="10"
     inkscape:pageopacity="0"
     inkscape:pageshadow="2"
     inkscape:window-width="1920"
     inkscape:window-height="1015"
     id="namedview7"
     showgrid="false"
     inkscape:zoom="1.84375"
     inkscape:cx="-280.40678"
     inkscape:cy="-95.84701"
     inkscape:window-x="0"
     inkscape:window-y="0"
     inkscape:window-maximized="1"
     inkscape:current-layer="svg3251" />
  <defs
     id="defs3253" />
  <metadata
     id="metadata3256">
    <rdf:RDF>
      <cc:Work
         rdf:about="">
        <dc:format>image/svg+xml</dc:format>
        <dc:type
           rdf:resource="http://purl.org/dc/dcmitype/StillImage" />
        <dc:title></dc:title>
      </cc:Work>
    </rdf:RDF>
  </metadata>
  <path
     inkscape:connector-curvature="0"
     d="m 4.1565151,0 h 9.9533439 q 6.799379,0 9.872474,1.93468 3.073095,1.93468 3.073095,6.15863 a 7.7573877,7.7573877 0 0 1 -1.343702,4.70296 5.3748059,5.3748059 0 0 1 -3.576983,2.20839 v 0.21773 q 3.041991,0.67808 4.354588,2.53811 a 8.2550549,8.2550549 0 0 1 1.343702,4.94556 8.1430798,8.1430798 0 0 1 -3.160187,6.84293 Q 21.512659,32 16.088086,32 H 4.1565151 Z m 6.7807159,12.66563 h 3.937792 q 2.755832,0 3.993779,-0.85226 A 3.1850702,3.1850702 0 0 0 20.11297,8.98911 2.8242614,2.8242614 0 0 0 18.769269,6.35148 Q 17.406905,5.55521 14.501772,5.55521 h -3.564541 z m 0,5.38103 v 8.3297 h 4.416796 q 2.799378,0 4.130638,-1.06998 a 3.9564544,3.9564544 0 0 0 1.33126,-3.27839 q 0,-3.98133 -5.685848,-3.98133 z"
     id="path4"
     style="stroke-width:0.62208402" />
</svg>
