<?xml version="1.0" encoding="UTF-8" standalone="no"?>
<!-- Created with Inkscape (http://www.inkscape.org/) -->

<svg
   xmlns:dc="http://purl.org/dc/elements/1.1/"
   xmlns:cc="http://creativecommons.org/ns#"
   xmlns:rdf="http://www.w3.org/1999/02/22-rdf-syntax-ns#"
   xmlns:svg="http://www.w3.org/2000/svg"
   xmlns="http://www.w3.org/2000/svg"
   xmlns:sodipodi="http://sodipodi.sourceforge.net/DTD/sodipodi-0.dtd"
   xmlns:inkscape="http://www.inkscape.org/namespaces/inkscape"
   version="1.1"
   width="32"
   height="32"
   id="svg3251"
   sodipodi:docname="3029.svg"
   inkscape:version="0.92.3 (2405546, 2018-03-11)">
  <sodipodi:namedview
     pagecolor="#ffffff"
     bordercolor="#666666"
     borderopacity="1"
     objecttolerance="10"
     gridtolerance="10"
     guidetolerance="10"
     inkscape:pageopacity="0"
     inkscape:pageshadow="2"
     inkscape:window-width="1920"
     inkscape:window-height="1015"
     id="namedview7"
     showgrid="false"
     inkscape:zoom="7.375"
     inkscape:cx="-7.5932203"
     inkscape:cy="1.5642567"
     inkscape:window-x="0"
     inkscape:window-y="0"
     inkscape:window-maximized="1"
     inkscape:current-layer="svg3251" />
  <defs
     id="defs3253" />
  <metadata
     id="metadata3256">
    <rdf:RDF>
      <cc:Work
         rdf:about="">
        <dc:format>image/svg+xml</dc:format>
        <dc:type
           rdf:resource="http://purl.org/dc/dcmitype/StillImage" />
        <dc:title></dc:title>
      </cc:Work>
    </rdf:RDF>
  </metadata>
  <path
     inkscape:connector-curvature="0"
     d="m 32,16 v 2.275058 h -7.314285 c 0.848979,1.379954 1.338775,2.946387 1.338775,4.587413 0,2.53613 -1.142857,4.960373 -3.134694,6.675991 C 21.028572,31.142192 18.612245,32 16.032653,32 13.453062,32 11.036735,31.142192 9.1755107,29.538462 7.1836735,27.822844 6.0408163,25.398601 6.0408163,22.862471 H 10.057143 C 9.991833,25.32401 12.734694,27.412587 16,27.412587 c 3.265306,0 6.008164,-2.088577 6.008164,-4.550116 0,-2.461538 -2.742858,-4.587413 -6.008164,-4.587413 h -15.9999999 V 16 H 9.3714287 C 9.3061187,15.9254 9.2408167,15.888111 9.1428567,15.81352 7.1510204,14.097903 6.0081633,11.673661 6.0081633,9.1375288 c 0,-2.5361302 1.1428571,-4.9603726 3.1346934,-6.6759905 C 11.004082,0.8578095 13.420408,0 16,0 c 2.579592,0 4.995919,0.8578095 6.857143,2.4615383 1.991837,1.7156179 3.134694,4.1398603 3.134694,6.6759905 H 22.008164 C 22.008164,6.6759905 19.265306,4.587413 16,4.587413 c -3.265306,0 -6.0081633,2.0885775 -6.0081633,4.5501158 0,2.4615382 2.7428573,4.5874122 6.0081633,4.5874122 2.481633,0 4.8,0.820513 6.628572,2.275059 z"
     id="path2"
     style="stroke-width:0.34897417" />
</svg>
