<?xml version="1.0" encoding="UTF-8" standalone="no"?>
<!-- Created with Inkscape (http://www.inkscape.org/) -->

<svg
   xmlns:dc="http://purl.org/dc/elements/1.1/"
   xmlns:cc="http://creativecommons.org/ns#"
   xmlns:rdf="http://www.w3.org/1999/02/22-rdf-syntax-ns#"
   xmlns:svg="http://www.w3.org/2000/svg"
   xmlns="http://www.w3.org/2000/svg"
   xmlns:sodipodi="http://sodipodi.sourceforge.net/DTD/sodipodi-0.dtd"
   xmlns:inkscape="http://www.inkscape.org/namespaces/inkscape"
   version="1.1"
   width="32"
   height="32"
   id="svg3251"
   sodipodi:docname="3029.svg"
   inkscape:version="0.92.3 (2405546, 2018-03-11)">
  <sodipodi:namedview
     pagecolor="#ffffff"
     bordercolor="#666666"
     borderopacity="1"
     objecttolerance="10"
     gridtolerance="10"
     guidetolerance="10"
     inkscape:pageopacity="0"
     inkscape:pageshadow="2"
     inkscape:window-width="1920"
     inkscape:window-height="1015"
     id="namedview7"
     showgrid="false"
     inkscape:zoom="1.84375"
     inkscape:cx="-280.40678"
     inkscape:cy="-52.45718"
     inkscape:window-x="0"
     inkscape:window-y="0"
     inkscape:window-maximized="1"
     inkscape:current-layer="svg3251" />
  <defs
     id="defs3253" />
  <metadata
     id="metadata3256">
    <rdf:RDF>
      <cc:Work
         rdf:about="">
        <dc:format>image/svg+xml</dc:format>
        <dc:type
           rdf:resource="http://purl.org/dc/dcmitype/StillImage" />
        <dc:title></dc:title>
      </cc:Work>
    </rdf:RDF>
  </metadata>
  <g
     transform="matrix(0.68917355,0,0,0.78829921,-6.0536603,-9.2280487)"
     id="g6">
    <path
       inkscape:connector-curvature="0"
       d="M 53.91,25.93 41,13.01 a 4.53,4.53 0 0 0 -6.37,0.01 L 10.08,37.56 a 4.549,4.549 0 0 0 0.01,6.37 l 7.93,7.93 a 1.5,1.5 0 0 0 1.06,0.44 h 14.21 a 1.5,1.5 0 0 0 1.06,-0.44 L 53.91,32.3 53.92,32.29 A 4.536,4.536 0 0 0 53.91,25.93 Z M 32.67,49.3 H 19.7 L 12.22,41.81 A 1.494,1.494 0 0 1 12.21,39.68 L 27.07,24.82 42.11,39.86 Z"
       id="path4" />
  </g>
</svg>
