<?xml version="1.0" encoding="UTF-8" standalone="no"?>
<!-- Created with Inkscape (http://www.inkscape.org/) -->

<svg
   xmlns:dc="http://purl.org/dc/elements/1.1/"
   xmlns:cc="http://creativecommons.org/ns#"
   xmlns:rdf="http://www.w3.org/1999/02/22-rdf-syntax-ns#"
   xmlns:svg="http://www.w3.org/2000/svg"
   xmlns="http://www.w3.org/2000/svg"
   xmlns:sodipodi="http://sodipodi.sourceforge.net/DTD/sodipodi-0.dtd"
   xmlns:inkscape="http://www.inkscape.org/namespaces/inkscape"
   version="1.1"
   width="32"
   height="32"
   id="svg3251"
   sodipodi:docname="3032.svg"
   inkscape:version="0.92.3 (2405546, 2018-03-11)">
  <sodipodi:namedview
     pagecolor="#ffffff"
     bordercolor="#666666"
     borderopacity="1"
     objecttolerance="10"
     gridtolerance="10"
     guidetolerance="10"
     inkscape:pageopacity="0"
     inkscape:pageshadow="2"
     inkscape:window-width="1920"
     inkscape:window-height="1015"
     id="namedview7"
     showgrid="false"
     inkscape:zoom="9.1003062"
     inkscape:cx="-26.613135"
     inkscape:cy="25.836725"
     inkscape:window-x="0"
     inkscape:window-y="0"
     inkscape:window-maximized="1"
     inkscape:current-layer="svg3251" />
  <defs
     id="defs3253" />
  <metadata
     id="metadata3256">
    <rdf:RDF>
      <cc:Work
         rdf:about="">
        <dc:format>image/svg+xml</dc:format>
        <dc:type
           rdf:resource="http://purl.org/dc/dcmitype/StillImage" />
        <dc:title></dc:title>
      </cc:Work>
    </rdf:RDF>
  </metadata>
  <path
     id="path4"
     d="M 31.200263,3 H 16.799737 a 0.80002917,1.5000001 0 0 1 0,-3 h 14.400526 a 0.80002917,1.5000001 0 0 1 0,3 z"
     inkscape:connector-curvature="0"
     style="stroke-width:1.09546506" />
  <path
     id="path4-5"
     d="M 30.400744,12.666666 H 1.5992561 a 1.6000825,1.500041 0 0 1 0,-3.0000816 H 30.400744 a 1.6000825,1.500041 0 0 1 0,3.0000816 z"
     inkscape:connector-curvature="0"
     style="stroke-width:1.5492543" />
  <path
     id="path4-3"
     d="M 31.200263,22.333333 H 16.799737 a 0.80002917,1.5000001 0 0 1 0,-3 h 14.400526 a 0.80002917,1.5000001 0 0 1 0,3 z"
     inkscape:connector-curvature="0"
     style="stroke-width:1.09546506" />
  <path
     id="path4-56"
     d="M 30.400351,32 H 1.599649 a 1.6000389,1.5000001 0 0 1 0,-3 h 28.800702 a 1.6000389,1.5000001 0 0 1 0,3 z"
     inkscape:connector-curvature="0"
     style="stroke-width:1.5492121" />
</svg>
