<?xml version="1.0" encoding="UTF-8" standalone="no"?>
<!-- Created with Inkscape (http://www.inkscape.org/) -->

<svg
   xmlns:dc="http://purl.org/dc/elements/1.1/"
   xmlns:cc="http://creativecommons.org/ns#"
   xmlns:rdf="http://www.w3.org/1999/02/22-rdf-syntax-ns#"
   xmlns:svg="http://www.w3.org/2000/svg"
   xmlns="http://www.w3.org/2000/svg"
   xmlns:sodipodi="http://sodipodi.sourceforge.net/DTD/sodipodi-0.dtd"
   xmlns:inkscape="http://www.inkscape.org/namespaces/inkscape"
   version="1.1"
   width="32"
   height="32"
   id="svg3251"
   sodipodi:docname="3037.svg"
   inkscape:version="0.92.3 (2405546, 2018-03-11)">
  <sodipodi:namedview
     pagecolor="#ffffff"
     bordercolor="#666666"
     borderopacity="1"
     objecttolerance="10"
     gridtolerance="10"
     guidetolerance="10"
     inkscape:pageopacity="0"
     inkscape:pageshadow="2"
     inkscape:window-width="1920"
     inkscape:window-height="1015"
     id="namedview7"
     showgrid="false"
     inkscape:zoom="12.528815"
     inkscape:cx="3.5631143"
     inkscape:cy="12.615157"
     inkscape:window-x="0"
     inkscape:window-y="0"
     inkscape:window-maximized="1"
     inkscape:current-layer="svg3251" />
  <defs
     id="defs3253" />
  <metadata
     id="metadata3256">
    <rdf:RDF>
      <cc:Work
         rdf:about="">
        <dc:format>image/svg+xml</dc:format>
        <dc:type
           rdf:resource="http://purl.org/dc/dcmitype/StillImage" />
        <dc:title></dc:title>
      </cc:Work>
    </rdf:RDF>
  </metadata>
  <path
     id="path4-5"
     d="M 30.75063,4.9230769 H 8.2493976 a 1.2500684,1.9230772 0 0 1 0,-3.8461538 H 30.75063 a 1.2500684,1.9230772 0 0 1 0,3.8461538 z"
     inkscape:connector-curvature="0"
     style="stroke-width:1.55047643" />
  <path
     id="path4-5-3"
     d="M 30.75063,17.923077 H 8.2493975 a 1.2500685,1.9230773 0 0 1 0,-3.846154 H 30.75063 a 1.2500685,1.9230773 0 0 1 0,3.846154 z"
     inkscape:connector-curvature="0"
     style="stroke-width:1.55047655" />
  <path
     id="path4-5-5"
     d="M 30.750502,30.923077 H 8.2492697 a 1.2500685,1.9230772 0 0 1 0,-3.846154 H 30.750502 a 1.2500685,1.9230772 0 0 1 0,3.846154 z"
     inkscape:connector-curvature="0"
     style="stroke-width:1.55047655" />
  <circle
     id="path140"
     cx="3"
     cy="3"
     style="stroke-width:1.65225101"
     r="3" />
  <circle
     id="path140-6"
     cx="3"
     cy="16"
     style="stroke-width:1.65225101"
     r="3" />
  <g
     transform="matrix(0.1875,0,0,0.24463365,0,25.085862)"
     id="layer1">
    <path
       inkscape:connector-curvature="0"
       d="m 32,8.526455 q 0,0.8258 -0.578076,1.40387 l -17.754832,17.75483 q -0.578076,0.57808 -1.403872,0.57808 -0.825796,0 -1.403872,-0.57808 L 0.578076,17.403885 Q 0,16.825815 0,16.000015 q 0,-0.8258 0.578076,-1.40387 l 2.807712,-2.80771 q 0.578076,-0.57808 1.403872,-0.57808 0.825796,0 1.403872,0.57808 l 6.069656,6.09027 13.543185,-13.56387 q 0.578076,-0.57807 1.403871,-0.57807 0.825796,0 1.403872,0.57807 l 2.807712,2.80772 q 0.578077,0.57807 0.578077,1.40387 z"
       id="path257" />
  </g>
</svg>
