<?xml version="1.0" encoding="UTF-8" standalone="no"?>
<!-- Created with Inkscape (http://www.inkscape.org/) -->

<svg
   xmlns:dc="http://purl.org/dc/elements/1.1/"
   xmlns:cc="http://creativecommons.org/ns#"
   xmlns:rdf="http://www.w3.org/1999/02/22-rdf-syntax-ns#"
   xmlns:svg="http://www.w3.org/2000/svg"
   xmlns="http://www.w3.org/2000/svg"
   xmlns:sodipodi="http://sodipodi.sourceforge.net/DTD/sodipodi-0.dtd"
   xmlns:inkscape="http://www.inkscape.org/namespaces/inkscape"
   version="1.1"
   width="32"
   height="32"
   id="svg3251"
   sodipodi:docname="3038.svg"
   inkscape:version="0.92.3 (2405546, 2018-03-11)">
  <sodipodi:namedview
     pagecolor="#ffffff"
     bordercolor="#666666"
     borderopacity="1"
     objecttolerance="10"
     gridtolerance="10"
     guidetolerance="10"
     inkscape:pageopacity="0"
     inkscape:pageshadow="2"
     inkscape:window-width="1920"
     inkscape:window-height="1015"
     id="namedview7"
     showgrid="false"
     inkscape:zoom="12.528815"
     inkscape:cx="-10.324871"
     inkscape:cy="12.605035"
     inkscape:window-x="0"
     inkscape:window-y="0"
     inkscape:window-maximized="1"
     inkscape:current-layer="svg3251" />
  <defs
     id="defs3253" />
  <metadata
     id="metadata3256">
    <rdf:RDF>
      <cc:Work
         rdf:about="">
        <dc:format>image/svg+xml</dc:format>
        <dc:type
           rdf:resource="http://purl.org/dc/dcmitype/StillImage" />
        <dc:title></dc:title>
      </cc:Work>
    </rdf:RDF>
  </metadata>
  <g
     id="g36">
    <path
       id="path10-3"
       d="M 0,0 H 2.0052 V 5 H 0.94238334 V 0.985955 H 0 Z"
       style="fill:#000000;stroke-width:1.66775656"
       inkscape:connector-curvature="0" />
    <path
       id="path12-6"
       d="M 2.1647,15.518414 A 0.8934334,0.88182602 0 0 0 2.3518667,15.011569 0.56630005,0.55894275 0 0 0 2.1891333,14.602734 0.55788337,0.55063542 0 0 0 1.7707999,14.438066 1.1382001,1.1234127 0 0 0 0.88538332,15.095101 L 0,14.577826 A 2.7310002,2.6955194 0 0 1 0.76166664,13.773794 1.8679502,1.843682 0 0 1 1.8163499,13.501495 1.6983334,1.6762689 0 0 1 2.9426501,13.903109 1.3715334,1.3537147 0 0 1 3.4293168,14.997041 1.4842168,1.4649341 0 0 1 3.2340001,15.72075 4.7986337,4.7362903 0 0 1 2.5146,16.605109 L 1.6226667,17.52079 H 3.5774668 V 18.5 H 0.08463334 V 17.688745 L 1.5380833,16.220439 A 6.5053505,6.4208338 0 0 0 2.1647,15.518414 Z"
       style="fill:#000000;stroke-width:1.65580487"
       inkscape:connector-curvature="0" />
    <path
       id="path14-7"
       d="m 0.27499997,27.940539 v -0.94054 H 3.3072997 v 0.763504 L 2.2949998,28.916808 A 1.4114499,1.4086879 0 0 1 3.5416663,30.33659 1.5040665,1.5011234 0 0 1 3.0126997,31.556533 2.0287498,2.0247799 0 0 1 1.6633332,31.998333 2.9253997,2.9196752 0 0 1 0,31.418419 l 0.45246662,-0.87723 a 2.2464664,2.2420704 0 0 0 1.25488318,0.495445 0.8849999,0.88326813 0 0 0 0.5485,-0.16245 0.55611661,0.5550284 0 0 0 0.2164832,-0.469395 0.57319993,0.5720783 0 0 0 -0.249,-0.489041 A 1.1444665,1.142227 0 0 0 1.5364832,29.735434 2.3772998,2.3726478 0 0 0 0.87729991,29.87025 V 29.056514 L 1.8261998,27.940536 Z"
       style="fill:#000000;stroke-width:1.66503501"
       inkscape:connector-curvature="0" />
    <path
       style="stroke-width:1.61249554"
       inkscape:connector-curvature="0"
       d="M 30.700641,4.5 H 7.2993589 a 1.3000712,2.0000003 0 0 1 0,-4 H 30.700641 a 1.3000712,2.0000003 0 0 1 0,4 z"
       id="path4-5" />
    <path
       style="stroke-width:1.61249554"
       inkscape:connector-curvature="0"
       d="M 30.700641,18 H 7.2993599 a 1.3000712,2.0000003 0 0 1 0,-4 H 30.700641 a 1.3000712,2.0000003 0 0 1 0,4 z"
       id="path4-5-3" />
    <path
       style="stroke-width:1.61249554"
       inkscape:connector-curvature="0"
       d="M 30.700641,31.499999 H 7.2993594 a 1.3000712,2.0000003 0 0 1 0,-4 H 30.700641 a 1.3000712,2.0000003 0 0 1 0,4 z"
       id="path4-5-5" />
  </g>
</svg>
