<?xml version="1.0" encoding="UTF-8" standalone="no"?>
<!-- Created with Inkscape (http://www.inkscape.org/) -->

<svg
   xmlns:i="http://ns.adobe.com/AdobeIllustrator/10.0/"
   xmlns:dc="http://purl.org/dc/elements/1.1/"
   xmlns:cc="http://creativecommons.org/ns#"
   xmlns:rdf="http://www.w3.org/1999/02/22-rdf-syntax-ns#"
   xmlns:svg="http://www.w3.org/2000/svg"
   xmlns="http://www.w3.org/2000/svg"
   xmlns:sodipodi="http://sodipodi.sourceforge.net/DTD/sodipodi-0.dtd"
   xmlns:inkscape="http://www.inkscape.org/namespaces/inkscape"
   version="1.1"
   width="32"
   height="32"
   id="svg3251"
   sodipodi:docname="3040.svg"
   inkscape:version="0.92.3 (2405546, 2018-03-11)">
  <sodipodi:namedview
     pagecolor="#ffffff"
     bordercolor="#666666"
     borderopacity="1"
     objecttolerance="10"
     gridtolerance="10"
     guidetolerance="10"
     inkscape:pageopacity="0"
     inkscape:pageshadow="2"
     inkscape:window-width="1920"
     inkscape:window-height="1015"
     id="namedview7"
     showgrid="false"
     inkscape:zoom="8.85921"
     inkscape:cx="4.4844905"
     inkscape:cy="14.940913"
     inkscape:window-x="0"
     inkscape:window-y="0"
     inkscape:window-maximized="1"
     inkscape:current-layer="svg3251" />
  <defs
     id="defs3253" />
  <metadata
     id="metadata3256">
    <rdf:RDF>
      <cc:Work
         rdf:about="">
        <dc:format>image/svg+xml</dc:format>
        <dc:type
           rdf:resource="http://purl.org/dc/dcmitype/StillImage" />
        <dc:title></dc:title>
      </cc:Work>
    </rdf:RDF>
  </metadata>
  <path
     id="path4-5"
     d="M 31.200402,4.9230769 H 16.799598 a 0.80004466,1.9230772 0 0 1 0,-3.8461538 h 14.400804 a 0.80004466,1.9230772 0 0 1 0,3.8461538 z"
     inkscape:connector-curvature="0"
     style="stroke-width:1.24038184" />
  <path
     id="path4-5-3"
     d="M 30.400805,17.923077 H 1.5991954 a 1.6000894,1.9230773 0 0 1 0,-3.846154 H 30.400805 a 1.6000894,1.9230773 0 0 1 0,3.846154 z"
     inkscape:connector-curvature="0"
     style="stroke-width:1.75416493" />
  <path
     id="path4-5-5"
     d="M 30.400657,30.923077 H 1.5993433 a 1.600073,1.9230772 0 0 1 0,-3.846154 H 30.400657 a 1.600073,1.9230772 0 0 1 0,3.846154 z"
     inkscape:connector-curvature="0"
     style="stroke-width:1.75415599" />
  <g
     id="g4"
     i:extraneous="self"
     transform="matrix(-0.14732965,0,0,-0.06060657,14.368324,6.0289973)">
    <path
       id="path2"
       d="M 95.8,46.7 58.6,19.1 c -3,-2.2 -7.2,0.4 -6.5,4.1 L 55,37.6 H 5.9 C 4,37.6 2.5,39.1 2.5,41 v 18 c 0,1.9 1.5,3.4 3.4,3.4 H 55 l -2.9,14.4 c -0.7,3.7 3.5,6.4 6.5,4.1 L 95.8,53.3 c 2.3,-1.6 2.3,-5 0,-6.6 z"
       inkscape:connector-curvature="0" />
  </g>
</svg>
