<?xml version="1.0" encoding="UTF-8" standalone="no"?>
<!-- Created with Inkscape (http://www.inkscape.org/) -->

<svg
   xmlns:dc="http://purl.org/dc/elements/1.1/"
   xmlns:cc="http://creativecommons.org/ns#"
   xmlns:rdf="http://www.w3.org/1999/02/22-rdf-syntax-ns#"
   xmlns:svg="http://www.w3.org/2000/svg"
   xmlns="http://www.w3.org/2000/svg"
   xmlns:sodipodi="http://sodipodi.sourceforge.net/DTD/sodipodi-0.dtd"
   xmlns:inkscape="http://www.inkscape.org/namespaces/inkscape"
   version="1.1"
   width="32"
   height="32"
   id="svg3251"
   sodipodi:docname="3044.svg"
   inkscape:version="0.92.3 (2405546, 2018-03-11)">
  <sodipodi:namedview
     pagecolor="#ffffff"
     bordercolor="#666666"
     borderopacity="1"
     objecttolerance="10"
     gridtolerance="10"
     guidetolerance="10"
     inkscape:pageopacity="0"
     inkscape:pageshadow="2"
     inkscape:window-width="1920"
     inkscape:window-height="1015"
     id="namedview7"
     showgrid="false"
     inkscape:zoom="7.375"
     inkscape:cx="16"
     inkscape:cy="16"
     inkscape:window-x="0"
     inkscape:window-y="0"
     inkscape:window-maximized="1"
     inkscape:current-layer="svg3251" />
  <defs
     id="defs3253" />
  <metadata
     id="metadata3256">
    <rdf:RDF>
      <cc:Work
         rdf:about="">
        <dc:format>image/svg+xml</dc:format>
        <dc:type
           rdf:resource="http://purl.org/dc/dcmitype/StillImage" />
        <dc:title></dc:title>
      </cc:Work>
    </rdf:RDF>
  </metadata>
  <g
     id="g9"
     transform="matrix(0,0.58181818,-0.58181818,0,45.090909,-13.090909)">
    <g
       id="use7">
      <path
         style="fill:#000000;stroke:none"
         inkscape:connector-curvature="0"
         id="path19"
         d="m 76.75,48.25 -20,-20 Q 56.05,27.5 55,27.5 q -1.05,0 -1.8,0.75 -0.7,0.7 -0.7,1.75 0,1.05 0.7,1.8 L 68.95,47.5 H 25 q -1.05,0 -1.8,0.75 -0.7,0.7 -0.7,1.75 0,1.05 0.7,1.8 0.75,0.7 1.8,0.7 H 68.95 L 53.2,68.25 q -0.7,0.7 -0.7,1.75 0,1.05 0.7,1.8 0.75,0.7 1.8,0.7 1.05,0 1.75,-0.7 l 20,-20 q 0.75,-0.75 0.75,-1.8 0,-1.05 -0.75,-1.75 z" />
    </g>
  </g>
</svg>
