<?xml version="1.0" encoding="UTF-8" standalone="no"?>
<!-- Created with Inkscape (http://www.inkscape.org/) -->

<svg
   xmlns:dc="http://purl.org/dc/elements/1.1/"
   xmlns:cc="http://creativecommons.org/ns#"
   xmlns:rdf="http://www.w3.org/1999/02/22-rdf-syntax-ns#"
   xmlns:svg="http://www.w3.org/2000/svg"
   xmlns="http://www.w3.org/2000/svg"
   xmlns:sodipodi="http://sodipodi.sourceforge.net/DTD/sodipodi-0.dtd"
   xmlns:inkscape="http://www.inkscape.org/namespaces/inkscape"
   version="1.1"
   width="32"
   height="32"
   id="svg3251"
   sodipodi:docname="3045.svg"
   inkscape:version="0.92.3 (2405546, 2018-03-11)">
  <sodipodi:namedview
     pagecolor="#ffffff"
     bordercolor="#666666"
     borderopacity="1"
     objecttolerance="10"
     gridtolerance="10"
     guidetolerance="10"
     inkscape:pageopacity="0"
     inkscape:pageshadow="2"
     inkscape:window-width="1920"
     inkscape:window-height="1015"
     id="namedview7"
     showgrid="false"
     inkscape:zoom="7.375"
     inkscape:cx="-7.5932203"
     inkscape:cy="16"
     inkscape:window-x="0"
     inkscape:window-y="0"
     inkscape:window-maximized="1"
     inkscape:current-layer="svg3251" />
  <defs
     id="defs3253" />
  <metadata
     id="metadata3256">
    <rdf:RDF>
      <cc:Work
         rdf:about="">
        <dc:format>image/svg+xml</dc:format>
        <dc:type
           rdf:resource="http://purl.org/dc/dcmitype/StillImage" />
        <dc:title></dc:title>
      </cc:Work>
    </rdf:RDF>
  </metadata>
  <path
     d="m 26.077205,17.267357 a 3.0333909,3.0333909 0 0 0 -2.185128,1.082384 l -1.357221,1.638846 V 5.1100417 a 2.2122716,2.2122716 0 1 0 -4.410972,0 v 9.2358953 a 0.33930547,0.33930547 0 0 1 -0.356271,0.339305 0.33930547,0.33930547 0 0 1 -0.339305,-0.339305 V 2.3854192 a 2.2122716,2.2122716 0 1 0 -4.41097,0 V 14.345937 a 0.33930547,0.33930547 0 0 1 -0.356272,0.339305 0.33930547,0.33930547 0 0 1 -0.339305,-0.339305 V 4.428038 a 2.2122716,2.2122716 0 0 0 -4.4109709,0 v 9.911112 a 0.33930547,0.33930547 0 0 1 -0.09501,0.230728 0.33930547,0.33930547 0 0 1 -0.227335,0.09501 h -0.06107 A 0.33930547,0.33930547 0 0 1 7.1880671,14.325582 V 7.8312762 a 2.2122716,2.2122716 0 1 0 -4.410972,0 V 23.856673 a 8.1433312,8.1433312 0 0 0 8.1433309,8.143331 h 5.601934 a 8.1433312,8.1433312 0 0 0 6.229648,-2.901062 l 5.768193,-6.860756 a 3.0266048,3.0266048 0 0 0 -2.449785,-4.970825 z"
     id="path4"
     inkscape:connector-curvature="0"
     style="stroke-width:0.33930546" />
</svg>
