<?xml version="1.0" encoding="UTF-8" standalone="no"?>
<!-- Created with Inkscape (http://www.inkscape.org/) -->

<svg
   xmlns:dc="http://purl.org/dc/elements/1.1/"
   xmlns:cc="http://creativecommons.org/ns#"
   xmlns:rdf="http://www.w3.org/1999/02/22-rdf-syntax-ns#"
   xmlns:svg="http://www.w3.org/2000/svg"
   xmlns="http://www.w3.org/2000/svg"
   xmlns:sodipodi="http://sodipodi.sourceforge.net/DTD/sodipodi-0.dtd"
   xmlns:inkscape="http://www.inkscape.org/namespaces/inkscape"
   version="1.1"
   width="32"
   height="32"
   id="svg3251"
   sodipodi:docname="3046.svg"
   inkscape:version="0.92.3 (2405546, 2018-03-11)">
  <sodipodi:namedview
     pagecolor="#ffffff"
     bordercolor="#666666"
     borderopacity="1"
     objecttolerance="10"
     gridtolerance="10"
     guidetolerance="10"
     inkscape:pageopacity="0"
     inkscape:pageshadow="2"
     inkscape:window-width="1920"
     inkscape:window-height="1015"
     id="namedview7"
     showgrid="false"
     inkscape:zoom="7.375"
     inkscape:cx="-31.186441"
     inkscape:cy="16"
     inkscape:window-x="0"
     inkscape:window-y="0"
     inkscape:window-maximized="1"
     inkscape:current-layer="svg3251" />
  <defs
     id="defs3253" />
  <metadata
     id="metadata3256">
    <rdf:RDF>
      <cc:Work
         rdf:about="">
        <dc:format>image/svg+xml</dc:format>
        <dc:type
           rdf:resource="http://purl.org/dc/dcmitype/StillImage" />
        <dc:title></dc:title>
      </cc:Work>
    </rdf:RDF>
  </metadata>
  <g
     id="g17"
     transform="matrix(0.43068641,0,0,0.43068641,35.154596,5.8387208)">
    <path
       d="m -60.386148,-4.7567797 h 2.6 c 0,0.3 -0.1,0.7 -0.1,1 0,4.00000004 3.200001,7.2 7.200001,7.2 4,0 7.2,-3.19999996 7.2,-7.2 0,-0.3 -0.1,-0.7 -0.1,-1 h 2.6 c 0.7,0 1.3,-0.6 1.3,-1.3 0,-0.7 -0.6,-1.3 -1.3,-1.3 h -2.6 c -0.5,-3.5000003 -3.5,-6.2000003 -7.1,-6.2000003 -3.6,0 -6.600001,2.7 -7.100001,6.2000003 h -2.6 c -0.7,0 -1.3,0.6 -1.3,1.3 0.1,0.7 0.6,1.3 1.3,1.3 z"
       id="path14"
       inkscape:connector-curvature="0" />
    <path
       d="m -22.086147,-3.4567797 c 0,-0.7 -0.6,-1.3 -1.3,-1.3 -0.7,0 -1.3,0.6 -1.3,1.3 v 7.9 c 0,1.2 -1,2.2 -2.2,2.2 h -1.7 v -10.1 c 0,-0.7 -0.6,-1.3 -1.3,-1.3 -0.7,0 -1.3,0.6 -1.3,1.3 v 10.2 h -1.7 c -1.2,0 -2.2,-1 -2.2,-2.2 v -7.9 c 0,-0.7 -0.6,-1.3 -1.3,-1.3 -0.7,0 -1.1,0.5 -1.1,1.2 v 7.9 c 0,2.6 2.1,4.8 4.8,4.8 h 1.7 V 17.04322 c -1.7,-0.1 -4.6,-0.7 -5.8,-2 -0.2,-0.3 -0.7,-1.4 -1.1,-2.1 -1.5,-3.0999997 -3.8,-7.8999997 -8.5,-7.8999997 h -8.2 c -5.600001,0 -7.800001,5.8999997 -9.000001,9.0999997 -0.2,0.4 -0.3,0.8 -0.4,1.1 -1.2,2.8 -2.6,10.2 -2.8,11 -0.4,1.8 0.8,3.6 2.7,4 0.2,0 0.4,0.1 0.7,0.1 1.6,0 3,-1.1 3.3,-2.7 0.6,-2.9 1.7,-8.1 2.4,-9.7 0.1,-0.1 0.1,-0.3 0.2,-0.5 l 0.2,11 -3.4,28.3 c -0.2,2 1.2,3.7 3.1,4 0.1,0 0.3,0 0.4,0 1.800001,0 3.300001,-1.3 3.500001,-3.2 l 3,-25.7 3,25.7 c 0.2,2 2,3.4 4,3.1 2,-0.2 3.4,-2 3.1,-4 l -3.3,-28.3 0.2,-11.4 c 0.5,1 1,1.9 1.7,2.7 3.2,3.5 8.8,4 10.8,4.1 v 35.1 c 0,0.7 0.6,1.3 1.3,1.3 0.7,0 1.3,-0.6 1.3,-1.3 v -35.6 c 0.9,-0.6 1.5,-1.6 1.5,-2.8 0,-1.2 -0.6,-2.2 -1.5,-2.8 V 9.1432203 h 1.7 c 2.6,0 4.8,-2.1 4.8,-4.8 z"
       id="path16"
       inkscape:connector-curvature="0" />
  </g>
</svg>
