<?xml version="1.0" encoding="UTF-8" standalone="no"?>
<svg
   xmlns:dc="http://purl.org/dc/elements/1.1/"
   xmlns:cc="http://creativecommons.org/ns#"
   xmlns:rdf="http://www.w3.org/1999/02/22-rdf-syntax-ns#"
   xmlns:svg="http://www.w3.org/2000/svg"
   xmlns="http://www.w3.org/2000/svg"
   xmlns:sodipodi="http://sodipodi.sourceforge.net/DTD/sodipodi-0.dtd"
   xmlns:inkscape="http://www.inkscape.org/namespaces/inkscape"
   width="123.067"
   height="64"
   id="svg2"
   version="1.1"
   inkscape:version="0.91 r13725"
   sodipodi:docname="gate.svg">
  <metadata
     id="metadata43">
    <rdf:RDF>
      <cc:Work
         rdf:about="">
        <dc:format>image/svg+xml</dc:format>
        <dc:type
           rdf:resource="http://purl.org/dc/dcmitype/StillImage" />
        <dc:title>dna</dc:title>
      </cc:Work>
    </rdf:RDF>
  </metadata>
  <defs
     id="defs41" />
  <sodipodi:namedview
     pagecolor="#ffffff"
     bordercolor="#666666"
     borderopacity="1"
     objecttolerance="10"
     gridtolerance="10"
     guidetolerance="10"
     inkscape:pageopacity="0"
     inkscape:pageshadow="2"
     inkscape:window-width="1920"
     inkscape:window-height="1027"
     id="namedview39"
     showgrid="false"
     inkscape:snap-text-baseline="false"
     inkscape:zoom="5"
     inkscape:cx="110.90601"
     inkscape:cy="50.319284"
     inkscape:window-x="0"
     inkscape:window-y="0"
     inkscape:window-maximized="1"
     inkscape:current-layer="svg2" />
  <title
     id="title4">dna</title>
  <g
     id="g5131">
    <g
       transform="matrix(0.52447207,0,0,0.52447207,-10.885204,-117.77458)"
       id="g4248">
      <path
         style="fill:#994444;fill-opacity:1;stroke:#994444;stroke-miterlimit:4;stroke-opacity:1"
         inkscape:connector-curvature="0"
         id="svg_10"
         d="m 109.04915,299.14377 c -7.80969,0.45312 -4.32656,0.13315 -22.28151,0.22 -21.183052,-0.18628 -45.381088,-60.15497 -64.492031,-74.30138 10.988766,0.0292 6.255039,0.0292 14.155216,0.26691 18.466873,-0.12173 41.399094,69.1389 72.618325,73.81447 z"
         stroke-miterlimit="4" />
      <path
         style="fill:#767d90;fill-opacity:1;stroke:#767d90;stroke-miterlimit:4;stroke-opacity:1"
         inkscape:connector-curvature="0"
         id="svg_11"
         d="m 182.64442,299.14377 c -7.80967,0.45312 -4.32658,0.13315 -22.28148,0.22 -21.1831,-0.18628 -45.38111,-60.15497 -64.492038,-74.30138 10.988758,0.0292 6.255068,0.0292 14.155178,0.26691 18.46691,-0.12173 41.39917,69.1389 72.61834,73.81447 z"
         stroke-miterlimit="4" />
      <path
         style="fill:#767d90;fill-opacity:1;stroke:#767d90;stroke-miterlimit:4;stroke-opacity:1"
         inkscape:connector-curvature="0"
         id="svg_12"
         d="m 109.04915,225.31203 c -7.80969,-0.45313 -4.32656,-0.13315 -22.281533,-0.22 -21.183029,0.18629 -45.381065,60.15498 -64.492008,74.30134 10.988766,-0.0291 6.255039,-0.0291 14.155216,-0.26684 18.466873,0.1217 41.399071,-69.13892 72.618325,-73.8145 z"
         stroke-miterlimit="4" />
      <path
         style="fill:#ffffff;fill-opacity:0.60264899;stroke-miterlimit:4"
         inkscape:connector-curvature="0"
         id="svg_13"
         d="m 100.37131,225.56985 c -4.682536,0.0117 -9.36513,0.0256 -14.047702,0.0373 -9.649895,1.54631 -14.456909,8.93249 -19.517838,14.42302 -3.778065,4.73518 -7.20863,9.61302 -10.50367,14.53482 l 0.282501,0 c 0.745453,-1.1288 1.467796,-2.25539 2.285637,-3.37285 12.562744,-17.16452 29.369682,-26.92673 40.730629,-24.67191 0.712993,-0.42401 1.144023,-0.77572 0.770443,-0.95035 z"
         stroke-miterlimit="4" />
      <path
         style="fill:#994444;fill-opacity:1;stroke:#994444;stroke-miterlimit:4;stroke-opacity:1"
         inkscape:connector-curvature="0"
         id="svg_14"
         d="m 182.64442,225.31203 c -7.80967,-0.45313 -4.32658,-0.13315 -22.28152,-0.22 -21.18306,0.18629 -45.38107,60.15498 -64.491998,74.30134 10.988758,-0.0291 6.255008,-0.0291 14.155178,-0.26684 18.46691,0.1217 41.39917,-69.13892 72.61834,-73.8145 z"
         stroke-miterlimit="4" />
      <path
         style="fill:#ffffff;fill-opacity:0.60264899;stroke-miterlimit:4"
         inkscape:connector-curvature="0"
         id="svg_15"
         d="m 173.96658,225.56985 c -4.68257,0.0117 -9.36511,0.0256 -14.04768,0.0373 -9.64992,1.54631 -14.45691,8.93249 -19.51784,14.42302 -3.77808,4.73518 -7.20863,9.61302 -10.50368,14.53482 l 0.2825,0 c 0.74547,-1.1288 1.46781,-2.25539 2.28565,-3.37285 12.56274,-17.16452 29.36967,-26.92673 40.73062,-24.67191 0.71301,-0.42401 1.14403,-0.77572 0.77043,-0.95035 z"
         stroke-miterlimit="4" />
      <path
         style="fill:#994444;fill-opacity:1;stroke:#994444;stroke-miterlimit:4;stroke-opacity:1"
         inkscape:connector-curvature="0"
         id="svg_17"
         d="m 255.33014,299.14377 c -7.80971,0.45312 -4.32655,0.13315 -22.28154,0.22 -21.183,-0.18628 -45.38106,-60.15497 -64.49199,-74.30138 10.98875,0.0292 6.25502,0.0292 14.15521,0.26691 18.46687,-0.12173 41.39911,69.1389 72.61832,73.81447 z"
         stroke-miterlimit="4" />
      <path
         style="fill:#767d90;fill-opacity:1;stroke:#767d90;stroke-miterlimit:4;stroke-opacity:1"
         inkscape:connector-curvature="0"
         id="svg_19"
         d="m 255.33014,225.31203 c -7.80971,-0.45313 -4.32655,-0.13315 -22.28154,-0.22 -21.183,0.18629 -45.38106,60.15498 -64.49199,74.30134 10.98875,-0.0291 6.25502,-0.0291 14.15521,-0.26684 18.46687,0.1217 41.39908,-69.13892 72.61832,-73.8145 z"
         stroke-miterlimit="4" />
      <path
         style="fill:#ffffff;fill-opacity:0.60264899;stroke-miterlimit:4"
         inkscape:connector-curvature="0"
         id="svg_20"
         d="m 246.65228,225.56985 c -4.68251,0.0117 -9.36511,0.0256 -14.04768,0.0373 -9.64986,1.54631 -14.4569,8.93249 -19.51784,14.42302 -3.77805,4.73518 -7.20863,9.61302 -10.50368,14.53482 l 0.2825,0 c 0.74546,-1.1288 1.46782,-2.25539 2.28565,-3.37285 12.56274,-17.16452 29.36969,-26.92673 40.73064,-24.67191 0.71299,-0.42401 1.14402,-0.77572 0.77041,-0.95035 z"
         stroke-miterlimit="4" />
    </g>
    <text
       transform="scale(1.4157253,0.70635171)"
       sodipodi:linespacing="125%"
       id="text4244"
       y="90.129242"
       x="-1.9494534"
       style="font-style:normal;font-variant:normal;font-weight:bold;font-stretch:normal;font-size:34.71718979px;line-height:125%;font-family:sans-serif;-inkscape-font-specification:'sans-serif Bold';letter-spacing:0px;word-spacing:0px;fill:#000000;fill-opacity:1;stroke:none;stroke-width:1px;stroke-linecap:butt;stroke-linejoin:miter;stroke-opacity:1"
       xml:space="preserve"><tspan
         style="font-style:normal;font-variant:normal;font-weight:normal;font-stretch:normal;font-family:sans-serif;-inkscape-font-specification:sans-serif"
         y="90.129242"
         x="-1.9494534"
         id="tspan4246"
         sodipodi:role="line">GATE</tspan></text>
  </g>
</svg>
