<?xml version="1.0" encoding="UTF-8" standalone="no"?>
<svg
   xmlns:dc="http://purl.org/dc/elements/1.1/"
   xmlns:cc="http://creativecommons.org/ns#"
   xmlns:rdf="http://www.w3.org/1999/02/22-rdf-syntax-ns#"
   xmlns:svg="http://www.w3.org/2000/svg"
   xmlns="http://www.w3.org/2000/svg"
   version="1.1"
   id="svg2"
   height="64"
   width="167.174">
  <metadata
     id="metadata43">
    <rdf:RDF>
      <cc:Work
         rdf:about="">
        <dc:format>image/svg+xml</dc:format>
        <dc:type
           rdf:resource="http://purl.org/dc/dcmitype/StillImage" />
        <dc:title>dna</dc:title>
      </cc:Work>
    </rdf:RDF>
  </metadata>
  <defs
     id="defs41" />
  <title
     id="title4">dna</title>
  <g
     transform="translate(0.08699772,-3.9531017e-8)"
     id="g4262">
    <text
       xml:space="preserve"
       style="font-style:normal;font-variant:normal;font-weight:bold;font-stretch:normal;font-size:40.46300125px;line-height:125%;font-family:sans-serif;-inkscape-font-specification:'sans-serif Bold';letter-spacing:0px;word-spacing:0px;fill:#000000;fill-opacity:1;stroke:none;stroke-width:1px;stroke-linecap:butt;stroke-linejoin:miter;stroke-opacity:1"
       x="-2.3248188"
       y="105.02914"
       id="text4244"
       transform="scale(1.6500328,0.60604856)"><tspan
         id="tspan4246"
         x="-2.3248188"
         y="105.02914"
         style="font-style:normal;font-variant:normal;font-weight:normal;font-stretch:normal;font-family:sans-serif;-inkscape-font-specification:sans-serif">GATE</tspan></text>
    <g
       id="g4244"
       transform="translate(-0.08667442,2.291046e-4)">
      <g
         id="g4239">
        <path
           style="fill:#994444;fill-opacity:1;stroke:#994444;stroke-width:0.52447206;stroke-miterlimit:4;stroke-opacity:1"
           id="svg_10"
           d="M 46.308029,39.117972 C 42.212065,39.355621 44.03887,39.187806 34.622,39.233356 23.512081,39.135657 10.820887,7.6837545 0.79773076,0.26435756 6.5610316,0.27967215 4.078324,0.27967215 8.2217462,0.4043444 17.907105,0.34050042 29.934415,36.665766 46.308029,39.117972 Z"
           stroke-miterlimit="4" />
        <path
           style="fill:#767d90;fill-opacity:1;stroke:#767d90;stroke-width:0.52447206;stroke-miterlimit:4;stroke-opacity:1"
           id="svg_12"
           d="M 46.308029,0.39528677 C 42.212065,0.15763274 44.03887,0.32545331 34.621988,0.27990291 23.512081,0.37760682 10.820887,31.82951 0.79773076,39.248881 6.5610316,39.233618 4.078324,39.233618 8.2217462,39.10893 17.907105,39.172759 29.934403,2.8474979 46.308029,0.39528677 Z"
           stroke-miterlimit="4" />
        <path
           style="fill:#ffffff;fill-opacity:0.60264899;stroke-miterlimit:4"
           id="svg_13"
           d="m 41.756745,0.53050616 c -2.45586,0.006136 -4.911749,0.0134265 -7.367628,0.0195628 C 29.328017,1.3610654 26.806872,5.2349105 24.152556,8.1145401 22.171067,10.59801 20.371831,13.156301 18.643675,15.737647 l 0.148164,0 c 0.390969,-0.592024 0.769818,-1.182889 1.198753,-1.768965 C 26.5794,4.9663703 35.394169,-0.15363619 41.352669,1.0289539 41.726614,0.80657252 41.952677,0.62211045 41.756745,0.53052189 Z"
           stroke-miterlimit="4" />
      </g>
      <g
         id="g4234">
        <path
           style="fill:#767d90;fill-opacity:1;stroke:#767d90;stroke-width:0.52447206;stroke-miterlimit:4;stroke-opacity:1"
           id="svg_11"
           d="m 84.906693,39.117972 c -4.095954,0.237649 -2.26917,0.06983 -11.686014,0.115384 C 62.110735,39.135657 49.419554,7.6837545 39.396406,0.26435756 45.159703,0.27967216 42.677015,0.27967216 46.820402,0.4043444 56.50578,0.3405004 68.53311,36.665766 84.906693,39.117972 Z"
           stroke-miterlimit="4" />
        <path
           style="fill:#994444;fill-opacity:1;stroke:#994444;stroke-width:0.52447206;stroke-miterlimit:4;stroke-opacity:1"
           id="svg_14"
           d="M 84.906693,0.39528677 C 80.810739,0.15763274 82.637523,0.32545331 73.220658,0.27990291 62.110735,0.37760682 49.419554,31.82951 39.396406,39.248881 45.159703,39.233618 42.676983,39.233618 46.820402,39.10893 56.50578,39.172759 68.53311,2.8474979 84.906693,0.39528677 Z"
           stroke-miterlimit="4" />
        <path
           style="fill:#ffffff;fill-opacity:0.60264899;stroke-miterlimit:4"
           id="svg_15"
           d="m 80.355408,0.53050616 c -2.455877,0.006136 -4.911738,0.0134265 -7.367615,0.0195628 C 67.926679,1.3610654 65.405547,5.2349105 62.751231,8.1145401 60.769733,10.59801 58.970505,13.156301 57.242344,15.737647 l 0.148163,0 c 0.390978,-0.592024 0.769825,-1.182889 1.19876,-1.768965 C 65.178073,4.9663703 73.992838,-0.15363619 79.951339,1.0289539 80.325293,0.80657252 80.551351,0.62211045 80.355408,0.53052189 Z"
           stroke-miterlimit="4" />
      </g>
      <g
         id="g4229">
        <path
           style="fill:#994444;fill-opacity:1;stroke:#994444;stroke-width:0.52447206;stroke-miterlimit:4;stroke-opacity:1"
           id="svg_17"
           d="m 123.02832,39.117972 c -4.09597,0.237649 -2.26915,0.06983 -11.68604,0.115384 C 100.23239,39.135656 87.541179,7.6837545 77.51803,0.26435756 83.281323,0.27967216 80.798613,0.27967216 84.942042,0.4043444 94.6274,0.3405004 106.65472,36.665766 123.02832,39.117972 Z"
           stroke-miterlimit="4" />
        <path
           style="fill:#767d90;fill-opacity:1;stroke:#767d90;stroke-width:0.52447206;stroke-miterlimit:4;stroke-opacity:1"
           id="svg_19"
           d="M 123.02832,0.39528677 C 118.93235,0.15763274 120.75917,0.32545331 111.34228,0.27990291 100.23239,0.37760682 87.541179,31.82951 77.51803,39.248881 83.281323,39.233618 80.798613,39.233618 84.942042,39.10893 94.6274,39.172759 106.6547,2.8474979 123.02832,0.39528677 Z"
           stroke-miterlimit="4" />
        <path
           style="fill:#ffffff;fill-opacity:0.60264899;stroke-miterlimit:4"
           id="svg_20"
           d="m 118.47703,0.53050616 c -2.45585,0.006136 -4.91174,0.0134265 -7.36762,0.0195628 -5.06108,0.81099644 -7.58224,4.68484154 -10.23656,7.56447114 -1.981482,2.4834699 -3.780725,5.0417609 -5.508887,7.6231069 l 0.148164,0 c 0.390973,-0.592024 0.76983,-1.182889 1.198759,-1.768965 6.588804,-9.0023117 15.403584,-14.1223182 21.362084,-12.9397281 0.37394,-0.22238139 0.60001,-0.40684346 0.40406,-0.49843202 z"
           stroke-miterlimit="4" />
      </g>
      <g
         transform="translate(-2,-0.54361458)"
         id="g4224">
        <path
           style="fill:#767d90;fill-opacity:1;stroke:#767d90;stroke-width:0.52447206;stroke-miterlimit:4;stroke-opacity:1"
           id="svg_11-2"
           d="m 169.13467,39.661356 c -4.09595,0.237649 -2.26917,0.06983 -11.68601,0.115384 -11.10995,-0.0977 -23.80113,-31.549601 -33.82428,-38.968998 5.7633,0.01531 3.28061,0.01531 7.424,0.139987 9.68538,-0.06384 21.71271,36.261421 38.08629,38.713627 z"
           stroke-miterlimit="4" />
        <path
           style="fill:#994444;fill-opacity:1;stroke:#994444;stroke-width:0.52447206;stroke-miterlimit:4;stroke-opacity:1"
           id="svg_14-5"
           d="m 169.13467,0.938671 c -4.09595,-0.237654 -2.26917,-0.06983 -11.68604,-0.115384 -11.10992,0.0977 -23.8011,31.549607 -33.82425,38.968978 5.7633,-0.01526 3.28058,-0.01526 7.424,-0.139951 9.68538,0.06383 21.71271,-36.261432 38.08629,-38.713643 z"
           stroke-miterlimit="4" />
        <path
           style="fill:#ffffff;fill-opacity:0.60264899;stroke-miterlimit:4"
           id="svg_15-4"
           d="m 164.58338,1.07389 c -2.45587,0.0061 -4.91173,0.01343 -7.36761,0.01956 -5.06111,0.810996 -7.58225,4.684842 -10.23656,7.564471 -1.9815,2.48347 -3.78073,5.041761 -5.50889,7.623107 l 0.14816,0 c 0.39098,-0.592024 0.76983,-1.182889 1.19876,-1.768965 6.58881,-9.002312 15.40357,-14.122318 21.36208,-12.939728 0.37395,-0.222381 0.60001,-0.406843 0.40406,-0.498432 z"
           stroke-miterlimit="4" />
      </g>
    </g>
  </g>
</svg>
