<?xml version="1.0" encoding="UTF-8" standalone="no"?>
<svg
   xmlns:dc="http://purl.org/dc/elements/1.1/"
   xmlns:cc="http://creativecommons.org/ns#"
   xmlns:rdf="http://www.w3.org/1999/02/22-rdf-syntax-ns#"
   xmlns:svg="http://www.w3.org/2000/svg"
   xmlns="http://www.w3.org/2000/svg"
   version="1.1"
   id="svg4349"
   viewBox="0 0 16 16"
   height="16"
   width="16">
  <defs
     id="defs4351" />
  <metadata
     id="metadata4354">
    <rdf:RDF>
      <cc:Work
         rdf:about="">
        <dc:format>image/svg+xml</dc:format>
        <dc:type
           rdf:resource="http://purl.org/dc/dcmitype/StillImage" />
        <dc:title></dc:title>
      </cc:Work>
    </rdf:RDF>
  </metadata>
  <g
     transform="translate(0,-1036.3622)"
     id="layer1">
    <text
       id="text4659"
       y="269.91299"
       x="-377.79611"
       style="font-style:normal;font-variant:normal;font-weight:bold;font-stretch:normal;font-size:87.45960999px;line-height:1.25;font-family:sans-serif;-inkscape-font-specification:'sans-serif Bold';letter-spacing:0px;word-spacing:0px;fill:#ffffff;fill-opacity:1;stroke:none;stroke-width:2.1864903"
       xml:space="preserve"><tspan
         style="fill:#ffffff;fill-opacity:1;stroke-width:2.1864903"
         y="269.91299"
         x="-377.79611"
         id="tspan4657">GATE</tspan></text>
    <g
       id="g4993"
       transform="matrix(0.12608766,0,0,0.12608766,-2.2696416,1035.8208)">
      <g
         id="g4212">
        <path
           style="fill:#ffffff;stroke-width:1.41171062"
           id="path17"
           d="m 139.2495,114.25313 -115.602153,0 c -3.118469,0 -5.646843,-2.52838 -5.646843,-5.64684 l 0,-81.729578 c 0,-3.118469 2.528374,-5.646843 5.646843,-5.646843 l 115.602153,0 c 3.11847,0 5.64685,2.528374 5.64685,5.646843 l 0,81.729578 c 0,3.11846 -2.52838,5.64684 -5.64685,5.64684 z" />
        <g
           transform="matrix(1.4117106,0,0,1.4117106,-8.9010527,-22.60798)"
           id="g21">
          <path
             style="fill:#e1e3e9"
             id="path19"
             d="m 108.944,42.054 0,-7.001 c 0,-2.209 -1.791,-4 -4,-4 l -81.888,0 c -2.209,0 -4,1.791 -4,4 l 0,7.001 z" />
        </g>
        <circle
           style="fill:#990000;fill-opacity:1;stroke-width:1.41171062"
           id="circle23"
           r="4.2351317"
           cy="28.994289"
           cx="26.39171" />
        <circle
           style="fill:#999900;fill-opacity:1;stroke-width:1.41171062"
           id="circle25"
           r="4.2351317"
           cy="28.994289"
           cx="39.097107" />
        <circle
           style="fill:#009900;fill-opacity:1;stroke-width:1.41171062"
           id="circle27"
           r="4.2351317"
           cy="28.994289"
           cx="51.803913" />
      </g>
      <g
         id="g4163"
         transform="matrix(0.83333333,0,0,0.83333333,383.91365,25.052084)">
        <g
           id="g4"
           transform="matrix(0.66759388,0,0,0.66759388,-396.35666,26.599531)">
          <path
             id="path6"
             d="m 92.028,25 -84,0 c -1.657,0 -3,-1.343 -3,-3 l 0,-14 c 0,-1.657 1.343,-3 3,-3 l 84,0 c 1.657,0 3,1.343 3,3 l 0,14 c 0,1.657 -1.343,3 -3,3 z" />
        </g>
        <g
           id="g8"
           transform="matrix(0.66759388,0,0,0.66759388,-396.35666,26.599531)">
          <path
             id="path10"
             d="m 92.028,59.938 -84,0 c -1.657,0 -3,-1.343 -3,-3 l 0,-14 c 0,-1.657 1.343,-3 3,-3 l 84,0 c 1.657,0 3,1.343 3,3 l 0,14 c 0,1.656 -1.343,3 -3,3 z" />
        </g>
        <g
           id="g12"
           transform="matrix(0.66759388,0,0,0.66759388,-396.35666,26.599531)">
          <path
             id="path14"
             d="m 92.028,94.875 -84,0 c -1.657,0 -3,-1.343 -3,-3 l 0,-14 c 0,-1.657 1.343,-3 3,-3 l 84,0 c 1.657,0 3,1.343 3,3 l 0,14 c 0,1.657 -1.343,3 -3,3 z" />
        </g>
      </g>
    </g>
  </g>
</svg>
