<?xml version="1.0" encoding="UTF-8" standalone="no"?>
<svg
   xmlns:dc="http://purl.org/dc/elements/1.1/"
   xmlns:cc="http://creativecommons.org/ns#"
   xmlns:rdf="http://www.w3.org/1999/02/22-rdf-syntax-ns#"
   xmlns:svg="http://www.w3.org/2000/svg"
   xmlns="http://www.w3.org/2000/svg"
   height="120.517"
   width="440.00101"
   id="svg50"
   xml:space="preserve"
   viewBox="0 0 440.00101 120.517"
   version="1.1"
   enable-background="new 0 0 128 128"><metadata
     id="metadata56"><rdf:RDF><cc:Work
         rdf:about=""><dc:format>image/svg+xml</dc:format><dc:type
           rdf:resource="http://purl.org/dc/dcmitype/StillImage" /><dc:title></dc:title></cc:Work></rdf:RDF></metadata><defs
     id="defs54" /><g
     transform="translate(0,-7.4830025)"
     id="Layer_1"><rect
       style="opacity:0;fill:#f4f5f5"
       id="rect2"
       y="-731"
       x="-539.98401"
       width="727.93799"
       height="1520" /></g><g
     transform="translate(0,-7.4830025)"
     id="layer1" /><g
     transform="translate(0,-7.4830025)"
     id="layer2"><g
       id="g5032"><rect
         style="fill:#767d90;fill-opacity:1;stroke-width:0.19196774;stroke-miterlimit:4;stroke-dasharray:none;paint-order:fill markers stroke"
         id="rect4735"
         width="440.00101"
         height="120.51707"
         x="4.5996094e-07"
         y="7.4829683"
         ry="11.369535" /><text
         xml:space="preserve"
         style="font-style:normal;font-variant:normal;font-weight:bold;font-stretch:normal;font-size:87.45960999px;line-height:1.25;font-family:sans-serif;-inkscape-font-specification:'sans-serif Bold';letter-spacing:0px;word-spacing:0px;fill:#ffffff;fill-opacity:1;stroke:none;stroke-width:2.1864903"
         x="176.4901"
         y="99.577995"
         id="text4659"><tspan
           id="tspan4657"
           x="176.4901"
           y="99.577995"
           style="fill:#ffffff;fill-opacity:1;stroke-width:2.1864903">GATE</tspan></text>
<g
         id="g4993"><g
           id="g4212"><path
             d="m 139.2495,114.25313 -115.602153,0 c -3.118469,0 -5.646843,-2.52838 -5.646843,-5.64684 l 0,-81.729578 c 0,-3.118469 2.528374,-5.646843 5.646843,-5.646843 l 115.602153,0 c 3.11847,0 5.64685,2.528374 5.64685,5.646843 l 0,81.729578 c 0,3.11846 -2.52838,5.64684 -5.64685,5.64684 z"
             id="path17"
             style="fill:#ffffff;stroke-width:1.41171062" /><g
             id="g21"
             transform="matrix(1.4117106,0,0,1.4117106,-8.9010527,-22.60798)"><path
               d="m 108.944,42.054 0,-7.001 c 0,-2.209 -1.791,-4 -4,-4 l -81.888,0 c -2.209,0 -4,1.791 -4,4 l 0,7.001 z"
               id="path19"
               style="fill:#e1e3e9" /></g><circle
             cx="26.39171"
             cy="28.994289"
             r="4.2351317"
             id="circle23"
             style="fill:#990000;fill-opacity:1;stroke-width:1.41171062" /><circle
             cx="39.097107"
             cy="28.994289"
             r="4.2351317"
             id="circle25"
             style="fill:#999900;fill-opacity:1;stroke-width:1.41171062" /><circle
             cx="51.803913"
             cy="28.994289"
             r="4.2351317"
             id="circle27"
             style="fill:#009900;fill-opacity:1;stroke-width:1.41171062" /></g><g
           transform="matrix(0.83333333,0,0,0.83333333,383.91365,25.052084)"
           id="g4163"><g
             transform="matrix(0.66759388,0,0,0.66759388,-396.35666,26.599531)"
             id="g4"><path
               d="m 92.028,25 -84,0 c -1.657,0 -3,-1.343 -3,-3 l 0,-14 c 0,-1.657 1.343,-3 3,-3 l 84,0 c 1.657,0 3,1.343 3,3 l 0,14 c 0,1.657 -1.343,3 -3,3 z"
               id="path6" /></g><g
             transform="matrix(0.66759388,0,0,0.66759388,-396.35666,26.599531)"
             id="g8"><path
               d="m 92.028,59.938 -84,0 c -1.657,0 -3,-1.343 -3,-3 l 0,-14 c 0,-1.657 1.343,-3 3,-3 l 84,0 c 1.657,0 3,1.343 3,3 l 0,14 c 0,1.656 -1.343,3 -3,3 z"
               id="path10" /></g><g
             transform="matrix(0.66759388,0,0,0.66759388,-396.35666,26.599531)"
             id="g12"><path
               d="m 92.028,94.875 -84,0 c -1.657,0 -3,-1.343 -3,-3 l 0,-14 c 0,-1.657 1.343,-3 3,-3 l 84,0 c 1.657,0 3,1.343 3,3 l 0,14 c 0,1.657 -1.343,3 -3,3 z"
               id="path14" /></g></g></g></g></g></svg>