<?xml version="1.0" encoding="UTF-8" standalone="no"?>
<svg
   xmlns:dc="http://purl.org/dc/elements/1.1/"
   xmlns:cc="http://creativecommons.org/ns#"
   xmlns:rdf="http://www.w3.org/1999/02/22-rdf-syntax-ns#"
   xmlns:svg="http://www.w3.org/2000/svg"
   xmlns="http://www.w3.org/2000/svg"
   height="16"
   width="16"
   xml:space="preserve"
   viewBox="0 0 15.999999 15.999999"
   y="0px"
   x="0px"
   id="Layer_1"
   version="1.1"><metadata
   id="metadata47"><rdf:RDF><cc:Work
       rdf:about=""><dc:format>image/svg+xml</dc:format><dc:type
         rdf:resource="http://purl.org/dc/dcmitype/StillImage" /><dc:title></dc:title></cc:Work></rdf:RDF></metadata><defs
   id="defs45" />





<g
   transform="translate(0,-496.00201)"
   id="g12">
</g>
<g
   transform="translate(0,-496.00201)"
   id="g14">
</g>
<g
   transform="translate(0,-496.00201)"
   id="g16">
</g>
<g
   transform="translate(0,-496.00201)"
   id="g18">
</g>
<g
   transform="translate(0,-496.00201)"
   id="g20">
</g>
<g
   transform="translate(0,-496.00201)"
   id="g22">
</g>
<g
   transform="translate(0,-496.00201)"
   id="g24">
</g>
<g
   transform="translate(0,-496.00201)"
   id="g26">
</g>
<g
   transform="translate(0,-496.00201)"
   id="g28">
</g>
<g
   transform="translate(0,-496.00201)"
   id="g30">
</g>
<g
   transform="translate(0,-496.00201)"
   id="g32">
</g>
<g
   transform="translate(0,-496.00201)"
   id="g34">
</g>
<g
   transform="translate(0,-496.00201)"
   id="g36">
</g>
<g
   transform="translate(0,-496.00201)"
   id="g38">
</g>
<g
   transform="translate(0,-496.00201)"
   id="g40">
</g>
<g
   transform="translate(0,-496.00201)"
   id="layer1" /><g
   transform="scale(0.25)"
   id="g838"><circle
     r="32"
     cy="32"
     cx="32"
     id="path854"
     style="fill:#767d90;fill-opacity:1;stroke-width:0.064;stroke-miterlimit:4;stroke-dasharray:none;paint-order:fill markers stroke" /><g
     transform="matrix(0.20371616,0,0,0.20371616,-13.691285,-71.895652)"
     id="g894"><polygon
       style="fill:#bcabdb;fill-opacity:1"
       points="208.336,167.901 167.902,208.336 431.815,503.512 503.512,431.815 "
       id="polygon2"
       transform="matrix(0.39665462,0,0,0.39665462,122.74441,408.45755)" /><polygon
       style="opacity:0.1;enable-background:new"
       points="208.335,167.901 167.901,208.335 220.454,267.114 231.52,231.52 267.114,220.454 "
       id="polygon4"
       transform="matrix(0.39665462,0,0,0.39665462,122.74441,408.45755)" /><path
       style="fill:#ffd782;stroke-width:0.39665461"
       d="m 210.59071,421.10964 c 0.0972,-7.58245 -8.54315,-11.98492 -14.62069,-7.44957 l -18.46982,13.78335 c -2.41325,1.80121 -5.55872,2.29901 -8.41067,1.33196 l -21.82473,-7.40117 c -7.18183,-2.43546 -14.0388,4.42151 -11.60334,11.60333 l 7.40118,21.82474 c 0.96665,2.85194 0.46885,5.99702 -1.33196,8.41066 l -13.78335,18.46983 c -4.53575,6.07754 -0.13328,14.71747 7.44957,14.62068 l 23.04404,-0.29431 c 3.0114,-0.0381 5.84828,1.40693 7.58721,3.86579 l 13.30657,18.81571 c 4.37828,6.19178 13.95669,4.67497 16.20731,-2.56715 l 6.84071,-22.00679 c 0.89366,-2.87614 3.14507,-5.12795 6.02122,-6.02122 l 22.00679,-6.8411 c 7.24212,-2.25062 8.75853,-11.82904 2.56715,-16.20731 L 214.16219,451.7405 c -2.45886,-1.73854 -3.90387,-4.57621 -3.8658,-7.58721 z"
       id="path6" /></g></g></svg>