<?xml version="1.0" encoding="UTF-8" standalone="no"?>
<svg version="1.0" width="600" height="600" xmlns="http://www.w3.org/2000/svg" xmlns:xlink="http://www.w3.org/1999/xlink">

 <circle r="231" cx="300" cy="300" style="fill: none; stroke: #666666; stroke-width: 66;"/>

 <circle r="222.85" cx="300" cy="300" style="fill: none; stroke: #000000; stroke-width: 23.3;"/>
 <g id="steve">
  <line id="bob" x1="300" y1="540" x2="300" y2="505" stroke="#666666" stroke-width="3" transform="rotate(5 300 300)"/>
  <use xlink:href="#bob" transform="rotate(10 300 300)"/>
  <use xlink:href="#bob" transform="rotate(20 300 300)"/>
  <use xlink:href="#bob" transform="rotate(30 300 300)"/>
  <use xlink:href="#bob" transform="rotate(40 300 300)"/>
  <use xlink:href="#bob" transform="rotate(50 300 300)"/>
  <use xlink:href="#bob" transform="rotate(60 300 300)"/>
  <use xlink:href="#bob" transform="rotate(70 300 300)"/>
  <use xlink:href="#bob" transform="rotate(80 300 300)"/>
  <use xlink:href="#bob" transform="rotate(90 300 300)"/>
  <use xlink:href="#bob" transform="rotate(100 300 300)"/>
  <use xlink:href="#bob" transform="rotate(110 300 300)"/>
 </g>
 <use xlink:href="#steve" transform="rotate(120 300 300)"/>
 <use xlink:href="#steve" transform="rotate(-120 300 300)"/>

 <g id="chevron">
  <polygon points="240,36 280,48 300,72 320,48 360,36" fill="#999999"/>
  <polygon points="280,40 300,64 320,40" fill="#0055ff"/>
 </g>
 <use xlink:href="#chevron" transform="rotate(40 300 300)"/>
 <use xlink:href="#chevron" transform="rotate(80 300 300)"/>
 <use xlink:href="#chevron" transform="rotate(120 300 300)"/>
 <use xlink:href="#chevron" transform="rotate(160 300 300)"/>
 <use xlink:href="#chevron" transform="rotate(-40 300 300)"/>
 <use xlink:href="#chevron" transform="rotate(-80 300 300)"/>
 <use xlink:href="#chevron" transform="rotate(-120 300 300)"/>
 <use xlink:href="#chevron" transform="rotate(-160 300 300)"/>
</svg>